<?xml version="1.0" encoding="UTF-8"?>
<svg width="343px" height="107px" viewBox="0 0 343 107" version="1.1" xmlns="http://www.w3.org/2000/svg" xmlns:xlink="http://www.w3.org/1999/xlink">
    <!-- Generator: Sketch 56.2 (81672) - https://sketch.com -->
    <title>Graph Line</title>
    <desc>Created with Sketch.</desc>
    <g id="Symbols" stroke="none" stroke-width="1" fill="none" fill-rule="evenodd" opacity="0.3" stroke-linecap="round" stroke-linejoin="round">
        <g id="ZB.COM/image/assets/red" transform="translate(0.000000, -73.000000)" stroke="#FFFFFF" stroke-width="5">
            <path d="M-1,76.1720532 C-1,76.1720532 25.1731025,72.1812907 32.0846042,102.639684 C38.9961059,133.098078 30.749266,149.818274 55.0177921,149.818278 C79.2863182,149.818282 79.56145,179.000005 93.7283681,179 C107.895286,178.999995 104.4846,131.951869 129.035374,131.951869 C153.586147,131.951869 150.4079,114.383662 168.341278,114.383662 C186.274656,114.383661 178.412052,162.594314 190.337594,162.594309 C202.263137,162.594304 195.47497,127.469542 218.685662,124.22894 C241.896353,120.988338 240.368897,136.063776 258.0224,136.063776 C275.675903,136.063775 277.931509,106.616469 286.213926,106.616469 C294.496344,106.616468 294.059928,135.024734 309.424618,131.951869 C324.789308,128.879005 324.274622,76.1720531 348,76.1720532" id="Graph-Line"></path>
        </g>
    </g>
</svg>