<svg xmlns="http://www.w3.org/2000/svg" width="21" height="21" viewBox="0 0 21 21">
  <g fill="#FFF" transform="translate(.5)">
    <path d="M0.627103409,11.2550395 L13.1375029,11.2550395 L9.91136938,14.7974475 C9.6664855,15.0611503 9.6664855,15.521616 9.91105583,15.7856569 C10.0336545,15.9178464 10.1938795,16 10.3547315,16 C10.51527,16 10.6754949,15.9421882 10.7980936,15.8099987 L14.8162587,11.4822296 C14.9338406,11.3554494 15,11.1853949 15,11.0062122 C15,10.8270295 14.9338406,10.6559608 14.8162587,10.5291806 L14.6256193,10.3239657 C14.5823491,10.2563496 14.5277911,10.1975236 14.4647672,10.1512065 L10.7984072,6.19803068 C10.5535233,5.93398977 10.1562533,5.93398977 9.91168294,6.19803068 C9.66679906,6.46207159 9.66679906,6.82550818 9.91168294,7.08988717 L12.580635,9.90271732 L0.627103409,9.90271732 C0.280942327,9.90271732 0,10.2056375 0,10.5788784 C0,10.9521193 0.280942327,11.2550395 0.627103409,11.2550395 Z"/>
    <path d="M20,18.5806119 L20,2.99046269 C20,1.48786567 18.7565455,0 17.2168636,0 L8.94381818,0 C7.43436364,0 6,1.43426866 6,2.99046269 L6,6.70150746 C6,7.04753731 6.28509091,7.32837313 6.63636364,7.32837313 C6.98763636,7.32837313 7.27272727,7.04753731 7.27272727,6.70150746 L7.27272727,2.99046269 C7.27272727,2.12883582 8.1385,1.25373134 8.94381818,1.25373134 L17.2168636,1.25373134 C18.0590909,1.25373134 18.7272727,2.17428358 18.7272727,2.99046269 L18.7272727,18.5806119 C18.7272727,19.4152836 18.0263182,19.7462687 17.2168636,19.7462687 L8.94381818,19.7462687 C8.19131818,19.7462687 7.27272727,19.4682537 7.27272727,18.5806119 L7.27272727,14.8507612 C7.27272727,14.5047313 6.98763636,14.2238955 6.63636364,14.2238955 C6.28509091,14.2238955 6,14.5047313 6,14.8507612 L6,18.5806119 C6,20.0515522 7.33031818,21 8.94381818,21 L17.2168636,21 C18.8666364,21 20,20.0042239 20,18.5806119 Z"/>
  </g>
</svg>
