<svg xmlns="http://www.w3.org/2000/svg" width="345" height="107" viewBox="0 0 345 107">
  <path fill="#FFF" d="M-0.623166028,78.6434892 C-0.536556624,78.6302834 -0.323072653,78.6047182 0.0041963699,78.577297 C4.55197095,78.1962478 10.0109566,78.9486023 15.1810782,81.7461349 C22.1061233,85.4932498 27.1843825,92.3421985 29.6465843,103.19291 C31.375133,110.810476 31.8212747,114.331068 33.1242099,127.67373 C34.0838951,137.501353 34.9930913,141.769299 37.5859147,145.523776 C40.8290197,150.219877 46.2723772,152.318276 55.0177917,152.318278 C64.3306636,152.318279 69.8183503,156.420327 76.0823176,165.797781 C76.721076,166.754033 79.1858398,170.576377 79.8023047,171.497265 C84.4135139,178.385579 88.1010103,181.5 93.728369,181.5 C97.3115425,181.5 100.12556,179.438508 102.419282,175.73572 C104.090763,173.037426 105.441412,169.688689 107.268862,164.168086 C107.419568,163.712811 109.278682,157.980448 109.855595,156.278517 C114.995289,141.116076 120.062926,134.451869 129.035374,134.451869 C140.116128,134.451869 146.106933,131.579138 152.912859,124.959948 C153.299456,124.583958 154.567561,123.333022 154.723989,123.179879 C159.508768,118.495555 162.511539,116.883662 168.341278,116.883662 C174.012751,116.883662 176.853514,123.397558 179.118807,138.851568 C179.223157,139.563447 179.329284,140.304842 179.457991,141.217424 C179.521678,141.668983 179.745383,143.263979 179.78925,143.575499 C180.806208,150.797345 181.45358,154.336807 182.532057,157.559812 C184.127651,162.328215 186.549444,165.09431 190.337596,165.094309 C193.4825,165.094307 195.874146,163.424897 197.634046,160.456191 C198.878824,158.356422 199.767144,155.842083 200.967358,151.509374 C201.159967,150.814063 201.84447,148.29177 201.97998,147.799222 C202.385684,146.324589 202.722329,145.154489 203.069768,144.030509 C206.390316,133.288397 210.729322,127.864027 219.031351,126.704925 C228.943973,125.320956 233.245028,126.74785 240.32147,131.934501 L240.731906,132.235428 C247.038241,136.857455 250.925123,138.563776 258.0224,138.563776 C266.792396,138.563776 272.353535,133.126164 277.853104,122.488216 C278.368611,121.491059 281.519878,115.035204 282.365719,113.506259 C284.08479,110.398864 285.347803,109.116469 286.213927,109.116469 C287.275297,109.116469 288.600797,110.942855 290.531463,115.648511 C290.822475,116.3578 292.073855,119.508241 292.41886,120.349239 C294.388168,125.149713 296.054108,128.235402 298.315154,130.647757 C301.406329,133.945794 305.27496,135.331289 309.914897,134.403323 C313.626806,133.660959 316.566819,130.889096 319.164541,126.325773 C321.102347,122.921701 322.742099,118.849778 325.056885,112.136917 C325.397208,111.149982 327.045212,106.302564 327.513592,104.949818 C333.932257,86.411813 339.217309,78.6720531 348,78.6720532 C349.380712,78.6720532 350.5,77.5527651 350.5,76.1720532 C350.5,74.7913413 349.380712,73.6720532 348,73.6720532 C341.382731,73.6720532 336.089806,77.1355875 331.744105,83.4997024 C328.491993,88.2622987 326.007371,94.0181819 322.788792,103.313887 C322.314603,104.683413 320.665231,109.534854 320.330022,110.50696 C315.906903,123.333968 312.841401,128.719022 308.934339,129.500416 C303.713132,130.544632 300.676719,127.305022 297.044742,118.451553 C296.713921,117.645128 295.462483,114.494543 295.157258,113.75061 C292.408747,107.051606 290.278571,104.116468 286.213926,104.116469 C282.862347,104.116469 280.543919,106.470475 277.9906,111.08586 C277.070351,112.749304 273.874407,119.296686 273.411536,120.192029 C268.690841,129.323381 264.354118,133.563776 258.0224,133.563776 C252.198582,133.563776 249.215984,132.254431 243.687635,128.202604 L243.277272,127.901731 C235.233887,122.006363 229.692435,120.167962 218.339973,121.752956 C207.655723,123.244657 202.123823,130.160311 198.292787,142.553873 C197.927564,143.735386 197.577492,144.952155 197.159104,146.472893 C197.020029,146.978396 196.337092,149.49492 196.148818,150.17458 C194.091443,157.6016 192.613723,160.094308 190.337593,160.094309 C188.063727,160.09431 186.511478,155.455445 184.740402,142.878293 C184.696821,142.568805 184.473015,140.97309 184.408993,140.519152 C184.279125,139.598338 184.171792,138.848521 184.065941,138.126403 C182.89462,130.135553 181.779916,125.094007 179.95838,120.917206 C177.442837,115.149043 173.666395,111.883662 168.341278,111.883662 C160.975185,111.883662 156.857237,114.094184 151.226159,119.607039 C151.057878,119.771787 149.798001,121.014606 149.426839,121.375583 C143.489392,127.150123 138.689322,129.451869 129.035374,129.451869 C122.478403,129.451869 117.275495,132.382436 113.163522,137.789894 C110.029879,141.910798 107.707323,147.041328 105.120254,154.673353 C104.530606,156.412853 102.663553,162.169698 102.522166,162.596818 C99.1906173,172.661203 96.8126434,176.499999 93.7283672,176.5 C90.2849223,176.500001 87.7153836,174.329794 83.9572592,168.715835 C83.3721979,167.841859 80.9092365,164.022309 80.240044,163.020496 C73.143626,152.396824 66.3495897,147.31828 55.0177925,147.318278 C47.7604711,147.318276 43.8643998,145.816352 41.7001703,142.682491 C39.7775976,139.898555 38.9728972,136.121132 38.1005394,127.187783 C36.7761786,113.625712 36.3146681,109.983842 34.5226241,102.086458 C31.7457841,89.8491633 25.7712181,81.7913832 17.5605538,77.3486248 C11.4089078,74.0199931 5.02015772,73.139499 -0.413280996,73.5947562 C-0.856049519,73.6318549 -1.18134405,73.6708097 -1.37683397,73.7006171 C-2.74177041,73.9087368 -3.67955571,75.1839507 -3.47143605,76.5488872 C-3.2633164,77.9138236 -1.98810247,78.8516089 -0.623166028,78.6434892 Z" transform="translate(0 -73)"/>
</svg>
