<svg xmlns="http://www.w3.org/2000/svg" width="23" height="21" viewBox="0 0 23 21">
  <path fill="#A5A5A5" d="M16.6368353 5.89348378L16.6368353 7.5826494C16.6368353 7.90571386 16.9935149 8.10416775 17.2836144 7.94263552L22.7859922 4.85967749C23.0713359 4.69814526 23.0713359 4.29662228 22.7859922 4.13509005L17.2836144 1.05674723C16.9982706.895215001 16.6368353 1.09828409 16.6368353 1.41673335L16.6368353 3.10589897 12 3.10589897C12.0998703 3.54895881 12.1521833 4.00586427 12.1521833 4.47661534 12.1521833 4.96582724 12.0998703 5.43657832 12 5.89809898L16.6368353 5.89809898 16.6368353 5.89348378zM6.34670116 15.1051283L6.34670116 13.4170756C6.34670116 13.094224 5.99094437 12.8959009 5.70159552 13.0573267L.213454075 16.1382534C-.0711513583 16.2996792-.0711513583 16.7009376.213454075 16.8623634L5.70159552 19.9432902C5.98620095 20.104716 6.34670116 19.9017807 6.34670116 19.5835412L6.34670116 17.8954886 11 17.8954886C10.9003881 17.4481085 10.843467 16.9822797 10.843467 16.5026145 10.843467 16.0229493 10.8956447 15.5571205 11 15.1097404L6.34670116 15.1097404 6.34670116 15.1051283zM5.01806678 10C7.77776261 9.99096794 10.009006 7.74425206 10 4.97975598 9.99093929 2.21525989 7.74162911-.0134462361 4.98193328 0 2.21772076.00906594696-.00900598636 2.25578182 0 5.01577547.00906076212 7.78027155 2.25837095 10.0089777 5.01806678 10zM2.17736486 4.13273544L2.7701369 4.13273544C2.81214437 3.98463013 2.84948434 3.83174723 2.9101618 3.68841951 3.20888157 2.94311536 3.70830368 2.41280279 4.46443809 2.15959049 5.08988261 1.9493765 5.71999462 1.95415409 6.35010664 2.13092494 6.51346901 2.17870085 6.67683138 2.23603194 6.83085877 2.3076958 6.98021865 2.37935966 7.02222612 2.49879943 6.96154866 2.64690474 6.89620371 2.81412041 6.83085877 2.97655849 6.75617882 3.13899658 6.69083387 3.2823243 6.61148643 3.32532261 6.45745905 3.29187948 6.26142421 3.24888116 6.07005685 3.18677248 5.874022 3.14377417 5.4959548 3.06255513 5.11788759 3.05777754 4.74448788 3.18199489 4.27773824 3.3348778 4.03036093 3.68364191 3.88100105 4.13273544L5.15056006 4.12795785C5.24857749 4.12795785 5.33259242 4.20917689 5.33259242 4.30950629L5.33259242 4.72037909C5.33259242 4.8207085 5.25324498 4.90670513 5.15522756 4.90670513L3.76431364 4.91148272C3.76431364 5.0261449 3.76431364 5.13602948 3.76431364 5.24591407L5.15056006 5.24113648C5.24857749 5.24113648 5.33259242 5.32235552 5.33259242 5.42268492L5.33259242 5.83355772C5.33259242 5.93388713 5.25324498 6.01988376 5.15522756 6.01988376L3.9416785 6.02466135C3.9416785 6.02943894 3.9416785 6.03421653 3.9416785 6.03899412 4.08637089 6.37820306 4.30107572 6.65052573 4.65113795 6.78907586 5.05721014 6.95151394 5.47261732 6.94673635 5.88802449 6.85596213 6.08405934 6.81296381 6.28009419 6.75085513 6.47612904 6.70307922 6.62082143 6.66963609 6.70483636 6.71263441 6.76551382 6.85118454 6.83552626 7.00884503 6.90553871 7.17128311 6.97088366 7.33372119 7.03156111 7.4866041 6.99888864 7.59648868 6.85886374 7.68248531 6.82619127 7.70159568 6.7888513 7.72070604 6.75151133 7.73503881 6.16807428 7.96914076 5.56596724 8.05991498 4.94052273 7.95958557 4.50177807 7.88792171 4.09103838 7.73503881 3.74097615 7.45793855 3.2928965 7.10439684 3.00351172 6.64097055 2.83548185 6.09154762L2.81214437 6.02943894 2.18669986 6.03421653C2.08868243 6.03421653 2.0046675 5.95299749 2.0046675 5.85266808L2.0046675 5.44179529C2.0046675 5.34146588 2.08401494 5.25546925 2.18203236 5.25546925L2.67211948 5.25546925C2.67211948 5.14080707 2.67211948 5.03570008 2.67211948 4.9210379L2.18203236 4.9210379C2.08401494 4.9210379 2 4.83981886 2 4.73948946L2 4.32861666C2 4.21873207 2.07934744 4.13273544 2.17736486 4.13273544zM18 11C15.2368421 11 13 13.2368421 13 16 13 18.7631579 15.2368421 21 18 21 20.7631579 21 23 18.7631579 23 16 23 13.2413793 20.7631579 11 18 11zM19.6198266 18.5128333C19.3744907 18.7817519 19.0524873 18.9672131 18.6793723 19.0599437 18.515815 19.1016725 18.4442587 19.1758569 18.4493699 19.3334989 18.4544811 19.4818679 18.4493699 19.6348733 18.4493699 19.7878788 18.4493699 19.9223381 18.3727024 19.9965226 18.2295898 19.9965226 18.050699 20.0011591 17.8718083 20.0011591 17.6929175 19.9965226 17.5344714 19.9918861 17.4629151 19.9130651 17.4578039 19.7739692 17.4578039 19.6626925 17.4578039 19.5514158 17.4526927 19.4447756 17.4475816 19.2036761 17.4424704 19.1897665 17.181801 19.1526743 16.8495753 19.106309 16.5275719 19.0367611 16.2260132 18.9023017 15.9908996 18.7956615 15.9653438 18.7446597 16.0317889 18.5174698 16.0829006 18.3505547 16.1340122 18.1836397 16.190235 18.0167246 16.2566802 17.8219904 16.312903 17.7988077 16.5122384 17.8915383 16.8444641 18.0491803 17.2022457 18.1372744 17.5702495 18.1790031 17.8104743 18.2068223 18.0455879 18.1836397 18.265368 18.0955456 18.6793723 17.9332671 18.7458174 17.4974333 18.3931471 17.2331512 18.2755903 17.1450571 18.1375888 17.0801457 17.9995874 17.0245074 17.6366947 16.880775 17.2584685 16.7694983 16.9160204 16.5840371 16.3589035 16.2826627 16.0062331 15.8653751 16.0471224 15.2533532 16.0931229 14.5578738 16.5275719 14.1266766 17.2278015 13.8948501 17.5191379 13.797483 17.5191379 13.8021196 17.5191379 13.5285643 17.5191379 13.4358337 17.5191379 13.3431032 17.5191379 13.2503726 17.5242491 13.0417288 17.5651384 13.0092731 17.7900296 13 17.8615859 13 17.9331422 13 17.9995874 13 18.485148 13 18.485148 13 18.485148 13.4404703 18.485148 13.7511177 18.485148 13.7511177 18.8275961 13.8021196 19.0882655 13.8392118 19.3387126 13.9087597 19.5789373 14.0061268 19.7118276 14.0571287 19.7629392 14.1452227 19.7220499 14.270409 19.6607159 14.4605067 19.6044931 14.6506044 19.538048 14.8360656 19.476714 15.0122537 19.4102689 15.0400729 19.2262669 14.9566153 18.8480407 14.7897003 18.4544811 14.7201523 18.0353655 14.743335 17.9280311 14.7479715 17.8206966 14.7618811 17.7184733 14.8036099 17.3555806 14.9473423 17.2993578 15.3089916 17.6060277 15.531545 17.7593626 15.6428217 17.9382534 15.7262792 18.1222553 15.7958271 18.4391476 15.9163769 18.7611509 16.0322901 19.0678208 16.180659 20.0389421 16.6628581 20.2996115 17.7617155 19.6198266 18.5128333z"/>
</svg>
