<svg xmlns="http://www.w3.org/2000/svg" xmlns:xlink="http://www.w3.org/1999/xlink" width="25" height="21" viewBox="0 0 25 21">
  <defs>
    <path id="icon-return-a" d="M39.6029711,55.4197514 C40.1669953,55.97942 40.1669953,56.886822 39.6029711,57.4464906 L32.931,64.066 L51.5557259,64.0666879 C52.3533764,64.0666879 53,64.708318 53,65.4998089 C53,66.2912998 52.3533764,66.9329299 51.5557259,66.9329299 L32.929,66.932 L39.6029711,73.5535094 C40.1669953,74.113178 40.1669953,75.02058 39.6029711,75.5802486 C39.038947,76.1399171 38.1244832,76.1399171 37.5604591,75.5802486 L28.4230181,66.5133696 L28.3978594,66.4869846 C28.3841557,66.4726788 28.3707468,66.4580924 28.3576421,66.443235 L28.4230181,66.5133696 C28.3786498,66.4693439 28.3377717,66.4231665 28.3003838,66.3751758 C28.2943414,66.3663388 28.2875412,66.3573906 28.2808451,66.3483617 C28.2335707,66.285793 28.1929161,66.2203228 28.1580355,66.1526768 C28.152821,66.1410967 28.1468762,66.1291893 28.1410947,66.1171896 C27.9556494,65.7327644 27.9532828,65.2838948 28.1331439,64.8980548 C28.1424495,64.8792804 28.1515771,64.8607969 28.1610885,64.8425422 C28.1926501,64.7808104 28.2295097,64.7210526 28.2711694,64.6636641 C28.2830976,64.6480052 28.2948848,64.6324248 28.3069798,64.6170951 C28.3218887,64.5975578 28.3377909,64.5784656 28.3542679,64.5596977 C28.3697605,64.5425523 28.3850857,64.5258814 28.4007948,64.5095778 C28.4076013,64.5021 28.4152563,64.4943323 28.4230181,64.4866304 L37.5604591,55.4197514 C38.1244832,54.8600829 39.038947,54.8600829 39.6029711,55.4197514 Z"/>
  </defs>
  <use fill="#FFF" transform="matrix(1 0 0 -1 -28 76)" xlink:href="#icon-return-a"/>
</svg>
