<?xml version="1.0" encoding="UTF-8"?>
<svg width="38px" height="38px" viewBox="0 0 38 38" version="1.1" xmlns="http://www.w3.org/2000/svg" xmlns:xlink="http://www.w3.org/1999/xlink">
    <!-- Generator: Sketch 56.3 (81716) - https://sketch.com -->
    <title>资金转移</title>
    <desc>Created with Sketch.</desc>
    <g id="资金" stroke="none" stroke-width="1" fill="none" fill-rule="evenodd">
        <g id="Home" transform="translate(-266.000000, -164.000000)" fill-rule="nonzero">
            <g id="资金转移" transform="translate(266.000000, 164.000000)">
                <path d="M38,23 L0,23 L0,1.31428571 C0,0.591428571 0.589655172,0 1.31034483,0 L36.6896552,0 C37.4103448,0 38,0.591428571 38,1.31428571 L38,23 Z" id="Path" fill="#576177"></path>
                <g id="Group" transform="translate(0.000000, 23.000000)" fill="#E6E6E6">
                    <path d="M38,0 L0,0 L0,3.91304348 C0,4.63043478 0.589655172,5.2173913 1.31034483,5.2173913 L36.6896552,5.2173913 C37.4103448,5.2173913 38,4.63043478 38,3.91304348 L38,0 Z" id="Path"></path>
                    <path d="M29.187931,13.1086957 L29.187931,13.1086957 C28.9668103,12.6684783 28.5081897,12.3913043 28.0168103,12.3913043 L24.8965517,12.3913043 L23.5862069,5.2173913 L14.4137931,5.2173913 L13.1034483,12.3913043 L9.98318966,12.3913043 C9.48362069,12.3913043 9.03318966,12.6684783 8.81206897,13.1086957 L8.81206897,13.1086957 C8.37801724,13.9728261 9.00862069,15 9.98318966,15 L28.0168103,15 C28.9913793,15 29.6219828,13.9809783 29.187931,13.1086957 Z" id="Path"></path>
                </g>
                <rect id="Rectangle" fill="#FFFFFF" x="18" y="24" width="4" height="1"></rect>
                <polygon id="Path" fill="#D6D6D6" points="23.75382 28 14.24618 28 14 29 24 29"></polygon>
                <g id="Group" transform="translate(17.000000, 1.000000)" fill="#FFFFFF">
                    <polygon id="Path" points="3.159375 0.0241525424 2.090625 0.941949153 3.065625 1.77118644 0.375 1.77118644 0.375 3.05932203 3.065625 3.05932203 2.090625 3.88855932 3.159375 4.80635593 5.934375 2.41525424"></polygon>
                    <polygon id="Path" points="5.625 15.940678 2.934375 15.940678 3.909375 15.1114407 2.840625 14.1936441 0.065625 16.5847458 2.840625 18.9758475 3.909375 18.0580508 2.934375 17.2288136 5.625 17.2288136"></polygon>
                </g>
                <path d="M33.7777778,18 L25.2222222,18 C24.55,18 24,17.37 24,16.6 L24,5.4 C24,4.63 24.55,4 25.2222222,4 L33.7777778,4 C34.45,4 35,4.63 35,5.4 L35,16.6 C35,17.37 34.45,18 33.7777778,18 Z" id="Path" fill="#E65039"></path>
                <g id="Group" transform="translate(25.000000, 7.000000)" fill="#AD3C2B">
                    <path d="M1.33333333,5.82352941 L0,5.82352941 L0,1.29411765 L0.666666667,1.29411765 C1.03333333,1.29411765 1.33333333,1.00294118 1.33333333,0.647058824 L1.33333333,0 L4.66666667,0 L4.66666667,1.29411765 L2.55,1.29411765 C2.35,1.84411765 1.9,2.28088235 1.33333333,2.475 L1.33333333,5.82352941 Z" id="Path"></path>
                    <path d="M8,5.82352941 L6.66666667,5.82352941 L6.66666667,2.475 C6.1,2.28088235 5.65,1.84411765 5.45,1.29411765 L4.66666667,1.29411765 L4.66666667,0 L6.66666667,0 L6.66666667,0.647058824 C6.66666667,1.00294118 6.96666667,1.29411765 7.33333333,1.29411765 L8,1.29411765 L8,5.82352941 Z" id="Path"></path>
                    <path d="M6.66666667,11 L1.33333333,11 L1.33333333,10.3529412 C1.33333333,8.92132353 2.525,7.76470588 4,7.76470588 L4,7.76470588 C5.475,7.76470588 6.66666667,8.92132353 6.66666667,10.3529412 L6.66666667,11 Z" id="Path"></path>
                    <rect id="Rectangle" x="3.33333333" y="3.23529412" width="1.33333333" height="2.58823529"></rect>
                </g>
                <path d="M10,18 L10,18 C6.15,18 3,14.85 3,11 L3,11 C3,7.15 6.15,4 10,4 L10,4 C13.85,4 17,7.15 17,11 L17,11 C17,14.85 13.85,18 10,18 Z" id="Path" fill="#FCB641"></path>
                <path d="M10,16 L10,16 C7.25,16 5,13.75 5,11 L5,11 C5,8.25 7.25,6 10,6 L10,6 C12.75,6 15,8.25 15,11 L15,11 C15,13.75 12.75,16 10,16 Z" id="Path" fill="#FDD38D"></path>
                <path d="M10,15 L10,15 C7.8,15 6,13.2 6,11 L6,11 C6,8.8 7.8,7 10,7 L10,7 C12.2,7 14,8.8 14,11 L14,11 C14,13.2 12.2,15 10,15 Z" id="Path" fill="#FCB641"></path>
                <rect id="Rectangle" fill="#FDD38D" x="10" y="9" width="1" height="1"></rect>
            </g>
        </g>
    </g>
</svg>