<svg xmlns="http://www.w3.org/2000/svg" width="25" height="22" viewBox="0 0 25 22">
  <g fill="#A5A5A5" transform="rotate(180 12.5 11)">
    <path d="M0.668910303,11.2550395 L14.0133364,11.2550395 L10.5721273,14.7974475 C10.3109179,15.0611503 10.3109179,15.521616 10.5717929,15.7856569 C10.7025649,15.9178464 10.8734714,16 11.0450469,16 C11.216288,16 11.3871945,15.9421882 11.5179665,15.8099987 L15.8040093,11.4822296 C15.92943,11.3554494 16,11.1853949 16,11.0062122 C16,10.8270295 15.92943,10.6559608 15.8040093,10.5291806 L15.6006605,10.3239657 C15.5545057,10.2563496 15.4963105,10.1975236 15.4290851,10.1512065 L11.518301,6.19803068 C11.2570915,5.93398977 10.8333368,5.93398977 10.5724618,6.19803068 C10.3112523,6.46207159 10.3112523,6.82550818 10.5724618,7.08988717 L13.419344,9.90271732 L0.668910303,9.90271732 C0.299671816,9.90271732 0,10.2056375 0,10.5788784 C0,10.9521193 0.299671816,11.2550395 0.668910303,11.2550395 Z" transform="rotate(180 8 11)"/>
    <path d="M25,19.465403 L25,3.13286567 C25,1.55871642 23.6677273,0 22.0180682,0 L13.1540909,0 C11.5368182,0 10,1.50256716 10,3.13286567 L10,7.02062687 C10,7.38313433 10.3054545,7.67734328 10.6818182,7.67734328 C11.0581818,7.67734328 11.3636364,7.38313433 11.3636364,7.02062687 L11.3636364,3.13286567 C11.3636364,2.23020896 12.29125,1.31343284 13.1540909,1.31343284 L22.0180682,1.31343284 C22.9204545,1.31343284 23.6363636,2.2778209 23.6363636,3.13286567 L23.6363636,19.465403 C23.6363636,20.3398209 22.8853409,20.6865672 22.0180682,20.6865672 L13.1540909,20.6865672 C12.3478409,20.6865672 11.3636364,20.3953134 11.3636364,19.465403 L11.3636364,15.5579403 C11.3636364,15.1954328 11.0581818,14.9012239 10.6818182,14.9012239 C10.3054545,14.9012239 10,15.1954328 10,15.5579403 L10,19.465403 C10,21.0063881 11.4253409,22 13.1540909,22 L22.0180682,22 C23.7856818,22 25,20.956806 25,19.465403 Z"/>
  </g>
</svg>
