<?xml version="1.0" encoding="UTF-8"?>
<svg width="41px" height="41px" viewBox="0 0 41 41" version="1.1" xmlns="http://www.w3.org/2000/svg" xmlns:xlink="http://www.w3.org/1999/xlink">
    <!-- Generator: Sketch 56.3 (81716) - https://sketch.com -->
    <title>Group 4</title>
    <desc>Created with Sketch.</desc>
    <g id="资金" stroke="none" stroke-width="1" fill="none" fill-rule="evenodd">
        <g id="Home" transform="translate(-170.000000, -158.000000)">
            <g id="Group-4" transform="translate(170.000000, 158.000000)">
                <g id="付款-2" fill-rule="nonzero">
                    <polygon id="Path" fill="#BCAAA4" points="41 30.0666667 41 14.7933304 20.5 5.46666667 0 14.7933304 0 30.0666667"></polygon>
                    <path d="M36.9,15.7166667 C36.9,24.3967739 29.8634406,31.4333333 21.1833333,31.4333333 C12.5032261,31.4333333 5.46666667,24.3967739 5.46666667,15.7166667 C5.46666667,7.03655942 12.5032261,0 21.1833333,0 C29.8634406,0 36.9,7.03655942 36.9,15.7166667 Z" id="Path" fill="#F4A60B"></path>
                    <path d="M34.1666667,15.7166667 C34.1666667,22.8872958 28.3539624,28.7 21.1833333,28.7 C14.0127042,28.7 8.2,22.8872958 8.2,15.7166667 C8.2,8.54603756 14.0127042,2.73333333 21.1833333,2.73333333 C28.3539624,2.73333333 34.1666667,8.54603756 34.1666667,15.7166667 Z" id="Path" fill="#FFC32C"></path>
                    <path d="M20.5,29.4084362 L0,16.4 L0,38.4240969 C0,39.8466293 1.14736938,41 2.5625,41 L38.4375,41 C39.8526306,41 41,39.8466293 41,38.4240969 L41,16.4 L20.5,29.4084362 Z" id="Path" fill="#EEEEEE"></path>
                    <g id="Group" transform="translate(0.000000, 24.600000)" fill="#E0E0E0">
                        <path d="M15.5477176,1.47279692 L1.84901961,16.3900703 C0.956227002,16.1607265 0.253423733,15.4589219 0.00973500784,14.5533985 L13.3224877,0.055734416 L15.5477176,1.47279692 Z" id="Path"></path>
                        <path d="M40.990265,14.5533985 C40.7465763,15.4589219 40.043773,16.1607265 39.1509804,16.3900703 L25.4522824,1.47279692 L27.6775123,0.055734416 L40.990265,14.5533985 Z" id="Path"></path>
                    </g>
                </g>
                <text id="¥" font-family="PingFangSC-Semibold, PingFang SC" font-size="14" font-weight="500" fill="#FFFFFF">
                    <tspan x="17" y="21">¥</tspan>
                </text>
            </g>
        </g>
    </g>
</svg>