<svg xmlns="http://www.w3.org/2000/svg" width="25" height="25" viewBox="0 0 25 25">
  <g fill="#A5A5A5">
    <path d="M19.4380372,4.44520833 C19.4475509,4.4459375 19.4570645,4.44666667 19.4667511,4.44666667 C19.4831838,4.44666667 19.4996164,4.44520833 19.5157031,4.44283855 C19.9462379,4.45213544 20.2908041,4.8221875 20.291323,5.27591149 C20.291323,5.48208333 20.4499411,5.64924483 20.6455759,5.64924483 C20.8412106,5.64924483 20.9998287,5.48208333 20.9998287,5.27591149 C20.9989638,4.53380211 20.5087526,3.89177083 19.821004,3.73208333 L19.821004,3.37333333 C19.821004,3.16716149 19.6623859,3 19.4667511,3 C19.2711164,3 19.1124983,3.16716149 19.1124983,3.37333333 L19.1124983,3.74903649 C18.3853113,3.95393228 17.9148192,4.6953125 18.0128961,5.48190105 C18.1109729,6.26848961 18.747175,6.8565625 19.4999623,6.8565625 C19.9370702,6.8565625 20.291323,7.23007816 20.291323,7.69072917 C20.291323,8.15119794 19.9370702,8.52471355 19.4999623,8.52471355 C19.0628544,8.52471355 18.7086016,8.15119794 18.7086016,7.69072917 C18.7086016,7.48455728 18.5499835,7.31739583 18.3543487,7.31739583 C18.158714,7.31739583 18.0000959,7.48455728 18.0000959,7.69072917 C18.0009608,8.40604167 18.4569229,9.03184895 19.1124983,9.21760417 L19.1124983,9.62666667 C19.1124983,9.83283855 19.2711164,10 19.4667511,10 C19.6623859,10 19.821004,9.83283855 19.821004,9.62666667 L19.821004,9.23473961 C20.5691209,9.06210939 21.073689,8.32309895 20.99118,7.52065105 C20.9088439,6.71820316 20.2658957,6.11007816 19.4999623,6.11026044 C19.0749627,6.11044272 18.7257261,5.75679689 18.7089476,5.30927083 C18.692342,4.86174483 19.0142485,4.48020833 19.4380372,4.44539061 L19.4380372,4.44520833 Z"/>
    <path d="M19.2497706,0 C16.7580375,0 14.6315898,1.70774164 13.834963,3.99442454 L3.78199957,3.99442454 C3.55930794,3.99442454 3.37854409,4.20526968 3.37696191,4.438965 L3.28124012,19.3630608 L0.415717385,19.3630608 C0.192036909,19.3630608 0,19.533191 0,19.7685481 L0,21.6624152 C0.0051420543,23.4453548 1.34208275,24.9100533 3.03778242,24.9906522 L3.03778242,25 L15.54332,25 L15.54332,24.9875362 C15.6445795,24.9914831 15.6863094,25 15.7503876,25 L15.7590896,25 C17.5141209,24.9970918 18.9355104,23.5018571 18.9355104,21.6584683 L18.9355104,12.0829837 C19.0367698,12.0888001 19.1439624,12.091916 19.2487817,12.091916 C22.4196649,12.091916 25,9.3764801 25,6.04575028 C25,2.71522823 22.4208515,0 19.2497706,0 Z M3.19184705,24.1491412 L3.18927602,24.1491412 C1.87903454,24.1472717 0.816008506,23.0344665 0.810075312,21.6580528 L0.810075312,20.2139195 L12.5561673,20.2139195 L12.5561673,21.6520287 C12.5567607,22.5398633 12.894358,23.3909297 13.4940036,24.0168178 C13.5365246,24.0614796 13.5893298,24.0959626 13.6338285,24.1491412 L3.19184705,24.1491412 Z M18.1254351,21.6580528 C18.1256329,23.0319737 17.0665623,24.1464408 15.7586941,24.1491412 L15.7509809,24.1491412 C14.4377729,24.1466485 13.3727691,23.0315582 13.3662426,21.6524442 L13.3662426,19.7685481 C13.3696048,19.659698 13.3300503,19.5543793 13.2566768,19.4775196 C13.1833033,19.4006598 13.0830327,19.3593217 12.9795978,19.3630608 L4.09131544,19.3630608 L4.18426839,4.84528329 L13.6100959,4.84528329 C13.5383046,5.23477553 13.5011233,5.6302919 13.4991456,6.02684691 C13.4983545,6.86544968 13.6648788,7.6947046 13.9880387,8.46143299 L10.1623315,8.46143299 C9.93845326,8.46143299 9.75729384,8.6519207 9.75729384,8.88686237 C9.75729384,9.12180409 9.93845326,9.31229174 10.1623315,9.31229174 L14.4274888,9.31229174 C15.2630767,10.6924445 16.5988308,11.6546461 18.1254351,11.9766263 L18.1254351,21.6580528 Z M19.2497706,11.241265 C16.521304,11.241265 14.3092209,8.91802177 14.3094187,6.05198213 C14.3094187,3.18594254 16.521304,0.862699303 19.2499684,0.862699303 C21.9784349,0.862699303 24.1903202,3.18615031 24.1903202,6.05198213 C24.1873537,8.91656765 21.9772483,11.2381491 19.2497706,11.241265 Z"/>
    <path d="M8.49988563 11C7.67271758 11 7 11.6728376 7 12.5 7 13.3271625 7.67271758 14 8.49988563 14 9.32705362 14 10 13.3271625 10 12.5 10 11.6728376 9.32705362 11 8.49988563 11L8.49988563 11zM8.49988563 13.0319836C8.18938295 13.0319836 7.9372283 12.7932882 7.9372283 12.5 7.9372283 12.2064755 8.18961175 11.9680164 8.49988563 11.9680164 8.81015939 11.9680164 9.0627717 12.2067118 9.0627717 12.5 9.0627717 12.7932882 8.81015939 13.0319836 8.49988563 13.0319836zM10 12.5C10 12.7761231 10.1750318 13 10.3913376 13L15.6086624 13C15.8247771 13 16 12.7761231 16 12.5 16 12.223877 15.8247771 12 15.6086624 12L10.3913376 12C10.1750318 12 10 12.223877 10 12.5zM8.49988563 8C7.67271758 8 7 8.67302087 7 9.50011815 7 10.3272154 7.67271758 11 8.49988563 11 9.32705362 11 10 10.3272154 10 9.50011815 10 8.67302087 9.32705362 8 8.49988563 8zM8.49988563 10.0320599C8.18938295 10.0320599 7.9372283 9.7933832 7.9372283 9.50011815 7.9372283 9.2068531 8.18961175 8.96794013 8.49988563 8.96794013 8.81015939 8.96794013 9.0627717 9.2066168 9.0627717 9.50011815 9.0627717 9.7933832 8.81015939 10.0322962 8.49988563 10.0322962L8.49988563 10.0320599zM8.49988563 14C7.67271758 14 7 14.6728376 7 15.5 7 16.3271624 7.67271758 17 8.49988563 17 9.32705362 17 10 16.3271624 10 15.5 10 14.6728376 9.32705362 14 8.49988563 14zM8.49988563 16.0319836C8.18938295 16.0319836 7.9372283 15.7935245 7.9372283 15.5 7.9372283 15.2067118 8.18961175 14.9680164 8.49988563 14.9680164 8.81015939 14.9680164 9.0627717 15.2067118 9.0627717 15.5 9.0627717 15.7932881 8.81015939 16.0319836 8.49988563 16.0319836L8.49988563 16.0319836zM15.6086624 15L10.3913376 15C10.1750318 15 10 15.223877 10 15.5 10 15.7761231 10.1750318 16 10.3913376 16L15.6086624 16C15.8247771 16 16 15.7761231 16 15.5 16 15.223877 15.8247771 15 15.6086624 15z"/>
  </g>
</svg>
