<?xml version="1.0" encoding="UTF-8"?>
<svg width="40px" height="34px" viewBox="0 0 40 34" version="1.1" xmlns="http://www.w3.org/2000/svg" xmlns:xlink="http://www.w3.org/1999/xlink">
    <!-- Generator: Sketch 55.2 (78181) - https://sketchapp.com -->
    <title>编组 6</title>
    <desc>Created with Sketch.</desc>
    <defs>
        <linearGradient x1="50%" y1="0%" x2="50%" y2="100%" id="linearGradient-1">
            <stop stop-color="#FF4646" offset="0%"></stop>
            <stop stop-color="#EA174E" offset="100%"></stop>
        </linearGradient>
        <linearGradient x1="50%" y1="0%" x2="50%" y2="100%" id="linearGradient-2">
            <stop stop-color="#FF4646" offset="0%"></stop>
            <stop stop-color="#EA174E" offset="100%"></stop>
        </linearGradient>
    </defs>
    <g id="组件" stroke="none" stroke-width="1" fill="none" fill-rule="evenodd">
        <g id="download/secure" transform="translate(-4.000000, -7.000000)">
            <g id="编组-6" transform="translate(4.000000, 7.000000)">
                <path d="M34,23.375 C32.4786096,28.4550805 27.8119429,31.9967472 20,34 C12.8205128,32.0022887 8.15384615,28.4606221 6,23.375 L6,5.3125 L20.1382963,0 L34,5.3125 L34,23.375 Z" id="形状结合" fill="url(#linearGradient-1)" opacity="0.7"></path>
                <path d="M40,21 C39.2393048,23.3906261 36.9059715,25.0572928 33,26 C29.4102564,25.0599006 27.0769231,23.3932339 26,21 L26,12.5 L33.0691481,10 L40,12.5 L40,21 Z" id="形状结合备份" fill="url(#linearGradient-2)" opacity="0.3"></path>
                <path d="M14,21 C13.2393048,23.3906261 10.9059715,25.0572928 7,26 C3.41025641,25.0599006 1.07692308,23.3932339 0,21 L0,12.5 L7.06914814,10 L14,12.5 L14,21 Z" id="形状结合备份-2" fill="url(#linearGradient-2)" opacity="0.3"></path>
                <path d="M20.44,8.528 C23.8,8.528 25.696,10.088 26.128,13.208 L23.392,13.208 C23.056,11.624 22.048,10.832 20.416,10.832 C19.264,10.832 18.352,11.384 17.68,12.512 C17.008,13.568 16.696,14.888 16.696,16.472 L16.696,16.688 L16.816,16.688 C17.296,15.968 17.896,15.464 18.616,15.128 C19.288,14.792 20.056,14.648 20.92,14.648 C22.6,14.648 23.944,15.176 24.952,16.256 C25.96,17.336 26.464,18.728 26.464,20.408 C26.464,22.136 25.864,23.552 24.712,24.656 C23.56,25.76 22.12,26.336 20.416,26.336 C18.304,26.336 16.696,25.568 15.592,24.056 C14.488,22.568 13.96,20.528 13.96,17.912 C13.96,15.104 14.536,12.848 15.712,11.12 C16.864,9.392 18.448,8.528 20.44,8.528 Z M20.32,16.928 C19.264,16.928 18.448,17.24 17.872,17.888 C17.272,18.512 16.984,19.4 16.984,20.504 C16.984,21.584 17.296,22.448 17.92,23.072 C18.544,23.696 19.336,24.008 20.32,24.008 C21.328,24.008 22.12,23.672 22.744,23 C23.368,22.328 23.68,21.464 23.68,20.408 C23.68,19.352 23.368,18.512 22.792,17.888 C22.168,17.24 21.352,16.928 20.32,16.928 Z" id="6" fill="#FFFFFF" fill-rule="nonzero"></path>
            </g>
        </g>
    </g>
</svg>