<?xml version="1.0" encoding="UTF-8"?>
<svg width="37px" height="36px" viewBox="0 0 37 36" version="1.1" xmlns="http://www.w3.org/2000/svg" xmlns:xlink="http://www.w3.org/1999/xlink">
    <!-- Generator: Sketch 55.2 (78181) - https://sketchapp.com -->
    <title>编组 5</title>
    <desc>Created with Sketch.</desc>
    <defs>
        <linearGradient x1="50%" y1="0%" x2="50%" y2="100%" id="linearGradient-1">
            <stop stop-color="#FF4646" offset="0%"></stop>
            <stop stop-color="#EA174E" offset="100%"></stop>
        </linearGradient>
        <linearGradient x1="50%" y1="0%" x2="50%" y2="100%" id="linearGradient-2">
            <stop stop-color="#FF4646" offset="0%"></stop>
            <stop stop-color="#EA174E" offset="100%"></stop>
        </linearGradient>
    </defs>
    <g id="组件" stroke="none" stroke-width="1" fill="none" fill-rule="evenodd">
        <g id="download/business" transform="translate(-5.000000, -6.000000)">
            <g id="编组-5" transform="translate(5.000000, 6.000000)">
                <ellipse id="椭圆形备份-2" fill="url(#linearGradient-1)" opacity="0.3" cx="11" cy="11.5238095" rx="11" ry="11.5238095"></ellipse>
                <circle id="椭圆形备份" fill="url(#linearGradient-2)" opacity="0.7" cx="22" cy="21" r="15"></circle>
                <polygon id="形状" fill="url(#linearGradient-2)" opacity="0.7" points="10 36 0 36 0 26"></polygon>
                <polygon id="路径" fill="url(#linearGradient-2)" opacity="0.7" points="27 0 37 0 37 10"></polygon>
                <path d="M18.7087328,15.378239 L26.9177775,15.3049107 C29.8935088,15.2447693 30,19.34733 30,19.34733 C29.981985,18.0423997 27.0448154,17.6289317 27.0448154,17.6289317 L18.7412185,17.7040685 L18.77513,19.7238458 C18.77513,19.7238458 18.7660558,19.8869861 18.5002542,19.9759019 C18.2852197,20.0479179 18.1246301,19.9355729 18.1246301,19.9355729 L14.260366,17.2644827 C14.260366,17.2644827 14.0060902,17.0979816 14.0000739,16.677216 C13.9941513,16.2466402 14.3463238,16.0214701 14.3463238,16.0214701 L18.0993131,13.1105985 C18.1337709,13.0804478 18.2318009,12.9813057 18.3916443,13.0031026 C18.6309697,13.0361179 18.6725962,13.1926968 18.6725962,13.1926968 L18.7087328,15.378239 Z M25.3120865,26.6889599 L17.0822653,26.6889599 C14.1065867,26.748872 14,22.6493306 14,22.6493306 C14.0182979,23.9531204 16.9552469,24.3666632 16.9552469,24.3666632 L25.2433893,24.291753 L25.2095275,22.2738191 C25.2095275,22.2738191 25.2044595,22.0781242 25.4265152,22.0171556 C25.6319266,21.9606048 25.875561,22.0619737 25.875561,22.0619737 L29.7396755,24.7307781 C29.7396755,24.7307781 29.9938992,24.8968931 29.9997673,25.3172226 C30.0059155,25.7475722 29.6537606,25.972687 29.6537606,25.972687 C29.6537606,25.972687 25.979427,28.811544 25.9008206,28.881044 C25.9008206,28.881044 25.722536,29.0375711 25.5335286,28.9915206 C25.3079121,28.9366824 25.3120865,28.7994111 25.3120865,28.7994111 L25.3120865,26.6889599 Z" id="形状" fill="#FFFFFF" fill-rule="nonzero" transform="translate(22.000000, 21.000000) scale(1, -1) translate(-22.000000, -21.000000) "></path>
            </g>
        </g>
    </g>
</svg>