<?xml version="1.0" encoding="UTF-8"?>
<svg width="38px" height="38px" viewBox="0 0 38 38" version="1.1" xmlns="http://www.w3.org/2000/svg" xmlns:xlink="http://www.w3.org/1999/xlink">
    <!-- Generator: Sketch 55.2 (78181) - https://sketchapp.com -->
    <title>编组 7</title>
    <desc>Created with Sketch.</desc>
    <defs>
        <linearGradient x1="50%" y1="0%" x2="50%" y2="100%" id="linearGradient-1">
            <stop stop-color="#FF4646" offset="0%"></stop>
            <stop stop-color="#EA174E" offset="100%"></stop>
        </linearGradient>
        <linearGradient x1="50%" y1="0%" x2="50%" y2="100%" id="linearGradient-2">
            <stop stop-color="#FF4646" offset="0%"></stop>
            <stop stop-color="#EA174E" offset="100%"></stop>
        </linearGradient>
        <linearGradient x1="50%" y1="0%" x2="50%" y2="100%" id="linearGradient-3">
            <stop stop-color="#FF4646" offset="0%"></stop>
            <stop stop-color="#EA174E" offset="100%"></stop>
        </linearGradient>
    </defs>
    <g id="-------" stroke="none" stroke-width="1" fill="none" fill-rule="evenodd">
        <g id="download/property" transform="translate(-5.000000, -5.000000)">
            <g id="编组-7" transform="translate(5.000000, 5.000000)">
                <path d="M6,6 L32,6 C35.3137085,6 38,8.6862915 38,12 L38,32 C38,35.3137085 35.3137085,38 32,38 L6,38 C2.6862915,38 4.05812251e-16,35.3137085 0,32 L0,12 C-4.05812251e-16,8.6862915 2.6862915,6 6,6 Z" id="矩形" fill="url(#linearGradient-1)" opacity="0.6"></path>
                <rect id="矩形备份-3" fill="url(#linearGradient-2)" opacity="0.3" x="0" y="0" width="38" height="23" rx="6"></rect>
                <circle id="椭圆形" fill="url(#linearGradient-3)" opacity="0.697428385" cx="19" cy="22" r="12"></circle>
                <g id="ZB.COM/6_User/launcher_logo" transform="translate(10.000000, 13.000000)" fill="#FFFFFF">
                    <path d="M6.40464369,4.5 L11.4977622,4.5 C13.3034349,4.5 13.8359746,6.58592289 13.3034349,7.61737539 C12.7710906,8.64892461 11.5624249,9.84392012 10.6798078,10.6278821 C9.87718895,11.3307978 8.71970642,12.0185296 7.26118076,10.5743993 C7.18416689,10.5112789 7.10864162,10.4463987 7.03466582,10.3798112 L8.10892682,9.2782412 C8.12260172,9.28965343 8.14008606,9.3069652 8.15288186,9.31692672 C8.80517454,9.96258794 9.14206545,9.96877762 9.79533491,9.3217624 C10.2836265,8.84254561 11.2399903,7.8195072 11.6551212,7.32704061 C12.0585307,6.84859753 12.2835805,5.82314128 10.4706796,5.82314128 L7.61106282,5.82314128 C6.40347155,5.82314128 5.77950545,6.44839589 6.41206721,7.32704061 L6.54940226,7.49822401 L5.40657141,8.67484391 C5.13238969,8.33953722 4.910954,8.02821555 4.80722012,7.80084144 C4.06623595,6.35671122 4.69137419,4.5 6.40464369,4.5 Z M6.50224629,13.5 L6.50224629,13.4999033 C4.69648132,13.4999033 4.16413865,11.4139858 4.69648132,10.3825359 C5.22901936,9.35108607 6.43758375,8.15599693 7.32029582,7.37213373 C8.12281462,6.66921976 9.28029365,5.98148981 10.7388149,7.4255196 C10.8158297,7.48867175 10.8913547,7.55358399 10.9653292,7.62020394 L9.89116908,8.7217711 C9.87739655,8.71035891 9.85991226,8.69304718 9.8471165,8.68308569 C9.19492347,8.03742613 8.8579359,8.03123647 8.20466841,8.67825001 C7.71637831,9.15756229 6.76011504,10.1805013 6.34488775,10.67287 C5.94147945,11.1513118 5.71643036,12.1769588 7.52932579,12.1769588 L10.3889339,12.1769588 C11.5967169,12.1769588 12.2204857,11.5516091 11.5879259,10.67287 L11.4505913,10.501687 L12.5934187,9.32516685 C12.8675996,9.66047267 13.0891323,9.97169683 13.1928658,10.1991671 C13.9336524,11.6431968 13.3087114,13.5 11.5954471,13.5 L6.50224629,13.5 Z" id="合并形状"></path>
                    <path d="M9,16.5 C4.85791412,16.5 1.5,13.1421795 1.5,9 C1.5,4.85791412 4.85791412,1.5 9,1.5 C13.1421795,1.5 16.5,4.85791412 16.5,9 C16.5,13.1421795 13.1421795,16.5 9,16.5 M1.42108547e-14,8.99995289 C1.42108547e-14,13.9705388 4.02953432,18 9,18 C13.9705599,18 18,13.9705388 18,8.99995289 C18,4.02936696 13.9705599,1.42108547e-14 9,1.42108547e-14 C4.02953432,1.42108547e-14 1.42108547e-14,4.02936696 1.42108547e-14,8.99995289 Z" id="r"></path>
                </g>
            </g>
        </g>
    </g>
</svg>