<?xml version="1.0" encoding="UTF-8"?>
<svg width="30px" height="30px" viewBox="0 0 30 30" version="1.1" xmlns="http://www.w3.org/2000/svg" xmlns:xlink="http://www.w3.org/1999/xlink">
    <!-- Generator: Sketch 55.2 (78181) - https://sketchapp.com -->
    <title>Safari</title>
    <desc>Created with Sketch.</desc>
    <g id="页面-1" stroke="none" stroke-width="1" fill="none" fill-rule="evenodd">
        <g id="FAQ-02_mobile-Copy-7" transform="translate(-227.000000, -139.000000)">
            <g id="browser" transform="translate(227.000000, 139.000000)">
                <path d="M8.65311255,-3.49596104e-16 L21.3468875,3.49596104e-16 C24.3557632,-2.03125404e-16 25.4468542,0.313286438 26.5468542,0.901572875 C27.6468542,1.48985931 28.5101407,2.35314575 29.0984271,3.45314575 C29.6867136,4.55314575 30,5.6442368 30,8.65311255 L30,21.3468875 C30,24.3557632 29.6867136,25.4468542 29.0984271,26.5468542 C28.5101407,27.6468542 27.6468542,28.5101407 26.5468542,29.0984271 C25.4468542,29.6867136 24.3557632,30 21.3468875,30 L8.65311255,30 C5.6442368,30 4.55314575,29.6867136 3.45314575,29.0984271 C2.35314575,28.5101407 1.48985931,27.6468542 0.901572875,26.5468542 C0.313286438,25.4468542 1.35416936e-16,24.3557632 -2.33064069e-16,21.3468875 L2.33064069e-16,8.65311255 C-1.35416936e-16,5.6442368 0.313286438,4.55314575 0.901572875,3.45314575 C1.48985931,2.35314575 2.35314575,1.48985931 3.45314575,0.901572875 C4.55314575,0.313286438 5.6442368,2.03125404e-16 8.65311255,-3.49596104e-16 Z" id="App-Icon-Copy" fill="#FFFFFF"></path>
                <g id="浏览器" stroke-width="1" transform="translate(6.000000, 6.000000)" fill="#666666">
                    <path d="M9,0.0070257541 C4.03587822,0.0070257541 0.0070257541,4.03587822 0.0070257541,9 C0.0070257541,13.9641218 4.03587822,17.9929742 9,17.9929742 C13.9641218,17.9929742 17.9929742,13.9641218 17.9929742,9 C17.9929742,4.03587822 13.9641218,0.0070257541 9,0.0070257541 Z M8.10070257,16.1314286 C4.54847775,15.6907728 1.80562062,12.6691335 1.80562062,9 C1.80562062,8.4424356 1.8775644,7.91185011 1.99447307,7.39025762 L6.30210773,11.6978923 L6.30210773,12.5971897 C6.30210773,13.5864169 7.11147541,14.3957845 8.10070257,14.3957845 L8.10070257,16.1314286 Z M14.3058548,13.8472131 C14.0720375,13.1187822 13.4065574,12.5971897 12.5971897,12.5971897 L11.6978923,12.5971897 L11.6978923,9.89929743 C11.6978923,9.40468384 11.2932084,9 10.7985948,9 L5.4028103,9 L5.4028103,7.20140516 L7.20140514,7.20140516 C7.69601873,7.20140516 8.10070257,6.79672132 8.10070257,6.30210773 L8.10070257,4.50351289 L9.89929741,4.50351289 C10.8885246,4.50351289 11.6978923,3.69414521 11.6978923,2.70491805 L11.6978923,2.33620609 C14.3328337,3.40637002 16.1943794,5.98735364 16.1943794,9 C16.1943794,10.8705386 15.4749415,12.5702108 14.3058548,13.8472131 Z" id="形状" fill-rule="nonzero"></path>
                </g>
            </g>
        </g>
    </g>
</svg>