<?xml version="1.0" encoding="UTF-8"?>
<svg width="210px" height="142px" viewBox="0 0 210 142" version="1.1" xmlns="http://www.w3.org/2000/svg" xmlns:xlink="http://www.w3.org/1999/xlink">
    <!-- Generator: Sketch 55.2 (78181) - https://sketchapp.com -->
    <title>Group 126</title>
    <desc>Created with Sketch.</desc>
    <defs>
        <filter x="-11.4%" y="-19.6%" width="122.8%" height="139.2%" filterUnits="objectBoundingBox" id="filter-1">
            <feGaussianBlur stdDeviation="6.77419355" in="SourceGraphic"></feGaussianBlur>
        </filter>
        <linearGradient x1="18.3484277%" y1="39.0188123%" x2="87.65317%" y2="61.054552%" id="linearGradient-2">
            <stop stop-color="#F4A795" offset="0%"></stop>
            <stop stop-color="#F38093" offset="100%"></stop>
        </linearGradient>
        <linearGradient x1="49.9964664%" y1="99.8008047%" x2="49.9964664%" y2="1.56629499%" id="linearGradient-3">
            <stop stop-color="#CB0025" offset="0%"></stop>
            <stop stop-color="#FF3C5F" offset="100%"></stop>
        </linearGradient>
    </defs>
    <g id="-------" stroke="none" stroke-width="1" fill="none" fill-rule="evenodd">
        <g id="download/logo" transform="translate(15.000000, 0.000000)">
            <g id="Group-126">
                <g id="plat">
                    <path d="M179.311186,74.0712009 L179.311186,74.2558881 C179.273497,76.7491644 177.638865,79.2298484 174.377961,81.1228916 L102.437419,123.097241 C95.8110968,126.963078 85.0375742,126.954683 78.3736258,123.097241 L5.96903226,81.1228916 C2.62451613,79.1836766 0.952258065,76.6358337 0.952258065,74.0921881 C0.952258065,73.5978476 1.01598697,73.1055853 1.1403871,72.6272833 C1.65460645,70.616712 3.23070968,68.6816945 5.89796129,67.132841 L77.8385032,25.158492 C84.4648258,21.2968519 95.2299871,21.2884571 101.902297,25.158492 L174.315252,67.132841 C177.011768,68.6984843 178.621316,70.6544889 179.143897,72.6860474 C179.257158,73.1389188 179.313339,73.6042759 179.311186,74.0712009 Z" id="Path" fill="#332222" opacity="0.3" filter="url(#filter-1)"></path>
                    <path d="M179.311123,57.619588 L179.311123,59.739759 C179.273497,62.2330354 177.638865,64.7137194 174.377961,66.6067625 L102.437419,108.581112 C95.8110968,112.446949 85.0375742,112.438554 78.3736258,108.581112 L5.96903226,66.6067625 C2.62451613,64.6675476 0.952258065,62.1197046 0.952258065,59.5760591 C0.952768638,59.0817186 0.827857933,52.2914384 0.952258065,51.8131364 C1.46647742,49.8025651 4.90480925,48.6136925 7.57206086,47.064839 L77.8385032,8.70687913 C84.4648258,4.84523902 95.2299871,4.83684415 101.902297,8.70687913 L174.315252,50.6812281 C177.011768,52.2468714 178.788605,49.7815779 179.311186,51.8131364 C179.424447,52.2660078 179.313339,57.152663 179.311123,57.619588 Z" id="Path-Copy" fill="url(#linearGradient-2)"></path>
                    <path d="M179.311186,51.8131364 L179.311186,51.9978236 C179.273497,54.4910999 177.638865,56.9717839 174.377961,58.8648271 L102.437419,100.839176 C95.8110968,104.705014 85.0375742,104.696619 78.3736258,100.839176 L5.96903226,58.8648271 C2.62451613,56.9256121 0.952258065,54.3777691 0.952258065,51.8341236 C0.952258065,51.3397831 1.01598697,50.8475208 1.1403871,50.3692188 C1.65460645,48.3586475 3.23070968,46.42363 5.89796129,44.8747765 L77.8385032,2.90042752 C84.4648258,-0.961212592 95.2299871,-0.969607462 101.902297,2.90042752 L174.315252,44.8747765 C177.011768,46.4404197 178.621316,48.3964244 179.143897,50.4279829 C179.257158,50.8808543 179.313339,51.3462114 179.311186,51.8131364 Z" id="Path-Copy-4" fill="url(#linearGradient-3)"></path>
                </g>
                <path d="M53.7791394,42.2924017 L79.1909795,32.4605712 C88.0454084,26.8554334 101.120398,31.9066836 103.683061,36.8749683 C106.247166,41.8429574 106.314706,49.4357033 105.919219,54.6952345 C105.509466,59.4459468 103.28341,65.2494177 88.8871042,65.1353785 C88.1928231,65.1715686 87.4970143,65.197482 86.8002389,65.2130978 L86.5422716,58.337847 C86.6665759,58.3320776 86.8391541,58.3334447 86.9518704,58.3257414 C93.389323,58.3761212 95.0723752,57.3502445 95.0301806,53.2428097 C95.0207135,50.1868161 94.5785541,43.9299474 94.143866,41.058472 C93.7220462,38.2684545 89.681633,34.273947 80.7917596,39.9015224 L66.7691337,48.7782948 C60.8475008,52.5268785 60.924232,56.4734097 68.433643,57.3338686 L69.9657944,57.4577549 L70.2639895,64.7870764 C67.237497,64.5604796 64.5899697,64.2472395 62.9407187,63.8384469 C52.0630017,61.4970279 45.3778257,47.610703 53.7791394,42.2924017 Z M99.8411926,76.8944027 C90.9858263,82.4995159 77.9118292,77.4476716 75.3482144,72.4800068 C72.7855575,67.5117357 72.7170512,59.9190034 73.1134993,54.6594946 C73.5227704,49.9090988 75.7488179,44.1056445 90.1445984,44.2193745 C90.8390429,44.1832836 91.5350117,44.157474 92.231943,44.1419666 L92.490391,51.016895 C92.3656081,51.0229676 92.1930303,51.0216005 92.0803144,51.0293037 C85.6433587,50.97862 83.9598327,52.0047967 84.0020286,56.1122201 C84.0119819,59.168516 84.4541361,65.4247532 84.8878598,68.296213 C85.3096794,71.0862227 89.3510529,75.0813413 98.2408995,69.4537829 L112.263483,60.5770374 C118.186056,56.8278585 118.107881,52.8816339 110.598005,52.0208656 L109.065858,51.8969794 L108.768146,44.5679892 C111.79463,44.7945858 114.611137,43.732864 116.260868,44.1419666 C121.805489,45.335751 126.897933,44.8968316 128.709677,47.9032258 C130.451824,50.7941291 128.934964,58.477111 124.816585,61.0841778 L99.8411926,76.8944027 Z" id="合并形状" fill="#FF5555" fill-rule="nonzero"></path>
                <path d="M54.2159911,41.4963471 L79.1909795,25.6863777 C88.0454084,20.0812399 101.120398,25.1324901 103.683061,30.1007747 C106.247166,35.0687639 106.314706,42.6615098 105.919219,47.9210409 C105.509466,52.6717533 103.28341,58.4752241 88.8871042,58.361185 C88.1928231,58.3973751 87.4970143,58.4232885 86.8002389,58.4389043 L86.5422716,51.5636535 C86.6665759,51.557884 86.8391541,51.5592511 86.9518704,51.5515479 C93.389323,51.6019276 95.0723752,50.576051 95.0301806,46.4686161 C95.0207135,43.4126225 94.5785541,37.1557539 94.143866,34.2842784 C93.7220462,31.494261 89.681633,27.4997535 80.7917596,33.1273288 L66.7691337,42.0041012 C60.8475008,45.7526849 60.924232,49.6992162 68.433643,50.559675 L69.9657944,50.6835613 L70.2639895,58.0128828 C67.237497,57.786286 64.5899697,57.473046 62.9407187,57.0642533 C52.0630017,54.7228344 45.8146775,46.8146484 54.2159911,41.4963471 Z M99.8411926,70.1202091 C90.9858263,75.7253224 77.9118292,70.673478 75.3482144,65.7058133 C72.7855575,60.7375421 72.7170512,53.1448098 73.1134993,47.8853011 C73.5227704,43.1349053 75.7488179,37.331451 90.1445984,37.445181 C90.8390429,37.40909 91.5350117,37.3832804 92.231943,37.367773 L92.490391,44.2427014 C92.3656081,44.248774 92.1930303,44.247407 92.0803144,44.2551102 C85.6433587,44.2044264 83.9598327,45.2306032 84.0020286,49.3380265 C84.0119819,52.3943225 84.4541361,58.6505596 84.8878598,61.5220195 C85.3096794,64.3120292 89.3510529,68.3071477 98.2408995,62.6795894 L112.263483,53.8028438 C118.186056,50.053665 118.107881,46.1074403 110.598005,45.246672 L109.065858,45.1227858 L108.768146,37.7937956 C111.79463,38.0203922 114.442144,38.3330177 116.091876,38.7421203 C126.96812,41.0838298 133.217873,48.991699 124.816585,54.3099842 L99.8411926,70.1202091 Z" id="合并形状-copy" fill="#FFFFFF" fill-rule="nonzero"></path>
            </g>
        </g>
    </g>
</svg>