<?xml version="1.0" standalone="no"?><!DOCTYPE svg PUBLIC "-//W3C//DTD SVG 1.1//EN" "http://www.w3.org/Graphics/SVG/1.1/DTD/svg11.dtd"><svg class="icon" width="200px" height="200.00px" viewBox="0 0 1024 1024" version="1.1" xmlns="http://www.w3.org/2000/svg"><path fill="#cdcdcd" d="M800 224c70.692 0 128.008 57.308 128.008 128v320c0 70.692-57.316 128-128.008 128H224c-70.692 0-128.008-57.308-128.008-128L96 384.73a42.412 42.412 0 0 1 0-1.496L95.99 352c0-70.692 57.317-128 128.009-128h576z m64 208.694l-313.907 135.7a96 96 0 0 1-75.456 0.313l-0.73-0.312L160 432.694V672c0 34.993 28.084 63.426 62.942 63.991L224 736h576c34.993 0 63.426-28.084 63.991-62.942L864 672V432.694zM800 288H224c-34.993 0-63.426 28.084-63.991 62.942l-0.01 1.058v10.971l339.303 146.678a32 32 0 0 0 24.918 0.202l0.478-0.202L864 362.97V352c0-34.993-28.084-63.426-62.942-63.991L800 288z" /></svg>