<?xml version="1.0" encoding="UTF-8"?>
<svg width="37px" height="35px" viewBox="0 0 37 35" version="1.1" xmlns="http://www.w3.org/2000/svg" xmlns:xlink="http://www.w3.org/1999/xlink">
    <!-- Generator: Sketch 55.1 (78136) - https://sketchapp.com -->
    <title>电话</title>
    <desc>Created with Sketch.</desc>
    <g id="Page-1" stroke="none" stroke-width="1" fill="none" fill-rule="evenodd">
        <g id="生成订单" transform="translate(-77.000000, -648.000000)" fill-rule="nonzero">
            <g id="电话" transform="translate(77.000000, 648.000000)">
                <path d="M30.8571429,25.5714286 C27.5382857,25.5714286 24.3771429,24.8265714 21.4628571,23.3580714 C21.1885714,23.2166429 20.8731429,23.2001429 20.5874286,23.3038571 C20.2994286,23.4075714 20.064,23.6244286 19.9314286,23.9049286 L18.1348571,27.74 C13.4857143,25.0646429 9.63657143,21.0975714 7.04457143,16.3031429 L10.7611429,14.4457143 C11.0354286,14.309 11.2434286,14.0662143 11.344,13.7692143 C11.4422857,13.4745714 11.424,13.1492857 11.2891429,12.8664286 C9.86514286,9.86107143 9.14285714,6.60114286 9.14285714,3.17857143 C9.14285714,2.528 8.63085714,2 8,2 L1.14285714,2 C0.512,2 0,2.528 0,3.17857143 C0,20.7251429 13.8422857,35 30.8571429,35 C31.488,35 32,34.472 32,33.8214286 L32,26.75 C32,26.0994286 31.488,25.5714286 30.8571429,25.5714286 Z" id="Path" fill="#E91C41"></path>
                <path d="M34.6666667,0 L18.3333333,0 C17.0476667,0 16,1.066375 16,2.375 L16,11.875 C16,13.183625 17.0476667,14.25 18.3333333,14.25 L20.6666667,14.25 L20.6666667,17.8125 C20.6666667,18.323125 20.9886667,18.77675 21.4646667,18.93825 C21.586,18.981 21.7096667,19 21.8333333,19 C22.1926667,19 22.5426667,18.829 22.7666667,18.525 L25.9166667,14.25 L34.6666667,14.25 C35.9756667,14.25 37,13.207375 37,11.875 L37,2.375 C37,1.042625 35.9756667,0 34.6666667,0 Z" id="Path" fill="#343434"></path>
            </g>
        </g>
    </g>
</svg>