<svg xmlns="http://www.w3.org/2000/svg" width="37" height="37" viewBox="0 0 37 37">
  <g fill="none">
    <path fill="#4CAF50" d="M37,10.2802765 C37,4.61198903 32.420931,0 26.7931034,0 L10.8448276,0 C5.217,0 0,4.61198903 0,10.2802765 L0,20.5605529 C0,26.012312 4.87634483,30.473952 10.2068966,30.808061 L10.2068966,28.2707603 C10.2068966,27.9154482 10.4926897,27.628243 10.8448276,27.628243 C11.1969655,27.628243 11.4827586,27.9154482 11.4827586,28.2707603 L11.4827586,30.8408294 L11.4827586,31.4833466 L11.4827586,37 L12.3497069,36.126819 C15.734569,32.7182649 20.2338966,30.8408294 25.0190172,30.8408294 L26.7931034,30.8408294 C32.420931,30.8408294 37,26.2288403 37,20.5605529 L37,10.2802765 Z"/>
    <path fill="#FFF" d="M19.375 11L10.625 11C10.28 11 10 10.776 10 10.5 10 10.224 10.28 10 10.625 10L19.375 10C19.72 10 20 10.224 20 10.5 20 10.776 19.72 11 19.375 11zM27.3448276 17L9.65517241 17C9.29351724 17 9 16.776 9 16.5 9 16.224 9.29351724 16 9.65517241 16L27.3448276 16C27.7064828 16 28 16.224 28 16.5 28 16.776 27.7064828 17 27.3448276 17zM27.3448276 22L9.65517241 22C9.29351724 22 9 21.776 9 21.5 9 21.224 9.29351724 21 9.65517241 21L27.3448276 21C27.7064828 21 28 21.224 28 21.5 28 21.776 27.7064828 22 27.3448276 22z"/>
  </g>
</svg>
