<?xml version="1.0" encoding="UTF-8"?>
<svg width="25px" height="21px" viewBox="0 0 25 21" version="1.1" xmlns="http://www.w3.org/2000/svg" xmlns:xlink="http://www.w3.org/1999/xlink">
    <!-- Generator: Sketch 55.1 (78136) - https://sketchapp.com -->
    <title>Mask</title>
    <desc>Created with Sketch.</desc>
    <g id="Page-1" stroke="none" stroke-width="1" fill="none" fill-rule="evenodd">
        <g id="生成订单" transform="translate(-28.000000, -55.000000)" fill="#FCFCFC" fill-rule="nonzero">
            <path d="M32.9308677,66.9329299 L39.6029711,73.5535094 C40.1669953,74.113178 40.1669953,75.02058 39.6029711,75.5802486 C39.038947,76.1399171 38.1244832,76.1399171 37.5604591,75.5802486 L28.4230181,66.5133696 C27.858994,65.953701 27.858994,65.046299 28.4230181,64.4866304 L37.5604591,55.4197514 C38.1244832,54.8600829 39.038947,54.8600829 39.6029711,55.4197514 C40.1669953,55.97942 40.1669953,56.886822 39.6029711,57.4464906 L32.9312529,64.0666879 L51.5557259,64.0666879 C52.3533764,64.0666879 53,64.708318 53,65.4998089 C53,66.2912998 52.3533764,66.9329299 51.5557259,66.9329299 L32.9308677,66.9329299 Z" id="Mask" transform="translate(40.500000, 65.500000) scale(1, -1) translate(-40.500000, -65.500000) "></path>
        </g>
    </g>
</svg>