<svg xmlns="http://www.w3.org/2000/svg" width="32" height="32" viewBox="0 0 32 32">
  <g fill="none">
    <circle cx="16" cy="16" r="16" fill="#EDEEF2"/>
    <g transform="translate(6.4 5.6)">
      <path fill="#0A4EAF" d="M15.7496112,1.33814303 C14.9857001,0.488688485 13.8861481,0 12.7519518,0 L6.4480747,0 C5.31387835,0 4.21432633,0.488688485 3.45041525,1.33814303 C2.68658133,2.18763636 2.30460651,3.33963636 2.42038334,4.47996121 L3.19582967,12.2763636 C3.23058972,12.5789091 3.47360148,12.8 3.77452095,12.8 L15.4255055,12.8 C15.726425,12.8 15.9694368,12.5789091 16.0041968,12.2763636 L16.7796046,4.48 C16.89542,3.33963636 16.5134451,2.18763636 15.7496112,1.33814303 Z"/>
      <path fill="#063E8B" d="M16.7796045,4.47996121 L16.0041953,12.2763636 C15.9694352,12.5789091 15.726423,12.8 15.425503,12.8 L9.6,12.8 L9.6,0 L12.7519443,0 C13.8861428,0 14.9856968,0.488688485 15.7496093,1.33814303 C16.5134446,2.18763636 16.8954201,3.33963636 16.7796045,4.47996121 Z"/>
      <path fill="#FEA832" d="M17.8424779,12 L2.15752212,12 C1.84527257,12 1.6,12.2610593 1.6,12.5934066 L1.6,18.6065934 C1.6,18.9388615 1.84527257,19.2 2.15752212,19.2 L17.8424779,19.2 C18.1547274,19.2 18.4,18.9388615 18.4,18.6065934 L18.4,12.5934066 C18.4,12.2610593 18.1547274,12 17.8424779,12 Z"/>
      <path fill="#FE9923" d="M18.4,12.5934066 L18.4,18.6065934 C18.4,18.9388615 18.1430478,19.2 17.8159292,19.2 L9.6,19.2 L9.6,12 L17.8159292,12 C18.1430478,12 18.4,12.2610593 18.4,12.5934066 Z"/>
      <path fill="#FD3018" d="M10,7.2 C7.15533235,7.2 4.8,9.46236267 4.8,12.24 C4.8,12.5535627 5.05231471,12.8 5.37352941,12.8 L14.6264706,12.8 C14.9476853,12.8 15.2,12.5535627 15.2,12.24 C15.2,9.46236267 12.8446676,7.2 10,7.2 Z"/>
      <path fill="#E61E14" d="M15.2,12.24 C15.2,12.5535627 14.9282765,12.8 14.5823529,12.8 L9.6,12.8 L9.6,7.2 C12.6634882,7.2 15.2,9.46236267 15.2,12.24 Z"/>
      <path fill="#FD4E26" d="M10,2.4 C8.47473684,2.4 7.2,3.6544 7.2,5.2 C7.2,6.7456 8.47473684,8 10,8 C11.5252632,8 12.8,6.7456 12.8,5.2 C12.8,3.6544 11.5252632,2.4 10,2.4 Z"/>
      <path fill="#FD3018" d="M12.8,5.2 C12.8,6.7456 11.3431579,8 9.6,8 L9.6,2.4 C11.3431579,2.4 12.8,3.6544 12.8,5.2 Z"/>
      <path fill="#BF6015" d="M19.2,12.4 C19.2,13.06 18.69375,13.6 18.075,13.6 L1.125,13.6 C0.50625,13.6 0,13.06 0,12.4 C0,11.74 0.50625,11.2 1.125,11.2 L18.075,11.2 C18.69375,11.2 19.2,11.74 19.2,12.4 Z"/>
      <path fill="#994C10" d="M19.2,12.4 C19.2,13.06 18.69375,13.6 18.075,13.6 L9.6,13.6 L9.6,11.2 L18.075,11.2 C18.69375,11.2 19.2,11.74 19.2,12.4 Z"/>
    </g>
  </g>
</svg>
