<svg xmlns="http://www.w3.org/2000/svg" width="32" height="32" viewBox="0 0 32 32">
  <g fill="none" transform="translate(0 .941)">
    <path fill="#CE7419" d="M1.83461063,26.3529412 L28.2830364,26.3529412 C29.2962344,26.3529412 30.1176471,27.1957219 30.1176471,28.2352941 L30.1176471,28.2352941 C30.1176471,29.2748663 29.2962344,30.1176471 28.2830364,30.1176471 L1.83461063,30.1176471 C0.821412632,30.1176471 0,29.2748663 0,28.2352941 L0,28.2352941 C0,27.1957219 0.821412632,26.3529412 1.83461063,26.3529412 Z"/>
    <path fill="#FCBA29" d="M0,5.97658678 L6.20565445,11.2211474 C5.24808377,12.9408395 5.90760209,15.0886855 7.67882723,16.0184401 C9.44996859,16.9481946 11.6620733,16.3078344 12.619644,14.588061 C13.5772147,12.8683689 12.9176963,10.7205229 11.1464712,9.79076834 C11.0200628,9.72439797 10.8896335,9.66534786 10.7560209,9.61394336 L10.2198953,6.5687146 L15.9698429,0.061815541 L21.7197906,6.5687146 L21.1836649,9.60092956 C19.3119162,10.3213246 18.3959791,12.3785621 19.1379267,14.195939 C19.8798743,16.0133159 21.9986597,16.9026463 23.8704084,16.1822513 C25.7421571,15.4618562 26.6580942,13.4046187 25.9161466,11.5872418 C25.8632042,11.4575105 25.8023874,11.3309513 25.7340314,11.2081336 L31.9396859,5.96357298 L27.4094241,26.3236601 L4.53026178,26.3236601 L0,5.97658678 Z"/>
    <path fill="#E99A23" d="M15.9698429,0.061815541 L21.7197906,6.5687146 L21.1836649,9.60092956 C19.3119162,10.3213246 18.3959791,12.3785621 19.1379267,14.195939 C19.8798743,16.0133159 21.9986597,16.9026463 23.8704084,16.1822513 C25.7421571,15.4618562 26.6580942,13.4046187 25.9161466,11.5872418 C25.8632042,11.4575105 25.8023874,11.3309513 25.7340314,11.2081336 L31.9396859,5.96357298 L27.4094241,26.3236601 L15.9698429,26.3236601 L15.9698429,0.061815541 Z"/>
    <g fill="#CE7419" transform="translate(6.199 4.067)">
      <polygon points="17.719 15.067 18.597 16.205 19.481 17.344 18.597 18.483 17.719 19.628 16.834 18.483 15.95 17.344 16.834 16.205"/>
      <polygon points="1.823 15.067 2.707 16.205 3.592 17.344 2.707 18.483 1.823 19.628 .938 18.483 .06 17.344 .938 16.205"/>
      <polygon points="9.771 .01 11.098 1.584 12.431 3.159 11.098 4.734 9.771 6.302 8.444 4.734 7.11 3.159 8.444 1.584"/>
      <polygon points="9.771 14.735 10.655 15.874 11.533 17.012 10.655 18.151 9.771 19.29 8.886 18.151 8.002 17.012 8.886 15.874"/>
    </g>
  </g>
</svg>
