<?xml version="1.0" encoding="UTF-8"?>
<svg width="49px" height="49px" viewBox="0 0 49 49" version="1.1" xmlns="http://www.w3.org/2000/svg" xmlns:xlink="http://www.w3.org/1999/xlink">
    <!-- Generator: Sketch 56.3 (81716) - https://sketch.com -->
    <title>iocn_choice1@2x</title>
    <desc>Created with Sketch.</desc>
    <g id="场外" stroke="none" stroke-width="1" fill="none" fill-rule="evenodd">
        <g id="卖币下单确认页" transform="translate(-311.000000, -229.000000)" fill-rule="nonzero">
            <g id="编组" transform="translate(15.000000, 229.000000)">
                <g id="iocn_choice1" transform="translate(296.000000, 0.000000)">
                    <path d="M49,24.5 C49,38.0311508 38.0311508,49 24.5,49 C10.9688492,49 0,38.0311508 0,24.5 C0,10.9688492 10.9688492,0 24.5,0 C38.0311508,0 49,10.9688492 49,24.5 Z" id="Path" fill="#E91C41"></path>
                    <g id="Group" transform="translate(15.000000, 12.000000)" fill="#FFFFFF">
                        <path d="M16.0582886,10.3117366 L5.29484696,0.769636907 C5.28502896,0.76090329 5.27521104,0.752460701 5.26509554,0.744018187 C4.30263958,-0.051326606 2.99506794,-0.222797335 1.85231879,0.296272876 C0.709569564,0.815343013 0,1.90384749 0,3.13645728 L0,5.04912756 C0,5.66659691 0.511425643,6.16703532 1.14245166,6.16703532 C1.77347767,6.16703532 2.28490331,5.66659691 2.28490331,5.04912756 L2.28490331,3.13645728 C2.28490331,2.62058943 2.65530762,2.3964256 2.81477483,2.32422739 C2.97215942,2.25261146 3.37915783,2.12218889 3.77782585,2.4418406 L14.48474,11.9338673 C14.8328307,12.3213505 14.6909168,12.7568687 14.6379593,12.8832156 C14.5704238,13.0442059 14.3591893,13.4185886 13.8456811,13.4453718 L10.0934414,13.4453718 C9.70161614,13.4453718 9.33686469,13.641879 9.12771271,13.9664798 C8.91826324,14.2904984 8.89356968,14.6971956 9.06196226,15.0436305 L12.6600899,22.4433648 C12.66128,22.4456938 12.66247,22.4483139 12.6636601,22.4506429 C12.7740376,22.6739333 12.7880207,22.9251714 12.7029318,23.1586511 C12.6175455,23.3921308 12.4440952,23.5778665 12.2141173,23.6820881 C11.7541615,23.8902402 11.201679,23.6972264 10.9794364,23.2518101 L7.37446596,15.6529485 C7.18971012,15.2637186 6.7937197,15.0124805 6.35518483,15.0057847 C5.91337737,15.0014179 5.51292431,15.2395555 5.31656543,15.6229629 L3.64424226,18.8905141 C3.55082307,18.9717372 3.36844734,19.0317083 3.20779008,19.0328728 C2.77133783,19.0299615 2.28490331,18.620062 2.28490331,18.0366539 L2.28490331,10.083206 C2.28490331,9.46573661 1.77347767,8.96529819 1.14245166,8.96529819 C0.511425643,8.96529819 0,9.46573661 0,10.083206 L0,18.0366539 C0,18.902159 0.342735497,19.7164268 0.964836144,20.3301116 C1.56462326,20.9213799 2.37653746,21.2634481 3.19261687,21.2686883 L3.21017019,21.2686883 C3.94205328,21.2686883 4.93128549,20.9778576 5.53375021,20.1598053 C5.56945182,20.111188 5.60128578,20.0599505 5.62835953,20.0066752 L6.29925238,18.696336 L8.91082542,24.2011583 C8.91290804,24.2055251 8.91499065,24.2098919 8.91707319,24.2139677 C9.4683656,25.3382801 10.6292631,26 11.8333001,26 C12.2837354,26 12.7407161,25.9071321 13.1733007,25.7112072 C13.9643889,25.3531273 14.5614984,24.7138238 14.8545491,23.9106188 C15.1473024,23.1091604 15.0999978,22.2459842 14.7218582,21.4797516 L11.9023232,15.6811873 L13.8706722,15.6811873 C13.8849528,15.6811873 13.8992335,15.6808962 13.9135141,15.6806051 C15.1806239,15.6340256 16.2683331,14.887007 16.7523875,13.7306712 C17.2391195,12.5679306 16.9975385,11.2817544 16.122254,10.3734544 C16.1017255,10.3519114 16.0803046,10.3315328 16.0582886,10.3117366 L16.0582886,10.3117366 Z" id="Path"></path>
                        <path d="M25.6918155,5.25972303 L24.4490905,3.96726405 C24.0265123,3.52801198 23.3279646,3.51421349 22.8884258,3.93679234 C22.6138936,4.20068858 22.5055181,4.57209806 22.565599,4.92108494 L21.128833,4.92108494 L21.128833,3.43429717 C21.4775319,3.49437817 21.8492283,3.38600244 22.1131241,3.1117574 C22.5354148,2.67221781 22.5219038,1.97338162 22.082365,1.55080269 L20.789908,0.308075775 C20.3566934,-0.108466255 19.6696444,-0.101854458 19.2441915,0.323311668 L17.9520221,1.61577064 C17.5208198,2.04697359 17.5208198,2.74580978 17.9520221,3.1770128 C18.1676232,3.39232679 18.449917,3.50012747 18.7324982,3.50012747 C18.7957411,3.50012747 18.8586967,3.4938032 18.9210773,3.48316688 L18.9210773,4.92079749 L17.4342918,4.92079749 C17.4943727,4.57209806 17.3859972,4.20068858 17.1117525,3.93679234 C16.6722137,3.51421349 15.9733785,3.52772446 15.5508002,3.96726405 L14.3080753,5.25972303 C13.8915339,5.69293827 13.8981457,6.38027572 14.3233111,6.80544185 L15.5660361,8.04788131 C15.7816372,8.26348275 16.0642185,8.37128351 16.3465122,8.37128351 C16.6290934,8.37128351 16.9116747,8.26348275 17.1272759,8.04788131 C17.3782356,7.79692114 17.4820116,7.45540841 17.4406161,7.12855659 L18.9210773,7.12855659 L18.9210773,8.5167426 C18.5795651,8.45781155 18.2156304,8.55928795 17.9520221,8.8231842 C17.5208198,9.25409962 17.5208198,9.95322334 17.9520221,10.3841388 L19.2441915,11.6765978 C19.4595052,11.8919118 19.7420865,12 20.0249552,12 C20.3003497,12 20.5760317,11.8973737 20.789908,11.6915462 L22.082365,10.4491068 C22.5219038,10.0265279 22.5354148,9.32769159 22.1131241,8.88815207 C21.8492283,8.61390703 21.4775319,8.50553138 21.128833,8.5656123 L21.128833,7.12855659 L22.5170169,7.12855659 C22.4580859,7.47006932 22.5595622,7.83400465 22.8231705,8.09761337 C23.0387716,8.31321481 23.3213528,8.42101556 23.6039341,8.42101556 C23.8862279,8.42101556 24.168809,8.31321481 24.3844102,8.09761337 L25.6765797,6.8051544 C26.1017451,6.38027572 26.1086444,5.69322572 25.6918155,5.25972303 L25.6918155,5.25972303 Z" id="Path"></path>
                    </g>
                </g>
            </g>
        </g>
    </g>
</svg>