<svg xmlns="http://www.w3.org/2000/svg" width="32" height="32" viewBox="0 0 32 32">
  <g fill="none">
    <polygon fill="#FFD400" points="32 12.093 20.926 10.406 16.066 0 10.967 10.406 0 12.093 7.9 20.195 5.988 32 16.066 26.242 25.905 32 23.993 20.195"/>
    <polygon fill="#FDBF00" points="23.96 20.195 25.88 32 16 26.242 16 0 20.88 10.406 32 12.093"/>
    <polygon fill="#D03B00" points="30 0 22 0 18 3.333 22 6 30 4.884"/>
    <polygon fill="#FF4B00" points="2 0 2 4.884 10 6 14 3 10 0"/>
    <polygon fill="#FF7816" points="22 0 22 7.26 17.6 8 16 7.98 14.12 7.949 10 7.26 10 0"/>
    <polygon fill="#FF4B00" points="17.6 8 16 7.98 16 0 22 0 22 7.26"/>
    <path fill="#FDBF00" d="M16,4 C12.6796875,4 10,6.68020827 10,10 C10,13.3197917 12.6796875,16 16,16 C19.3203125,16 22,13.3197917 22,10 C22,6.68020827 19.3203125,4 16,4 Z M16,12 C14.8973959,12 14,11.1026041 14,10 C14,8.89739587 14.8973959,8 16,8 C17.1026041,8 18,8.89739587 18,10 C18,11.1026041 17.1026041,12 16,12 Z"/>
    <path fill="#FF9F00" d="M16,4 L16,8 C17.1026041,8 18,8.89739587 18,10 C18,11.1026041 17.1026041,12 16,12 L16,16 C19.3203125,16 22,13.3197917 22,10 C22,6.68020827 19.3203125,4 16,4 Z"/>
  </g>
</svg>
