<?xml version="1.0" encoding="UTF-8"?>
<svg width="32px" height="28px" viewBox="0 0 32 28" version="1.1" xmlns="http://www.w3.org/2000/svg" xmlns:xlink="http://www.w3.org/1999/xlink">
    <!-- Generator: Sketch 55.1 (78136) - https://sketchapp.com -->
    <title>wechat_1226452_easyicon.net</title>
    <desc>Created with Sketch.</desc>
    <g id="场外" stroke="none" stroke-width="1" fill="none" fill-rule="evenodd">
        <g id="场外付款完成-light" transform="translate(-36.000000, -635.000000)" fill-rule="nonzero">
            <g id="Use-card" transform="translate(19.000000, 466.000000)">
                <g id="wechat_1226452_easyicon.net" transform="translate(17.000000, 169.000000)">
                    <path d="M22.9624958,7.86686643 C21.4650196,3.47345172 16.9510988,0.5234375 11.7306387,0.5234375 C5.26199902,0.5234375 0,5.1477963 0,10.8334411 C0.0544216874,13.9834694 1.59708171,16.9102861 4.13724225,18.682769 L2.75237998,21.5228528 C2.58364762,21.8607632 2.71398316,22.2749031 3.04352973,22.4479179 C3.24839659,22.5554641 3.49279144,22.5477316 3.69080846,22.4273623 L7.23814727,20.3475124 C8.20051877,20.696055 9.19864771,20.9303498 10.2130529,21.0458218 C10.5808078,21.0892527 10.9133079,20.8188084 10.9557267,20.4417201 C10.9645875,20.362913 10.9600628,20.2831393 10.942404,20.2059432 C10.8025793,19.612538 10.7297447,19.0046344 10.72522,18.3941534 C10.72522,13.0893343 15.8370881,8.77150481 22.1206563,8.77150481 L22.3177307,8.781106 C22.535606,8.77891513 22.7402843,8.6739464 22.8727565,8.4965499 C23.0012696,8.31432059 23.0348276,8.07918807 22.9624958,7.86686643 Z" id="Path" fill="#4CAF50"></path>
                    <g id="Group" transform="translate(5.000000, 4.523438)" fill="#FAFAFA">
                        <path d="M2.01034197,0.0410461538 C0.911502591,0.0410461538 0.0207046632,0.922707692 0.0207046632,2.01027692 C0.0207046632,3.09784615 0.911502591,3.97950769 2.01034197,3.97950769 C3.10918135,3.97950769 3.99997927,3.09784615 3.99997927,2.01027692 C3.99997927,0.922707692 3.10918135,0.0410461538 2.01034197,0.0410461538 Z" id="Path"></path>
                        <path d="M9.96889119,0.0410461538 C8.87005181,0.0410461538 7.97925389,0.922707692 7.97925389,2.01027692 C7.97925389,3.09784615 8.87005181,3.97950769 9.96889119,3.97950769 C11.0677306,3.97950769 11.9585285,3.09784615 11.9585285,2.01027692 C11.9585285,0.922707692 11.0677306,0.0410461538 9.96889119,0.0410461538 Z" id="Path"></path>
                    </g>
                    <path d="M32,18.3695778 C32,14.0424314 27.5146875,10.5234375 22,10.5234375 C16.4853125,10.5234375 12,14.0424314 12,18.3695778 C12,22.6967242 16.4853125,26.2157182 22,26.2157182 C23.0345,26.2153504 24.064875,26.0870537 25.0666875,25.8338931 L28.372,27.4541211 C28.70125,27.6157639 29.10175,27.4850766 29.2665625,27.1621589 C29.3519375,26.994938 29.3601875,26.7998879 29.2893125,26.6263533 L28.384,24.4032598 C30.5476875,23.1168605 31.9065625,20.8493873 32,18.3695778 Z" id="Path" fill="#4CAF50"></path>
                    <g id="Group" transform="translate(18.000000, 14.523438)" fill="#FAFAFA">
                        <path d="M1.30002,0 C0.5931,0 0.02004,0.666348837 0.02004,1.48834884 C0.02004,2.31034884 0.5931,2.97669767 1.30002,2.97669767 C2.00694,2.97669767 2.58,2.31034884 2.58,1.48834884 C2.58,0.666348837 2.00694,0 1.30002,0 Z" id="Path"></path>
                        <path d="M7.69998,0 C6.99306,0 6.42,0.666348837 6.42,1.48834884 C6.42,2.31034884 6.99306,2.97669767 7.69998,2.97669767 C8.4069,2.97669767 8.97996,2.31034884 8.97996,1.48834884 C8.98002,0.666348837 8.4069,0 7.69998,0 Z" id="Path"></path>
                    </g>
                </g>
            </g>
        </g>
    </g>
</svg>