<svg xmlns="http://www.w3.org/2000/svg" width="32" height="32" viewBox="0 0 32 32">
  <g fill="none">
    <path fill="#4CAF50" d="M32,8.89104991 C32,3.98874726 28.0397241,0 23.1724138,0 L9.37931034,0 C4.512,0 0,3.98874726 0,8.89104991 L0,17.7820998 C0,22.4971347 4.21737931,26.3558504 8.82758621,26.6448095 L8.82758621,24.4503872 C8.82758621,24.1430903 9.07475862,23.8946966 9.37931034,23.8946966 C9.68386207,23.8946966 9.93103448,24.1430903 9.93103448,24.4503872 L9.93103448,26.6731497 L9.93103448,27.2288403 L9.93103448,32 L10.6808276,31.2448164 C13.6082759,28.2968777 17.4995862,26.6731497 21.638069,26.6731497 L23.1724138,26.6731497 C28.0397241,26.6731497 32,22.6844025 32,17.7820998 L32,8.89104991 Z"/>
    <path fill="#FFF" d="M16.7567568 9.51351351L9.18918919 9.51351351C8.89081081 9.51351351 8.64864865 9.31978378 8.64864865 9.08108108 8.64864865 8.84237838 8.89081081 8.64864865 9.18918919 8.64864865L16.7567568 8.64864865C17.0551351 8.64864865 17.2972973 8.84237838 17.2972973 9.08108108 17.2972973 9.31978378 17.0551351 9.51351351 16.7567568 9.51351351zM23.6495806 14.7027027L8.35041938 14.7027027C8.03763653 14.7027027 7.78378378 14.508973 7.78378378 14.2702703 7.78378378 14.0315676 8.03763653 13.8378378 8.35041938 13.8378378L23.6495806 13.8378378C23.9623635 13.8378378 24.2162162 14.0315676 24.2162162 14.2702703 24.2162162 14.508973 23.9623635 14.7027027 23.6495806 14.7027027zM23.6495806 19.027027L8.35041938 19.027027C8.03763653 19.027027 7.78378378 18.8332973 7.78378378 18.5945946 7.78378378 18.3558919 8.03763653 18.1621622 8.35041938 18.1621622L23.6495806 18.1621622C23.9623635 18.1621622 24.2162162 18.3558919 24.2162162 18.5945946 24.2162162 18.8332973 23.9623635 19.027027 23.6495806 19.027027z"/>
  </g>
</svg>
