<?xml version="1.0" encoding="UTF-8"?>
<svg width="49px" height="49px" viewBox="0 0 49 49" version="1.1" xmlns="http://www.w3.org/2000/svg" xmlns:xlink="http://www.w3.org/1999/xlink">
    <!-- Generator: Sketch 56.3 (81716) - https://sketch.com -->
    <title>xhdpi/iocn_pay_details_2</title>
    <desc>Created with Sketch.</desc>
    <g id="场外" stroke="none" stroke-width="1" fill="none" fill-rule="evenodd">
        <g id="买币下单确认页" transform="translate(-311.000000, -213.000000)" fill-rule="nonzero">
            <g id="iocn_pay_details_2" transform="translate(311.000000, 213.000000)">
                <path d="M49,24.5 C49,38.0311508 38.0311508,49 24.5,49 C10.9688492,49 0,38.0311508 0,24.5 C0,10.9688492 10.9688492,0 24.5,0 C38.0311508,0 49,10.9688492 49,24.5 Z" id="Path" fill="#E91C41"></path>
                <g id="下一步" transform="translate(24.500000, 25.000000) scale(-1, 1) translate(-24.500000, -25.000000) translate(13.000000, 14.000000)" fill="#FFFFFF">
                    <path d="M21.4472049,9.38912337 L5.00975838,9.38912337 L11.4099366,2.75074917 L11.4099366,2.75074915 C12.0166165,2.12165631 12.0168161,1.10149067 11.4103802,0.4721447 C10.8039444,-0.157201271 9.82052036,-0.157408375 9.21384049,0.471684506 L0.429456136,9.5842614 C0.056785285,9.97085557 -0.0585652166,10.5001214 0.0266166923,10.9999324 C-0.0585652166,11.498823 0.0576725966,12.0290093 0.429456136,12.4156035 L9.21384049,21.5281804 L9.21384049,21.5281804 C9.82027634,22.1572732 10.8035007,22.1572732 11.4099366,21.5281804 C12.0163724,20.8990875 12.0163724,19.879129 11.4099366,19.2500362 C11.4099366,19.2500362 11.4099366,19.2500362 11.4099366,19.2500362 L5.00975837,12.6107415 L21.4472049,12.6107415 L21.4472048,12.6107415 C22.3047886,12.6107415 23,11.8895564 23,10.9999324 C23,10.1103085 22.3047886,9.38912337 21.4472048,9.38912337 L21.4472049,9.38912337 Z" id="路径"></path>
                </g>
            </g>
        </g>
    </g>
</svg>