<svg xmlns="http://www.w3.org/2000/svg" width="32" height="32" viewBox="0 0 32 32">
  <g fill="none" transform="translate(0 .865)">
    <path fill="#E91C41" d="M26.6872587,22.1158301 C23.8168958,22.1158301 21.0829344,21.4716293 18.562471,20.2015753 C18.325251,20.0792587 18.0524479,20.0649884 17.8053436,20.1546873 C17.5562625,20.2443861 17.3526486,20.4319382 17.2379923,20.6745328 L15.6842008,23.9913514 C11.6633205,21.677529 8.33433205,18.2465483 6.09260232,14.1000154 L9.30693436,12.4935907 C9.54415444,12.3753514 9.72404633,12.1653745 9.81102703,11.9085097 C9.89603089,11.6536834 9.88021622,11.3723552 9.76358301,11.127722 C8.53201544,8.52849421 7.90733591,5.70909653 7.90733591,2.74903475 C7.90733591,2.18637838 7.4645251,1.72972973 6.91891892,1.72972973 L0.988416988,1.72972973 C0.442810811,1.72972973 0,2.18637838 0,2.74903475 C0,17.9244479 11.9717066,30.2702703 26.6872587,30.2702703 C27.2328649,30.2702703 27.6756757,29.8136216 27.6756757,29.2509653 L27.6756757,23.1351351 C27.6756757,22.5724788 27.2328649,22.1158301 26.6872587,22.1158301 Z"/>
    <path fill="#4CAF50" d="M29.981982,0 L15.8558559,0 C14.7439279,0 13.8378378,0.92227027 13.8378378,2.05405405 L13.8378378,10.2702703 C13.8378378,11.4020541 14.7439279,12.3243243 15.8558559,12.3243243 L17.8738739,12.3243243 L17.8738739,15.4054054 C17.8738739,15.847027 18.1523604,16.2393514 18.564036,16.379027 C18.668973,16.416 18.7759279,16.4324324 18.8828829,16.4324324 C19.1936577,16.4324324 19.4963604,16.2845405 19.6900901,16.0216216 L22.4144144,12.3243243 L29.981982,12.3243243 C31.1140901,12.3243243 32,11.4225946 32,10.2702703 L32,2.05405405 C32,0.90172973 31.1140901,0 29.981982,0 Z"/>
  </g>
</svg>
