<svg xmlns="http://www.w3.org/2000/svg" width="32" height="32" viewBox="0 0 32 32">
  <g fill="none">
    <polygon fill="#ED6362" points="14.222 21.623 24.573 32 25.862 25.869 32 24.599 21.649 14.222"/>
    <path fill="#E95454" d="M27.5653307,24.318462 C27.1958641,24.0314959 26.6164978,24.0756445 26.2641659,24.3773268 L25.9182596,24.6734906 C25.5573604,24.9650555 24.9876323,24.9613764 24.6353004,24.6578546 C24.2765431,24.3488142 24.277614,23.8466235 24.6374423,23.5385029 L25.6119772,22.703358 C25.912905,22.4458243 25.9139759,22.0218135 25.6098353,21.7670391 L25.5637859,21.7274893 C25.2885601,21.4543196 24.8002217,21.4432825 24.5025067,21.6971371 L21.5842565,24.1961335 C21.2287119,24.5005751 20.6525583,24.5428842 20.2809499,24.2586774 C19.8889941,23.949637 19.877214,23.4290511 20.2498933,23.110813 L22.9561018,20.7939297 C23.2570296,20.5363961 23.2581005,20.1123853 22.9571727,19.8539318 L22.9154069,19.8254192 L22.9068396,19.8180611 C22.5941317,19.5412124 22.0758076,19.5412124 21.7577451,19.8134622 L20.240255,21.1130875 C19.8847104,21.4175291 19.3085568,21.4598382 18.9326648,21.1728721 C18.5449927,20.8675108 18.5289289,20.3432458 18.9016082,20.0250078 L20.578665,18.5892575 C20.8924438,18.3206867 20.863529,17.8939166 20.5465374,17.6281051 C20.5422538,17.624426 20.5422538,17.624426 20.5379701,17.620747 C20.5336864,17.6170679 20.5336864,17.6170679 20.5294028,17.6133889 C20.2209785,17.3402192 19.7240728,17.3144658 19.410294,17.5830367 L17.6015143,19.1319178 C17.2502534,19.4326803 16.6740998,19.4749894 16.3024914,19.1917024 C15.9105356,18.882662 15.8987555,18.362076 16.2714348,18.043838 L20.733948,14.2222222 L32,23.9248034 L27.8116417,24.6688918 C27.7645213,24.5401249 27.6916989,24.4168767 27.5653307,24.318462 Z"/>
    <polygon fill="#ED6362" points="17.778 21.623 7.427 32 6.138 25.869 0 24.599 10.351 14.222"/>
    <path fill="#E95454" d="M4.43466933,24.318462 C4.80413586,24.0314959 5.38350222,24.0756445 5.73583408,24.3773268 L6.08174043,24.6734906 C6.44263962,24.9650555 7.01236772,24.9613764 7.36469958,24.6578546 C7.72345694,24.3488142 7.72238602,23.8466235 7.36255774,23.5385029 L6.38802283,22.703358 C6.08709501,22.4458243 6.0860241,22.0218135 6.39016466,21.7670391 L6.43621411,21.7274893 C6.71143991,21.4543196 7.19977828,21.4432825 7.49642243,21.6980569 L10.4146726,24.1970533 C10.7702172,24.5014949 11.3463708,24.543804 11.7179792,24.2595972 C12.109935,23.9505568 12.1217151,23.4299708 11.7490358,23.1117328 L9.0438982,20.7939297 C8.74297039,20.5363961 8.74189947,20.1123853 9.04282729,19.8539318 L9.08459307,19.8254192 L9.09316041,19.8180611 C9.40586831,19.5412124 9.92419238,19.5412124 10.2422549,19.8134622 L11.759745,21.1130875 C12.1152896,21.4175291 12.6914432,21.4598382 13.0673352,21.1728721 C13.4550073,20.8675108 13.4710711,20.3432458 13.0983918,20.0250078 L11.421335,18.5892575 C11.1075562,18.3206867 11.136471,17.8939166 11.4534626,17.6281051 C11.4577462,17.624426 11.4577462,17.624426 11.4620299,17.620747 C11.4663136,17.6170679 11.4663136,17.6170679 11.4705972,17.6133889 C11.7790215,17.3402192 12.2759272,17.3144658 12.589706,17.5830367 L14.3984857,19.1319178 C14.7497466,19.4326803 15.3259002,19.4749894 15.6975086,19.1917024 C16.0894644,18.882662 16.1012445,18.362076 15.7285652,18.043838 L11.266052,14.2222222 L0,23.9248034 L4.1883583,24.6688918 C4.23547867,24.5401249 4.30830106,24.4168767 4.43466933,24.318462 Z"/>
    <polygon fill="#F8B546" points="28.444 13.333 26.085 16.275 26.66 20.003 23.142 21.366 21.779 24.882 18.052 24.307 15.111 26.667 12.169 24.307 8.442 24.882 7.08 21.365 3.562 20.002 4.137 16.275 1.778 13.333 4.137 10.392 3.562 6.665 7.08 5.302 8.443 1.785 12.17 2.359 15.111 0 18.053 2.359 21.78 1.785 23.142 5.302 26.66 6.665 26.085 10.392"/>
    <path fill="#F3AE47" d="M18.3308431,12.8996879 L10.1221335,12.8996879 C9.56468578,12.8996879 9.1017703,12.430704 9.1017703,11.8659488 L9.113465,11.7938734 L9.113465,11.7820254 C9.1017703,11.1807388 9.58807519,10.6870716 10.1815816,10.6870716 L16.1712206,10.6870716 C16.8358698,10.6870716 17.4176814,10.1943917 17.4654348,9.52102971 C17.4888242,8.81113631 16.9430713,8.22268504 16.2423634,8.22268504 L9.9554839,8.22268504 C9.36197752,8.22268504 8.93414616,7.72901786 8.93414616,7.12773124 C8.93414616,7.12773124 8.93414616,7.12773124 8.93414616,7.11588323 C8.93414616,7.10403521 8.93414616,7.10403521 8.93414616,7.10403521 C8.93512072,6.51360927 9.36197752,6.00908142 9.9554839,6.00908142 L15.2083564,6.00908142 C15.8613109,6.00908142 16.4431225,5.51640158 16.4782067,4.85488756 C16.5142653,4.13314615 15.9558431,3.55555556 15.2678045,3.55555556 L9.74108094,3.55555556 L8.65444776,6.39710382 L5.27175379,7.72506852 L5.82432869,11.3564843 L3.55555556,14.2217286 L5.82432869,17.0879602 L5.27175379,20.7193759 L8.65444776,22.0473406 L9.74108094,24.8888889 L16.0757138,24.8888889 C16.740363,24.8888889 17.3221747,24.396209 17.3572588,23.734695 C17.3933175,23.0248016 16.8348952,22.4363504 16.1468566,22.4363504 L10.8579254,22.4363504 C10.1572176,22.4363504 9.5997699,21.8469118 9.63485402,21.1380057 C9.6709127,20.4764917 10.2644191,19.9719638 10.916399,19.9719638 L15.9675378,19.9719638 C16.6204923,19.9601158 17.1428558,19.4180692 17.1428558,18.7456946 C17.1428558,18.0723325 16.5971028,17.5194253 15.9324537,17.5194253 L9.71866608,17.5194253 C9.14854912,17.5194253 8.68563364,17.0504415 8.69830291,16.4856862 L8.69830291,16.3889275 C8.66224423,15.8360202 9.1017703,15.3551884 9.66019255,15.3551884 L18.2606749,15.3551884 C18.9253241,15.3551884 19.5071357,14.8625085 19.5548891,14.2009945 C19.577304,13.4881391 19.031551,12.8996879 18.3308431,12.8996879 Z"/>
    <path fill="#FFCC5B" d="M15.1111111,21.3333333 C10.6996359,21.3333333 7.11111111,17.7438483 7.11111111,13.3333333 C7.11111111,8.92281839 10.6996359,5.33333333 15.1111111,5.33333333 C19.5225863,5.33333333 23.1111111,8.92281839 23.1111111,13.3333333 C23.1111111,17.7438483 19.5225863,21.3333333 15.1111111,21.3333333 Z"/>
  </g>
</svg>
