<svg xmlns="http://www.w3.org/2000/svg" width="32" height="32" viewBox="0 0 32 32">
  <g fill="none">
    <circle cx="16" cy="16" r="16" fill="#EDEEF2"/>
    <path fill="#382B73" d="M19.4298744,14.7453568 L19.3848675,14.7453568 L19.3848675,14.7453568 L18.365698,14.7453568 C19.9087218,13.9205475 20.9524332,12.3151711 20.9524332,10.468387 C20.9524332,7.78068408 18.7340667,5.6 15.9999201,5.6 C13.2657734,5.6 11.0474069,7.78068408 11.0474069,10.468387 C11.0474069,12.3151711 12.0951954,13.9205475 13.6341421,14.7453568 L12.6149726,14.7453568 L12.6149726,14.7453568 L12.5699658,14.7453568 C9.60255085,14.7453568 7.2,17.1070966 7.2,20.0241054 L7.2,23.5607428 C7.2,24.244731 7.76486405,24.8 8.46067169,24.8 L9.98738747,24.8 L22.0126125,24.8 L23.5393283,24.8 C24.2351359,24.8 24.8,24.244731 24.8,23.5607428 L24.8,20.0241054 C24.8,17.1111044 22.3972893,14.7453568 19.4298744,14.7453568 Z"/>
    <g transform="translate(7.2 4.8)">
      <g transform="translate(0 .942)">
        <path fill="#00A58C" d="M16.3426978,18.3145265 L1.31212692,18.3145265 C0.618530861,18.3145265 0.0554621849,17.7596645 0.0554621849,17.0761777 L0.0554621849,13.5421329 C0.0554621849,10.6272625 2.4503767,8.26725404 5.4083599,8.26725404 L12.2463851,8.26725404 C15.2043683,8.26725404 17.5992828,10.6272625 17.5992828,13.5421329 L17.5992828,17.0761777 C17.5992828,17.7597431 17.0362938,18.3145265 16.3426978,18.3145265 Z"/>
        <path fill="#2DBBA5" d="M14.8209142,18.3145265 L2.83391046,18.3145265 C2.20964213,18.3145265 1.69964503,17.8159674 1.69964503,17.196793 L1.69964503,13.0234713 C1.69964503,10.3980463 3.8579687,8.27125884 6.52214575,8.27125884 L11.1243915,8.27125884 C13.7886482,8.27125884 15.9469899,10.3981248 15.9469899,13.0234713 L15.9469899,17.196793 C15.9551,17.8160459 15.4451029,18.3145265 14.8209142,18.3145265 Z"/>
        <ellipse cx="8.827" cy="4.432" fill="#00A58C" rx="4.492" ry="4.427"/>
      </g>
      <path fill="#00A58C" d="M13.2460591,12.4742632 C12.891133,12.4742632 12.5728629,12.6390885 12.3648001,12.8924121 C12.1567372,12.6390885 11.8425312,12.4742632 11.483541,12.4742632 C10.8592727,12.4742632 10.3574833,12.9728223 10.3574833,13.5839085 C10.3574833,15.0433854 12.3648001,16.0324154 12.3648001,16.0324154 C12.3648001,16.0324154 14.3721411,15.0594831 14.3721411,13.5839085 C14.3761808,12.9728223 13.8702478,12.4742632 13.2460591,12.4742632 Z"/>
      <path fill="#FFF" d="M13.2460591,12.0722121 C12.891133,12.0722121 12.5728629,12.2370374 12.3648001,12.490361 C12.1567372,12.2370374 11.8425312,12.0722121 11.483541,12.0722121 C10.8592727,12.0722121 10.3574833,12.5707712 10.3574833,13.1818574 C10.3574833,14.6413343 12.3648001,15.6303643 12.3648001,15.6303643 C12.3648001,15.6303643 14.3721411,14.6574321 14.3721411,13.1818574 C14.3761808,12.5707712 13.8702478,12.0722121 13.2460591,12.0722121 Z"/>
      <path fill="#00A58C" d="M12.2015213,9.2096398 L5.4532237,9.2096398 C6.17949145,10.2830848 7.41974065,10.9907575 8.82733266,10.9907575 C10.2349247,10.9907575 11.4753332,10.2870896 12.2015213,9.2096398 Z"/>
      <ellipse cx="8.827" cy="4.936" fill="#FEDE3A" rx="4.937" ry="4.865"/>
      <path fill="#FFC733" d="M8.82741234,8.4416594 C8.15828021,8.4416594 7.4932918,8.19241914 6.9832947,7.68985528 C6.85276731,7.56123034 6.85276731,7.35211666 6.9832947,7.21948691 C7.11382208,7.09086198 7.32602869,7.09086198 7.46062011,7.21948691 C8.21541582,7.96328143 9.44347291,7.96328143 10.1982686,7.21948691 C10.328796,7.09086198 10.5410026,7.09086198 10.675594,7.21948691 C10.8061214,7.34811185 10.8061214,7.55722553 10.675594,7.68985528 C10.1615329,8.19241914 9.49654448,8.4416594 8.82741234,8.4416594 Z"/>
      <path fill="#FFC733" d="M2.27036366 1.05263571C2.18470009 1.05263571 2.09903651 1.02044021 2.03369313.956127745 1.63796726.5661696.993299044.5661696.597573167.956127745.467045784 1.08475268.254839177 1.08475268.120247754.956127745-.0102796291.827502807-.0102796291.618389126.120247754.485759382.777108085-.161527166 1.85017386-.161527166 2.50703419.485759382 2.63756158.61438432 2.63756158.823498002 2.50703419.956127745 2.44583454 1.02044021 2.35602724 1.05263571 2.27036366 1.05263571zM6.45640394 1.05263571C6.37074037 1.05263571 6.28507679 1.02044021 6.21973341.956127745 5.82400753.5661696 5.17933932.5661696 4.78361345.956127745 4.65308606 1.08475268 4.44087946 1.08475268 4.30628803.956127745 4.17576065.827502807 4.17576065.618389126 4.30628803.485759382 4.96314836-.161527166 6.03621414-.161527166 6.69307447.485759382 6.82360185.61438432 6.82360185.823498002 6.69307447.956127745 6.62781078 1.02044021 6.5421472 1.05263571 6.45640394 1.05263571z" transform="translate(5.419 3.377)"/>
      <path fill="#EF5A9D" d="M8.82741234,8.03960831 C8.15828021,8.03960831 7.4932918,7.79036805 6.9832947,7.28780419 C6.85276731,7.15917925 6.85276731,6.95006557 6.9832947,6.81743582 C7.11382208,6.68881089 7.32602869,6.68881089 7.46062011,6.81743582 C8.21541582,7.56123034 9.44347291,7.56123034 10.1982686,6.81743582 C10.328796,6.68881089 10.5410026,6.68881089 10.675594,6.81743582 C10.8061214,6.94606076 10.8061214,7.15517444 10.675594,7.28780419 C10.1615329,7.79036805 9.49654448,8.03960831 8.82741234,8.03960831 Z"/>
      <path fill="#A72973" d="M2.27036366 1.12173824C2.18470009 1.12173824 2.09903651 1.08954275 2.03369313 1.02523028 1.63796726.63527213.993299044.63527213.597573167 1.02523028.467045784 1.15385521.254839177 1.15385521.120247754 1.02523028-.0102796291.896605338-.0102796291.687491657.120247754.554861913.777108085-.0924246351 1.85017386-.0924246351 2.50703419.554861913 2.63756158.683486851 2.63756158.892600532 2.50703419 1.02523028 2.44583454 1.08954275 2.35602724 1.12173824 2.27036366 1.12173824zM6.45640394 1.12173824C6.37074037 1.12173824 6.28507679 1.08954275 6.21973341 1.02523028 5.82400753.63527213 5.17933932.63527213 4.78361345 1.02523028 4.65308606 1.15385521 4.44087946 1.15385521 4.30628803 1.02523028 4.17576065.896605338 4.17576065.687491657 4.30628803.554861913 4.96314836-.0924246351 6.03621414-.0924246351 6.69307447.554861913 6.82360185.683486851 6.82360185.892600532 6.69307447 1.02523028 6.62781078 1.08954275 6.5421472 1.12173824 6.45640394 1.12173824z" transform="translate(5.419 2.905)"/>
    </g>
  </g>
</svg>
