<svg xmlns="http://www.w3.org/2000/svg" width="32" height="32" viewBox="0 0 32 32">
  <g fill="none" fill-rule="evenodd">
    <circle cx="16" cy="16" r="16" fill="#EDEEF2" fill-rule="nonzero"/>
    <path fill="#382B73" fill-rule="nonzero" d="M19.4298744,14.7453568 L19.3848675,14.7453568 L19.3848675,14.7453568 L18.365698,14.7453568 C19.9087218,13.9205475 20.9524332,12.3151711 20.9524332,10.468387 C20.9524332,7.78068408 18.7340667,5.6 15.9999201,5.6 C13.2657734,5.6 11.0474069,7.78068408 11.0474069,10.468387 C11.0474069,12.3151711 12.0951954,13.9205475 13.6341421,14.7453568 L12.6149726,14.7453568 L12.6149726,14.7453568 L12.5699658,14.7453568 C9.60255085,14.7453568 7.2,17.1070966 7.2,20.0241054 L7.2,23.5607428 C7.2,24.244731 7.76486405,24.8 8.46067169,24.8 L9.98738747,24.8 L22.0126125,24.8 L23.5393283,24.8 C24.2351359,24.8 24.8,24.244731 24.8,23.5607428 L24.8,20.0241054 C24.8,17.1111044 22.3972893,14.7453568 19.4298744,14.7453568 Z"/>
    <g transform="translate(5.6 3.2)">
      <path fill="#00EED1" fill-rule="nonzero" d="M16.6315789,16.404837 L15.3263158,16.404837 C14.3512,16.404837 13.5578947,15.5292043 13.5578947,14.4528932 L13.5578947,13.8719111 C13.5578947,13.4869134 7.25789474,13.5217695 7.25789474,13.9067672 L7.24210526,14.4528932 C7.24210526,15.5292043 6.4488,16.404837 5.47368421,16.404837 L4.16842105,16.404837 C1.86993684,16.404837 0,18.4688317 0,21.0058474 L0,21.7028772 C0,22.0774181 0.267831579,22.3821072 0.603494737,22.3984199 L0.603494737,22.4 L20.1684211,22.4 C20.5172211,22.4 20.8,22.0878749 20.8,21.7028772 L20.8,21.0058474 C20.8,18.4688317 18.9300632,16.404837 16.6315789,16.404837 Z"/>
      <path fill="#00CCB3" fill-rule="nonzero" d="M16.6315789,16.4048367 L15.3263158,16.4048367 C14.3512,16.4048367 13.5578947,15.529204 13.5578947,14.4528928 L13.5578947,13.8719107 C13.5578947,13.6790865 11.9776421,13.5915743 10.4,13.6006369 L10.4,22.4 L20.1684211,22.4 C20.5172211,22.4 20.8,22.0878749 20.8,21.7028772 L20.8,21.0058473 C20.8,18.4688315 18.9300632,16.4048367 16.6315789,16.4048367 Z"/>
      <path fill="#FDD1A3" fill-rule="nonzero" d="M10.4364454,18.2950695 C10.5471502,18.3649986 10.6772969,18.4 10.8074436,18.4 C10.9375903,18.4 11.0677791,18.3650354 11.1784418,18.2950695 L15.2,15.7537337 C14.4750837,15.56003 13.9463575,14.9706744 13.9463575,14.2754315 L13.9463575,13.8153345 C13.9463575,13.5104434 7.63618274,13.538047 7.63618274,13.8429381 L7.62040994,14.2754315 C7.62040994,14.9599642 7.10770956,15.5416276 6.4,15.7443117 L10.4364454,18.2950695 Z"/>
      <path fill="#FFBB85" fill-rule="nonzero" d="M13.2646455,14.2754363 L13.2646455,13.8153358 C13.2646455,13.6626314 11.8311387,13.5933274 10.4,13.6005044 L10.4,18.3991903 C10.4072571,18.3994479 10.4145142,18.4 10.4217713,18.4 C10.5396419,18.4 10.6575507,18.3650352 10.7577751,18.2950687 L14.4,15.7537132 C13.7434996,15.5600448 13.2646455,14.9706847 13.2646455,14.2754363 Z"/>
      <path fill="#F7E3C1" fill-rule="nonzero" d="M10.9273278,15.2 C9.5088174,15.2 6.33870883,13.4334762 5.62168519,10.6638141 C5.60731148,10.6082002 5.6,10.550725 5.6,10.4929319 L5.6,4.62755157 C5.6,4.28097495 5.85710656,4 6.17424205,4 L15.2474575,4 C15.406773,4 15.5589017,4.07232074 15.6674938,4.19966518 C15.7760859,4.32696422 15.8314621,4.49793718 15.8202871,4.67154329 L16,11.103368 C15.9944333,11.1897625 15.9725819,11.2739324 15.9358168,11.3506569 C15.4444105,12.3754958 14.5798695,13.3609738 13.5013845,14.125449 C12.5663873,14.7882303 11.5800436,15.2 10.9273278,15.2 Z"/>
      <path fill="#F1D0A4" fill-rule="nonzero" d="M15.8064199,4.67154329 C15.8184543,4.49789178 15.7588637,4.32696422 15.6418745,4.19966518 C15.5248854,4.07232074 15.3610558,4 15.1895314,4 L10.4,4 L10.4,15.1954147 C10.4471536,15.1983202 10.492965,15.2 10.5370764,15.2 C11.2399955,15.2 12.3022033,14.7882303 13.3092048,14.1254036 C14.4706409,13.3609284 15.4016777,12.3754958 15.9308802,11.3506115 C15.9704731,11.2739324 15.9940051,11.1897171 16,11.1033226 L15.8064199,4.67154329 Z"/>
      <path fill="#EBB100" fill-rule="nonzero" d="M11.8578159,0.137529378 L10.8250823,0 C10.6821519,0 10.5404733,0.00536543422 10.4,0.0151791344 L10.6485403,4.88584695 C10.6578125,5.06753798 10.7394539,5.23817713 10.8755693,5.36043565 C12.2031113,6.55284609 13.8471123,7.2 15.4570381,7.2 C15.8837894,7.2 16.3082691,7.15450846 16.723662,7.06159931 C17.0942704,6.97877902 16.2157329,0.894193179 11.8578159,0.137529378 Z"/>
      <path fill="#FFEF31" fill-rule="nonzero" d="M5.6,7.69683709 C6.15298465,7.85822872 6.81154505,8 7.41903491,8 C8.7079422,8 9.96078528,7.52982605 11.0248432,6.63200476 C12.3590557,5.5061684 13.2370272,3.84258218 13.4969185,1.94764733 C13.5025612,1.90664462 13.5465988,1.57243204 13.6,1.16635756 C13.0392055,0.929484754 12.435273,0.8 11.8060301,0.8 L10.9247466,0.8 C7.98866144,0.8 5.6,3.61142404 5.6,7.06712878 L5.6,7.69683709 L5.6,7.69683709 Z"/>
      <path fill="#EAD000" fill-rule="nonzero" d="M10.8592451,0 L10.4,0 L10.4,4 C11.6266735,3.19403037 12.4332055,2.08304223 12.6884842,0.833500502 C12.6945886,0.803721509 12.7422294,0.560993325 12.8,0.266074084 C12.1933206,0.0940407429 11.5399735,0 10.8592451,0 Z"/>
      <path fill="#212CBB" fill-rule="nonzero" d="M16.1616641,8.8 C15.809156,8.8 15.5233708,8.49059279 15.5233708,8.10894756 L15.5233708,6.06287949 C15.5233708,3.48189076 13.6101928,1.38210488 11.2585499,1.38210488 L10.3414075,1.38210488 C7.98976461,1.38210488 6.07658669,3.48189076 6.07658669,6.06287949 L6.07658669,7.9100166 C6.07658669,8.29166182 5.79080148,8.60106904 5.43829335,8.60106904 C5.08578521,8.60106904 4.8,8.29166182 4.8,7.9100166 L4.8,6.06287949 C4.8,2.71979813 7.28589726,0 10.3414501,0 L11.2585925,0 C14.3141453,0 16.8,2.71979813 16.8,6.06287949 L16.8,8.10894756 C16.8,8.49059279 16.5141722,8.8 16.1616641,8.8 Z"/>
      <path fill="#00215A" fill-rule="nonzero" d="M10.8891234,0 L10.4,0 L10.4,1.38210488 L10.8891234,1.38210488 C13.3975603,1.38210488 15.4382979,3.48189076 15.4382979,6.06287949 L15.4382979,8.10894756 C15.4382979,8.49059279 15.7431376,8.8 16.1191489,8.8 C16.4951603,8.8 16.8,8.49059279 16.8,8.10894756 L16.8,6.06287949 C16.8,2.71979813 14.1484028,0 10.8891234,0 Z"/>
      <path fill="#0063E5" fill-rule="nonzero" d="M16.1815663,12 L11.8184337,12 C11.4768934,12 11.2,11.6418133 11.2,11.2 C11.2,10.7581867 11.4768934,10.4 11.8184337,10.4 L16.1815663,10.4 C16.5231066,10.4 16.8,10.7581867 16.8,11.2 C16.8,11.6418133 16.5231066,12 16.1815663,12 Z"/>
      <path fill="#0063E5" d="M11.6,12.8 C12.26096,12.8 12.8,12.260912 12.8,11.6 C12.8,10.93904 12.260912,10.4 11.6,10.4 C10.93904,10.4 10.4,10.93904 10.4,11.6 C10.399952,12.260912 10.93904,12.8 11.6,12.8 Z"/>
      <path fill="#0095FF" fill-rule="nonzero" d="M5.03529412,12 L3.56705882,12 C2.92355765,12 2.4,11.4825674 2.4,10.8465116 L2.4,8.35348837 C2.4,7.71743256 2.92355765,7.2 3.56705882,7.2 L5.03529412,7.2 C5.34716235,7.2 5.6,7.44989767 5.6,7.75813953 L5.6,11.4418605 C5.6,11.7501023 5.34716235,12 5.03529412,12 Z"/>
      <path fill="#0063E5" fill-rule="nonzero" d="M17.2329412,12 L15.7647059,12 C15.4528376,12 15.2,11.7501023 15.2,11.4418605 L15.2,7.75813953 C15.2,7.44989767 15.4528376,7.2 15.7647059,7.2 L17.2329412,7.2 C17.8764424,7.2 18.4,7.71743256 18.4,8.35348837 L18.4,10.8465116 C18.3999624,11.4825674 17.8764424,12 17.2329412,12 Z"/>
    </g>
  </g>
</svg>
