<svg xmlns="http://www.w3.org/2000/svg" width="48" height="48" viewBox="0 0 48 48">
  <g fill="none" fill-rule="evenodd">
    <circle cx="24" cy="24" r="24" fill="#000"/>
    <path fill="#FFF" d="M23.0225103,11.2089957 C23.3289695,11.0720446 23.6625616,11.0003133 24,11 C24.3374384,11.0003133 24.6710305,11.0720446 24.9774897,11.2089957 C25.0490006,11.2411263 25.1195845,11.2770598 25.1889881,11.3168636 C25.3733643,11.4226055 25.5380925,11.5491705 25.6819001,11.6918415 C25.6861201,11.6960388 25.6903262,11.7002541 25.6945182,11.7044873 C25.8477516,11.858805 25.9767645,12.0315762 26.0799957,12.2169331 L36.6810145,30.4563569 C37.3376745,31.5861634 36.9479833,33.0308413 35.8106149,33.6831354 C34.6732464,34.3354294 33.218899,33.9483292 32.562239,32.8185227 L24,18.0868908 L15.437761,32.8185227 C14.781101,33.9483292 13.3267536,34.3354294 12.1893851,33.6831354 C11.0520167,33.0308413 10.6623255,31.5861634 11.3189855,30.4563569 L21.9200043,12.2169331 C22.0260612,12.0265025 22.1593305,11.8493561 22.3180999,11.6918415 C22.3210713,11.6888862 22.3240496,11.6859398 22.3270348,11.6830022 C22.4687261,11.543947 22.6304469,11.4204198 22.8110119,11.3168636 C22.8804155,11.2770598 22.9509994,11.2411263 23.0225103,11.2089957 L23.0225103,11.2089957 Z M24,34 C22.6192881,34 21.5,32.8807119 21.5,31.5 C21.5,30.1192881 22.6192881,29 24,29 C25.3807119,29 26.5,30.1192881 26.5,31.5 C26.5,32.8807119 25.3807119,34 24,34 Z"/>
  </g>
</svg>
