<svg xmlns="http://www.w3.org/2000/svg" width="48" height="48" viewBox="0 0 48 48">
  <g fill="none" fill-rule="evenodd">
    <circle cx="24" cy="24" r="24" fill="#000"/>
    <path fill="#FFF" d="M19.2618672,16.2412143 C18.7508621,16.2412143 18.3366106,15.8341943 18.3366106,15.3321098 C18.3366106,14.8300252 18.7508621,14.4230052 19.2618672,14.4230052 C19.7728723,14.4230052 20.1871238,14.8300252 20.1871238,15.3321098 C20.1871238,15.8341943 19.7728723,16.2412143 19.2618672,16.2412143 Z M29.6471441,16.0175235 C29.136139,16.0175235 28.7218876,15.6105035 28.7218876,15.108419 C28.7218876,14.6063344 29.136139,14.1993145 29.6471441,14.1993145 C30.1581492,14.1993145 30.5724007,14.6063344 30.5724007,15.108419 C30.5724007,15.6105035 30.1581492,16.0175235 29.6471441,16.0175235 Z M34.8956567,24.8189077 C34.3846516,24.8189077 33.9704001,24.4118878 33.9704001,23.9098032 C33.9704001,23.4077186 34.3846516,23.0006987 34.8956567,23.0006987 C35.4066618,23.0006987 35.8209133,23.4077186 35.8209133,23.9098032 C35.8209133,24.4118878 35.4066618,24.8189077 34.8956567,24.8189077 Z M29.5245193,33.5785313 C29.0135142,33.5785313 28.5992627,33.1715114 28.5992627,32.6694268 C28.5992627,32.1673422 29.0135142,31.7603223 29.5245193,31.7603223 C30.0355244,31.7603223 30.4497759,32.1673422 30.4497759,32.6694268 C30.4497759,33.1715114 30.0355244,33.5785313 29.5245193,33.5785313 Z M19.431713,33.5937263 C18.9207079,33.5937263 18.5064564,33.1867064 18.5064564,32.6846218 C18.5064564,32.1825372 18.9207079,31.7755173 19.431713,31.7755173 C19.9427181,31.7755173 20.3569695,32.1825372 20.3569695,32.6846218 C20.3569695,33.1867064 19.9427181,33.5937263 19.431713,33.5937263 Z M14.218248,24.7603472 C13.7072429,24.7603472 13.2929914,24.3533273 13.2929914,23.8512427 C13.2929914,23.3491582 13.7072429,22.9421382 14.218248,22.9421382 C14.7292531,22.9421382 15.1435046,23.3491582 15.1435046,23.8512427 C15.1435046,24.3533273 14.7292531,24.7603472 14.218248,24.7603472 Z M10.5693887,24.5491198 C10.254924,24.5491198 10,24.2986459 10,23.9896708 C10,23.6806957 10.254924,23.4302219 10.5693887,23.4302219 C10.8838533,23.4302219 11.1387773,23.6806957 11.1387773,23.9896708 C11.1387773,24.2986459 10.8838533,24.5491198 10.5693887,24.5491198 Z M17.3632307,12.7849508 C17.048766,12.7849508 16.793842,12.534477 16.793842,12.2255018 C16.793842,11.9165267 17.048766,11.6660529 17.3632307,11.6660529 C17.6776954,11.6660529 17.9326194,11.9165267 17.9326194,12.2255018 C17.9326194,12.534477 17.6776954,12.7849508 17.3632307,12.7849508 Z M31.3553101,12.7849508 C31.0408455,12.7849508 30.7859215,12.534477 30.7859215,12.2255018 C30.7859215,11.9165267 31.0408455,11.6660529 31.3553101,11.6660529 C31.6697748,11.6660529 31.9246988,11.9165267 31.9246988,12.2255018 C31.9246988,12.534477 31.6697748,12.7849508 31.3553101,12.7849508 Z M38.4306113,24.5355979 C38.1161467,24.5355979 37.8612227,24.2851241 37.8612227,23.976149 C37.8612227,23.6671739 38.1161467,23.4167 38.4306113,23.4167 C38.745076,23.4167 39,23.6671739 39,23.976149 C39,24.2851241 38.745076,24.5355979 38.4306113,24.5355979 Z M31.5332441,36.2975474 C31.2187794,36.2975474 30.9638554,36.0470736 30.9638554,35.7380985 C30.9638554,35.4291233 31.2187794,35.1786495 31.5332441,35.1786495 C31.8477088,35.1786495 32.1026328,35.4291233 32.1026328,35.7380985 C32.1026328,36.0470736 31.8477088,36.2975474 31.5332441,36.2975474 Z M17.5249888,36.2975474 C17.2105242,36.2975474 16.9556002,36.0470736 16.9556002,35.7380985 C16.9556002,35.4291233 17.2105242,35.1786495 17.5249888,35.1786495 C17.8394535,35.1786495 18.0943775,35.4291233 18.0943775,35.7380985 C18.0943775,36.0470736 17.8394535,36.2975474 17.5249888,36.2975474 Z M22.0412762,21.7346655 C21.0585741,21.7346655 20.2619366,20.9519348 20.2619366,19.9863875 C20.2619366,19.0208403 21.0585741,18.2381096 22.0412762,18.2381096 C23.0239783,18.2381096 23.8206158,19.0208403 23.8206158,19.9863875 C23.8206158,20.9519348 23.0239783,21.7346655 22.0412762,21.7346655 Z M26.7322624,21.8275427 C25.7495603,21.8275427 24.9529228,21.044812 24.9529228,20.0792648 C24.9529228,19.1137176 25.7495603,18.3309869 26.7322624,18.3309869 C27.7149645,18.3309869 28.511602,19.1137176 28.511602,20.0792648 C28.511602,21.044812 27.7149645,21.8275427 26.7322624,21.8275427 Z M29.0105915,25.7193391 C28.0278894,25.7193391 27.231252,24.9366085 27.231252,23.9710612 C27.231252,23.005514 28.0278894,22.2227833 29.0105915,22.2227833 C29.9932937,22.2227833 30.7899311,23.005514 30.7899311,23.9710612 C30.7899311,24.9366085 29.9932937,25.7193391 29.0105915,25.7193391 Z M26.6513833,29.5763066 C25.6686812,29.5763066 24.8720437,28.7935759 24.8720437,27.8280287 C24.8720437,26.8624814 25.6686812,26.0797507 26.6513833,26.0797507 C27.6340854,26.0797507 28.4307229,26.8624814 28.4307229,27.8280287 C28.4307229,28.7935759 27.6340854,29.5763066 26.6513833,29.5763066 Z M22.0412762,29.6724277 C21.0585741,29.6724277 20.2619366,28.889697 20.2619366,27.9241498 C20.2619366,26.9586026 21.0585741,26.1758719 22.0412762,26.1758719 C23.0239783,26.1758719 23.8206158,26.9586026 23.8206158,27.9241498 C23.8206158,28.889697 23.0239783,29.6724277 22.0412762,29.6724277 Z M19.6836516,25.6433768 C18.7009495,25.6433768 17.904312,24.8606461 17.904312,23.8950988 C17.904312,22.9295516 18.7009495,22.1468209 19.6836516,22.1468209 C20.6663537,22.1468209 21.4629912,22.9295516 21.4629912,23.8950988 C21.4629912,24.8606461 20.6663537,25.6433768 19.6836516,25.6433768 Z M31.2857544,21.0821344 C30.6961332,21.0821344 30.2181507,20.612496 30.2181507,20.0331676 C30.2181507,19.4538393 30.6961332,18.9842009 31.2857544,18.9842009 C31.8753757,18.9842009 32.3533582,19.4538393 32.3533582,20.0331676 C32.3533582,20.612496 31.8753757,21.0821344 31.2857544,21.0821344 Z M31.3305709,28.884849 C30.7409497,28.884849 30.2629672,28.4152106 30.2629672,27.8358822 C30.2629672,27.2565539 30.7409497,26.7869155 31.3305709,26.7869155 C31.9201922,26.7869155 32.3981747,27.2565539 32.3981747,27.8358822 C32.3981747,28.4152106 31.9201922,28.884849 31.3305709,28.884849 Z M24.4939341,32.8222304 C23.9043128,32.8222304 23.4263303,32.352592 23.4263303,31.7732636 C23.4263303,31.1939353 23.9043128,30.7242969 24.4939341,30.7242969 C25.0835553,30.7242969 25.5615378,31.1939353 25.5615378,31.7732636 C25.5615378,32.352592 25.0835553,32.8222304 24.4939341,32.8222304 Z M17.5693205,28.884849 C16.9796993,28.884849 16.5017168,28.4152106 16.5017168,27.8358822 C16.5017168,27.2565539 16.9796993,26.7869155 17.5693205,26.7869155 C18.1589418,26.7869155 18.6369243,27.2565539 18.6369243,27.8358822 C18.6369243,28.4152106 18.1589418,28.884849 17.5693205,28.884849 Z M17.6091031,21.254572 C17.0194818,21.254572 16.5414993,20.7849335 16.5414993,20.2056052 C16.5414993,19.6262769 17.0194818,19.1566385 17.6091031,19.1566385 C18.1987243,19.1566385 18.6767068,19.6262769 18.6767068,20.2056052 C18.6767068,20.7849335 18.1987243,21.254572 17.6091031,21.254572 Z M24.5,17.3178735 C23.9103787,17.3178735 23.4323963,16.8482351 23.4323963,16.2689067 C23.4323963,15.6895784 23.9103787,15.21994 24.5,15.21994 C25.0896213,15.21994 25.5676037,15.6895784 25.5676037,16.2689067 C25.5676037,16.8482351 25.0896213,17.3178735 24.5,17.3178735 Z M35.3553773,18.3951815 C34.9622965,18.3951815 34.6436415,18.0820892 34.6436415,17.6958703 C34.6436415,17.3096514 34.9622965,16.9965591 35.3553773,16.9965591 C35.7484582,16.9965591 36.0671132,17.3096514 36.0671132,17.6958703 C36.0671132,18.0820892 35.7484582,18.3951815 35.3553773,18.3951815 Z M35.3902536,30.8153839 C34.9971728,30.8153839 34.6785178,30.5022916 34.6785178,30.1160727 C34.6785178,29.7298538 34.9971728,29.4167616 35.3902536,29.4167616 C35.7833344,29.4167616 36.1019894,29.7298538 36.1019894,30.1160727 C36.1019894,30.5022916 35.7833344,30.8153839 35.3902536,30.8153839 Z M24.3382419,37 C23.945161,37 23.626506,36.6869077 23.626506,36.3006888 C23.626506,35.9144699 23.945161,35.6013777 24.3382419,35.6013777 C24.7313227,35.6013777 25.0499777,35.9144699 25.0499777,36.3006888 C25.0499777,36.6869077 24.7313227,37 24.3382419,37 Z M13.5065122,30.9013877 C13.1134313,30.9013877 12.7947763,30.5882954 12.7947763,30.2020765 C12.7947763,29.8158577 13.1134313,29.5027654 13.5065122,29.5027654 C13.899593,29.5027654 14.218248,29.8158577 14.218248,30.2020765 C14.218248,30.5882954 13.899593,30.9013877 13.5065122,30.9013877 Z M13.5813253,18.5788872 C13.1882445,18.5788872 12.8695895,18.265795 12.8695895,17.8795761 C12.8695895,17.4933572 13.1882445,17.1802649 13.5813253,17.1802649 C13.9744061,17.1802649 14.2930611,17.4933572 14.2930611,17.8795761 C14.2930611,18.265795 13.9744061,18.5788872 13.5813253,18.5788872 Z M24.4838242,12.3986223 C24.0907433,12.3986223 23.7720884,12.0855301 23.7720884,11.6993112 C23.7720884,11.3130923 24.0907433,11 24.4838242,11 C24.876905,11 25.19556,11.3130923 25.19556,11.6993112 C25.19556,12.0855301 24.876905,12.3986223 24.4838242,12.3986223 Z"/>
  </g>
</svg>
