<svg xmlns="http://www.w3.org/2000/svg" width="48" height="48" viewBox="0 0 48 48">
  <g fill="none" fill-rule="evenodd">
    <circle cx="24" cy="24" r="24" fill="#F7296E"/>
    <path fill="#FFF" d="M39.4548736,26.6100796 C40.1588448,26.5560553 40.8628159,26.5560553 41.6209386,26.5560553 C41.2960289,27.5284914 40.8628159,28.3928791 40.267148,29.1492182 C39.400722,30.283727 38.3176895,31.0940904 37.0180505,31.6883569 C36.0433213,32.1205507 35.0685921,32.3366476 33.9855596,32.3906718 C32.4151625,32.4446961 30.9530686,32.2285992 29.599278,31.5262842 C28.7870036,31.0940904 28.0288809,30.6078724 27.3249097,30.0136059 C25.7545126,28.7710486 24.6714801,27.0962976 23.534296,25.4755708 C22.3429603,23.7467955 21.1516245,22.0720445 19.8519856,20.5053419 C18.8231047,19.2627847 17.5776173,18.1823002 15.8447653,17.8041306 C13.8953069,17.3719368 12.1624549,17.8581548 10.5920578,18.9926636 C9.50902527,19.803027 8.80505415,20.8294873 8.42599278,22.0720445 C7.66787004,24.8813043 8.58844765,27.7986126 11.2418773,29.3653151 C13.5703971,30.769945 16.3862816,30.4998239 18.4440433,28.8790971 C19.0397112,28.3928791 19.6353791,27.906661 20.1768953,27.3123945 C20.6642599,26.7721522 21.0974729,26.1238615 21.5848375,25.4755708 C22.0722022,26.1778857 22.5595668,26.8261765 23.101083,27.6365399 C22.3971119,28.3928791 21.6931408,29.1492182 20.8808664,29.8515332 C20.1227437,30.4998239 19.3104693,31.0400662 18.4440433,31.5262842 C16.8736462,32.4446961 15.1949458,32.6067688 13.4620939,32.4446961 C11.8916968,32.2826234 10.4296029,31.6343327 9.18411552,30.6078724 C7.72202166,29.4193394 6.69314079,27.9606852 6.2599278,26.1238615 C5.8267148,24.3950863 5.93501805,22.6122868 6.58483755,20.9375357 C7.39711191,18.8846151 8.85920578,17.3179125 10.8628159,16.3454765 C11.9458484,15.8052342 13.0830325,15.535113 14.3285199,15.535113 C15.8447653,15.4810888 17.2527076,15.8052342 18.6064982,16.5075491 C19.9061372,17.2098641 21.0433213,18.1282759 21.9638989,19.3168089 C23.3718412,21.2076569 24.7256318,23.152529 26.133574,25.043377 C26.8916968,26.0698373 27.7581227,27.0962976 28.6787004,28.0147095 C29.599278,28.9331213 30.6281588,29.6894605 31.9277978,30.0136059 C33.9855596,30.5538481 35.8808664,30.1216543 37.5595668,28.8250729 C38.2635379,28.2848306 38.7509025,27.5825156 39.1841155,26.8261765 C39.2382671,26.718128 39.3465704,26.6100796 39.4548736,26.6100796 Z M41.8916968,22.3961899 C42.0541516,23.3146017 41.9458484,24.2870378 42,25.2054497 C42,25.2594739 41.8916968,25.3675223 41.7833935,25.4215466 C41.7292419,25.4215466 41.6750903,25.4215466 41.6209386,25.4215466 C38.4801444,25.4215466 35.2851986,25.4215466 32.1444043,25.4215466 C32.0361011,25.4215466 31.9819495,25.4215466 31.8736462,25.4215466 L31.8736462,23.5306986 L39.7797834,23.5306986 C39.6714801,22.3421656 39.2924188,21.2616811 38.6425993,20.3432692 C37.66787,18.9926636 36.368231,18.2363244 34.7436823,17.912179 C32.4151625,17.4799852 30.465704,18.2903486 28.6787004,19.803027 C27.8122744,20.5593661 27.1083032,21.477778 26.4043321,22.5042383 C25.9711191,21.9099718 25.5379061,21.3157053 25.1588448,20.6674146 C25.1046931,20.5593661 25.1046931,20.3432692 25.2129964,20.2352208 C25.9711191,19.4248574 26.7833935,18.614494 27.5956679,17.8581548 C28.6245487,16.8857187 29.8158845,16.237428 31.1696751,15.8592584 C33.8772563,15.1029192 36.368231,15.535113 38.5884477,17.2098641 C40.3754513,18.5064455 41.5126354,20.2352208 41.8916968,22.3961899 Z"/>
  </g>
</svg>
