<svg xmlns="http://www.w3.org/2000/svg" width="48" height="48" viewBox="0 0 48 48">
  <defs>
    <linearGradient id="b91-a" x1="50%" x2="50%" y1="0%" y2="100%">
      <stop offset="0%" stop-color="#434345"/>
      <stop offset="100%" stop-color="#252527"/>
    </linearGradient>
  </defs>
  <g fill="none" fill-rule="evenodd">
    <circle cx="24" cy="24" r="24" fill="url(#b91-a)"/>
    <path fill="#FFF" fill-rule="nonzero" d="M26.0662651,36.8366961 L26.0662651,32.9069604 C30.1556749,32.058701 33.2289157,28.4355761 33.2289157,24.0946574 C33.2289157,19.1240946 29.1994784,15.0946574 24.2289157,15.0946574 C19.2583529,15.0946574 15.2289157,19.1240946 15.2289157,24.0946574 C15.2289157,28.2958853 18.1075451,31.8247733 22,32.8165174 L22,36.8471036 C15.7698199,35.8850933 11,30.4995722 11,24 C11,16.8202983 16.8202983,11 24,11 C31.1797017,11 37,16.8202983 37,24 C37,30.4765095 32.2639699,35.84686 26.0662651,36.8366961 Z"/>
    <path fill="#FF9000" d="M37,27.6528053 L37,36.9980091 L33,36.9980091 L33,34.0624793 C34.8874598,32.373157 36.2967965,30.1605957 37,27.6528053 Z"/>
    <path fill="#FFF" d="M15.2289157,13.7372083 C13.2264866,15.4502037 11.7313487,17.7390319 11,20.3471947 L11,11 L15.2289157,11 L15.2289157,13.7372083 Z"/>
  </g>
</svg>
