<svg xmlns="http://www.w3.org/2000/svg" width="48" height="48" viewBox="0 0 48 48">
  <g fill="none" fill-rule="evenodd">
    <circle cx="24" cy="24" r="24" fill="#444"/>
    <path fill="#FFF" fill-rule="nonzero" d="M43,20.7219344 L42.8343023,20.5561313 L37.1453488,12.8739206 L37.0901163,12.9291883 L37.1453488,12.8739206 L31.4563953,10.1105354 L31.4563953,10 L17.0959302,10 L17.0959302,10 L10.9651163,12.8739206 L10.9651163,12.9291883 L5,20.6666667 L5.11046512,20.7772021 L23.7790698,41.8341969 L23.9447674,42 L24.1104651,42 L42.7238372,20.9982729 L42.8343023,20.9430052 L42.8343023,20.8877375 L43,20.7219344 Z M17.0406977,10.6079447 L17.0406977,10.6079447 L31.1802326,10.6079447 L36.3168605,13.0949914 L30.8488372,15.6925734 L17.4273256,15.6925734 L11.5726744,13.2055268 L17.0406977,10.6079447 Z M11.130814,13.5924007 L17.0406977,16.134715 L17.0406977,16.3005181 L17.0406977,16.3005181 L14.5,24.8670121 L5.88372093,20.5008636 L11.130814,13.5924007 Z M6.49127907,21.4404145 L14.4447674,25.4196891 L22.619186,39.5682211 L6.49127907,21.4404145 Z M24.0552326,41.0051813 L14.997093,25.3091537 L17.6482558,16.3005181 L30.4622093,16.3005181 L32.8924419,25.253886 L24.0552326,41.0051813 Z M25.4360465,39.6234888 L33.5,25.3644214 L33.5,25.3644214 L33.5,25.3644214 L33.5,25.3091537 L41.4534884,21.5509499 L25.4360465,39.6234888 Z M33.3343023,24.8117444 L31.0145349,16.2452504 L36.869186,13.4818653 L42.2267442,20.6666667 L33.3343023,24.8117444 Z"/>
    <path fill="#FFC100" fill-rule="nonzero" d="M27.1219512,24.4904215 C27.8731707,24.1149425 28.302439,23.3639847 28.302439,22.559387 C28.302439,22.559387 28.302439,20.091954 25.9414634,19.9310345 L24.9219512,19.9310345 L24.9219512,18 L23.5268293,18 L23.4195122,19.9310345 L22.5073171,19.9310345 L22.5073171,18 L21.0585366,18 L21.0585366,19.9310345 L18.5365854,19.9310345 L18.5365854,21.48659 L19.8243902,21.48659 C19.8243902,21.48659 20.2,21.4329502 20.2,21.9693487 L20.2,28.0306513 C20.2,28.2988506 19.9853659,28.51341 19.7170732,28.51341 C19.7170732,28.51341 19.6634146,28.51341 19.6634146,28.51341 L18.3219512,28.51341 L18.3219512,29.532567 C18.3219512,29.532567 18.2682927,30.0153257 18,30.0689655 L21.004878,30.0689655 L21.004878,32 L22.4,32 L22.4,29.908046 L23.4195122,29.908046 L23.4195122,32 L24.9756098,32 L24.9756098,29.908046 L27.0682927,29.908046 C27.0682927,29.908046 29,29.5862069 29,26.9578544 C29,24.3295019 26.3707317,24.4904215 27.1219512,24.4904215 Z M22.5609756,21.5402299 C22.5609756,21.5402299 25.5121951,21.2183908 25.5121951,22.8275862 C25.5121951,22.8275862 25.7268293,24.2758621 22.5609756,24.0613027 L22.5609756,21.5402299 Z M23.9560976,28.4061303 L22.5073171,28.4061303 L22.5073171,25.7241379 C22.5073171,25.7241379 24.2780488,25.4022989 25.1902439,25.7241379 C25.1902439,25.7241379 26.2634146,26.045977 26.2634146,26.9578544 C26.2634146,26.9578544 26.3707317,28.4061303 23.9560976,28.4061303 L23.9560976,28.4061303 Z"/>
  </g>
</svg>
