<svg xmlns="http://www.w3.org/2000/svg" xmlns:xlink="http://www.w3.org/1999/xlink" width="48" height="48" viewBox="0 0 48 48">
  <defs>
    <circle id="bchabc-a" cx="24" cy="24" r="24"/>
  </defs>
  <g fill="none" fill-rule="evenodd">
    <mask id="bchabc-b" fill="#fff">
      <use xlink:href="#bchabc-a"/>
    </mask>
    <use fill="#F29F10" xlink:href="#bchabc-a"/>
    <path fill="#FFF" d="M9.64759507,18.8501039 L13.6731575,18.8501039 L16.5372705,29.4618868 L10.8545802,29.4618868 L11.3526918,26.7906492 L12.7474971,26.7906492 L11.3526918,21.4109626 L7.78677325,26.7906492 L9.11762004,26.7906492 L8.50746514,29.4618868 L2.5,29.4618868 L9.64759507,18.8501039 Z M22.9408069,18.8501039 C23.5024183,18.8501039 24.0165582,18.8501039 24.4832266,18.8501039 L25.0527898,16 L26.8325048,16 L26.2629416,18.8501039 C27.1936838,18.8501039 27.733263,18.8501039 27.8816792,18.8501039 C28.43448,18.8501039 30.9807702,18.965334 30.8972302,21.055627 C30.8415369,22.4491557 30.1758818,23.4241882 28.9002648,23.9807246 C30.1305778,24.4979187 30.5066817,25.4423602 30.0285764,26.8140491 C29.3114184,28.8715823 26.6128212,29.4618868 25.9378967,29.4618868 C25.752044,29.4618868 25.153508,29.4618868 24.1422889,29.4618868 L23.8349132,31 L22.0551981,31 L22.3625738,29.4618868 C21.893746,29.4618868 21.3796061,29.4618868 20.8201542,29.4618868 L20.5127785,31 L18.7330634,31 L19.0404391,29.4618868 C18.5020406,29.4618868 17.9324069,29.4618868 17.3315379,29.4618868 L19.5405396,18.8501039 C20.1097051,18.8501039 20.6498892,18.8501039 21.1610919,18.8501039 L21.7306551,16 L23.5103701,16 L22.9408069,18.8501039 Z M22.2924935,21.5322994 L22.0551981,22.9349217 C24.9818406,22.9349217 26.5242603,22.9349217 26.6824572,22.9349217 C26.9197525,22.9349217 27.4950315,22.7298019 27.4950315,22.1310507 C27.4950315,21.5322994 27.0663241,21.5322994 26.9197525,21.5322994 C26.8220382,21.5322994 25.2796185,21.5322994 22.2924935,21.5322994 Z M21.4619598,25.2726256 L21.2246645,26.6752479 C24.151307,26.6752479 25.6937266,26.6752479 25.8519235,26.6752479 C26.0892189,26.6752479 26.6644978,26.4701281 26.6644978,25.8713768 C26.6644978,25.2726256 26.2357904,25.2726256 26.0892189,25.2726256 C25.9915045,25.2726256 24.4490848,25.2726256 21.4619598,25.2726256 Z M42.3040912,29.4618868 C38.2248824,29.4618868 35.9503386,29.4618868 35.4804599,29.4618868 C34.7756418,29.4618868 30.6573858,28.7473347 31.0644261,24.8397851 C31.4714664,20.9322355 34.5072941,18.8501039 37.6347725,18.8501039 C39.7197581,18.8501039 42.0081672,18.8501039 44.5,18.8501039 L44.0052485,21.5322994 C40.8487262,21.5322994 38.7252341,21.5322994 37.6347725,21.5322994 C35.99908,21.5322994 34.3686015,22.7558271 34.1413865,24.5497409 C33.9141716,26.3436546 35.7530946,26.6752479 36.5747065,26.6752479 C37.1224478,26.6752479 39.2436611,26.6752479 42.9383464,26.6752479 L42.3040912,29.4618868 Z" mask="url(#bchabc-b)"/>
  </g>
</svg>
