<svg xmlns="http://www.w3.org/2000/svg" width="48" height="48" viewBox="0 0 48 48">
  <g fill="none" fill-rule="evenodd">
    <ellipse cx="23.784" cy="24" fill="#359FC7" rx="23.73" ry="24"/>
    <path fill="#FFF" d="M23.7303371,5.61818182 L12.4044944,30.2181818 L4.74606742,32.7818182 L23.7303371,5.61818182 Z M23.7842697,5.61818182 L42.7685393,32.7818182 L35.1101124,30.2181818 L23.7842697,5.61818182 Z M28.152809,22.8 C28.152809,22.8 29.8786517,23.0727273 29.8786517,25.6909091 C29.8786517,28.3090909 26.8044944,28.6363636 25.6179775,28.6363636 L25.6179775,30.8727273 L24.2696629,30.8727273 L24.2696629,28.6363636 L23.2988764,28.6363636 L23.2988764,30.8727273 L21.7348315,30.8727273 L21.7348315,28.6363636 L18.7146067,28.6363636 L18.7146067,26.7818182 C18.7146067,26.7818182 20.1168539,26.7818182 20.2786517,26.7818182 C20.4404494,26.7818182 20.6561798,26.8363636 20.6561798,26.4 C20.6561798,25.9636364 20.6561798,20.4545455 20.6561798,20.2363636 C20.6561798,20.0181818 20.3325843,19.6909091 20.1168539,19.6909091 C19.9011236,19.6909091 18.7146067,19.6909091 18.7146067,19.6909091 L18.7146067,18 L21.7348315,18 L21.7348315,15.7090909 L23.2988764,15.7090909 L23.2988764,18 L24.2157303,18 L24.2157303,15.7636364 L25.8876404,15.7636364 L25.8876404,18.0545455 C25.8876404,18.0545455 28.4764045,17.8909091 29.0696629,19.9636364 C29.6089888,22.0363636 28.152809,22.6363636 28.152809,22.6363636 L28.152809,22.8 Z M23.4067416,19.5818182 L23.4067416,22.3090909 C23.6764045,22.3090909 26.4808989,22.5272727 26.4808989,20.9454545 C26.4808989,19.4181818 23.4067416,19.5818182 23.4067416,19.5818182 Z M23.4067416,26.8363636 C23.4067416,26.8363636 27.2898876,27.2727273 27.2359551,25.3636364 C27.1820225,23.4545455 23.4067416,23.7818182 23.4067416,23.7818182 L23.4067416,26.8363636 Z M19.0921348,32.7818182 L28.152809,32.7818182 L38.7775281,38.0181818 L8.68314607,38.0181818 L19.0921348,32.7818182 Z"/>
  </g>
</svg>
