<svg xmlns="http://www.w3.org/2000/svg" width="48" height="48" viewBox="0 0 48 48">
  <g fill="none" fill-rule="evenodd">
    <path fill="#4B4A48" d="M48,24 C48,37.2 37.273743,48 24,48 C10.726257,48 0,37.2 0,24 C0,10.8 10.726257,0 24,0 C37.273743,0 48,10.8 48,24 Z"/>
    <path fill="#F2C81E" d="M16.814574,10.7480315 L15.5312999,7.5 L19.7456237,7.62992126 L20.9381465,10.6983622 L26.0858338,10.6315431 L27.2523879,7.62992126 L31.4667117,7.5 L30.065235,11.0472083 C30.1833751,11.0755849 30.2992576,11.1056989 30.4131307,11.1377953 C31.335014,11.3976378 32.2568974,11.7874016 33.0470831,12.1771654 C33.9689664,12.6968504 34.4957569,13.2165354 35.0225473,13.996063 C35.4176402,14.6456693 35.6810354,15.5551181 35.812733,16.5944882 C36.0761283,19.4527559 35.0225473,21.4015748 32.7836878,22.5708661 C34.6274545,22.9606299 35.9444307,23.7401575 36.866314,24.9094488 C37.7881973,26.0787402 38.1832901,27.7677165 37.9198949,29.8464567 C37.7881973,30.8858268 37.5248021,31.9251969 37.1297092,32.7047244 C36.7346164,33.6141732 36.3395235,34.2637795 35.6810354,34.7834646 C35.0225473,35.3031496 34.3640592,35.6929134 33.4421759,36.0826772 C32.7657119,36.4163471 31.8962116,36.6548006 31.0815574,36.7980379 L32.5202926,40.5 L28.5693641,40.5 L27.2860788,37.2519401 C27.2748676,37.251959 27.2636374,37.2519685 27.2523879,37.2519685 L23.6965522,37.3818898 C22.5112737,37.3818898 21.5893903,37.3818898 20.9309023,37.3818898 L19.6786675,37.3361363 L18.4286475,40.5 L14.477719,40.5 L15.7400381,37.2519685 C15.2671612,37.2519685 14.9590551,37.2519685 14.7411142,37.2519685 L10.1316976,37.2519685 L10.7901857,33.0944882 L13.4241381,33.0944882 C14.2143238,33.0944882 14.6094166,32.7047244 14.7411142,31.9251969 L14.7411142,22.7007874 L15.1362071,22.7007874 C15.0045095,22.7007874 14.8728118,22.7007874 14.7411142,22.7007874 L14.7411142,16.0748031 C14.477719,15.0354331 13.8192309,14.515748 12.6339524,14.515748 L10,14.515748 L10,10.7480315 L14.8728118,10.7480315 C15.6348463,10.7480315 16.3068947,10.7480315 16.814574,10.7480315 Z M30.5448283,30.496063 C30.676526,30.1062992 30.8082236,29.7165354 30.9399212,29.3267717 C30.9399212,28.8070866 30.8082236,28.2874016 30.5448283,27.8976378 C30.2814331,27.507874 30.0180379,27.1181102 29.622945,26.8582677 C29.3595498,26.5984252 28.8327593,26.3385827 28.3059688,26.2086614 C27.6474807,26.0787402 27.2523879,25.9488189 26.7255974,25.8188976 C26.3305046,25.6889764 25.6720165,25.5590551 25.0135284,25.5590551 C24.3550403,25.4291339 23.8282498,25.4291339 23.433157,25.4291339 C23.0380641,25.4291339 22.6429713,25.4291339 21.9844832,25.4291339 C21.4576927,25.4291339 21.0625999,25.4291339 20.9309023,25.4291339 L20.9309023,33.2244094 C21.0625999,33.2244094 21.4576927,33.2244094 21.8527856,33.2244094 C22.2478784,33.2244094 22.6429713,33.2244094 22.9063665,33.2244094 C23.1697618,33.2244094 23.5648546,33.2244094 24.0916451,33.2244094 C24.6184355,33.2244094 25.0135284,33.0944882 25.4086213,33.0944882 C25.8037141,32.9645669 26.198807,32.9645669 26.7255974,32.8346457 C27.2523879,32.8346457 27.7791784,32.7047244 28.0425736,32.5748031 C28.3059688,32.4448819 28.7010617,32.3149606 29.0961545,32.0551181 C29.4912474,31.9251969 29.7546426,31.6653543 30.0180379,31.4055118 C30.1497355,31.1456693 30.4131307,30.8858268 30.5448283,30.496063 Z M20.7992046,14.7755906 L20.5358094,21.6614173 C20.667507,21.6614173 20.9309023,21.6614173 21.3259951,21.6614173 C21.721088,21.6614173 22.1161808,21.6614173 22.379576,21.6614173 C22.6429713,21.6614173 23.0380641,21.6614173 23.5648546,21.6614173 C24.0916451,21.6614173 24.4867379,21.5314961 24.8818308,21.5314961 C25.2769236,21.4015748 25.6720165,21.4015748 26.0671093,21.2716535 C26.5938998,21.1417323 26.9889927,21.011811 27.2523879,20.8818898 C27.6474807,20.6220472 27.910876,20.492126 28.1742712,20.2322835 C28.4376665,19.9724409 28.7010617,19.7125984 28.8327593,19.3228346 C28.9644569,18.9330709 29.0961545,18.5433071 29.0961545,18.1535433 C29.0961545,17.6338583 28.9644569,17.2440945 28.8327593,16.8543307 C28.7010617,16.4645669 28.4376665,16.2047244 28.1742712,15.9448819 C27.910876,15.6850394 27.6474807,15.4251969 27.1206903,15.2952756 C26.5938998,15.1653543 26.198807,15.0354331 25.8037141,14.9055118 C25.4086213,14.9055118 24.8818308,14.7755906 24.3550403,14.7755906 C23.8282498,14.7755906 23.433157,14.7755906 23.0380641,14.7755906 C22.6429713,14.7755906 22.2478784,14.7755906 21.721088,14.7755906 C21.1942975,14.7755906 20.9309023,14.7755906 20.7992046,14.7755906 Z"/>
  </g>
</svg>
