<svg xmlns="http://www.w3.org/2000/svg" width="48" height="48" viewBox="0 0 48 48">
  <g fill="none" fill-rule="evenodd">
    <circle cx="24" cy="24" r="24" fill="#009CFF"/>
    <path fill="#FFF" d="M12.9706044,32.7240001 C12.9803738,32.7421254 12.9901723,32.7602322 13,32.7783203 C11.9371437,32.4371193 10.8742874,32.0453267 9.84297711,31.6029425 C9.36472008,31.4019919 8.89107758,31.188768 8.4225354,30.9632709 C8.42031469,30.9578707 8.41809672,30.9524697 8.4158815,30.9470677 C8.38635778,30.9325298 8.35687488,30.9179473 8.32743363,30.9033203 C7.42477876,28.5737749 7,26.130593 7,23.630593 C7,23.3465021 7,23.0624112 7,22.7783203 C8.16814159,23.5169567 9.44247788,24.1419567 10.7168142,24.7101385 C10.8029435,26.2462198 11.0753534,27.76569 11.5172571,29.2236405 C13.8127686,30.2947643 16.2137679,31.104044 18.6748796,31.6422845 C18.0050546,30.1269707 17.5647247,28.5124724 17.3538898,26.8747214 C17.9457265,26.9292354 18.5375632,26.9837494 19.1294,26.9837494 L19.5060233,26.9837494 C19.6562397,28.6960041 20.0161543,30.3817004 20.5857673,32.0037631 C22.376482,32.2902121 24.1922677,32.4351487 26.0162274,32.4351487 C29.4596412,32.4351487 32.8492515,31.9445227 36.1850586,30.9087569 C31.8269881,32.9802886 27.0922942,34.0705684 22.2499937,34.0705684 C21.9791884,34.0705684 21.7085553,34.0672558 21.4381623,34.0606304 C21.4397551,34.0639435 21.4413489,34.0672561 21.4429436,34.0705684 C21.1852436,34.0705684 20.9275437,34.0551289 20.6617342,34.0324666 C18.0487777,33.9068613 15.4644571,33.4707057 12.9706044,32.7240001 Z M17.4353856,22.6578543 C17.7004028,20.5740886 18.3547465,18.5514873 19.3984167,16.6806048 C19.9902534,16.7896328 20.5282868,16.8441468 21.1201235,16.8441468 C20.2822153,18.8816881 19.737914,21.0183912 19.538025,23.2027793 C22.5647182,23.9020817 25.674721,24.2580498 28.8140011,24.2580498 C29.8362645,24.2580498 30.8047246,24.2035358 31.8269881,24.1490218 C28.7063944,25.2938156 25.4243907,25.8934695 22.142387,25.8934695 C18.1958833,25.8934695 14.2859252,25.0418171 10.7137088,23.4300646 C10.712795,23.4548311 10.7119306,23.4796009 10.7111156,23.5043739 C9.47363881,22.9592339 8.23616201,22.305066 7.16009521,21.5418701 C7.59052193,18.3255445 8.82799874,15.327275 10.8187223,12.8196313 C11.6795757,13.3647712 12.6480358,13.8553972 13.616496,14.2915091 C12.3994,16.104997 11.5633721,18.1356669 11.1084123,20.2550765 C13.1531121,21.2320858 15.268989,22.0346218 17.4353856,22.6578543 Z M20.9023584,14.4778779 C22.1279507,12.9195519 23.6098623,11.5763081 25.316784,10.5750376 C24.0699161,11.8851648 22.9815975,13.3157745 22.0858494,14.9013375 C23.9604007,15.5193679 25.9107398,15.9164716 27.8993443,16.0809509 C27.3075076,16.1354648 26.7156708,16.1354648 26.1238341,16.1354648 C21.3891402,16.1354648 16.762053,14.827129 12.6729992,12.3739994 C12.3501792,12.2104574 12.0811625,12.0469154 11.7583425,11.8288594 C11.7688138,11.8172852 11.7792852,11.8057451 11.7897569,11.7942386 C11.7792854,11.7876076 11.7688139,11.7809765 11.7583425,11.7743454 C16.2240196,6.86808609 23.0032404,4.90558236 29.3520345,6.59551613 C28.9216078,6.54100214 28.4373777,6.54100214 28.006951,6.54100214 C23.3645168,6.54100214 18.9673067,8.44588591 15.7414818,11.7503643 C17.3565424,12.8641311 19.0887974,13.7770319 20.9023584,14.4778779 Z M14.5023128,34.8337643 C17.7843165,38.9768278 22.7880271,41.4299574 28.006951,41.4299574 C28.4373777,41.4299574 28.9216078,41.4299574 29.3520345,41.3754435 C21.6043536,43.5014892 13.4800493,40.0671076 9.44479885,33.0893166 C11.058899,33.7979985 12.7806059,34.3976524 14.5023128,34.8337643 Z M22.0885836,35.3243903 C22.6804204,36.3601561 23.3798638,37.395922 24.1331105,38.2681459 C22.9494371,37.395922 21.8733703,36.4146701 20.9587135,35.2698763 C21.1739269,35.3243903 21.4429436,35.3243903 21.7119603,35.3243903 C21.8195669,35.3243903 21.980977,35.3243903 22.0885836,35.3243903 Z"/>
  </g>
</svg>
