<svg xmlns="http://www.w3.org/2000/svg" width="48" height="48" viewBox="0 0 48 48">
  <g fill="none" fill-rule="evenodd">
    <path fill="#F89725" d="M23.3869179,47.9926464 C17.3345102,47.8441378 11.8378638,45.4549978 7.69502046,41.6232683 L9.95976112,39.3585276 C13.5209887,42.6128667 18.2179413,44.6450954 23.3869179,44.7915124 L23.3869179,47.9926464 Z M6.55702049,40.4985265 C2.65520324,36.3778517 0.198948339,30.8744281 -1.63761366e-13,24.8 L3.2020193,24.8 C3.39832536,29.9909499 5.49690588,34.6948909 8.82073972,38.2348073 L6.55702049,40.4985265 Z M-1.64384131e-13,23.2 C0.198948339,17.1255719 2.65520324,11.6221483 6.55702049,7.50147346 L8.82073972,9.76519269 C5.49690588,13.3051091 3.39832536,18.0090501 3.20201952,23.1999943 L-1.64535052e-13,23.2 Z M7.69502046,6.37673173 C11.8378638,2.54500218 17.3345102,0.155862174 23.3869179,0.00735355109 L23.3869179,3.20848758 C18.2179413,3.35490462 13.5209887,5.38713331 9.95976112,8.64147239 L7.69502046,6.37673173 Z M24.9869263,0.0204559262 C30.9821095,0.266177902 36.4100428,2.71115399 40.4854444,6.57010261 L38.2217252,8.83382184 C34.7273254,5.55272624 30.0986429,3.46557764 24.9869179,3.22361609 L24.9869179,0.0204555816 Z M41.6101861,7.70810258 C45.3996666,11.8052664 47.7781944,17.2265435 47.9738358,23.2 L44.7718165,23.2 C44.5793245,18.109908 42.5577608,13.4880841 39.3454455,9.97284324 L41.6101861,7.70810258 Z M47.9738358,24.8 C47.7781944,30.7734565 45.3996666,36.1947336 41.6101861,40.2918974 L39.3454455,38.0271568 C42.5577608,34.5119159 44.5793245,29.890092 44.7718162,24.8000057 L47.9738358,24.8 Z M40.4854444,41.4298974 C36.4100428,45.288846 30.9821095,47.7338221 24.9869263,47.9795441 L24.9869179,44.7763839 C30.0986429,44.5344224 34.7273254,42.4472738 38.2217252,39.1661782 L40.4854444,41.4298974 Z M24,40 C15.163444,40 8,32.836556 8,24 C8,15.163444 15.163444,8 24,8 C32.836556,8 40,15.163444 40,24 C40,32.836556 32.836556,40 24,40 Z"/>
    <path fill="#FFF" d="M22.4,26.7138439 L20.8,23.9425626 L14.4,23.9425626 L14.4,20.7425626 L18.9524791,20.7425626 L16.2143594,16 L18.9856406,14.4 L22.6475209,20.7425626 L25.3524791,20.7425626 L29.0143594,14.4 L31.7856406,16 L29.0475209,20.7425626 L33.6,20.7425626 L33.6,23.9425626 L27.2,23.9425626 L25.6,26.7138439 L25.6,27.1425626 L30.4,27.1425626 L30.4,30.3425626 L25.6,30.3425626 L25.6,35.1425626 L22.4,35.1425626 L22.4,30.3425626 L17.6,30.3425626 L17.6,27.1425626 L22.4,27.1425626 L22.4,26.7138439 Z"/>
  </g>
</svg>
