<svg xmlns="http://www.w3.org/2000/svg" width="48" height="48" viewBox="0 0 48 48">
  <g fill="none" fill-rule="evenodd">
    <path fill="#FFF" fill-rule="nonzero" d="M16.9722717,18.2036291 L23.9310818,6 L30.8341019,18.159273 L37,24.1109244 L30.5246336,30.3720795 L23.9086889,42 L17.0760713,29.9912639 L11,23.9982956 L16.9722717,18.2036291 Z M15.9408144,20.0124905 L11.8293316,24.0017047 L16.0198728,28.1349315 L13.6671283,23.9998418 L15.9408144,20.0124905 Z M31.5449849,28.5787508 L36.1652953,24.1112847 L31.8465009,19.9425556 L34.1500692,24.0001586 L31.5449849,28.5787508 Z M30.0624243,30.0122669 L33.4833174,23.9998417 L30.3718167,18.5191122 L23.9092098,12.2810617 L17.4345323,18.5631932 L14.3342407,24.0001585 L17.5397337,29.6340052 L23.932536,35.9393726 L30.0624243,30.0122669 Z M29.042073,31.8055955 L23.9285181,36.7499892 L18.5959322,31.4903375 L23.9086889,40.8278267 L29.042073,31.8055955 Z M18.4659896,16.7543319 L23.908168,11.4739946 L29.3594177,16.7358296 L23.9299723,7.1721738 L18.4659896,16.7543319 Z M24.0111786,20.0000001 L27.9086889,23.9391971 L23.9189379,28.0000001 L19.9086889,23.9391971 L24.0111786,20.0000001 Z"/>
    <circle cx="24" cy="24" r="24" fill="#2B9AFF"/>
    <path fill="#FFF" fill-rule="nonzero" d="M24,44.7 C24.3459358,44.7 24.6908926,44.691508 25.0346655,44.6745761 C25.4207968,44.655558 25.7184008,44.3271195 25.6993826,43.9409883 C25.6803645,43.554857 25.351926,43.257253 24.9657947,43.2762712 C24.6449586,43.2920733 24.3229657,43.3 24,43.3 C23.6134007,43.3 23.3,43.6134007 23.3,44 C23.3,44.3865993 23.6134007,44.7 24,44.7 Z M27.7817884,44.3552146 C28.1214881,44.2924883 28.4591095,44.2213161 28.7944105,44.1417919 C29.1705748,44.0525761 29.4031925,43.675311 29.3139767,43.2991467 C29.2247608,42.9229824 28.8474957,42.6903647 28.4713314,42.7795805 C28.1588459,42.8536934 27.8441861,42.9200253 27.5275728,42.9784886 C27.1474004,43.0486884 26.8961179,43.4137871 26.9663176,43.7939595 C27.0365173,44.1741318 27.4016161,44.4254143 27.7817884,44.3552146 Z M31.4698044,43.3110028 C31.7917505,43.1863868 32.1103792,43.0537307 32.4254244,42.9131799 C32.7784822,42.7556705 32.9370056,42.341774 32.7794962,41.9887162 C32.6219868,41.6356583 32.2080903,41.477135 31.8550325,41.6346444 C31.5614174,41.7656346 31.2644716,41.8892633 30.9644417,42.0053963 C30.6039084,42.1449483 30.4247677,42.5503476 30.5643198,42.9108809 C30.7038718,43.2714142 31.1092711,43.4505549 31.4698044,43.3110028 Z M34.859793,41.625845 C35.1534171,41.4445625 35.4424648,41.2559668 35.7266672,41.0602547 C36.0450723,40.8409895 36.125441,40.4051216 35.9061758,40.0867165 C35.6869106,39.7683114 35.2510427,39.6879427 34.9326376,39.9072079 C34.6676227,40.0897067 34.3980992,40.2655635 34.1243189,40.4345945 C33.7953641,40.6376901 33.6933351,41.0690021 33.8964307,41.3979569 C34.0995263,41.7269116 34.5308383,41.8289406 34.859793,41.625845 Z M37.929126,39.3125825 C38.1843437,39.0802921 38.433758,38.8416816 38.6771202,38.5969915 C38.9497425,38.3228818 38.9485366,37.879668 38.6744269,37.6070457 C38.4003172,37.3344235 37.9571033,37.3356293 37.6844811,37.609739 C37.4574793,37.8379793 37.2248329,38.0605483 36.986775,38.2772204 C36.7008677,38.5374434 36.6800464,38.9801696 36.9402694,39.2660769 C37.2004925,39.5519843 37.6432186,39.5728055 37.929126,39.3125825 Z M40.4625143,36.5506661 C40.6718727,36.2764584 40.8743718,35.9970781 41.0698022,35.7127908 C41.2888089,35.3942078 41.2080863,34.9584053 40.8895033,34.7393986 C40.5709203,34.520392 40.1351178,34.6011146 39.9161111,34.9196976 C39.7338629,35.1848092 39.5450165,35.4453533 39.3497677,35.701081 C39.1151612,36.0083575 39.1740719,36.4476404 39.4813485,36.6822468 C39.788625,36.9168533 40.2279079,36.8579426 40.4625143,36.5506661 Z M42.4923092,33.3114887 C42.6477562,33.0033621 42.7954773,32.6913209 42.9353137,32.3756343 C43.0918882,32.0221609 42.9322701,31.6086853 42.5787966,31.4521109 C42.2253232,31.2955364 41.8118477,31.4551546 41.6552732,31.808628 C41.5249413,32.1028576 41.387256,32.3936995 41.2423643,32.6809033 C41.068233,33.0260661 41.2068814,33.4470371 41.5520441,33.6211684 C41.8972068,33.7952998 42.3181779,33.6566514 42.4923092,33.3114887 Z M43.8940912,29.7384029 C43.9895007,29.407058 44.0766355,29.0730771 44.1553889,28.7367104 C44.2435201,28.3602905 44.0098158,27.9836975 43.6333959,27.8955664 C43.256976,27.8074353 42.880383,28.0411395 42.7922519,28.4175594 C42.7188614,28.7310202 42.6376625,29.0422494 42.5487537,29.3510179 C42.4417803,29.7225226 42.6562253,30.1104057 43.02773,30.2173791 C43.3992347,30.3243526 43.7871178,30.1099076 43.8940912,29.7384029 Z M44.6088022,25.9554155 C44.6409285,25.6126899 44.6646054,25.2685204 44.679772,24.9231214 C44.6967313,24.5368943 44.3973805,24.2100471 44.0111534,24.1930878 C43.6249262,24.1761285 43.298079,24.4754792 43.2811197,24.8617064 C43.2669685,25.1839818 43.2448799,25.5050626 43.2149127,25.8247557 C43.178832,26.2096676 43.4616155,26.5509496 43.8465275,26.5870304 C44.2314395,26.6231111 44.5727215,26.3403275 44.6088022,25.9554155 Z M44.616487,22.1283913 C44.5856431,21.7843721 44.5462981,21.4418501 44.4985232,21.1010493 C44.4448529,20.7181935 44.0909786,20.451336 43.7081228,20.5050064 C43.325267,20.5586767 43.0584095,20.912551 43.1120799,21.2954068 C43.1566258,21.6131737 43.193315,21.9325757 43.2220803,22.2534105 C43.2566034,22.6384653 43.5967384,22.9226274 43.9817932,22.8881043 C44.366848,22.8535812 44.6510101,22.5134461 44.616487,22.1283913 Z M43.9279571,18.3805544 C43.8343412,18.0479201 43.7324227,17.7179666 43.6223204,17.3909505 C43.4989614,17.0245606 43.1019414,16.8275451 42.7355515,16.9509041 C42.3691616,17.0742631 42.1721461,17.4712831 42.2955051,17.8376731 C42.3981037,18.1424023 42.4930758,18.4498676 42.5803117,18.7598328 C42.6850466,19.1319748 43.0716316,19.3487511 43.4437736,19.2440163 C43.8159156,19.1392814 44.0326919,18.7526964 43.9279571,18.3805544 Z M42.5658896,14.8358215 C42.4129039,14.5264562 42.2521975,14.221024 42.0839412,13.9197952 C41.895416,13.5822789 41.468975,13.4614978 41.1314587,13.6500231 C40.7939424,13.8385484 40.6731613,14.2649894 40.8616866,14.6025057 C41.018538,14.8833163 41.1683454,15.1680343 41.3109501,15.4564075 C41.4823202,15.8029494 41.9021709,15.9449543 42.2487128,15.7735842 C42.5952548,15.6022142 42.7372597,15.1823635 42.5658896,14.8358215 Z M40.5575571,11.5747988 C40.350359,11.2991158 40.1363177,11.0286191 39.9156529,10.76357 C39.6682966,10.4664607 39.2269201,10.426128 38.9298108,10.6734842 C38.6327016,10.9208405 38.5923688,11.362217 38.8397251,11.6593263 C39.0455362,11.9065341 39.2451654,12.1588173 39.438407,12.4159307 C39.6706791,12.7249755 40.1095032,12.787212 40.418548,12.5549398 C40.7275928,12.3226677 40.7898293,11.8838436 40.5575571,11.5747988 Z M37.9635245,8.71879626 C37.7088089,8.48591929 37.4483384,8.25940805 37.1823692,8.03949345 C36.8844264,7.7931418 36.4431886,7.83496467 36.1968369,8.13290745 C35.9504853,8.43085024 35.9923081,8.87208805 36.2902509,9.11843971 C36.5383254,9.32355815 36.7812754,9.53483313 37.0188605,9.75204838 C37.3041852,10.0129101 37.7469568,9.99307901 38.0078186,9.70775432 C38.2686803,9.42242963 38.2488492,8.97965802 37.9635245,8.71879626 Z M35.0004593,6.46178127 C34.7082439,6.27812233 34.4114672,6.10178597 34.1103996,5.93295775 C33.7731994,5.74386763 33.3465568,5.86393455 33.1574667,6.20113473 C32.9683766,6.53833491 33.0884435,6.9649775 33.4256437,7.15406763 C33.7063278,7.31146551 33.9830226,7.47586975 34.2554753,7.64710773 C34.5827941,7.85282938 35.0149089,7.75425537 35.2206305,7.4269365 C35.4263522,7.09961764 35.3277781,6.66750292 35.0004593,6.46178127 Z M31.5820144,4.73280882 C31.2610811,4.60641783 30.9368702,4.48806392 30.6096437,4.37787964 C30.2432575,4.25450944 29.8462315,4.45151281 29.7228613,4.81789899 C29.5994911,5.18428517 29.7964945,5.58131116 30.1628807,5.70468136 C30.4678111,5.80735806 30.7699352,5.91764914 31.069011,6.03543215 C31.4287205,6.17709412 31.8351624,6.00033167 31.9768244,5.64062217 C32.1184864,5.28091267 31.9417239,4.87447079 31.5820144,4.73280882 Z M27.8890124,3.66487811 C27.5504863,3.6005138 27.2099295,3.54456119 26.8675761,3.49710305 C26.4846386,3.44401901 26.1311733,3.71141806 26.0780893,4.09435556 C26.0250052,4.47729305 26.2924043,4.83075834 26.6753418,4.88384238 C26.9945036,4.92808563 27.3119652,4.98024375 27.6275137,5.0402393 C28.0073092,5.11245018 28.3737328,4.86310358 28.4459437,4.48330808 C28.5181546,4.10351257 28.268808,3.73708899 27.8890124,3.66487811 Z M24.0491443,3.30005714 C24.0250466,3.30000002 24.0250466,3.30000002 24.0009406,3.30000002 C23.6708281,3.30000002 23.3424222,3.30768894 23.014963,3.32303852 C22.6287877,3.3411404 22.3304052,3.6688718 22.3485071,4.0550471 C22.366609,4.4412224 22.6943404,4.73960486 23.0805157,4.72150298 C23.3861335,4.70717721 23.6926825,4.7 24.0009094,4.70000002 C24.0233876,4.70000958 24.0233876,4.70000958 24.0458886,4.70005335 C24.4324869,4.70095238 24.7466155,4.38828136 24.7475165,4.00168308 C24.7484136,3.6150848 24.4357426,3.30095617 24.0491443,3.30005714 Z M20.2659284,3.6360324 C19.9259873,3.69797647 19.5881107,3.76837375 19.2525403,3.84713083 C18.8761677,3.93546402 18.6426657,4.31218244 18.7309989,4.68855498 C18.8193321,5.06492751 19.1960505,5.29842954 19.572423,5.21009636 C19.8851619,5.13669776 20.2000623,5.07108762 20.5169038,5.01335276 C20.8972403,4.94404783 21.1493812,4.57954142 21.0800763,4.1992049 C21.0107714,3.81886839 20.646265,3.56672747 20.2659284,3.6360324 Z M16.5762749,4.67122479 C16.2537949,4.79515758 15.9346207,4.92714946 15.6190188,5.06705561 C15.2655899,5.22373049 15.1060892,5.63725134 15.2627641,5.99068029 C15.4194389,6.34410924 15.8329598,6.50360993 16.1863887,6.34693505 C16.4805209,6.21654639 16.7779736,6.09353729 17.0784997,5.97804164 C17.4393672,5.8393561 17.6194813,5.43438834 17.4807957,5.07352083 C17.3421102,4.71265332 16.9371424,4.53253925 16.5762749,4.67122479 Z M13.1817226,6.34859085 C12.8876769,6.52917869 12.5981913,6.71709058 12.3135349,6.91213025 C11.9946152,7.13064631 11.913222,7.56632407 12.131738,7.88524376 C12.3502541,8.20416346 12.7859318,8.28555669 13.1048515,8.06704063 C13.370288,7.88516999 13.6402179,7.70995215 13.9143894,7.54157002 C14.2438215,7.33924966 14.3468659,6.90817911 14.1445456,6.57874701 C13.9422252,6.24931491 13.5111547,6.14627049 13.1817226,6.34859085 Z M10.108219,8.65351003 C9.85243735,8.88518311 9.60244381,9.12319085 9.35848756,9.36729301 C9.0852023,9.64074173 9.08533481,10.0839572 9.35878354,10.3572425 C9.63223226,10.6305277 10.0754477,10.6303952 10.348733,10.3569465 C10.5762887,10.1292547 10.8094752,9.90724817 11.0480587,9.69115221 C11.3345957,9.43162263 11.3564895,8.98894823 11.09696,8.70241126 C10.8374304,8.41587428 10.394756,8.39398045 10.108219,8.65351003 Z M7.56700755,11.4107611 C7.35706516,11.6844054 7.15396572,11.9632351 6.95791926,12.246985 C6.73816309,12.5650515 6.8178593,13.0010429 7.13592574,13.220799 C7.45399219,13.4405552 7.88998356,13.360859 8.10973974,13.0427925 C8.2925636,12.7781805 8.48197091,12.5181483 8.67776548,12.2629446 C8.91308947,11.9562173 8.85520563,11.5167979 8.5484783,11.2814739 C8.24175096,11.0461499 7.80233154,11.1040337 7.56700755,11.4107611 Z M5.52980872,14.6447984 C5.37362828,14.9525593 5.22516456,15.2642512 5.0845772,15.5796049 C4.92716225,15.9327049 5.08579628,16.346559 5.43889623,16.5039739 C5.79199617,16.6613889 6.20585026,16.5027548 6.36326521,16.1496549 C6.4942978,15.8557336 6.63267621,15.5652153 6.77825254,15.2783503 C6.95320307,14.9336021 6.81555483,14.512303 6.47080659,14.3373524 C6.12605835,14.1624019 5.70475926,14.3000501 5.52980872,14.6447984 Z M4.11975981,18.2137129 C4.0235489,18.5448173 3.93560732,18.8785735 3.85604215,19.2147313 C3.76699819,19.5909363 3.99978822,19.9680951 4.37599324,20.057139 C4.75219825,20.146183 5.12935706,19.913393 5.21840101,19.5371879 C5.29254758,19.2239234 5.37449805,18.9129047 5.46415333,18.6043612 C5.57202787,18.2331172 5.35852473,17.8447149 4.98728071,17.7368403 C4.61603669,17.6289658 4.22763435,17.8424689 4.11975981,18.2137129 Z M3.39585076,21.9955709 C3.36291097,22.3382408 3.33842133,22.6823689 3.3224435,23.0277402 C3.30457746,23.4139265 3.60316,23.7414756 3.98934628,23.7593416 C4.37553256,23.7772077 4.70308169,23.4786251 4.72094773,23.0924388 C4.73585547,22.7701982 4.75870163,22.4491643 4.78942698,22.1295311 C4.82641906,21.7447056 4.5444444,21.402755 4.15961895,21.3657629 C3.77479351,21.3287708 3.43284284,21.6107455 3.39585076,21.9955709 Z M3.37934796,25.8245537 C3.40941209,26.168656 3.44797815,26.5112747 3.49497554,26.8521862 C3.54777202,27.2351634 3.90103642,27.5028278 4.28401367,27.4500314 C4.66699091,27.3972349 4.93465531,27.0439705 4.88185883,26.6609932 C4.83803711,26.3431175 4.80207353,26.0236192 4.77403493,25.7027002 C4.74038604,25.3175681 4.4008969,25.0326346 4.01576473,25.0662835 C3.63063256,25.0999324 3.34569907,25.4394215 3.37934796,25.8245537 Z M4.05911939,29.5733197 C4.15185305,29.9057899 4.25287514,30.2356011 4.36206804,30.5624977 C4.48455101,30.9291814 4.88109897,31.1271452 5.24778271,31.0046623 C5.61446644,30.8821793 5.81243028,30.4856313 5.68994731,30.1189476 C5.58819618,29.8143299 5.49405931,29.5069972 5.40764536,29.1971845 C5.3037785,28.8247993 4.91769994,28.6071222 4.54531478,28.7109891 C4.17292961,28.814856 3.95525252,29.2009345 4.05911939,29.5733197 Z M5.41243105,33.1202074 C5.56461992,33.4298117 5.72453265,33.7355025 5.89199924,34.0370098 C6.0797164,34.3749762 6.50586715,34.4967773 6.84383358,34.3090601 C7.1818,34.121343 7.3036011,33.6951922 7.11588393,33.3572258 C6.95976985,33.0761576 6.81070344,32.7912008 6.66884243,32.5026068 C6.49829676,32.1556584 6.0787849,32.0126557 5.73183647,32.1832014 C5.38488805,32.3537471 5.24188537,32.7732589 5.41243105,33.1202074 Z M7.41329696,36.3863272 C7.6199327,36.6626048 7.83342972,36.9337076 8.05356851,37.1993735 C8.30023616,37.4970547 8.74151811,37.5384093 9.03919932,37.2917417 C9.33688054,37.045074 9.37823521,36.6037921 9.13156755,36.3061109 C8.92624787,36.0583288 8.72712728,35.8054816 8.5344111,35.5478147 C8.3028623,35.2382276 7.86418495,35.1749651 7.55459782,35.4065139 C7.2450107,35.6380627 7.18174815,36.07674 7.41329696,36.3863272 Z M10.0007191,39.2484365 C10.2548076,39.481829 10.514662,39.7088738 10.7800268,39.9293396 C11.0773904,40.17639 11.5187252,40.1356032 11.7657757,39.8382396 C12.0128261,39.540876 11.9720393,39.0995412 11.6746757,38.8524907 C11.4271642,38.6468575 11.1847882,38.4350843 10.9477874,38.2173876 C10.6630711,37.955862 10.2202545,37.9746616 9.95872885,38.2593779 C9.69720316,38.5440942 9.71600285,38.9869108 10.0007191,39.2484365 Z M12.958312,41.5122386 C13.2499522,41.6964946 13.5461653,41.8734462 13.8466814,42.0429075 C14.1834302,42.2328005 14.6103576,42.1137503 14.8002505,41.7770016 C14.9901435,41.4402528 14.8710933,41.0133254 14.5343446,40.8234325 C14.2541725,40.6654432 13.9780011,40.5004641 13.7060827,40.3286681 C13.3792488,40.122177 12.9469033,40.2197341 12.7404122,40.546568 C12.533921,40.873402 12.6314781,41.3057474 12.958312,41.5122386 Z M16.3720899,43.2490528 C16.6927134,43.3762114 17.0166308,43.4953406 17.3435798,43.6063071 C17.7096684,43.7305575 18.1071667,43.534509 18.2314172,43.1684204 C18.3556677,42.8023318 18.1596191,42.4048335 17.7935305,42.280583 C17.4888579,42.1771771 17.1870063,42.0661632 16.8882181,41.9476644 C16.5288496,41.8051395 16.1219847,41.980926 15.9794598,42.3402945 C15.836935,42.6996629 16.0127214,43.1065279 16.3720899,43.2490528 Z M20.0614123,44.3256332 C20.3997976,44.3908299 20.7402294,44.4476169 21.082473,44.4959105 C21.4652799,44.549928 21.8193961,44.2833916 21.8734136,43.9005846 C21.9274312,43.5177777 21.6608947,43.1636615 21.2780877,43.109644 C20.9590331,43.0646225 20.6416926,43.0116874 20.3262792,42.9509167 C19.9466617,42.8777757 19.5796285,43.126224 19.5064875,43.5058415 C19.4333465,43.8854589 19.6817948,44.2524922 20.0614123,44.3256332 Z"/>
    <path fill="#FFF" d="M28,33 C30.209139,33 32,31.209139 32,29 C32,26.790861 30.209139,25 28,25 L17,25 L17,28 L26,28 L26,30 L15,30 L15,18 L26,18 L26,20 L17,20 L17,23 L28,23 C30.209139,23 32,21.209139 32,19 C32,16.790861 30.209139,15 28,15 L15,15 L15,13 L28,13 C31.3137085,13 34,15.6862915 34,19 C34,21.0869708 32.9344907,22.9250785 31.3177951,24 C32.9344907,25.0749215 34,26.9130292 34,29 C34,32.3137085 31.3137085,35 28,35 L15,35 L15,33 L28,33 Z"/>
  </g>
</svg>
