<svg xmlns="http://www.w3.org/2000/svg" width="48" height="48" viewBox="0 0 48 48">
  <defs>
    <linearGradient id="brc-a" x1="50%" x2="50%" y1="0%" y2="100%">
      <stop offset="0%" stop-color="#06D1FF"/>
      <stop offset="100%" stop-color="#0058A7"/>
    </linearGradient>
  </defs>
  <g fill="none" fill-rule="evenodd">
    <circle cx="24" cy="24" r="24" fill="url(#brc-a)"/>
    <path fill="#FFF" fill-rule="nonzero" d="M21.8899253,30.8826139 L21.8899253,25.5654836 L11.7671326,20.6458301 L11.7671326,25.756596 L21.8899253,30.8826139 Z M21.8899253,34.0175459 L11.7671326,28.8795915 L11.7671326,32.221106 L21.8899253,37.5358988 L21.8899253,34.0175459 Z M27.8869334,30.543101 L36.2459011,25.6651391 L36.2459011,20.6145209 L27.8869334,25.5181454 L27.8869334,30.543101 Z M27.8869334,33.7339916 L27.8869334,40.6167321 L25.1328345,41.905315 L25.1328345,23.9605019 L39,15.1738877 L39,34.3748565 L36.2459011,36.1962093 L36.2459011,28.8376102 L27.8869334,33.7339916 Z M15.0159863,14.7073727 L27.7487731,21.6975678 L24.8271255,23.5195874 L9.5392991,14.8224109 L24.1159641,6 L38.7012078,14.8224109 L35.9880405,16.5047288 L24.1154274,9.20000823 L15.0159863,14.7073727 Z M9.26501084,15.3350022 L24.5369465,23.9510043 L24.5369465,42 L9,33.9876708 L9.26501084,15.3350022 Z"/>
  </g>
</svg>
