<svg xmlns="http://www.w3.org/2000/svg" width="48" height="48" viewBox="0 0 48 48">
  <g fill="none" fill-rule="evenodd">
    <circle cx="24" cy="24" r="24" fill="#F7931A" fill-rule="nonzero"/>
    <path fill="#FFF" fill-rule="nonzero" d="M33.6103613,25.8766404 C34.6400128,25.0104987 35.4408529,23.7979003 35.7840701,22.5275591 C36.642113,19.1784777 34.8688243,15.7716535 31.7798697,14.9632546 L30.8646238,14.7322835 L32.1230868,10.0551181 C32.1802897,9.7664042 32.0086811,9.53543307 31.7798697,9.41994751 L30.1781895,8.95800525 C29.8921752,8.90026247 29.6633637,9.01574803 29.548958,9.30446194 C29.548958,9.30446194 29.548958,9.30446194 29.548958,9.30446194 L28.290495,13.9816273 L25.6591633,13.2887139 L26.9176263,8.61154856 C26.9748292,8.32283465 26.8032206,8.09186352 26.5744091,7.97637795 C26.5744091,7.97637795 26.5744091,7.97637795 26.5744091,7.97637795 L24.972729,7.5144357 C24.6867146,7.45669291 24.4579032,7.57217848 24.3434975,7.86089239 L23.0850345,12.5380577 L17.7079654,11.0944882 C17.421951,11.0367454 17.1931396,11.152231 17.0787339,11.4409449 L16.621111,13.0577428 C16.5639081,13.2887139 16.6783138,13.5774278 16.9071253,13.6929134 C18.680414,14.328084 19.3668484,15.8293963 18.9664283,17.3307087 L16.3350966,27.3779528 C16.1062852,28.7060367 14.8478222,29.5721785 13.5321564,29.3989501 C13.4749535,29.3989501 13.4177506,29.3989501 13.3605478,29.3412073 C13.1317363,29.2834646 12.9029249,29.3989501 12.7885191,29.6299213 L12.0448819,31.1889764 C11.9304762,31.4199475 12.0448819,31.7086614 12.2736934,31.824147 C12.3308962,31.824147 12.3308962,31.824147 12.3880991,31.8818898 L17.5363568,33.2677165 L16.2778938,37.9448819 C16.2206909,38.2335958 16.3922995,38.4645669 16.621111,38.5800525 L18.279994,39.0419948 C18.5660083,39.0997375 18.7948198,38.984252 18.9092255,38.6955381 L20.1676885,34.0183727 L22.7990202,34.7112861 L21.5405572,39.3884514 C21.4833543,39.6771654 21.6549629,39.9081365 21.8837744,40.023622 L23.4854545,40.4855643 C23.7714688,40.5433071 24.0002803,40.4278215 24.114686,40.1391076 L25.373149,35.4619423 L27.5468578,36.0393701 C30.7502181,36.7900262 34.0107813,34.8267717 34.7544185,31.5931759 C35.2692443,29.5721785 34.8116214,27.4356955 33.6103613,25.8766404 Z M24.5723089,17.1574803 L28.5765093,18.2545932 C30.0637838,18.6010499 30.9790296,20.1023622 30.5786095,21.6036745 C30.2353924,23.1049869 28.7481179,24.0288714 27.2608435,23.6246719 C27.2036406,23.6246719 27.1464378,23.6246719 27.1464378,23.5669291 L23.1422373,22.4698163 L24.5723089,17.1574803 Z M26.4028005,31.7086614 L21.0829343,30.2650919 L22.5130059,24.8950131 L27.8328721,26.3385827 C29.3201465,26.6850394 30.2353924,28.1863517 29.8349723,29.687664 C29.4917551,31.1889764 28.0044807,32.1128609 26.5172063,31.7086614 C26.4600034,31.7086614 26.4600034,31.7086614 26.4028005,31.7086614 L26.4028005,31.7086614 Z"/>
  </g>
</svg>
