<svg xmlns="http://www.w3.org/2000/svg" width="48" height="48" viewBox="0 0 48 48">
  <path fill="#FCB03B" fill-rule="evenodd" d="M24,48 C10.745166,48 0,37.254834 0,24 C0,10.745166 10.745166,0 24,0 C37.254834,0 48,10.745166 48,24 C48,37.254834 37.254834,48 24,48 Z M24,46.1 C36.205493,46.1 46.1,36.205493 46.1,24 C46.1,11.794507 36.205493,1.9 24,1.9 C11.794507,1.9 1.9,11.794507 1.9,24 C1.9,36.205493 11.794507,46.1 24,46.1 Z M24,43.5 C13.2304474,43.5 4.5,34.7695526 4.5,24 C4.5,13.2304474 13.2304474,4.5 24,4.5 C34.7695526,4.5 43.5,13.2304474 43.5,24 C43.5,34.7695526 34.7695526,43.5 24,43.5 Z M30.6515748,20.9914328 C30.9328745,19.9518902 30.9328745,18.8219527 30.510925,17.8276077 C29.5263763,15.2965477 26.7602633,13.8954252 24.2754499,14.7993752 L23.5722008,15.0253627 L22.212586,11.4547602 C22.1188194,11.2739702 21.8844031,11.1383777 21.69687,11.2287727 L20.3841384,11.6807477 C20.149722,11.7711427 20.0559555,11.9519327 20.149722,12.1779202 L21.5093369,15.7485227 L19.4464729,16.4716827 L18.0868581,12.9010802 C17.9930915,12.7202902 17.7586752,12.6298952 17.5711421,12.7202902 L16.2584105,13.1722652 C16.0239941,13.2626602 15.9302276,13.4886477 16.0239941,13.6694377 L17.383609,17.2400402 L13.070348,18.7315577 C12.8359317,18.8219527 12.7421651,19.0027427 12.8359317,19.2287302 L13.3047644,20.4942602 C13.3985309,20.6750502 13.586064,20.7654452 13.7735971,20.7202477 C15.2738618,20.3134702 16.3990603,20.9914328 16.867893,22.1213703 L19.7746558,29.7597478 C20.149722,30.7992903 19.9153057,31.7936353 18.7432239,32.3360053 C18.5556908,32.4264003 18.4619242,32.5619928 18.5088075,32.7427828 L18.7432239,34.0987078 C18.7901071,34.3246953 18.9776402,34.4602878 19.2120566,34.4150903 C19.2589399,34.4150903 19.2589399,34.4150903 19.2589399,34.4150903 L23.3377845,32.9687703 L24.6973994,36.5393728 C24.7911659,36.7653603 25.0255823,36.8557553 25.2131153,36.7653603 L26.5258469,36.3133853 C26.7602633,36.2229903 26.8540298,35.9970028 26.7602633,35.8162128 L25.4006484,32.2456103 L27.4635124,31.5224503 L28.8231273,35.0930528 C28.9168938,35.3190403 29.1513102,35.4094353 29.3388432,35.3190403 L30.6515748,34.8670653 C30.8859912,34.7766703 30.9797577,34.5506828 30.8859912,34.3698928 L29.5732596,30.7540928 L31.3548239,30.1213278 C33.8865206,29.1721803 35.1054856,26.4151328 34.1209369,23.9744678 C33.5114544,22.5733453 32.2456061,21.3982103 30.6515748,20.9914328 Z M20.5247882,19.4547177 L23.7128507,18.3247802 C24.8849324,17.8728052 26.1507808,18.4151752 26.6196135,19.5451127 C27.0884462,20.6750502 26.5258469,21.8953828 25.3537652,22.3473578 C25.3068819,22.3473578 25.2599986,22.3925553 25.2131153,22.3925553 L22.0250529,23.5224928 L20.5247882,19.4547177 Z M28.4949444,27.9518478 L24.2754499,29.4433653 L22.728302,25.3755903 L26.9477964,23.8840728 C28.1198782,23.4772953 29.3857265,24.0648628 29.807676,25.1948003 C30.2765087,26.3247378 29.6670261,27.5450703 28.4949444,27.9518478 Z"/>
</svg>
