<svg xmlns="http://www.w3.org/2000/svg" width="48" height="48" viewBox="0 0 48 48">
  <g fill="none" fill-rule="evenodd">
    <circle cx="24" cy="24" r="24" fill="#000"/>
    <path fill="#FFF" d="M18.5669767,33.0988328 L22.0290152,36.4504879 L21.0553169,37.4235491 C21.0012225,37.477608 20.8930338,37.531667 20.8389395,37.477608 L12.8329753,35.3152499 C12.778881,35.3152499 12.6706923,35.261191 12.6706923,35.1530731 C11.9674657,32.4501254 11.2101447,29.8012367 10.5069182,27.152348 C10.5069182,27.0442301 10.5069182,26.9361122 10.6151069,26.8820532 L19.2161089,18.2866796 C19.2702032,18.2866796 19.2702032,18.2326207 19.3242976,18.1785617 L21.9749209,20.8274504 L21.8667322,20.9355684 C19.540675,23.3141623 17.1605235,25.6386973 14.780372,28.0172912 C14.6721833,28.0713502 14.6180889,28.233527 14.6721833,28.341645 C15.0508438,29.5850009 15.3754099,30.8824158 15.699976,32.1257717 C15.699976,32.2338896 15.8081647,32.2879485 15.862259,32.2879485 L18.4046936,32.9907149 C18.458788,33.0447739 18.5128823,33.0447739 18.5669767,33.0988328 Z M37.3377169,26.8279943 C37.5,26.9361122 37.5,27.152348 37.4459056,27.2604659 L35.3362259,35.1530731 C35.3362259,35.261191 35.2821316,35.3152499 35.1739428,35.3152499 L27.1679787,37.477608 C27.05979,37.531667 27.0056956,37.477608 26.9516013,37.4235491 L18.1342218,28.6119397 L20.7848451,25.963051 C20.7848451,26.01711 20.8389395,26.0711689 20.8930338,26.1252279 L28.0334883,33.2610097 C28.0875827,33.3150686 28.1957714,33.3691276 28.3039601,33.3150686 C29.6022246,32.936656 30.8463947,32.6123023 32.1446591,32.2879485 C32.2528478,32.2879485 32.3069422,32.2338896 32.3069422,32.1257717 L32.9560744,29.6390598 C32.9560744,29.5309419 33.0101688,29.476883 33.0642631,29.422824 C34.2002445,28.287586 35.3362259,27.2064069 36.418113,26.0711689 L36.4722073,25.963051 C36.7426791,26.2874047 37.0131508,26.5576995 37.3377169,26.8279943 Z M10.7773899,21.313981 C10.5069182,21.1518042 10.3987295,20.8274504 10.6151069,20.6112146 C11.3183334,18.0163849 12.02156,15.4756141 12.6706923,12.8807843 C12.6706923,12.7726664 12.7247866,12.6645485 12.8329753,12.6645485 C15.4295042,11.9617821 18.0801275,11.2590157 20.6766564,10.5562493 C20.8389395,10.4481314 21.0553169,10.5021904 21.1635056,10.6643672 L29.7104133,19.2056819 C29.7645076,19.2597408 29.818602,19.2597408 29.8726963,19.3137998 L27.1679787,22.0167474 L27.0056956,21.8545706 L19.9193355,14.7187887 C19.8652411,14.6647298 19.7570524,14.6106708 19.6488637,14.6647298 L15.862259,15.6918499 C15.7540703,15.7459088 15.6458816,15.7999678 15.6458816,15.9080857 C15.4295042,16.71897 15.2131268,17.5839133 14.9967494,18.3947976 C14.9967494,18.5029155 14.9426551,18.5569744 14.8885607,18.6110334 L11.5347109,22.0167474 L11.4806165,22.0167474 C11.2642391,21.8005116 11.0478617,21.5302168 10.7773899,21.313981 Z M29.3317528,14.8809656 L26.0860916,11.5833694 L25.9238086,11.4752515 C26.3024691,11.1508978 26.6270352,10.8265441 26.9516013,10.5021904 L27.1138843,10.5021904 L31.6037156,11.6374284 L35.1739428,12.6104896 C35.2821316,12.6645485 35.3362259,12.7186075 35.3362259,12.7726664 C36.0394525,15.4756141 36.7967734,18.1245028 37.5,20.8274504 C37.5,20.8815094 37.5,20.9355684 37.4459056,20.9896273 L28.6285262,29.8012367 L25.9779029,27.152348 C26.0319973,27.098289 26.0860916,27.098289 26.140186,27.0442301 L33.2265462,19.9625072 C33.3347349,19.9084482 33.3888292,19.8003303 33.3347349,19.6922124 L32.3069422,15.9080857 C32.2528478,15.7999678 32.1987535,15.6918499 32.0905648,15.6918499 C31.2791495,15.4756141 30.4136398,15.2593783 29.6022246,15.0431425 C29.4940358,14.9890835 29.3858471,14.9350245 29.3317528,14.8809656 Z"/>
    <path fill="#DADADA" d="M10.5050683,20.8183359 L14.5752098,18.92923 L11.5347109,22.0167474 L11.4806165,22.0167474 C11.3096991,21.8459419 11.1387818,21.6414064 10.9412035,21.4564278 L10.5038344,20.8262133 C10.5042166,20.8235845 10.5046279,20.8209586 10.5050683,20.8183359 L10.5050683,20.8183359 Z M16.51338,15.5152327 L21.2712509,10.7720421 L22.0636857,11.5639583 L27.1679787,22.0167474 L27.0056956,21.8545706 L19.9193355,14.7187887 C19.8652411,14.6647298 19.7570524,14.6106708 19.6488637,14.6647298 L16.51338,15.5152327 Z M26.9954328,10.5021904 L29.3317528,14.8809656 L26.0860916,11.5833694 L25.9238086,11.4752515 C26.3024691,11.1508978 26.6270352,10.8265441 26.9516013,10.5021904 L26.9954328,10.5021904 Z M32.4348798,16.3791264 L37.3846105,21.0508824 L37.0237624,21.4114943 L26.0414804,27.2158839 L26.0126823,27.1871046 L26.6497144,26.5350351 L33.2265462,19.9625072 C33.3347349,19.9084482 33.3888292,19.8003303 33.3347349,19.6922124 L32.4348798,16.3791264 L32.4348798,16.3791264 Z M37.4753198,27.1572603 L32.9560744,29.6390598 L34.8409211,27.6685106 C35.3750294,27.1405391 35.9027095,26.6119884 36.418113,26.0711689 L36.4722073,25.963051 C36.7426791,26.2874047 37.0131508,26.5576995 37.3377169,26.8279943 C37.4575364,26.9078216 37.4888888,27.0465883 37.4753198,27.1572603 L37.4753198,27.1572603 Z M32.1436225,32.2882075 L26.9659916,37.4378178 C26.9611699,37.4331114 26.9563856,37.4283303 26.9516013,37.4235491 L26.7832939,37.2553518 L21.7236595,26.95531 L28.0334883,33.2610097 C28.0875827,33.3150686 28.1957714,33.3691276 28.3039601,33.3150686 C29.601879,32.9367567 30.8457323,32.6124749 32.1436225,32.2882075 L32.1436225,32.2882075 Z M20.8297583,37.4751283 L18.5,33.0527315 C18.5229627,33.0637948 18.5449697,33.0768402 18.5669767,33.0988328 L22.0290152,36.4504879 L21.4325328,37.04658 L20.8556716,37.4901494 C20.8496703,37.4868774 20.8440623,37.4827276 20.8389395,37.477608 L20.8297583,37.4751283 Z M19.3316879,18.1859472 L15.0784515,27.629601 L15.0951857,27.7029849 C14.9902509,27.8076547 14.8853115,27.9124204 14.780372,28.0172912 C14.6721833,28.0713502 14.6180889,28.233527 14.6721833,28.341645 C14.9414942,29.2259447 15.1834424,30.1375894 15.4174888,31.0376825 L10.5690002,26.9138347 C10.5816269,26.9018706 10.5968217,26.8911898 10.6151069,26.8820532 L19.2161089,18.2866796 C19.2702032,18.2866796 19.2702032,18.2326207 19.3242976,18.1785617 L19.3316879,18.1859472 L19.3316879,18.1859472 Z"/>
    <path fill="#EEE" d="M12.8734213,35.3261741 L12.8329753,35.3152499 C12.778881,35.3152499 12.6706923,35.261191 12.6706923,35.1530731 C12.3393659,33.8795747 11.9960314,32.6180766 11.6520041,31.3629247 L10.5296038,26.9709863 C10.5386831,26.9498156 10.5513962,26.9304607 10.5691974,26.9136481 L15.4090964,31.0054158 C15.5070038,31.3817517 15.6034899,31.7561504 15.699976,32.1257717 C15.699976,32.1859762 15.7335223,32.2294185 15.7725949,32.2560987 L12.8734213,35.3261741 L12.8734213,35.3261741 Z M35.1924157,35.3146924 C35.186444,35.3150641 35.1802864,35.3152499 35.1739428,35.3152499 L27.2035786,37.4679927 L30.7485965,32.6433552 C31.2102771,32.523168 31.6739121,32.4055583 32.1446591,32.2879485 C32.2528478,32.2879485 32.3069422,32.2338896 32.3069422,32.1257717 L32.9560744,29.6390598 L35.1924157,35.3146924 L35.1924157,35.3146924 Z M13.5,12.4843169 C15.1709742,12.033526 16.8604007,11.582735 18.5397248,11.1319441 L21.0943244,10.5866015 C21.1203389,10.6086908 21.1437297,10.6347228 21.1635056,10.6643672 L21.2540004,10.7548028 L16.709362,15.4620724 L15.862259,15.6918499 C15.7540703,15.7459088 15.6458816,15.7999678 15.6458816,15.9080857 C15.5153874,16.3971189 15.3848932,16.905814 15.2543989,17.4104553 L13.5,12.9686787 L13.5,12.4843169 L13.5,12.4843169 Z M35.3174323,12.7174769 C35.3299614,12.7358734 35.3362259,12.7542699 35.3362259,12.7726664 C35.8305352,14.6726118 36.351572,16.5458471 36.8617619,18.4299222 L37.4573324,20.9772939 C37.4538205,20.981405 37.4500195,20.9855162 37.4459056,20.9896273 L37.3813886,21.0541022 L32.5306799,16.7318433 L32.3069422,15.9080857 C32.2528478,15.7999678 32.1987535,15.6918499 32.0905648,15.6918499 C31.7544047,15.6022659 31.4089602,15.5126819 31.0619241,15.4230978 L31,15.3679199 L35.3174323,12.7174769 L35.3174323,12.7174769 Z"/>
  </g>
</svg>
