<svg xmlns="http://www.w3.org/2000/svg" width="48" height="48" viewBox="0 0 48 48">
  <defs>
    <linearGradient id="btn-a" x1="50%" x2="50%" y1="0%" y2="100%">
      <stop offset="0%" stop-color="#387BF9"/>
      <stop offset="100%" stop-color="#5A4FDD"/>
    </linearGradient>
  </defs>
  <g fill="none" fill-rule="evenodd">
    <circle cx="24" cy="24" r="24" fill="url(#btn-a)"/>
    <path fill="#FFF" d="M10.5541165,25.6777557 C11.4314199,24.9234365 12.0588356,24.3046699 12.4363636,23.8214561 C12.7934509,23.3644052 13.1833941,22.6472648 13.6061932,21.6700351 C13.0018168,20.9693292 12.6363636,20.0567372 12.6363636,19.0587891 C12.6363636,16.8496501 14.4272246,15.0587891 16.6363636,15.0587891 C18.8455026,15.0587891 20.6363636,16.8496501 20.6363636,19.0587891 C20.6363636,19.7208471 20.4755185,20.3453378 20.1907734,20.8953159 C21.0358053,22.0768493 21.7529599,22.9948454 22.3422373,23.6493043 C23.1023213,24.4934631 23.9511173,25.2339777 24.8886253,25.8708481 C25.3381425,25.6959574 25.8270959,25.6 26.3384613,25.6 C26.9765914,25.6 27.5798205,25.7494288 28.1150662,26.0152039 C28.653671,25.6404112 29.1183459,25.2832892 29.5090909,24.9438379 C29.9998231,24.5175249 30.5360277,23.9782806 31.1177046,23.3261052 C30.6627001,22.5923574 30.4,21.7268572 30.4,20.8 C30.4,18.1490332 32.5490332,16 35.2,16 C37.8509668,16 40,18.1490332 40,20.8 C40,23.4509668 37.8509668,25.6 35.2,25.6 C34.3279755,25.6 33.5102628,25.3674631 32.8054885,24.9610155 C32.1585993,25.4389113 31.5870728,25.901233 31.0909091,26.3479809 C30.6893823,26.7095172 30.2614614,27.1290594 29.8071463,27.6066074 C30.1451275,28.1934585 30.3384613,28.8741515 30.3384613,29.6 C30.3384613,31.809139 28.5476003,33.6 26.3384613,33.6 C24.1293223,33.6 22.3384613,31.809139 22.3384613,29.6 C22.3384613,28.983034 22.4781426,28.3986923 22.7276064,27.8768736 C22.1483237,26.7431079 21.5057882,25.7700059 20.8,24.9575678 C20.2672485,24.3443134 19.478569,23.5694855 18.4339616,22.633084 C17.8935161,22.905421 17.2828504,23.0587891 16.6363636,23.0587891 C15.8525733,23.0587891 15.1214355,22.8333571 14.5042514,22.4437943 C13.6291151,23.1240535 13.0125465,23.6932933 12.6545455,24.1515137 C12.2875049,24.6213041 11.8936176,25.3197935 11.4728835,26.2469816 C11.8001787,26.6030853 12,27.0782073 12,27.6 C12,28.7045695 11.1045695,29.6 10,29.6 C8.8954305,29.6 8,28.7045695 8,27.6 C8,26.4954305 8.8954305,25.6 10,25.6 C10.1922469,25.6 10.3781585,25.6271247 10.5541165,25.6777557 Z M34.324,23.002 L34.324,20.386 L34.376,20.386 L36.232,23.166 C36.504,23.566 36.684,23.69 36.98,23.69 C37.384,23.69 37.6,23.434 37.6,22.954 L37.6,18.838 C37.6,18.406 37.368,18.15 36.98,18.15 C36.596,18.15 36.372,18.406 36.372,18.838 L36.372,21.422 L36.32,21.422 L34.48,18.678 C34.216,18.294 34.048,18.15 33.756,18.15 C33.32,18.15 33.1,18.414 33.1,18.926 L33.1,23.002 C33.1,23.43 33.328,23.69 33.716,23.69 C34.104,23.69 34.324,23.434 34.324,23.002 Z"/>
  </g>
</svg>
