<svg xmlns="http://www.w3.org/2000/svg" width="48" height="48" viewBox="0 0 48 48">
  <g fill="none" fill-rule="evenodd">
    <circle cx="24" cy="24" r="24" fill="#C9040D"/>
    <path fill="#FFF" fill-rule="nonzero" d="M15.5486012,13.1769231 L14,13.1769231 L14,12.3692308 L15.5486012,12.3692308 L22.5274537,12.3692308 L22.5274537,10 L24.4461307,10 L24.4461307,12.3692308 L26.3115112,12.3692308 L26.3115112,10 L28.2301883,10 L28.2301883,12.3852571 C31.0678614,12.5994642 33.2933639,14.9347417 33.2933639,17.8076923 L33.2933639,17.9692308 C33.2933639,19.9423625 32.2436186,21.6849356 30.6817065,22.6538282 C33.2400673,23.1923077 35.0521512,25.4538462 34.9988546,28.0384615 L34.9988546,29.8692308 C34.9988546,32.9384615 32.6005083,35.4153846 29.5626029,35.4153846 L28.2301883,35.4153846 L28.2301883,37.8384615 L26.3115112,37.8384615 L26.3115112,35.4153846 L24.4461307,35.4153846 L24.4461307,37.8384615 L22.5274537,37.8384615 L22.5274537,35.4153846 L21.1417424,35.4153846 L21.1417424,38 L15.5437775,38 L14,38 L14,37.1923077 L15.5437775,37.1923077 L15.5437775,35.3615385 L15.545601,35.3615385 L15.545601,22.5461538 L15.5486012,22.5461538 L15.5486012,13.1769231 Z M18.7433961,35.3615385 L18.7433961,23.4615385 L18.7325439,23.4615385 L18.7325439,13.5538462 L18.0002441,13.5538462 L18.0002441,23.5153846 L17.9972439,23.5153846 L17.9972439,35.3615385 L18.7433961,35.3615385 Z M21.1417424,16.2461538 L21.1417424,22.0615385 L25.3521727,22.0615385 C26.9510703,22.0615385 28.2301883,20.7692308 28.2301883,19.1538462 C28.2301883,17.5384615 26.9510703,16.2461538 25.3521727,16.2461538 L21.1417424,16.2461538 Z M27.3774429,30.4615385 C27.9104088,29.9230769 28.2301883,29.2230769 28.2301883,28.4692308 C28.2301883,26.8538462 26.9510703,25.5076923 25.3521727,25.5076923 L21.1417424,25.5076923 L21.1417424,31.3230769 L25.3521727,31.3230769 C26.0983249,31.3230769 26.8444771,31 27.3774429,30.4615385 Z"/>
  </g>
</svg>
