<svg xmlns="http://www.w3.org/2000/svg" width="48" height="48" viewBox="0 0 48 48">
  <g fill="none" fill-rule="evenodd">
    <circle cx="24" cy="24" r="24" fill="#00A9E0"/>
    <path fill="#FFF" d="M25.7443609,39.4455677 C25.7443609,38.5746501 25.7443609,37.7037325 25.7443609,36.8328149 C25.7443609,35.4720062 25.7443609,34.1111975 25.7443609,32.8048212 C25.7443609,32.6415241 25.7994987,32.5326594 25.9649123,32.4782271 C26.3508772,32.4237947 26.7368421,32.2060653 27.122807,31.9883359 C27.2330827,31.9339036 27.2882206,31.9339036 27.3984962,32.0427683 C28.9974937,33.6213064 30.5413534,35.1454121 32.1403509,36.7239502 C32.2506266,36.8328149 32.1954887,36.8872473 32.1403509,36.996112 C30.7067669,38.1936236 29.0526316,38.9556765 27.1779449,39.336703 C26.8471178,39.3911353 26.5162907,39.3911353 26.2406015,39.5 C26.075188,39.4455677 25.9097744,39.4455677 25.7443609,39.4455677 Z M23.8145363,39.4455677 C23.5388471,39.336703 23.2080201,39.336703 22.9323308,39.2822706 C21.112782,38.9012442 19.4586466,38.1391913 18.0250627,36.9416796 C17.914787,36.8328149 17.8596491,36.7783826 18.0250627,36.6695179 C19.5689223,35.1454121 21.112782,33.6213064 22.6566416,32.0972006 C22.8220551,31.9339036 22.877193,31.9339036 23.0426065,32.0427683 C23.3734336,32.2604977 23.7593985,32.4237947 24.0902256,32.4782271 C24.2556391,32.5326594 24.3107769,32.5870918 24.3107769,32.7503888 C24.3107769,34.9276827 24.3107769,37.0505443 24.3107769,39.2278383 C24.3107769,39.336703 24.3107769,39.3911353 24.3107769,39.5 C24.1453634,39.4455677 23.9799499,39.4455677 23.8145363,39.4455677 Z M36,27.9059098 C35.2280702,27.9059098 34.4561404,27.9059098 33.6842105,27.9059098 C32.1954887,27.9059098 30.6516291,27.9059098 29.1629073,27.9059098 C28.9974937,27.9059098 28.9423559,27.9059098 28.887218,27.6881804 C28.7769424,27.2527216 28.6115288,26.8716952 28.3909774,26.5451011 C28.3358396,26.4362364 28.3358396,26.381804 28.4461153,26.3273717 C29.9899749,24.8032659 31.5889724,23.2247278 33.1328321,21.7006221 C33.2431078,21.5917574 33.3533835,21.5917574 33.4636591,21.7006221 C34.6766917,23.1158631 35.4486216,24.7488336 35.8345865,26.5451011 C35.8897243,26.8716952 35.8897243,27.1982893 36,27.470451 C36,27.6337481 36,27.7970451 36,27.9059098 Z M36,29.8654743 C35.8897243,30.1376361 35.8897243,30.4642302 35.8345865,30.7908243 C35.4486216,32.5870918 34.6766917,34.1656299 33.518797,35.5808709 C33.4085213,35.6897356 33.3533835,35.744168 33.2431078,35.5808709 C31.6992481,34.0023328 30.1002506,32.4782271 28.5012531,30.899689 C28.3909774,30.7908243 28.3909774,30.7363919 28.4461153,30.6275272 C28.6666667,30.3009331 28.7769424,29.9199067 28.887218,29.5388802 C28.9423559,29.4300156 28.9974937,29.3755832 29.1077694,29.3755832 C31.4235589,29.3755832 33.6842105,29.3755832 36,29.3755832 C36,29.5388802 36,29.7021773 36,29.8654743 Z M14.0551378,4.5 C14.8270677,5.20762053 15.5989975,5.80637636 16.3157895,6.45956454 C17.7493734,7.71150855 19.1829574,8.96345257 20.6165414,10.2698289 C21.7744361,11.3040435 22.9323308,12.3382582 24.1453634,13.3724728 C24.2556391,13.4813375 24.2556391,13.5357698 24.2556391,13.6990669 C24.2556391,17.3460342 24.2556391,20.9930016 24.2556391,24.6399689 C24.2556391,24.8032659 24.2005013,24.8576983 24.0350877,24.9121306 C23.6491228,24.966563 23.3182957,25.12986 22.9874687,25.3475894 C22.877193,25.4020218 22.8220551,25.4020218 22.7117794,25.2931571 C22.160401,24.7488336 21.6641604,24.2589425 21.112782,23.714619 C18.7969925,21.4284603 16.481203,19.1423017 14.1654135,16.8561431 C14.0551378,16.7472784 14,16.692846 14,16.529549 C14,12.6104199 14,8.63685848 14,4.71772939 C14.0551378,4.6088647 14.0551378,4.55443235 14.0551378,4.5 Z M14.1102757,18.9245723 C15.047619,19.9043546 16.0401003,20.8297045 16.9774436,21.8094868 C18.5213033,23.3335925 20.0100251,24.8032659 21.5538847,26.3273717 C21.6641604,26.4362364 21.7192982,26.5451011 21.6090226,26.6539658 C21.3884712,26.9805599 21.2230576,27.3615863 21.112782,27.7970451 C21.112782,27.9059098 21.0576441,27.9603421 20.8922306,27.9603421 C18.6315789,27.9603421 16.4260652,27.9603421 14.1654135,27.9603421 C14,27.9603421 14,27.8514774 14,27.7426128 C14,25.7286159 14,23.6601866 14,21.6461897 C14,20.7752722 14,19.8499222 14,18.9790047 C14.1102757,18.9245723 14.1102757,18.9245723 14.1102757,18.9245723 Z M25.7994987,21.3195956 C25.7994987,20.2309487 25.7994987,19.1423017 25.7994987,18.0536547 C25.7994987,17.8903577 25.8546366,17.8359253 26.0200501,17.8359253 C27.9498747,17.9992224 29.7142857,18.6524106 31.2581454,19.6866252 C31.5338346,19.9043546 31.8646617,20.122084 32.1403509,20.3398134 C32.2506266,20.3942457 32.2506266,20.4486781 32.1403509,20.5575428 C30.5413534,22.1360809 28.9974937,23.6601866 27.3984962,25.2387247 C27.2882206,25.3475894 27.2330827,25.3475894 27.122807,25.2387247 C26.7919799,25.0209953 26.406015,24.8576983 25.9649123,24.7488336 C25.7994987,24.6944012 25.7443609,24.6399689 25.7443609,24.4766719 C25.7994987,23.4968896 25.7994987,22.4082426 25.7994987,21.3195956 Z M17.5839599,29.3755832 C18.6867168,29.3755832 19.7343358,29.3755832 20.8370927,29.3755832 C21.0025063,29.3755832 21.112782,29.3755832 21.1679198,29.5933126 C21.2230576,29.974339 21.443609,30.3553655 21.6641604,30.7363919 C21.7192982,30.8452566 21.7192982,30.899689 21.6641604,31.0085537 C20.0651629,32.5870918 18.4661654,34.1111975 16.9223058,35.6897356 C16.8120301,35.7986003 16.7568922,35.744168 16.7017544,35.6353033 C15.5438596,34.2744946 14.7719298,32.7503888 14.3859649,31.0085537 C14.2756892,30.5186625 14.2205514,30.0832037 14.1654135,29.5933126 C14.1654135,29.4300156 14.2205514,29.4300156 14.3308271,29.4300156 C15.3784461,29.4300156 16.481203,29.3755832 17.5839599,29.3755832 Z"/>
  </g>
</svg>
