<svg xmlns="http://www.w3.org/2000/svg" width="48" height="48" viewBox="0 0 48 48">
  <g fill="none" fill-rule="evenodd">
    <circle cx="24" cy="24" r="24" fill="#E9E9E9"/>
    <path fill="#49A5DF" d="M30.3636364,17.8181818 L30.3636364,23.5454545 L37.1818182,23.5454545 L37.1818182,16.8909091 C37.1818182,13.6181818 34.5636364,11 31.2363636,11 L24.5818182,11 L24.5818182,17.8181818 L30.3636364,17.8181818 Z"/>
    <path fill="#4C4D4D" fill-rule="nonzero" d="M17.9272727,17.8181818 L24.5818182,17.8181818 L24.5818182,11 L11,11 L11,24.4727273 L17.9272727,24.4727273 L17.9272727,17.8181818 Z M37.1818182,23.5454545 L30.3636364,23.5454545 L30.3636364,30.2 L23.7090909,30.2 L23.7090909,37.1818182 L37.1818182,37.1818182 L37.1818182,23.5454545 Z"/>
    <path fill="#3AB9B3" d="M17.9272727,30.2545455 L17.9272727,24.4727273 L11,24.4727273 L11,31.1272727 C11,34.4545455 13.7272727,37.1818182 17.0545455,37.1818182 L23.7090909,37.1818182 L23.7090909,30.2545455 L17.9272727,30.2545455 Z"/>
  </g>
</svg>
