<svg xmlns="http://www.w3.org/2000/svg" width="48" height="48" viewBox="0 0 48 48">
  <defs>
    <linearGradient id="chat-a" x1="50%" x2="50%" y1="0%" y2="100%">
      <stop offset="0%" stop-color="#0EC8FB"/>
      <stop offset="100%" stop-color="#006DFB"/>
    </linearGradient>
  </defs>
  <g fill="none" fill-rule="evenodd">
    <circle cx="24" cy="24" r="24" fill="url(#chat-a)"/>
    <path fill="#FFF" fill-rule="nonzero" d="M37.3636364,21.1090909 C37.3636364,27.9272727 30.9272727,33.4363636 23.0181818,33.4363636 C21.9818182,33.4363636 21,33.3818182 19.9636364,33.1636364 L17.8909091,34.5272727 C17.8363636,34.5272727 17.8363636,34.5818182 17.7818182,34.5818182 L15.9818182,35.7818182 C15.8727273,35.8363636 15.7090909,35.8909091 15.6,35.8909091 C15.4909091,35.8909091 15.3818182,35.8909091 15.2727273,35.8363636 C15.0545455,35.6727273 14.9454545,35.4545455 14.9454545,35.2363636 L14.9454545,31.2545455 C11.0181818,28.9636364 8.72727273,25.2 8.72727273,21.1090909 C8.72727273,14.2909091 15.1090909,8.78181818 23.0181818,8.78181818 C30.9272727,8.78181818 37.3636364,14.2909091 37.3636364,21.1090909 Z M23.0727273,32.1272727 C30.2181818,32.1272727 36.1090909,27.1636364 36.1090909,21.1090909 C36.1090909,15.0545455 30.2727273,10.0909091 23.1272727,10.0909091 C15.9818182,10.0909091 10.1454545,15.0545455 10.1454545,21.1090909 C10.1454545,24.8181818 12.3818182,28.2545455 16.0363636,30.3272727 C16.2545455,30.4363636 16.3636364,30.6545455 16.3636364,30.8727273 L16.3636364,33.9818182 L17.0727273,33.5454545 L17.1272727,33.4909091 L19.5272727,31.9090909 C19.6363636,31.8 19.8545455,31.7454545 20.0181818,31.8 C21,32.0181818 22.0363636,32.1272727 23.0727273,32.1272727 Z M37.8545455,24.7090909 C38.7818182,25.9090909 39.2727273,27.3818182 39.3272727,28.8545455 C39.2727273,31.4727273 37.8,33.8727273 35.5090909,35.1818182 L35.5090909,37.5272727 C35.5090909,37.7454545 35.4,37.9090909 35.2363636,38.0181818 C35.1272727,38.0727273 35.0727273,38.0727273 34.9636364,38.0727273 C34.8545455,38.0727273 34.7454545,38.0181818 34.6363636,37.9636364 L33.4909091,37.2545455 L33.4363636,37.2 L32.2363636,36.3818182 C29.5090909,36.9272727 26.7818182,36.2727273 24.5454545,34.6909091 L26.1272727,34.4181818 C27.9818182,35.4545455 30.1636364,35.7272727 32.2363636,35.2909091 C32.4,35.2909091 32.5636364,35.3454545 32.6727273,35.4 L34.1454545,36.3818182 L34.2,36.4363636 L34.3636364,36.5454545 L34.3636364,34.9090909 C34.3636364,34.6909091 34.4727273,34.5272727 34.5818182,34.4181818 C36.8181818,33.2181818 38.1272727,31.1454545 38.1272727,28.9090909 C38.1272727,27.9272727 37.9090909,27 37.4181818,26.1272727 L37.3636364,26.0181818 L37.8545455,24.7090909 Z M15.7090909,23.3454545 C14.7752276,23.3454545 14.0181818,22.5884088 14.0181818,21.6545455 C14.0181818,20.7206822 14.7752276,19.9636364 15.7090909,19.9636364 C16.6429542,19.9636364 17.4,20.7206822 17.4,21.6545455 C17.4,22.5884088 16.6429542,23.3454545 15.7090909,23.3454545 Z M23.0727273,23.3454545 C22.138864,23.3454545 21.3818182,22.5884088 21.3818182,21.6545455 C21.3818182,20.7206822 22.138864,19.9636364 23.0727273,19.9636364 C24.0065906,19.9636364 24.7636364,20.7206822 24.7636364,21.6545455 C24.7636364,22.5884088 24.0065906,23.3454545 23.0727273,23.3454545 Z M30.3818182,23.3454545 C29.4479549,23.3454545 28.6909091,22.5884088 28.6909091,21.6545455 C28.6909091,20.7206822 29.4479549,19.9636364 30.3818182,19.9636364 C31.3156815,19.9636364 32.0727273,20.7206822 32.0727273,21.6545455 C32.0727273,22.5884088 31.3156815,23.3454545 30.3818182,23.3454545 Z"/>
  </g>
</svg>
