<svg xmlns="http://www.w3.org/2000/svg" width="48" height="48" viewBox="0 0 48 48">
  <g fill="none" fill-rule="evenodd">
    <circle cx="24" cy="24" r="24" fill="#008DE4"/>
    <path fill="#FFF" d="M13.8898983,31.0011219 L23.8288848,31.0011219 C29.9090873,31.0011219 31.2298117,27.7194084 31.7372104,25.6231649 C32.2446092,23.5269214 32.196655,23.8069476 32.3058661,23.1755298 C32.4150771,22.5441121 32.4552609,21.5007453 32.4552609,21.2397879 C32.4552609,19.3261226 31.6775627,17.0017182 25.8550254,17.0017182 L16.3908428,17.0017182 L17.2883794,12 L28.0582924,12 C36.0027356,12 38.5,15.6938652 38.5,20.1649836 C38.5,22.346322 38.0474213,25.3420093 37.5436344,26.7146106 C37.0398474,28.0872119 35.0117543,36.1466297 24.5954363,35.9979695 L12.8941897,35.9979695 L13.8898983,31.0011219 Z M11.991959,21.5413614 L23.733191,21.5413614 L23.0928184,24.2275129 C22.7814578,25.5335682 21.6006522,26.4566081 20.241232,26.4566081 L8.5,26.4566081 L9.14037256,23.7704566 C9.45173325,22.4644013 10.6325389,21.5413614 11.991959,21.5413614 Z"/>
  </g>
</svg>
