<svg xmlns="http://www.w3.org/2000/svg" width="48" height="48" viewBox="0 0 48 48">
  <g fill="none" fill-rule="evenodd">
    <path fill="#F5F5F5" d="M48,24 C48,37.2545455 37.2545455,48 24,48 C10.7454545,48 0,37.2545455 0,24 C0,10.7454545 10.7454545,0 24,0 C37.2545455,0 48,10.7454545 48,24"/>
    <path fill="#FFC50E" d="M32.0181818,12.6 C33.9272727,12.7090909 35.7818182,13.4727273 37.2,14.7272727 C38.6181818,15.9818182 39.6,17.6727273 40.0363636,19.4727273 C39.2727273,15.2727273 35.8909091,10.9636364 30.8181818,8.45454545 C23.4,4.90909091 15.2727273,6.49090909 12.6,12 C12.0545455,13.1454545 11.7818182,14.4 11.7818182,15.6545455 C14.5636364,13.4727273 18.6545455,11.9454545 23.2909091,11.6181818 C26.1818182,11.3454545 29.1818182,11.7272727 32.0181818,12.6 L32.0181818,12.6 Z"/>
    <path fill="#16A2EE" d="M11.7272727,15.6 C9.05454545,17.6727273 7.47272727,20.3454545 7.69090909,23.1818182 C7.90909091,26.0181818 9.81818182,28.4727273 12.7636364,30.1636364 C13.0363636,27.8727273 13.7454545,25.6363636 14.8363636,23.6181818 C12.8181818,21.1090909 11.6727273,18.2727273 11.7272727,15.6 L11.7272727,15.6 Z"/>
    <path fill="#FFA22B" d="M17.7272727,19.3636364 C21.8727273,14.6181818 27.3818182,12.1636364 31.9636364,12.6 C29.1272727,11.6727273 26.1272727,11.3454545 23.1818182,11.5636364 C18.5454545,11.8909091 14.5090909,13.4181818 11.6727273,15.6 C11.6181818,18.2727273 12.7636364,21.1090909 14.7818182,23.6181818 C15.6,22.0909091 16.6363636,20.6727273 17.7272727,19.3636364 Z"/>
    <path fill="#F50" d="M17.7272727,19.3636364 C21.8727273,14.6181818 27.3818182,12.1636364 31.9636364,12.6 C29.1272727,11.6727273 26.1272727,11.3454545 23.1818182,11.5636364 C18.5454545,11.8909091 14.5090909,13.4181818 11.6727273,15.6 C11.6181818,18.2727273 12.7636364,21.1090909 14.7818182,23.6181818 C15.6,22.0909091 16.6363636,20.6727273 17.7272727,19.3636364 Z"/>
    <path fill="#E33398" d="M39.9818182,19.4727273 C40.0363636,19.8545455 40.0909091,20.2363636 40.0909091,20.6181818 C40.0909091,20.7272727 40.0909091,20.8363636 40.1454545,20.9454545 C40.2,22.1454545 39.9818182,23.4 39.4363636,24.4909091 C39.3818182,24.6545455 39.3272727,24.8181818 39.2727273,24.9818182 C38.6181818,26.3454545 37.6363636,27.4909091 36.3818182,28.3090909 C33.5454545,30.6 29.4,32.2363636 24.6545455,32.5636364 C20.0727273,32.8909091 15.8727273,31.9636364 12.7636364,30.1636364 C12.3818182,33.8181818 13.3636364,37.1454545 15.8181818,39.2727273 C20.6727273,43.5272727 29.4,41.4 35.2909091,34.6363636 C39.4363636,29.8363636 41.1272727,24 39.9818182,19.4727273 Z"/>
    <path fill="#FFA22B" d="M36.3818182,28.3090909 C37.6363636,27.4909091 38.6181818,26.2909091 39.2727273,24.9818182 C39.3272727,24.8181818 39.3818182,24.6545455 39.4363636,24.4909091 C38.7272727,25.9636364 37.6909091,27.2727273 36.3818182,28.3090909 L36.3818182,28.3090909 Z"/>
    <path fill="#FFA22B" fill-rule="nonzero" d="M36.3818182,28.3090909 C37.6363636,27.4909091 38.6181818,26.2909091 39.2727273,24.9818182 C39.3272727,24.8181818 39.3818182,24.6545455 39.4363636,24.4909091 C38.7272727,25.9636364 37.6909091,27.2727273 36.3818182,28.3090909 L36.3818182,28.3090909 Z M32.0181818,12.6 C36.5454545,14.1272727 39.7090909,17.0181818 40.1454545,20.6181818 C40.1454545,20.2363636 40.0909091,19.8545455 40.0363636,19.4727273 C39.6545455,17.6181818 38.6727273,15.9818182 37.2,14.7272727 C35.7272727,13.4727273 33.9272727,12.7090909 32.0181818,12.6 L32.0181818,12.6 Z"/>
    <path fill="#FFA22B" d="M32.0181818 12.6C36.5454545 14.1272727 39.7090909 17.0181818 40.1454545 20.6181818 40.1454545 20.2363636 40.0909091 19.8545455 40.0363636 19.4727273 39.6545455 17.6181818 38.6727273 15.9818182 37.2 14.7272727 35.7272727 13.4727273 33.9272727 12.7090909 32.0181818 12.6L32.0181818 12.6zM39.4909091 24.4909091C40.0363636 23.4 40.2545455 22.1454545 40.2 20.9454545 40.2 20.8363636 40.2 20.7272727 40.1454545 20.6181818 40.2 21.9272727 39.9818182 23.2363636 39.4909091 24.4909091z"/>
    <path fill="#FFA22B" fill-rule="nonzero" d="M39.4909091,24.4909091 C40.0363636,23.4 40.2545455,22.1454545 40.2,20.9454545 C40.2,20.8363636 40.2,20.7272727 40.1454545,20.6181818 C40.2,21.9272727 39.9818182,23.2363636 39.4909091,24.4909091 Z M24.6545455,32.5636364 C29.4,32.2363636 33.5454545,30.6 36.3818182,28.3090909 C32.6181818,30.9272727 26.6181818,31.1454545 21.0545455,28.4727273 C18.6545455,27.3272727 16.5272727,25.6909091 14.8363636,23.6181818 C13.7454545,25.6363636 13.0363636,27.8727273 12.7636364,30.1636364 C15.8727273,31.9636364 20.0727273,32.8909091 24.6545455,32.5636364 L24.6545455,32.5636364 Z"/>
    <path fill="#5E0463" d="M24.6545455,32.5636364 C29.4,32.2363636 33.5454545,30.6 36.3818182,28.3090909 C32.6181818,30.9272727 26.6181818,31.1454545 21.0545455,28.4727273 C18.6545455,27.3272727 16.5272727,25.6909091 14.8363636,23.6181818 C13.7454545,25.6363636 13.0363636,27.8727273 12.7636364,30.1636364 C15.8727273,31.9636364 20.0727273,32.8909091 24.6545455,32.5636364 L24.6545455,32.5636364 Z"/>
    <path fill="#FFA22B" d="M32.0181818,12.6 C27.3818182,12.1636364 21.9272727,14.6181818 17.7818182,19.3636364 C16.6363636,20.6727273 15.6545455,22.0909091 14.8909091,23.6181818 C16.5818182,25.6363636 18.7090909,27.3272727 21.1090909,28.4727273 C26.6727273,31.1454545 32.6727273,30.9272727 36.3818182,28.3090909 C37.6909091,27.2727273 38.7272727,25.9636364 39.4909091,24.4909091 C39.9818182,23.2909091 40.2,21.9272727 40.1454545,20.6181818 C39.7090909,17.0181818 36.5454545,14.1272727 32.0181818,12.6 L32.0181818,12.6 Z"/>
    <path fill="#FFA22B" d="M32.0181818,12.6 C27.3818182,12.1636364 21.9272727,14.6181818 17.7818182,19.3636364 C16.6363636,20.6727273 15.6545455,22.0909091 14.8909091,23.6181818 C16.5818182,25.6363636 18.7090909,27.3272727 21.1090909,28.4727273 C26.6727273,31.1454545 32.6727273,30.9272727 36.3818182,28.3090909 C37.6909091,27.2727273 38.7272727,25.9636364 39.4909091,24.4909091 C39.9818182,23.2909091 40.2,21.9272727 40.1454545,20.6181818 C39.7090909,17.0181818 36.5454545,14.1272727 32.0181818,12.6 L32.0181818,12.6 Z"/>
    <path fill="#8E1E90" d="M32.0181818,12.6 C27.3818182,12.1636364 21.9272727,14.6181818 17.7818182,19.3636364 C16.6363636,20.6727273 15.6545455,22.0909091 14.8909091,23.6181818 C16.5818182,25.6363636 18.7090909,27.3272727 21.1090909,28.4727273 C26.6727273,31.1454545 32.6727273,30.9272727 36.3818182,28.3090909 C37.6909091,27.2727273 38.7272727,25.9636364 39.4909091,24.4909091 C39.9818182,23.2909091 40.2,21.9272727 40.1454545,20.6181818 C39.7090909,17.0181818 36.5454545,14.1272727 32.0181818,12.6 L32.0181818,12.6 Z"/>
    <path fill="#FFF" fill-rule="nonzero" d="M37.9090909,16.2545455 C37.9090909,16.2545455 37.9090909,16.1454545 37.8545455,16.1454545 C37.4181818,14.9454545 36.7636364,13.9090909 35.8909091,13.0363636 C35.0181818,12.1636364 33.9272727,11.5090909 32.7272727,11.1818182 C31.4181818,10.8545455 30.0545455,10.7454545 28.6909091,10.8 L26.3454545,10.8 L21,14.5090909 L21,28.3636364 C21,28.3636364 21.0545455,28.3636364 21.1090909,28.4181818 C26.4545455,31.0363636 32.1818182,30.8727273 35.9454545,28.5272727 C36.8727273,27.6 37.5272727,26.4545455 37.9636364,25.2 C38.4545455,23.8363636 38.6727273,22.3636364 38.6181818,20.9454545 C38.6727273,19.3090909 38.4545455,17.7272727 37.9090909,16.2545455 L37.9090909,16.2545455 Z M32.6727273,23.4545455 C32.5636364,24 32.2909091,24.4363636 31.8545455,24.8181818 C31.4727273,25.1454545 31.0909091,25.3090909 30.6,25.4181818 C30,25.5272727 29.3454545,25.5818182 28.7454545,25.5818182 L26.4545455,25.5818182 L26.4545455,15.9818182 L27.8181818,15.9818182 C28.6363636,15.9818182 29.5090909,15.9818182 30.3272727,16.1454545 C30.8727273,16.2545455 31.3090909,16.4727273 31.7454545,16.8 C32.1272727,17.1818182 32.4545455,17.6727273 32.6181818,18.2181818 C32.8363636,19.0363636 32.9454545,19.9090909 32.8909091,20.7818182 C33,21.7090909 32.8909091,22.5818182 32.6727273,23.4545455 Z"/>
  </g>
</svg>
