<svg xmlns="http://www.w3.org/2000/svg" width="48" height="48" viewBox="0 0 48 48">
  <g fill="none" fill-rule="evenodd">
    <path fill="#224858" d="M48,24 C48,37.2545455 37.2545455,48 24,48 C10.7454545,48 0,37.2545455 0,24 C0,10.7454545 10.7454545,0 24,0 C37.2545455,0 48,10.7454545 48,24"/>
    <path fill="#FFF" fill-rule="nonzero" d="M24.8133831,6.82122153 L28.749482,10.7573205 C28.9913743,10.9992128 28.9913743,11.3913977 28.749482,11.63329 L24.4301465,15.9526256 C24.1882542,16.1945179 23.7960693,16.1945179 23.554177,15.9526256 L19.2348414,11.63329 C18.9929491,11.3913977 18.9929491,10.9992128 19.2348414,10.7573205 L23.1709403,6.82122153 C23.6244883,6.36767349 24.359835,6.36767349 24.8133831,6.82122153 Z M24.4301464,32.0380546 L28.749482,36.3573902 C28.9913743,36.5992825 28.9913743,36.9914674 28.749482,37.2333597 L24.8133831,41.1694586 C24.359835,41.6230067 23.6244883,41.6230067 23.1709403,41.1694586 L19.2348413,37.2333597 C18.9929491,36.9914674 18.992949,36.5992825 19.2348413,36.3573902 L23.5541769,32.0380546 C23.7960692,31.7961623 24.1882541,31.7961624 24.4301464,32.0380546 Z M28.7494821,23.5212988 C28.9913744,23.7631912 28.9913744,24.1553761 28.7494821,24.3972683 L24.4301465,28.716604 C24.1882542,28.9584962 23.7960693,28.9584962 23.5541771,28.716604 L19.2348414,24.3972683 C18.9929492,24.1553761 18.9929492,23.7631912 19.2348414,23.5212988 L23.5541771,19.2019633 C23.7960693,18.960071 24.1882542,18.960071 24.4301465,19.2019633 L28.7494821,23.5212988 Z"/>
    <path fill="#FFF" fill-opacity=".5" fill-rule="nonzero" d="M18.0317182,12.8364129 L22.3510538,17.1557485 C22.5929461,17.3976408 22.592946,17.7898257 22.3510538,18.0317179 L11.6332899,28.7494819 C11.3913976,28.9913742 10.9992127,28.9913742 10.7573204,28.7494819 L6.82122147,24.813383 C6.3676734,24.3598349 6.36767338,23.6244882 6.82122143,23.1709402 L17.1557487,12.8364129 C17.397641,12.5945206 17.7898259,12.5945206 18.0317182,12.8364129 Z M37.2270033,19.2348412 L41.1631022,23.1709401 C41.6166503,23.6244882 41.6166503,24.3598348 41.1631022,24.8133829 L30.828575,35.1479101 C30.5866827,35.3898024 30.1944978,35.3898024 29.9526055,35.1479101 L25.6332699,30.8285746 C25.3913776,30.5866823 25.3913776,30.1944974 25.6332699,29.9526051 L36.3510338,19.2348412 C36.5929261,18.9929489 36.985111,18.9929489 37.2270033,19.2348412 Z M30.8285749,12.8364129 L35.1479105,17.1557486 C35.3898028,17.3976408 35.3898028,17.7898258 35.1479105,18.031718 L30.8285749,22.3510537 C30.5866827,22.5929459 30.1944977,22.5929459 29.9526054,22.3510537 L25.6332698,18.031718 C25.3913776,17.7898258 25.3913776,17.3976408 25.6332698,17.1557486 L29.9526054,12.8364129 C30.1944977,12.5945207 30.5866827,12.5945207 30.8285749,12.8364129 Z M18.0317183,25.6332694 L22.3510539,29.952605 C22.5929461,30.1944972 22.5929461,30.5866822 22.3510539,30.8285745 L18.0317183,35.1479101 C17.789826,35.3898024 17.397641,35.3898023 17.1557488,35.1479101 L12.8364132,30.8285745 C12.5945209,30.5866822 12.5945209,30.1944973 12.8364132,29.952605 L17.1557488,25.6332694 C17.397641,25.3913771 17.789826,25.3913771 18.0317183,25.6332694 Z"/>
  </g>
</svg>
