<svg xmlns="http://www.w3.org/2000/svg" width="48" height="48" viewBox="0 0 48 48">
  <defs>
    <linearGradient id="ent-a" x1="50%" x2="50%" y1="0%" y2="100%">
      <stop offset="0%" stop-color="#B545B3"/>
      <stop offset="100%" stop-color="#884FB5"/>
    </linearGradient>
  </defs>
  <g fill="none" fill-rule="evenodd">
    <circle cx="24" cy="24" r="24" fill="url(#ent-a)"/>
    <path fill="#FFF" d="M20,8 L31.2,8 C31.6418278,8 32,8.3581722 32,8.8 C32,9.2418278 31.6418278,9.6 31.2,9.6 L20,9.6 C19.5581722,9.6 19.2,9.2418278 19.2,8.8 C19.2,8.3581722 19.5581722,8 20,8 Z M20,22.4 L32.8,22.4 C33.2418278,22.4 33.6,22.7581722 33.6,23.2 C33.6,23.6418278 33.2418278,24 32.8,24 L20,24 C19.5581722,24 19.2,23.6418278 19.2,23.2 C19.2,22.7581722 19.5581722,22.4 20,22.4 Z M21.6,36.8 L32.8,36.8 C33.2418278,36.8 33.6,37.1581722 33.6,37.6 C33.6,38.0418278 33.2418278,38.4 32.8,38.4 L21.6,38.4 C21.1581722,38.4 20.8,38.0418278 20.8,37.6 C20.8,37.1581722 21.1581722,36.8 21.6,36.8 Z M21.6,11.2 L32.8,11.2 C33.2418278,11.2 33.6,11.5581722 33.6,12 C33.6,12.4418278 33.2418278,12.8 32.8,12.8 L21.6,12.8 C21.1581722,12.8 20.8,12.4418278 20.8,12 C20.8,11.5581722 21.1581722,11.2 21.6,11.2 Z M21.6,25.6 L32.8,25.6 C33.2418278,25.6 33.6,25.9581722 33.6,26.4 C33.6,26.8418278 33.2418278,27.2 32.8,27.2 L21.6,27.2 C21.1581722,27.2 20.8,26.8418278 20.8,26.4 C20.8,25.9581722 21.1581722,25.6 21.6,25.6 Z M20,40 L32.8,40 C33.2418278,40 33.6,40.3581722 33.6,40.8 C33.6,41.2418278 33.2418278,41.6 32.8,41.6 L20,41.6 C19.5581722,41.6 19.2,41.2418278 19.2,40.8 C19.2,40.3581722 19.5581722,40 20,40 Z M15.2,14.4 L28,14.4 C28.4418278,14.4 28.8,14.7581722 28.8,15.2 C28.8,15.6418278 28.4418278,16 28,16 L15.2,16 C14.7581722,16 14.4,15.6418278 14.4,15.2 C14.4,14.7581722 14.7581722,14.4 15.2,14.4 Z M15.2,28.8 L28,28.8 C28.4418278,28.8 28.8,29.1581722 28.8,29.6 C28.8,30.0418278 28.4418278,30.4 28,30.4 L15.2,30.4 C14.7581722,30.4 14.4,30.0418278 14.4,29.6 C14.4,29.1581722 14.7581722,28.8 15.2,28.8 Z M15.2,17.6 L28,17.6 C28.4418278,17.6 28.8,17.9581722 28.8,18.4 C28.8,18.8418278 28.4418278,19.2 28,19.2 L15.2,19.2 C14.7581722,19.2 14.4,18.8418278 14.4,18.4 C14.4,17.9581722 14.7581722,17.6 15.2,17.6 Z M15.2,32 L28,32 C28.4418278,32 28.8,32.3581722 28.8,32.8 C28.8,33.2418278 28.4418278,33.6 28,33.6 L15.2,33.6 C14.7581722,33.6 14.4,33.2418278 14.4,32.8 C14.4,32.3581722 14.7581722,32 15.2,32 Z"/>
  </g>
</svg>
