<svg xmlns="http://www.w3.org/2000/svg" width="48" height="48" viewBox="0 0 48 48">
  <g fill="none" fill-rule="evenodd">
    <circle cx="24" cy="24" r="24" fill="#414141"/>
    <path fill="#FFF" d="M22.6984433,26.7857253 L23.4026374,29.9504355 L19.0975162,34.6946356 L19.6272082,28.5154285 L22.6984433,26.7857253 Z M19.0975162,28.8629756 L18.6157208,34.9133355 L14.6459447,32.8646027 L19.0975162,28.8629756 Z M18.6925943,28.5363028 L13.9984294,32.788524 L10.6474439,32.040016 L12.4277127,28.7604699 L18.6925943,28.5363028 Z M21.2377133,25.1925311 L19.4895412,28.0468661 L13.0990291,28.2387352 L17.8339399,24.2996378 L21.2377133,25.1925311 Z M17.2226355,24.1151289 L12.6434636,27.9198478 L11.2453215,23.7969701 L17.2226355,24.1151289 Z M17.167305,23.5978133 L10.8412548,23.2853119 L9.00102524,20.3865322 L12.5153913,19.3611245 L17.167305,23.5978133 Z M21.2325922,22.8418267 L17.9357803,23.5916516 L13.3236818,19.2408995 L19.543819,19.8770585 L21.2325922,22.8418267 Z M19.1553418,19.2408995 L13.2270358,18.6932786 L15.1537148,14.7893281 L19.1553418,19.2408995 Z M19.4820146,18.8359776 L15.2297935,14.1418127 L15.9783014,10.7908272 L19.2264066,12.5389284 L19.4820146,18.8359776 Z M22.7541149,21.2314695 L20.0183865,19.4916219 L19.7079108,13.0927854 L23.6563796,17.9409189 L22.7541149,21.2314695 Z M23.8315171,17.2163917 L20.0267982,12.6372199 L24.1496759,11.2390777 L23.8315171,17.2163917 Z M24.3488327,17.1610613 L24.6613341,10.835011 L27.5601138,8.99478149 L28.4874107,12.4618816 L24.3488327,17.1610613 Z M25.1316745,20.9748288 L24.4274804,17.8101186 L28.7326016,13.0659185 L28.2345683,19.2319853 L25.1316745,20.9748288 Z M28.7326016,18.8975785 L29.2802225,12.9692724 L33.1841731,14.8959514 L28.7326016,18.8975785 Z M29.1375235,19.2242513 L33.8316884,14.9720301 L37.1826739,15.7205381 L35.3685931,19.2242513 L29.1375235,19.2242513 Z M26.7622867,22.6229505 L28.4950382,19.5627859 L34.9009709,19.5767464 L30.0528373,23.5252152 L26.7622867,22.6229505 Z M30.7773645,23.7003527 L35.3565364,19.8956338 L36.7546785,24.0185115 L30.7773645,23.7003527 Z M30.832695,24.2176683 L37.1587452,24.5301697 L38.9989748,27.4289494 L35.4954614,28.7757534 L30.832695,24.2176683 Z M26.7524031,25.1509276 L30.0476601,24.2635183 L34.6613135,28.7518548 L28.4411763,28.1156958 L26.7524031,25.1509276 Z M28.8296535,28.7518548 L34.7579595,29.2994757 L32.8312805,33.2034263 L28.8296535,28.7518548 Z M28.5029806,29.1567767 L32.7552018,33.8509416 L32.0066938,37.2019271 L28.5029806,35.4590946 L28.5029806,29.1567767 Z M24.8607982,26.768622 L27.9209302,28.5163456 L27.9070023,34.9073062 L23.9585335,30.0591727 L24.8607982,26.768622 Z M23.783396,30.7836999 L27.5881149,35.3628717 L23.4652372,36.7610138 L23.783396,30.7836999 Z M23.2660804,30.8390303 L22.953579,37.1650806 L20.0547993,39.0053101 L19.1033282,35.5257518 L23.2660804,30.8390303 Z"/>
  </g>
</svg>
