<svg xmlns="http://www.w3.org/2000/svg" width="48" height="48" viewBox="0 0 48 48">
  <defs>
    <linearGradient id="epc-a" x1="50%" x2="50%" y1="0%" y2="100%">
      <stop offset="0%" stop-color="#3B59FF"/>
      <stop offset="100%" stop-color="#45C9FF"/>
    </linearGradient>
  </defs>
  <g fill="none" fill-rule="evenodd">
    <circle cx="24" cy="24" r="24" fill="url(#epc-a)"/>
    <path fill="#FFF" d="M25.3090909,24.5454545 L28.1454545,27.3818182 L24,31.5272727 L11.7818182,19.3090909 L24,7.09090909 L36.2181818,19.3090909 L32.0727273,23.4545455 L29.2909091,20.6181818 L30.6,19.3090909 L24,12.7090909 L17.4,19.3090909 L24,25.9090909 L25.3090909,24.5454545 Z M22.6909091,23.4545455 L19.8545455,20.6181818 L24,16.4727273 L36.2181818,28.6909091 L24,40.9090909 L11.7818182,28.6909091 L15.9272727,24.5454545 L18.7090909,27.3818182 L17.4,28.6909091 L24,35.2909091 L30.6,28.6909091 L24,22.0909091 L22.6909091,23.4545455 Z"/>
  </g>
</svg>
