<svg xmlns="http://www.w3.org/2000/svg" width="48" height="48" viewBox="0 0 48 48">
  <g fill="none" fill-rule="evenodd">
    <circle cx="24" cy="24" r="24" fill="#00C351"/>
    <path fill="#FFF" d="M23.5909091,32.6636364 L23.5909091,41.0090909 L13.5,25.1909091 L23.5909091,32.6636364 Z M23.5909091,16.8909722 L23.5909091,30.9181818 L13.5,23.7890679 L23.5909091,16.8909722 Z M23.5909091,14.8454545 L13.5545455,22.3181818 L23.5909091,6.5 L23.5909091,14.8454545 Z"/>
    <path fill="#E8E7E7" d="M23.5909091,30.9181818 L13.5,23.7890679 L23.5909091,25.1909091 L23.5909091,16.8909722 L33.6818182,23.7890679 L23.5909091,30.9181818 Z M23.5909091,32.6636364 L33.6818182,25.1909091 L23.5909091,41.0090909 L23.5909091,32.6636364 Z M23.5909091,14.8454545 L23.5909091,6.5 L33.6272727,22.3181818 L23.5909091,14.8454545 Z"/>
    <polygon fill="#D1CDCD" points="23.591 23.789 33.682 25.191 33.682 30.918" transform="matrix(-1 0 0 1 57.273 0)"/>
  </g>
</svg>
