<svg xmlns="http://www.w3.org/2000/svg" width="48" height="48" viewBox="0 0 48 48">
  <g fill="none" fill-rule="evenodd">
    <circle cx="24" cy="24" r="24" fill="#008AFF"/>
    <path fill="#FFF" fill-rule="nonzero" d="M16.9722717,18.2036291 L23.9310818,6 L30.8341019,18.159273 L37,24.1109244 L30.5246336,30.3720795 L23.9086889,42 L17.0760713,29.9912639 L11,23.9982956 L16.9722717,18.2036291 Z M15.9408144,20.0124905 L11.8293316,24.0017047 L16.0198728,28.1349315 L13.6671283,23.9998418 L15.9408144,20.0124905 Z M31.5449849,28.5787508 L36.1652953,24.1112847 L31.8465009,19.9425556 L34.1500692,24.0001586 L31.5449849,28.5787508 Z M30.0624243,30.0122669 L33.4833174,23.9998417 L30.3718167,18.5191122 L23.9092098,12.2810617 L17.4345323,18.5631932 L14.3342407,24.0001585 L17.5397337,29.6340052 L23.932536,35.9393726 L30.0624243,30.0122669 Z M29.042073,31.8055955 L23.9285181,36.7499892 L18.5959322,31.4903375 L23.9086889,40.8278267 L29.042073,31.8055955 Z M18.4659896,16.7543319 L23.908168,11.4739946 L29.3594177,16.7358296 L23.9299723,7.1721738 L18.4659896,16.7543319 Z M24.0111786,20.0000001 L27.9086889,23.9391971 L23.9189379,28.0000001 L19.9086889,23.9391971 L24.0111786,20.0000001 Z"/>
  </g>
</svg>
