<svg xmlns="http://www.w3.org/2000/svg" width="48" height="48" viewBox="0 0 48 48">
  <g fill="none" fill-rule="evenodd">
    <circle cx="24" cy="24" r="24" fill="#EB0064"/>
    <path fill="#FFF" fill-rule="nonzero" d="M15.4238018,21 L23,21 L23,27 L14.9504132,27 L14.9504132,35.7769671 C11.3372071,33.0630256 9,28.742158 9,23.8755367 C9,15.6601477 15.6603699,9 23.8760331,9 C25.9917032,9 28.0042344,9.44166658 29.8264463,10.2378224 L29.8264463,17.2229805 C28.2473153,15.8096366 26.1620075,14.9502147 23.8760331,14.9502147 C19.9527881,14.9502147 16.620592,17.4815782 15.4238018,21 Z M24.9357729,27.0985696 L24.9357729,20.9510482 L32.553719,20.9510482 L32.553719,11.4788029 L32.9505581,11.7768756 C36.7307466,14.6162403 39,19.0581071 39,23.8765377 C39,32.2288522 32.2286263,39 23.8760331,39 C21.7668047,39 19.7177712,38.5678321 17.8263516,37.7414383 L17.677686,37.6764837 L17.677686,29.9744606 L18.0909723,30.3443576 C19.6711901,31.7586743 21.7114529,32.5539341 23.8760331,32.5539341 C27.4634589,32.5539341 30.6334268,30.3568016 31.9359202,27.0985696 L24.9357729,27.0985696 Z M32.644646,26.6027184 L32.5278572,26.9332404 C31.2431064,30.5691916 27.7952785,33.0497853 23.8760331,33.0497853 C21.7726693,33.0497853 19.7792996,32.3388995 18.1735537,31.0625411 L18.1735537,37.3510387 C19.9611561,38.1085193 21.8906205,38.5041488 23.8760331,38.5041488 C31.9547661,38.5041488 38.5041322,31.9550012 38.5041322,23.8765377 C38.5041322,19.3868642 36.4677383,15.2359569 33.0495868,12.4820867 L33.0495868,21.4468994 L25.4316406,21.4468994 L25.4316406,26.6027184 L32.644646,26.6027184 Z" transform="rotate(-30 24 24)"/>
  </g>
</svg>
