<svg xmlns="http://www.w3.org/2000/svg" width="48" height="48" viewBox="0 0 48 48">
  <g fill="none" fill-rule="evenodd">
    <path fill="#181EA9" d="M0,24 C0,37.2545455 10.7454545,48 24,48 C37.2545455,48 48,37.2545455 48,24 C48,10.7454545 37.2545455,0 24,0 C10.7454545,0 0,10.7454545 0,24 Z"/>
    <path fill="#FFF" d="M9.6446281,24.6517725 L9.6446281,25.5717894 C11.2902565,25.7507407 12.5454545,27.105344 12.5454545,28.7758621 C12.5454545,30.5701649 11.0683829,32 9.27272727,32 C7.4770716,32 6,30.5701649 6,28.7758621 C6,27.2105167 7.12416585,25.9225596 8.60330579,25.6193541 L8.60330579,24.6047839 C7.12416585,24.3015784 6,23.0136212 6,21.4482759 C6,19.653973 7.4770716,18.2241379 9.27272727,18.2241379 C9.88561841,18.2241379 10.4560283,18.3854656 10.9433436,18.6677439 L12.3377751,17.0305977 L13.1354743,17.6900092 L11.7445741,19.3230094 C12.2446828,19.888502 12.5454545,20.630539 12.5454545,21.4482759 C12.5454545,23.1170139 11.2678795,24.4705101 9.6446281,24.6517725 Z M22.9586777,15 L24,15 L24,24.6724138 L22.9586777,24.6724138 L22.9586777,15 Z M35.6033058,18.2241379 L40.9586777,18.2241379 L42,18.2241379 L42,24.6724138 L40.9586777,24.6724138 L40.9586777,19.3965517 L38.8016529,19.3965517 L38.8016529,24.6724138 L37.7603306,24.6724138 L37.7603306,19.3965517 L35.6033058,19.3965517 L35.6033058,24.6724138 L34.5619835,24.6724138 L34.5619835,18.2241379 L35.6033058,18.2241379 Z M9.27272727,31.0461394 C10.5734266,31.0461394 11.5785124,30.0648801 11.5785124,28.7752249 C11.5785124,27.4855697 10.5438652,26.5043103 9.27272727,26.5043103 C8.00158932,26.5043103 6.96694215,27.4855697 6.96694215,28.7752249 C6.96694215,30.0648801 7.97202797,31.0461394 9.27272727,31.0461394 Z M9.27272727,23.7185532 C10.5734266,23.7185532 11.5785124,22.7372939 11.5785124,21.4476387 C11.5785124,20.1579835 10.5438652,19.1767241 9.27272727,19.1767241 C8.00158932,19.1767241 6.96694215,20.1579835 6.96694215,21.4476387 C6.96694215,22.7372939 7.97202797,23.7185532 9.27272727,23.7185532 Z M17.6033058,18.2241379 C19.4279236,18.2241379 20.8760331,19.653973 20.8760331,21.4482759 C20.8760331,23.2425787 19.3989615,24.6724138 17.6033058,24.6724138 C15.8076501,24.6724138 14.3305785,23.2425787 14.3305785,21.4482759 C14.3305785,19.653973 15.8076501,18.2241379 17.6033058,18.2241379 Z M17.6033058,23.7185532 C18.9040051,23.7185532 19.9090909,22.7372939 19.9090909,21.4476387 C19.9090909,20.1579835 18.8744437,19.1767241 17.6033058,19.1767241 C16.3321678,19.1767241 15.2975207,20.1579835 15.2975207,21.4476387 C15.2975207,22.7372939 16.3026065,23.7185532 17.6033058,23.7185532 Z M29.1676505,18.2241379 C30.2585596,18.2241379 31.1362524,18.5762126 31.7076809,19.2624512 C32.2271615,19.8776995 32.4793388,20.7121182 32.4793388,21.797311 L27.2357551,21.797311 C27.2357551,22.5350342 27.609209,22.8503322 27.9208973,23.169788 C28.2325856,23.4774122 28.661157,23.6069441 29.2066116,23.6069441 C29.6871311,23.6069441 30.1458687,23.5010756 30.3754427,23.3354318 C30.6050168,23.169788 30.8279394,22.9764068 31.0678227,22.5350342 L32.0356728,23.169788 C31.8356308,23.5501267 31.4971248,23.8975967 31.238937,24.1047942 C30.9807492,24.3119917 30.4702091,24.6724138 29.2195986,24.6724138 C27.9689881,24.6724138 27.4342717,24.3184499 26.8689492,23.8323632 C26.3036268,23.3462765 25.9338843,22.4480544 25.9338843,21.44236 C25.9338843,20.4366656 26.2195986,19.7740905 26.8170012,19.1588421 C27.3884298,18.5317621 28.1806375,18.2241379 29.1676505,18.2241379 Z M29.2066116,19.2534957 C28.6871311,19.2534957 28.2498749,19.4119368 27.9646662,19.6395643 C27.6794575,19.8671917 27.2617291,20.2337141 27.2617291,20.8507751 L31.193085,20.8507751 C31.0191196,19.7590311 30.2975207,19.2534957 29.2066116,19.2534957 Z"/>
  </g>
</svg>
