<svg xmlns="http://www.w3.org/2000/svg" width="48" height="48" viewBox="0 0 48 48">
  <defs>
    <linearGradient id="gram-a" x1="100%" x2="0%" y1="50%" y2="50%">
      <stop offset="0%" stop-color="#4191F9"/>
      <stop offset="100%" stop-color="#5B54EE"/>
    </linearGradient>
  </defs>
  <g fill="none" fill-rule="evenodd">
    <circle cx="24" cy="24" r="24" fill="url(#gram-a)"/>
    <path fill="#FFF" fill-rule="nonzero" d="M32.0863199,24.6177298 L24.6801219,26.7379173 C24.6053517,26.7593219 24.5253453,26.7527636 24.455059,26.7194683 C24.2953419,26.6438089 24.2271997,26.4529985 24.3028592,26.2932815 L26.9274902,20.7526855 L34.826905,18.3617381 L34.8458406,18.4458277 L34.8485373,18.4440976 C36.2437657,20.4893987 37,22.8895848 37,25.3927697 C37,32.3555507 31.1797017,38 24,38 C16.8202983,38 11,32.3555507 11,25.3927697 C11,19.7079399 14.9094223,14.794966 20.4222645,13.2694685 L20.4221287,13.2668758 L32.2845087,10 L33.6226263,14.5461256 L21.3055192,17.9558103 C18.1060422,19.043659 15.875,21.9989787 15.875,25.3927697 C15.875,29.7445078 19.5126864,33.2722886 24,33.2722886 C28.4873136,33.2722886 32.125,29.7445078 32.125,25.3927697 C32.125,25.1321628 32.1119991,24.8735975 32.0863197,24.6177298 Z"/>
  </g>
</svg>
