<svg xmlns="http://www.w3.org/2000/svg" width="48" height="48" viewBox="0 0 48 48">
  <g fill="none" fill-rule="evenodd">
    <circle cx="23.983" cy="23.983" r="23.983" fill="#000"/>
    <circle cx="23.931" cy="23.983" r="21.409" fill="#FEF102"/>
    <path fill="#000" d="M34.0810915,15.9470231 C33.5702858,14.8003471 33.0943876,12.534871 31.7844748,12.031097 C30.0981128,11.3826701 29.0556573,15.6278323 28.8072861,16.7004239 L28.5561525,16.7004239 C28.1309834,14.8626283 27.5604079,12.2578707 25.5425495,11.6777521 C24.6083325,15.6014633 26.5184546,19.8343199 28.305019,23.2298972 C30.2126297,22.3182822 31.1420751,19.4633956 31.318622,17.4538246 L31.5697556,17.4538246 L33.5788243,23.4810308 C35.1951201,23.0164336 35.7574082,21.4169638 36.3410427,19.9651605 C37.5939482,16.8490949 38.6451934,13.0167964 37.8480953,9.66868336 C35.4359572,10.3517667 34.7021449,13.8010866 34.0810915,15.9470231 L34.0810915,15.9470231 Z M9.97226696,23.9832979 C12.1307602,22.9526457 13.1578965,19.6904204 13.4881372,17.4538246 L13.7392708,17.4538246 C13.9946737,18.5319411 14.6775059,21.3132456 16.0245865,21.4918016 C17.7408334,21.7188264 18.6406451,17.9106366 18.7619426,16.7004239 L19.0130762,16.7004239 C19.5602963,18.5912087 20.136899,21.0500576 22.0266792,21.9742292 C22.7238261,19.0460116 21.889058,15.9231654 20.8182244,13.1845536 C20.542982,12.480375 19.9776803,10.5818051 19.0067978,10.5818051 C17.4161177,10.5818051 16.521831,14.7747315 16.2506067,15.9470231 L15.9994731,15.9470231 L13.9904044,9.91981695 C10.4564525,11.6074347 8.53678736,20.5811912 9.97226696,23.9832979 L9.97226696,23.9832979 Z M6.20526312,26.996901 C8.82785119,38.4362871 20.924705,44.9213098 31.8208892,40.0905041 C35.7865397,38.3323178 38.9322391,35.1996774 40.7459258,31.266172 C41.2145411,30.2498344 42.1349457,28.4102809 41.5982732,27.0767615 C41.063861,25.7485159 35.8807148,27.9188124 34.5856189,28.4856209 C34.4037982,28.5664859 34.2754689,28.7342432 34.245584,28.9311319 C34.245584,28.9311319 34.245584,28.9311319 34.245584,28.9311319 C34.2031424,29.2096391 34.2784825,29.49342 34.4540249,29.7141664 C34.6293161,29.9349129 34.8887371,30.0725341 35.1697556,30.0941316 C36.1192917,30.1672114 37.3458282,30.2616377 37.3458282,30.2616377 C33.4062956,37.8873091 22.7547155,41.2590287 15.2460723,35.1667789 C13.5654863,33.8033747 12.0662188,32.1833119 11.0571641,30.2616377 C10.5692115,29.3324434 10.1166688,28.1440792 9.28717452,27.5064511 C8.49032765,26.8936851 7.28137055,26.6837374 6.20526312,26.996901 Z"/>
  </g>
</svg>
