<svg xmlns="http://www.w3.org/2000/svg" width="48" height="48" viewBox="0 0 48 48">
  <g fill="none" fill-rule="evenodd">
    <circle cx="24" cy="24" r="24" fill="#473168" fill-rule="nonzero"/>
    <path fill="#FFF" fill-rule="nonzero" d="M39.8900344,21.7777778 L39.8900344,20.8333333 C39.5601375,20.7777778 39.2302405,20.6111111 39.0103093,20.3888889 L35.8762887,15.3888889 L31.3127148,15.3888889 L31.3127148,13.2777778 C31.3127148,13.2777778 31.2027491,12.3888889 32.3024055,12.3888889 L32.3024055,11.5 L26.0893471,11.5 L26.0893471,12.2777778 C26.8041237,12.3888889 27.2439863,13.0555556 27.1890034,13.7222222 L27.1890034,15.3333333 L21.580756,15.3333333 L21.580756,13.2777778 C21.580756,13.2777778 21.4707904,12.3888889 22.5704467,12.3888889 L22.5704467,11.5 L16.3573883,11.5 L16.3573883,12.2777778 C17.0721649,12.3888889 17.5120275,13.0555556 17.4570447,13.7222222 L17.4570447,15.3333333 L12.5635739,15.3333333 L8,24 L12.838488,32.5555556 L17.4570447,32.5555556 L17.4570447,34.1666667 C17.2371134,34.9444444 16.5223368,35.5 15.6975945,35.5 L15.6975945,36.5 L23.5051546,36.5 L23.5051546,35.5 C23.5051546,35.5 21.580756,35.2777778 21.580756,33.8888889 L21.580756,32.5555556 L27.1890034,32.5555556 L27.1890034,34.2222222 C26.9690722,35.0555556 26.2542955,35.5555556 25.4295533,35.5 L25.4295533,36.5 L33.2920962,36.5 L33.2920962,35.5 C33.2920962,35.5 31.3676976,35.2777778 31.3676976,33.8888889 L31.3676976,32.5555556 L36.2061856,32.5555556 C36.2061856,32.5555556 38.6254296,28.4444444 39.0103093,27.6666667 C39.1752577,27.2777778 39.5601375,27 40,27 L40,26.2222222 L34.1168385,26.2222222 L34.1168385,27.5555556 L33.0721649,29 L31.3127148,29 L31.3127148,18.8333333 L33.0721649,18.8333333 L34.1718213,20.6666667 L34.1718213,21.7222222 L39.8900344,21.7777778 L39.8900344,21.7777778 Z M15.6975945,29.0555556 L12.838488,24 L15.532646,18.8333333 L17.4570447,18.8333333 L17.4570447,29.0555556 L15.6975945,29.0555556 L15.6975945,29.0555556 Z M21.580756,29.0555556 L21.580756,25.6666667 L27.2439863,25.6666667 L27.2439863,29.0555556 L21.580756,29.0555556 Z M27.1890034,22.3333333 L21.580756,22.3333333 L21.580756,18.8333333 L27.1890034,18.8333333 L27.1890034,22.3333333 L27.1890034,22.3333333 Z"/>
  </g>
</svg>
