<svg xmlns="http://www.w3.org/2000/svg" width="48" height="48" viewBox="0 0 48 48">
  <g fill="none">
    <circle cx="24" cy="24" r="24" fill="red"/>
    <path fill="#FFF" d="M8.196,29.778 L8.196,17.43 L10.752,17.43 L10.752,22.452 L15.63,22.452 L15.63,17.43 L18.204,17.43 L18.204,29.778 L15.63,29.778 L15.63,24.396 L10.752,24.396 L10.752,29.778 L8.196,29.778 Z M27.78,29.778 C26.322,27.708 24.828,25.584 23.352,23.532 C24.828,21.48 26.34,19.446 27.798,17.412 C28.698,17.412 29.562,17.43 30.444,17.43 L26.106,23.28 C27.654,25.44 29.184,27.6 30.696,29.778 L27.78,29.778 Z M20.724,29.778 L20.724,17.43 L23.262,17.43 L23.262,29.778 L20.724,29.778 Z M33.774,31.848 C33.864,31.056 33.936,30.642 34.044,29.904 C32.982,29.778 32.1,29.508 31.506,29.166 L31.506,27.348 C32.316,27.708 33.288,27.996 34.332,28.086 L34.872,24.414 L34.548,24.306 C32.64,23.82 31.506,22.92 31.506,20.778 C31.506,18.708 32.856,17.214 35.754,17.214 L35.88,17.214 L36.078,16.152 L37.374,16.152 L37.23,17.322 C38.058,17.43 38.634,17.664 39.102,17.898 L39.102,19.734 C38.526,19.5 37.824,19.266 36.942,19.158 C36.744,20.544 36.672,21.174 36.438,22.542 C38.688,23.1 39.804,23.928 39.804,26.142 C39.804,28.536 38.382,29.94 35.376,29.976 L35.088,31.848 L33.774,31.848 Z M37.518,26.412 C37.518,25.566 37.23,25.116 36.132,24.774 C35.952,26.124 35.844,26.7 35.628,28.086 C36.978,27.96 37.518,27.33 37.518,26.412 Z M33.738,20.562 C33.738,21.426 34.026,21.822 35.178,22.182 C35.34,20.904 35.448,20.364 35.61,19.068 C34.386,19.104 33.738,19.644 33.738,20.562 Z"/>
  </g>
</svg>
