<svg xmlns="http://www.w3.org/2000/svg" width="48" height="48" viewBox="0 0 48 48">
  <g fill="none" fill-rule="evenodd">
    <circle cx="24" cy="24" r="24" fill="#063B7B"/>
    <path fill="#FFF" d="M21.8,29.8 L25,29.8 C25.8836556,29.8 26.6,30.5163444 26.6,31.4 L21.8,31.4 L18.6,31.4 L18.6,25 L12.2,25 L12.2,28.2 C12.2,29.9673112 10.7673112,31.4 9,31.4 L9,20.2 C9,18.4326888 10.4326888,17 12.2,17 L12.2,23.4 L18.6,23.4 L18.6,20.2 C18.6,18.4326888 20.0326888,17 21.8,17 L21.8,29.8 Z M39.7603374,20.1596259 C38.5877087,18.8331173 36.8733528,17.9966797 34.9636364,17.9966797 C31.429014,17.9966797 28.5636364,20.8620573 28.5636364,24.3966797 C28.5636364,27.9313021 31.429014,30.7966797 34.9636364,30.7966797 C36.1002516,30.7966797 37.1676637,30.5003857 38.0928479,29.9808226 C36.8941825,30.8724114 35.4087037,31.4 33.8,31.4 C29.8235498,31.4 26.6,28.1764502 26.6,24.2 C26.6,20.2235498 29.8235498,17 33.8,17 C36.2788802,17 38.4651717,18.252721 39.7603374,20.1596259 Z"/>
  </g>
</svg>
