<svg xmlns="http://www.w3.org/2000/svg" width="48" height="48" viewBox="0 0 48 48">
  <g fill="none" fill-rule="evenodd">
    <path fill="#D11925" d="M0,24 C0,37.2545455 10.7454545,48 24,48 C37.2545455,48 48,37.2545455 48,24 C48,10.7454545 37.2545455,0 24,0 C10.7454545,0 0,10.7454545 0,24 Z"/>
    <path fill="#FFF" fill-rule="nonzero" d="M37.5,19.7788169 L37.5,31.9671063 L24,40 L10.5,31.9671063 L10.5,16.0328937 L24,8 L34.1280466,14.0264831 C34.7437424,13.4359138 35.5794882,13.0729872 36.5,13.0729872 C38.3926869,13.0729872 39.9270128,14.6073131 39.9270128,16.5 C39.9270128,18.0448135 38.9048685,19.3508925 37.5,19.7788169 Z M33.1917032,15.6025256 L24,10.1331942 L12.2971798,17.0967135 L12.2971798,30.9032865 L24,37.8668058 L35.7028202,30.9032865 L35.7028202,19.8338084 C34.1945932,19.474494 33.0729872,18.1182295 33.0729872,16.5 C33.0729872,16.1894637 33.1142905,15.8885742 33.1917032,15.6025256 Z M20.9116039,20.7252555 L25.5605864,24.2357057 L25.5605864,16 L30.4,16 L30.4,32.8 L25.5605864,32.8 L25.5605864,29.4056419 L27.4068195,29.4056419 L27.4068195,30.9519175 L28.5537669,30.9519175 L28.5537669,17.8480825 L27.4068195,17.8480825 L27.4068195,27.9447278 L22.757837,24.4342776 L22.757837,32.8 L17.6,32.8 L17.6,16 L22.8215217,16 L22.8215217,19.2643414 L20.9752886,19.2643414 L20.9752886,17.8480825 L19.4462331,17.8480825 L19.4462331,30.9519175 L20.9116039,30.9519175 L20.9116039,20.7252555 Z M36.5,18.0729872 C37.3687368,18.0729872 38.0729872,17.3687368 38.0729872,16.5 C38.0729872,15.6312632 37.3687368,14.9270128 36.5,14.9270128 C35.6312632,14.9270128 34.9270128,15.6312632 34.9270128,16.5 C34.9270128,17.3687368 35.6312632,18.0729872 36.5,18.0729872 Z"/>
  </g>
</svg>
