<svg xmlns="http://www.w3.org/2000/svg" width="48" height="48" viewBox="0 0 48 48">
  <g fill="none" fill-rule="evenodd">
    <circle cx="23.96" cy="24" r="23.677" fill="#2386E3" fill-rule="nonzero"/>
    <path fill="#2665A3" fill-rule="nonzero" d="M12.7462185,14.2789916 L9.96302521,17.102521 L13.6336134,19.8453782 L21.7411765,19.8453782 L19.2806723,23.0319328 L20.4907563,25.7747899 L26.9848739,25.8151261 C26.9848739,25.8151261 26.9848739,25.1697479 27.3882353,22.6689076 C27.9932773,18.6756303 34.8907563,18.4336134 34.810084,22.9109244 C34.7697479,26.2184874 32.2285714,26.6218487 30.5747899,26.6621849 C28.9210084,26.702521 8.99495798,26.6621849 8.99495798,26.6621849 L5.92941176,29.405042 L8.5512605,32.1478992 L18.5546218,32.1478992 L15.6504202,36.0605042 L17.8285714,38.8033613 L24.2016807,38.8033613 L25.9361345,31.9462185 C25.9361345,31.9462185 29.8084034,31.8655462 31.4218487,31.8655462 C34.2453782,31.8655462 41.7882353,30.010084 41.7882353,22.1445378 C41.7882353,15.005042 34.0033613,14.2789916 31.1394958,14.2789916 C28.2352941,14.3193277 12.7462185,14.2789916 12.7462185,14.2789916 Z"/>
    <path fill="#FFF" fill-rule="nonzero" d="M11.4957983,11.4957983 L9.92268908,17.102521 L20.4907563,17.102521 L19.2403361,23.0722689 L25.7344538,23.112605 C25.7344538,23.112605 25.7344538,22.4672269 26.1378151,19.9663866 C26.7428571,15.9731092 33.6403361,15.7310924 33.5596639,20.2084034 C33.5193277,23.5159664 30.9781513,23.9193277 29.3243697,23.9596639 C27.6705882,24 7.74453782,23.9596639 7.74453782,23.9596639 L5.88907563,29.4453782 L17.3445378,29.4453782 L15.6504202,36.1411765 L22.9915966,36.1411765 L24.7260504,29.2840336 C24.7260504,29.2840336 28.5983193,29.2033613 30.2117647,29.2033613 C33.0352941,29.2033613 40.5781513,27.3478992 40.5781513,19.4823529 C40.5781513,12.3428571 32.7932773,11.6168067 29.9294118,11.6168067 C27.0252101,11.5764706 11.4957983,11.4957983 11.4957983,11.4957983 Z"/>
  </g>
</svg>
