<svg xmlns="http://www.w3.org/2000/svg" width="48" height="48" viewBox="0 0 48 48">
  <g fill="none" fill-rule="evenodd">
    <path fill="#37B1C1" d="M29.447191,0.701123596 C16.7191011,-2.42696629 3.82921348,5.28539326 0.701123596,18.0134831 C-2.42696629,30.741573 5.28539326,43.6314607 17.9595506,46.7595506 C30.6876404,49.941573 43.5775281,42.1752809 46.705618,29.5011236 C46.705618,29.5011236 46.705618,29.447191 46.705618,29.447191 C49.8876404,16.7191011 42.1213483,3.88314607 29.447191,0.701123596 Z"/>
    <path fill="#FFF" d="M23.7597789,12.0538344 C26.1733757,12.0538344 28.5266326,12.8382533 30.45751,14.2260715 L27.1991543,17.4844272 C26.1733757,16.881028 24.9665773,16.5189885 23.7597789,16.5793284 C19.8376841,16.6396683 16.6396683,19.7773441 16.5793284,23.7597789 C16.5793284,24.9665773 16.881028,26.1733757 17.5447671,27.1991543 L14.2864114,30.5178499 C12.9589332,28.5266326 12.2348541,26.1733757 12.2348541,23.8201188 C12.1745142,17.4240873 17.3034074,12.1745142 23.639099,12.1141743 C23.6994389,12.1141743 23.7597789,12.1141743 23.7597789,12.0538344 Z M12.5365537,38 C11.0883957,37.9396601 9.94193717,36.6725218 10.0022771,35.2243637 C10.062617,33.8365455 11.1487356,32.750427 12.5365537,32.690087 C13.9243719,32.6297471 15.1311703,33.7158657 15.1915102,35.1036838 C15.1915102,35.1640238 15.1915102,35.2847036 15.1915102,35.3450435 C15.1915102,36.7932016 13.9847118,37.9396601 12.5365537,38 Z M23.7597789,35.3450435 C21.1651623,35.3450435 18.6308857,34.4399447 16.5793284,32.8711068 L19.6566643,29.733431 C20.8634627,30.5781898 22.2512809,31.0005693 23.6994389,31.0005693 C27.6215337,31.0005693 30.8798894,27.8025535 30.8798894,23.8201188 C30.8798894,22.3719607 30.3971701,20.9841425 29.6127511,19.7773441 L32.750427,16.6396683 C34.3796048,18.6912256 35.2243637,21.2255022 35.2243637,23.8201188 C35.3450435,30.0954705 30.3971701,35.2243637 24.1218184,35.3450435 C24.1218184,35.3450435 23.9407986,35.3450435 23.7597789,35.3450435 Z M35.3450435,15.1915102 C33.8968854,15.1915102 32.690087,14.0450517 32.690087,12.5968937 C32.690087,12.5968937 32.690087,12.5968937 32.690087,12.5365537 C32.750427,11.0883957 34.0175653,9.94193717 35.4657234,10.0022771 C36.8535415,10.062617 37.9396601,11.1487356 38,12.5365537 C38,13.9847118 36.8535415,15.1915102 35.3450435,15.1915102 Z"/>
  </g>
</svg>
