<svg xmlns="http://www.w3.org/2000/svg" width="48" height="48" viewBox="0 0 48 48">
  <g fill="none" fill-rule="evenodd">
    <circle cx="24" cy="24" r="24" fill="#F20000"/>
    <path fill="#FFF" fill-rule="nonzero" d="M44,23.7355187 L40.7467081,23.7355187 L40.7467081,24.2645037 L44,24.2645037 L43.9385932,25.2255441 C43.29552,35.3308618 35.3188583,43.3146881 25.2248194,43.9581978 C14.2352608,44.6657634 4.76998867,36.3065514 4.06180245,25.2875866 L4,24.3259765 L7.25365117,24.3259765 L7.25365117,23.7355187 L4.00060818,23.7355187 L4.06176601,22.7744784 C4.70483923,12.6691606 12.681501,4.68533438 22.7755398,4.04182468 C33.7756471,3.33357988 43.231241,11.7041273 43.9385784,22.7742451 L44,23.7355187 Z M25.1099738,42.1548936 C33.9779236,41.5895487 41.0437432,34.809066 42.0545998,26.0714833 L38.9451256,26.0714833 L38.9451256,21.9285392 L42.0545998,21.9285392 C40.9440061,12.3345848 32.575814,5.22153019 22.8903854,5.84512888 C14.0224357,6.41047378 6.95661602,13.1909564 5.94575948,21.9285392 L9.05523369,21.9285392 L9.05523369,26.132956 L5.94656217,26.132956 C7.06036723,35.6768413 15.4354757,42.7777885 25.1099738,42.1548936 Z M32.7626545,33.928017 C32.7626545,34.3620281 32.4922078,34.7960391 32.059493,34.9045419 C31.9513143,34.9045419 31.8431356,34.9587933 31.7349569,34.9587933 C31.4104208,34.9587933 31.0858847,34.7960391 30.8695272,34.5247822 L18.8616913,17.9238578 L18.8616913,32.8972406 L21.6202482,32.8972406 L21.6202482,35.0130447 L14.3181857,35.0130447 L14.3181857,32.8972406 L16.8062959,32.8972406 L16.8062959,15.1570371 L14.3181857,15.1570371 L14.3181857,13.041233 L21.6202482,13.041233 L21.6202482,15.1570371 L19.4025848,15.1570371 L24.7574305,22.5352257 L30.8154379,13.5294955 C31.0858847,13.1497357 31.5726888,12.9869816 32.0054036,13.0954844 C32.4381184,13.2582385 32.7085652,13.6379982 32.7626545,14.1262607 L32.7626545,33.928017 Z M30.6531698,30.6729337 L30.6531698,17.5440981 L26.055575,24.3797728 L30.6531698,30.6729337 Z"/>
  </g>
</svg>
