<svg xmlns="http://www.w3.org/2000/svg" width="48" height="48" viewBox="0 0 48 48">
  <g fill="none" fill-rule="evenodd">
    <circle cx="24" cy="24" r="24" fill="#37BDE9"/>
    <path fill="#FFF" fill-rule="nonzero" d="M15.6136083,22.2843102 C15.6291499,22.2543063 15.6459289,22.2249472 15.6638966,22.1963221 L22.954422,9.44029142 C23.4152515,8.63399082 24.5779894,8.63428505 25.0384107,9.44081877 L38.7477962,33.4559555 C39.2046253,34.2561965 38.6264434,35.2513873 37.704989,35.2508789 L10.2787496,35.235742 C9.35761349,35.2352336 8.78049205,34.2400248 9.2375681,33.4402914 L15.6136067,22.2843131 Z M29.2365267,21.6357422 L23.9956535,12.4551493 L18.7486181,21.6357422 L29.2365267,21.6357422 Z M30.6066012,24.0357422 L18.8835218,24.0357422 L24.5748315,32.8436317 L35.638197,32.8497377 L30.6066012,24.0357422 Z M21.7163772,32.8420541 L16.7429022,25.1450878 L12.3467676,32.836883 L21.7163772,32.8420541 Z"/>
  </g>
</svg>
