<svg xmlns="http://www.w3.org/2000/svg" width="48" height="48" viewBox="0 0 48 48">
  <g fill="none" fill-rule="evenodd">
    <circle cx="24" cy="24" r="24" fill="#31CB9E"/>
    <path fill="#FFF" d="M22.3601815,24.499064 L35.915569,16.5981817 C36.4035629,16.321927 37,16.6534326 37,17.2059419 L37,31.7921862 C37,32.3446954 36.4035629,32.676201 35.915569,32.3999463 L22.3601815,24.499064 Z M35.6444612,13.0621224 C36.0240121,13.393628 36.0240121,14.0013882 35.5902397,14.3328937 L21.8721875,22.0680233 L25.2339236,6.59776418 C25.3423667,6.04525492 25.9388038,5.82425122 26.3725762,6.15575677 L35.6444612,13.0621224 Z M26.3725762,42.8423712 C25.9388038,43.1738768 25.2881452,42.9528731 25.2339236,42.4556148 L21.8721875,26.9853556 L35.5902397,34.7204852 C36.0240121,34.9967398 36.0782336,35.6045 35.6444612,35.9360056 L26.3725762,42.8423712 Z M19.3199093,24.4541187 L22.84431,41.3056509 C22.9527531,41.968662 22.247873,42.4106694 21.7056575,42.0239129 L12.7048802,34.9517945 C12.2711078,34.565038 12,34.0125288 12,33.4047686 L12,15.5034688 C12,14.8957086 12.2168862,14.3431993 12.7048802,13.9564428 L21.7056575,6.93957532 C22.247873,6.49756792 23.0069747,6.99482625 22.84431,7.65783735 L19.3199093,24.4541187 Z"/>
  </g>
</svg>
