<svg xmlns="http://www.w3.org/2000/svg" width="48" height="48" viewBox="0 0 48 48">
  <g fill="none" fill-rule="evenodd">
    <circle cx="24" cy="24" r="24" fill="#EB9E00"/>
    <path fill="#FFF" fill-rule="nonzero" d="M32.6103613,25.3766404 C33.6400128,24.5104987 34.4408529,23.2979003 34.7840701,22.0275591 C35.642113,18.6784777 33.8688243,15.2716535 30.7798697,14.4632546 L29.8646238,14.2322835 L31.1230868,9.55511811 C31.1802897,9.2664042 31.0086811,9.03543307 30.7798697,8.91994751 L29.1781895,8.45800525 C28.8921752,8.40026247 28.6633637,8.51574803 28.548958,8.80446194 C28.548958,8.80446194 28.548958,8.80446194 28.548958,8.80446194 L27.290495,13.4816273 L24.6591633,12.7887139 L25.9176263,8.11154856 C25.9748292,7.82283465 25.8032206,7.59186352 25.5744091,7.47637795 C25.5744091,7.47637795 25.5744091,7.47637795 25.5744091,7.47637795 L23.972729,7.0144357 C23.6867146,6.95669291 23.4579032,7.07217848 23.3434975,7.36089239 L22.0850345,12.0380577 L16.7079654,10.5944882 C16.421951,10.5367454 16.1931396,10.652231 16.0787339,10.9409449 L15.621111,12.5577428 C15.5639081,12.7887139 15.6783138,13.0774278 15.9071253,13.1929134 C17.680414,13.828084 18.3668484,15.3293963 17.9664283,16.8307087 L15.3350966,26.8779528 C15.1062852,28.2060367 13.8478222,29.0721785 12.5321564,28.8989501 C12.4749535,28.8989501 12.4177506,28.8989501 12.3605478,28.8412073 C12.1317363,28.7834646 11.9029249,28.8989501 11.7885191,29.1299213 L11.0448819,30.6889764 C10.9304762,30.9199475 11.0448819,31.2086614 11.2736934,31.324147 C11.3308962,31.324147 11.3308962,31.324147 11.3880991,31.3818898 L16.5363568,32.7677165 L15.2778938,37.4448819 C15.2206909,37.7335958 15.3922995,37.9645669 15.621111,38.0800525 L17.279994,38.5419948 C17.5660083,38.5997375 17.7948198,38.484252 17.9092255,38.1955381 L19.1676885,33.5183727 L21.7990202,34.2112861 L20.5405572,38.8884514 C20.4833543,39.1771654 20.6549629,39.4081365 20.8837744,39.523622 L22.4854545,39.9855643 C22.7714688,40.0433071 23.0002803,39.9278215 23.114686,39.6391076 L24.373149,34.9619423 L26.5468578,35.5393701 C29.7502181,36.2900262 33.0107813,34.3267717 33.7544185,31.0931759 C34.2692443,29.0721785 33.8116214,26.9356955 32.6103613,25.3766404 Z M23.5723089,16.6574803 L27.5765093,17.7545932 C29.0637838,18.1010499 29.9790296,19.6023622 29.5786095,21.1036745 C29.2353924,22.6049869 27.7481179,23.5288714 26.2608435,23.1246719 C26.2036406,23.1246719 26.1464378,23.1246719 26.1464378,23.0669291 L22.1422373,21.9698163 L23.5723089,16.6574803 Z M25.4028005,31.2086614 L20.0829343,29.7650919 L21.5130059,24.3950131 L26.8328721,25.8385827 C28.3201465,26.1850394 29.2353924,27.6863517 28.8349723,29.187664 C28.4917551,30.6889764 27.0044807,31.6128609 25.5172063,31.2086614 C25.4600034,31.2086614 25.4600034,31.2086614 25.4028005,31.2086614 L25.4028005,31.2086614 Z" transform="rotate(-15 23 23.5)"/>
    <path fill="#005AAA" d="M28.4742948,26 L28.5008734,26 L10.5008734,44 L21.9461589,26 L22.545579,24.7517604 L27.3075399,24.7668771 C27.9332197,24.7462638 28.516275,24.9379937 28.9866297,25.2784775 L28.4742948,26 Z M28.3361759,12.7590569 C28.2829238,12.7577736 28.2294938,12.7572831 28.1758952,12.7575958 L27.2320559,12.7713779 L27.2340858,10.8215947 L35,4 L28.3361759,12.7590569 Z M25.2905719,16.7622566 L23.0753601,19.6739731 L28.7348853,19.6739731 C28.6906918,21.1260669 27.5294568,22.298755 26.0525909,22.2934925 C25.9973372,22.3082977 25.9420834,22.3231029 25.9271385,22.2673277 L21.7754242,22.2439613 L21.7818336,16.7425091 L25.2905719,16.7622566 Z M16.4474385,24.6606905 L13,24.6606905 L13,23.3248443 L16.4228756,20.3181835 L16.4474385,24.6606905 Z"/>
  </g>
</svg>
