<svg xmlns="http://www.w3.org/2000/svg" width="48" height="48" viewBox="0 0 48 48">
  <g fill="none" fill-rule="evenodd">
    <path fill="#BDB3AD" d="M0.853754941,24.0474308 C0.853754941,36.7114625 11.1699605,47.027668 23.8339921,47.027668 C36.4980237,47.027668 45.5335968,39.201581 46.8143116,26.8932806 C46.8853755,26.8221344 0.853754941,23.2648221 0.853754941,24.0474308"/>
    <path fill="#D5CFC5" d="M46.8853755,26.3241107 C46.5296443,25.1146245 0.996047431,24.0474308 0.996047431,23.9762846 C0.996047431,11.2411067 11.3833992,0.996047431 24.0474308,0.996047431 C36.7114625,0.996047431 47.027668,11.2411067 47.027668,23.9762846 C47.027668,24.7588933 46.9565217,25.541502 46.8853755,26.3241107 Z M3.34387352,31.6600791 C3.98418972,31.6600791 4.69565217,31.6600791 5.33596838,31.6600791 C5.6916996,31.7312253 6.11857708,31.8023715 6.4743083,31.8023715 C6.75889328,31.8023715 7.11462451,31.8023715 7.39920949,31.7312253 C7.54150198,31.7312253 7.68379447,31.7312253 7.82608696,31.7312253 C7.82608696,31.8023715 7.75494071,31.8735178 7.75494071,31.944664 C7.75494071,33.0118577 8.89328063,33.7944664 10.458498,33.7944664 C11.6679842,33.9367589 12.8063241,33.0118577 12.9486166,31.8023715 C13.1620553,31.8023715 13.6600791,32.0869565 13.944664,32.0869565 C20.4189723,32.798419 20.8458498,33.9367589 20.8458498,34.0079051 C20.8458498,34.0790514 20.7035573,34.5770751 19.4229249,35.5019763 C16.6482213,37.4229249 15.7233202,38.5612648 15.9367589,39.770751 C16.2213439,41.1936759 18.1422925,41.5494071 20.916996,42.1185771 C21.6996047,42.2608696 22.6245059,42.4743083 23.5494071,42.687747 C24.4743083,42.9011858 25.6837945,43.1146245 26.6798419,43.3280632 C28.6007905,43.6837945 30.5217391,44.1106719 32.0869565,44.6086957 C29.5968379,45.5335968 26.9644269,46.0316206 24.2608696,46.0316206 C15.0118577,46.0316206 6.68774704,40.3399209 3.34387352,31.6600791 Z"/>
    <path fill="#E87A35" d="M15.083004,6.97233202 C17.6442688,6.97233202 19.7075099,9.03557312 19.7075099,11.5968379 C19.7075099,14.1581028 17.5731225,16.1501976 15.083004,16.1501976 C12.5928854,16.1501976 10.458498,14.0869565 10.458498,11.5968379 C10.458498,9.03557312 12.5217391,6.97233202 15.083004,6.97233202 Z M30.0237154,6.75889328 C34.0079051,6.75889328 37.2094862,9.96047431 37.2094862,13.944664 C37.2094862,17.9288538 34.0079051,21.1304348 30.0237154,21.1304348 C26.0395257,21.1304348 22.8379447,17.9288538 22.8379447,13.944664 C22.8379447,9.96047431 26.0395257,6.75889328 30.0237154,6.75889328 Z M10.458498,27.0355731 C10.458498,27.0355731 12.1660079,32.0869565 12.1660079,32.1581028 C12.1660079,32.6561265 11.3833992,33.0118577 10.458498,33.0118577 C9.53359684,33.0118577 8.75098814,32.6561265 8.75098814,32.1581028 C8.75098814,32.0869565 10.458498,27.0355731 10.458498,27.0355731 Z M6.4743083,25.1146245 C6.4743083,25.1146245 8.18181818,30.0948617 8.18181818,30.2371542 C8.18181818,30.7351779 7.39920949,31.0909091 6.4743083,31.0909091 C5.54940711,31.0909091 4.76679842,30.7351779 4.76679842,30.2371542 C4.76679842,30.0948617 6.4743083,25.1146245 6.4743083,25.1146245 Z"/>
    <path fill="#34312E" fill-rule="nonzero" d="M15.083004,7.8972332 C13.0909091,7.8972332 11.4545455,9.53359684 11.4545455,11.5256917 C11.4545455,13.5177866 13.0909091,15.1541502 15.083004,15.1541502 C17.0750988,15.1541502 18.7114625,13.5177866 18.7114625,11.5256917 C18.7114625,9.53359684 17.0750988,7.8972332 15.083004,7.8972332 M15.083004,17.1462451 C12.0237154,17.1462451 9.53359684,14.6561265 9.53359684,11.5968379 C9.53359684,8.53754941 12.0237154,6.04743083 15.083004,6.04743083 C18.1422925,6.04743083 20.6324111,8.53754941 20.6324111,11.5968379 C20.6324111,11.5968379 20.6324111,11.5968379 20.6324111,11.5968379 C20.6324111,14.6561265 18.1422925,17.1462451 15.083004,17.1462451 C15.083004,17.1462451 15.083004,17.1462451 15.083004,17.1462451"/>
    <path fill="#BDB3AD" d="M19.9757558,25.7045171 L0.996047431,24.687747 L3.6284585,24.6166008 L7.256917,18.2134387 L11.0988142,18.2134387 L13.1620553,25.1857708 L17.7865613,23.9762846 L20.2395068,25.3700037 L22.9090909,21.9841897 L24.1897233,22.6956522 L26.6086957,23.6205534 L28.3162055,22.6956522 L33.7233202,16.9328063 L35.6442688,19.4940711 L36.56917,18.7114625 L37.7075099,18.7114625 L40.7667984,22.9090909 L42.9011858,22.5533597 L46.8142292,26.9644269 L17.0750988,29.3833992 L19.9757558,25.7045171 Z"/>
    <path fill="#D2A37E" d="M37.7075099,25.6837945 C37.7075099,27.6047431 28.458498,27.6047431 28.458498,25.6837945 C28.458498,23.7628458 30.5217391,22.1264822 33.083004,22.1264822 C35.6442688,22.1264822 37.6363636,23.6205534 37.7075099,25.6837945 Z M42.3320158,30.4505929 C42.3320158,32.3715415 33.083004,32.3715415 33.083004,30.4505929 C33.083004,28.5296443 35.1462451,26.8932806 37.7075099,26.8932806 C40.2687747,26.8932806 42.2608696,28.458498 42.3320158,30.4505929 Z M33.083004,36.1422925 C33.083004,38.0632411 23.8339921,38.0632411 23.8339921,36.1422925 C23.8339921,34.2213439 25.8972332,32.5849802 28.458498,32.5849802 C31.0197628,32.5849802 33.083004,34.1501976 33.083004,36.1422925 Z"/>
    <path fill="#24201E" fill-rule="nonzero" d="M43.256917,21.5573123 L41.1936759,21.9130435 L38.2055336,17.7865613 L37.2806324,17.7865613 C39.4150198,13.8023715 37.8498024,8.82213439 33.8656126,6.68774704 C29.8814229,4.55335968 24.9011858,6.11857708 22.7667984,10.1027668 C20.6324111,14.0869565 22.1976285,19.0671937 26.1818182,21.201581 C26.6798419,21.486166 27.2490119,21.6996047 27.8181818,21.8418972 L27.6758893,21.9841897 L26.5375494,22.5533597 L24.6166008,21.8418972 L22.6956522,20.7747036 L20.0632411,24.1897233 L17.9288538,22.9802372 L13.8023715,23.9762846 L11.7391304,17.2173913 L6.68774704,17.2173913 L3.05928854,23.6205534 L1.92094862,23.6916996 C1.99209486,11.5256917 11.9525692,1.70750988 24.1185771,1.77865613 C36.284585,1.84980237 46.1027668,11.8102767 46.0320048,23.9762846 L46.0320048,23.9762846 L46.0320048,24.687747 L43.256917,21.5573123 Z M32.1581028,36 C31.8023715,36.2134387 30.5928854,36.6403162 28.5296443,36.6403162 C26.4664032,36.6403162 25.1857708,36.284585 24.9011858,36 C24.972332,34.6482213 26.6086957,33.5810277 28.5296443,33.5810277 C30.4505929,33.5810277 32.0158103,34.6482213 32.1581028,36 Z M37.7075099,27.8181818 C39.6284585,27.8181818 41.2648221,28.8853755 41.3359684,30.2371542 C40.9802372,30.4505929 39.770751,30.8774704 37.7075099,30.8774704 C35.6442688,30.8774704 34.4347826,30.5217391 34.0790514,30.2371542 C34.1501976,28.9565217 35.7865613,27.8181818 37.7075099,27.8181818 Z M36.7114625,25.4703557 C36.3557312,25.6837945 35.1462451,26.1106719 33.083004,26.1106719 C31.0197628,26.1106719 29.7391304,25.7549407 29.4545455,25.4703557 C29.5256917,24.1185771 31.1620553,23.0513834 33.083004,23.0513834 C35.0039526,23.0513834 36.6403162,24.1897233 36.7114625,25.4703557 Z M35.2885375,17.3596838 L33.8656126,15.4387352 L29.3833992,20.2055336 C25.9683794,19.8498024 23.4071146,16.7905138 23.7628458,13.3754941 C24.1185771,9.96047431 27.1778656,7.39920949 30.5928854,7.75494071 C33.7944664,8.03952569 36.2134387,10.8142292 36.2134387,14.0158103 C36.284585,15.2252964 35.9288538,16.4347826 35.2885375,17.3596838 L35.2885375,17.3596838 Z M34.2213439,43.4703557 C32.4426877,42.6166008 29.6679842,42.0474308 26.8221344,41.4782609 C25.826087,41.2648221 24.7588933,41.0513834 23.7628458,40.8379447 C22.7667984,40.6245059 21.9130435,40.4822134 21.1304348,40.3399209 C19.9920949,40.1976285 18.8537549,39.9130435 17.7865613,39.486166 C17.9288538,39.201581 18.4980237,38.6324111 20.3478261,37.3517787 C20.9881423,36.9249012 23.0513834,35.5019763 22.4822134,33.7233202 C21.9841897,32.0869565 19.3517787,31.0909091 14.0158103,30.4505929 L12.5217391,30.3794466 C12.2371542,29.5968379 11.8814229,28.458498 11.312253,26.8221344 L10.3873518,24.1897233 L9.53359684,26.8221344 C9.24901186,27.6758893 8.96442688,28.458498 8.75098814,29.027668 C8.53754941,28.2450593 8.11067194,27.0355731 7.32806324,24.9011858 L6.4743083,22.1976285 L5.54940711,24.8300395 C4.2687747,28.458498 3.91304348,29.5256917 3.84189723,29.9525692 L2.77470356,29.9525692 C2.34782609,28.5296443 2.13438735,27.1067194 1.99209486,25.6126482 L4.19762846,25.541502 L7.82608696,19.1383399 L10.3162055,19.1383399 L12.5217391,26.3241107 L17.6442688,25.0434783 L18.8537549,25.6837945 L16.3636364,28.8142292 L17.8577075,30.0237154 L23.1936759,23.2648221 L23.8339921,23.6205534 L26.6798419,24.687747 L27.9604743,24.0474308 C27.7470356,24.5454545 27.6047431,25.1146245 27.6047431,25.6837945 C27.6047431,26.2529644 27.9604743,27.4624506 30.6640316,27.9604743 C31.5177866,28.1027668 32.1581028,28.8142292 32.1581028,29.7391304 L32.1581028,32.8695652 C31.7312253,32.5849802 31.3043478,32.3715415 30.8774704,32.229249 L30.8774704,32.229249 C29.8102767,31.8735178 28.8142292,31.3754941 28.5296443,30.3794466 C28.2450593,31.1620553 27.6047431,31.8023715 26.7509881,32.0158103 C24.5454545,32.5849802 22.9090909,34.2924901 22.9090909,36.284585 C22.9090909,36.9960474 23.4782609,38.7035573 28.458498,38.7035573 C33.4387352,38.7035573 34.0079051,36.9960474 34.0079051,36.284585 L34.0079051,32.513834 C34.3636364,32.6561265 34.7905138,32.7272727 35.2173913,32.798419 C36.0711462,32.9407115 36.7114625,33.7233202 36.7114625,34.5770751 L36.7114625,36.7114625 C36.7114625,37.2094862 37.0671937,37.6363636 37.5652174,37.7075099 C38.0632411,37.7786561 38.5612648,37.3517787 38.6324111,36.8537549 C38.6324111,36.8537549 38.6324111,36.7826087 38.6324111,36.7826087 L38.6324111,34.5770751 C38.6324111,33.7233202 39.2727273,32.9407115 40.1264822,32.798419 C42.8300395,32.3715415 43.1857708,31.1620553 43.1857708,30.5217391 C43.1146245,28.8853755 42.1185771,27.3913043 40.5533597,26.7509881 L40.5533597,26.7509881 C40.5533597,26.7509881 40.4822134,26.7509881 40.4822134,26.7509881 C40.1976285,26.6086957 39.9130435,26.5375494 39.6284585,26.3952569 C39.201581,26.1818182 38.8458498,25.8972332 38.5612648,25.541502 C38.3478261,23.7628458 37.0671937,22.2687747 35.3596838,21.6996047 L35.3596838,21.6996047 C35.2173913,21.6284585 35.1462451,21.6284585 35.0039526,21.5573123 C34.0790514,21.3438735 33.3675889,20.7035573 33.0118577,19.8498024 C32.7272727,20.8458498 31.8735178,21.3438735 30.8063241,21.6996047 C30.7351779,21.6996047 30.6640316,21.770751 30.5928854,21.770751 L33.5810277,18.56917 L35.3596838,20.9881423 L36.7826087,19.8498024 L37.1383399,19.8498024 L40.2687747,24.1185771 L42.4743083,23.7628458 L45.7470356,27.4624506 C44.6798419,34.2213439 40.3399209,40.1976285 34.2213439,43.4703557 L34.2213439,43.4703557 Z M9.81818182,32.0158103 L10.458498,30.0948617 L11.0988142,32.0158103 C10.8853755,32.0869565 10.6719368,32.0869565 10.458498,32.0869565 C10.2450593,32.1581028 10.0316206,32.0869565 9.81818182,32.0158103 L9.81818182,32.0158103 Z M5.83399209,29.9525692 C5.97628458,29.5256917 6.18972332,28.8142292 6.4743083,28.1027668 C6.75889328,28.8853755 6.97233202,29.5968379 7.11462451,30.0237154 C6.68774704,30.0237154 6.26086957,30.0237154 5.83399209,29.9525692 L5.83399209,29.9525692 Z M23.9762846,46.0316206 C14.8695652,46.0316206 6.68774704,40.4110672 3.41501976,31.8735178 C4.05533597,31.8735178 4.69565217,31.8735178 5.40711462,31.8735178 C5.76284585,31.944664 6.11857708,32.0158103 6.4743083,32.0158103 C6.75889328,32.0158103 7.04347826,32.0158103 7.32806324,31.944664 C7.47035573,31.944664 7.61264822,31.944664 7.75494071,31.944664 C7.75494071,32.0158103 7.68379447,32.0869565 7.68379447,32.1581028 C7.68379447,33.2252964 8.82213439,34.0079051 10.3873518,34.0079051 C11.9525692,34.0079051 13.0197628,33.2964427 13.0197628,32.3003953 L13.7312253,32.3715415 C20.1343874,33.083004 20.5612648,34.2213439 20.5612648,34.2924901 C20.5612648,34.3636364 20.4189723,34.8616601 19.1383399,35.715415 C16.4347826,37.5652174 15.5098814,38.7035573 15.7233202,39.9130435 C16.0079051,41.3359684 17.8577075,41.6916996 20.6324111,42.1897233 C21.4150198,42.3320158 22.2687747,42.4743083 23.1936759,42.687747 L26.3241107,43.3280632 C28.173913,43.6837945 30.0948617,44.1106719 31.6600791,44.5375494 C29.312253,45.4624506 26.6086957,45.9604743 23.9762846,46.0316206 L23.9762846,46.0316206 Z M23.9762846,8.8817842e-15 C10.743083,8.8817842e-15 8.8817842e-15,10.743083 8.8817842e-15,23.9762846 C8.8817842e-15,37.2094862 10.743083,47.9525692 23.9762846,47.9525692 C37.2094862,47.9525692 47.9525692,37.2094862 47.9525692,23.9762846 C47.9525692,23.9762846 47.9525692,23.9762846 47.9525692,23.9762846 C47.8814229,10.743083 37.2094862,0.0711462451 23.9762846,8.8817842e-15 L23.9762846,8.8817842e-15 Z"/>
  </g>
</svg>
