<svg xmlns="http://www.w3.org/2000/svg" width="48" height="48" viewBox="0 0 48 48">
  <defs>
    <linearGradient id="mco-a" x1="50%" x2="50%" y1="100%" y2="0%">
      <stop offset="0%" stop-color="#002A67"/>
      <stop offset="100%" stop-color="#021E3F"/>
    </linearGradient>
  </defs>
  <g fill="none" fill-rule="evenodd">
    <circle cx="24" cy="24" r="24" fill="url(#mco-a)"/>
    <path fill="#FFF" fill-rule="nonzero" d="M39,15.25 L39,32.75 L24,41.5 L9,32.75 L9,15.25 L24,6.5 L39,15.25 Z M24,8.41173116 L10.6377171,16.2063962 L10.6377171,31.7936038 L24,39.5882688 L37.3622829,31.7936038 L37.3622829,16.2063962 L24,8.41173116 Z"/>
    <path fill="#FFF" fill-rule="nonzero" d="M28.764082,15 L30.0960029,20.3631521 L16.9505227,20.3631521 L18.1087148,15 L28.764082,15 Z M20.2175141,24.6144839 L20.1596045,24.6144839 L20.1596045,28.5202577 L22.5918079,30.7354727 L22.5918079,31.9013753 L20.1596045,34 L18.3064972,34 L13.5,25.3723206 L16.9745763,22.6324494 L20.2175141,24.6144839 Z M30.5254237,22.6324494 L34,25.3723206 L29.1935028,34 L27.3403955,34 L24.9081921,31.9013753 L24.9081921,30.7354727 L27.2824859,28.4619625 L27.2824859,24.6144839 L30.5254237,22.6324494 Z M20.1596045,21.6414322 L27.1087571,21.6414322 L25.950565,24.7310742 L26.3559322,28.1704869 L20.970339,28.1704869 L21.3177966,24.7310742 L20.1596045,21.6414322 Z"/>
  </g>
</svg>
