<svg xmlns="http://www.w3.org/2000/svg" width="48" height="48" viewBox="0 0 48 48">
  <g fill="none" fill-rule="evenodd">
    <circle cx="24" cy="24" r="24" fill="#053B81"/>
    <path fill="#FFF" fill-rule="nonzero" d="M42.8446926,30.655914 L37.541436,23.344086 L31.078092,12.8064516 C31.078092,12.8064516 31.078092,12.8064516 31.078092,12.7526882 L30.857123,12.3763441 C30.6913962,12.1075269 30.3599427,12 30.0837314,12 C29.7522779,12 29.4760666,12.2150538 29.3655821,12.483871 L24.614748,21.5698925 L19.9191563,15.9784946 C19.7534295,15.7634409 19.4772182,15.655914 19.2010069,15.655914 C18.9247956,15.655914 18.7038266,15.8172043 18.5380998,16.0322581 L11.4670911,25.6021505 L6.27431898,30.5483871 C5.9981077,30.7634409 5.94286544,31.1397849 6.05334995,31.4623656 C6.16383447,31.7849462 6.495288,32 6.8819838,32 L42.1265432,32 C42.4579968,32 42.7342081,31.8387097 42.8999348,31.516129 C43.0656616,31.2473118 43.0104193,30.9247312 42.8446926,30.655914 L42.8446926,30.655914 Z M14.9473532,30.2795699 L13.0691165,26.3010753 L14.0082348,25.0107527 L18.6485844,22.8602151 L20.1401253,24.311828 L15.2235645,30.2795699 L14.9473532,30.2795699 L14.9473532,30.2795699 Z M20.6373056,24.8494624 L24.2280522,28.3978495 L22.3498155,30.3333333 L16.1626828,30.3333333 L20.6373056,24.8494624 Z M24.8909593,28.7741935 L28.0397679,30.2795699 L23.3994184,30.2795699 L24.8909593,28.7741935 Z M25.3881396,28.2365591 L29.9180046,23.1827957 L35.2212612,30.2795699 L29.6970356,30.2795699 L25.3881396,28.2365591 Z M30.8018807,23.1827957 L36.0498951,24.2580645 C36.0498951,24.2580645 36.0498951,24.311828 36.1051373,24.311828 L36.3813486,24.688172 L36.1051373,30.2258065 L30.8018807,23.1827957 Z M35.5527148,23.3978495 L30.3047004,22.3225806 L30.3047004,14.7956989 L35.5527148,23.3978495 Z M29.5313088,15.7634409 L29.5313088,22.483871 L25.1119283,27.3763441 L25.1119283,24.1505376 C25.1119283,24.0430108 25.1671706,23.9354839 25.3328974,23.6666667 C25.3328974,23.6666667 25.3328974,23.6666667 25.3328974,23.6129032 C25.3328974,23.5591398 25.3881396,23.5591398 25.3881396,23.5053763 L25.3881396,23.5053763 L25.4433819,23.4516129 L29.5313088,15.7634409 Z M24.0623255,23.6666667 C24.0623255,23.7204301 24.1175677,23.7204301 24.0623255,23.6666667 L24.0623255,23.6666667 C24.1175677,23.7204301 24.393779,23.9892473 24.393779,24.2580645 L24.393779,27.483871 L19.0905224,22.3225806 L19.2562492,17.9677419 L24.0623255,23.6666667 Z M18.4828576,18.8817204 L18.3723731,22.2150538 L14.9473532,23.827957 L18.4828576,18.8817204 Z M12.5719362,26.9462366 L14.1739616,30.2795699 L9.03643179,30.2795699 L12.5719362,26.9462366 Z M36.8232866,30.2795699 L37.0442557,25.6021505 L40.4140333,30.2795699 L36.8232866,30.2795699 L36.8232866,30.2795699 Z"/>
  </g>
</svg>
