<svg xmlns="http://www.w3.org/2000/svg" width="48" height="48" viewBox="0 0 48 48">
  <g fill="none" fill-rule="evenodd">
    <circle cx="24" cy="24" r="24" fill="#000"/>
    <path fill="#FFF" d="M11.1941176,12 L11.2176471,12 C12.1532824,12 12.9117647,12.7584823 12.9117647,13.6941176 L12.9117647,34.3058824 C12.9117647,35.2415177 12.1532824,36 11.2176471,36 L11.1941176,36 C10.2584823,36 9.5,35.2415177 9.5,34.3058824 L9.5,13.6941176 C9.5,12.7584823 10.2584823,12 11.1941176,12 Z M36.7823529,12 L36.8058824,12 C37.7415177,12 38.5,12.7584823 38.5,13.6941176 L38.5,34.3058824 C38.5,35.2415177 37.7415177,36 36.8058824,36 L36.7823529,36 C35.8467176,36 35.0882353,35.2415177 35.0882353,34.3058824 L35.0882353,13.6941176 C35.0882353,12.7584823 35.8467176,12 36.7823529,12 Z M19.7235294,17.1428571 L19.7470588,17.1428571 C20.6826942,17.1428571 21.4411765,17.9013394 21.4411765,18.8369748 L21.4411765,30.8773109 C21.4411765,31.8129463 20.6826942,32.5714286 19.7470588,32.5714286 L19.7235294,32.5714286 C18.7878941,32.5714286 18.0294118,31.8129463 18.0294118,30.8773109 L18.0294118,18.8369748 C18.0294118,17.9013394 18.7878941,17.1428571 19.7235294,17.1428571 Z M28.2529412,20.5714286 L28.2764706,20.5714286 C29.2121059,20.5714286 29.9705882,21.3299109 29.9705882,22.2655462 L29.9705882,27.4487395 C29.9705882,28.3843748 29.2121059,29.1428571 28.2764706,29.1428571 L28.2529412,29.1428571 C27.3173058,29.1428571 26.5588235,28.3843748 26.5588235,27.4487395 L26.5588235,22.2655462 C26.5588235,21.3299109 27.3173058,20.5714286 28.2529412,20.5714286 Z"/>
  </g>
</svg>
