<svg xmlns="http://www.w3.org/2000/svg" width="48" height="48" viewBox="0 0 48 48">
  <g fill="none" fill-rule="evenodd">
    <circle cx="24" cy="24" r="24" fill="#1A53F0"/>
    <path fill="#FFF" fill-rule="nonzero" d="M16.7749508,25.4135021 C20.5521358,25.4135021 23.5499017,28.4261603 23.5499017,32.2067511 C23.5499017,35.9873418 20.4921805,39 16.7749508,39 C13.0577212,39 10,35.9873418 10,32.2067511 C10,28.4261603 13.0577212,25.4135021 16.7749508,25.4135021 Z M16.7749508,36.814346 C19.4129848,36.814346 21.4514656,34.7468354 21.4514656,32.0295359 C21.4514656,29.3122363 19.3530295,27.2447257 16.7749508,27.2447257 C14.1968722,27.2447257 12.0984361,29.3122363 12.0984361,32.0295359 C12.0984361,34.7468354 14.1369169,36.814346 16.7749508,36.814346 Z M31.2841376,11 C35.0013672,11 38.0590884,14.1308017 37.9991331,17.7341772 C37.9991331,20.4514768 36.3203842,22.9324895 33.8622162,23.9957806 C31.4040482,24.9409283 28.4662377,24.4092827 26.5476675,22.5189873 C24.6290974,20.628692 23.9695889,17.7932489 25.0487846,15.1940928 C26.068025,12.6540084 28.526193,11 31.2841376,11 Z M31.2841376,22.4008439 C33.9221715,22.4008439 35.9606523,20.3333333 35.9606523,17.6160338 C35.9606523,14.8987342 33.8622162,12.8312236 31.2841376,12.8312236 C28.7060589,12.8312236 26.6076228,14.8987342 26.6076228,17.6160338 C26.6076228,20.3333333 28.6461036,22.4008439 31.2841376,22.4008439 Z M16.7749508,11 C16.7749508,11 23.6698123,11 23.6698123,11 L23.6698123,13.0675105 L21.7512421,13.0675105 C23.9695889,15.371308 24.2693655,19.0337553 22.4707059,21.6329114 C20.5521358,24.350211 17.2545934,25.2953586 14.1968722,24.0548523 C11.2590617,22.6962025 9.46040215,19.5654008 10.179866,16.4345992 C10.7194638,13.3037975 13.597319,11 16.7749508,11 Z M21.5114209,17.7932489 C21.5114209,15.1940928 19.4129848,13.0084388 16.8349061,13.0084388 C14.2568275,13.0084388 12.1583914,15.1940928 12.1583914,17.7932489 C12.1583914,20.5105485 14.2568275,22.5780591 16.8349061,22.5780591 C19.4129848,22.5780591 21.5114209,20.3924051 21.5114209,17.7932489 Z"/>
  </g>
</svg>
