<svg xmlns="http://www.w3.org/2000/svg" width="48" height="48" viewBox="0 0 48 48">
  <g fill="none" fill-rule="evenodd">
    <circle cx="24" cy="24" r="24" fill="#E9E9E9"/>
    <path fill="#0094DD" d="M14.4084956,15.6449949 C8.11092613,22.025684 8.11092613,29.4102994 14.4084956,37.7988411 C19.1848845,41.8050911 23.1263775,42.5087369 26.2329747,39.9097786 C29.339572,37.3108202 32.3807178,35.1302513 35.3564122,33.3680718 C41.4772456,30.8963371 43.8475581,27.3352393 42.4673497,22.6847786 C38.2562386,15.4427647 33.7829747,11.5129036 29.0475581,10.8951952 C25.1771937,10.8753567 22.3146937,11.1663156 20.4600581,11.7680718 C19.0615687,12.2218266 17.0443812,13.5141343 14.4084956,15.6449949 Z" opacity=".65"/>
    <path fill="#A8C703" d="M33.1491206,30.2386247 C31.0084956,34.8016856 27.6343636,37.0832161 23.0267247,37.0832161 C16.1152664,37.0832161 10.3116206,38.120656 7.49391224,35.0296103 C4.67620391,31.9385646 3.69703724,25.9248827 7.49391224,22.5639452 C8.13523169,21.9414693 8.45589141,20.5017123 8.45589141,18.2446744 C8.45589141,14.8591175 8.45677083,7.89114875 19.0745603,7.89114875 C29.6923497,7.89114875 39.6152664,17.5576952 39.6152664,18.2446744 C39.6152664,18.5386964 41.3919461,20.7201353 39.6152664,23.9321744 C38.9547448,25.1263239 36.7993628,27.228474 33.1491206,30.2386247 Z" opacity=".652"/>
    <path fill="#EDE700" d="M11.5814122,35.0296103 C6.40120391,25.0872225 8.96682891,15.638598 19.2782872,6.6837369 C22.1852317,5.27329352 25.9406136,6.04499491 30.5444331,8.99884106 C33.0777664,10.262444 35.5505095,10.8942455 37.9626622,10.8942455 C41.2189817,11.87904 42.0330616,14.9395462 40.4049018,20.0757641 C38.7767421,25.2119821 34.7130095,30.1965975 28.2137039,35.0296103 C24.1396298,36.4035419 21.1611576,37.0905077 19.2782872,37.0905077 C17.3954169,37.0905077 14.8297919,36.4035419 11.5814122,35.0296103 Z" opacity=".65"/>
    <path fill="#63B842" d="M32.4863948,31.5107001 C31.2034836,32.6924666 29.7792533,33.8654367 28.2137039,35.0296103 C24.1396298,36.4035419 21.1611576,37.0905077 19.2782872,37.0905077 C17.3954169,37.0905077 14.8297919,36.4035419 11.5814122,35.0296103 C6.63916398,25.5439399 8.7474627,16.5077113 17.9063084,7.9209246 C18.280698,7.90126869 18.6699194,7.89114875 19.0745603,7.89114875 C29.6923497,7.89114875 39.6152664,17.5576952 39.6152664,18.2446744 C39.6152664,18.4055767 40.147343,19.131719 40.337966,20.2826791 C39.5080372,22.7976296 38.0932346,25.2761745 36.0935581,27.7183138 C35.2535546,28.472483 34.2720755,29.3125866 33.1491206,30.2386247 C32.9399857,30.6844269 32.7190771,31.108452 32.4863948,31.5107001 Z"/>
    <path fill="#005424" d="M27.2330457,10.9103185 C32.1569757,11.454958 34.9814312,13.8207503 35.7064122,18.0076952 C36.6408253,23.4041617 35.2587073,28.5242873 31.5600581,33.3680718 C28.0503359,36.3858069 23.9564122,37.6266188 19.2782872,37.0905077 C16.7697959,37.0905077 14.7215457,36.7214078 13.1335367,35.983208 C8.1442851,28.3406936 8.56927139,21.5612892 14.4084956,15.6449949 C17.0443812,13.5141343 19.0615687,12.2218266 20.4600581,11.7680718 C22.0119974,11.2645286 24.2696599,10.9786108 27.2330457,10.9103185 Z"/>
    <ellipse cx="23.162" cy="23.798" fill="#FFF" rx="10.133" ry="9.6" transform="rotate(-41 23.162 23.798)"/>
  </g>
</svg>
