<svg xmlns="http://www.w3.org/2000/svg" width="48" height="48" viewBox="0 0 48 48">
  <defs>
    <linearGradient id="pdx-a" x1="100%" x2="0%" y1="50%" y2="50%">
      <stop offset="0%" stop-color="#BF01FF"/>
      <stop offset="100%" stop-color="#01CBFF"/>
    </linearGradient>
  </defs>
  <g fill="none" fill-rule="evenodd">
    <circle cx="24" cy="24" r="24" fill="url(#pdx-a)"/>
    <path fill="#FFF" fill-rule="nonzero" d="M20.7306302,29.1337135 C21.8183024,28.2065191 27.9218531,20.6386782 28.0169779,20.4941792 C28.4396177,20.0414931 29.1474008,19.9938586 29.6276586,20.396471 C30.1243957,20.8128985 30.189621,21.5533097 29.7733433,22.0502256 C28.9493422,23.033846 28.181974,23.9751694 27.3152912,25.0586846 C27.0347223,25.4094483 25.7121444,27.0735769 25.3779494,27.4891832 C23.9899902,29.2152551 23.1439815,30.1610888 22.2528785,30.9207164 C20.5395197,32.3812821 18.7877269,32.9566004 15.9967623,33 C11.0279877,33 7,28.9705627 7,24 C7,19.0294373 11.0279877,15 15.9967623,15 C18.8816703,15 20.7893291,15.7354754 22.3971251,17.6575319 C22.813045,18.1547477 22.7472867,18.8951116 22.2502498,19.3111812 C21.753213,19.7272507 21.0131153,19.6614687 20.5971955,19.164253 C19.478497,17.8268932 18.235904,17.3478261 15.9967623,17.3478261 C12.3241897,17.3478261 9.34698146,20.3261058 9.34698146,24 C9.34698146,27.6738942 12.3241897,30.6521739 15.9784632,30.6523166 C18.2369534,30.6170815 19.462785,30.2144978 20.7306302,29.1337135 Z M25.6473709,30.4637341 C25.231451,29.9665184 25.2972094,29.2261544 25.7942462,28.8100849 C26.2912831,28.3940153 27.0313807,28.4597973 27.4473005,28.957013 C28.5255767,30.2460495 29.6661564,30.6521739 32.0032377,30.6521739 C35.6758103,30.6521739 38.6530185,27.6738942 38.6530185,24 C38.6530185,20.3261058 35.6758103,17.3478261 32.0215368,17.3476834 C29.8274683,17.3819134 28.9066129,17.6208431 27.9772142,18.3644522 C27.1735066,19.0074964 22.1813916,25.0901782 19.9938522,27.4940358 C19.5575648,27.9734662 18.8153685,28.0083132 18.3361106,27.5718687 C17.8568526,27.1354242 17.8220182,26.3929609 18.2583056,25.9135305 C20.286792,23.6844541 25.4816434,17.3547465 26.5112797,16.5309375 C27.9185027,15.4050225 29.3186229,15.0417404 32.0032377,15 C36.9720123,15 41,19.0294373 41,24 C41,28.9705627 36.9720123,33 32.0032377,33 C29.0321246,33 27.2331163,32.35943 25.6473709,30.4637341 Z"/>
  </g>
</svg>
