<svg xmlns="http://www.w3.org/2000/svg" width="48" height="48" viewBox="0 0 48 48">
  <g fill="none" fill-rule="evenodd">
    <circle cx="24" cy="24" r="24" fill="#08C698"/>
    <path fill="#FFF" fill-rule="nonzero" d="M29.9255233,23.5805921 C29.9358173,23.5805921 29.9456367,23.5849216 29.9525797,23.5925217 C29.9662306,23.6074645 29.9651832,23.6306442 29.9502404,23.6442951 L19.0629907,33.5902382 C19.0509841,33.6012068 19.033185,33.6029506 19.0192778,33.594521 C19.0019697,33.5840298 18.9964435,33.5614941 19.0069346,33.544186 L23.9839596,25.3331578 C23.9874315,25.3274298 23.9892672,25.3208599 23.9892672,25.3141619 C23.9892672,25.2939225 23.97286,25.2775152 23.9526205,25.2775152 L18.0743068,25.2775152 C18.0696011,25.2775152 18.0649396,25.276609 18.0605767,25.274846 C18.0418115,25.2672631 18.0327464,25.2459037 18.0403293,25.2271385 L21.4392834,16.8158161 C21.4448801,16.8019662 21.4583229,16.7928994 21.4732609,16.7928994 L29.0868,16.7928994 C29.0947906,16.7928994 29.1025622,16.7955111 29.1089312,16.8003367 C29.1250631,16.8125594 29.1282321,16.8355454 29.1160094,16.8516773 L24.0622212,23.5218142 C24.0573956,23.5281831 24.0547839,23.5359548 24.0547839,23.5439454 C24.0547839,23.5641848 24.0711912,23.5805921 24.0914306,23.5805921 L29.9255233,23.5805921 Z M39.1734088,33.687529 L35.2715755,29.7847674 C36.1633259,28.0506939 36.6666667,26.0841277 36.6666667,24 C36.6666667,17.0043932 30.9956068,11.3333333 24,11.3333333 C17.0043932,11.3333333 11.3333333,17.0043932 11.3333333,24 C11.3333333,30.9956068 17.0043932,36.6666667 24,36.6666667 C25.118024,36.6666667 26.2022166,36.5218176 27.2348353,36.2498621 L31.3981961,40.4142134 C29.141416,41.4329792 26.6369254,42 24,42 C14.0588745,42 6,33.9411255 6,24 C6,14.0588745 14.0588745,6 24,6 C33.9411255,6 42,14.0588745 42,24 C42,27.5665164 40.9627302,30.8907654 39.1734088,33.687529 Z M41.9926751,39.1200126 L32.8272524,39.1200126 L27.6257143,34.1514808 L28.1237209,29.9595119 L32.3397595,29.4643485 L41.9926751,39.1200126 Z"/>
  </g>
</svg>
