<svg xmlns="http://www.w3.org/2000/svg" width="48" height="48" viewBox="0 0 48 48">
  <g fill="none" fill-rule="evenodd">
    <circle cx="24" cy="24" r="24" fill="#1D9BE0" fill-rule="nonzero"/>
    <path fill="#FFF" fill-rule="nonzero" d="M30.4959015,31.1052632 L25.1566787,31.7586207 C25.1566787,31.9764065 25.1016352,32.1397459 24.9915481,32.3030853 L28.2391166,36.7132486 L28.2941601,36.7132486 L30.7160756,31.5408348 C30.6059886,31.3774955 30.550945,31.2686025 30.4959015,31.1052632 Z M30.7711192,29.8529946 L28.4592907,25.1705989 L28.4042472,25.1705989 C28.2941601,25.1705989 28.1840731,25.1705989 28.073986,25.1161525 L24.6612869,30.7241379 L24.771374,30.8330309 L30.550945,30.1796733 C30.6059886,30.0707804 30.7160756,29.9618875 30.7711192,29.8529946 Z M32.4224252,29.7985481 C32.6976428,30.0163339 32.8627734,30.3430127 32.8627734,30.7241379 C32.8627734,30.7241379 32.8627734,30.7241379 32.8627734,30.7785844 L35.1195583,31.6497278 C35.0094712,29.6352087 34.8443406,27.6206897 34.67921,25.6061706 L32.4224252,29.7985481 Z M31.5417286,31.9219601 L29.5051179,36.277677 L34.8443406,32.5208711 L32.4774687,31.5952813 C32.2572946,31.8130672 31.9270334,31.9219601 31.6518157,31.9219601 L31.5417286,31.9219601 Z M30.550945,16.8947368 C30.6059886,16.7858439 30.6610321,16.7313975 30.7160756,16.6225045 L28.3492037,11.5045372 C28.2391166,11.5045372 28.1840731,11.5045372 28.073986,11.4500907 L24.9365046,15.6969147 C25.0465917,15.8602541 25.1016352,16.0235935 25.1016352,16.2413793 L30.550945,16.8947368 Z M30.7160756,18.2014519 C30.6059886,18.092559 30.4959015,17.9292196 30.440858,17.7658802 L24.8264175,17.1125227 L24.7163305,17.2214156 L28.1290295,22.8294011 C28.2391166,22.7749546 28.3492037,22.7749546 28.4592907,22.7749546 L28.5143343,22.7749546 C29.2299002,21.3049002 30.0005097,19.7259528 30.7160756,18.2014519 L30.7160756,18.2014519 Z M32.8627734,17.384755 C32.8627734,17.384755 32.8627734,17.4392015 32.8627734,17.384755 C32.8627734,17.7658802 32.6976428,18.092559 32.4774687,18.3103448 L34.67921,22.3938294 C34.7892971,20.4882033 34.9544277,18.5281307 35.0645148,16.6225045 L35.0094712,16.5680581 L32.8627734,17.384755 Z M31.6518157,16.2413793 L31.6518157,16.2413793 C31.9820769,16.2413793 32.2572946,16.3502722 32.4774687,16.5680581 L34.569123,15.7513612 C34.569123,15.6969147 34.569123,15.6424682 34.569123,15.5880218 C34.569123,15.5335753 34.569123,15.4791289 34.569123,15.4246824 L29.6152049,11.9401089 C30.2757274,13.4101633 30.9912933,14.8257713 31.6518157,16.2413793 Z M17.340497,30.2341198 L23.0099809,30.8874773 L23.0650245,30.8330309 L19.5422383,25.1705989 L19.3771077,25.1705989 L19.3220642,25.1705989 C18.5514547,26.7495463 17.7808452,28.3284936 17.0102358,29.907441 C17.1203228,29.9618875 17.2304099,30.1252269 17.340497,30.2341198 L17.340497,30.2341198 Z M17.1753664,31.4863884 C17.9459758,33.1742287 18.7165853,34.9165154 19.5422383,36.6043557 L22.8448503,32.2486388 C22.7347633,32.1397459 22.6797197,31.9764065 22.6797197,31.8130672 L17.340497,31.1597096 C17.2854534,31.2686025 17.2304099,31.3774955 17.1753664,31.4863884 L17.1753664,31.4863884 Z M15.4690168,29.8529946 L12.7168401,25.1705989 L12.6067531,25.1705989 C12.496666,27.2395644 12.3865789,29.3085299 12.3315354,31.3774955 L12.3315354,31.3774955 C12.496666,31.4319419 12.6067531,31.4863884 12.7168401,31.5408348 L14.9185815,30.6696915 C14.973625,30.3430127 15.1387556,30.0163339 15.4690168,29.8529946 L15.4690168,29.8529946 Z M15.3038862,31.5408348 L13.2672755,32.3575318 C13.2672755,32.4119782 13.2672755,32.5208711 13.2672755,32.5753176 C13.2672755,32.6297641 13.2672755,32.6842105 13.2672755,32.738657 L18.3863241,36.4410163 C17.6707582,34.9165154 16.9551922,33.446461 16.2396263,31.9219601 L16.1295392,31.9219601 C15.8543216,31.9219601 15.5240604,31.7586207 15.3038862,31.5408348 L15.3038862,31.5408348 Z M17.2854534,16.8402904 L22.7347633,16.1869328 C22.7347633,16.0235935 22.7898068,15.9147005 22.8448503,15.7513612 C21.7439796,14.3357532 20.643109,12.9201452 19.5972818,11.5045372 C19.5422383,11.5045372 19.4871948,11.5045372 19.4871948,11.5045372 L17.1203228,16.6225045 C17.1203228,16.676951 17.1753664,16.7858439 17.2854534,16.8402904 L17.2854534,16.8402904 Z M17.3955405,17.7114338 C17.340497,17.8747731 17.2854534,18.0381125 17.1203228,18.2014519 L19.3771077,22.7749546 L19.4321512,22.7749546 L19.5972818,22.7749546 L23.0099809,17.0580762 L22.9549374,17.0036298 L17.3955405,17.7114338 Z M15.0286686,17.4392015 L12.8269272,16.5680581 C12.7168401,16.676951 12.5517095,16.7313975 12.4416225,16.7313975 L12.4416225,16.7313975 C12.5517095,18.7459165 12.6617966,20.7604356 12.7168401,22.7749546 L12.8269272,22.7749546 C13.7076237,21.2504537 14.5332768,19.7803993 15.4139733,18.2558984 C15.1387556,18.0381125 14.973625,17.7658802 15.0286686,17.4392015 L15.0286686,17.4392015 Z M15.3038862,16.6225045 C15.5240604,16.3502722 15.8543216,16.2413793 16.1845828,16.2413793 L16.1845828,16.2413793 L18.2211935,11.831216 L13.2122319,15.4246824 C13.2122319,15.4791289 13.2122319,15.5335753 13.2122319,15.5880218 C13.2122319,15.6424682 13.2122319,15.7513612 13.2122319,15.8058076 L15.3038862,16.6225045 Z M27.248333,38.0744102 L20.5880654,38.0744102 C20.4229348,38.7277677 19.7624124,39.1088929 19.10189,38.9455535 C18.5514547,38.8366606 18.16615,38.3466425 18.16615,37.8021779 C18.16615,37.6932849 18.16615,37.5299456 18.2211935,37.4210526 L12.7168401,33.446461 C12.1664048,33.8275862 11.3957953,33.7186933 11.0104906,33.1742287 C10.84536,32.9564428 10.7903165,32.738657 10.7903165,32.5208711 C10.7903165,32.1397459 11.0104906,31.7586207 11.3407518,31.5408348 C10.5150988,29.4174229 9.6894458,27.2395644 8.91883633,25.1161525 C8.25831393,24.9528131 7.87300919,24.353902 8.03813979,23.7005445 C8.14822686,23.2105263 8.53353159,22.8838475 9.0289234,22.7749546 L11.3957953,16.5136116 C11.0655341,16.2958258 10.84536,15.9147005 10.84536,15.5335753 C10.84536,14.8802178 11.4508389,14.3357532 12.1113613,14.3357532 C12.3315354,14.3357532 12.6067531,14.4446461 12.7718837,14.553539 L18.276237,10.5789474 C18.2211935,10.4700544 18.2211935,10.3611615 18.2211935,10.1978221 C18.2211935,9.54446461 18.8266724,9 19.4871948,9 C20.0376301,9 20.5330219,9.38112523 20.643109,9.92558984 L27.248333,9.92558984 C27.4134636,9.2722323 28.073986,8.89110708 28.7345084,9.05444646 C29.2849437,9.16333938 29.6702485,9.65335753 29.6702485,10.1978221 C29.6702485,10.3611615 29.6152049,10.5245009 29.5601614,10.6333938 L35.0645148,14.4990926 C35.6149501,14.1179673 36.3855596,14.2268603 36.7708643,14.7713249 C36.9359949,14.9891107 36.9910384,15.2068966 36.9910384,15.4246824 C36.9910384,15.8058076 36.7708643,16.1869328 36.4406031,16.4591652 C37.156169,18.5281307 37.9267785,20.5970962 38.697388,22.6660617 C39.3579104,22.6660617 39.9083457,23.2105263 39.9083457,23.8638838 C39.9083457,24.5172414 39.3579104,25.061706 38.697388,25.061706 C37.871735,27.4029038 37.046082,29.6896552 36.1653854,32.030853 C36.1653854,32.030853 36.1653854,32.030853 36.1653854,32.0852995 C36.1653854,32.0852995 36.220429,32.1397459 36.220429,32.1397459 L39.3028669,34.862069 C39.5780845,34.6442831 39.9633893,34.5898367 40.2936505,34.5898367 C41.2844341,34.5898367 42,35.4065336 42,36.3865699 C42,37.3666062 41.174347,38.0744102 40.1835634,38.0744102 C39.2478233,38.0744102 38.4772139,37.2577132 38.4772139,36.3321234 C38.4772139,36.0598911 38.5322574,35.8421053 38.6423445,35.6243194 L35.6699936,33.0108893 L29.5051179,37.3666062 C29.5601614,37.5299456 29.6152049,37.6388385 29.6152049,37.8021779 C29.6152049,38.4555354 29.0097261,39 28.3492037,39 C27.8538119,39 27.4134636,38.6188748 27.248333,38.0744102 L27.248333,38.0744102 Z M27.4134636,37.2032668 L24.1658951,32.7931034 C24.0558081,32.7931034 24.0007645,32.7931034 23.8906775,32.7931034 C23.7805904,32.7931034 23.7255469,32.7931034 23.6154598,32.738657 L20.3128478,37.0399274 C20.3678913,37.0943739 20.3678913,37.0943739 20.4229348,37.1488203 L27.4134636,37.2032668 L27.4134636,37.2032668 Z M23.6154598,15.2068966 C23.7255469,15.2068966 23.7805904,15.1524501 23.8906775,15.1524501 C24.0007645,15.1524501 24.0558081,15.1524501 24.1658951,15.1524501 L27.3033765,10.9600726 L20.4229348,10.9600726 L20.4229348,10.9600726 L23.6154598,15.2068966 Z M34.0737312,24.4627949 L29.5601614,24.4627949 C29.5051179,24.5716878 29.4500743,24.6805808 29.3399873,24.7894737 C30.0555532,26.3139746 30.8261627,27.8384755 31.5967722,29.3085299 C32.4774687,27.7295826 33.3031217,26.1506352 34.1838182,24.5716878 C34.1287747,24.5172414 34.1287747,24.5172414 34.0737312,24.4627949 L34.0737312,24.4627949 Z M34.0737312,23.5372051 C34.0737312,23.4827586 34.1287747,23.4283122 34.1287747,23.3738657 L31.5967722,18.6370236 L29.3399873,23.1560799 C29.4500743,23.2649728 29.5051179,23.3738657 29.5601614,23.4827586 L34.0737312,23.5372051 Z M36.330516,24.4627949 C36.1653854,24.7894737 35.8901678,25.061706 35.5599066,25.1161525 C35.6699936,26.7495463 35.7800807,28.3829401 35.8901678,30.0163339 C36.4956466,28.2740472 37.156169,26.5862069 37.7616479,24.8439201 C37.6515608,24.7350272 37.5414738,24.5716878 37.4864302,24.4627949 L36.330516,24.4627949 Z M36.330516,23.5372051 L37.4864302,23.5372051 C37.5414738,23.3738657 37.6515608,23.2649728 37.7616479,23.1560799 L35.8901678,18.0381125 C35.7800807,19.6715064 35.6699936,21.3049002 35.5599066,22.8838475 C35.9452113,22.938294 36.220429,23.2105263 36.330516,23.5372051 L36.330516,23.5372051 Z M27.3033765,24.4627949 L20.5330219,24.4627949 C20.4779784,24.5716878 20.4229348,24.6261343 20.3678913,24.7350272 C21.5238055,26.6406534 22.6797197,28.5462795 23.8356339,30.4519056 L27.3584201,24.5716878 C27.3584201,24.5172414 27.3033765,24.4627949 27.3033765,24.4627949 Z M27.3033765,23.5372051 C27.3033765,23.4827586 27.3033765,23.4827586 27.3584201,23.4283122 L23.8356339,17.5480944 C22.6797197,19.4537205 21.5238055,21.3593466 20.3678913,23.2649728 C20.4229348,23.3194192 20.4779784,23.4283122 20.5330219,23.5372051 L27.3033765,23.5372051 Z M18.4413676,24.7894737 C18.3312806,24.6805808 18.276237,24.5716878 18.2211935,24.4627949 L13.7076237,24.4627949 C13.6525802,24.5716878 13.5975367,24.6261343 13.5424931,24.7350272 L16.1845828,29.3629764 C16.9551922,27.8384755 17.7258017,26.3139746 18.4413676,24.7894737 Z M18.4413676,23.2105263 L16.2396263,18.6370236 L13.5975367,23.2649728 C13.6525802,23.3738657 13.7076237,23.4283122 13.7626673,23.5372051 L18.276237,23.5372051 C18.3312806,23.4283122 18.3863241,23.3194192 18.4413676,23.2105263 Z M11.4508389,24.4627949 L10.3499682,24.4627949 C10.2398811,24.6805808 10.1297941,24.8983666 9.90961993,25.0072595 C10.4600553,26.4228675 11.0104906,27.892922 11.5609259,29.3085299 L11.7811001,24.8983666 C11.6159695,24.7350272 11.5609259,24.6261343 11.4508389,24.4627949 L11.4508389,24.4627949 Z M11.4508389,23.5372051 C11.5058824,23.3738657 11.6159695,23.2649728 11.7260565,23.1560799 L11.5058824,18.9092559 C11.0104906,20.2704174 10.4600553,21.6860254 9.96466347,23.0471869 C10.1297941,23.1560799 10.2949247,23.3194192 10.3499682,23.5372051 L11.4508389,23.5372051 Z"/>
  </g>
</svg>
