<svg xmlns="http://www.w3.org/2000/svg" width="48" height="48" viewBox="0 0 48 48">
  <g fill="none" fill-rule="evenodd">
    <path fill="#000" d="M48,24 C48,37.2545455 37.2545455,48 24,48 C10.7454545,48 0,37.2545455 0,24 C0,10.7454545 10.7454545,0 24,0 C37.2545455,0 48,10.7454545 48,24"/>
    <path fill="#FFF" fill-rule="nonzero" d="M12.1929653,19.3747871 C14.3619932,20.9080068 18.3204691,22.032368 19.2423059,23.6678024 C20.1641427,25.3032368 22.2247192,28.5229983 22.4958477,29.0340716 C22.7669762,29.5451448 23.3634589,30.1584327 24.0141672,30.1584327 L24.0141672,30.1584327 C24.0141672,30.1584327 24.0141672,30.1584327 24.0141672,30.1584327 C24.0141672,30.1584327 24.0141672,30.1584327 24.0141672,30.1584327 L24.0141672,30.1584327 C24.6648756,30.1584327 25.2613582,29.4940375 25.5324867,29.0340716 C25.8036152,28.5229983 27.809966,25.3032368 28.7860285,23.6678024 C29.7078654,22.032368 33.6663412,20.8568995 35.8353691,19.3747871 C38.004397,17.8415673 36.5403032,15.6439523 36.214949,15.3373083 C35.8353691,14.9795571 28.4064486,10.7376491 26.8881291,9.86882453 C25.3698096,9 24.3937471,9 24.0683929,9 C24.0683929,9 24.0683929,9 24.0683929,9 C24.0683929,9 24.0683929,9 24.0683929,9 C23.7430387,9 22.7669762,9 21.2486567,9.86882453 C19.7303372,10.7376491 12.247191,14.9795571 11.9218368,15.3373083 C11.5964827,15.6950596 10.0239375,17.8926746 12.1929653,19.3747871 Z M14.7957988,15.8483816 C15.121153,15.6439523 22.3331706,11.0954003 23.9599415,11.1465077 C25.5867124,11.0954003 32.7987301,15.6439523 33.1240843,15.8483816 C33.4494384,16.0528109 33.4494384,17.1260647 33.1240843,17.5349233 C32.7987301,17.9437819 27.4846118,21.4190801 26.5085493,22.2367973 C25.4240353,23.0545145 23.9599415,26.0187394 23.9599415,26.0698467 C23.9599415,26.0698467 22.4958477,23.0545145 21.4655595,22.2367973 C20.4894969,21.4190801 15.1753786,17.9437819 14.8500245,17.5349233 C14.5246703,17.1260647 14.5246703,16.0528109 14.7957988,15.8483816 Z"/>
    <path fill="#D0D0D0" fill-rule="nonzero" d="M35.7811434,20.7035775 C35.7811434,20.7035775 34.7508552,20.7035775 34.7508552,21.6235094 C34.7508552,22.5434412 34.7508552,29.0851789 34.7508552,29.5451448 C34.7508552,30.0051107 34.2085982,30.669506 33.340987,31.1294719 C32.5818273,31.5383305 25.6951638,35.6269165 23.9599415,36.1379898 C22.2247192,35.6780239 15.3380557,31.5383305 14.578896,31.1294719 C13.7655105,30.7206133 13.1690279,30.0051107 13.1690279,29.5451448 C13.1690279,29.0851789 13.1690279,22.5945486 13.1690279,21.6235094 C13.1690279,20.6524702 12.1387396,20.7035775 12.1387396,20.7035775 C11.2711285,20.7035775 11,21.3168654 11,21.6746167 C11,22.032368 11,22.2879046 11,22.8500852 C11,22.8500852 11.1084514,30.7206133 11.1084514,31.3339012 C11.1084514,31.9471891 11.7049341,32.253833 11.8676111,32.3560477 C12.0302882,32.4582624 22.983879,38.4889267 23.5261359,38.7955707 C23.6345873,38.846678 23.7430387,38.8977853 23.7972644,38.9488927 C23.8514901,39 23.9057158,39 23.9599415,39 C23.9599415,39 23.9599415,39 23.9599415,39 C23.9599415,39 23.9599415,39 23.9599415,39 C24.0141672,39 24.0683929,39 24.1226186,38.9488927 C24.23107,38.8977853 24.2852957,38.8977853 24.3937471,38.7955707 C24.9360041,38.4889267 35.8895948,32.4582624 36.0522719,32.3560477 C36.214949,32.253833 36.8114316,31.9471891 36.8114316,31.3339012 C36.8114316,30.7206133 36.919883,22.8500852 36.919883,22.8500852 C36.919883,22.2879046 36.919883,21.9812606 36.919883,21.6746167 C36.919883,21.3679727 36.6487545,20.7035775 35.7811434,20.7035775 Z"/>
  </g>
</svg>
