<svg xmlns="http://www.w3.org/2000/svg" width="48" height="48" viewBox="0 0 48 48">
  <g fill="none" fill-rule="evenodd">
    <circle cx="24" cy="24" r="24" fill="#4647FF"/>
    <path fill="#FFF" fill-rule="nonzero" d="M40.4995034,23.8706331 C40.4998343,23.9137163 40.5,23.9568388 40.5,24 C40.5,33.1126984 33.1126984,40.5 24,40.5 C17.0137436,40.5 11.0415947,36.1580893 8.63481597,30.0255305 C7.71420228,31.1964232 6.88233053,32.4426517 6.14627949,33.7516704 C5.97474203,34.0412027 5.68884626,34.214922 5.34577134,34.214922 C5.23141304,34.214922 5.05987557,34.214922 4.94551727,34.1570156 C4.54526319,33.9253898 4.37372573,33.4042316 4.60244234,32.94098 C5.56735741,31.1684054 6.69959604,29.5117716 7.98533385,27.9885788 C7.66826589,26.711329 7.5,25.3753148 7.5,24 C7.5,14.8873016 14.8873016,7.5 24,7.5 C32.1868265,7.5 38.9810538,13.4624262 40.2771602,21.281757 C41.2191797,20.0889323 42.06453,18.8172079 42.798117,17.4799555 C43.0268336,17.0167038 43.541446,16.8429844 43.9988792,17.0746102 C44.4563124,17.3062361 44.6278499,17.8853007 44.3991333,18.3485523 C43.3114907,20.3465806 42.0000649,22.1972994 40.4995034,23.8706331 Z M9.66388098,28.7901284 C11.6669978,34.7878631 17.3286246,39.1111111 24,39.1111111 C31.8818145,39.1111111 38.3542267,33.076743 39.0493106,25.3759329 C37.5149117,26.8588154 35.8194047,28.1730667 33.9925273,29.2928731 C29.0751201,32.1302895 22.7282341,32.5935412 19.4118431,32.5935412 L23.6431005,36.9944321 C23.814638,37.1681514 23.9289963,37.3997773 23.9289963,37.6314031 C23.9289963,37.863029 23.814638,38.0946548 23.6431005,38.2683742 C23.4715631,38.4420935 23.2428464,38.5 23.0141298,38.5 C22.7854132,38.5 22.5566966,38.3841871 22.3851591,38.2104677 L16.6100646,32.2461024 C16.2669897,31.8986637 16.2669897,31.3775056 16.6100646,31.0300668 L21.2987552,25.876392 C21.6418301,25.5289532 22.2136217,25.4710468 22.5566966,25.8184855 C22.7282341,25.9922049 22.8425924,26.2238307 22.8425924,26.4554566 C22.8425924,26.6870824 22.7854132,26.9187082 22.6138757,27.0924276 L19.2403057,30.7405345 C22.32798,30.7405345 28.5033286,30.3351893 33.13484,27.6714922 C35.32184,26.3109611 37.321057,24.63924 39.0578688,22.7224537 C38.409279,14.9747165 31.9153501,8.88888889 24,8.88888889 C15.6543638,8.88888889 8.88888889,15.6543638 8.88888889,24 C8.88888889,24.9248588 8.97197535,25.8303117 9.13109122,26.7093017 C10.8619442,24.8873067 12.8304993,23.2854307 15.0090483,21.9387528 C19.9836347,19.1013363 26.3876999,18.6380846 29.7040908,18.5801782 L25.4728334,14.0634744 C25.1297585,13.7160356 25.1297585,13.136971 25.4728334,12.7895323 C25.6443709,12.6158129 25.8730875,12.5 26.1018041,12.5 C26.3305207,12.5 26.5592374,12.6158129 26.7307748,12.7895323 L32.2771527,18.7538976 C32.391511,18.811804 32.5058693,18.9276169 32.5630485,19.1013363 C32.6774068,19.3908686 32.6774068,19.7383073 32.5058693,20.0278396 C32.4486902,20.201559 32.3343319,20.3173719 32.1627944,20.3752784 L27.6456413,25.4131403 C27.4741038,25.5868597 27.188208,25.7026726 26.9594914,25.7026726 C26.6164165,25.7026726 26.2733416,25.5289532 26.1589833,25.1815145 C26.044625,24.8340757 26.1018041,24.486637 26.3305207,24.1971047 L29.76127,20.4331849 C26.6164165,20.4910913 20.4410679,20.8964365 15.8667356,23.5601336 C13.5407776,24.9867305 11.4588213,26.755473 9.66388098,28.7901284 Z"/>
  </g>
</svg>
