<svg xmlns="http://www.w3.org/2000/svg" width="48" height="48" viewBox="0 0 48 48">
  <g fill="none">
    <circle cx="24" cy="24" r="24" fill="red"/>
    <path fill="#FFF" d="M35,11.24 L26.94882,22.8787839 L33.2941303,22.8787839 L33.2941303,25.4516999 L25.902209,25.4516999 L25.902209,28.9951718 L33.2941303,28.9951718 L33.2941303,31.6002609 L25.902209,31.6002609 L25.902209,36.76 L22.0991141,36.76 L22.0991141,31.6002609 L14.4366094,31.6002609 L14.4366094,28.9951718 L22.0991141,28.9951718 L22.0991141,25.4516999 L14.4366094,25.4516999 L14.4366094,22.8787839 L20.9742388,22.8787839 L13,11.24 L17.2879128,11.24 C21.0141003,17.0201961 23.2761656,20.6869291 24.0782813,22.2373624 L24.1551886,22.2373624 C24.4271629,21.5987086 25.1715387,20.3129598 26.3856699,18.380116 L30.945557,11.24 L35,11.24 L35,11.24 Z"/>
  </g>
</svg>
