<svg xmlns="http://www.w3.org/2000/svg" width="48" height="48" viewBox="0 0 48 48">
  <defs>
    <linearGradient id="safe-a" x1="50%" x2="50%" y1="3.57%" y2="100%">
      <stop offset="0%" stop-color="#EFEFEF"/>
      <stop offset="24.101%" stop-color="#757577"/>
      <stop offset="65.087%" stop-color="#D9D9D9"/>
      <stop offset="100%" stop-color="#727274"/>
    </linearGradient>
    <radialGradient id="safe-b" cx="50%" cy="50%" r="58.16%" fx="50%" fy="50%" gradientTransform="matrix(0 1 -.9239 0 .962 0)">
      <stop offset="0%" stop-color="#00CEFF"/>
      <stop offset="100%" stop-color="#0D002E"/>
    </radialGradient>
    <linearGradient id="safe-c" x1="1.785%" x2="98.215%" y1="51.785%" y2="51.785%">
      <stop offset="0%" stop-color="#7B7B7B"/>
      <stop offset="44.856%" stop-color="#FFF"/>
      <stop offset="85.098%" stop-color="#8F9CA4"/>
      <stop offset="100%" stop-color="#C7C7C7"/>
    </linearGradient>
  </defs>
  <g fill="none" fill-rule="evenodd">
    <circle cx="24" cy="24" r="24" fill="#000"/>
    <path fill="url(#safe-a)" d="M37.9703411,14.4523528 C37.6494596,24.7420706 32.146998,33.7259433 23.9851705,38.8817565 C15.8233442,33.7259451 10.3208815,24.7420717 10,14.4523528 C14.1758744,12.2479694 18.934783,11 23.9851705,11 C29.0355581,11 33.7944667,12.2479694 37.9703411,14.4523528 L37.9703411,14.4523528 Z"/>
    <path fill="#09174B" d="M23.9851705,36.7 C17.0008048,32.2180832 12.2925498,24.4852486 11.9851705,15.6311739 C15.5761178,13.7584501 19.6573222,12.7 23.9851705,12.7 C28.3130189,12.7 32.3942233,13.7584501 35.9851705,15.6311739 C35.6777913,24.4852486 30.9695363,32.2180832 23.9851705,36.7 Z"/>
    <path fill="url(#safe-b)" d="M12.4518161,19.7342884 C12.8837747,17.644027 13.8593903,15.752563 15.2242625,14.2142969 C17.9619607,13.2339264 20.9113569,12.7 23.9851705,12.7 C27.3015164,12.7 30.4730365,13.3215069 33.3901172,14.4546538 C34.427053,15.687201 35.2204938,17.1313932 35.6963323,18.713123 C34.8033148,24.5229951 31.9983993,29.7006674 27.9459176,33.580272 C26.7682343,33.9664995 25.5101889,34.1753988 24.2033524,34.1753988 C22.6351196,34.1753988 21.1371485,33.8745727 19.7639971,33.3274784 C16.0876563,29.709142 13.4781298,25.0055479 12.4518161,19.7342884 Z"/>
    <path fill="url(#safe-c)" fill-rule="nonzero" d="M26.4166667,19.75 C26.1930883,19.3177485 25.8949883,18.9749335 25.5223577,18.7215447 C25.1497271,18.4681559 24.6951246,18.3414634 24.1585366,18.3414634 C23.9051478,18.3414634 23.6480365,18.3712734 23.3871951,18.4308943 C23.1263537,18.4905152 22.8916,18.5836715 22.6829268,18.7103659 C22.4742537,18.8370603 22.3065724,18.997289 22.179878,19.1910569 C22.0531836,19.3848248 21.9898374,19.6233048 21.9898374,19.9065041 C21.9898374,20.3983764 22.1612449,20.7560964 22.504065,20.9796748 C22.8468852,21.2032532 23.3611077,21.3970182 24.046748,21.5609756 L25.5447154,21.9186992 C26.2750714,22.0826566 26.8824502,22.4142929 27.3668699,22.9136179 C27.8512897,23.4129429 28.0934959,24.0352266 28.0934959,24.7804878 C28.0934959,25.3468863 27.9779822,25.8350251 27.7469512,26.2449187 C27.5159203,26.6548123 27.2103678,26.9901748 26.8302846,27.2510163 C26.4502014,27.5118577 26.0142301,27.7018964 25.5223577,27.8211382 C25.0304853,27.94038 24.5311678,28 24.0243902,28 C23.2195082,28 22.4705319,27.8472237 21.777439,27.5416667 C21.0843461,27.2361096 20.4918724,26.7107083 20,25.9654472 L21.2743902,25.0934959 C21.5724947,25.5704631 21.948846,25.9505406 22.4034553,26.2337398 C22.8580646,26.5169391 23.3983709,26.6585366 24.0243902,26.6585366 C24.3224947,26.6585366 24.6205947,26.6250003 24.9186992,26.5579268 C25.2168037,26.4908533 25.4813674,26.3865183 25.7123984,26.2449187 C25.9434293,26.1033191 26.1297418,25.9207328 26.2713415,25.6971545 C26.4129411,25.4735761 26.4837398,25.2127386 26.4837398,24.9146341 C26.4837398,24.3929513 26.2899748,24.0166001 25.902439,23.7855691 C25.5149032,23.5545381 25.0453957,23.3719519 24.4939024,23.2378049 L23.0630081,22.902439 C22.8841454,22.8577234 22.6419392,22.7831984 22.3363821,22.6788618 C22.030825,22.5745252 21.732725,22.4180227 21.4420732,22.2093496 C21.1514213,22.0006765 20.9017626,21.7286602 20.6930894,21.3932927 C20.4844163,21.0579252 20.3800813,20.6443114 20.3800813,20.152439 C20.3800813,19.615851 20.4881426,19.1463435 20.7042683,18.7439024 C20.920394,18.3414614 21.2110415,18.0135514 21.5762195,17.7601626 C21.9413975,17.5067738 22.3550112,17.3167351 22.8170732,17.1900407 C23.2791351,17.0633462 23.7560951,17 24.2479675,17 C24.9783234,17 25.6565009,17.1415975 26.2825203,17.4247967 C26.9085397,17.707996 27.3929522,18.1924085 27.7357724,18.8780488 L26.4166667,19.75 Z"/>
  </g>
</svg>
