<svg xmlns="http://www.w3.org/2000/svg" width="48" height="48" viewBox="0 0 48 48">
  <g fill="none" fill-rule="evenodd">
    <path fill="#514099" d="M14.7631546,35.1093273 L2.73196931,35.1093273 C-2.70146918,24.7354607 0.170491166,11.8842528 9.56257771,4.83931347 C20.1189725,-3.1346288 35.2549797,-1.04437209 43.2498964,9.5617453 L24,9.5617453 C19.6532492,9.5617453 15.5393601,11.4971682 12.8226408,14.8260955 C7.69968451,20.9420318 8.63113111,29.9998109 14.7631546,35.1093273 Z M33.2368454,12.8906727 L45.2680307,12.8906727 C50.7014692,23.2645393 47.8295088,36.1157472 38.4374223,43.1606865 C27.8810275,51.1346288 12.7450203,49.0443721 4.75010361,38.4382547 L24,38.4382547 C28.3467508,38.4382547 32.4606399,36.5028318 35.1773592,33.1739045 C40.3003155,27.0579682 39.3688689,18.0001891 33.2368454,12.8906727 Z"/>
    <path fill="#F68617" fill-rule="nonzero" d="M24,12.5 C30.3448276,12.5 35.5,17.6551724 35.5,24 C35.5,30.3448276 30.3448276,35.5 24,35.5 C17.6551724,35.5 12.5,30.3448276 12.5,24 C12.5,17.6551724 17.6551724,12.5 24,12.5 Z M29.5517241,26.537931 C29.5517241,25.4275862 28.9172414,24.4758621 27.8862069,24 C28.837931,23.5241379 29.4724138,22.4931034 29.4724138,21.462069 C29.3931034,19.7172414 27.8862069,18.4482759 26.1413793,18.5275862 L18.5275862,18.5275862 L18.5275862,29.4724138 L26.2206897,29.4724138 C27.9655172,29.6310345 29.4724138,28.2827586 29.5517241,26.537931 Z M26.062069,25.3482759 C26.6220805,25.3482759 26.8709056,25.6782273 26.8709056,26.1017241 C26.8709056,26.525221 26.6220805,26.8551724 26.062069,26.8551724 L21.1448276,26.8551724 L21.1448276,25.3482759 L26.062069,25.3482759 Z M26.062069,21.125 C26.6220805,21.125 26.8709056,21.4549514 26.8709056,21.8784483 C26.8709056,22.3019452 26.6220805,22.6318966 26.062069,22.6318966 L21.1448276,22.6318966 L21.1448276,21.125 L26.062069,21.125 Z"/>
  </g>
</svg>
