<svg xmlns="http://www.w3.org/2000/svg" width="48" height="48" viewBox="0 0 48 48">
  <g fill="none" fill-rule="evenodd">
    <circle cx="24" cy="24" r="24" fill="#E9E9E9"/>
    <path fill="#2492D1" d="M24.5802687,9 L36.9807621,16.1594282 L36.9807621,30.5147966 L24.5802687,23.5494237 L24.5802687,9 Z M36.3174774,31.5423758 L23.9903811,38.6594282 L11.5095558,31.4536204 L24.0689335,24.6942095 L36.3174774,31.5423758 Z M11,30.3437937 L11,16.1594282 L23.3302687,9.04054426 L23.3302687,23.6745323 L11,30.3437937 Z"/>
    <polygon fill="#5781C1" points="11 16.159 13.887 18.025 23.33 12.318 23.33 9.043"/>
    <polygon fill="#4571B8" points="11 16.159 11 30.344 13.887 28.783 13.887 18.025"/>
    <polygon fill="#4953A3" points="11.51 31.454 23.99 38.659 23.998 35.415 14.215 29.971"/>
    <polygon fill="#5A5FAA" points="23.99 38.659 36.319 31.53 33.533 29.966 23.998 35.415"/>
    <polygon fill="#0784C9" points="34.274 28.997 36.981 30.503 36.981 16.143 34.094 17.826"/>
    <polygon fill="#2492D1" points="34.094 17.826 36.981 16.143 24.58 9.043 24.58 12.318"/>
    <polygon fill="#57CFEF" points="24.58 12.318 24.58 23.634 34.094 17.826"/>
    <polygon fill="#40A9CE" points="34.094 17.826 24.58 23.544 34.274 28.997"/>
    <polygon fill="#5A79BB" points="24.08 24.691 23.998 35.415 33.533 29.966"/>
    <polygon fill="#476DB4" points="24.08 24.691 23.998 35.415 14.215 29.971"/>
    <polygon fill="#40A9CE" points="23.33 23.733 13.887 28.783 13.887 18.025"/>
    <polygon fill="#009CC6" points="13.887 18.025 23.33 12.318 23.33 23.733"/>
  </g>
</svg>
