<svg xmlns="http://www.w3.org/2000/svg" width="48" height="48" viewBox="0 0 48 48">
  <g fill="none" fill-rule="evenodd">
    <path fill="#4360DF" d="M0,24 C0,37.2545455 10.7454545,48 24,48 C37.2545455,48 48,37.2545455 48,24 C48,10.7454545 37.2545455,0 24,0 C10.7454545,0 0,10.7454545 0,24 Z"/>
    <path fill="#FFF" fill-rule="nonzero" d="M17.5833333,23.6708627 C17.5833333,23.6708627 17.814316,22.7265386 26.591659,23.8597276 C34.9994297,25.0401327 34.9994297,18.3826476 34.9994297,18.3826476 C34.9994297,18.3826476 35.1842158,13 28.9014861,13 C22.6187564,13 18.1838884,17.6744045 17.5833333,23.6708627 Z M29.5,25.2183758 C29.5,25.2183758 29.2811805,26.0840063 20.966041,25.0452497 C13.0010126,23.9632117 13.0010126,30.0659064 13.0010126,30.0659064 C13.0010126,30.0659064 12.7821932,35 18.7778464,35 C24.7734996,35 28.8873055,30.7584108 29.5,25.2183758 Z"/>
  </g>
</svg>
