<svg xmlns="http://www.w3.org/2000/svg" width="48" height="48" viewBox="0 0 48 48">
  <g fill="none" fill-rule="evenodd">
    <circle cx="24" cy="24" r="24" fill="#EE4037"/>
    <path fill="#FFF" fill-rule="nonzero" d="M27.9417174,38.7296291 L25.1314406,40.8423847 C24.8488721,41.0548187 24.4624236,41.0522848 24.1825711,40.8361631 L12.5286166,31.8361635 C11.9248273,31.3698751 12.2490296,30.3902433 13.0071338,30.3902433 L18.7801576,30.3902433 C18.9516822,30.3902433 19.1185629,30.4469304 19.2556658,30.5517669 L26.8631083,36.3688398 C27.1696968,36.6032744 27.2613536,37.0206203 27.1016569,37.3594379 L31.6363181,33.9502965 C31.866527,33.7772264 32.1585371,33.7499567 32.4056192,33.8522038 L12.3160627,18.5033023 C11.9055266,18.1896429 11.8928359,17.5675249 12.2902274,17.2368148 L14.0706927,15.7551075 C14.2980088,15.5659346 14.5977252,15.5267971 14.8538627,15.6258985 L12.6888004,13.9446218 C12.2780319,13.62564 12.2732204,12.9982934 12.6790462,12.6728322 L18.2902095,8.17283237 C18.5708993,7.94772685 18.9651035,7.94196234 19.2520394,8.15876739 L21.1404117,9.5855966 C21.3457106,9.74071773 21.4559145,9.97771192 21.4597912,10.2191447 L24.129465,8.16318263 C24.413514,7.94443154 24.8062619,7.94573262 25.088904,8.16636103 L36.6889051,17.2212387 C37.2886773,17.6894167 36.9631742,18.664634 36.2071359,18.664634 L30.5959726,18.664634 C30.4268575,18.664634 30.2621906,18.6095264 30.1261143,18.5073908 L22.3028578,12.6354398 C22.0461379,12.4427519 21.937017,12.1221646 21.9977737,11.82395 L17.5313157,15.2636469 C17.4274079,15.343668 17.3103477,15.3936202 17.190224,15.4149218 L36.6873298,30.5553776 C37.0854676,30.8645511 37.1045833,31.4674412 36.7268583,31.802065 L35.0543,33.2837723 C34.9099655,33.4116371 34.7329677,33.4767764 34.5554894,33.4814476 L36.682393,35.1064529 C37.1004299,35.425843 37.1044472,36.0624654 36.6904756,36.3872874 L31.0253588,40.8324091 C30.7550288,41.044523 30.3814285,41.0563669 30.0986363,40.8617881 L28.2642175,39.5995931 C27.9787774,39.4031924 27.8593851,39.0505245 27.9417174,38.7296291 Z M28.7410987,38.1286572 C28.8828726,38.134629 29.0248216,38.1794518 29.1509832,38.2662588 L30.5116008,39.202449 L34.9007301,35.7585281 L32.7268435,34.0976268 C32.7323347,34.1046829 32.7377311,34.1118568 32.7430294,34.1191479 C33.0027978,34.4766218 32.9284741,34.9806041 32.5770227,35.2448239 L28.7410987,38.1286572 Z M15.2104751,15.9028255 C15.4573863,16.2455174 15.3999992,16.7287585 15.0728775,17.0009899 L14.0734725,17.8326971 L33.7688086,32.8804048 C33.6954817,32.5941464 33.7806579,32.2773586 34.0148552,32.0698849 L34.9559643,31.2361632 L15.2104751,15.9028255 Z M16.2656622,14.6969544 C16.2412596,14.4289741 16.3495096,14.1546613 16.5759759,13.9802556 L20.4418454,11.0030824 C20.3558751,10.9769519 20.2728452,10.935392 20.196648,10.8778184 L18.7944827,9.81836075 L14.4598278,13.2946357 L16.2656622,14.6969544 Z M24.6038942,9.81693144 L22.8277463,11.1847737 C22.9728315,11.1949197 23.1168868,11.2458321 23.2425743,11.3401702 L30.8563342,17.054878 L33.8762654,17.054878 L24.6038942,9.81693144 Z M24.667462,39.1894565 L26.5047282,37.8082067 C26.3024059,37.8389959 26.0885306,37.7904635 25.9120919,37.6555488 L18.5158864,31.9999994 L15.3579498,31.9999994 L24.667462,39.1894565 Z"/>
  </g>
</svg>
