<svg xmlns="http://www.w3.org/2000/svg" width="48" height="48" viewBox="0 0 48 48">
  <g fill="none" fill-rule="evenodd">
    <circle cx="24" cy="24" r="24" fill="#0D8AFA"/>
    <path fill="#FFF" d="M22.6970297,17.75106 L22.6970297,13.4912959 L11.2752475,13.4912959 C10.5544554,13.4912959 10,12.9497099 10,12.245648 C10,11.5415861 10.5544554,11 11.2752475,11 L36.7247525,11 C37.4455446,11 38,11.5415861 38,12.245648 C37.9445545,12.9497099 37.390099,13.4912959 36.6693069,13.4912959 L25.2475248,13.4912959 L25.2475248,17.75106 C31.2494759,18.0860794 35.9485149,20.7581569 35.9485149,23.9980658 C35.9485149,27.2379746 31.2494759,29.9100521 25.2475248,30.2450715 L25.2475248,37.754352 C25.2475248,38.4584139 24.6930693,39 23.9722772,39 C23.2514851,39 22.6970297,38.4584139 22.6970297,37.754352 L22.6970297,30.2450715 C16.6950786,29.9100521 11.9960396,27.2379746 11.9960396,23.9980658 C11.9960396,20.7581569 16.6950786,18.0860794 22.6970297,17.75106 Z M22.6970297,18.2690566 C18.645592,18.6922363 15.5445545,21.1001535 15.5445545,23.9980658 C15.5445545,26.895978 18.645592,29.3038952 22.6970297,29.727075 L22.6970297,18.2690566 Z M25.2475248,29.727075 C29.2989625,29.3038952 32.4,26.895978 32.4,23.9980658 C32.4,21.1001535 29.2989625,18.6922363 25.2475248,18.2690566 L25.2475248,29.727075 Z M14.7683168,25.9477756 C14.7683168,25.9477756 12.7168317,23.9980658 14.7683168,21.9941973 C14.7683168,21.9941973 11.6079208,23.5647969 14.7683168,25.9477756 Z M33.3425743,25.9477756 C36.5029703,23.6189555 33.3425743,21.9941973 33.3425743,21.9941973 C35.3386139,23.9980658 33.3425743,25.9477756 33.3425743,25.9477756 Z"/>
  </g>
</svg>
