<svg xmlns="http://www.w3.org/2000/svg" width="48" height="48" viewBox="0 0 48 48">
  <g fill="none" fill-rule="evenodd">
    <circle cx="24" cy="24" r="24" fill="#386CC7"/>
    <path fill="#FFF" fill-rule="nonzero" d="M24.9618983,20.0702542 L33.59143,11.4216402 L25.0844002,15.723261 L24.9815348,15.7477407 L24.9618983,20.0702542 Z M24.176008,15.7564823 L24.030246,15.7207586 L15.8276565,11.4331843 L24.1566519,20.0172597 L24.176008,15.7564823 Z M24.1514667,21.158666 L23.9239254,20.9241561 L15.0740488,20.9167158 L24.0793541,37.032548 L24.1514667,21.158666 Z M24.9567401,21.2057162 L24.884371,37.1360538 L34.0714704,20.9326875 L25.2365778,20.9252597 L24.9567401,21.2057162 Z M40.7829458,21.98095 L34.5420614,11.40566 L35.0916339,20.2300061 L40.7829458,21.98095 Z M40.5893485,22.7490925 L34.9558544,20.9989552 L25.2443577,38.1272057 L40.5893485,22.7490925 Z M8.40805392,22.7405918 L23.7846869,38.1495238 L14.2098742,21.014505 L8.40805392,22.7405918 Z M8.25850936,21.9599734 L14.0793903,20.243538 L14.8669779,11.4044284 L8.25850936,21.9599734 Z M23.1726384,20.1498606 L15.592399,12.3374723 L14.8969473,20.142539 L23.1726384,20.1498606 Z M26.0077633,20.1523689 L34.2802699,20.1596877 L33.7938323,12.3490827 L26.0077633,20.1523689 Z M14.8005818,10 L24.3199476,14.9759968 L24.8024785,14.9759968 L34.6434518,10 L42,22.4656582 L24.5034247,40 L7,22.4598089 L14.8005818,10 Z"/>
  </g>
</svg>
