<svg xmlns="http://www.w3.org/2000/svg" width="48" height="48" viewBox="0 0 48 48">
  <g fill="none" fill-rule="evenodd">
    <circle cx="24" cy="24" r="24" fill="#EC0928"/>
    <path fill="#FFF" fill-rule="nonzero" d="M22.5690998,42.7018744 L10.75,10.7232984 L10.75,10.4483691 C10.75,10.013222 11.2228741,9.67735313 11.6524024,9.7638012 L34.9256468,14.6482807 C35.0089228,14.6482807 35.0754834,14.6643545 35.148776,14.6938538 C35.166177,14.7008575 35.1729604,14.7032665 35.1442312,14.7032665 L35.3034089,14.7604908 L39.873057,18.5372142 C40.2627291,18.7724712 40.3583519,19.253558 40.1128729,19.6640009 L23.909317,42.9018474 C23.8622376,42.9492212 23.8376594,42.9724766 23.842931,42.9582155 C23.7109643,43.1340999 23.5065641,43.25 23.2953716,43.25 C23.0033342,43.25 22.770283,43.0968551 22.6465347,42.8517417 C22.6165971,42.8062974 22.5911016,42.757392 22.5690998,42.7018744 Z M14.038438,11.9162671 L26.0822793,21.8321182 L33.1684053,15.7995366 L14.038438,11.9162671 Z M29.0916902,21.0993387 L37.870413,19.1018302 L34.7333978,16.3316274 L29.0916902,21.0993387 Z M26.7028486,23.3632393 L24.3899411,39.7001087 L37.6526354,20.6776253 L26.7028486,23.3632393 Z M25.3312202,23.031306 L13.1438396,13.014219 C15.3979966,19.2455533 18.6633559,28.1522042 22.9398732,39.7340473 L25.3312202,23.031306 Z"/>
  </g>
</svg>
