<svg xmlns="http://www.w3.org/2000/svg" width="48" height="48" viewBox="0 0 48 48">
  <g fill="none" fill-rule="evenodd">
    <circle cx="24" cy="24" r="24" fill="#E9E9E9"/>
    <path fill="#6CAFFB" d="M25.1014493,20.8810069 L25.1014493,29.0869565 C25.1014493,30.6717736 23.8167012,31.9565217 22.2318841,31.9565217 L22.2318841,20.8810069 L17.9275362,20.8810069 C17.9275362,19.2498501 19.2498501,17.9275362 20.8810069,17.9275362 L29.4057971,17.9275362 C29.4057971,19.558693 28.0834833,20.8810069 26.4523265,20.8810069 L25.1014493,20.8810069 Z M17.639531,34.5072464 C12.5387842,32.3874281 9,27.748985 9,22.3679614 C9,14.9850402 15.6616337,9 23.8791754,9 C28.7465037,9 33.067972,11.0997352 35.7826087,14.3459925 C33.2974442,12.5235372 30.1234974,11.4305384 26.6654079,11.4305384 C18.6968827,11.4305384 12.2371166,17.2342137 12.2371166,24.3934101 C12.2371166,28.4836688 14.3456953,32.1314622 17.639531,34.5072464 Z"/>
    <path fill="#2B2D79" d="M20.1902556,38.3333333 C15.0895088,36.213515 11.5507246,31.5750719 11.5507246,26.1940483 C11.5507246,18.8111271 18.2123584,12.826087 26.4299,12.826087 C31.2972284,12.826087 35.6186966,14.9258222 38.3333333,18.1720795 C35.8481688,16.3496241 32.674222,15.2566254 29.2161325,15.2566254 C21.2476073,15.2566254 14.7878413,21.0603007 14.7878413,28.219497 C14.7878413,32.3097558 16.89642,35.9575492 20.1902556,38.3333333 Z" transform="rotate(180 24.942 25.58)"/>
  </g>
</svg>
