<svg xmlns="http://www.w3.org/2000/svg" width="48" height="48" viewBox="0 0 48 48">
  <g fill="none" fill-rule="evenodd">
    <circle cx="24" cy="24" r="24" fill="#000"/>
    <path fill="#FFF" d="M17.1318681,12.7023173 L20.043956,12.7023173 L20.043956,17.9518717 L17.1318681,17.9518717 L17.1318681,25.2329662 L11.9120879,25.2329662 L11.9120879,17.9518717 L9,17.9518717 L9,12.7023173 L11.9120879,12.7023173 L11.9120879,9 L17.1318681,9 L17.1318681,12.7023173 Z M30.043956,19.3333333 L32.6813187,14.802139 C36.4725275,17.1782531 38.8351648,21.3226381 39,25.798574 L33.7252747,25.798574 C33.6153846,23.201426 32.2417582,20.7700535 30.043956,19.3333333 Z M31.8021978,14.2495544 L29.2197802,18.7807487 C28.0659341,18.1729055 26.7472527,17.8966132 25.4835165,17.8966132 L25.4835165,12.6470588 C27.6813187,12.6470588 29.8791209,13.1996435 31.8021978,14.2495544 Z M33.7802198,26.8484848 L39,26.8484848 C38.7252747,33.9768271 33.0659341,39.6684492 25.978022,39.9447415 L25.978022,34.6951872 C30.1538462,34.4188948 33.5054945,31.0481283 33.7802198,26.8484848 Z M24.9340659,34.6951872 L24.9340659,40 C17.6813187,39.6684492 11.9120879,33.6452763 11.9120879,26.3511586 L17.1318681,26.3511586 C17.1318681,30.771836 20.5384615,34.4188948 24.9340659,34.6951872 Z"/>
  </g>
</svg>
