<svg xmlns="http://www.w3.org/2000/svg" width="48" height="48" viewBox="0 0 48 48">
  <g fill="none" fill-rule="evenodd">
    <circle cx="24" cy="24" r="24" fill="#00A9E0"/>
    <path fill="#FFF" d="M18.280791,25.5796767 L17.1,30.8452656 L12.0431705,30.8452656 L11.3508475,34.2817552 L7.5,34.2817552 L8.25932203,30.5127021 L11.9101695,30.5127021 L12.9779661,25.5242494 L18.1421308,25.5242494 L18.9440678,21.6997691 L23.8254237,21.6997691 C26.3745763,21.6997691 27.6762712,20.9237875 27.7305085,19.4272517 C27.7305085,19.2055427 27.6762712,18.9838337 27.6220339,18.7621247 C27.2966102,17.7090069 26.0491525,17.1547344 23.879661,17.1547344 L18.5974783,17.1547344 L17.6423729,21.3672055 L13.1365587,21.3672055 L12.2728814,25.4688222 L7.77118644,25.4688222 L8.69322034,21.0900693 L13.1492766,21.0900693 L14.0918148,16.9330254 L10.5915254,16.9330254 L11.2966102,13.4965358 L15.0389831,13.4965358 L14.356643,16.8221709 L18.3636111,16.8221709 L19.3842773,12 L31.9067797,12 C36.0830508,12 38.5779661,13.2748268 39.2830508,15.7690531 C39.4457627,16.3787529 39.5,16.9884527 39.5,17.6535797 C39.4772876,19.2319108 39.2344837,20.2662056 38.5610352,21.1835937 C37.6262893,22.4569275 35.9575867,23.3071594 33.7508475,23.3071594 C36.5711864,23.3071594 38.7952274,24.8099365 39.2830508,26.7507324 C39.5487794,27.8079282 39.4667365,29.0143433 39.2830508,30.0968018 C39.0993652,31.1792603 38.3648575,32.5570029 37.5075684,33.4708252 C35.9082031,35.1756592 33.4798172,36 30.2963867,36 L15.8916016,36 L17.1,30.8452656 L23.6084746,30.8452656 C26.2118644,30.8452656 27.5135593,29.9030023 27.5135593,27.9630485 C27.5135593,27.7967667 27.5135593,27.630485 27.459322,27.5196305 C27.079661,26.2448037 25.7779661,25.5796767 23.7169492,25.5796767 L18.280791,25.5796767 Z"/>
  </g>
</svg>
