<svg xmlns="http://www.w3.org/2000/svg" width="48" height="48" viewBox="0 0 48 48">
  <g fill="none">
    <circle cx="24" cy="24" r="24" fill="red"/>
    <path fill="#FFF" d="M32,29.0173611 C32,30.7881944 31.4312445,32.3130787 30.2937335,33.5920139 C29.1562224,34.8709491 27.6786013,35.6608797 25.8608702,35.9618056 L25.8608702,39 C25.8608702,39.162037 25.8094249,39.2951389 25.7065345,39.3993056 C25.6036441,39.5034722 25.4721729,39.5555556 25.3121211,39.5555556 L22.9970861,39.5555556 C22.8484666,39.5555556 22.7198535,39.5005787 22.6112469,39.390625 C22.5026403,39.2806713 22.4483371,39.150463 22.4483371,39 L22.4483371,35.9618056 C21.6938072,35.8576389 20.9649998,35.6782407 20.2619151,35.4236111 C19.5588304,35.1689815 18.9786427,34.9114583 18.5213518,34.6510417 C18.0640609,34.390625 17.6410669,34.1128472 17.2523696,33.8177083 C16.8636724,33.5225694 16.5978721,33.3055555 16.4549687,33.1666667 C16.3120653,33.0277778 16.2120329,32.9236112 16.1548716,32.8541667 C15.9605229,32.6111111 15.9490907,32.3738426 16.1205747,32.1423611 L17.8868607,29.7986111 C17.9668866,29.6828704 18.0983577,29.6134259 18.2812741,29.5902778 C18.4527582,29.5671296 18.5899454,29.619213 18.6928359,29.7465278 L18.7271327,29.78125 C20.0189794,30.9270833 21.4080004,31.650463 22.8941957,31.9513889 C23.3171897,32.0439815 23.7401838,32.0902778 24.1631778,32.0902778 C25.0891918,32.0902778 25.9037412,31.8414352 26.6068259,31.34375 C27.3099106,30.8460648 27.661453,30.1400463 27.6614529,29.2256944 C27.6614529,28.9016204 27.5757109,28.5949074 27.4042268,28.3055556 C27.2327427,28.0162037 27.0412522,27.7731482 26.8297552,27.5763889 C26.6182582,27.3796296 26.2838642,27.1626157 25.8265734,26.9253472 C25.3692825,26.6880787 24.9920175,26.5028935 24.6947785,26.3697917 C24.3975394,26.2366898 23.9402485,26.0486111 23.3229059,25.8055555 C22.8770473,25.6203704 22.5255049,25.4756944 22.2682788,25.3715278 C22.0110527,25.2673611 21.6595103,25.1140046 21.2136518,24.9114583 C20.7677932,24.708912 20.4105347,24.5295139 20.1418763,24.3732639 C19.8732179,24.2170139 19.5502562,24.0115741 19.1729913,23.7569444 C18.7957263,23.5023148 18.4899131,23.2563658 18.2555515,23.0190972 C18.0211899,22.7818287 17.772538,22.4982639 17.5095957,22.1684028 C17.2466535,21.8385417 17.0437307,21.5028935 16.9008273,21.1614583 C16.7579239,20.8200232 16.637885,20.4351852 16.5407107,20.0069445 C16.4435364,19.5787037 16.3949493,19.1273148 16.3949493,18.6527778 C16.3949493,17.0555556 16.9551306,15.6550926 18.0754932,14.4513889 C19.1958558,13.2476852 20.6534704,12.4722222 22.4483371,12.125 L22.4483371,8.99999999 C22.4483371,8.84953704 22.5026404,8.7193287 22.6112469,8.60937499 C22.7198535,8.49942127 22.8484666,8.44444444 22.9970861,8.44444444 L25.3121211,8.44444444 C25.4721729,8.44444444 25.603644,8.49652778 25.7065345,8.60069444 C25.809425,8.7048611 25.8608702,8.83796295 25.8608702,8.99999999 L25.8608702,12.0555556 C26.5125097,12.125 27.1441427,12.2581018 27.7557692,12.4548611 C28.3673957,12.6516204 28.8646995,12.8454861 29.2476806,13.0364583 C29.6306617,13.2274305 29.9936364,13.4444444 30.3366045,13.6875 C30.6795726,13.9305556 30.9025019,14.0983797 31.0053924,14.1909722 C31.1082828,14.2835648 31.1940249,14.3645833 31.2626185,14.4340278 C31.4569671,14.6423611 31.4855478,14.8622685 31.3483605,15.09375 L29.9593395,17.6284722 C29.8678813,17.8020833 29.7364102,17.8946759 29.5649262,17.90625 C29.4048744,17.9409722 29.2505387,17.900463 29.1019192,17.7847222 C29.0676223,17.75 28.9847384,17.6805555 28.8532672,17.5763889 C28.7217961,17.4722223 28.4988668,17.3188658 28.1844794,17.1163194 C27.8700919,16.9137731 27.535698,16.7285879 27.1812975,16.5607639 C26.8268971,16.3929399 26.401045,16.2424769 25.9037412,16.109375 C25.4064374,15.9762731 24.9177077,15.9097222 24.4375523,15.9097222 C23.3514865,15.9097222 22.4654855,16.1585648 21.7795492,16.65625 C21.0936129,17.1539352 20.7506448,17.7962963 20.7506447,18.5833333 C20.7506447,18.8842593 20.7992319,19.162037 20.8964062,19.4166667 C20.9935805,19.6712963 21.1622065,19.9114583 21.4022842,20.1371528 C21.6423619,20.3628472 21.8681493,20.5538195 22.0796463,20.7100695 C22.2911434,20.8663194 22.611247,21.0457176 23.0399571,21.2482639 C23.4686673,21.4508102 23.8144935,21.6070602 24.0774358,21.7170139 C24.340378,21.8269676 24.7405075,21.9861111 25.2778243,22.1944445 C25.8837347,22.4259259 26.3467417,22.6082176 26.6668453,22.7413195 C26.9869489,22.8744213 27.4213753,23.0769676 27.9701243,23.3489583 C28.5188733,23.6209491 28.9504415,23.8668981 29.264829,24.0868056 C29.5792165,24.306713 29.9336169,24.5960648 30.3280303,24.9548611 C30.7224437,25.3136574 31.0253989,25.6811342 31.2368959,26.0572917 C31.4483929,26.4334491 31.6284512,26.8761574 31.7770707,27.3854167 C31.9256902,27.8946759 32,28.4386574 32,29.0173611 L32,29.0173611 Z"/>
  </g>
</svg>
