<svg xmlns="http://www.w3.org/2000/svg" width="48" height="48" viewBox="0 0 48 48">
  <g fill="none" fill-rule="evenodd">
    <circle cx="24" cy="24" r="24" fill="#21A078"/>
    <path fill="#FFF" fill-rule="nonzero" d="M26.8363636,21.6363636 L26.8363636,18.3090909 L34.4727273,18.3090909 L34.4727273,13.1818182 L13.6363636,13.1818182 L13.6363636,18.2545455 L21.2727273,18.2545455 L21.2727273,21.5818182 C15.0545455,21.9090909 10.4181818,23.1636364 10.4181818,24.6363636 C10.4181818,26.1090909 15.1090909,27.3636364 21.3272727,27.6363636 L21.3272727,38.3272727 L26.8363636,38.3272727 L26.8363636,27.6363636 C33,27.3636364 37.6909091,26.1090909 37.6909091,24.6363636 C37.6909091,23.1636364 33,21.9090909 26.8363636,21.6363636 M26.8363636,26.7090909 L26.8363636,26.7090909 C26.6727273,26.7090909 25.8545455,26.7636364 24.1090909,26.7636364 C22.6909091,26.7636364 21.6545455,26.7090909 21.3272727,26.7090909 L21.3272727,26.7090909 C15.8181818,26.4909091 11.7272727,25.5090909 11.7272727,24.3636364 C11.7272727,23.2181818 15.8181818,22.2909091 21.3272727,22.0181818 L21.3272727,25.7272727 C21.7090909,25.7272727 22.6909091,25.8363636 24.1090909,25.8363636 C25.8,25.8363636 26.6727273,25.7818182 26.8363636,25.7272727 L26.8363636,22.0181818 C32.2909091,22.2909091 36.3818182,23.2181818 36.3818182,24.3636364 C36.3818182,25.5090909 32.2909091,26.4909091 26.8363636,26.7090909"/>
  </g>
</svg>
