<svg xmlns="http://www.w3.org/2000/svg" width="48" height="48" viewBox="0 0 48 48">
  <g fill="none" fill-rule="evenodd">
    <circle cx="24" cy="24" r="24" fill="#E9E9E9"/>
    <path fill="#05CCBB" fill-rule="nonzero" d="M24,40.9193018 C24.0653061,40.8757644 24.152381,40.832227 24.2176871,40.7886895 C26.3292517,39.5478732 28.2884354,38.0676011 30.0517007,36.3696419 C30.1605442,36.2607984 30.247619,36.1301861 30.3346939,35.9995739 C30.4435374,35.7818868 30.5741497,35.542431 30.6829932,35.324744 C31.5319728,33.5614787 31.7061224,31.7546759 31.1401361,29.8825671 C30.0517007,26.2471929 26.5469388,24.157397 23.0421769,24.6145399 C22.0408163,24.7451521 21.1047619,25.049914 20.2340136,25.5505943 C18.5578231,26.4866487 16.7727891,26.8784855 14.8789116,26.7043358 C13.9428571,26.617261 13.0503401,26.3778052 12.1795918,26.0077372 C11.5047619,25.7029753 10.8734694,25.3329072 10.2857143,24.8757644 C10.2421769,24.832227 10.1986395,24.8104582 10.1115646,24.7669208 C10.1333333,24.8539957 10.155102,24.8975331 10.1768707,24.9410705 C10.9170068,26.8567168 11.8530612,28.6635195 12.9632653,30.4050161 C14.1605442,32.2771249 15.5319728,33.9968528 17.077551,35.5859685 C18.6231293,37.1750841 20.3210884,38.5682814 22.1714286,39.8090977 C22.9768707,40.3315467 23.7605442,40.8104582 24,40.9193018"/>
    <path fill="#3BB8E9" fill-rule="nonzero" d="M32.7945578,33.4090977 C32.8816327,33.3655603 32.9251701,33.3002542 32.9687075,33.234948 C33.6435374,32.3859685 34.2748299,31.5152202 34.862585,30.6227031 C36.9741497,27.357397 38.4326531,23.8308664 39.2598639,20.0431113 C39.5428571,18.7587576 39.7387755,17.4526351 39.847619,16.1465127 C39.9346939,15.2539957 39.9782313,14.3614787 39.9782313,13.4689617 C39.9782313,13.4036555 39.9782313,13.3383494 39.9564626,13.294812 C39.8693878,13.2512746 39.7823129,13.1859685 39.7170068,13.142431 C39.0204082,12.7505943 38.3238095,12.3805263 37.6054422,12.0539957 C36.5605442,11.5750841 35.5156463,11.1179412 34.4272109,10.7914106 C33.0993197,10.3342678 31.7714286,10.2907304 30.4,10.617261 C26.5469388,11.5533154 24.0870748,15.3193018 24.8054422,19.2159004 C25.2190476,21.3710025 26.3727891,23.0471929 28.2231293,24.2227031 C28.3537415,24.309778 28.4843537,24.3750841 28.5931973,24.4621589 C29.9428571,25.2893698 31.0095238,26.3995739 31.7714286,27.8145399 C32.5768707,29.2730433 32.9251701,30.8621589 32.8380952,32.5383494 C32.8598639,32.7778052 32.8163265,33.0825671 32.7945578,33.4090977"/>
    <path fill="#F5A81C" fill-rule="nonzero" d="M8,13.2512746 L8,13.4689617 C8,14.709778 8.08707483,15.9288256 8.21768707,17.1478732 C8.34829932,18.2580773 8.54421769,19.3465127 8.78367347,20.434948 C8.82721088,20.6308664 8.89251701,20.8050161 8.97959184,20.9791657 C10.4816327,24.2009344 13.9863946,25.8988936 17.447619,25.1152202 C20.0816327,24.5274651 22.2367347,22.4812065 22.9768707,19.8689617 C23.1727891,19.1505943 23.2380952,18.4104582 23.2816327,17.6703222 C23.3034014,17.1696419 23.3469388,16.6907304 23.4340136,16.2118188 C24,13.2512746 25.9809524,10.8131793 28.7455782,9.65943784 C28.8979592,9.59413172 29.0503401,9.5288256 29.2244898,9.48528818 C29.2462585,9.48528818 29.2897959,9.46351947 29.2680272,9.44175077 C28.8326531,9.28936981 26.2204082,9.02814532 24.6530612,9.00637662 C21.3006803,8.94107049 17.9918367,9.37644464 14.770068,10.3560365 C12.3972789,11.0308664 10.155102,12.0104582 8,13.2512746"/>
  </g>
</svg>
