<svg xmlns="http://www.w3.org/2000/svg" width="48" height="48" viewBox="0 0 48 48">
  <g fill="none" fill-rule="evenodd">
    <circle cx="24" cy="24" r="24" fill="#E9E9E9"/>
    <path fill="#DCF2F9" d="M26.6347832,6.66320748 C31.2111273,9.59158924 33.4992994,13.1657875 33.4992994,17.3858024 C33.4992994,21.6058172 33.0559965,27.1843071 32.1693907,34.121272 L26.6347832,34.121272 L21.1001757,34.121272 C20.21357,27.1843071 19.7702671,21.6058172 19.7702671,17.3858024 C19.7702671,13.1657875 22.0584391,9.59158924 26.6347832,6.66320748 Z" transform="rotate(38 26.635 20.392)"/>
    <path fill="#5B6A72" d="M34.1737768,23.6877847 C38.1988962,27.081215 40.042854,30.4825942 39.70565,33.8919223 C37.3694006,31.9257709 35.3112065,30.7869935 33.5310676,30.4755901 C33.4026123,31.6106047 33.2605274,32.7872567 33.1048164,34.0055678 C33.0735322,34.2503414 32.8652149,34.4337285 32.6184502,34.4337285 L21.5492352,34.4337285 C21.3024705,34.4337285 21.0941532,34.2503414 21.062869,34.0055678 C20.9042284,32.7643355 20.7597315,31.5663445 20.629382,30.4115721 C18.7968392,30.6815261 16.6217803,31.8416429 14.1042053,33.8919223 C13.7577086,30.3886394 15.7142477,26.8937496 19.9738226,23.4072528 C19.8106276,21.0921629 19.729004,19.0258286 19.729004,17.2079363 C19.729004,12.8065665 22.111528,9.08498734 26.8195631,6.0723371 L27.0838427,5.90322581 L27.3481223,6.0723371 C32.0561573,9.08498734 34.4386814,12.8065665 34.4386814,17.2079363 C34.4386814,19.0989406 34.3503602,21.2587724 34.1737768,23.6877847 Z M27.0838427,7.06989011 C22.8164948,9.87993485 20.7096491,13.2501426 20.7096491,17.2079363 C20.7096491,21.3171581 21.133299,26.7334563 21.9812246,33.4530833 L32.1864607,33.4530833 C33.0343863,26.7334563 33.4580362,21.3171581 33.4580362,17.2079363 C33.4580362,13.2501426 31.3511905,9.87993485 27.0838427,7.06989011 Z M27.1389706,22.9604766 C24.6115255,22.9604766 22.5626265,20.9115776 22.5626265,18.3841325 C22.5626265,15.8566875 24.6115255,13.8077884 27.1389706,13.8077884 C29.6664156,13.8077884 31.7153146,15.8566875 31.7153146,18.3841325 C31.7153146,20.9115776 29.6664156,22.9604766 27.1389706,22.9604766 Z M27.1389706,21.9798314 C29.1248202,21.9798314 30.7346695,20.3699822 30.7346695,18.3841325 C30.7346695,16.3982828 29.1248202,14.7884336 27.1389706,14.7884336 C25.1531209,14.7884336 23.5432716,16.3982828 23.5432716,18.3841325 C23.5432716,20.3699822 25.1531209,21.9798314 27.1389706,21.9798314 Z" transform="rotate(38 26.905 20.168)"/>
    <path fill="#FFF" d="M28.2572461,22.6414992 C30.2882288,22.6414992 31.9346655,20.9950625 31.9346655,18.9640798 C31.9346655,16.9330972 30.2882288,15.2866605 28.2572461,15.2866605 C26.2262635,15.2866605 24.5798268,16.9330972 24.5798268,18.9640798 C24.5798268,20.9950625 26.2262635,22.6414992 28.2572461,22.6414992 Z"/>
    <path fill="#ED8117" d="M10.4516129,30.431111 L20.2416447,30.4251423 C19.4912512,36.416576 17.9765772,39.4122929 15.6976226,39.4122929 C13.4186681,39.4122929 11.6699982,36.4185656 10.4516129,30.431111 Z" transform="rotate(38 15.347 34.919)"/>
    <path fill="#EEBB18" d="M12.8060302,30.8440781 L20.0308206,30.83163 C18.8050268,34.6919191 17.6223255,36.6220637 16.4827167,36.6220637 C15.3431079,36.6220637 14.1175457,34.6960685 12.8060302,30.8440781 Z" transform="rotate(38 16.418 33.727)"/>
  </g>
</svg>
