<svg xmlns="http://www.w3.org/2000/svg" width="48" height="48" viewBox="0 0 48 48">
  <g fill="none" fill-rule="evenodd">
    <path fill="#FF5700" d="M1.37722132,32.0326749 C0.485433675,29.5212155 0,26.8172973 0,24 C0,10.745166 10.745166,0 24,0 C37.254834,0 48,10.745166 48,24 C48,26.5121346 47.6140329,28.9341217 46.898164,31.2098958 L40.0640625,31.2098958 L40.0640625,11.2623623 L24.004659,27.659053 L8.00989583,11.2394874 L8.00989583,32.0465402 L1.37722132,32.0326749 Z"/>
    <path fill="#737373" d="M3.71838239,36.8375794 L12.8098958,36.8565848 L12.8098958,23.0459293 L23.995341,34.528447 L35.2640625,23.0230544 L35.2640625,36.0098958 L44.7834997,36.0098958 C40.6323752,43.1780577 32.8793001,48 24,48 C15.4669313,48 7.97396997,43.546771 3.71838239,36.8375794 Z"/>
  </g>
</svg>
