<svg xmlns="http://www.w3.org/2000/svg" width="48" height="48" viewBox="0 0 48 48">
  <g fill="none" fill-rule="evenodd">
    <circle cx="24" cy="24" r="24" fill="#000"/>
    <path fill="#FFF" d="M34.3322549,36 L27.5874229,29.3257156 C26.5766437,28.3531008 25.380836,27.8671243 24,27.8677853 C22.619164,27.8684956 21.4038828,28.355635 20.3541564,29.329204 L13.6676635,36 L9.5,36 L18.5403847,26.9675698 C20.0516573,25.6512947 21.871529,24.9926836 24,24.9917346 C26.128471,24.9908295 27.9183255,25.6478685 29.3695635,26.9628533 L38.5,36 L34.3322549,36 Z M34.3322549,12 L38.5,12 L29.3695635,21.0371467 C27.9183255,22.3521315 26.128471,23.0091705 24,23.0082654 C21.871529,23.0073164 20.0516573,22.3487053 18.5403847,21.0324302 L9.5,12 L13.6676635,12 L20.3541564,18.670796 C21.4038828,19.644365 22.619164,20.1315044 24,20.1322147 C25.380836,20.1328757 26.5766437,19.6468992 27.5874229,18.6742844 L34.3322549,12 Z"/>
  </g>
</svg>
