<svg xmlns="http://www.w3.org/2000/svg" width="48" height="48" viewBox="0 0 48 48">
  <g fill="none" fill-rule="evenodd">
    <circle cx="24" cy="24" r="24" fill="#2C7DF7"/>
    <path fill="#FFF" fill-rule="nonzero" d="M26.2111567,39 C24.0700719,39 22.5106092,38.484497 21.5308864,37.4534911 C20.5521047,36.4229586 20.0622433,35.3114793 20.0622433,34.1204734 C20.0622433,33.6849704 20.1474162,33.3185799 20.3182324,33.0208284 C20.4848891,32.7270418 20.7268624,32.4836264 21.0189083,32.3159763 C21.3148956,32.144142 21.6791153,32.0584615 22.112038,32.0584615 C22.5449606,32.0584615 22.9087098,32.144142 23.2051677,32.3159763 C23.501155,32.4878107 23.7345568,32.7230769 23.905373,33.0208284 C24.0761893,33.3185799 24.1613621,33.6849704 24.1613621,34.1204734 C24.1613621,34.6473373 24.036191,35.0766864 23.7858487,35.4089941 C23.5350359,35.7413018 23.2390486,35.9585799 22.8974162,36.0622485 C23.1938741,36.4740828 23.6606776,36.7661538 24.2982974,36.9379882 C24.9359172,37.1216568 25.573537,37.2130178 26.2111567,37.2130178 C27.0991188,37.2130178 27.9019079,36.9725444 28.6195243,36.4915976 C29.3366701,36.0101775 29.8665298,35.3001183 30.2081622,34.3609467 C30.5497947,33.4217751 30.7206109,32.356213 30.7206109,31.1647337 C30.7206109,29.8705325 30.5323836,28.7647337 30.1568703,27.8487574 C29.79218,26.9209467 29.2514973,26.2336095 28.5338809,25.7867456 C27.8384182,25.3464797 27.0328652,25.1141759 26.2111567,25.1169231 C25.6643566,25.1169231 24.9815623,25.3460355 24.1613621,25.8042604 L22.6583676,26.5602367 L22.6583676,25.8042604 L29.4223135,16.732071 L20.0622433,16.732071 L20.0622433,26.1474556 C20.0622433,26.9266272 20.2330595,27.5680473 20.574692,28.0721893 C20.9163244,28.5763314 21.4400667,28.8281657 22.1463895,28.8281657 C22.6922485,28.8281657 23.2164613,28.6449704 23.7176164,28.2781065 C24.2219886,27.9080991 24.6607454,27.4552048 25.0154432,26.9384615 C25.0610883,26.8347929 25.118027,26.7604734 25.1862594,26.7145562 C25.2476349,26.6600413 25.3264947,26.6296204 25.4083676,26.6288757 C25.5335387,26.6288757 25.6812971,26.6918343 25.8525838,26.8182249 C26.0121064,27.0009467 26.0916324,27.2130178 26.0916324,27.4534911 C26.0720294,27.6154453 26.043437,27.7761696 26.005989,27.9349112 C25.6191821,28.8054438 25.0836756,29.4695858 24.4004107,29.9278107 C23.735223,30.3804622 22.9494606,30.6200712 22.1463895,30.6151479 C20.1191821,30.6151479 18.7183008,30.2142012 17.9442163,29.4127811 C17.1701318,28.6104142 16.7828542,27.5221302 16.7828542,26.147929 L16.7828542,16.732071 L12,16.732071 L12,14.9791716 L16.7828542,14.9791716 L16.7828542,10.9933728 L15.6897245,9.89278107 L15.6897245,9 L18.8665298,9 L20.0617728,9.61822485 L20.0617728,14.9791716 L32.4283025,14.9450888 L33.6583676,16.1820118 L26.074692,23.8108876 C26.533804,23.6268044 27.01714,23.511031 27.5094541,23.4672189 C28.3291838,23.4672189 29.2514973,23.7308876 30.2763946,24.2577515 C31.3125856,24.7732544 32.1097279,25.483787 32.6673511,26.387929 C33.2254449,27.2816568 33.5840178,28.1408284 33.7435404,28.9654438 C33.9143566,29.7905325 34,30.5233136 34,31.1647337 C34,32.6312426 33.6922485,33.9940828 33.0776865,35.2546746 C32.462654,36.5143195 31.5290469,37.4534911 30.2763946,38.0721893 C29.0237423,38.6908876 27.6685062,39 26.2111567,39 Z"/>
  </g>
</svg>
