<svg xmlns="http://www.w3.org/2000/svg" width="48" height="48" viewBox="0 0 48 48">
  <defs>
    <linearGradient id="xuc-a" x1="99.952%" x2="29.663%" y1="40.56%" y2="109.959%">
      <stop offset="0%" stop-color="#4956D4"/>
      <stop offset="22.416%" stop-color="#2688E7"/>
      <stop offset="70.991%" stop-color="#01BFFB"/>
      <stop offset="100%" stop-color="#444FCC"/>
    </linearGradient>
  </defs>
  <g fill="none" fill-rule="evenodd">
    <circle cx="24" cy="24" r="24" fill="#21377F"/>
    <path fill="#FFF" fill-rule="nonzero" d="M31.391521,23.9985195 L25.791521,23.9985195 L25.791521,22.3985195 L31.189893,22.3985195 C30.4794245,19.6381559 27.973664,17.5985195 24.991521,17.5985195 C21.4568986,17.5985195 18.591521,20.4638971 18.591521,23.9985195 C18.591521,27.5331419 21.4568986,30.3985195 24.991521,30.3985195 C26.8401772,30.3985195 28.5600044,29.6114753 29.767505,28.2589067 L30.961071,29.3244583 C29.4531184,31.0135749 27.3008449,31.9985195 24.991521,31.9985195 C20.573243,31.9985195 16.991521,28.4167975 16.991521,23.9985195 C16.991521,19.5802415 20.573243,15.9985195 24.991521,15.9985195 C29.409799,15.9985195 32.991521,19.5802415 32.991521,23.9985195 L31.391521,23.9985195 Z M10.75,26.0900655 L12.0330419,25.9000301 C12.9679243,32.2119783 18.4454904,36.95 24.9372814,36.95 C28.4762047,36.95 31.7887127,35.5449149 34.2245058,33.0926994 L35.144727,34.0067579 C32.4676439,36.7018902 28.8249339,38.2470389 24.9372814,38.2470389 C17.8018592,38.2470389 11.7789809,33.0373295 10.75,26.0900655 Z M39.2382366,22.9289553 L37.9448053,23.0256268 C37.4416472,16.2935427 31.7773769,11.0470389 24.9372814,11.0470389 C21.0126699,11.0470389 17.3742576,12.7775626 14.9104225,15.7142599 L13.9167753,14.8806082 C16.6247736,11.6528875 20.6255795,9.75 24.9372814,9.75 C32.4556616,9.75 38.6844426,15.5193792 39.2382366,22.9289553 Z"/>
    <path fill="url(#xuc-a)" fill-rule="nonzero" d="M18.697212,33.1781289 L19.4770777,32.0240952 C21.0864445,33.111663 22.9865773,33.7021028 24.9774821,33.7021028 C28.0644996,33.7021028 30.9114354,32.2751386 32.7517601,29.8891593 L33.8546451,30.7398232 C31.7529953,33.4646103 28.500333,35.0949361 24.9774821,35.0949361 C22.7065843,35.0949361 20.5352429,34.420222 18.697212,33.1781289 Z M36.0836068,22.7586579 L34.6994352,22.9137499 C34.1521946,18.0297131 29.9742189,14.2949361 24.9774821,14.2949361 C20.0605221,14.2949361 15.9259886,17.9141179 15.2817152,22.701362 L13.9013267,22.5155875 C14.6385828,17.0374401 19.3627695,12.9021028 24.9774821,12.9021028 C30.6833474,12.9021028 35.4573831,17.16971 36.0836068,22.7586579 Z"/>
  </g>
</svg>
