<svg xmlns="http://www.w3.org/2000/svg" width="48" height="48" viewBox="0 0 48 48">
  <defs>
    <linearGradient id="xwc-a" x1="83.556%" x2="13.969%" y1="14.589%" y2="83.917%">
      <stop offset="0%" stop-color="#C945FC"/>
      <stop offset="100%" stop-color="#6B3FE7"/>
    </linearGradient>
  </defs>
  <path fill="url(#xwc-a)" d="M24,48 C10.745166,48 0,37.254834 0,24 C0,10.745166 10.745166,0 24,0 C37.254834,0 48,10.745166 48,24 C48,37.254834 37.254834,48 24,48 Z M24,44 C35.045695,44 44,35.045695 44,24 C44,12.954305 35.045695,4 24,4 C12.954305,4 4,12.954305 4,24 C4,35.045695 12.954305,44 24,44 Z M32.0008452,27.2 L30.6297788,32 L28.5147573,32 L26.3997359,32 L24.0086012,22.976826 L21.6002641,32 L19.4741499,32 L17.3480357,32 L15.983625,27.2 L8,27.2 L8,24 L15.0740178,24 L14.6192143,22.4 L8,22.4 L8,19.2 L13.7096071,19.2 L12.8,16 L15.7284913,16 L17.2075272,16 L19.5029373,26.3347451 L21.9182569,16 L24,16 L26.0817431,16 L28.4970627,26.3347451 L30.7924728,16 L33.720964,16 L35.2,16 L34.2859558,19.2 L40,19.2 L40,22.4 L33.3719115,22.4 L32.9148894,24 L40,24 L40,27.2 L32.0008452,27.2 Z"/>
</svg>
