<svg xmlns="http://www.w3.org/2000/svg" width="48" height="48" viewBox="0 0 48 48">
  <g fill="none" fill-rule="evenodd">
    <circle cx="24" cy="24" r="24" fill="#0190D0"/>
    <path fill="#FFF" fill-rule="nonzero" d="M15.7272727,11 L32.2727273,11 C34.8835279,11 37,13.1164721 37,15.7272727 L37,32.2727273 C37,34.8835279 34.8835279,37 32.2727273,37 L15.7272727,37 C13.1164721,37 11,34.8835279 11,32.2727273 L11,15.7272727 C11,13.1164721 13.1164721,11 15.7272727,11 Z M15.7272727,14.5454545 C15.0745726,14.5454545 14.5454545,15.0745726 14.5454545,15.7272727 L14.5454545,32.2727273 C14.5454545,32.9254274 15.0745726,33.4545455 15.7272727,33.4545455 L32.2727273,33.4545455 C32.9254274,33.4545455 33.4545455,32.9254274 33.4545455,32.2727273 L33.4545455,15.7272727 C33.4545455,15.0745726 32.9254274,14.5454545 32.2727273,14.5454545 L15.7272727,14.5454545 Z M26.3636364,21.6363636 L29.9090909,21.6363636 L29.9090909,25.1818182 L14.5454545,25.1818182 L14.5454545,21.6363636 L22.8181818,21.6363636 L22.8181818,14.5454545 L26.3636364,14.5454545 L26.3636364,21.6363636 Z" transform="rotate(45 24 24)"/>
  </g>
</svg>
