<svg xmlns="http://www.w3.org/2000/svg" width="48" height="48" viewBox="0 0 48 48">
  <g fill="none">
    <circle cx="24" cy="24" r="24" fill="#E91C41"/>
    <path fill="#FFF" d="M16.502304,11 L31.2157574,11 C36.4321453,11 37.9705932,17.1551279 36.4321453,20.1987315 C34.8942618,23.2426204 31.4025609,26.7688056 28.8527782,29.0821155 C26.5341015,31.1562749 23.1902629,33.1856293 18.9767445,28.924299 C18.7542599,28.7380436 18.5360758,28.5465957 18.322368,28.3501096 L21.4257886,25.0996037 C21.4652939,25.133279 21.5158042,25.1843624 21.5527698,25.2137568 C23.4371709,27.1189698 24.4104112,27.1372343 26.2976342,25.228026 C27.7082543,23.813956 30.4710831,20.7951807 31.67035,19.3420136 C32.8357553,17.9302266 33.4858992,14.9043168 28.2486298,14.9043168 L19.9875148,14.9043168 C16.4989179,14.9043168 14.6963491,16.7493142 16.5237497,19.3420136 L16.9204954,19.8471403 L13.6189841,23.3191029 C12.8269035,22.329682 12.1872005,21.411036 11.8875248,20.740102 C9.74690385,16.4787717 11.5528588,11 16.502304,11 Z M16.7842671,37 L16.7842671,36.9997147 C11.5676127,36.9997147 10.0297339,30.8446024 11.5676127,27.8010068 C13.1060558,24.7574111 16.5974641,21.2309498 19.1475212,18.9179312 C21.465909,16.843777 24.8097372,14.8144278 29.0232431,19.0754619 C29.2457301,19.2618108 29.4639137,19.4533534 29.6776176,19.6499351 L26.5744885,22.9004325 C26.5347012,22.8667576 26.484191,22.8156742 26.4472254,22.7862799 C24.5631123,20.8810717 23.5895926,20.8628073 21.7023755,22.7720107 C20.2917596,24.1863624 17.5292212,27.2048446 16.3296757,28.6577226 C15.164274,30.0695059 14.5141322,33.0959787 19.7513857,33.0959787 L28.0124757,33.0959787 C31.5016265,33.0959787 33.3036256,31.2507006 31.4762304,28.6577226 L31.0794859,28.1525971 L34.3809873,24.6809289 C35.1730654,25.6703472 35.8130488,26.5887055 36.1127235,27.2599231 C38.2527736,31.5209572 36.4473885,37 31.4979582,37 L16.7842671,37 Z"/>
  </g>
</svg>
