<svg xmlns="http://www.w3.org/2000/svg" width="48" height="48" viewBox="0 0 48 48">
  <g fill="none" fill-rule="evenodd">
    <circle cx="24" cy="24" r="24" fill="#000"/>
    <path fill="#FFF" fill-rule="nonzero" d="M8.5,23.0593672 C8.66160293,22.1997736 8.76933821,21.3401799 8.98480878,20.4805863 C9.30801463,19.0837466 9.84669105,17.7406316 10.600838,16.4512411 C12.7016761,19.1911958 14.8025141,21.9311505 16.8494845,24.6173806 C17.5497638,25.5306989 17.5497638,25.5306989 16.7417492,26.3365679 C16.2569404,26.8200893 15.7721316,27.3036108 15.2873229,27.7871322 C15.0179847,28.0557552 14.964117,28.2706536 15.1795876,28.6467258 C15.9337346,29.9898409 16.9033521,31.1180575 18.1423079,32.0313757 C18.3039108,32.1388249 18.4116461,32.2462742 18.6271167,32.407448 C17.7652344,33.0521432 17.0110874,33.6431138 16.2030728,34.287809 C15.6643964,34.7176059 15.1257199,35.0936781 14.5870435,35.5234749 C14.3177053,35.7383733 14.0483671,35.7920979 13.7251613,35.5234749 C11.354985,33.3207662 9.73895576,30.6882607 9.03867642,27.5185092 C8.87707349,26.7126401 8.71547057,25.9067711 8.55386764,25.1009021 L8.55386764,23.0593672 L8.5,23.0593672 L8.5,23.0593672 Z M24.9834984,8.5537246 C25.8453807,8.71489841 26.7072629,8.82234761 27.5691452,9.03724602 C29.0235715,9.30586903 30.3702626,9.89683966 31.7169536,10.6489841 C28.5387628,12.9054174 25.4683072,15.1081261 22.2901163,17.3645594 C21.589837,16.6661395 20.8895576,16.0214443 20.2431459,15.3230245 C19.9199401,15.0006769 19.6506019,14.9469523 19.2735284,15.1618507 C17.819102,15.9677197 16.6340139,17.0959363 15.6105287,18.5465006 C15.3950582,18.2778776 15.2334552,18.0629792 15.0718523,17.9018054 C14.20997,16.7735887 13.3480878,15.5916475 12.4862055,14.4634308 C12.2707349,14.1410832 12.2168673,13.9799094 12.5400731,13.6575618 C15.0718523,10.8638825 18.2500432,9.25214443 21.9669105,8.66117381 C22.3439839,8.6074492 22.6671898,8.5537246 23.0442633,8.5 L24.9834984,8.5537246 L24.9834984,8.5537246 Z M16.3646757,37.3501114 C19.4889989,35.0399535 22.5055869,32.7835202 25.6837777,30.3659131 C26.3840571,31.1180575 27.0304688,31.8164773 27.6768805,32.5686218 C28.053954,32.9984186 28.3771598,32.9984186 28.8619686,32.7297956 C30.2625273,31.9239265 31.4476154,30.8494345 32.417233,29.3988702 C32.9020417,30.0435655 33.3868505,30.6345361 33.8716593,31.2792313 C34.4103357,31.9776511 34.8951445,32.7297956 35.4876886,33.3744908 C35.864762,33.8042876 35.7570268,34.1266352 35.3799533,34.5027074 C32.9559094,37.0814883 29.9393214,38.6932264 26.4379247,39.284197 C22.9903956,39.8751677 19.7044695,39.2304724 16.6340139,37.6187344 C16.5801463,37.5650098 16.5262786,37.4575606 16.3646757,37.3501114 L16.3646757,37.3501114 Z M29.400645,15.5916475 C30.8550714,14.5171554 32.25563,13.496388 33.6561887,12.421896 C33.9793946,12.1532729 34.1409975,12.3681714 34.3564681,12.5293452 C35.7570268,13.8187356 36.9421149,15.2692999 37.8039972,16.9884871 C39.0429529,19.4060942 39.635497,22.0385997 39.473894,24.7785545 C39.3661588,27.1961616 38.7197471,29.3988702 37.4807913,31.5478543 C36.8343796,30.7419853 36.2957032,29.9898409 35.7031591,29.2376964 C34.0871299,27.1424369 32.4711006,24.9934529 30.908939,22.8981934 C30.6934684,22.6295704 30.6396008,22.414672 30.9628066,22.1460489 C31.6092183,21.5550783 32.1478948,20.9103831 32.7943065,20.2656879 C33.1175123,19.9970649 33.1175123,19.7284419 32.9020417,19.3523696 C32.2017624,18.0092546 31.2321448,16.9347625 29.9931891,16.0214443 C29.8315862,15.9139951 29.6699832,15.8065459 29.400645,15.5916475 L29.400645,15.5916475 Z"/>
  </g>
</svg>
