<?xml version="1.0" encoding="UTF-8"?>
<svg width="80px" height="80px" viewBox="0 0 80 80" version="1.1" xmlns="http://www.w3.org/2000/svg" xmlns:xlink="http://www.w3.org/1999/xlink">
    <!-- Generator: Sketch 56.3 (81716) - https://sketch.com -->
    <title>xhdpi/pic_placeholder_unbounded</title>
    <desc>Created with Sketch.</desc>
    <g id="场外" stroke="none" stroke-width="1" fill="none" fill-rule="evenodd">
        <g id="未绑定收款方式" transform="translate(-148.000000, -249.000000)">
            <g id="pic_placeholder_unbounded" transform="translate(148.000000, 249.000000)">
                <circle id="椭圆形" fill="#72747F" fill-rule="nonzero" opacity="0.151483445" cx="40" cy="40" r="40"></circle>
                <g id="绑定银行卡" transform="translate(22.000000, 25.000000)" fill="#FFFFFF" fill-rule="nonzero">
                    <g id="编组" transform="translate(0.750003, 0.746102)">
                        <path d="M18.046896,15.2754084 C18.046896,14.8027516 17.6601768,14.4160324 17.18752,14.4160324 L6.015632,14.4160324 C5.5429752,14.4160324 5.156256,14.8027516 5.156256,15.2754084 C5.156256,15.7480652 5.5429752,16.1347844 6.015632,16.1347844 L17.18752,16.1347844 C17.6601768,16.1347844 18.046896,15.7480652 18.046896,15.2754084 Z M6.015632,19.2242411 C5.5429752,19.2242411 5.156256,19.6109603 5.156256,20.0836171 C5.156256,20.5562739 5.5429752,20.9429931 6.015632,20.9429931 L10.7422,20.9429931 C11.2148568,20.9429931 11.601576,20.5562739 11.601576,20.0836171 C11.601576,19.6109603 11.2148568,19.2242411 10.7422,19.2242411 L6.015632,19.2242411 Z" id="形状"></path>
                        <path d="M20.1695547,25.6351861 L2.46211224,25.6351861 C2.05390864,25.6351861 1.718752,25.3000294 1.718752,24.8918258 L1.718752,9.7539176 L33.6402735,9.7539176 L33.6402735,12.1086078 C33.6402735,12.5812646 34.0269927,12.9679838 34.4996495,12.9679838 C34.9723063,12.9679838 35.3590255,12.5812646 35.3590255,12.1086078 L35.3590255,2.46640912 C35.3590255,1.10859504 34.2547274,0.00429688 32.8969133,0.00429688 L2.46211224,0.00429688 C1.10429816,0.00429688 3.05311687e-15,1.10859504 3.05311687e-15,2.46640912 L3.05311687e-15,24.8918258 C3.05311687e-15,26.2496399 1.10429816,27.3539381 2.46211224,27.3539381 L20.1738516,27.3539381 C20.6465084,27.3539381 21.0332276,26.9672189 21.0332276,26.4945621 C21.0332276,26.0219053 20.6465084,25.6351861 20.1695547,25.6351861 Z M2.46211224,1.72304888 L32.8969133,1.72304888 C33.3051169,1.72304888 33.6402735,2.05820552 33.6402735,2.46640912 L33.6402735,8.0351656 L1.718752,8.0351656 L1.718752,2.46640912 C1.718752,2.05820552 2.04961176,1.72304888 2.46211224,1.72304888 Z M32.3769908,18.4250214 C31.7926151,18.4250214 31.2426145,18.6527561 30.830114,19.0652566 L29.4207374,20.4746332 L30.3531603,21.4070562 L29.4164405,22.343776 L28.4840175,21.411353 L27.0746409,22.8207297 C26.2238586,23.6715119 26.2238586,25.0594042 27.0746409,25.9144833 C27.500032,26.3398744 28.0629233,26.5547184 28.6215177,26.5547184 C29.1801121,26.5547184 29.7430034,26.3398744 30.1683945,25.9144833 L31.5777711,24.5051066 L30.6324575,23.559793 L31.5691774,22.6230732 L32.514491,23.5683868 L33.9238676,22.1590102 C34.7746498,21.3082279 34.7746498,19.9203357 33.9238676,19.0652566 C33.5113671,18.6527561 32.9613665,18.4250214 32.3769908,18.4250214 Z M28.6215177,24.8316695 C28.5484707,24.8316695 28.4066737,24.814482 28.2906579,24.6941694 C28.1746422,24.5781536 28.1531578,24.4363566 28.1531578,24.3633096 C28.1531578,24.2902626 28.1703453,24.1484656 28.2906579,24.0324498 L29.1328464,23.1902614 C29.1672214,23.344949 29.2445653,23.491043 29.360581,23.6113556 C29.4851906,23.7359651 29.6398782,23.813309 29.7988628,23.847684 L28.9480806,24.6984662 C28.8363617,24.814482 28.6945646,24.8316695 28.6215177,24.8316695 L28.6215177,24.8316695 Z M32.7078506,20.9429931 L31.8441777,21.806666 C31.8140995,21.6433846 31.7324588,21.4929938 31.6078493,21.3683842 C31.4875366,21.2480716 31.3414427,21.1750246 31.186755,21.1406496 L32.0418342,20.2855705 C32.1578499,20.1695547 32.299647,20.1480703 32.3726939,20.1480703 C32.4457409,20.1480703 32.5875379,20.1652578 32.7035537,20.2855705 C32.8195694,20.4015862 32.8410538,20.5433833 32.8410538,20.6164302 C32.8410538,20.6894772 32.8238663,20.8269774 32.7078506,20.9429931 L32.7078506,20.9429931 Z" id="形状"></path>
                        <path d="M30.4863636,14.4761887 C26.0605772,14.4761887 22.4726824,18.0640835 22.4726824,22.4898699 C22.4726824,26.9156563 26.0605772,30.5035511 30.4863636,30.5035511 C34.91215,30.5035511 38.5000448,26.9156563 38.5000448,22.4898699 C38.5000448,18.0640835 34.91215,14.4761887 30.4863636,14.4761887 Z M34.9379313,26.9414376 C33.7476955,28.1316734 32.1664437,28.7847991 30.4863636,28.7847991 C28.8062835,28.7847991 27.2250317,28.1316734 26.0347959,26.9414376 C24.8445602,25.7512018 24.1914344,24.16995 24.1914344,22.4898699 C24.1914344,20.8097898 24.8445602,19.228538 26.0347959,18.0383022 C27.2250317,16.8480665 28.8062835,16.1949407 30.4863636,16.1949407 C32.1664437,16.1949407 33.7476955,16.8480665 34.9379313,18.0383022 C36.128167,19.228538 36.7812928,20.8097898 36.7812928,22.4898699 C36.7812928,24.16995 36.128167,25.7512018 34.9379313,26.9414376 Z" id="形状"></path>
                    </g>
                </g>
                <path d="M61.250048,42.5 L64.5,40.2222903" id="直线-5" stroke="#FFFFFF" stroke-width="1.5" stroke-linecap="round"></path>
                <path d="M62,46.6890947 L66.5,46.7234698" id="直线" stroke="#FFFFFF" stroke-width="1.5" stroke-linecap="round"></path>
                <path d="M62.7500032,50.5 L65.5,52.30082" id="直线-2" stroke="#FFFFFF" stroke-width="1.5" stroke-linecap="round"></path>
            </g>
        </g>
    </g>
</svg>