<?xml version="1.0" encoding="UTF-8"?>
<svg width="16px" height="18px" viewBox="0 0 16 18" version="1.1" xmlns="http://www.w3.org/2000/svg" xmlns:xlink="http://www.w3.org/1999/xlink">
    <!-- Generator: Sketch 56 (81588) - https://sketch.com -->
    <title>形状</title>
    <desc>Created with Sketch.</desc>
    <g id="Symbols" stroke="none" stroke-width="1" fill="none" fill-rule="evenodd">
        <g id="ZB.COM/Icon/List_32/menu_safe" transform="translate(-8.000000, -7.000000)" fill="#FFFFFF">
            <path d="M23.6089292,9.52941719 C23.3808806,9.33326125 23.0805684,9.22592832 22.7700199,9.22592832 C22.7417012,9.22592832 22.7133826,9.22592832 22.6850857,9.22778138 C22.6679598,9.22961383 22.4702076,9.24077334 22.1611586,9.24077334 C21.6489458,9.24077334 20.6489485,9.20745957 19.7016765,8.99468791 C18.4785423,8.71897423 17.0669144,7.44220019 16.6562401,7.1905556 C16.4492077,7.06292144 16.2109227,7 15.9721595,7 C15.7343744,7 15.4960894,7.06292144 15.2895351,7.18872314 C15.2397439,7.22018386 13.7616769,8.66898298 12.3159059,8.99468791 C11.3691337,9.20745957 10.3500762,9.24077334 9.83834153,9.24077334 C9.5292491,9.24077334 9.33201847,9.22961383 9.31250188,9.22778138 C9.28563939,9.22592832 9.25877692,9.22592832 9.23143629,9.22592832 C8.92038784,9.22592832 8.61911942,9.33324066 8.39011457,9.52941719 C8.14159312,9.74218885 8,10.0400774 8,10.3527904 L8,13.1708309 C8,23.5882208 15.4394956,24.9297075 15.7548907,24.9833019 C15.827176,24.994482 15.8999177,25 15.9726811,25 C16.0449447,25 16.1186644,24.994482 16.1899499,24.9833019 C16.5058449,24.9296869 24,23.5882002 24,13.1708309 L24,10.3527904 C24,10.0400774 23.8579287,9.74220943 23.6089292,9.52941719 Z M20.7729295,14.1281207 L15.4519369,18.6692806 C15.4186859,18.717221 15.3778789,18.76528 15.3285068,18.80614 C15.1723414,18.9394395 14.9658174,19.0034192 14.7612664,18.9998593 C14.5567828,19.0034192 14.3507072,18.9394394 14.1945866,18.80614 C14.1452369,18.76528 14.1039366,18.717221 14.0706856,18.6692806 L11.2270845,16.2414113 C10.9243052,15.9836727 10.9243052,15.5660341 11.2270845,15.3065155 C11.529819,15.048856 12.0209385,15.048856 12.3237179,15.3065155 L14.7612889,17.387826 L19.6768118,13.193304 C19.9795912,12.9355653 20.470195,12.9355653 20.7729519,13.193304 C21.0756864,13.4509437 21.0756864,13.8704414 20.7729295,14.1281207 Z" id="形状"></path>
        </g>
    </g>
</svg>