<?xml version="1.0" encoding="UTF-8"?>
<svg width="18px" height="18px" viewBox="0 0 18 18" version="1.1" xmlns="http://www.w3.org/2000/svg" xmlns:xlink="http://www.w3.org/1999/xlink">
    <!-- Generator: Sketch 56 (81588) - https://sketch.com -->
    <title>形状</title>
    <desc>Created with Sketch.</desc>
    <g id="Symbols" stroke="none" stroke-width="1" fill="none" fill-rule="evenodd">
        <g id="ZB.COM/Icon/List_32/menu_help" transform="translate(-7.000000, -7.000000)" fill="#FFFFFF">
            <path d="M16,7 C11.0278169,7 7,11.0309859 7,16 C7,20.9690141 11.0309859,25 16,25 C20.9690141,25 25,20.9690141 25,16 C25,11.0309859 20.9721831,7 16,7 Z M16,21 C15.4486803,21 15,20.5517241 15,20 C15,19.4482759 15.4486804,19 16,19 C16.5513196,19 17,19.4454023 17,20 C17,20.5545977 16.5513196,21 16,21 Z M18.8021597,14.4156448 C18.6642924,14.6820296 18.500025,14.9099366 18.3093574,15.1023256 C18.1186899,15.2947146 17.7784217,15.620296 17.2856195,16.0761099 C17.1506855,16.2033827 17.0392183,16.3188161 16.960018,16.4164905 C16.8778843,16.5141649 16.816284,16.6029598 16.7752171,16.6828753 C16.7341503,16.7627907 16.7048168,16.845666 16.68135,16.9255814 C16.6608166,17.0084566 16.6285498,17.1505285 16.5816163,17.351797 C16.5053493,17.7839324 16.2677482,18 15.8658797,18 C15.6576121,18 15.4845446,17.9289641 15.3408106,17.7868922 C15.1970766,17.6448203 15.1296097,17.4346723 15.1296097,17.1564482 C15.1296097,16.8071882 15.1824099,16.5052854 15.285077,16.25074 C15.3906775,15.9961945 15.5256115,15.7712474 15.6986789,15.5788583 C15.8717464,15.3864693 16.1034808,15.1556025 16.3938821,14.8921776 C16.6520166,14.6613108 16.8338841,14.4837209 16.9482846,14.3653277 C17.0626851,14.2469345 17.1594856,14.1167019 17.2357526,13.9687104 C17.3120196,13.8236787 17.3530864,13.6668076 17.3530864,13.4951374 C17.3530864,13.1636364 17.2328192,12.8824524 16.9952181,12.6545455 C16.7576171,12.4266385 16.4496157,12.3112051 16.0741473,12.3112051 C15.6341453,12.3112051 15.3085438,12.4266385 15.1032096,12.6575053 C14.8949419,12.8883721 14.7189411,13.2257928 14.5752072,13.6756871 C14.4402732,14.1463002 14.1821387,14.3801268 13.8008036,14.3801269 C13.5778693,14.3801269 13.3872018,14.2972516 13.2317344,14.1344609 C13.076267,13.9716702 13,13.7940803 13,13.6016913 C13,13.2080338 13.1202672,12.8084567 13.363735,12.4029598 C13.6072027,11.997463 13.965071,11.6630021 14.4314732,11.3966173 C14.8978753,11.1302326 15.4464111,11 16.0682806,11 C16.6490832,11 17.1624189,11.1124736 17.6053542,11.3344609 C18.0482896,11.5564482 18.3944245,11.8583509 18.6349589,12.2401691 C18.8754934,12.6219873 18.9986939,13.0363637 18.9986939,13.4862579 C19.0104273,13.8384778 18.9429603,14.14926 18.8021597,14.4156448 Z" id="形状"></path>
        </g>
    </g>
</svg>