<svg xmlns="http://www.w3.org/2000/svg" xmlns:xlink="http://www.w3.org/1999/xlink" width="375" height="170" viewBox="0 0 375 170">
  <defs>
    <rect id="banner2-b" width="382" height="111" x="0" y="0"/>
    <filter id="banner2-a" width="127.2%" height="193.7%" x="-13.6%" y="-39.6%" filterUnits="objectBoundingBox">
      <feOffset dy="8" in="SourceAlpha" result="shadowOffsetOuter1"/>
      <feGaussianBlur in="shadowOffsetOuter1" result="shadowBlurOuter1" stdDeviation="16"/>
      <feColorMatrix in="shadowBlurOuter1" values="0 0 0 0 0.0784313725   0 0 0 0 0.192156863   0 0 0 0 0.498039216  0 0 0 0.086948208 0"/>
    </filter>
    <linearGradient id="banner2-c" x1="50%" x2="50%" y1="0%" y2="86.568%">
      <stop offset="0%" stop-color="#00EDFF"/>
      <stop offset="81.76%" stop-color="#520000"/>
      <stop offset="100%" stop-opacity="0"/>
    </linearGradient>
  </defs>
  <g fill="none" fill-rule="evenodd">
    <rect width="375" height="801" fill="#FFF"/>
    <rect width="479" height="1079" x="-41.5" y="-7.5" fill="#232529" fill-rule="nonzero" stroke="#FFF" rx="13"/>
    <g transform="translate(0 120)">
      <use fill="#000" filter="url(#banner2-a)" xlink:href="#banner2-b"/>
      <use fill="#232529" xlink:href="#banner2-b"/>
      <g transform="translate(87 63)">
        <path fill="#D11D3D" d="M6,0 L72,0 L72,34 L6,34 C2.6862915,34 4.05812251e-16,31.3137085 0,28 L0,6 C-4.05812251e-16,2.6862915 2.6862915,2.38507522e-15 6,0 Z"/>
        <text fill="#F8E0E4" font-family="PingFangSC-Semibold, PingFang SC" font-size="14" font-weight="500" transform="translate(20 8)">
          <tspan x="0" y="15">主版</tspan>
        </text>
        <rect width="71" height="33" x="71.5" y=".5" stroke="#D11D3D" rx="15"/>
        <path stroke="#D11D3D" d="M142.5,0.5 L142.5,33.5 L208,33.5 C211.037566,33.5 213.5,31.0375661 213.5,28 L213.5,6 C213.5,2.96243388 211.037566,0.5 208,0.5 L142.5,0.5 Z"/>
        <text fill="#D11D3D" font-family="PingFangSC-Semibold, PingFang SC" font-size="14" font-weight="500" transform="translate(94 7)">
          <tspan x="0" y="15">创新</tspan>
        </text>
        <text fill="#D11D3D" font-family="PingFangSC-Semibold, PingFang SC" font-size="14" font-weight="500" transform="translate(165 7)">
          <tspan x="0" y="15">杠杆</tspan>
        </text>
      </g>
    </g>
    <rect width="466" height="220" x="-45" y="-44" fill="#1B1924"/>
    <g transform="translate(15 48)">
      <rect width="17.486" height="34.375" fill="#D11D3D" opacity=".15" transform="translate(116 52)"/>
      <rect width="102.897" height="60.689" fill="#D11D3D" opacity=".15" transform="translate(20 13)"/>
      <g fill="#D11D3D">
        <polygon fill-rule="nonzero" points="29.405 88.457 112.202 88.457 112.202 87.943 29.405 87.943"/>
        <polygon fill-rule="nonzero" points="71.19 76.629 71.19 88.2 71.706 88.2 71.706 76.629"/>
        <path fill-rule="nonzero" d="M23.2142857 43.6857143L24.7619048 43.6857143 24.7619048 42.6857143 23.2142857 42.6857143 23.2142857 43.6857143zM26.3095238 43.6857143L27.8571429 43.6857143 27.8571429 42.6857143 26.3095238 42.6857143 26.3095238 43.6857143zM29.4047619 43.6857143L30.952381 43.6857143 30.952381 42.6857143 29.4047619 42.6857143 29.4047619 43.6857143zM32.5 43.6857143L34.047619 43.6857143 34.047619 42.6857143 32.5 42.6857143 32.5 43.6857143zM35.5952381 43.6857143L37.1428571 43.6857143 37.1428571 42.6857143 35.5952381 42.6857143 35.5952381 43.6857143zM38.6904762 43.6857143L40.2380952 43.6857143 40.2380952 42.6857143 38.6904762 42.6857143 38.6904762 43.6857143zM41.7857143 43.6857143L43.3333333 43.6857143 43.3333333 42.6857143 41.7857143 42.6857143 41.7857143 43.6857143zM44.8809524 43.6857143L46.4285714 43.6857143 46.4285714 42.6857143 44.8809524 42.6857143 44.8809524 43.6857143zM47.9761905 43.6857143L49.5238095 43.6857143 49.5238095 42.6857143 47.9761905 42.6857143 47.9761905 43.6857143zM51.0714286 43.6857143L52.6190476 43.6857143 52.6190476 42.6857143 51.0714286 42.6857143 51.0714286 43.6857143zM54.1666667 43.6857143L55.7142857 43.6857143 55.7142857 42.6857143 54.1666667 42.6857143 54.1666667 43.6857143zM57.2619048 43.6857143L58.8095238 43.6857143 58.8095238 42.6857143 57.2619048 42.6857143 57.2619048 43.6857143zM60.3571429 43.6857143L61.9047619 43.6857143 61.9047619 42.6857143 60.3571429 42.6857143 60.3571429 43.6857143zM63.452381 43.6857143L65 43.6857143 65 42.6857143 63.452381 42.6857143 63.452381 43.6857143zM66.547619 43.6857143L68.0952381 43.6857143 68.0952381 42.6857143 66.547619 42.6857143 66.547619 43.6857143zM69.6428571 43.6857143L71.1904762 43.6857143 71.1904762 42.6857143 69.6428571 42.6857143 69.6428571 43.6857143zM72.7380952 43.6857143L74.2857143 43.6857143 74.2857143 42.6857143 72.7380952 42.6857143 72.7380952 43.6857143zM75.8333333 43.6857143L77.3809524 43.6857143 77.3809524 42.6857143 75.8333333 42.6857143 75.8333333 43.6857143zM78.9285714 43.6857143L80.4761905 43.6857143 80.4761905 42.6857143 78.9285714 42.6857143 78.9285714 43.6857143zM82.0238095 43.6857143L83.5714286 43.6857143 83.5714286 42.6857143 82.0238095 42.6857143 82.0238095 43.6857143zM85.1190476 43.6857143L86.6666667 43.6857143 86.6666667 42.6857143 85.1190476 42.6857143 85.1190476 43.6857143zM88.2142857 43.6857143L89.7619048 43.6857143 89.7619048 42.6857143 88.2142857 42.6857143 88.2142857 43.6857143zM91.3095238 43.6857143L92.8571429 43.6857143 92.8571429 42.6857143 91.3095238 42.6857143 91.3095238 43.6857143zM94.4047619 43.6857143L95.952381 43.6857143 95.952381 42.6857143 94.4047619 42.6857143 94.4047619 43.6857143zM97.5 43.6857143L99.047619 43.6857143 99.047619 42.6857143 97.5 42.6857143 97.5 43.6857143zM100.595238 43.6857143L102.142857 43.6857143 102.142857 42.6857143 100.595238 42.6857143 100.595238 43.6857143zM103.690476 43.6857143L105.238095 43.6857143 105.238095 42.6857143 103.690476 42.6857143 103.690476 43.6857143zM106.785714 43.6857143L108.333333 43.6857143 108.333333 42.6857143 106.785714 42.6857143 106.785714 43.6857143zM109.880952 43.6857143L111.428571 43.6857143 111.428571 42.6857143 109.880952 42.6857143 109.880952 43.6857143zM112.97619 43.6857143L114.52381 43.6857143 114.52381 42.6857143 112.97619 42.6857143 112.97619 43.6857143zM116.071429 43.6857143L117.619048 43.6857143 117.619048 42.6857143 116.071429 42.6857143 116.071429 43.6857143zM114.52381 49.8857143L114.52381 87.9428571 136.190476 87.9428571 136.190476 49.8857143 114.52381 49.8857143zM114.007937 49.3714286L136.706349 49.3714286 136.706349 88.4571429 114.007937 88.4571429 114.007937 49.3714286z"/>
        <path fill-rule="nonzero" d="M121.230159,61.1714286 L122.777778,61.1714286 L122.777778,60.1714286 L121.230159,60.1714286 L121.230159,61.1714286 Z M124.325397,61.1714286 L125.873016,61.1714286 L125.873016,60.1714286 L124.325397,60.1714286 L124.325397,61.1714286 Z M127.420635,61.1714286 L128.968254,61.1714286 L128.968254,60.1714286 L127.420635,60.1714286 L127.420635,61.1714286 Z"/>
        <polygon fill-rule="nonzero" points="121.746 53.486 128.71 53.486 128.71 52.971 121.746 52.971"/>
        <path fill-rule="nonzero" d="M85.1190476 15.9428571L85.1190476 17.4857143 86.1190476 17.4857143 86.1190476 15.9428571 85.1190476 15.9428571zM85.1190476 19.0285714L85.1190476 20.5714286 86.1190476 20.5714286 86.1190476 19.0285714 85.1190476 19.0285714zM85.1190476 22.1142857L85.1190476 23.6571429 86.1190476 23.6571429 86.1190476 22.1142857 85.1190476 22.1142857zM85.1190476 25.2L85.1190476 26.7428571 86.1190476 26.7428571 86.1190476 25.2 85.1190476 25.2zM85.1190476 28.2857143L85.1190476 29.8285714 86.1190476 29.8285714 86.1190476 28.2857143 85.1190476 28.2857143zM85.1190476 31.3714286L85.1190476 32.9142857 86.1190476 32.9142857 86.1190476 31.3714286 85.1190476 31.3714286zM85.1190476 34.4571429L85.1190476 36 86.1190476 36 86.1190476 34.4571429 85.1190476 34.4571429zM85.1190476 37.5428571L85.1190476 39.0857143 86.1190476 39.0857143 86.1190476 37.5428571 85.1190476 37.5428571zM85.1190476 40.6285714L85.1190476 42.1714286 86.1190476 42.1714286 86.1190476 40.6285714 85.1190476 40.6285714zM85.1190476 43.7142857L85.1190476 45.2571429 86.1190476 45.2571429 86.1190476 43.7142857 85.1190476 43.7142857zM85.1190476 46.8L85.1190476 48.3428571 86.1190476 48.3428571 86.1190476 46.8 85.1190476 46.8zM85.1190476 49.8857143L85.1190476 51.4285714 86.1190476 51.4285714 86.1190476 49.8857143 85.1190476 49.8857143zM85.1190476 52.9714286L85.1190476 54.5142857 86.1190476 54.5142857 86.1190476 52.9714286 85.1190476 52.9714286zM85.1190476 56.0571429L85.1190476 57.6 86.1190476 57.6 86.1190476 56.0571429 85.1190476 56.0571429zM85.1190476 59.1428571L85.1190476 60.6857143 86.1190476 60.6857143 86.1190476 59.1428571 85.1190476 59.1428571zM85.1190476 62.2285714L85.1190476 63.7714286 86.1190476 63.7714286 86.1190476 62.2285714 85.1190476 62.2285714zM85.1190476 65.3142857L85.1190476 66.8571429 86.1190476 66.8571429 86.1190476 65.3142857 85.1190476 65.3142857zM85.1190476 68.4L85.1190476 69.9428571 86.1190476 69.9428571 86.1190476 68.4 85.1190476 68.4zM8.25396825 61.7142857L8.25396825 87.9428571 26.8253968 87.9428571 26.8253968 61.7142857 8.25396825 61.7142857zM7.73809524 61.2L27.3412698 61.2 27.3412698 88.4571429 7.73809524 88.4571429 7.73809524 61.2z"/>
        <path fill-rule="nonzero" d="M10.8333333,70.4571429 L10.8333333,73.0285714 L14.9603175,73.0285714 L14.9603175,70.4571429 L10.8333333,70.4571429 Z M10.3174603,69.9428571 L15.4761905,69.9428571 L15.4761905,73.5428571 L10.3174603,73.5428571 L10.3174603,69.9428571 Z"/>
        <path fill-rule="nonzero" d="M10.8333333,76.1142857 L14.9603175,76.1142857 L14.9603175,73.5428571 L10.8333333,73.5428571 L10.8333333,76.1142857 Z M10.3174603,73.0285714 L15.4761905,73.0285714 L15.4761905,76.6285714 L10.3174603,76.6285714 L10.3174603,73.0285714 Z"/>
        <path fill-rule="nonzero" d="M15.4761905,70.4571429 L15.4761905,73.0285714 L19.6031746,73.0285714 L19.6031746,70.4571429 L15.4761905,70.4571429 Z M14.9603175,69.9428571 L20.1190476,69.9428571 L20.1190476,73.5428571 L14.9603175,73.5428571 L14.9603175,69.9428571 Z"/>
        <path fill-rule="nonzero" d="M15.4761905,76.1142857 L19.6031746,76.1142857 L19.6031746,73.5428571 L15.4761905,73.5428571 L15.4761905,76.1142857 Z M14.9603175,73.0285714 L20.1190476,73.0285714 L20.1190476,76.6285714 L14.9603175,76.6285714 L14.9603175,73.0285714 Z"/>
        <path fill-rule="nonzero" d="M20.1190476,70.4571429 L20.1190476,73.0285714 L24.2460317,73.0285714 L24.2460317,70.4571429 L20.1190476,70.4571429 Z M19.6031746,69.9428571 L24.7619048,69.9428571 L24.7619048,73.5428571 L19.6031746,73.5428571 L19.6031746,69.9428571 Z"/>
        <path fill-rule="nonzero" d="M20.1190476 76.1142857L24.2460317 76.1142857 24.2460317 73.5428571 20.1190476 73.5428571 20.1190476 76.1142857zM19.6031746 73.0285714L24.7619048 73.0285714 24.7619048 76.6285714 19.6031746 76.6285714 19.6031746 73.0285714zM10.8333333 76.6285714L10.8333333 79.2 14.9603175 79.2 14.9603175 76.6285714 10.8333333 76.6285714zM10.3174603 76.1142857L15.4761905 76.1142857 15.4761905 79.7142857 10.3174603 79.7142857 10.3174603 76.1142857z"/>
        <path fill-rule="nonzero" d="M15.4761905,76.6285714 L15.4761905,79.2 L19.6031746,79.2 L19.6031746,76.6285714 L15.4761905,76.6285714 Z M14.9603175,76.1142857 L20.1190476,76.1142857 L20.1190476,79.7142857 L14.9603175,79.7142857 L14.9603175,76.1142857 Z"/>
        <path fill-rule="nonzero" d="M20.1190476 85.3714286L24.2460317 85.3714286 24.2460317 76.6285714 20.1190476 76.6285714 20.1190476 85.3714286zM19.6031746 76.1142857L24.7619048 76.1142857 24.7619048 85.8857143 19.6031746 85.8857143 19.6031746 76.1142857zM10.8333333 82.2857143L14.9603175 82.2857143 14.9603175 79.7142857 10.8333333 79.7142857 10.8333333 82.2857143zM10.3174603 79.2L15.4761905 79.2 15.4761905 82.8 10.3174603 82.8 10.3174603 79.2z"/>
        <path fill-rule="nonzero" d="M15.4761905,82.2857143 L19.6031746,82.2857143 L19.6031746,79.7142857 L15.4761905,79.7142857 L15.4761905,82.2857143 Z M14.9603175,79.2 L20.1190476,79.2 L20.1190476,82.8 L14.9603175,82.8 L14.9603175,79.2 Z"/>
        <path fill-rule="nonzero" d="M10.8333333,85.3714286 L14.9603175,85.3714286 L14.9603175,82.8 L10.8333333,82.8 L10.8333333,85.3714286 Z M10.3174603,82.2857143 L15.4761905,82.2857143 L15.4761905,85.8857143 L10.3174603,85.8857143 L10.3174603,82.2857143 Z"/>
        <path fill-rule="nonzero" d="M15.4761905,85.3714286 L19.6031746,85.3714286 L19.6031746,82.8 L15.4761905,82.8 L15.4761905,85.3714286 Z M14.9603175,82.2857143 L20.1190476,82.2857143 L20.1190476,85.8857143 L14.9603175,85.8857143 L14.9603175,82.2857143 Z"/>
        <polygon fill-rule="nonzero" points="0 90 142.639 90 142.639 89.486 0 89.486"/>
        <path fill-rule="nonzero" d="M35.0793651 57.0857143L35.0793651 69.9428571 37.6587302 69.9428571 37.6587302 57.0857143 35.0793651 57.0857143zM34.5634921 56.5714286L38.1746032 56.5714286 38.1746032 70.4571429 34.5634921 70.4571429 34.5634921 56.5714286zM40.7539683 62.7428571L40.7539683 69.9428571 43.3333333 69.9428571 43.3333333 62.7428571 40.7539683 62.7428571zM40.2380952 62.2285714L43.8492063 62.2285714 43.8492063 70.4571429 40.2380952 70.4571429 40.2380952 62.2285714zM52.1031746 64.2857143L52.1031746 69.9428571 54.6825397 69.9428571 54.6825397 64.2857143 52.1031746 64.2857143zM51.5873016 63.7714286L55.1984127 63.7714286 55.1984127 70.4571429 51.5873016 70.4571429 51.5873016 63.7714286zM57.7777778 61.2L57.7777778 69.9428571 60.3571429 69.9428571 60.3571429 61.2 57.7777778 61.2zM57.2619048 60.6857143L60.8730159 60.6857143 60.8730159 70.4571429 57.2619048 70.4571429 57.2619048 60.6857143zM63.452381 58.1142857L63.452381 69.9428571 66.031746 69.9428571 66.031746 58.1142857 63.452381 58.1142857zM62.9365079 57.6L66.547619 57.6 66.547619 70.4571429 62.9365079 70.4571429 62.9365079 57.6zM69.1269841 52.4571429L69.1269841 69.9428571 71.7063492 69.9428571 71.7063492 52.4571429 69.1269841 52.4571429zM68.6111111 51.9428571L72.2222222 51.9428571 72.2222222 70.4571429 68.6111111 70.4571429 68.6111111 51.9428571zM46.4285714 66.8571429L46.4285714 69.9428571 49.0079365 69.9428571 49.0079365 66.8571429 46.4285714 66.8571429zM45.9126984 66.3428571L49.5238095 66.3428571 49.5238095 70.4571429 45.9126984 70.4571429 45.9126984 66.3428571z"/>
        <polygon fill-rule="nonzero" points="23.214 20.057 37.143 20.057 37.143 19.543 23.214 19.543"/>
        <polygon fill-rule="nonzero" points="47.976 20.057 54.683 20.057 54.683 19.543 47.976 19.543"/>
        <polygon fill-rule="nonzero" points="102.143 58.629 108.849 58.629 108.849 58.114 102.143 58.114"/>
        <polygon fill-rule="nonzero" points="23.214 23.657 33.016 23.657 33.016 23.143 23.214 23.143"/>
        <polygon fill-rule="nonzero" points="47.976 23.657 62.421 23.657 62.421 23.143 47.976 23.143"/>
        <polygon fill-rule="nonzero" points="94.405 62.229 108.849 62.229 108.849 61.714 94.405 61.714"/>
        <path fill-rule="nonzero" d="M125.099206,26.7428571 C132.364381,26.7428571 138.253968,20.8713914 138.253968,13.6285714 C138.253968,6.38575142 132.364381,0.514285714 125.099206,0.514285714 C117.834032,0.514285714 111.944444,6.38575142 111.944444,13.6285714 C111.944444,20.8713914 117.834032,26.7428571 125.099206,26.7428571 Z M125.099206,27.2571429 C117.549123,27.2571429 111.428571,21.1554236 111.428571,13.6285714 C111.428571,6.10171927 117.549123,0 125.099206,0 C132.64929,0 138.769841,6.10171927 138.769841,13.6285714 C138.769841,21.1554236 132.64929,27.2571429 125.099206,27.2571429 Z"/>
        <rect width="1" height="16.971" x="125.873" y="29.829"/>
        <rect width="81.508" height="1" x="29.921" y="76.114"/>
        <rect width="1" height="47.829" x="17.024" y="10.8"/>
        <rect width="91.825" height="1" x="17.024" y="10.286"/>
        <polygon fill-rule="nonzero" points="71.008 76.447 59.659 87.761 60.024 88.125 71.373 76.81"/>
        <polygon fill-rule="nonzero" points="71.889 76.447 83.238 87.761 82.873 88.125 71.524 76.81"/>
      </g>
      <g transform="translate(11 2)">
        <path fill="#FFF" fill-rule="nonzero" d="M115.189669 81.9689441C115.76023 81.9689441 116.22276 81.5073246 116.22276 80.9378882 116.22276 80.3684517 115.76023 79.9068323 115.189669 79.9068323 114.619109 79.9068323 114.156578 80.3684517 114.156578 80.9378882 114.156578 81.5073246 114.619109 81.9689441 115.189669 81.9689441zM115.189669 82.484472C114.333828 82.484472 113.640032 81.7920429 113.640032 80.9378882 113.640032 80.0837335 114.333828 79.3913043 115.189669 79.3913043 116.04551 79.3913043 116.739306 80.0837335 116.739306 80.9378882 116.739306 81.7920429 116.04551 82.484472 115.189669 82.484472zM97.6271186 33.9937888L99.1767554 33.9937888 99.1767554 32.9937888 97.6271186 32.9937888 97.6271186 33.9937888zM100.726392 33.9937888L102.276029 33.9937888 102.276029 32.9937888 100.726392 32.9937888 100.726392 33.9937888zM103.825666 33.9937888L105.375303 33.9937888 105.375303 32.9937888 103.825666 32.9937888 103.825666 33.9937888zM106.924939 33.9937888L108.474576 33.9937888 108.474576 32.9937888 106.924939 32.9937888 106.924939 33.9937888z"/>
        <path fill="#C1A0A0" d="M115.189669,11.8571429 L127.586764,11.8571429 L127.586764,12.3726708 L115.189669,12.3726708 L114.673123,12.3726708 L114.673123,0 L115.189669,0 L115.189669,11.8571429 Z"/>
        <polygon fill="#C1A0A0" fill-rule="nonzero" points="112.367 70.376 117.798 64.957 122.938 64.957 122.938 64.441 117.584 64.441 112.359 69.656 110.128 67.534 107.441 67.534 107.441 68.05 109.921 68.05"/>
        <path fill="#C1A0A0" fill-rule="nonzero" d="M0.516545601,67.0186335 L13.9467312,67.0186335 L13.9467312,62.8944099 L0.516545601,62.8944099 L0.516545601,67.0186335 Z M0,62.378882 L14.4632768,62.378882 L14.4632768,67.5341615 L0,67.5341615 L0,62.378882 Z"/>
        <polygon fill="#CA7E84" fill-rule="nonzero" points="35.018 49.491 43.909 58.364 63.644 38.149 73.242 38.149 77.482 42.38 86.37 33.509 96.077 33.509 96.077 32.994 86.156 32.994 77.482 41.651 73.456 37.634 63.426 37.634 43.904 57.63 35.232 48.975 25.416 48.975 14.127 37.965 13.766 38.333 25.205 49.491"/>
      </g>
    </g>
    <g transform="translate(179 43)">
      <path fill="#D11D3D" fill-rule="nonzero" d="M42.5,73.5 C40.290861,73.5 38.5,71.709139 38.5,69.5 C38.5,67.290861 40.290861,65.5 42.5,65.5 C44.709139,65.5 46.5,67.290861 46.5,69.5 C46.5,71.709139 44.709139,73.5 42.5,73.5 Z M42.5,72.5 C44.1568542,72.5 45.5,71.1568542 45.5,69.5 C45.5,67.8431458 44.1568542,66.5 42.5,66.5 C40.8431458,66.5 39.5,67.8431458 39.5,69.5 C39.5,71.1568542 40.8431458,72.5 42.5,72.5 Z"/>
      <polygon fill="#D11D3D" points="4 4 4 0 5 0 5 4 9 4 9 5 5 5 5 9 4 9 4 5 0 5 0 4" transform="translate(115 87)"/>
      <path fill="#D11D3D" fill-rule="nonzero" d="M157.5,8.5 C155.290861,8.5 153.5,6.709139 153.5,4.5 C153.5,2.290861 155.290861,0.5 157.5,0.5 C159.709139,0.5 161.5,2.290861 161.5,4.5 C161.5,6.709139 159.709139,8.5 157.5,8.5 Z M157.5,7.5 C159.156854,7.5 160.5,6.15685425 160.5,4.5 C160.5,2.84314575 159.156854,1.5 157.5,1.5 C155.843146,1.5 154.5,2.84314575 154.5,4.5 C154.5,6.15685425 155.843146,7.5 157.5,7.5 Z"/>
      <polygon fill="#40D090" points="4 4 4 0 5 0 5 4 9 4 9 5 5 5 5 9 4 9 4 5 0 5 0 4" transform="translate(0 22)"/>
    </g>
    <text fill="#D11D3D" font-family="Verdana" font-size="20">
      <tspan x="171" y="92">ZB New Upgrade</tspan>
    </text>
    <text fill="#FFF" font-family="Verdana" font-size="12">
      <tspan x="171" y="121">Professional fluency and safety</tspan>
    </text>
    <path fill="url(#banner2-c)" d="M87.5142938,-277.153808 C149.890595,-262.999046 196.917016,-251.616622 277.465801,-288.326467 C358.014586,-325.036313 408.372424,-270.70643 408.372424,-266.84604 C408.372424,-262.98565 408.372424,129.179245 408.372424,129.179245 C408.372424,129.179245 63.8858845,168.426295 -44.0351123,109.179245 C-151.956109,49.9321959 -44.0351134,-237.309083 -44.0351123,-277.153808 C-44.0351113,-316.998533 25.1379929,-291.30857 87.5142938,-277.153808 Z" opacity=".271"/>
  </g>
</svg>
