<?xml version="1.0" standalone="no"?><!DOCTYPE svg PUBLIC "-//W3C//DTD SVG 1.1//EN" "http://www.w3.org/Graphics/SVG/1.1/DTD/svg11.dtd"><svg t="1564048850477" class="icon" viewBox="0 0 1024 1024" version="1.1" xmlns="http://www.w3.org/2000/svg" p-id="2932" xmlns:xlink="http://www.w3.org/1999/xlink" width="200" height="200"><defs><style type="text/css"></style></defs><path d="M520.819 317.484h456.171c-10.989-26.173-24.003-51.207-39.081-74.855h-417.126v74.855h0.035zM875.322 861.311h-726.645c27.31 28.307 57.75 53.448 90.929 74.855h544.646c33.32-21.407 63.76-46.549 91.070-74.855zM520.819 162.76h354.468c-27.311-28.307-57.75-53.448-90.929-74.855h-263.54v74.855zM520.819 472.066h493.652c-2.027-25.497-5.903-50.496-11.558-74.855h-482.095v74.855zM1014.399 552.006h-1004.8c2.027 25.497 5.903 50.496 11.558 74.855h981.685c5.654-24.324 9.637-49.359 11.558-74.855zM977.026 706.623h-930.051c10.989 26.173 24.003 51.207 39.081 74.855h851.889c15.078-23.683 28.093-48.718 39.081-74.855z" fill="#FFFFFF" p-id="2933"></path><path d="M784.359 87.905c-76.313-49.038-166.566-78.127-263.54-79.727v79.727h263.54zM520.819 242.629h417.232c-18.242-28.662-39.188-55.51-62.622-79.834h-354.468v79.834h-0.142zM520.819 397.317h482.13c-6.472-27.524-15.078-54.266-25.817-79.834h-456.313v79.834zM520.819 552.006h493.652c1.032-13.122 1.601-26.492 1.601-39.971 0-13.477-0.569-26.742-1.601-39.971h-493.652v79.94zM1002.843 626.754h-981.685c6.472 27.524 15.078 54.266 25.817 79.834h930.016c10.775-25.568 19.38-52.167 25.853-79.834zM937.945 781.478h-851.889c18.242 28.662 39.188 55.51 62.622 79.834h726.645c23.434-24.359 44.38-51.065 62.622-79.834zM784.359 936.166h-544.717c78.269 50.283 171.224 79.62 271.007 79.834h2.489c99.997-0.214 192.988-29.551 271.221-79.834z" fill="#EB0000" p-id="2934"></path><path d="M520.819 472.066v-463.888c-2.489 0-4.979-0.106-7.467-0.106h-2.489c-63.76 0.106-124.818 12.127-180.861 33.96l4.41 13.691h22.439l-18.242 13.264 6.899 21.407-18.242-13.264-18.242 13.264 6.898-21.407-18.136-13.264c-93.026 43.846-170.62 115.322-222.041 203.869l4.516 13.94h22.545l-18.207 13.264 7.006 21.407-18.242-13.264-18.242 13.264 6.899-21.407-0.675-0.463c-22.439 44.629-38.405 92.991-46.655 143.949l2.17 6.579h22.545l-18.242 13.264 7.006 21.407-17.318-12.588c-1.813 17.424-2.845 35.205-2.845 53.128 0 13.477 0.569 26.742 1.601 39.971h511.218v-79.976zM91.603 525.869l-18.242-13.264-18.242 13.264 6.899-21.407-18.242-13.264h22.545l6.898-21.407 7.006 21.407h22.545l-18.242 13.264 7.077 21.407zM84.597 395.503l7.006 21.407-18.242-13.264-18.35 13.371 6.899-21.407-18.242-13.264h22.545l6.898-21.407 7.006 21.407h22.545l-18.065 13.157zM148.109 449.982l6.898 21.407-18.242-13.264-18.242 13.264 6.899-21.407-18.242-13.264h22.545l7.006-21.407 7.006 21.407h22.545l-18.172 13.264zM148.109 341.131l6.898 21.407-18.207-13.229-18.242 13.229 6.898-21.407-18.242-13.264h22.545l7.006-21.407 7.006 21.407h22.545l-18.207 13.264zM148.109 232.209l6.898 21.407-18.207-13.264-18.242 13.264 6.898-21.407-18.242-13.264h22.545l7.041-21.407 7.006 21.407h22.545l-18.242 13.264zM218.554 525.869l-18.242-13.264-18.242 13.264 7.006-21.407-18.242-13.264h22.545l6.898-21.407 6.899 21.407h22.545l-18.242 13.264 7.077 21.407zM211.549 395.503l7.006 21.407-18.242-13.264-18.242 13.371 7.006-21.407-18.242-13.264h22.545l6.898-21.407 6.899 21.407h22.545l-18.172 13.157zM211.549 286.688l7.006 21.407-18.242-13.264-18.242 13.264 7.006-21.407-18.242-13.264h22.545l6.898-21.407 6.899 21.407h22.545l-18.172 13.264zM211.549 177.837l7.006 21.407-18.242-13.264-18.242 13.264 7.006-21.407-18.242-13.264h22.545l6.898-21.407 6.899 21.407h22.545l-18.172 13.264zM275.095 449.982l7.006 21.407-18.242-13.264-18.35 13.264 7.006-21.407-18.242-13.264h22.545l6.899-21.407 7.006 21.407h22.545l-18.172 13.264zM275.095 341.131l7.006 21.407-18.242-13.264-18.242 13.264 7.006-21.407-18.242-13.264h22.545l6.899-21.407 7.006 21.407h22.545l-18.278 13.264zM275.095 232.209l7.006 21.407-18.242-13.264-18.242 13.264 7.006-21.407-18.242-13.264h22.545l6.899-21.407 7.006 21.407h22.545l-18.278 13.264zM275.095 123.359l7.006 21.407-18.242-13.264-18.242 13.264 7.006-21.407-18.35-13.264h22.545l6.934-21.372 7.006 21.407h22.545l-18.207 13.229zM345.506 525.869l-18.242-13.264-18.242 13.264 6.898-21.407-18.242-13.264h22.545l7.006-21.407 7.006 21.407h22.545l-18.242 13.264 6.97 21.407zM338.606 395.503l6.899 21.514-18.242-13.264-18.242 13.264 6.899-21.407-18.242-13.264h22.545l7.006-21.407 7.006 21.407h22.545l-18.172 13.157zM338.606 286.688l6.899 21.407-18.242-13.264-18.242 13.264 6.899-21.407-18.242-13.264h22.545l7.006-21.407 7.006 21.407h22.545l-18.172 13.264zM338.606 177.837l6.899 21.407-18.242-13.264-18.242 13.264 6.899-21.407-18.242-13.264h22.545l7.006-21.407 7.006 21.407h22.545l-18.172 13.264zM402.046 449.982l6.898 21.407-18.136-13.264-18.242 13.264 7.006-21.407-18.242-13.264h22.545l7.006-21.407 6.898 21.407h22.545l-18.278 13.264zM402.046 341.131l6.898 21.407-18.136-13.264-18.242 13.264 6.898-21.407-18.242-13.264h22.545l7.006-21.407 6.898 21.407h22.545l-18.172 13.264zM402.046 232.209l6.898 21.407-18.136-13.122-18.242 13.264 7.006-21.407-18.242-13.264h22.545l7.006-21.407 6.898 21.407h22.545l-18.278 13.122zM402.046 123.359l6.898 21.407-18.136-13.264-18.242 13.264 7.006-21.407-18.35-13.264h22.545l7.006-21.407 6.898 21.407h22.545l-18.172 13.264zM472.598 525.869l-18.35-13.264-18.242 13.264 6.898-21.407-18.136-13.371h22.545l6.899-21.407 7.006 21.407h22.545l-18.242 13.371 7.077 21.407zM465.558 395.503l7.006 21.407-18.35-13.122-18.242 13.264 6.898-21.407-18.136-13.371h22.545l6.899-21.407 7.006 21.407h22.545l-18.172 13.229zM465.558 286.688l7.006 21.407-18.35-13.264-18.242 13.264 6.898-21.407-18.136-13.264h22.545l6.899-21.407 7.006 21.407h22.545l-18.172 13.264zM465.558 177.837l7.006 21.407-18.35-13.264-18.242 13.264 6.898-21.407-18.136-13.264h22.545l6.899-21.407 7.006 21.407h22.545l-18.172 13.264zM465.558 68.986l7.006 21.407-18.35-13.264-18.242 13.264 6.898-21.407-18.136-13.264h22.545l6.899-21.514 7.006 21.407h22.545l-18.172 13.371z" fill="#223BAE" p-id="2935"></path><path d="M323.991 44.308c-8.819 3.52-17.567 7.361-26.173 11.45h22.439l3.734-11.45z" fill="#223BAE" p-id="2936"></path><path d="M309.055 90.394l18.242-13.264 18.242 13.264-6.899-21.407 18.242-13.264h-22.545l-4.445-13.691c-1.921 0.783-3.841 1.458-5.761 2.276l-3.734 11.45h-22.439l18.242 13.264-7.148 21.372zM454.25 34.243l-6.898 21.514h-22.545l18.242 13.264-7.006 21.407 18.242-13.264 18.35 13.264-7.006-21.407 18.242-13.264h-22.545l-7.077-21.514zM270.757 110.094l-7.006-21.372-6.899 21.407h-22.545l18.242 13.264-7.006 21.514 18.242-13.371 18.35 13.371-7.006-21.514 18.242-13.264h-22.617v-0.035zM397.744 110.094l-6.898-21.407-7.006 21.407h-22.545l18.242 13.264-6.899 21.514 18.242-13.371 18.242 13.371-7.006-21.514 18.35-13.264h-22.723zM200.347 143.059l-7.006 21.514h-22.545l18.242 13.264-6.898 21.407 18.242-13.264 18.242 13.264-7.006-21.407 18.242-13.264h-22.545l-6.97-21.514zM327.299 143.059l-6.899 21.514h-22.545l18.136 13.264-6.899 21.407 18.242-13.264 18.242 13.264-6.899-21.407 18.242-13.264h-22.545l-7.077-21.514zM454.25 143.059l-6.898 21.514h-22.545l18.242 13.264-7.006 21.407 18.242-13.264 18.35 13.264-7.006-21.407 18.242-13.264h-22.545l-7.077-21.514zM143.805 218.946l-7.006-21.407-7.006 21.407h-22.545l18.242 13.264-6.934 21.514 18.242-13.264 18.242 13.264-6.898-21.514 18.242-13.264h-22.581zM270.757 218.946l-7.006-21.407-6.899 21.407h-22.545l18.242 13.264-7.041 21.514 18.242-13.264 18.35 13.264-7.006-21.514 18.242-13.264h-22.581zM397.744 218.946l-6.898-21.407-7.006 21.407h-22.545l18.242 13.264-6.899 21.514 18.242-13.264 18.242 13.264-7.006-21.514 18.35-13.264h-22.723zM55.011 308.060l18.242-13.264 18.242 13.264-7.006-21.407 18.242-13.264h-22.545l-4.552-13.904c-5.085 8.713-9.851 17.673-14.367 26.6l0.675 0.463-6.934 21.514zM200.347 251.91l-7.006 21.514h-22.545l18.242 13.264-6.898 21.407 18.242-13.264 18.242 13.264-7.006-21.407 18.242-13.264h-22.545l-6.97-21.514zM327.299 251.91l-6.899 21.514h-22.545l18.136 13.264-6.899 21.407 18.242-13.264 18.242 13.264-6.899-21.407 18.242-13.264h-22.545l-7.077-21.514zM454.25 251.91l-6.898 21.514h-22.545l18.242 13.264-7.006 21.407 18.242-13.264 18.35 13.264-7.006-21.407 18.242-13.264h-22.545l-7.077-21.514zM143.805 327.903l-7.006-21.514-7.006 21.514h-22.545l18.242 13.264-6.934 21.372 18.242-13.264 18.242 13.264-6.898-21.407 18.242-13.264h-22.581v0.035zM270.757 327.903l-7.006-21.514-6.899 21.514h-22.545l18.242 13.264-7.041 21.372 18.242-13.264 18.35 13.264-7.006-21.407 18.242-13.264h-22.581v0.035zM397.744 327.903l-6.898-21.514-7.006 21.514h-22.545l18.242 13.264-6.899 21.407 18.242-13.264 18.242 13.264-7.006-21.407 18.35-13.264h-22.723zM73.253 360.868l-6.898 21.407h-22.545l18.242 13.264-7.006 21.514 18.242-13.264 18.35 13.264-7.006-21.514 18.242-13.264h-22.545l-7.077-21.407zM200.347 360.868l-7.006 21.407h-22.545l18.242 13.264-6.898 21.514 18.242-13.264 18.242 13.264-7.006-21.514 18.242-13.264h-22.545l-6.97-21.407zM327.299 360.868l-6.899 21.407h-22.545l18.136 13.264-6.899 21.514 18.242-13.264 18.242 13.264-6.899-21.514 18.242-13.264h-22.545l-7.077-21.407zM454.25 360.868l-6.898 21.407h-22.545l18.242 13.264-7.006 21.514 18.242-13.264 18.35 13.264-7.006-21.514 18.242-13.264h-22.545l-7.077-21.407zM28.092 471.39l-7.006-21.407 18.242-13.264h-22.581l-2.17-6.579c-1.601 9.531-2.845 19.025-3.841 28.662l17.354 12.588zM143.805 436.718l-7.006-21.514-7.006 21.514h-22.545l18.242 13.264-6.898 21.407 18.242-13.264 18.242 13.264-6.898-21.407 18.242-13.264h-22.617zM270.757 436.718l-7.006-21.514-6.899 21.514h-22.545l18.242 13.264-7.006 21.407 18.242-13.264 18.35 13.264-7.006-21.407 18.242-13.264h-22.617zM397.744 436.718l-6.898-21.514-7.006 21.514h-22.545l18.242 13.264-6.899 21.407 18.242-13.264 18.242 13.264-7.006-21.407 18.35-13.264h-22.723zM80.294 491.090l-7.006-21.407-6.898 21.407h-22.545l18.242 13.371-7.006 21.407 18.242-13.264 18.35 13.264-7.006-21.407 18.242-13.371h-22.617zM207.246 491.090l-6.899-21.407-7.006 21.407h-22.545l18.242 13.371-6.898 21.407 18.242-13.264 18.242 13.264-7.006-21.407 18.242-13.371h-22.617zM334.304 491.090l-7.006-21.407-6.899 21.407h-22.545l18.136 13.371-6.898 21.407 18.242-13.264 18.242 13.264-6.899-21.407 18.242-13.371h-22.617zM461.255 491.090l-7.006-21.407-6.898 21.407h-22.545l18.242 13.371-7.006 21.407 18.242-13.264 18.35 13.264-7.006-21.407 18.242-13.371h-22.617z" fill="#FFFFFF" p-id="2937"></path></svg>