<?xml version="1.0" encoding="UTF-8"?>
<svg width="19px" height="18px" viewBox="0 0 19 18" version="1.1" xmlns="http://www.w3.org/2000/svg" xmlns:xlink="http://www.w3.org/1999/xlink">
    <!-- Generator: Sketch 56 (81588) - https://sketch.com -->
    <title>形状</title>
    <desc>Created with Sketch.</desc>
    <g id="Symbols" stroke="none" stroke-width="1" fill="none" fill-rule="evenodd">
        <g id="ZB.COM/Icon/List_32/menu_update" transform="translate(-7.000000, -7.000000)" fill="#FFFFFF">
            <path d="M25.0171245,15.3859069 C25.0150928,15.1602889 25.0022216,14.9348694 24.9785497,14.7103275 L24.9785497,14.695928 C24.9735992,14.4893291 24.9577214,14.2830843 24.9309741,14.0779469 C24.8878188,13.71086 24.8299158,13.345414 24.7573876,12.9823803 C24.6600899,12.4982901 24.5442916,12.0175982 24.4102144,11.5412243 C24.2423644,10.9499757 23.9975189,10.3801473 23.6811508,9.84447615 C23.4043484,9.36102331 23.0234981,8.93615532 22.5624817,8.59651427 C22.2271348,8.35424558 21.8635074,8.14814247 21.4785299,7.98213305 C21.0297764,7.78053921 20.5643072,7.62214404 20.0911231,7.49494792 C19.3982746,7.30701069 18.6885933,7.17808682 17.9707951,7.10975968 C17.549044,7.0701609 17.1298645,7.0209624 16.7068276,7.01016272 C16.4870207,7.00368241 16.2670716,7.00248205 16.0471986,7.00656284 C15.8714893,7.00302991 15.6957189,7.00302991 15.5200097,7.00656284 C15.3448492,7.01085665 15.1698844,7.02046143 14.9953925,7.03536196 C14.637846,7.05226217 14.2813054,7.08429413 13.9268706,7.13135902 C13.8034313,7.14455861 13.6774203,7.15895818 13.5539809,7.17935756 C13.4639731,7.19135719 13.3778227,7.20455679 13.2878148,7.21895635 C12.6963346,7.30295378 12.1215701,7.44094957 11.5506632,7.61854414 C10.959183,7.80213853 10.3908476,8.03133152 9.85980127,8.35052179 C9.44785386,8.58853862 9.08363265,8.89189 8.78356444,9.24689441 C8.4969564,9.60423702 8.25696057,9.99215579 8.06864488,10.4024591 C7.8395607,10.896146 7.65462836,11.4066711 7.51573948,11.9288125 C7.29329148,12.7447876 7.16599465,13.5763622 7.08370175,14.4127366 C7.03870768,14.9420628 7.01712452,15.4729028 7.01941044,16.003888 C7.01941044,16.1202845 7.01426713,16.2366809 7.01941044,16.3506774 C7.02969705,16.7634648 7.04384114,17.1810521 7.08370175,17.5938395 C7.16213717,18.4314139 7.29329148,19.2653884 7.51702531,20.0777636 C7.66103788,20.6009476 7.83848194,21.1097321 8.06993071,21.6053169 C8.26409052,22.0181043 8.49425347,22.4068925 8.78356444,22.7608817 C9.08444785,23.1280704 9.45219425,23.4148617 9.85980127,23.6584542 C10.3908476,23.9764445 10.9617546,24.2056375 11.5506632,24.3904319 C12.1164268,24.5668265 12.6950488,24.7036223 13.286529,24.7888197 C13.3778227,24.8032193 13.463973,24.812819 13.5552667,24.8272185 C13.6774203,24.8488179 13.7995738,24.8632174 13.9268706,24.877617 C14.0387375,24.8908166 14.1544619,24.9052162 14.2663288,24.9160158 C14.5080642,24.9400151 14.7497996,24.9580146 14.9953925,24.9724141 C15.1689791,24.9868137 15.3464231,24.9940134 15.5187239,25.0012132 C15.6961679,25.0048131 15.8697545,25.0048131 16.0459127,25.0012132 C16.2670749,25.0048131 16.4869513,25.0048131 16.7068276,24.9976133 C17.1311503,24.9868137 17.5529015,24.9340153 17.9707951,24.8980164 C18.6890364,24.8304684 19.3991813,24.7019402 20.0924089,24.5140281 C20.5681647,24.3892319 21.0310623,24.2308368 21.4785299,24.025643 C21.8578487,23.8528483 22.2217376,23.6536544 22.5611958,23.4112618 C23.0240934,23.0716722 23.3918398,22.6552849 23.6798649,22.1632999 C23.9948924,21.6257163 24.2404853,21.0605336 24.4102144,20.4665517 C24.5439404,19.9901663 24.6558073,19.508981 24.7573876,19.0253957 C24.8332513,18.6654067 24.8795411,18.2934181 24.9309741,17.9298292 C24.9592623,17.7258354 24.9695489,17.5158418 24.9772639,17.3118481 L24.9772639,17.2974485 C25.0013652,17.0729247 25.0146655,16.8475051 25.0171245,16.6218691 C25.0171245,16.4178754 25.0171245,16.2126816 25.013267,16.0074879 C25.0171245,15.7950944 25.0171245,15.5899007 25.0171245,15.3859069 Z M11.35136,15.6735684 C12.5631724,10.7207076 17.656611,12.6137482 17.6604378,12.6137482 L17.9933673,11.9112992 C18.3058873,11.427919 18.7753052,11.8351013 18.7753052,11.8351013 L20.2805037,14.296054 C20.5585827,14.8008648 19.9284403,14.9592135 19.9284403,14.9592135 L17.1667837,15.558081 C16.1807512,15.7021426 16.4856176,15.0151713 16.4856176,15.0151713 L16.8223739,14.3127223 C12.7022119,12.8316264 11.35136,15.674759 11.35136,15.674759 L11.35136,15.6735684 Z M14.3850685,19.8566634 L14.0683527,20.5377271 C13.7644078,21.0144716 13.2906113,20.6326294 13.2906113,20.6326294 L11.7121409,18.2946831 C11.4184125,17.814589 12.0454586,17.6504638 12.0454586,17.6504638 L14.8039506,17.0129436 C15.7873019,16.8521679 15.5037902,17.5220666 15.5037902,17.5220666 L15.1806891,18.2042467 C19.3567394,19.5429276 20.633819,16.7773626 20.633819,16.7773626 C19.5495784,21.567138 14.3850685,19.8588964 14.3850685,19.8588964 L14.3850685,19.8566634 Z" id="形状"></path>
        </g>
    </g>
</svg>