<?xml version="1.0" encoding="UTF-8"?>
<svg width="20px" height="20px" viewBox="0 0 20 20" version="1.1" xmlns="http://www.w3.org/2000/svg" xmlns:xlink="http://www.w3.org/1999/xlink">
    <!-- Generator: Sketch 56 (81588) - https://sketch.com -->
    <title>形状</title>
    <desc>Created with Sketch.</desc>
    <g id="Symbols" stroke="none" stroke-width="1" fill="none" fill-rule="evenodd">
        <g id="ZB.COM/Icon/List_32/menu_about" transform="translate(-6.000000, -6.000000)" fill="#FFFFFF">
            <path d="M15.2333686,18.6217417 C15.2020028,18.7710847 15.1706324,18.8811379 15.1314084,18.9597133 C15.0921843,19.0383336 14.9981046,19.124784 14.8569382,19.2190647 C14.5118737,19.4312511 14.1432791,19.6041521 13.7511323,19.7299149 C13.3511942,19.8635035 12.9747415,20.0049716 12.6139828,20.1621673 C12.2532733,20.319363 11.9395523,20.531527 11.6650821,20.7909008 C11.3984255,21.0502298 11.2258932,21.4117817 11.1631838,21.8911946 C11.1396538,22.0405377 11.1239553,22.1819789 11.116097,22.3155943 C11.1082835,22.4570624 11.1004253,22.5827983 11.0847535,22.7007041 C11.0690594,22.7242619 11.0533877,22.747869 11.045525,22.7714 C11.0377115,22.7950295 11.0220174,22.8107348 11.0062964,22.8421453 C10.4886996,22.8028598 9.97112957,22.7556948 9.4456745,22.7007041 C8.92021943,22.6457133 8.43399291,22.5827939 7.99482635,22.5199505 C7.55563742,22.4492053 7.17920702,22.3862903 6.87334865,22.3234469 C6.56749028,22.260626 6.3793086,22.1898807 6.30085598,22.1269881 C6.18322399,22.032685 6.09695785,21.757606 6.03419934,21.2939208 C5.97148999,20.8302132 5.99501998,20.2329394 6.10479374,19.4941482 C6.16755224,19.0854806 6.34008453,18.7710892 6.60674117,18.5510726 C6.88121133,18.3388593 7.19490559,18.1581102 7.57131364,18.0402 C7.93990818,17.9144416 8.31638328,17.7966031 8.70846309,17.6943981 C9.10060995,17.5922424 9.4456745,17.4428993 9.74367464,17.2621726 C9.97898778,17.1049322 10.1593336,16.9556607 10.2926597,16.8298755 C10.4181052,16.6962869 10.5043713,16.5626939 10.559294,16.4212303 C10.6141943,16.2797398 10.6377242,16.1382762 10.6377242,15.9968305 C10.6377242,15.8553401 10.6298884,15.6902962 10.6141942,15.5252703 C10.5906643,15.2580663 10.4965623,15.0537101 10.34756,14.8965368 C10.1985576,14.7471937 10.0260298,14.5900249 9.84563933,14.4328292 C9.7436791,14.3620839 9.64957709,14.2599282 9.57898269,14.1184646 C9.5083883,13.9769966 9.44567895,13.8277028 9.39077866,13.6862392 C9.33587836,13.5290435 9.28881842,13.3482675 9.23391812,13.1518311 C9.15548786,13.120349 9.07705758,13.0810859 8.99865414,13.0338985 C8.92808209,12.9788809 8.86530124,12.9003099 8.79473366,12.7981542 C8.72413927,12.6959761 8.65356722,12.546633 8.59083553,12.3659019 C8.52807702,12.1851483 8.49671116,12.0043724 8.51242762,11.8471991 C8.52807702,11.6821731 8.55946521,11.5406871 8.61436551,11.4227769 C8.669239,11.2813357 8.73983337,11.1555953 8.82612187,11.0691448 C8.81040541,10.6447451 8.8339354,10.2124972 8.88885804,9.78022251 C8.94375834,9.4187154 9.03002448,9.04148064 9.14765645,8.63279062 C9.26526609,8.22409612 9.44567893,7.85476328 9.68089822,7.52464423 C9.89265459,7.21027971 10.1279454,6.9509507 10.3945797,6.75444711 C10.6533513,6.55798831 10.9199856,6.40081948 11.1945049,6.29078429 C11.4611169,6.18073116 11.7356094,6.10215571 12.0179378,6.06284334 C12.2924079,6.02355785 12.5669228,6 12.8257212,6 C13.4844801,6 14.0805072,6.14146808 14.6059622,6.41652023 C15.1314173,6.69157687 15.5313777,6.99023618 15.798012,7.31243092 C15.9705443,7.53249236 16.0802912,7.74470565 16.1195421,7.93331183 C16.1665573,8.12194041 16.2293382,8.34983207 16.3077238,8.60135325 C16.056788,8.74282133 15.7901537,8.96286036 15.5078254,9.24579201 C15.2254746,9.52872367 14.9823703,9.81950796 14.7628004,10.1103146 C14.504002,10.4796475 14.3001039,10.8883644 14.1667778,11.336322 C14.0334741,11.7843019 13.9393497,12.2008446 13.8687553,12.5859588 C13.8060191,13.0496217 13.7746756,13.5054543 13.7746756,13.9691619 C13.6727154,14.0870452 13.5864493,14.2206606 13.5393893,14.3621018 C13.4844667,14.4957397 13.4531232,14.6529354 13.4374291,14.8258318 C13.4217573,15.006563 13.4531232,15.195214 13.515837,15.4074004 C13.5864314,15.6353144 13.6570034,15.8082154 13.7275978,15.9182237 C13.8060281,16.0361339 13.8766225,16.130437 13.9472169,16.1933252 C14.025598,16.2719006 14.1040774,16.3269361 14.1824585,16.3505209 C14.2373811,16.5627073 14.2844187,16.7591661 14.339319,16.9477946 C14.3941925,17.1049679 14.456951,17.2699894 14.5275231,17.4350601 C14.6059757,17.6001084 14.6922418,17.7180142 14.7941797,17.8044646 C14.8883041,17.8830625 14.9588985,17.9459058 15.0059405,18.000901 C15.0608363,18.055941 15.1000649,18.1031015 15.1392443,18.1502665 C15.1706369,18.1974046 15.1941401,18.2602748 15.2020028,18.3388503 C15.1863265,18.3859974 15.2019759,18.4881531 15.2333686,18.6217417 Z M25.7814213,22.268398 C25.8362724,22.4491739 25.875501,22.6770925 25.9068668,22.9442696 C25.9382819,23.2036166 25.9539536,23.4787225 25.9539536,23.7459041 C25.9539536,24.0131081 25.9382819,24.2724819 25.8911727,24.508271 C25.8520157,24.7440153 25.7892348,24.9248181 25.7108046,25.0426791 C25.6559043,25.1212993 25.5068841,25.1998703 25.2480857,25.2784726 C24.9892873,25.3570705 24.6677571,25.4277664 24.2913223,25.490659 C23.9070336,25.5613819 23.4835433,25.6164219 23.0208691,25.6792652 C22.5581949,25.7421086 22.095476,25.7893228 21.6249435,25.8286307 C21.1543888,25.8678938 20.7073416,25.8993312 20.2681751,25.9307864 C19.8368444,25.9543443 19.4525557,25.9700495 19.1231897,25.9700495 C18.7938014,25.9700495 18.4173933,25.9543443 17.9860403,25.9307864 C17.5625008,25.8993043 17.1155475,25.8678938 16.6528509,25.8286307 C16.1901097,25.7893228 15.735249,25.742131 15.2882465,25.7028455 C14.8412218,25.6557074 14.4255673,25.6006674 14.0491592,25.5456498 C13.6727288,25.4827572 13.3590077,25.4277172 13.1002138,25.3648962 C12.8414154,25.3020036 12.6845816,25.246986 12.6139872,25.1919953 C12.5120493,25.0976653 12.4258056,24.8225908 12.3551888,24.3589011 C12.2924303,23.8951934 12.3081512,23.2979152 12.417925,22.5748606 C12.4806835,22.1504609 12.6532158,21.8360964 12.9198233,21.6239323 C13.1865291,21.4117235 13.5080369,21.2388226 13.8766314,21.105234 C14.2451767,20.9715962 14.6216563,20.8615878 15.0137585,20.7594097 C15.405883,20.6572092 15.7509699,20.5157411 16.04897,20.3114073 C16.2842385,20.1542385 16.4646022,20.0049178 16.5900745,19.879155 C16.7155647,19.7455172 16.8018085,19.6119286 16.864567,19.4861926 C16.9273032,19.3525816 16.9508555,19.2111584 16.9508555,19.0696455 C16.9508555,18.9281774 16.9429973,18.763156 16.9272764,18.574505 C16.8958837,18.315176 16.8096176,18.1029672 16.6528062,17.9457715 C16.4959457,17.7964777 16.3234179,17.647157 16.1352138,17.4978184 C16.0411118,17.4191981 15.9626816,17.3092122 15.8920872,17.1598691 C15.8214928,17.018401 15.7587834,16.8691072 15.7038831,16.7275944 C15.6489873,16.5704255 15.6019229,16.3896944 15.5470226,16.1932132 C15.46857,16.1617535 15.3901621,16.122468 15.3117318,16.075303 C15.2411597,16.0203123 15.1784281,15.941692 15.107856,15.8395318 C15.0294481,15.7373761 14.9666672,15.588033 14.9039579,15.4072795 C14.8333858,15.2265035 14.8098335,15.04575 14.8255276,14.8807016 C14.8411994,14.7156533 14.8725652,14.5820647 14.9275147,14.472034 C14.9823658,14.3384454 15.0529602,14.2205352 15.1392263,14.1183571 C15.1314128,13.6939843 15.1470846,13.2617095 15.2019849,12.8294572 C15.2568583,12.460075 15.3352886,12.0749877 15.4451115,11.6663201 C15.5549077,11.2654782 15.7274399,10.8882434 15.9705442,10.542446 C16.1822782,10.2280815 16.417569,9.9687301 16.6842033,9.77224891 C16.9430017,9.57574532 17.2174719,9.41857202 17.4919376,9.3085189 C17.7664793,9.19851058 18.0487362,9.11991271 18.3233002,9.08060485 C18.597748,9.04134177 18.8643778,9.01776151 19.1153404,9.01776151 C19.7897933,9.01776151 20.3857936,9.15922959 20.9191113,9.43428174 C21.4445664,9.70936079 21.8366686,10.0079977 22.0876534,10.3223667 C22.3777954,10.6838962 22.5895741,11.0768362 22.7307405,11.5248386 C22.8719069,11.9649435 22.9659598,12.381513 23.0365542,12.7587209 C23.1071262,13.2067009 23.1307009,13.654654 23.1150291,14.1026116 C23.1777385,14.1576292 23.2405238,14.2283744 23.2953973,14.3148249 C23.3346035,14.3934227 23.3738052,14.4956008 23.405171,14.6213368 C23.4365369,14.7470727 23.4444443,14.9042461 23.4130293,15.085022 C23.3816634,15.3208156 23.334599,15.5172475 23.2561464,15.6587379 C23.1777161,15.8002015 23.0992859,15.9180893 23.0209048,15.9967096 C22.9267759,16.0910127 22.8248649,16.1460034 22.7072329,16.1774632 C22.6523102,16.3739219 22.6052234,16.5546979 22.55035,16.7118712 C22.4954497,16.8533617 22.4326912,17.0026331 22.3542877,17.1441236 C22.2758575,17.2855916 22.189569,17.3956223 22.1033252,17.4584881 C22.0013873,17.5528136 21.8994494,17.631389 21.8131833,17.6942592 C21.7269171,17.7650045 21.6563451,17.8278702 21.5857507,17.8985931 C21.5151563,17.9693383 21.4602829,18.0557888 21.4210543,18.1422392 C21.3739899,18.2365423 21.3347658,18.3465506 21.3112806,18.4801885 C21.2877506,18.6530894 21.2720565,18.8259635 21.2799147,19.0067395 C21.2877506,19.187493 21.3269523,19.3604164 21.4053826,19.5254423 C21.4838128,19.6983432 21.609236,19.8634139 21.7896489,20.0206096 C21.970017,20.1777829 22.213166,20.3192465 22.5346961,20.4371299 C22.8091887,20.5550401 23.1150247,20.6571689 23.4522534,20.7436194 C23.7894821,20.8300923 24.1110122,20.9322704 24.4246617,21.0501313 C24.7383559,21.1680147 25.0128977,21.3252104 25.2560243,21.5059863 C25.4990661,21.741847 25.671576,21.9776406 25.7814213,22.268398 Z" id="形状"></path>
        </g>
    </g>
</svg>