<?xml version="1.0" encoding="UTF-8"?>
<svg width="18px" height="18px" viewBox="0 0 18 18" version="1.1" xmlns="http://www.w3.org/2000/svg" xmlns:xlink="http://www.w3.org/1999/xlink">
    <!-- Generator: Sketch 56 (81588) - https://sketch.com -->
    <title>Combined Shape</title>
    <desc>Created with Sketch.</desc>
    <g id="Symbols" stroke="none" stroke-width="1" fill="none" fill-rule="evenodd">
        <g id="ZB.COM/Icon/List_32/menu_service" transform="translate(-7.000000, -7.000000)" fill="#FFFFFF">
            <path d="M15.9026663,9.29503159 C18.6646059,9.29503159 20.9027737,11.5335166 20.9027737,14.2951413 C20.9027737,17.056766 18.6641762,19.2950316 15.9026663,19.2950316 C13.1411564,19.2950316 10.9027737,17.0565466 10.9027737,14.2949219 C10.9027737,11.5332972 13.1411564,9.29503159 15.9026663,9.29503159 Z M19,15 L18.0994872,15 C18.0994872,16.1593707 17.16,17.1012312 16.0010256,17.1012312 C14.8420513,17.1012312 13.9005128,16.1614227 13.9005128,15 L13,15 C13,16.6580027 14.3435897,18 15.9989744,18 C17.654359,18 19,16.6559507 19,15 Z M10.1194338,16.1629196 C8.82714045,16.1629196 7.78007604,15.1372668 7.78007604,13.8720263 C7.78007604,13.012778 8.26313569,12.2639578 8.97815099,11.8719053 C9.98387243,9.03649476 12.7290438,7 15.9677193,7 C19.2063948,7 21.9520014,9.03671257 22.9572876,11.8723409 C23.6720854,12.2643934 24.1553626,13.0129958 24.1553626,13.8722441 C24.1553626,15.1372668 23.1076454,16.1629196 21.8160048,16.1629196 L21.8160048,11.5802619 C21.8801952,11.5802618 21.9435152,11.5828755 22.0064,11.5878851 C20.9689097,9.33271218 18.6574041,7.76232424 15.9677193,7.76232424 C13.2780345,7.76232424 10.9667465,9.33380121 9.92903864,11.5887563 C9.99170584,11.5837468 10.0552434,11.5811331 10.1194338,11.5811331 L10.1194338,16.1629196 Z M21.0204796,18.7894533 C23.4124952,19.9817284 24.9954947,22.108613 24.9954947,25 L7.0004352,25 C7.0004352,22.1140582 8.55405943,19.9897873 10.9208341,18.7962053 C12.243373,20.0024201 14.0169852,20.7407856 15.9668489,20.7407856 C17.9206293,20.7407856 19.6972879,19.9998064 21.0204796,18.7894533 Z" id="Combined-Shape"></path>
        </g>
    </g>
</svg>