<svg xmlns="http://www.w3.org/2000/svg" width="22" height="16" viewBox="0 0 22 16">
  <path fill="#FFF" fill-rule="evenodd" d="M19,19 L39,19 C39.5522847,19 40,19.4477153 40,20 C40,20.5522847 39.5522847,21 39,21 L19,21 C18.4477153,21 18,20.5522847 18,20 C18,19.4477153 18.4477153,19 19,19 Z M19,26 L39,26 C39.5522847,26 40,26.4477153 40,27 C40,27.5522847 39.5522847,28 39,28 L19,28 C18.4477153,28 18,27.5522847 18,27 C18,26.4477153 18.4477153,26 19,26 Z M19,33 L39,33 C39.5522847,33 40,33.4477153 40,34 C40,34.5522847 39.5522847,35 39,35 L19,35 C18.4477153,35 18,34.5522847 18,34 C18,33.4477153 18.4477153,33 19,33 Z" transform="translate(-18 -19)"/>
</svg>
