<?xml version="1.0" encoding="UTF-8"?>
<svg width="18px" height="18px" viewBox="0 0 18 18" version="1.1" xmlns="http://www.w3.org/2000/svg" xmlns:xlink="http://www.w3.org/1999/xlink">
    <!-- Generator: Sketch 56 (81588) - https://sketch.com -->
    <title>形状</title>
    <desc>Created with Sketch.</desc>
    <g id="Symbols" stroke="none" stroke-width="1" fill="none" fill-rule="evenodd">
        <g id="ZB.COM/Icon/List_32/menu_setting" transform="translate(-7.000000, -7.000000)" fill="#FFFFFF">
            <path d="M23.3214286,15.9976953 C23.3214286,14.9651729 23.8571429,14.0801536 24.75,13.7482714 C24.3214286,12.162612 23.4285714,10.68758 22.3571429,9.58130602 C21.6071429,10.134443 20.5,10.2450704 19.6071429,9.80256082 C18.7142857,9.24942382 18.2857143,8.32752881 18.3928571,7.3318822 C17.6428571,7.1106274 16.75,7 16,7 C15.1071429,7 14.3571429,7.1106274 13.6071429,7.3318822 C13.7142857,8.25377721 13.2857143,9.24942382 12.3928571,9.80256082 C11.5,10.3556978 10.4285714,10.2450704 9.64285714,9.58130602 C8.53571429,10.7244558 7.67857143,12.162612 7.25,13.7482714 C8.14285714,14.0801536 8.67857143,15.0020487 8.67857143,15.9976953 C8.67857143,16.9933419 8.14285714,17.9152369 7.25,18.2471191 C7.67857143,19.8327785 8.57142857,21.3078105 9.64285714,22.4140845 C10.3928571,21.8609475 11.5,21.7503201 12.3928571,22.1928297 C13.2857143,22.7459667 13.7142857,23.6678617 13.6071429,24.6635083 C14.3571429,24.8847631 15.25,24.9953905 16,24.9953905 C16.8928571,24.9953905 17.6428571,24.8847631 18.3928571,24.6635083 C18.2857143,23.7416133 18.7142857,22.7459667 19.6071429,22.1928297 C20.5,21.6396927 21.5714286,21.7503201 22.3571429,22.4140845 C23.4642857,21.2709347 24.3214286,19.8327785 24.75,18.2471191 C23.8571429,17.9152369 23.3214286,16.9933419 23.3214286,15.9976953 Z M16,20 C13.7692308,20 12,18.1782178 12,16 C12,13.8217822 13.7692308,12 16,12 C18.2307692,12 20,13.8217822 20,16 C20,18.1782178 18.2307692,20 16,20 Z M16,18 C17.1147541,18 18,17.1147541 18,16 C18,14.8852459 17.1147541,14 16,14 C14.8852459,14 14,14.8852459 14,16 C14,17.1147541 14.8852459,18 16,18 Z" id="形状"></path>
        </g>
    </g>
</svg>