<?xml version="1.0" encoding="UTF-8"?>
<svg width="20px" height="20px" viewBox="0 0 20 20" version="1.1" xmlns="http://www.w3.org/2000/svg" xmlns:xlink="http://www.w3.org/1999/xlink">
    <!-- Generator: Sketch 56 (81588) - https://sketch.com -->
    <title>形状</title>
    <desc>Created with Sketch.</desc>
    <g id="Symbols" stroke="none" stroke-width="1" fill="none" fill-rule="evenodd">
        <g id="ZB.COM/Icon/List_32/menu_kyc" transform="translate(-6.000000, -6.000000)" fill="#FFFFFF">
            <path d="M17.4794234,18.6662876 L17.4101114,18.6520711 L17.3760055,17.9133844 L17.3760055,16.2318628 C17.3760055,16.2318628 18.4101843,15.5170597 18.5433073,14.4599246 C18.5961164,14.4570813 18.6472753,14.450826 18.714937,14.4417275 C19.4597657,14.342781 19.999409,12.3575961 19.999409,12.3575961 C19.999409,12.3575961 20.0335149,11.4295463 19.5835371,11.4295463 C19.5340286,11.4295463 19.0284912,11.4386448 18.9883342,11.4534299 L19.1044043,9.80773374 L19.1159563,9.45630312 C19.1159563,9.45630312 19.1247578,6.03525679 15.2669409,6 C11.2638989,6.03525679 12.0131284,7.8765713 12.0131284,7.8765713 C12.0131284,7.87941458 12.0158789,7.88566984 12.0158789,7.88851312 C11.5158424,8.20070631 11.2660992,8.67496706 11.2660992,9.64794084 C11.2660992,11.2066323 11.3997723,11.5398659 11.4696344,11.6086735 L10.9497945,11.4312522 C10.9497945,11.4312522 10.3050831,11.5006285 10.3606427,12.3200646 C10.4156522,13.1395008 11.0521122,14.3439183 11.7947406,14.4422962 C11.8508503,14.4479828 11.8992587,14.454238 11.9454667,14.4570813 C11.9482171,15.7456602 12.988447,16.2620017 12.988447,16.2620017 L12.9977986,17.8684604 L11.6033075,18.6492278 L7.48144494,20.0600682 C7.48144494,20.0600682 5.99123732,20.5377409 6,22.5405543 L6.02974396,25 L17.4431171,25 C16.7868536,24.1350712 16.3973863,23.0449539 16.3973863,21.861008 C16.3880347,20.6520412 16.7973054,19.5408835 17.4794234,18.6662876 L17.4794234,18.6662876 L17.4794234,18.6662876 Z M21.9997207,18 C19.7903778,18 18,19.7903778 18,21.9997207 C18,24.2096222 19.7903778,26 21.9997207,26 C24.2090636,26 26,24.2096222 26,21.9997207 C26,19.7903778 24.2090636,18 21.9997207,18 L21.9997207,18 L21.9997207,18 Z M24.7116428,21.197888 C23.6881443,22.0690498 23.0208691,22.656589 22.181486,23.4124209 C22.1666196,23.501022 22.0779926,23.5559646 22.0002296,23.6213017 C21.8944491,23.7128727 21.7617945,23.8356273 21.5988353,23.9059142 C21.3872741,24.0415383 21.2637682,24.0157994 21.1316854,23.9217535 C21.0344817,23.8851251 20.934419,23.8222629 20.829782,23.7257421 C20.301451,23.2421484 19.8514547,22.9110079 19.2710911,22.3823711 C18.7907902,21.9458002 19.0446635,21.7527587 19.2991086,21.5329883 C19.7874146,21.1117618 20.0258497,21.3627158 20.2917306,21.5933757 C20.7806083,22.0160871 20.9830209,22.1893295 21.2814936,22.4482032 C22.2872666,21.5597171 22.6223337,21.220162 23.7396051,20.2653489 C24.2679362,19.8129388 24.5126609,20.0465685 24.6727613,20.1841725 C24.9129117,20.3910734 25.2605581,20.7306285 24.7116428,21.197888 L24.7116428,21.197888 L24.7116428,21.197888 Z" id="形状"></path>
        </g>
    </g>
</svg>