<?xml version="1.0" encoding="UTF-8"?>
<svg width="144px" height="92px" viewBox="0 0 144 92" version="1.1" xmlns="http://www.w3.org/2000/svg" xmlns:xlink="http://www.w3.org/1999/xlink">
    <!-- Generator: Sketch 57.1 (83088) - https://sketch.com -->
    <title>ZB.COM/6_User/kyc_photo03@2x</title>
    <desc>Created with Sketch.</desc>
    <g id="ZB.COM/6_User/kyc_photo03" stroke="none" stroke-width="1" fill="none" fill-rule="evenodd" opacity="0.24">
        <path d="M112.8,10 C116.77645,10 120,13.2235498 120,17.2 L120,74.8 C120,78.7764502 116.77645,82 112.8,82 L31.2,82 C27.2235498,82 24,78.7764502 24,74.8 L24,17.2 C24,13.2235498 27.2235498,10 31.2,10 L112.8,10 Z M112.8,12.4 L31.2,12.4 C28.5490332,12.4 26.4,14.5490332 26.4,17.2 L26.4,74.8 C26.4,77.4509668 28.5490332,79.6 31.2,79.6 L112.8,79.6 C115.450967,79.6 117.6,77.4509668 117.6,74.8 L117.6,17.2 C117.6,14.5490332 115.450967,12.4 112.8,12.4 Z M74.5067471,67.1818182 C75.8121474,67.1818182 76.8703834,68.2400542 76.8703834,69.5454545 C76.8703834,70.8508549 75.8121474,71.9090909 74.5067471,71.9090909 L38.3636364,71.9090909 C37.058236,71.9090909 36,70.8508549 36,69.5454545 C36,68.2400542 37.058236,67.1818182 38.3636364,67.1818182 L74.5067471,67.1818182 Z M96.1932123,52 C101.701413,52.0003996 106.166367,56.4552068 106.165967,61.9500904 C106.165566,67.444974 101.699963,71.8991335 96.1917622,71.8987342 C92.628581,71.8984758 89.336204,70.0018984 87.5548377,66.9234243 C85.7734715,63.8449501 85.7737479,60.0522728 87.5555628,56.9740571 C89.3373777,53.8958414 92.6300311,51.9997415 96.1932123,52 Z M96.1924873,55.9584268 C96.1003504,55.9584268 96.0148454,56.0008982 95.9592281,56.0711163 L95.9234825,56.1287522 L94.18619,59.7974683 L90.1532933,60.3095841 C90.0388862,60.3243893 89.9432502,60.403588 89.9076063,60.513044 C89.8790912,60.6006087 89.8930488,60.6950159 89.9426999,60.7697512 L89.9865248,60.8216998 L92.9463026,63.6036166 L92.190769,67.5891501 C92.1692856,67.7019277 92.2149758,67.8169446 92.3080672,67.8844275 C92.3825403,67.9384138 92.476648,67.9542202 92.5629669,67.9301125 L92.6258172,67.9045208 L96.1932123,65.955877 L99.7591573,67.9045208 C99.8600454,67.9597372 99.9838159,67.9519104 100.076907,67.8844276 C100.15138,67.8304413 100.195517,67.7460331 100.199193,67.6566872 L100.194206,67.5891501 L99.4386718,63.6036166 L102.39845,60.8216998 C102.482292,60.7426472 102.513012,60.6224999 102.477368,60.513044 C102.448853,60.4254792 102.381943,60.3572791 102.297743,60.3259213 L102.231681,60.3095841 L98.1973343,59.7974683 L96.4614921,56.1287522 C96.4124671,56.0247884 96.3076584,55.9584268 96.1924873,55.9584268 Z M74.5067471,53 C75.8121474,53 76.8703834,54.058236 76.8703834,55.3636364 C76.8703834,56.6690367 75.8121474,57.7272727 74.5067471,57.7272727 L38.3636364,57.7272727 C37.058236,57.7272727 36,56.6690367 36,55.3636364 C36,54.058236 37.058236,53 38.3636364,53 L74.5067471,53 Z M54.6210618,37.7436627 C56.621447,39.6350626 57.904542,44.092345 57.5899183,47 L36,47 C36.0530847,44.4457687 36.5230781,40.0868754 39.0646679,37.8692382 L42.564371,37.901603 L45.8413775,43.3078218 L46.4589721,39.2648091 L46.0122842,38.5320696 L46.0459476,37.7786167 C46.6943598,37.7354584 47.3449531,37.7363234 47.9932482,37.7812059 L48.0295011,38.5346588 L47.5841079,39.2673982 L48.2042921,43.3427758 L50.7497661,37.8757112 L54.6210618,37.7436627 Z M104.636364,39.9090909 C105.941764,39.9090909 107,40.967327 107,42.2727273 C107,43.5781276 105.941764,44.6363636 104.636364,44.6363636 L68.4932529,44.6363636 C67.1878526,44.6363636 66.1296166,43.5781276 66.1296166,42.2727273 C66.1296166,40.967327 67.1878526,39.9090909 68.4932529,39.9090909 L104.636364,39.9090909 Z M51.7337744,22.3341267 C53.372925,23.8824595 53.4868628,25.6172136 52.9832059,28.2944311 C53.0621855,28.3397419 53.1398704,28.3876418 53.21885,28.4407201 L53.4557889,28.599955 L53.4583784,28.8834708 C53.4726206,29.7016533 53.3742197,30.3942604 53.1592916,30.9289271 C52.9611952,31.4169886 52.669877,31.7807691 52.2775684,32.0008498 C52.0108504,32.95367 51.6988162,33.8365822 51.2521282,34.5770892 C50.7419976,35.4315203 50.0674341,36.0891733 49.113205,36.4425971 C48.687233,36.5966537 47.5983501,36.6704454 46.5508992,36.6523211 C45.540996,36.6393752 44.5259138,36.538397 44.1219525,36.3519757 C43.2544715,35.9545357 42.6446453,35.2826421 42.1850099,34.4476299 C41.7888171,33.7343094 41.5078568,32.9031809 41.26056,32.0254471 C40.855304,31.8131339 40.5510383,31.4519426 40.3451734,30.9587028 C40.121182,30.4227414 40.0188969,29.718483 40.0318444,28.8834708 L40.0357287,28.5986604 L40.2726675,28.4407201 C40.3322259,28.4005877 40.393079,28.36175 40.4539322,28.326796 C40.1872141,25.0462982 40.2882045,23.833265 41.5065621,22.4467563 C43.8824242,20.5022781 49.3281331,20.5708915 51.7337744,22.3341267 Z M42.6990247,27.0050169 C42.4348962,27.5306215 42.2445683,28.0924747 42.1345147,28.6711576 L42.0412929,29.1643974 L41.5466993,29.1164975 C41.4490994,29.1092913 41.3510302,29.1211638 41.2579705,29.1514515 C41.2126558,29.166898 41.1681466,29.1846131 41.1246115,29.2045298 C41.1362642,29.7508479 41.2126543,30.2026607 41.3550766,30.5418439 C41.4793724,30.8396002 41.6515738,31.0324946 41.8768599,31.1036971 L42.1668834,31.1943186 L42.2471578,31.485602 C42.4905704,32.3827547 42.7598779,33.233302 43.1431232,33.9233199 C43.4978841,34.5628486 43.9523405,35.0742127 44.5777037,35.3616123 C44.8418322,35.483304 45.6834182,35.5506228 46.562552,35.5635687 C47.4973598,35.5765147 48.4282834,35.5286147 48.7364334,35.4146906 C49.4291234,35.1596558 49.928896,34.6638269 50.3160256,34.0165306 C50.7303449,33.3213343 51.0268421,32.4384221 51.2870864,31.4700669 L51.3621818,31.1917294 L51.6366683,31.0959296 C51.8541859,31.0195486 52.0237979,30.8201814 52.1467989,30.5198359 C52.2814527,30.185831 52.3552533,29.7404911 52.3694955,29.2058244 C52.3302678,29.1866413 52.2895694,29.1706236 52.2477892,29.1579244 C52.1577642,29.125714 52.0623607,29.1112074 51.966829,29.1152029 L51.4838881,29.1462731 L51.3945505,28.6711576 C51.2956198,28.1379373 51.1271602,27.619997 50.8934831,27.1305924 C49.3527333,27.4322325 47.0623246,27.6963294 45.2522673,26.6761904 C44.5543982,26.2839288 43.5354318,27.0878708 42.6990247,27.0050169 Z M104.636364,25.7272727 C105.941764,25.7272727 107,26.7855088 107,28.0909091 C107,29.3963094 105.941764,30.4545455 104.636364,30.4545455 L68.4932529,30.4545455 C67.1878526,30.4545455 66.1296166,29.3963094 66.1296166,28.0909091 C66.1296166,26.7855088 67.1878526,25.7272727 68.4932529,25.7272727 L104.636364,25.7272727 Z" id="Combined-Shape" fill="#999999"></path>
    </g>
</svg>