<?xml version="1.0" encoding="UTF-8"?>
<svg width="144px" height="92px" viewBox="0 0 144 92" version="1.1" xmlns="http://www.w3.org/2000/svg" xmlns:xlink="http://www.w3.org/1999/xlink">
    <!-- Generator: Sketch 57.1 (83088) - https://sketch.com -->
    <title>ZB.COM/6_User/kyc_photo02@2x</title>
    <desc>Created with Sketch.</desc>
    <g id="ZB.COM/6_User/kyc_photo02" stroke="none" stroke-width="1" fill="none" fill-rule="evenodd" opacity="0.24">
        <path d="M112.8,10 C116.77645,10 120,13.2235498 120,17.2 L120,74.8 C120,78.7764502 116.77645,82 112.8,82 L31.2,82 C27.2235498,82 24,78.7764502 24,74.8 L24,17.2 C24,13.2235498 27.2235498,10 31.2,10 L112.8,10 Z M112.8,12.4 L31.2,12.4 C28.5490332,12.4 26.4,14.5490332 26.4,17.2 L26.4,74.8 C26.4,77.4509668 28.5490332,79.6 31.2,79.6 L112.8,79.6 C115.450967,79.6 117.6,77.4509668 117.6,74.8 L117.6,17.2 C117.6,14.5490332 115.450967,12.4 112.8,12.4 Z M85.6816,56.5168 C87.208,56.5168 88.432,57.0208 89.3248,58.0576 C90.16,59.0368 90.592,60.304 90.592,61.8736 C90.592,63.4288 90.16,64.6816 89.3248,65.6608 C88.432,66.6832 87.208,67.2016 85.6672,67.2016 C84.1264,67.2016 82.9168,66.6832 82.024,65.6608 C81.1744,64.6816 80.7568,63.4144 80.7568,61.8736 C80.7568,60.3184 81.1744,59.0512 82.024,58.072 C82.9168,57.0352 84.1264,56.5168 85.6816,56.5168 Z M57.1984,56.5168 C58.3504,56.5168 59.272,56.776 59.9344,57.3088 C60.6256,57.856 61.0144,58.6768 61.1152,59.7568 L59.9488,59.7568 C59.8192,59.008 59.5312,58.4608 59.0848,58.1008 C58.624,57.7264 57.976,57.5536 57.1408,57.5536 C56.3776,57.5536 55.7872,57.6688 55.3552,57.928 C54.8656,58.216 54.6208,58.648 54.6208,59.2384 C54.6208,59.7568 54.9088,60.1744 55.4992,60.4912 C55.7584,60.6352 56.392,60.8512 57.3856,61.1392 C58.7392,61.5424 59.632,61.8736 60.064,62.1328 C60.9136,62.6512 61.3456,63.3712 61.3456,64.3072 C61.3456,65.2 60.9856,65.92 60.2656,66.4384 C59.5456,66.9424 58.5808,67.2016 57.3568,67.2016 C56.1472,67.2016 55.1968,66.9424 54.5056,66.424 C53.6992,65.8048 53.2528,64.8688 53.1664,63.6016 L54.3328,63.6016 C54.4336,64.4944 54.7504,65.1568 55.2688,65.5744 C55.744,65.9488 56.4352,66.1504 57.3568,66.1504 C58.192,66.1504 58.8832,65.992 59.4016,65.6752 C59.92,65.3584 60.1792,64.9264 60.1792,64.3792 C60.1792,63.7312 59.8336,63.2272 59.1568,62.8672 C58.8688,62.6944 58.1344,62.4496 56.9824,62.1184 C55.744,61.744 54.952,61.456 54.6208,61.2832 C53.8288,60.8224 53.44,60.16 53.44,59.296 C53.44,58.4032 53.8144,57.6976 54.5776,57.208 C55.2544,56.7472 56.1328,56.5168 57.1984,56.5168 Z M66.2992,56.5168 C67.4512,56.5168 68.3728,56.776 69.0352,57.3088 C69.7264,57.856 70.1152,58.6768 70.216,59.7568 L69.0496,59.7568 C68.92,59.008 68.632,58.4608 68.1856,58.1008 C67.7248,57.7264 67.0768,57.5536 66.2416,57.5536 C65.4784,57.5536 64.888,57.6688 64.456,57.928 C63.9664,58.216 63.7216,58.648 63.7216,59.2384 C63.7216,59.7568 64.0096,60.1744 64.6,60.4912 C64.8592,60.6352 65.4928,60.8512 66.4864,61.1392 C67.84,61.5424 68.7328,61.8736 69.1648,62.1328 C70.0144,62.6512 70.4464,63.3712 70.4464,64.3072 C70.4464,65.2 70.0864,65.92 69.3664,66.4384 C68.6464,66.9424 67.6816,67.2016 66.4576,67.2016 C65.248,67.2016 64.2976,66.9424 63.6064,66.424 C62.8,65.8048 62.3536,64.8688 62.2672,63.6016 L63.4336,63.6016 C63.5344,64.4944 63.8512,65.1568 64.3696,65.5744 C64.8448,65.9488 65.536,66.1504 66.4576,66.1504 C67.2928,66.1504 67.984,65.992 68.5024,65.6752 C69.0208,65.3584 69.28,64.9264 69.28,64.3792 C69.28,63.7312 68.9344,63.2272 68.2576,62.8672 C67.9696,62.6944 67.2352,62.4496 66.0832,62.1184 C64.8448,61.744 64.0528,61.456 63.7216,61.2832 C62.9296,60.8224 62.5408,60.16 62.5408,59.296 C62.5408,58.4032 62.9152,57.6976 63.6784,57.208 C64.3552,56.7472 65.2336,56.5168 66.2992,56.5168 Z M109.6,56.7184 L109.6,57.7408 L105.9712,57.7408 L105.9712,67 L104.8048,67 L104.8048,57.7408 L101.176,57.7408 L101.176,56.7184 L109.6,56.7184 Z M96.6688,56.7184 C97.6912,56.7184 98.4976,56.9488 99.088,57.424 C99.6928,57.9136 100.0096,58.6336 100.0096,59.584 C100.0096,60.16 99.8512,60.664 99.5344,61.1104 C99.1888,61.5712 98.728,61.8592 98.1376,62.0032 L98.1376,62.032 C99.1168,62.248 99.664,62.8672 99.7792,63.904 L99.9376,65.488 C99.9952,66.1216 100.1824,66.6256 100.4848,67 L99.2032,67 C98.9728,66.6544 98.8288,66.208 98.7856,65.632 L98.656,64.264 C98.5984,63.6592 98.3824,63.2128 98.008,62.9536 C97.6624,62.6944 97.1728,62.5792 96.5248,62.5792 L93.4144,62.5792 L93.4144,67 L92.2336,67 L92.2336,56.7184 L96.6688,56.7184 Z M76.1488,56.7184 C78.5104,56.7184 79.6912,57.7264 79.6912,59.7424 C79.6912,61.7728 78.496,62.7952 76.1344,62.7952 L73.1248,62.7952 L73.1248,67 L71.944,67 L71.944,56.7184 L76.1488,56.7184 Z M48.6592,56.7184 L52.7056,67 L51.424,67 L50.3296,64.12 L45.6064,64.12 L44.512,67 L43.2448,67 L47.2912,56.7184 L48.6592,56.7184 Z M39.2416,56.7184 C41.6032,56.7184 42.784,57.7264 42.784,59.7424 C42.784,61.7728 41.5888,62.7952 39.2272,62.7952 L36.2176,62.7952 L36.2176,67 L35.0368,67 L35.0368,56.7184 L39.2416,56.7184 Z M85.6816,57.568 C84.5008,57.568 83.5648,57.9712 82.888,58.792 C82.2544,59.5696 81.9376,60.592 81.9376,61.8736 C81.9376,63.1408 82.2544,64.1632 82.888,64.9408 C83.5504,65.7472 84.4864,66.1504 85.6672,66.1504 C86.848,66.1504 87.784,65.7472 88.4464,64.9696 C89.08,64.192 89.4112,63.1696 89.4112,61.8736 C89.4112,60.5632 89.08,59.5264 88.4464,58.7488 C87.784,57.9568 86.8624,57.568 85.6816,57.568 Z M48.0112,57.9856 L47.9536,57.9856 L45.9808,63.1264 L49.9552,63.1264 L48.0112,57.9856 Z M76.0768,57.7408 L73.1248,57.7408 L73.1248,61.7728 L76.0768,61.7728 C76.912,61.7728 77.5168,61.6 77.92,61.2688 C78.3088,60.9376 78.5104,60.4336 78.5104,59.7424 C78.5104,59.0512 78.3088,58.5472 77.9056,58.2448 C77.5024,57.8992 76.8976,57.7408 76.0768,57.7408 Z M39.1696,57.7408 L36.2176,57.7408 L36.2176,61.7728 L39.1696,61.7728 C40.0048,61.7728 40.6096,61.6 41.0128,61.2688 C41.4016,60.9376 41.6032,60.4336 41.6032,59.7424 C41.6032,59.0512 41.4016,58.5472 40.9984,58.2448 C40.5952,57.8992 39.9904,57.7408 39.1696,57.7408 Z M96.5248,57.7408 L93.4144,57.7408 L93.4144,61.5568 L96.5248,61.5568 C97.2736,61.5568 97.864,61.3696 98.2672,61.024 C98.6272,60.6928 98.8144,60.232 98.8144,59.6272 C98.8144,58.9936 98.6272,58.5184 98.2816,58.216 C97.9072,57.8992 97.3168,57.7408 96.5248,57.7408 Z M104.997221,37.7436627 C106.988705,39.6350626 108.266091,44.092345 107.952867,47 L86.4590164,47 C86.5118648,44.4457687 86.979767,40.0868754 89.5100476,37.8692382 L92.9941782,37.901603 L96.2566032,43.3078218 L96.8714498,39.2648091 L96.4267494,38.5320696 L96.4602631,37.7786167 C97.1057901,37.7354584 97.7534884,37.7363234 98.3988988,37.7812059 L98.4349905,38.5346588 L97.9915791,39.2673982 L98.6090037,43.3427758 L101.143151,37.8757112 L104.997221,37.7436627 Z M73.3248882,39.9090909 C74.6302885,39.9090909 75.6885246,40.967327 75.6885246,42.2727273 C75.6885246,43.5781276 74.6302885,44.6363636 73.3248882,44.6363636 L37.3636364,44.6363636 C36.058236,44.6363636 35,43.5781276 35,42.2727273 C35,40.967327 36.058236,39.9090909 37.3636364,39.9090909 L73.3248882,39.9090909 Z M102.122781,22.3341267 C103.754638,23.8824595 103.868069,25.6172136 103.366653,28.2944311 C103.445281,28.3397419 103.52262,28.3876418 103.601249,28.4407201 L103.837133,28.599955 L103.839711,28.8834708 C103.85389,29.7016533 103.755927,30.3942604 103.541955,30.9289271 C103.34474,31.4169886 103.054718,31.7807691 102.664155,32.0008498 C102.398624,32.95367 102.087978,33.8365822 101.643278,34.5770892 C101.135417,35.4315203 100.463855,36.0891733 99.5138722,36.4425971 C99.0897956,36.5966537 98.0057579,36.6704454 96.9629678,36.6523211 C95.9575583,36.6393752 94.9469929,36.538397 94.544829,36.3519757 C93.6812081,35.9545357 93.0740954,35.2826421 92.6165052,34.4476299 C92.2220753,33.7343094 91.9423652,32.9031809 91.6961688,32.0254471 C91.292716,31.8131339 90.9898041,31.4519426 90.7848553,30.9587028 C90.5618606,30.4227414 90.4600307,29.718483 90.4729205,28.8834708 L90.4767875,28.5986604 L90.712672,28.4407201 C90.7719654,28.4005877 90.8325478,28.36175 90.8931301,28.326796 C90.6275989,25.0462982 90.7281399,23.833265 91.9410762,22.4467563 C94.3063665,20.5022781 99.727844,20.5708915 102.122781,22.3341267 Z M93.1282328,27.0050169 C92.8652796,27.5306215 92.6757985,28.0924747 92.5662347,28.6711576 L92.4734277,29.1643974 L91.9810348,29.1164975 C91.8838692,29.1092913 91.7862364,29.1211638 91.6935908,29.1514515 C91.6484777,29.166898 91.6041666,29.1846131 91.5608252,29.2045298 C91.5724261,29.7508479 91.6484763,30.2026607 91.7902648,30.5418439 C91.9140075,30.8396002 92.0854427,31.0324946 92.3097264,31.1036971 L92.5984594,31.1943186 L92.6783765,31.485602 C92.920706,32.3827547 93.1888152,33.233302 93.5703552,33.9233199 C93.9235375,34.5628486 94.3759718,35.0742127 94.9985523,35.3616123 C95.2615056,35.483304 96.0993468,35.5506228 96.9745687,35.5635687 C97.905217,35.5765147 98.8319983,35.5286147 99.1387771,35.4146906 C99.8283849,35.1596558 100.325934,34.6638269 100.711341,34.0165306 C101.123816,33.3213343 101.418994,32.4384221 101.678081,31.4700669 L101.752842,31.1917294 L102.026107,31.0959296 C102.242657,31.0195486 102.411514,30.8201814 102.533968,30.5198359 C102.668022,30.185831 102.741495,29.7404911 102.755673,29.2058244 C102.71662,29.1866413 102.676103,29.1706236 102.634509,29.1579244 C102.544884,29.125714 102.449905,29.1112074 102.354799,29.1152029 L101.874007,29.1462731 L101.785067,28.6711576 C101.686576,28.1379373 101.518866,27.619997 101.286229,27.1305924 C99.7523347,27.4322325 97.4721175,27.6963294 95.6701143,26.6761904 C94.9753506,26.2839288 93.9609181,27.0878708 93.1282328,27.0050169 Z M73.3248882,25.7272727 C74.6302885,25.7272727 75.6885246,26.7855088 75.6885246,28.0909091 C75.6885246,29.3963094 74.6302885,30.4545455 73.3248882,30.4545455 L37.3636364,30.4545455 C36.058236,30.4545455 35,29.3963094 35,28.0909091 C35,26.7855088 36.058236,25.7272727 37.3636364,25.7272727 L73.3248882,25.7272727 Z" id="Combined-Shape" fill="#999999"></path>
    </g>
</svg>