<?xml version="1.0" encoding="UTF-8"?>
<svg width="325px" height="228px" viewBox="0 0 325 228" version="1.1" xmlns="http://www.w3.org/2000/svg" xmlns:xlink="http://www.w3.org/1999/xlink">
    <!-- Generator: Sketch 57.1 (83088) - https://sketch.com -->
    <title>ZB.COM/6_User/kyc_photo01@2x</title>
    <desc>Created with Sketch.</desc>
    <g id="ZB.COM/6_User/kyc_photo01" stroke="none" stroke-width="1" fill="none" fill-rule="evenodd" opacity="0.236769903">
        <path d="M261,156 C264.313708,156 267,158.686292 267,162 L267,189 L266.975296,191.070435 C270.905496,191.641679 274,195.619363 274,200.5 C274,205.47136 270.789383,209.505886 266.755276,209.957874 L266.731856,211.995974 L266.661011,211.993133 C265.83928,214.327104 263.615003,216 261,216 L193,216 C189.686292,216 187,213.313708 187,210 L187,162 C187,158.686292 189.686292,156 193,156 L261,156 Z M133,156 C136.313708,156 139,158.686292 139,162 L139,210 C139,213.313708 136.313708,216 133,216 L65,216 C62.3849972,216 60.16072,214.327104 59.3389891,211.993133 L59.2681442,211.995974 L59.2447238,209.957874 C55.2106166,209.505886 52,205.47136 52,200.5 C52,195.619363 55.0945036,191.641679 59.0247037,191.070435 L59,189 L59,162 C59,158.686292 61.6862915,156 65,156 L133,156 Z M261,158 L193,158 C190.790861,158 189,159.790861 189,162 L189,210 C189,212.209139 190.790861,214 193,214 L261,214 C262.67514,214 264.152932,212.960701 264.738348,211.427534 L264.756428,209.885064 C260.954599,209.175934 258,205.269032 258,200.5 C258,195.639708 261.068759,191.674856 264.975599,191.077756 L265.000136,188.976681 L265.000136,162 C265.000136,159.790861 263.209139,158 261,158 Z M133,158 L65,158 C62.790861,158 60.999864,159.790861 60.999864,162 L60.999864,188.976681 L61.024401,191.077756 C64.9312411,191.674856 68,195.639708 68,200.5 C68,205.269032 65.0454015,209.175934 61.2435724,209.885064 L61.2616519,211.427534 C61.8470679,212.960701 63.3248597,214 65,214 L133,214 C135.209139,214 137,212.209139 137,210 L137,162 C137,159.790861 135.209139,158 133,158 Z M208.916,201.628 C209.804,201.628 210.452,201.856 210.884,202.324 C211.244,202.732 211.436,203.296 211.436,204.016 L211.436,208 L210.536,208 L210.536,206.956 C210.296,207.292 209.972,207.568 209.588,207.784 C209.132,208.036 208.616,208.168 208.04,208.168 C207.416,208.168 206.924,208.012 206.552,207.7 C206.168,207.376 205.976,206.956 205.976,206.452 C205.976,205.744 206.252,205.216 206.828,204.856 C207.332,204.52 208.052,204.34 208.988,204.328 L210.476,204.304 L210.476,203.98 C210.476,202.936 209.936,202.42 208.856,202.42 C208.4,202.42 208.028,202.504 207.74,202.696 C207.416,202.888 207.212,203.188 207.116,203.584 L206.168,203.512 C206.3,202.864 206.624,202.372 207.128,202.06 C207.584,201.772 208.172,201.628 208.916,201.628 Z M219.74,201.628 C220.736,201.628 221.492,201.964 221.996,202.636 C222.452,203.236 222.692,204.088 222.716,205.168 L217.82,205.168 C217.868,205.864 218.048,206.404 218.384,206.788 C218.72,207.172 219.188,207.364 219.776,207.364 C220.28,207.364 220.7,207.232 221.012,206.98 C221.276,206.764 221.48,206.44 221.636,206.008 L222.596,206.008 C222.452,206.608 222.176,207.088 221.756,207.472 C221.24,207.928 220.58,208.168 219.776,208.168 C218.888,208.168 218.168,207.868 217.64,207.292 C217.088,206.692 216.824,205.9 216.824,204.892 C216.824,203.98 217.076,203.212 217.604,202.6 C218.132,201.952 218.84,201.628 219.74,201.628 Z M266,193 C262.782059,193 260,196.285643 260,200.5 C260,204.714357 262.782059,208 266,208 C269.217941,208 272,204.714357 272,200.5 C272,196.285643 269.217941,193 266,193 Z M60,193 C56.7820592,193 54,196.285643 54,200.5 C54,204.714357 56.7820592,208 60,208 C63.2179408,208 66,204.714357 66,200.5 C66,196.285643 63.2179408,193 60,193 Z M214.58,199.792 L214.58,201.796 L216.116,201.796 L216.116,202.6 L214.58,202.6 L214.58,206.548 C214.58,206.776 214.616,206.944 214.712,207.04 C214.796,207.136 214.952,207.196 215.168,207.196 L215.96,207.196 L215.96,208 L215.024,208 C214.52,208 214.148,207.868 213.932,207.604 C213.728,207.364 213.632,207.016 213.632,206.548 L213.632,202.6 L212.384,202.6 L212.384,201.796 L213.632,201.796 L213.632,200.188 L214.58,199.792 Z M200.936,199.432 C202.292,199.432 203.312,199.816 204.008,200.608 C204.644,201.328 204.968,202.372 204.968,203.716 C204.968,205.036 204.62,206.08 203.936,206.824 C203.216,207.604 202.184,208 200.84,208 L197.864,208 L197.864,199.432 L200.936,199.432 Z M210.476,205.024 L209.048,205.048 C207.656,205.072 206.96,205.528 206.96,206.428 C206.96,206.716 207.068,206.944 207.308,207.136 C207.548,207.316 207.86,207.412 208.244,207.412 C208.832,207.412 209.348,207.22 209.804,206.836 C210.248,206.464 210.476,206.032 210.476,205.552 L210.476,205.024 Z M200.78,200.284 L198.848,200.284 L198.848,207.148 L200.672,207.148 C201.788,207.148 202.628,206.848 203.192,206.26 C203.72,205.684 203.996,204.832 203.996,203.716 C203.996,202.564 203.744,201.712 203.252,201.16 C202.724,200.572 201.908,200.284 200.78,200.284 Z M219.764,202.432 C219.212,202.432 218.768,202.612 218.432,202.972 C218.096,203.332 217.904,203.812 217.844,204.424 L221.72,204.424 C221.6,203.092 220.94,202.432 219.764,202.432 Z M87.332,195.264 C88.292,195.264 89.06,195.48 89.612,195.924 C90.188,196.38 90.512,197.064 90.596,197.964 L89.624,197.964 C89.516,197.34 89.276,196.884 88.904,196.584 C88.52,196.272 87.98,196.128 87.284,196.128 C86.648,196.128 86.156,196.224 85.796,196.44 C85.388,196.68 85.184,197.04 85.184,197.532 C85.184,197.964 85.424,198.312 85.916,198.576 C86.132,198.696 86.66,198.876 87.488,199.116 C88.616,199.452 89.36,199.728 89.72,199.944 C90.428,200.376 90.788,200.976 90.788,201.756 C90.788,202.5 90.488,203.1 89.888,203.532 C89.288,203.952 88.484,204.168 87.464,204.168 C86.456,204.168 85.664,203.952 85.088,203.52 C84.416,203.004 84.044,202.224 83.972,201.168 L84.944,201.168 C85.028,201.912 85.292,202.464 85.724,202.812 C86.12,203.124 86.696,203.292 87.464,203.292 C88.16,203.292 88.736,203.16 89.168,202.896 C89.6,202.632 89.816,202.272 89.816,201.816 C89.816,201.276 89.528,200.856 88.964,200.556 C88.724,200.412 88.112,200.208 87.152,199.932 C86.12,199.62 85.46,199.38 85.184,199.236 C84.524,198.852 84.2,198.3 84.2,197.58 C84.2,196.836 84.512,196.248 85.148,195.84 C85.712,195.456 86.444,195.264 87.332,195.264 Z M94.916,195.264 C95.876,195.264 96.644,195.48 97.196,195.924 C97.772,196.38 98.096,197.064 98.18,197.964 L97.208,197.964 C97.1,197.34 96.86,196.884 96.488,196.584 C96.104,196.272 95.564,196.128 94.868,196.128 C94.232,196.128 93.74,196.224 93.38,196.44 C92.972,196.68 92.768,197.04 92.768,197.532 C92.768,197.964 93.008,198.312 93.5,198.576 C93.716,198.696 94.244,198.876 95.072,199.116 C96.2,199.452 96.944,199.728 97.304,199.944 C98.012,200.376 98.372,200.976 98.372,201.756 C98.372,202.5 98.072,203.1 97.472,203.532 C96.872,203.952 96.068,204.168 95.048,204.168 C94.04,204.168 93.248,203.952 92.672,203.52 C92,203.004 91.628,202.224 91.556,201.168 L92.528,201.168 C92.612,201.912 92.876,202.464 93.308,202.812 C93.704,203.124 94.28,203.292 95.048,203.292 C95.744,203.292 96.32,203.16 96.752,202.896 C97.184,202.632 97.4,202.272 97.4,201.816 C97.4,201.276 97.112,200.856 96.548,200.556 C96.308,200.412 95.696,200.208 94.736,199.932 C93.704,199.62 93.044,199.38 92.768,199.236 C92.108,198.852 91.784,198.3 91.784,197.58 C91.784,196.836 92.096,196.248 92.732,195.84 C93.296,195.456 94.028,195.264 94.916,195.264 Z M111.068,195.264 C112.34,195.264 113.36,195.684 114.104,196.548 C114.8,197.364 115.16,198.42 115.16,199.728 C115.16,201.024 114.8,202.068 114.104,202.884 C113.36,203.736 112.34,204.168 111.056,204.168 C109.772,204.168 108.764,203.736 108.02,202.884 C107.312,202.068 106.964,201.012 106.964,199.728 C106.964,198.432 107.312,197.376 108.02,196.56 C108.764,195.696 109.772,195.264 111.068,195.264 Z M131,195.432 L131,196.284 L127.976,196.284 L127.976,204 L127.004,204 L127.004,196.284 L123.98,196.284 L123.98,195.432 L131,195.432 Z M72.368,195.432 C74.336,195.432 75.32,196.272 75.32,197.952 C75.32,199.644 74.324,200.496 72.356,200.496 L69.848,200.496 L69.848,204 L68.864,204 L68.864,195.432 L72.368,195.432 Z M80.216,195.432 L83.588,204 L82.52,204 L81.608,201.6 L77.672,201.6 L76.76,204 L75.704,204 L79.076,195.432 L80.216,195.432 Z M103.124,195.432 C105.092,195.432 106.076,196.272 106.076,197.952 C106.076,199.644 105.08,200.496 103.112,200.496 L100.604,200.496 L100.604,204 L99.62,204 L99.62,195.432 L103.124,195.432 Z M120.224,195.432 C121.076,195.432 121.748,195.624 122.24,196.02 C122.744,196.428 123.008,197.028 123.008,197.82 C123.008,198.3 122.876,198.72 122.612,199.092 C122.324,199.476 121.94,199.716 121.448,199.836 L121.448,199.86 C122.264,200.04 122.72,200.556 122.816,201.42 L122.948,202.74 C122.996,203.268 123.152,203.688 123.404,204 L122.336,204 C122.144,203.712 122.024,203.34 121.988,202.86 L121.88,201.72 C121.832,201.216 121.652,200.844 121.34,200.628 C121.052,200.412 120.644,200.316 120.104,200.316 L117.512,200.316 L117.512,204 L116.528,204 L116.528,195.432 L120.224,195.432 Z M111.068,196.14 C110.084,196.14 109.304,196.476 108.74,197.16 C108.212,197.808 107.948,198.66 107.948,199.728 C107.948,200.784 108.212,201.636 108.74,202.284 C109.292,202.956 110.072,203.292 111.056,203.292 C112.04,203.292 112.82,202.956 113.372,202.308 C113.9,201.66 114.176,200.808 114.176,199.728 C114.176,198.636 113.9,197.772 113.372,197.124 C112.82,196.464 112.052,196.14 111.068,196.14 Z M79.676,196.488 L79.628,196.488 L77.984,200.772 L81.296,200.772 L79.676,196.488 Z M72.308,196.284 L69.848,196.284 L69.848,199.644 L72.308,199.644 C73.004,199.644 73.508,199.5 73.844,199.224 C74.168,198.948 74.336,198.528 74.336,197.952 C74.336,197.376 74.168,196.956 73.832,196.704 C73.496,196.416 72.992,196.284 72.308,196.284 Z M103.064,196.284 L100.604,196.284 L100.604,199.644 L103.064,199.644 C103.76,199.644 104.264,199.5 104.6,199.224 C104.924,198.948 105.092,198.528 105.092,197.952 C105.092,197.376 104.924,196.956 104.588,196.704 C104.252,196.416 103.748,196.284 103.064,196.284 Z M120.104,196.284 L117.512,196.284 L117.512,199.464 L120.104,199.464 C120.728,199.464 121.22,199.308 121.556,199.02 C121.856,198.744 122.012,198.36 122.012,197.856 C122.012,197.328 121.856,196.932 121.568,196.68 C121.256,196.416 120.764,196.284 120.104,196.284 Z M198.896,182.432 L203.744,189.404 L203.78,189.404 L203.78,182.432 L204.764,182.432 L204.764,191 L203.756,191 L198.884,183.956 L198.848,183.956 L198.848,191 L197.864,191 L197.864,182.432 L198.896,182.432 Z M231.032,182.432 L231.032,183.284 L225.944,183.284 L225.944,186.152 L230.744,186.152 L230.744,187.004 L225.944,187.004 L225.944,190.148 L231.236,190.148 L231.236,191 L224.96,191 L224.96,182.432 L231.032,182.432 Z M210.14,182.432 L213.512,191 L212.444,191 L211.532,188.6 L207.596,188.6 L206.684,191 L205.628,191 L209,182.432 L210.14,182.432 Z M215.6,182.432 L218.792,189.74 L218.828,189.74 L222.008,182.432 L223.232,182.432 L223.232,191 L222.248,191 L222.248,184.184 L222.212,184.184 L219.248,191 L218.36,191 L215.396,184.184 L215.36,184.184 L215.36,191 L214.376,191 L214.376,182.432 L215.6,182.432 Z M209.6,183.488 L209.552,183.488 L207.908,187.772 L211.22,187.772 L209.6,183.488 Z M126.490829,179.167715 C128.154945,180.76813 129.22235,184.539677 128.960615,187 L111,187 C111.044161,184.838727 111.435148,181.150433 113.549492,179.273971 L116.460889,179.301356 L119.187025,183.875849 L119.700801,180.454838 L119.329202,179.834828 L119.357206,179.197291 C119.896619,179.160772 120.437846,179.161504 120.977162,179.199482 L121.007321,179.837019 L120.636799,180.457029 L121.152729,183.905426 L123.270304,179.279448 L126.490829,179.167715 Z M100,181 C101.104569,181 102,181.895431 102,183 C102,184.104569 101.104569,185 100,185 L70,185 C68.8954305,185 68,184.104569 68,183 C68,181.895431 68.8954305,181 70,181 L100,181 Z M124.088899,166.128876 C125.452506,167.439004 125.54729,168.906873 125.128299,171.172211 C125.194002,171.210551 125.258628,171.251082 125.324331,171.295994 L125.52144,171.430731 L125.523594,171.670629 C125.535442,172.362937 125.453583,172.94899 125.274784,173.4014 C125.109988,173.814375 124.867641,174.122189 124.541281,174.308411 C124.319398,175.114644 124.059818,175.861723 123.688219,176.488306 C123.263842,177.211286 122.702674,177.767762 121.908852,178.066813 C121.554487,178.197168 120.648647,178.259608 119.777274,178.244272 C118.937138,178.233317 118.092693,178.147874 117.756638,177.990133 C117.034982,177.653838 116.527669,177.085313 116.145299,176.378764 C115.815707,175.775185 115.581976,175.071922 115.376251,174.329224 C115.039119,174.149575 114.786001,173.843951 114.614742,173.426595 C114.428404,172.973089 114.343313,172.377178 114.354084,171.670629 L114.357316,171.429636 L114.554425,171.295994 C114.603971,171.262036 114.654595,171.229173 114.705218,171.199597 C114.483336,168.423791 114.56735,167.397378 115.580899,166.224178 C117.557375,164.578851 122.08765,164.636908 124.088899,166.128876 Z M116.572907,170.081168 C116.353179,170.52591 116.194845,171.001325 116.103292,171.49098 L116.025741,171.908336 L115.614289,171.867806 C115.533096,171.861708 115.451513,171.871754 115.374096,171.897382 C115.336399,171.910452 115.299372,171.925442 115.263155,171.942294 C115.272849,172.404564 115.336398,172.786867 115.454879,173.073868 C115.55828,173.325816 115.701534,173.489034 115.888949,173.549282 L116.130219,173.625962 L116.197,173.872432 C116.399494,174.631562 116.623531,175.351256 116.942352,175.935117 C117.237477,176.476257 117.615538,176.908949 118.135777,177.152133 C118.355505,177.255103 119.055619,177.312065 119.786968,177.32302 C120.564633,177.333974 121.339067,177.293443 121.595417,177.197046 C122.171664,176.981247 122.587424,176.5617 122.909476,176.013987 C123.254148,175.425744 123.500803,174.678665 123.7173,173.859287 L123.779772,173.623771 L124.008117,173.54271 C124.189069,173.47808 124.330169,173.309384 124.432494,173.055246 C124.544512,172.772626 124.605906,172.3958 124.617754,171.94339 C124.585121,171.927158 124.551264,171.913605 124.516507,171.902859 C124.441616,171.875604 124.36225,171.863329 124.282777,171.86671 L123.881019,171.893 L123.806699,171.49098 C123.724399,171.039793 123.584258,170.601536 123.389862,170.187424 C122.108115,170.442658 120.202728,170.666125 118.696945,169.80293 C118.116389,169.471017 117.268712,170.151275 116.572907,170.081168 Z M219.2,167.628 C219.968,167.628 220.58,167.808 221.048,168.168 C221.528,168.54 221.816,169.104 221.924,169.86 L220.976,169.86 C220.892,169.38 220.7,169.02 220.4,168.78 C220.088,168.54 219.692,168.432 219.2,168.432 C218.6,168.432 218.12,168.66 217.772,169.116 C217.436,169.56 217.268,170.16 217.268,170.916 C217.268,171.672 217.424,172.272 217.76,172.704 C218.084,173.136 218.564,173.364 219.188,173.364 C220.244,173.364 220.856,172.824 221,171.756 L221.96,171.756 C221.816,172.548 221.516,173.16 221.036,173.568 C220.568,173.964 219.956,174.168 219.188,174.168 C218.252,174.168 217.532,173.856 217.016,173.232 C216.524,172.644 216.284,171.876 216.284,170.928 C216.284,169.98 216.524,169.212 217.016,168.612 C217.544,167.952 218.276,167.628 219.2,167.628 Z M225.86,167.628 C226.784,167.628 227.528,167.94 228.08,168.588 C228.608,169.2 228.872,169.968 228.872,170.904 C228.872,171.828 228.608,172.596 228.092,173.196 C227.528,173.844 226.784,174.168 225.86,174.168 C224.924,174.168 224.192,173.844 223.64,173.196 C223.112,172.596 222.848,171.828 222.848,170.904 C222.848,169.968 223.112,169.2 223.64,168.588 C224.192,167.94 224.924,167.628 225.86,167.628 Z M214.196,172.572 C214.388,172.572 214.568,172.644 214.712,172.788 C214.856,172.932 214.928,173.1 214.928,173.316 C214.928,173.52 214.856,173.688 214.712,173.832 C214.568,173.976 214.388,174.048 214.196,174.048 C213.98,174.048 213.812,173.976 213.68,173.832 C213.536,173.688 213.464,173.52 213.464,173.316 C213.464,173.1 213.536,172.932 213.68,172.788 C213.812,172.644 213.98,172.572 214.196,172.572 Z M236.732,167.628 C237.38,167.628 237.896,167.832 238.304,168.24 C238.688,168.66 238.892,169.224 238.892,169.932 L238.892,174 L237.932,174 L237.932,170.088 C237.932,169.536 237.812,169.128 237.584,168.864 C237.344,168.576 236.96,168.444 236.432,168.444 C236.024,168.444 235.676,168.588 235.412,168.9 C235.124,169.212 234.992,169.608 234.992,170.112 L234.992,174 L234.032,174 L234.032,170.088 C234.032,168.984 233.552,168.444 232.604,168.444 C232.16,168.444 231.8,168.612 231.512,168.972 C231.224,169.308 231.08,169.728 231.08,170.22 L231.08,174 L230.12,174 L230.12,167.796 L231.08,167.796 L231.08,168.624 C231.548,167.952 232.136,167.628 232.832,167.628 C233.78,167.628 234.428,168.012 234.776,168.804 C235.016,168.396 235.304,168.096 235.64,167.916 C235.94,167.724 236.3,167.628 236.732,167.628 Z M209.18,165.432 C209.972,165.432 210.608,165.624 211.076,166.008 C211.532,166.392 211.76,166.92 211.76,167.592 C211.76,168.072 211.628,168.492 211.376,168.84 C211.112,169.152 210.764,169.38 210.332,169.524 C210.896,169.62 211.328,169.86 211.64,170.22 C211.952,170.58 212.12,171.036 212.12,171.612 C212.12,172.452 211.82,173.076 211.232,173.484 C210.728,173.82 210.032,174 209.156,174 L205.352,174 L205.352,165.432 L209.18,165.432 Z M203.9,165.432 L203.9,166.248 L198.572,173.148 L204.188,173.148 L204.188,174 L197.3,174 L197.3,173.196 L202.64,166.284 L197.66,166.284 L197.66,165.432 L203.9,165.432 Z M225.86,168.432 C225.2,168.432 224.684,168.684 224.324,169.188 C223.988,169.644 223.832,170.208 223.832,170.904 C223.832,171.588 223.988,172.152 224.324,172.608 C224.684,173.112 225.2,173.364 225.86,173.364 C226.508,173.364 227.024,173.112 227.408,172.608 C227.732,172.152 227.9,171.576 227.9,170.904 C227.9,170.208 227.732,169.644 227.408,169.188 C227.024,168.684 226.508,168.432 225.86,168.432 Z M209.072,169.992 L206.336,169.992 L206.336,173.172 L209.072,173.172 C209.672,173.172 210.14,173.052 210.5,172.836 C210.92,172.572 211.136,172.152 211.136,171.6 C211.136,171.048 210.944,170.64 210.584,170.376 C210.236,170.112 209.732,169.992 209.072,169.992 Z M100,169 C101.104569,169 102,169.895431 102,171 C102,172.104569 101.104569,173 100,173 L70,173 C68.8954305,173 68,172.104569 68,171 C68,169.895431 68.8954305,169 70,169 L100,169 Z M208.952,166.26 L206.336,166.26 L206.336,169.176 L208.94,169.176 C209.54,169.176 209.996,169.044 210.308,168.804 C210.62,168.552 210.788,168.18 210.788,167.688 C210.788,167.208 210.632,166.848 210.32,166.608 C210.008,166.368 209.552,166.26 208.952,166.26 Z M196.42628,22.2405898 C199.39682,22.2405898 200.971883,20.5354317 201.151469,17.1251155 C202.702506,19.5996034 202.752539,22.540279 201.301569,25.9471421 L201.151469,26.2893824 L204.170903,23.8047497 L205.402477,44.9084949 C205.402477,56.563862 204.220756,66.8070076 201.857314,75.6379318 C207.567387,74.1869886 210.349333,76.4955899 209.477844,82.4450643 C208.201988,91.1550625 202.155991,98.0282164 197.220447,96.5953456 L196.784485,103.116116 C195.824485,117.469685 186.50795,129.39225 173.756677,134.294056 L173.756059,140.459 L184.147433,140.459439 L184.14808,140.553861 C199.358389,142.022662 210.006592,146.71356 216.000301,154.628903 L213.569658,154.629119 C207.785534,147.868111 197.996468,143.805634 184.124002,142.443683 C183.582752,154.317364 173.849552,163.80305 161.850309,163.996972 L161.475386,164 L160.530717,164 C148.354057,164 138.419443,154.431613 137.881594,142.426487 C124.003881,143.79363 114.212644,147.861967 108.429433,154.629358 L105.999568,154.629411 C111.992091,146.707774 122.642226,142.010803 137.857569,140.536148 L137.85867,140.459439 L138.687059,140.459 L138.720293,140.456418 C138.782163,140.450975 138.843165,140.451607 138.902707,140.457818 L148.249059,140.459 L148.249611,134.497206 C135.15577,129.74234 125.474378,117.737232 124.2864,103.151944 L123.753893,96.6078869 C118.826479,97.9873935 112.812548,91.1292063 111.54048,82.4450643 C110.619167,76.1554484 113.780976,73.9349159 120.168183,75.9220227 C119.923346,74.6259991 119.676785,73.3095445 119.428849,71.9737033 C113.495536,58.3865019 111.988592,48.1767031 114.908019,41.3443068 C113.777615,24.2559438 123.946948,14.8078415 145.416019,13 C173.756078,13 190.759498,16.0801966 196.42628,22.2405898 Z M177.534059,142.342 L177.534753,142.813495 C177.534753,151.91426 170.133258,159.291888 161.003051,159.291888 C151.97901,159.291888 144.643712,152.084835 144.474343,143.130256 L144.47135,142.813495 L144.471059,142.342 L139.769094,142.342684 C140.257705,153.229547 149.176558,161.929903 160.175208,162.113785 L160.530717,162.116755 L161.475386,162.116755 C172.518029,162.116755 181.549159,153.532216 182.21833,142.693107 L182.237008,142.342684 L177.534059,142.342 Z M173.756059,142.342 L173.756078,143.388961 C173.756078,150.117027 168.046353,155.571201 161.003051,155.571201 C154.064873,155.571201 148.420761,150.278623 148.253826,143.689352 L148.250025,143.388961 L148.249059,142.342 L146.360687,142.342684 L146.360687,142.813495 C146.360687,150.874173 152.916297,157.408643 161.003051,157.408643 C168.984783,157.408643 175.474881,151.042797 175.642109,143.126764 L175.645415,142.813495 L175.645415,142.342684 L173.756059,142.342 Z M171.867339,134.960533 C168.368431,136.086156 164.640728,136.692949 160.778559,136.692949 C157.08531,136.692949 153.51185,136.145685 150.139059,135.125514 L150.139059,140.459 L150.206706,140.459439 L150.206706,142.342684 L150.139059,142.342 L150.139362,143.388961 C150.139362,149.02632 154.845038,153.613801 160.708909,153.762695 L161.003051,153.766425 C166.904543,153.766425 171.706965,149.27136 171.862836,143.669938 L171.866741,143.388961 L171.867339,134.960533 Z M196.42628,49.9936239 C188.092163,55.9572327 163.950836,57.1449889 124.0023,53.5568925 C122.533635,58.8743619 122.533635,62.2463634 124.0023,63.6728969 C125.470964,65.0994303 125.470964,68.7704398 124.0023,74.6859254 C124.298544,75.7842665 124.442501,78.1209696 124.43417,81.6960348 L126.169542,102.999549 C127.633202,120.969504 142.691152,134.809704 160.778559,134.809704 C178.781788,134.809704 193.701775,120.896274 194.899332,102.990845 L196.876702,73.4362217 C196.477865,70.8044229 195.760587,68.7376789 194.724868,67.2359897 L194.538788,66.9768514 L196.42628,49.9936239 Z M174.683327,110.380443 C173.472828,116.576205 168.896396,119.716904 161.261359,119.716904 C153.626323,119.716904 149.04989,116.576205 147.839391,110.380443 C147.70235,109.679019 148.368344,109.087035 149.051811,109.302754 C155.775485,111.424912 163.93991,111.424912 173.549801,109.281548 C174.214634,109.133266 174.813555,109.713888 174.683327,110.380443 Z M172.463727,111.438949 C163.924707,113.175293 156.46926,113.221601 150.100536,111.563714 C151.528073,115.764232 155.174578,117.833659 161.261359,117.833659 C167.408104,117.833659 171.066256,115.723258 172.463727,111.438949 Z M162.433256,91.1448954 C164.087284,93.6530708 164.511368,96.1151402 163.661359,98.4720616 C163.603853,98.6315137 163.492281,98.7646152 163.347586,98.8494893 L163.256962,98.8944515 L158.917574,100.681738 C158.548418,100.833784 158.125502,100.658747 157.972964,100.290781 C157.833137,99.9534794 157.969041,99.5711494 158.277006,99.3926558 L158.365185,99.3492165 L162.398465,97.6880084 C162.947484,95.8754478 162.568722,93.9751744 161.224543,91.9368549 C161.005142,91.6041541 161.097862,91.1571607 161.431639,90.9384671 C161.765416,90.7197735 162.213855,90.8121946 162.433256,91.1448954 Z M201.492682,77.6738659 L201.261204,77.7511118 C200.298817,80.992196 199.168692,84.0328259 197.870832,86.8730015 L197.352702,94.6255811 C200.957838,96.146956 206.430441,90.2141736 207.608329,82.1729779 C208.292514,77.5021918 206.523803,76.0460772 201.492682,77.6738659 Z M113.409995,82.1729779 C114.580168,90.1615101 119.988988,96.0691555 123.594551,94.6545148 L123.401597,92.2871032 C122.479528,87.84213 121.535903,83.0930145 120.570723,78.0397567 C114.739939,75.8670596 112.68043,77.1923918 113.409995,82.1729779 Z M178.007087,77.4165385 C179.833128,77.4165385 181.313427,80.1568002 181.313427,83.5370844 C181.313427,86.9173685 179.833128,89.6576303 178.007087,89.6576303 C176.181046,89.6576303 174.700747,86.9173685 174.700747,83.5370844 C174.700747,80.1568002 176.181046,77.4165385 178.007087,77.4165385 Z M141.16501,77.4165385 C142.991051,77.4165385 144.47135,80.1568002 144.47135,83.5370844 C144.47135,86.9173685 142.991051,89.6576303 141.16501,89.6576303 C139.338969,89.6576303 137.85867,86.9173685 137.85867,83.5370844 C137.85867,80.1568002 139.338969,77.4165385 141.16501,77.4165385 Z M136.719348,68.9704427 C139.683122,68.9704427 144.328666,69.9715295 150.655978,71.9737033 L149.194693,74.9769639 C140.377786,73.8428484 135.024664,73.8428484 133.135326,74.9769639 C132.560899,70.9726164 133.755573,68.9704427 136.719348,68.9704427 Z M185.092102,67.1800726 C186.35166,69.9430234 186.35166,71.5409003 185.092102,71.9737033 C181.270092,70.9982853 176.157116,71.9236819 169.753173,74.749893 L169.244916,74.9769639 L169.244916,71.9737033 L169.422272,70.527591 L170.999795,69.8613747 C179.708843,66.7842433 184.406279,65.890476 185.092102,67.1800726 Z" id="Combined-Shape" fill="#999999"></path>
    </g>
</svg>