<svg xmlns="http://www.w3.org/2000/svg" width="32" height="32" viewBox="0 0 32 32">
  <g fill="none" fill-rule="evenodd">
    <circle cx="16" cy="16" r="16" fill="#474747"/>
    <g fill-rule="nonzero" transform="translate(6.788 5.818)">
      <path fill="#32BEA6" d="M9.21212121,0 C5.75040272,3.75745455 0,2.90909091 0,2.90909091 L0,13.0909091 C0,19.0909091 9.21212121,23.2727273 9.21212121,23.2727273 C9.21212121,23.2727273 18.4242424,19.0909091 18.4242424,13.0909091 L18.4242424,2.90909091 C18.4242424,2.90909091 12.6738397,3.75745455 9.21212121,0 Z"/>
      <path fill="#415E72" d="M6.78787879,0.0309879119 C4.25373737,2.68261633 0.0419943434,2.08483789 0.0419943434,2.08483789 L0.0419943434,9.26970955 C0.0419943434,13.5031628 6.78787879,16.4538606 6.78787879,16.4538606 C6.78787879,16.4538606 13.5341253,13.5028025 13.5341253,9.26898891 L13.5341253,2.08411724 C13.5341253,2.08411724 9.3220202,2.68261633 6.78787879,0.0309879119 Z" opacity=".15" transform="translate(1.94 2.91)"/>
      <path fill="#FFF" d="M10.6666667,11.6363636 L10.0380738,11.6363636 L10.0380738,9.00935171 C10.0383819,8.1696659 9.45169522,7.48833719 8.72788899,7.48797972 C8.00408277,7.48762226 7.41677981,8.16823604 7.41647168,9.00792185 C7.41647168,9.00827932 7.41647168,9.00899425 7.41647168,9.00935171 L7.41647168,11.6363636 L6.78787879,11.6363636 L6.78787879,9.00935171 C6.80143667,7.7668026 7.68054232,6.77233434 8.75161529,6.78806281 C9.80358398,6.80343382 10.6531088,7.78896544 10.6663585,9.00935171 L10.6666667,11.6363636 Z"/>
      <rect width="1" height="1" x=".038" y=".067" fill="#415E72" opacity=".25" transform="translate(6.788 10.667)"/>
      <rect width="1" height="1" y=".067" fill="#415E72" opacity=".25" transform="translate(10.667 10.667)"/>
      <g fill="#415E72" transform="translate(5.818 11.636)">
        <rect width="5.216" height="3.63" x=".301" y=".003"/>
        <rect width="5.817" height="1.188" x=".001" y="3.633"/>
      </g>
      <g fill="#FFF" transform="translate(7.758 12.606)">
        <ellipse cx=".5" cy=".57" rx="1" ry="1"/>
        <rect width="1" height="1.033" x=".295" y=".875"/>
      </g>
    </g>
  </g>
</svg>
