<?xml version="1.0" encoding="UTF-8"?>
<svg width="32px" height="32px" viewBox="0 0 32 32" version="1.1" xmlns="http://www.w3.org/2000/svg" xmlns:xlink="http://www.w3.org/1999/xlink">
    <!-- Generator: Sketch 57.1 (83088) - https://sketch.com -->
    <title>ZB.COM/6_User/kyc_overseas</title>
    <desc>Created with Sketch.</desc>
    <g id="ZB.COM/6_User/kyc_overseas" stroke="none" stroke-width="1" fill="none" fill-rule="evenodd">
        <path d="M16,28 C9.37261308,28 4,22.6273809 4,15.9999866 C4,9.37259232 9.37263982,4 16,4 C22.6273602,4 28,9.37261906 28,15.9999866 C28,22.6273542 22.6273869,28 16,28 Z M16,5.96947798 C10.477116,5.96947798 6,10.446594 6,15.969478 C6,21.492362 10.477116,25.969478 16,25.969478 C21.522884,25.969478 26,21.492362 26,15.969478 C26,10.446594 21.5229112,5.96947798 16,5.96947798 Z M20.8572621,21.7423739 L20.5756392,21.9114435 L19.7607599,22.4207031 L19.2805309,22.7808949 C18.9235085,22.9556108 18.5507191,23.0937056 18.1650124,23.2113725 L18.1650124,22.7263494 L18.0291016,21.6058239 C18.0291016,21.6058239 17.9612926,20.9607599 17.8593928,20.7909446 C17.7574663,20.6212358 17.519842,20.383505 17.2821378,20.2815785 C17.0445135,20.1797585 16.8748047,20.1797585 16.7390004,20.0099432 C16.603196,19.8402344 16.5012695,19.5346946 16.3314542,19.2630593 C16.1617454,18.991424 15.9580256,18.7197887 15.9580256,18.5838778 L15.9580256,17.0560192 L16.1278409,15.7657848 L16.5012695,15.4941495 L16.9426136,14.9848899 L17.2482599,14.8829634 L18.30087,15.0866832 L19.0478604,15.0866832 L19.3534002,15.7317472 L20.0663796,16.3090021 L20.5078303,17.0219815 L21.0850852,17.2257013 L21.7301491,17.2257013 L22.1715998,17.7689719 L22.4432351,18.3462269 L22.545055,18.7536665 L22.545055,19.4327415 L22.4753018,19.8340021 C22.0435192,20.5601385 21.497532,21.1984641 20.8572621,21.7423739 L20.8572621,21.7423739 Z M18.2327681,10.0275391 L17.4858842,10.4350852 L17.2142489,11.2159535 L16.7727983,11.6233931 L15.3128551,11.6233931 L14.6336737,11.8950284 L14.5997692,12.438299 L14.3281339,12.8797496 L14.2602184,13.3551048 L14.3960227,13.7624379 L14.5658381,14.169984 C14.5658381,14.169984 14.9731712,14.6452326 14.5658381,14.9848633 C14.5658381,14.9848633 14.0564719,14.9848633 13.9546786,14.8150479 C13.8527521,14.6452326 13.1057884,14.169984 12.9699574,14.0340465 C12.8341531,13.8983487 12.3928089,13.7624112 12.3928089,13.7624112 L11.8494318,13.5586914 L11.3401722,13.5247869 L11.3741832,12.8118075 L11.3401722,12.2005415 L11.1364524,11.7591974 L10.559304,11.3177468 L10.525293,10.8423917 L10.595712,10.5784801 C11.9709073,9.21055575 13.8650568,8.3638228 15.9578924,8.3638228 C17.1386097,8.3638228 18.2426225,8.65577947 19.2397283,9.13600852 L19.2174627,9.31453303 L18.2327681,10.0275391 L18.2327681,10.0275391 Z" id="Shape" fill="#CCCCCC"></path>
    </g>
</svg>