<?xml version="1.0" encoding="UTF-8"?>
<svg width="32px" height="32px" viewBox="0 0 32 32" version="1.1" xmlns="http://www.w3.org/2000/svg" xmlns:xlink="http://www.w3.org/1999/xlink">
    <!-- Generator: Sketch 57.1 (83088) - https://sketch.com -->
    <title>ZB.COM/6_User/kyc_mainland</title>
    <desc>Created with Sketch.</desc>
    <g id="ZB.COM/6_User/kyc_mainland" stroke="none" stroke-width="1" fill="none" fill-rule="evenodd">
        <path d="M14.1816896,4.14022492 C18.9860861,3.39988451 23.7618554,5.63453927 26.2741042,9.79826968 C28.7862047,13.9617544 28.5382313,19.2306536 25.646197,23.1395182 C22.7539782,27.0486321 17.7894194,28.8243298 13.0818776,27.6369975 C10.0041894,26.8811973 7.35382088,24.9306784 5.71601806,22.2162301 C4.07882943,19.5027997 3.58805641,16.2491164 4.35189093,13.1731874 C5.49665099,8.44774824 9.37841815,4.88039196 14.1816896,4.14022492 Z M24.5616657,10.8314949 C22.4682749,7.36196793 18.4891369,5.50006902 14.4862873,6.1168939 C10.4833412,6.73373365 7.24825835,9.70744068 6.29505313,13.6466099 L6.29505313,13.6466099 C5.65681611,16.2139758 6.06518228,18.9235524 7.42845654,21.1830048 C8.79165441,23.4423306 10.997497,25.065704 13.564922,25.696217 C17.4921172,26.6867141 21.6284642,25.2072469 24.0384098,21.9499719 C26.44854,18.6924474 26.6552047,14.3012677 24.5616657,10.8314949 Z M17.3413793,19 L17.1965517,20.3774194 L18.5,20.8516129 L17.1241379,21.1903226 L17.1241379,22.5 L16.3517241,21.3935484 L15,21.7096774 L15.8931034,20.6935484 L15.1448276,19.5870968 L16.4482759,20.016129 L17.3413793,19 Z M19.75,16 L20.1644737,17.2465753 L21.5,17.2465753 L20.4177632,18.1575342 L20.8322368,19.5 L19.75,18.6609589 L18.6677632,19.5 L19.0822368,18.1575342 L18,17.3424658 L19.3355263,17.3424658 L19.75,16 Z M12.5,10 L13.5668103,13.2573696 L17,13.3344671 L14.2068966,15.2619048 L15.2737069,18.5 L12.5,16.5725624 L9.70689655,18.5 L10.7737069,15.2619048 L8,13.2573696 L11.4331897,13.2573696 L12.5,10 Z M19.0100671,11 L19.9731544,11.9258065 L21.147651,11.4290323 L20.5134228,12.6032258 L21.5,13.5290323 L20.1375839,13.3258065 L19.5033557,14.5 L19.2919463,13.1 L18,12.8967742 L19.2214765,12.3096774 L19.0100671,11 Z M18.3333333,8 L18.2142857,9.33552632 L19.5,9.84210526 L18.0952381,10.1644737 L18.0952381,11.5 L17.3571429,10.3717105 L16,10.6940789 L16.9047619,9.68092105 L16.1428571,8.52960526 L17.452381,9.03618421 L18.3333333,8 Z" id="Combined-Shape" fill="#CCCCCC"></path>
    </g>
</svg>