<svg xmlns="http://www.w3.org/2000/svg" width="32" height="32" viewBox="0 0 32 32">
  <g fill="none" transform="translate(3.368)">
    <path fill="#00CC71" d="M25.2631579,1.93330872 L25.2631579,30.0666913 C25.2631579,31.1328142 24.3979983,32 23.33499,32 L1.92879139,32 C0.865159557,32 0,31.1328142 0,30.0666913 L0,1.93330872 C0,0.867185806 0.865159557,0 1.92879139,0 L23.33499,0 C24.3979983,0 25.2631579,0.867185806 25.2631579,1.93330872 Z"/>
    <path fill="#00AB94" d="M25.2631579,1.93330872 L25.2631579,30.0666913 C25.2631579,31.1328142 24.3980197,32 23.3350376,32 L12.6315789,32 L12.6315789,0 L23.3350376,0 C24.3980197,0 25.2631579,0.867185806 25.2631579,1.93330872 Z"/>
    <path fill="#51FAFF" d="M25.2631579,18.5263158 L25.2631579,30.0242923 C25.2631579,31.1137961 24.3979983,32 23.33499,32 L1.92879139,32 C0.865159557,32 0,31.1137961 0,30.0242923 L0,18.5263158 L25.2631579,18.5263158 Z"/>
    <path fill="#00E7F0" d="M25.2631579,18.5263158 L25.2631579,30.0242923 C25.2631579,31.1137961 24.3980197,32 23.3350376,32 L12.6315789,32 L12.6315789,18.5263158 L25.2631579,18.5263158 Z"/>
    <path fill="#7C75DA" d="M6.03076923 1.96323518L.985522267 1.96323518C.448323887 1.96323518.0128259109 1.53324983.0128259109 1.00285143.0128259109.472453031.448323887.0424676882.985522267.0424676882L6.03076923.0424676882C6.56796761.0424676882 7.00346559.472453031 7.00346559 1.00285143 7.00346559 1.53324983 6.56796761 1.96323518 6.03076923 1.96323518zM10.9158219 4.05956562C10.9158219 4.59034777 10.4807126 5.01994937 9.94312551 5.01994937L.985392713 5.01994937C.448453441 5.01994937.0126963563 4.59034777.0126963563 4.05956562.0126963563 3.52942305.448453441 3.09918188.985392713 3.09918188L9.94319028 3.09918188C10.4807126 3.09918188 10.9158219 3.52942305 10.9158219 4.05956562z" transform="translate(3.368 23.579)"/>
    <path fill="#615AD3" d="M19.2722572,26.9473684 L16.9382691,26.9473684 C16.4200841,26.9473684 16,26.570339 16,26.1052632 C16,25.6401873 16.4200841,25.2631579 16.9382691,25.2631579 L19.2722572,25.2631579 C19.7904422,25.2631579 20.2105263,25.6401873 20.2105263,26.1052632 C20.2105263,26.570339 19.7904422,26.9473684 19.2722572,26.9473684 Z"/>
    <path fill="#FFF" d="M.0169411765 10.6035801C.0169411765 10.5720353.0265708978 10.5145536.0463653251 10.4303067L2.77900681.822459175C2.85723344.560159317 3.03609659.357826458 3.31523963.216097866 3.59444211.0743692745 3.91507616.00344125178 4.27755789.00344125178 4.63974241.00344125178 4.96067368.0743055477 5.23987616.216097866 5.51895975.357826458 5.69758514.560159317 5.77616842.822459175L8.52349226 10.4303067C8.54298947 10.5144262 8.55291641 10.5720353 8.55291641 10.6035801 8.55291641 10.8767772 8.39360991 11.1129491 8.07547245 11.3123505 7.75703777 11.5118794 7.42653622 11.6116119 7.08378947 11.6116119 6.66257833 11.6116119 6.4128 11.4594959 6.33451393 11.1548176L5.83495728 9.18597553 2.73495975 9.18597553 2.2354031 11.1548176C2.1569387 11.4594959 1.90710093 11.6116119 1.486187 11.6116119 1.14320248 11.6116119.812641486 11.5118794.494444582 11.3123505.17606935 11.1129491.0169411765 10.8767135.0169411765 10.6035801zM3.2051517 7.29589986L5.35014241 7.29589986 4.27767678 3.07475846 3.2051517 7.29589986zM8.87592817 9.58688137C8.87592817 8.74740711 9.17207183 8.15576671 9.76483467 7.81176899 10.3572409 7.46796245 11.2069152 7.29589986 12.3137981 7.29589986L12.8427195 7.29589986 12.8427195 7.13103841C12.8427195 6.8010606 12.7545659 6.51505434 12.5782588 6.27289218 12.4019517 6.03098492 12.1228681 5.90990384 11.7408297 5.90990384 11.2707567 5.90990384 10.8837251 6.00708734 10.5801511 6.20126316 10.2764582 6.39569388 10.0902836 6.49262248 10.021865 6.49262248 9.78682848 6.49262248 9.60065387 6.36931095 9.46357895 6.12249673 9.32626625 5.87587368 9.25784768 5.59483812 9.25784768 5.27983613 9.25784768 4.93328933 9.52961981 4.63670441 10.0732235 4.38989018 10.6168272 4.14326714 11.1824842 4.01976444 11.770135 4.01976444 12.8963368 4.01976444 13.736322 4.31386401 14.2897932 4.90180825 14.8430266 5.4900074 15.1198514 6.22484211 15.1198514 7.10688592L15.1198514 10.8554925C15.1198514 11.0656 15.0144594 11.2440353 14.8039728 11.3910532 14.5931889 11.5381986 14.3265288 11.6116119 14.0032793 11.6116119 13.7190836 11.6116119 13.4791728 11.5331642 13.2833684 11.3760774 13.0873263 11.2190543 12.989543 11.0285747 12.989543 10.8044472L12.989543 10.4343215C12.3137387 11.3242674 11.569278 11.7691448 10.7563988 11.7691448 10.2176099 11.7691448 9.76953065 11.5833172 9.41210155 11.2112797 9.05455356 10.8393696 8.87592817 10.2979459 8.87592817 9.58688137zM11.1678613 9.26576159C11.1678613 9.67476074 11.3588508 9.87900541 11.7408297 9.87900541 11.985496 9.87900541 12.2305189 9.74294851 12.4754229 9.47019744 12.7200892 9.1975101 12.8427789 8.88594936 12.8427789 8.53551522L12.8427789 8.47720512 12.7840495 8.47720512C12.4607406 8.47720512 12.1938427 8.49192603 11.983356 8.52104922 11.7725721 8.55029986 11.5841387 8.62594367 11.4176991 8.74747084 11.2509622 8.86906174 11.1678613 9.04182532 11.1678613 9.26576159z" transform="translate(5.053 5.053)"/>
    <path fill="#615AD3" d="M14.3157895,26.1052632 C14.3157895,26.5706755 13.85112,26.9473684 13.2770108,26.9473684 L11.7894737,26.9473684 L11.7894737,25.2631579 L13.2770108,25.2631579 C13.85112,25.2631579 14.3157895,25.6404116 14.3157895,26.1052632 Z"/>
  </g>
</svg>
