<svg xmlns="http://www.w3.org/2000/svg" width="32" height="32" viewBox="0 0 32 32">
  <g fill="none">
    <circle cx="16" cy="16" r="16" fill="#474747"/>
    <path fill="#000" d="M32,18.6038605 L25.4291705,12.0240455 L25.4110024,11.9997881 L25.3867781,11.9755307 C25.3443857,11.9330803 25.283825,11.8966942 25.2232644,11.8845655 L20.0574418,10.489766 C19.8515356,10.4351869 19.6456294,10.5564738 19.5911248,10.7565972 L19.3670505,11.5813482 L15.7879166,7.99731997 L15.7818606,7.98519127 L15.7758045,7.99125562 C15.7394681,7.95486955 15.6728514,7.9488052 15.6244029,7.98519127 C15.5577862,8.02764169 15.4972256,8.06402777 15.4245528,8.10041384 C15.2913194,8.1610573 15.1278057,8.17925033 14.9945723,8.13073557 C14.7704979,8.05796342 14.6251523,7.8153896 14.3950219,7.76687483 C14.2072839,7.72442441 14.0134899,7.83358263 13.8742004,7.96699824 C13.7349109,8.10041384 13.6198457,8.26415117 13.4623881,8.37937374 C13.2746501,8.51278934 13.0384636,8.56736846 12.8022771,8.56130411 C12.699324,8.55523976 12.5903148,8.53704673 12.5055299,8.47640327 C12.3904647,8.39756678 12.3420162,8.24595814 12.2330071,8.16712164 C12.0452691,8.02764169 11.7848583,8.11860688 11.5850082,8.23382945 C11.3851581,8.34905201 11.1731959,8.49459631 10.9430654,8.45214589 C10.8401123,8.43395285 10.7613835,8.37937374 10.6826547,8.31266594 C10.5918137,8.2277651 10.4464682,8.30053725 10.4706924,8.42788851 C10.5857577,9.05251611 10.9188412,9.65895067 10.9127851,10.3017713 L10.9248972,10.3078357 C10.9309533,10.3988008 10.9370094,10.4958304 10.9430654,10.5928599 C10.9551776,10.7565972 10.9551776,10.9203346 10.9491215,11.0901362 C10.9309533,11.4903831 10.8522245,11.8845655 10.712935,12.2666193 C10.5857577,12.6001583 10.4161879,12.9215686 10.1981696,13.2247859 C8.726546,15.2563417 7.75757576,17.9489112 7.75757576,19.2709385 C7.75757576,20.156333 8.1875563,21.0295987 8.91428398,21.7451915 L12.6387634,25.4747641 L12.6387634,25.5596649 L19.0642473,32 C25.8288708,30.9144821 31.1400389,25.4565711 32,18.6038605 Z" opacity=".1"/>
    <path fill="#3A556A" d="M23.9615357,11.2912094 L18.8863711,9.71179431 C18.6897979,9.64999111 18.4813111,9.78733156 18.4277002,10.0139433 L16.497708,18.2337689 C16.4440971,18.4603806 16.5632325,18.7007264 16.7598057,18.7625296 L21.840927,20.3488117 C22.0375003,20.4106149 22.2459871,20.2732745 22.299598,20.0466628 L24.2295901,11.8199701 C24.283201,11.5933584 24.1640657,11.3598796 23.9615357,11.2912094 Z"/>
    <path fill="#64798A" d="M25.9044455,11.2980764 L20.8249817,9.71179431 C20.6284725,9.64999111 20.4200537,9.78733156 20.3664603,10.0139433 L18.4370978,18.2337689 C18.3835044,18.4603806 18.5026008,18.7007264 18.69911,18.7625296 L23.7785738,20.3488117 C23.9750829,20.4106149 24.1835017,20.2732745 24.2370951,20.0466628 L26.1664577,11.8268372 C26.2260059,11.6002254 26.1069095,11.3598796 25.9044455,11.2980764 Z"/>
    <polygon fill="#44C4A1" points="19.289 10.794 24.345 10.794 24.345 12.869 19.289 12.869" transform="rotate(-164.864 21.817 11.832)"/>
    <polygon fill="#3EA69B" points="19.051 12.549 24.107 12.549 24.107 12.837 19.051 12.837" transform="rotate(-164.864 21.579 12.693)"/>
    <polygon fill="#FCD462" points="18.646 12.868 20.977 12.868 20.977 15.2 18.646 15.2" transform="rotate(105.136 19.811 14.034)"/>
    <polygon fill="#27A2DB" points="21.277 13.578 23.608 13.578 23.608 15.909 21.277 15.909" transform="rotate(105.136 22.442 14.743)"/>
    <polygon fill="#F6C358" points="19.386 13.836 19.711 13.836 19.711 16.167 19.386 16.167" transform="rotate(105.136 19.549 15.001)"/>
    <polygon fill="#2D93BA" points="22.017 14.551 22.342 14.551 22.342 16.882 22.017 16.882" transform="rotate(105.136 22.18 15.716)"/>
    <polygon fill="#E56353" points="17.936 15.5 20.267 15.5 20.267 17.831 17.936 17.831" transform="rotate(105.136 19.101 16.666)"/>
    <polygon fill="#EBF0F3" points="20.562 16.207 22.893 16.207 22.893 18.538 20.562 18.538" transform="rotate(105.136 21.727 17.373)"/>
    <polygon fill="#D15241" points="18.675 16.462 19 16.462 19 18.794 18.675 18.794" transform="rotate(105.136 18.837 17.628)"/>
    <g fill="#DC8744" transform="rotate(-74.863 18.967 -5.062)">
      <rect width="1" height="1.387" x=".655" y=".045"/>
      <rect width="1.387" height="1" x=".062" y=".639"/>
    </g>
    <g fill="#FFF" transform="rotate(-29.863 39.773 -25.814)">
      <rect width="1" height="1.388" x=".593" y=".032"/>
      <rect width="1.388" height="1" x=".005" y=".632"/>
    </g>
    <g fill="#64798A" transform="translate(20.364 16.485)">
      <polygon points="1.447 .255 1.69 .246 1.622 1.754 1.378 1.764" transform="rotate(105.136 1.534 1.005)"/>
      <polygon points="1.242 1.155 1.485 1.145 1.417 2.654 1.174 2.664" transform="rotate(105.136 1.33 1.905)"/>
    </g>
    <polygon fill="#FFF" points="22.344 14.047 22.537 14.047 22.537 15.434 22.344 15.434" transform="rotate(105.136 22.44 14.74)"/>
    <polygon fill="#E1E6E9" points="21.304 17.176 21.629 17.176 21.629 19.508 21.304 19.508" transform="rotate(105.136 21.466 18.342)"/>
    <path fill="#FCD462" d="M15.9776262,11.5724474 C15.400887,10.7332197 15.1519786,9.75945938 15.2248298,8.79210534 C15.2794683,8.0361598 15.5101639,7.28021426 15.7408596,6.56270663 C15.7833562,6.43458026 15.8137108,6.30004758 15.8197818,6.1655149 C15.8258527,6.05660749 15.704434,5.99254431 15.6194408,6.05020117 C15.5526605,6.0950454 15.4919511,6.13988963 15.4190999,6.17192122 C15.2794683,6.2359844 15.1276948,6.26160967 14.9819923,6.21035913 C14.7573676,6.12707699 14.6116651,5.87723058 14.3809694,5.82598004 C14.1927703,5.78754213 13.9985003,5.89644954 13.8588687,6.03738854 C13.7192371,6.17832754 13.6038893,6.35129813 13.4460449,6.46661185 C13.2578458,6.60755085 13.0210792,6.67161403 12.7843126,6.6588014 C12.6811067,6.65239508 12.5718298,6.63317612 12.4868367,6.56911294 C12.3775598,6.47942449 12.3229213,6.32567285 12.2136445,6.2359844 C12.0254454,6.08863908 11.764395,6.18473385 11.5640541,6.3064539 C11.3637131,6.42817394 11.1512303,6.58192558 10.9205346,6.53708135 C10.8173286,6.5178624 10.7384064,6.46020554 10.6655552,6.38973604 C10.5744911,6.30004758 10.4287886,6.3769234 10.4530724,6.51145608 C10.5684202,7.17130685 10.9023218,7.81193866 10.8962508,8.49100839 L10.9083927,8.4974147 C10.9144637,8.59991579 10.9205346,8.69601057 10.9266055,8.79851166 C10.9933859,9.77227202 10.7444774,10.7396261 10.1738092,11.5788537 C8.69250025,13.718564 7.75757576,16.5629692 7.75757576,17.9595466 C7.75757576,20.1569137 10.1130998,22.3030303 13.0696467,22.3030303 C16.0261937,22.3030303 18.4242424,20.1441011 18.4242424,17.9531403 C18.4302852,16.5565629 17.4528642,13.718564 15.9776262,11.5724474 Z"/>
    <path fill="#DC8744" d="M9.64419707 1.33333333C7.96206968-.143589744 4.94743352.0683760684 4.94743352.0683760684L4.70336013.0683760684.277056277.0683760684C.257266543.51965812.171511029.964102564.0131931561 1.39487179L4.70336013 1.39487179 5.21129664 1.39487179C7.54648526 1.31282051 9.03071532 2.36581197 9.03071532 2.36581197L8.60193774 1.46324786 9.64419707 1.33333333zM2.4605236 10.6529915L2.4605236 10.1401709C1.84044527 10.0717949 1.27973614 9.81880342.784992785 9.37435897L1.27973614 8.75897436C1.66233766 9.1008547 2.05153577 9.30598291 2.4605236 9.37435897L2.4605236 8.00683761C1.94599052 7.87692308 1.56998557 7.71282051 1.33250876 7.50769231 1.09503195 7.3025641.976293548 6.99487179.976293548 6.58461538.976293548 6.18119658 1.11482169 5.84615385 1.38528139 5.58632479 1.66233766 5.32649573 2.01855288 5.18974359 2.4605236 5.16239316L2.4605236 4.80683761 2.89589775 4.80683761 2.89589775 5.16923077C3.39723768 5.21025641 3.86559472 5.38119658 4.31416203 5.6957265L3.8721913 6.34529915C3.57534529 6.12649573 3.24551639 5.98974359 2.89589775 5.93504274L2.89589775 7.26153846 2.91568749 7.26153846C3.43681715 7.39145299 3.81941868 7.56239316 4.06349206 7.77435897 4.30756545 7.99316239 4.43290043 8.30769231 4.43290043 8.71794872 4.43290043 9.12820513 4.29437229 9.46324786 4.01071944 9.72307692 3.72706658 9.98290598 3.35765821 10.1196581 2.89589775 10.1470085L2.89589775 10.6529915 2.4605236 10.6529915zM1.97897341 6.0991453C1.860235 6.2017094 1.80746238 6.33846154 1.80746238 6.4957265 1.80746238 6.65299145 1.85363843 6.77606838 1.94599052 6.87179487 2.03834261 6.96068376 2.20985364 7.04957265 2.4605236 7.13846154L2.4605236 5.92136752C2.25602968 5.92820513 2.09771181 5.98974359 1.97897341 6.0991453zM3.41043084 9.18974359C3.53576582 9.08034188 3.6017316 8.94358974 3.6017316 8.77948718 3.6017316 8.61538462 3.54895898 8.48547009 3.45001031 8.38974359 3.35106164 8.29401709 3.16635745 8.20512821 2.88930118 8.11623932L2.88930118 9.38803419C3.11358483 9.36752137 3.28509586 9.2991453 3.41043084 9.18974359z" transform="translate(9.697 9.697)"/>
    <rect width="8.727" height="1" x="11.636" y="24.242" fill="#31978C"/>
    <rect width="8.727" height="3.879" x="11.636" y="20.364" fill="#3EA69B"/>
    <path fill="#44C4A1" d="M20.0598759,21.3333333 L12.9098211,21.3333333 C12.9098211,21.5242186 12.7754655,21.6769267 12.6060606,21.6769267 L12.6060606,24.8685278 C12.7754655,24.8685278 12.9098211,25.021236 12.9098211,25.2121212 L20.0598759,25.2121212 C20.0598759,25.021236 20.1942315,24.8685278 20.3636364,24.8685278 L20.3636364,21.6769267 C20.1942315,21.6769267 20.0598759,21.5242186 20.0598759,21.3333333 Z"/>
    <g fill="#3EA69B" transform="translate(11.636 21.333)">
      <ellipse cx="3.879" cy="1.455" rx="1.046" ry="1.425"/>
      <ellipse cx="7.461" cy="1.455" rx="1" ry="1"/>
      <ellipse cx=".304" cy="1.455" rx="1" ry="1"/>
    </g>
    <rect width="8.727" height="1" x="11.636" y="23.273" fill="#31978C"/>
    <rect width="8.727" height="3.879" x="11.636" y="19.394" fill="#3EA69B"/>
    <path fill="#44C4A1" d="M20.0598759,19.3939394 L12.9098211,19.3939394 C12.9098211,19.5848246 12.7754655,19.7375328 12.6060606,19.7375328 L12.6060606,22.9291339 C12.7754655,22.9291339 12.9098211,23.081842 12.9098211,23.2727273 L20.0598759,23.2727273 C20.0598759,23.081842 20.1942315,22.9291339 20.3636364,22.9291339 L20.3636364,19.7375328 C20.1942315,19.7375328 20.0598759,19.5848246 20.0598759,19.3939394 Z"/>
    <g fill="#3EA69B" transform="translate(11.636 20.364)">
      <ellipse cx="3.879" cy="1.455" rx="1.046" ry="1.425"/>
      <ellipse cx="7.461" cy="1.455" rx="1" ry="1"/>
      <ellipse cx=".304" cy="1.455" rx="1" ry="1"/>
    </g>
    <rect width="8.727" height="1" x="11.636" y="22.303" fill="#31978C"/>
    <rect width="8.727" height="3.879" x="11.636" y="18.424" fill="#3EA69B"/>
    <path fill="#44C4A1" d="M20.0598759,18.4242424 L12.9098211,18.4242424 C12.9098211,18.6151277 12.7754655,18.7678358 12.6060606,18.7678358 L12.6060606,21.9594369 C12.7754655,21.9594369 12.9098211,22.1121451 12.9098211,22.3030303 L20.0598759,22.3030303 C20.0598759,22.1121451 20.1942315,21.9594369 20.3636364,21.9594369 L20.3636364,18.7678358 C20.1942315,18.7678358 20.0598759,18.6151277 20.0598759,18.4242424 Z"/>
    <g fill="#3EA69B" transform="translate(11.636 19.394)">
      <ellipse cx="3.879" cy="1.462" rx="1.046" ry="1.425"/>
      <ellipse cx="7.461" cy="1.462" rx="1" ry="1"/>
      <ellipse cx=".304" cy="1.462" rx="1" ry="1"/>
    </g>
    <rect width="8.727" height="1" x="11.636" y="21.333" fill="#31978C"/>
    <rect width="8.727" height="3.879" x="11.636" y="18.424" fill="#3EA69B"/>
    <path fill="#44C4A1" d="M20.0598759,18.4242424 L12.9098211,18.4242424 C12.9098211,18.6151277 12.7754655,18.7678358 12.6060606,18.7678358 L12.6060606,21.9594369 C12.7754655,21.9594369 12.9098211,22.1121451 12.9098211,22.3030303 L20.0598759,22.3030303 C20.0598759,22.1121451 20.1942315,21.9594369 20.3636364,21.9594369 L20.3636364,18.7678358 C20.1942315,18.7678358 20.0598759,18.6151277 20.0598759,18.4242424 Z"/>
    <g fill="#3EA69B" transform="translate(11.636 19.394)">
      <ellipse cx="3.879" cy="1.462" rx="1.046" ry="1.425"/>
      <ellipse cx="7.461" cy="1.462" rx="1" ry="1"/>
      <ellipse cx=".304" cy="1.462" rx="1" ry="1"/>
    </g>
    <rect width="8.727" height="1" x="11.636" y="21.333" fill="#31978C"/>
    <rect width="8.727" height="3.879" x="11.636" y="18.424" fill="#3EA69B"/>
    <path fill="#44C4A1" d="M20.0598759,17.4545455 L12.9098211,17.4545455 C12.9098211,17.6454307 12.7754655,17.7981389 12.6060606,17.7981389 L12.6060606,20.9897399 C12.7754655,20.9897399 12.9098211,21.1424481 12.9098211,21.3333333 L20.0598759,21.3333333 C20.0598759,21.1424481 20.1942315,20.9897399 20.3636364,20.9897399 L20.3636364,17.7981389 C20.1942315,17.7981389 20.0598759,17.6377953 20.0598759,17.4545455 Z"/>
    <g fill="#3EA69B" transform="translate(11.636 18.424)">
      <ellipse cx="3.879" cy="1.469" rx="1.046" ry="1.425"/>
      <ellipse cx="7.461" cy="1.469" rx="1" ry="1"/>
      <ellipse cx=".304" cy="1.469" rx="1" ry="1"/>
    </g>
    <rect width="1" height="3.879" x="16.485" y="21.333" fill="#FFF"/>
    <g fill="#FCD462" transform="translate(16.485 21.333)">
      <rect width="1" height="3.827" y=".035"/>
      <rect width="1" height="3.827" x=".877" y=".035"/>
    </g>
  </g>
</svg>
