<svg xmlns="http://www.w3.org/2000/svg" width="32" height="32" viewBox="0 0 32 32">
  <g fill="none" transform="translate(4.308)">
    <path fill="#E21717" d="M11.6923393,19.7169708 L0,16 L0,27.9307624 C0,28.1559896 0.146514367,28.3554102 0.362337169,28.4240395 L11.5335048,31.9753707 C11.6368041,32.0082098 11.7477481,32.0082098 11.8510474,31.9753707 L23.0222782,28.4240395 C23.2381642,28.3554102 23.3846154,28.1559896 23.3846154,27.9307624 L23.3846154,16 L11.6923393,19.7169708 Z"/>
    <path fill="#FEC007" d="M17.2307692,5.96104144 C17.2307692,2.59169076 14.4892498,-0.124732851 11.1566648,0.00442255801 C8.02673261,0.125712942 5.53032182,2.78311636 5.53846154,5.97690149 C5.54523871,8.62565988 7.24640104,10.867907 9.59498167,11.6371844 L10.9347602,13.8952266 C11.1393255,14.2400527 11.6299252,14.2400527 11.8344906,13.8952266 L13.174269,11.6371844 C15.5275032,10.866347 17.2307692,8.61668985 17.2307692,5.96104144 Z"/>
    <circle cx="12.615" cy="4.615" r="2.154" fill="#E5E4D3"/>
    <path fill="#FB4239" d="M14.0334708,3.19734611 C13.0523962,2.21633066 11.4560849,2.21620783 10.4750103,3.19734611 C9.60883958,4.06358017 9.50799923,5.40920616 10.1714452,6.38770367 L8.13910072,8.42011417 C7.95363309,8.60558222 7.95363309,8.90626155 8.13910072,9.09166819 C8.23183454,9.18440222 8.35343252,9.23076923 8.47490768,9.23076923 C8.59638284,9.23076923 8.71798082,9.18440222 8.81071464,9.09166819 L10.8430591,7.05931911 C11.2674852,7.34710165 11.7607554,7.49148423 12.2542099,7.49148423 C12.8985563,7.49148423 13.5429642,7.24619966 14.0334708,6.75569194 C15.0144841,5.77467649 15.0144841,4.17836156 14.0334708,3.19734611 Z M13.3618569,6.0840765 C12.7511648,6.69476998 11.7573163,6.69483139 11.1466856,6.0840765 C10.5359321,5.47332161 10.5359321,4.47959361 11.1466856,3.86890013 C11.4520316,3.56355339 11.8531207,3.41081861 12.2542713,3.41081861 C12.6554218,3.41081861 13.0565723,3.56349198 13.3619184,3.86890013 C13.972549,4.47965503 13.972549,5.47338302 13.3618569,6.0840765 Z"/>
    <path fill="#C1BFA4" d="M11.6923077,30.1538462 L0,26.3980147 L0,14.6775212 C0,14.3229892 0.343634967,14.0711116 0.679877897,14.1790954 L11.6923077,17.7165483 L11.6923077,30.1538462 Z"/>
    <path fill="#A09D80" d="M1.33404882,25.0411951 L1.33404882,14.387 L0.678365247,14.1786117 C0.342436401,14.0718483 0,14.3236271 0,14.677475 L0,26.3986057 L11.6923077,30.1538462 L11.6923077,28.3724906 L1.33404882,25.0411951 Z"/>
    <path fill="#E5E4D3" d="M11.6923077,27.0769231 L1.84615385,23.7493119 L1.84615385,13.4468074 C1.84615385,13.0922378 2.17280151,12.8403336 2.49242255,12.9483288 L11.6923077,16.0575383 L11.6923077,27.0769231 Z"/>
    <path fill="#C1BFA4" d="M4.84603884 4.704C4.7985029 4.704 4.75015385 4.69685375 4.70224262 4.68180237L.380099874 3.32262451C.12503203 3.24243478-.0173881463 2.96834783.0618592686 2.71045059.141231778 2.4526166.411998991 2.30849012.667379571 2.38874308L4.98952232 3.74792095C5.24459016 3.82811067 5.38701034 4.10219763 5.30776293 4.36009486 5.24327667 4.56961265 5.0521947 4.704 4.84603884 4.704zM4.84603884 6.43667984C4.7985029 6.43667984 4.75015385 6.4295336 4.70224262 6.41448221L.380099874 5.05530435C.12503203 4.97511462-.0173881463 4.70102767.0618592686 4.44313043.141231778 4.18529644.411998991 4.0412332.667379571 4.12142292L4.98952232 5.48060079C5.24459016 5.56079051 5.38701034 5.83487747 5.30776293 6.0927747 5.24327667 6.30235573 5.0521947 6.43667984 4.84603884 6.43667984zM4.84603884 8.16942292C4.7985029 8.16942292 4.75015385 8.16227668 4.70224262 8.1472253L.380099874 6.78804743C.12503203 6.70785771-.0173881463 6.43377075.0618592686 6.17587352.141231778 5.91803953.411998991 5.77403953.667379571 5.85416601L4.98952232 7.21334387C5.24459016 7.2935336 5.38701034 7.56762055 5.30776293 7.82551779 5.24327667 8.03503557 5.0521947 8.16942292 4.84603884 8.16942292zM7.44312736 15.9988617L19.0183788 12.2551146 19.0183788.572332016C19.0183788.218940711 18.6781841-.0321264822 18.3453074.0755098814L7.44312736 3.60158103 7.44312736 15.9988617z" transform="translate(4.308 14.154)"/>
    <path fill="#A09D80" d="M22.0505666,25.1175428 L22.0505666,14.3892269 L22.7047338,14.1790955 C23.0409786,14.0711112 23.3846154,14.3229898 23.3846154,14.6775233 L23.3846154,26.3980632 L11.6923077,30.1538462 L11.6923077,28.3722332 L22.0505666,25.1175428 Z"/>
    <g fill="#E5E4D3" transform="translate(11.692 12.923)">
      <path d="M0,14.1072775 L9.84303189,10.7935082 L9.84303189,0.534118132 C9.84303189,0.18103022 9.5164878,-0.0698214286 9.19696811,0.0377225275 L0,3.13393956 L0,14.1072775 Z"/>
      <path d="M8.36658912,9.30438462 L8.36658912,0.317260989 L9.19696811,0.0377225275 C9.5164878,-0.0698214286 9.84303189,0.18103022 9.84303189,0.534118132 L9.84303189,10.7935714 L0,14.1072775 L0,12.1210632 L8.36658912,9.30438462 Z"/>
    </g>
    <path fill="#FEC007" d="M16.02917,19.6681063 L17.502643,19.1894969 C17.707312,19.1230183 17.8461538,18.9298473 17.8461538,18.7116783 L17.8461538,17.1174086 C17.8461538,16.7775345 17.5203726,16.5360706 17.2015993,16.6395899 L15.7281263,17.1181993 C15.5234573,17.1846778 15.3846154,17.3778489 15.3846154,17.5960179 L15.3846154,19.1902876 C15.3846154,19.5301009 15.7103967,19.7716256 16.02917,19.6681063 Z"/>
  </g>
</svg>
