<?xml version="1.0" encoding="UTF-8"?>
<svg width="60px" height="60px" viewBox="0 0 60 60" version="1.1" xmlns="http://www.w3.org/2000/svg" xmlns:xlink="http://www.w3.org/1999/xlink">
    <!-- Generator: Sketch 57.1 (83088) - https://sketch.com -->
    <title>ZB.COM/6_User/kyc_camera@2x</title>
    <desc>Created with Sketch.</desc>
    <g id="ZB.COM/6_User/kyc_camera" stroke="none" stroke-width="1" fill="none" fill-rule="evenodd">
        <circle id="椭圆形" fill="#999999" opacity="0.7" cx="30" cy="30" r="30"></circle>
        <path d="M34.4279652,17 C34.8568238,17 35.2570918,17.2101883 35.492964,17.5605021 L35.492964,17.5605021 L37.2941702,20.2088746 C37.5300424,20.5591884 37.9303105,20.7693767 38.3591691,20.7693767 L38.3591691,20.7693767 L42.5655573,20.7693767 C44.4632566,20.7693767 46,22.2792293 46,24.1358926 L46,24.1358926 L46,38.6334842 C46,40.4901474 44.4632566,42 42.5655573,42 L42.5655573,42 L17.4344427,42 C15.5403172,42 14,40.4936506 14,38.6334842 L14,38.6334842 L14,24.1358926 C14,22.2792293 15.5367434,20.7693767 17.4344427,20.7693767 L17.4344427,20.7693767 L21.6336833,20.7693767 C22.0625419,20.7693767 22.4628099,20.5591884 22.6986822,20.2088746 L22.6986822,20.2088746 L24.4963145,17.5605021 C24.7321867,17.2101883 25.1324548,17 25.5613134,17 L25.5613134,17 Z M30,24.0868486 C25.9401385,24.0868486 22.6379272,27.3272515 22.6379272,31.3033134 C22.6379272,35.2863816 25.9437123,38.5197781 30,38.5197781 C34.0562877,38.5197781 37.3620728,35.2828784 37.3620728,31.3033134 C37.3620728,27.3237484 34.0562877,24.0868486 30,24.0868486 Z M30,25.6597577 C33.1842752,25.6597577 35.7610007,28.1890235 35.7610007,31.3068165 C35.7610007,34.4281127 33.1842752,36.9538753 30,36.9538753 C26.8192986,36.9538753 24.2389993,34.4281127 24.2389993,31.3068165 C24.2389993,28.1890235 26.8192986,25.6597577 30,25.6597577 Z M39.4384633,23.0359072 L39.4205941,23.0359072 C38.8559303,23.0359072 38.3984811,23.4843089 38.3984811,24.0378047 L38.3984811,24.0378047 L38.3984811,24.0553204 C38.3984811,24.6088162 38.8559303,25.0572179 39.4205941,25.0572179 L39.4205941,25.0572179 L39.4384633,25.0572179 C40.0031271,25.0537148 40.4605763,24.6088162 40.4605763,24.0553204 L40.4605763,24.0553204 L40.4605763,24.0378047 C40.4605763,23.4843089 40.0031271,23.0359072 39.4384633,23.0359072 L39.4384633,23.0359072 Z" id="形状结合" fill="#FFFFFF" fill-rule="nonzero"></path>
    </g>
</svg>