<?xml version="1.0" encoding="UTF-8"?>
<svg width="32px" height="32px" viewBox="0 0 32 32" version="1.1" xmlns="http://www.w3.org/2000/svg" xmlns:xlink="http://www.w3.org/1999/xlink">
    <!-- Generator: Sketch 57.1 (83088) - https://sketch.com -->
    <title>ZB.COM/6_User/kyc_video</title>
    <desc>Created with Sketch.</desc>
    <g id="ZB.COM/6_User/kyc_video" stroke="none" stroke-width="1" fill="none" fill-rule="evenodd">
        <path d="M20,17.5772056 L20,14.4221776 C20,13.869906 20.1747847,13.2704222 20.520102,12.9034665 L23.898102,9.34859703 C24.5824528,8.62882122 25.3569785,8.13631088 26.0716324,8.02471268 C27.1832882,7.85111988 28,8.607974 28,9.79480325 L28,22.2064922 C28,23.3925328 27.1832647,24.1488724 26.0721379,23.9759445 C25.3571923,23.8646754 24.5823957,23.3724141 23.8979075,22.6524937 L20.5211172,19.0988956 C20.1750629,18.7357945 20,18.133432 20,17.5772056 Z M22,14.4221776 L22,17.5772056 C22,17.6670764 22.035384,17.7888268 21.9699229,17.7201426 L25.3475339,21.2746028 C25.5749209,21.5137604 25.804843,21.7016854 26,21.8267334 L26,10.1742901 C25.8048622,10.2994726 25.5750083,10.487443 25.3477284,10.7264879 L21.9746813,14.2761279 C22.0348445,14.2134518 22,14.3336364 22,14.4221776 Z M19,21.0858539 C19,22.6442571 17.974601,24.000253 16.5523385,24.000253 L6.44766147,24.000253 C5.02539903,24.000253 4,22.6442571 4,21.0858539 L4,10.914652 C4,9.35624877 5.02539903,8.00025296 6.44766147,8.00025296 L16.5523385,8.00025296 C17.974601,8.00025296 19,9.35624877 19,10.914652 L19,21.0858539 Z M17,21.0858539 L17,10.914652 C17,10.3584684 16.7291188,10.000253 16.5523385,10.000253 L6.44766147,10.000253 C6.2708812,10.000253 6,10.3584684 6,10.914652 L6,21.0858539 C6,21.6420375 6.2708812,22.000253 6.44766147,22.000253 L16.5523385,22.000253 C16.7291188,22.000253 17,21.6420375 17,21.0858539 Z" id="Shape" fill="#CCCCCC" fill-rule="nonzero"></path>
    </g>
</svg>