<svg xmlns="http://www.w3.org/2000/svg" width="21" height="21" viewBox="0 0 21 21">
  <path fill="#E91C41" d="M4.84899268,20.5364113 C0.83616852,20.5364113 -0.347036142,15.8501085 0.83616852,13.5325962 C2.01937318,11.2153011 4.70529769,8.53058498 6.66666947,6.76931036 C8.45026737,5.19011674 11.0224514,3.64503605 14.2636203,6.88946648 C14.4131761,7.01201259 14.5850892,7.1625879 14.7669871,7.32685173 L12.3799568,9.80167518 C12.349134,9.77581871 12.3104971,9.73692547 12.2820619,9.71476291 C10.8327394,8.26398203 10.0838756,8.25007601 8.63194825,9.70368171 C7.54707268,10.7805232 5.42203627,13.0786975 4.49930592,14.1850892 C3.60284006,15.259975 3.10251233,17.564016 7.13139906,17.564016 L13.4861045,17.564016 C16.1698583,17.564016 17.556233,16.1590812 16.1505399,14.1850892 C16.0554667,14.0649331 15.9491064,13.9313056 15.8453507,13.8005028 L18.3849755,11.1568527 C18.9942685,11.910381 19.4863479,12.6098065 19.7168676,13.1206325 C21.3632825,16.3650629 19.974086,20.5364113 16.1670366,20.5364113 L4.84899268,20.5364113 Z M15.9499096,0.24498958 C19.9627336,0.24498958 21.1459384,4.93129234 19.9627336,7.24880467 C18.7795291,9.56609984 16.0936045,12.2508159 14.1322328,14.0120905 C12.3486348,15.5912841 9.77645077,17.1363647 6.53528181,13.8919344 C6.38572609,13.7693883 6.21381313,13.618813 6.03191517,13.4545492 L8.41894531,10.9797257 C8.44976821,11.0055821 8.4884051,11.0444753 8.51684033,11.066638 C9.96616297,12.5174189 10.7150266,12.5313249 12.166954,11.0777192 C13.2518296,10.0008777 15.3768659,7.70270327 16.2995963,6.59631174 C17.1960622,5.52142581 17.6963899,3.21738484 13.6675031,3.21738484 L7.31279768,3.21738484 C4.62904383,3.21738484 3.24266923,4.62231967 4.64836232,6.59631174 C4.7434355,6.71646777 4.84979584,6.85009524 4.95355144,6.98089806 L2.41392665,9.62454824 C1.80463383,8.87101993 1.31255443,8.17159429 1.0820346,7.66076829 C-0.564380238,4.41633794 0.824816194,0.24498958 4.63186566,0.24498958 L15.9499096,0.24498958 Z"/>
</svg>
