<?xml version="1.0" encoding="UTF-8"?>
<svg width="148px" height="50px" viewBox="0 0 148 50" version="1.1" xmlns="http://www.w3.org/2000/svg" xmlns:xlink="http://www.w3.org/1999/xlink">
    <!-- Generator: Sketch 56.3 (81716) - https://sketch.com -->
    <title>编组</title>
    <desc>Created with Sketch.</desc>
    <g id="Symbols" stroke="none" stroke-width="1" fill="none" fill-rule="evenodd">
        <g id="ZB.COM/6_User/image/w_login_logo" transform="translate(-6.000000, -10.000000)">
            <g id="编组" transform="translate(6.000000, 10.000000)">
                <path d="M4.02827641,24.9998691 C4.02827641,36.5801886 13.4065829,45.9676702 24.975,45.9676702 C36.543417,45.9676702 45.9217236,36.5801886 45.9217236,24.9998691 C45.9217236,13.4198115 36.543417,4.03206815 24.975,4.03206815 C13.4065829,4.03206815 4.02827641,13.4198115 4.02827641,24.9998691 Z M-1.74082986e-13,24.9998691 C-1.75773879e-13,11.1926859 11.1816963,0 24.975,0 C38.7683038,-7.10542736e-15 49.95,11.1926859 49.95,24.9998691 C49.95,38.8070523 38.7683038,50 24.975,50 C11.1816963,50 -1.72392094e-13,38.8070523 -1.74082986e-13,24.9998691 Z M31.682204,12.962963 C36.5160833,12.962963 37.941381,18.60812 36.5160833,21.3998135 C35.0907858,24.1912454 31.8553,27.4252754 29.4926164,29.5469206 C27.3440802,31.4492296 24.2456072,33.3104457 20.3412697,29.4021796 C20.1611137,29.2545596 19.954026,29.0731754 19.7349103,28.8753019 L22.6103455,25.8941102 C22.647475,25.925257 22.6940173,25.9721081 22.7282706,25.9988054 C24.474136,27.7464274 25.376223,27.7631787 27.1252261,26.0121539 C28.4320758,24.7149822 30.9919111,21.9465833 32.1034394,20.6138154 C33.1833292,19.3189994 33.7860279,16.5435336 28.9327993,16.5435336 L21.2778714,16.5435336 C18.0450005,16.5435336 16.3749628,18.2359291 18.0682717,20.6138154 C18.1827976,20.7585563 18.3109201,20.919525 18.4359049,21.0770911 L15.376653,24.2616528 C14.6426941,23.3539467 14.0499314,22.5114131 13.7722454,21.8960681 C11.7889612,17.9878019 13.4623981,12.962963 18.0483997,12.962963 L31.682204,12.962963 Z M18.3099526,37.4061685 C13.4760732,37.4061685 12.0507756,31.7610115 13.4760732,28.969318 C14.9013708,26.1778861 18.1368565,22.9438561 20.4995403,20.8222109 C22.6480763,18.9199019 25.7465493,17.0586856 29.6508868,20.9669519 C29.8310428,21.1145719 30.0381307,21.2959561 30.2572464,21.4938296 L27.381811,24.4750213 C27.3446816,24.4438744 27.2981392,24.3970233 27.263886,24.3703261 C25.5180207,22.6227041 24.6159335,22.6059528 22.8669305,24.3569776 C21.5600809,25.6541493 19.0002454,28.4225481 17.8887172,29.7553161 C16.8088274,31.050132 16.2061287,33.8255978 21.0593572,33.8255978 L28.7142851,33.8255978 C31.947156,33.8255978 33.6171938,32.1332024 31.9238849,29.7553161 C31.809359,29.6105752 31.6812365,29.4496065 31.5562516,29.2920404 L34.6155035,26.1074787 C35.3494626,27.0151848 35.9422253,27.8577183 36.2199112,28.4730633 C38.2031954,32.3813296 36.5297585,37.4061685 31.9437569,37.4061685 L18.3099526,37.4061685 Z" id="Combined-Shape" fill="#E91C41"></path>
                <path d="M83.374318,36.8559213 L83.374318,38.8888889 L81.6585001,38.8888889 L81.6585001,36.8559213 L79.3989371,36.8559213 L79.3989371,38.8888889 L77.6831191,38.8888889 L77.6831191,36.8559213 L73.4700666,36.8559213 L73.4700666,33.1083481 L74.0280488,33.1083481 L74.0280488,36.8559757 L55.5,36.8559757 L55.5,33.4711007 L66.1589802,19.08545 L55.9560104,19.08545 L55.9560104,15.3378222 L71.9092817,15.3378222 L71.9092817,18.6622385 L61.2156279,33.1083481 L73.4700666,33.1083481 L78.3438089,33.1082935 L79.7972107,33.1082935 L83.427957,33.1082935 C85.6365603,33.1082935 86.6888516,31.8996626 86.6888516,30.4486517 C86.6888516,28.9981854 85.6365603,27.8195115 83.427957,27.8195115 L79.3887451,27.8195115 L79.3887451,24.0419267 L83.1122172,24.0419267 C85.181338,24.0419267 86.3381754,23.0443567 86.3381754,21.5636611 C86.3381754,20.0826931 85.181338,19.0853956 83.1122172,19.0853956 L77.6729273,19.0853956 L77.6729273,22.6118857 L77.6729273,24.0419267 L77.6729273,27.8195115 L77.6729273,30.8285617 L77.6729273,31.5404502 L73.4700666,31.5404502 L73.4700666,15.3377678 L77.6831191,15.3377678 L77.6831191,12.962963 L79.3989371,12.962963 L79.3989371,15.3377678 L81.6585001,15.3377678 L81.6585001,12.962963 L83.374318,12.962963 L83.374318,15.3377678 L83.4980922,15.3377678 C88.3718347,15.3377678 91.2119177,17.6951158 91.2119177,21.3822846 C91.2119177,23.769862 89.3886643,25.3112889 88.1259673,25.8249161 C89.6340063,26.4292317 91.5625939,27.789282 91.5625939,30.6605298 C91.5625939,34.6799496 88.3718347,36.8559213 83.9189038,36.8559213 L83.374318,36.8559213 Z M93.9192956,33.4266281 L97.4447077,33.4266281 L97.4447077,36.8392815 L93.9192956,36.8392815 L93.9192956,33.4266281 Z M113.345811,33.506423 C113.154844,33.9304513 112.825444,34.5467498 112.079174,35.2790635 C111.072851,36.2613828 109.459215,37.3017096 106.439986,37.3017096 C105.745988,37.3017096 103.316734,37.2823737 101.40811,35.7025474 C99.1871611,33.8727159 99.0831405,31.0213489 99.0831405,30.0194215 C99.0831405,28.6326822 99.377866,27.1876626 100.072126,26.0315926 C100.315104,25.6271724 100.540482,25.338223 100.852807,25.0106017 C101.269153,24.5675096 101.477458,24.4133669 101.720436,24.2401607 C102.518454,23.6429259 104.167026,22.814477 106.613616,22.814477 C107.290277,22.814477 109.650183,22.8722126 111.558544,24.2978961 C112.599803,25.068337 113.172443,26.0315926 113.397821,26.474957 C113.484505,26.6674993 113.571189,26.8600415 113.640799,27.0528559 L110.291907,27.5150117 C110.10094,27.1876626 109.754204,26.5901556 109.060206,26.0702644 C108.660935,25.781315 107.82798,25.318887 106.613616,25.318887 C106.301291,25.318887 105.520347,25.338223 104.704729,25.7233072 C103.10843,26.4553489 102.258402,28.1509181 102.258402,30.0580933 C102.258402,31.002013 102.518454,32.0423398 103.021746,32.8321169 C103.12603,33.0055954 103.386082,33.3525526 103.785354,33.6992374 C104.25371,34.1229935 105.190685,34.7972996 106.7003,34.7972996 C108.487567,34.7972996 109.441879,33.9688509 109.927572,33.3329443 C110.135876,33.0826667 110.274833,32.8321169 110.552222,32.254218 L113.779494,32.2158183 C113.606126,32.9094604 113.502105,33.159738 113.345811,33.506423 Z M125.458797,26.7445433 C124.608769,25.7042165 123.289858,25.2224526 122.023221,25.2611244 C121.74557,25.2804604 121.016899,25.3381957 120.253554,25.7042165 C117.980332,26.8213424 117.806964,29.2296174 117.806964,30.1351374 C117.806964,30.4047509 117.824301,31.2909352 118.136626,32.100048 C118.22331,32.350598 118.327593,32.6011478 118.604982,33.0249041 C118.691666,33.1403748 118.91757,33.5063956 119.229632,33.7956174 C119.715588,34.2577731 120.652563,34.8356719 122.162178,34.8356719 C122.43983,34.8356719 123.168501,34.8166083 123.932108,34.508323 C126.343762,33.5450674 126.552066,30.9055785 126.552066,30.0580661 C126.552066,29.4801672 126.482456,27.9967483 125.458797,26.7445433 Z M129.53636,31.6378924 C129.380329,32.5431402 128.894373,34.508323 127.038022,35.895607 C126.187468,36.5119054 124.626105,37.2823465 122.196852,37.2823465 C118.552972,37.2823465 116.627011,35.645057 115.742308,34.2000376 C115.3257,33.5450674 114.649039,32.1193839 114.649039,30.0390026 C114.649039,26.8984137 116.019697,25.2611244 116.921999,24.4904111 C118.257983,23.3539493 120.04525,22.8915213 121.693559,22.8144498 C123.220511,22.756442 125.059788,23.026328 126.430446,23.7777054 C126.621413,23.8931763 126.968412,24.0859907 127.402095,24.4326756 C127.749356,24.721625 128.096355,25.0683098 128.374006,25.4536665 C128.894373,26.1279726 129.675317,27.6307276 129.675317,29.9039235 C129.675317,30.1738093 129.675317,30.8865148 129.53636,31.6378924 Z M145.084791,36.8393361 L145.154401,26.3783319 L141.215532,36.8393361 L138.421943,36.8393361 L134.448401,26.3783319 L134.517748,36.8393361 L131.602802,36.8393361 L131.602802,23.2382878 L136.0447,23.2382878 L139.844874,33.217528 L143.610112,23.2382878 L148,23.2382878 L148,36.8393361 L145.084791,36.8393361 Z" id="Shape" fill="#FFFFFF"></path>
            </g>
        </g>
    </g>
</svg>