<?xml version="1.0" encoding="UTF-8"?>
<svg width="29px" height="28px" viewBox="0 0 29 28" version="1.1" xmlns="http://www.w3.org/2000/svg" xmlns:xlink="http://www.w3.org/1999/xlink">
    <!-- Generator: Sketch 56.3 (81716) - https://sketch.com -->
    <title>编组</title>
    <desc>Created with Sketch.</desc>
    <g id="资金" stroke="none" stroke-width="1" fill="none" fill-rule="evenodd">
        <g id="Home" transform="translate(-25.000000, -473.000000)" fill-rule="nonzero">
            <g id="编组" transform="translate(25.000000, 473.000000)">
                <path d="M11.6594669,5.4525789 C11.6594669,5.08459117 11.708083,4.72814594 11.798039,4.38881266 C11.2731761,4.13980144 10.6875431,4 10.069286,4 C7.82166738,4 6,5.83897005 6,8.1078376 C6,9.2359351 6.45073914,10.2575672 7.17998181,11 L12.9585903,11 C13.4500295,10.4997982 13.814251,9.87246751 14,9.17160384 C12.6171576,8.51545726 11.6594669,7.0972637 11.6594669,5.4525789 Z" id="Path" fill="#FFBE1B"></path>
                <path d="M11.5886628,5.45265433 C11.1309339,5.16558152 10.5929544,5 10.0173771,5 C8.3509123,5 7,6.38608672 7,8.0959611 C7,9.42766446 7.81964667,10.5629069 8.96945841,11 L11.0652958,11 C12.0767226,10.6155072 12.8326268,9.69074699 13,8.56733757 C12.1415708,7.81545319 11.5952976,6.69998649 11.5886628,5.45265433 Z" id="Path" fill="#FFE37B"></path>
                <path d="M11.8240757,8.20909928 C11.7075666,8.07124995 11.549957,7.98034484 11.3525365,7.93673496 C11.4073087,7.91216602 11.4452279,7.89435353 11.4662081,7.8832975 C11.4878762,7.87276796 11.5254514,7.84539113 11.5803955,7.80195674 C11.7416165,7.67797131 11.822098,7.48887816 11.822098,7.23458957 C11.822098,7.02338437 11.7507309,6.83437898 11.6076526,6.66713465 C11.5287188,6.57693151 11.410834,6.50576932 11.2543422,6.45294608 C11.2079966,6.43706401 11.1574377,6.4245163 11.105417,6.41354802 L11.105417,6 L10.5461737,6 L10.5461737,6.37371123 L10.1715391,6.37371123 L10.1715391,6 L9.61229579,6 L9.61229579,6.37371123 L9.45614789,6.37371123 L9,6.37371123 L9,6.98793489 L9.45614789,6.98793489 L9.45614789,9.01162638 L9,9.01162638 L9,9.62585004 L9.45614789,9.62585004 L9.61229579,9.62585004 L9.61229579,10 L10.1715391,10 L10.1715391,9.62585004 L10.5461737,9.62585004 L10.5461737,10 L11.105417,10 L11.105417,9.61189839 C11.4093723,9.57846707 11.6324162,9.48326241 11.7717971,9.323652 C11.9238177,9.15000219 12,8.94985303 12,8.72329224 C11.999828,8.51858027 11.9409286,8.34729961 11.8240757,8.20909928 Z M10.1671539,6.98793489 L10.5091144,6.98793489 C10.7185727,6.98793489 10.8680138,7.01136314 10.955632,7.05760541 C11.0437661,7.10419866 11.0879622,7.19949107 11.0879622,7.34383363 C11.0879622,7.48791296 11.0400688,7.58188918 10.94454,7.62523582 C10.8490112,7.66867021 10.7018917,7.69043127 10.5043852,7.69043127 L10.1671539,7.69043127 L10.1671539,6.98793489 Z M11.1131556,8.93476067 C11.01135,8.98617997 10.8583835,9.01162638 10.6546862,9.01162638 L10.1671539,9.01162638 L10.1671539,8.26279998 L10.5866724,8.26279998 C10.8233018,8.26279998 10.9959587,8.28684245 11.1039553,8.3347519 C11.2117799,8.38283684 11.2658641,8.48216558 11.2658641,8.63265038 C11.2657782,8.78287193 11.2149613,8.88369236 11.1131556,8.93476067 Z" id="Shape" fill="#FFFFFF"></path>
                <path d="M3.84749089,12.961745 C2.95727933,12.7385116 2.26141338,12.0426757 2.03799789,11.1520712 L1.99995687,11 L1.96191585,11.1520712 C1.73850036,12.0426757 1.04272067,12.7385116 0.151819025,12.961745 L0,13.0000431 L0.151819025,13.0381688 C1.04272067,13.2613159 1.73858662,13.9571518 1.96191585,14.8478425 L1.99995687,15 L2.03799789,14.8478425 C2.26141338,13.9571518 2.95719307,13.2614021 3.84749089,13.0381688 L4,13.0000431 L3.84749089,12.961745 Z" id="Path" fill="#FFBE1B"></path>
                <path d="M4.88589368,8.47134104 C4.21782836,8.30391476 3.69601835,7.78198666 3.52839074,7.11418309 L3.50004528,7 L3.47160926,7.11418309 C3.30389109,7.78198666 2.78217164,8.30382421 2.11374408,8.47134104 L2,8.50013582 L2.11374408,8.52856841 C2.78217164,8.69599469 3.30398165,9.21792279 3.47160926,9.88581691 L3.50004528,10 L3.52839074,9.88581691 C3.69610891,9.21792279 4.21782836,8.69590414 4.88589368,8.52856841 L5,8.50013582 L4.88589368,8.47134104 Z" id="Path" fill="#FFBE1B"></path>
                <path d="M28.8868444,16.4715018 C28.2181427,16.3041236 27.6961307,15.7822162 27.5285469,15.1140786 L27.4996561,15 L27.4709372,15.1140786 C27.3038693,15.7822162 26.7818573,16.3040376 26.1133276,16.4715018 L26,16.5002149 L26.1133276,16.5284122 C26.7818573,16.6959624 27.3038693,17.2179557 27.4709372,17.8864372 L27.4996561,18 L27.5285469,17.8864372 C27.6961307,17.2179557 28.2181427,16.6959624 28.8868444,16.5284122 L29,16.5002149 L28.8868444,16.4715018 Z" id="Path" fill="#F5A623"></path>
                <path d="M24.8482108,4.96192586 C23.957364,4.73863314 23.2616895,4.04289137 23.0382822,3.15209047 L22.9998454,3 L22.9614087,3.15209047 C22.7388258,4.04289137 22.0434603,4.73863314 21.151377,4.96192586 L21,5.00005152 L21.151377,5.03828022 C22.0433573,5.26116077 22.7387227,5.95679951 22.9614087,6.84790953 L22.9998454,7 L23.0382822,6.84790953 C23.2616895,5.95679951 23.9574671,5.26116077 24.8482108,5.03828022 L25,5.00005152 L24.8482108,4.96192586 Z" id="Path" fill="#D0021B"></path>
                <path d="M17.9869347,11.8909329 C17.9869347,11.5863759 18.0131656,11.2888008 18.0611999,11 L6.10022889,11 C4.95701134,11 4.02756754,12.0311348 4,13.3142744 C4.0125307,13.4166425 4.13290896,14.1869036 4.96327669,14.6767611 C5.51604765,15.003773 6.41391409,15 6.83770237,15 L19,15 C18.3687869,14.1621843 17.9869347,13.0771766 17.9869347,11.8909329 Z" id="Path" fill="#D0021B"></path>
                <path d="M22.4999558,7 C20.0148066,7 18,8.94726946 18,11.3496282 C18,12.4242372 18.4041109,13.4070592 19.0723528,14.1658833 L23.1862368,14.1658833 C23.9019641,14.1658833 24.5380186,14.4926929 24.9448707,15 C26.1812555,14.2248526 27,12.8800957 27,11.3496282 C27,8.94735493 24.9852818,7 22.4999558,7 Z" id="Path" fill="#F5A623"></path>
                <path d="M21.9998037,8 C20.3431851,8 19,9.41172101 19,11.1531985 C19,12.3127528 19.5960811,13.3255468 20.4832131,13.873215 L22.6093928,13.873215 C22.8488462,13.873215 23.0783256,13.9180355 23.2906844,14 C24.3015092,13.4928601 25,12.4087495 25,11.1531985 C24.9999215,9.41172101 23.6568934,8 21.9998037,8 Z" id="Path" fill="#F8E71C"></path>
                <polygon id="Path" fill="#FFFFFF" points="22.4999043 9 21 11.0227362 22.4999043 12 24 11.0228209"></polygon>
                <polygon id="Path" fill="#FFFFFF" points="22.4999043 13.0149708 21 12 22.4999043 14 24 12"></polygon>
                <path d="M23.8980525,13.507281 L7.84057123,13.507281 C7.41663781,13.507281 6.51828679,13.5106322 5.96513391,13.2202517 C5.07380387,12.7536824 5,12 5,12 L5,25.89294 C5,27.0565565 5.9414799,28 7.10261615,28 L23.8978853,28 C25.0591052,28 26,27.0564728 26,25.89294 L26,15.6140059 C26,14.4503055 25.0591888,13.507281 23.8980525,13.507281 Z" id="Path" fill="#EA5265"></path>
                <path d="M19.9954684,19 C19.4456015,19 19,19.406452 19,19.9079522 L19,22.0920478 C19,22.5933063 19.4456015,23 19.9954684,23 L26,23 L26,19 L19.9954684,19 Z" id="Path" fill="#F5A623"></path>
                <path d="M20.0002682,20 C19.4481001,20 19,20.4476825 19,20.9998659 C19,21.5520493 19.4481001,22 20.0002682,22 C20.5526151,22 21,21.55196 21,20.9998659 C21,20.4476825 20.5526151,20 20.0002682,20 Z" id="Path" fill="#FFE37B"></path>
                <path d="M15.5003537,0 C13.0148356,0 11,2.01460994 11,4.49982315 C11,6.98539006 13.0147472,9 15.5003537,9 C17.9852528,9 20,6.98539006 20,4.49982315 C20,2.01460994 17.9852528,0 15.5003537,0 Z" id="Path" fill="#D0021B"></path>
                <path d="M16.0001571,2 C14.3432027,2 13,3.34302805 13,4.9998822 C13,6.65681488 14.3432812,8 16.0001571,8 C17.6567973,8 19,6.65681488 19,4.9998822 C19.0000785,3.34302805 17.6567973,2 16.0001571,2 Z" id="Path" fill="#F5A623"></path>
                <polygon id="Path" fill="#FFFFFF" points="17.5356735 6.39307733 17.5356735 4 16.0001088 5.91069227 14.4645442 4 14.4645442 6.39307733 14 6.39307733 14 7 14.9644263 7 14.9644263 5.49128061 16.0001088 6.77840409 17.0358639 5.49128061 17.0358639 7 18 7 18 6.39307733"></polygon>
                <path d="M14.8611671,20.1171301 C14.314524,20.1171301 13.8571005,20.6065768 13.7471853,21.2572482 L11.6583064,21.2572482 L10.091301,19 L5,19 L5,19.6030462 L9.87538147,19.6030462 L11.4422239,21.8602943 L13.7472667,21.8602943 C13.857182,22.5105533 14.314524,23 14.8611671,23 C15.4891262,23 16,22.3534521 16,21.5588743 C16,20.7636781 15.4891262,20.1171301 14.8611671,20.1171301 Z M14.8611671,22.3968508 C14.5797384,22.3968508 14.3394566,22.1735691 14.2434743,21.8601912 L14.4733267,21.8601912 C14.5535836,22.0249208 14.6970682,22.1350153 14.8611671,22.1350153 C15.1127744,22.1350153 15.3166351,21.876994 15.3166351,21.5586681 C15.3166351,21.2403422 15.1127744,20.9820117 14.8611671,20.9820117 C14.6969868,20.9820117 14.5535021,21.0923125 14.4732452,21.2571451 L14.2433928,21.2571451 C14.3393751,20.943458 14.5797384,20.7200732 14.8611671,20.7200732 C15.2263563,20.7200732 15.5233475,21.0961266 15.5233475,21.5586681 C15.5233475,22.0206943 15.2264377,22.3968508 14.8611671,22.3968508 Z" id="Shape" fill="#FFFFFF"></path>
                <path d="M22.5201505,24.6030772 L21.7324298,24 L12.5289137,24 L11.2899587,26.2574676 L9.23427266,26.2574676 C9.12526207,25.6068658 8.67168427,25.1173939 8.12945962,25.1173939 C7.50666894,25.1173939 7,25.7638721 7,26.5588 C7,27.3535218 7.50666894,28 8.12945962,28 C8.67160346,28 9.12518126,27.5107343 9.23419185,26.8603387 L11.536182,26.8603387 L12.775137,24.6028711 L21.6012777,24.6028711 L22.3889984,25.2059483 L25,25.2059483 L25,24.6028711 L22.5201505,24.6028711 L22.5201505,24.6030772 Z M8.12945962,27.1354862 C8.29236944,27.1354862 8.43467311,27.0253859 8.51426942,26.8606479 L8.74206843,26.8606479 C8.64679527,27.1740419 8.40849117,27.397232 8.12945962,27.397232 C7.76727617,27.397232 7.47272939,27.0211592 7.47272939,26.5590062 C7.47272939,26.0965439 7.76727617,25.720368 8.12945962,25.720368 C8.40865279,25.720368 8.6470377,25.9437643 8.74223004,26.2575707 L8.51443104,26.2575707 C8.43483472,26.0927296 8.29245025,25.98232 8.12954042,25.98232 C7.88000395,25.98232 7.67782122,26.2406639 7.67782122,26.5590062 C7.67774042,26.8775547 7.87992314,27.1354862 8.12945962,27.1354862 Z" id="Shape" fill="#FFFFFF"></path>
                <path d="M10.5464352,22 C10.3830805,22 10.2402466,22.1082503 10.1602725,22.2700187 L7.89431422,22.2700187 L7.44139833,23.4081643 L5,23.4081643 L5,24 L7.73542055,24 L8.18833644,22.8618544 L10.1602725,22.8618544 C10.2401655,23.0235217 10.3829994,23.1315696 10.5464352,23.1315696 C10.7969016,23.1315696 11,22.8784461 11,22.5660377 C11,22.2536294 10.7969016,22 10.5464352,22 Z" id="Path" fill="#FFFFFF"></path>
                <path d="M16.5585826,15.3720468 C16.399467,15.3720468 16.2604086,15.497193 16.1826276,15.6842105 L14.5548317,15.6842105 L13.6310137,15 L7.20179647,15 L6.76101076,16.3157895 L5,16.3157895 L5,17 L7.04726088,17 L7.48820452,15.6842105 L13.5221202,15.6842105 L14.4459382,16.3684211 L16.1826276,16.3684211 C16.2604086,16.5553216 16.3995459,16.6802339 16.5585826,16.6802339 C16.8024282,16.6802339 17,16.3874854 17,16.0263158 C17,15.6651462 16.8024282,15.3720468 16.5585826,15.3720468 Z" id="Path" fill="#FFFFFF"></path>
                <path d="M19.3471578,17 L18.4296648,19.3569859 L14.522655,19.3569859 L12.9247897,17.6922485 L9.86024837,17.6922485 C9.77841095,17.5165214 9.63201752,17.3988204 9.46460391,17.3988204 C9.20804152,17.3988204 9,17.6742252 9,18.0135907 C9,18.3530662 9.20804152,18.6281413 9.46460391,18.6281413 C9.63193443,18.6281413 9.77824478,18.51077 9.8600822,18.3351528 L12.7564622,18.3351528 L14.3543274,20 L18.725775,20 L19.6434342,17.6430141 L26,17.6430141 L26,17.0001099 L19.3471578,17.0001099 L19.3471578,17 Z" id="Path" fill="#FFFFFF"></path>
            </g>
        </g>
    </g>
</svg>