<?xml version="1.0" encoding="UTF-8"?>
<svg width="22px" height="21px" viewBox="0 0 22 21" version="1.1" xmlns="http://www.w3.org/2000/svg" xmlns:xlink="http://www.w3.org/1999/xlink">
    <!-- Generator: Sketch 56.3 (81716) - https://sketch.com -->
    <title>Shape</title>
    <desc>Created with Sketch.</desc>
    <g id="资金" stroke="none" stroke-width="1" fill="none" fill-rule="evenodd">
        <g id="Home" transform="translate(-293.000000, -58.000000)" fill="#FFFFFF" fill-rule="nonzero">
            <path d="M311.962675,72.3156961 L310.572078,70.9288107 C311.195654,70.3001406 311.768815,69.6368292 312.281442,68.9737789 C312.409847,68.8076957 312.528501,68.649234 312.636979,68.5 C312.528501,68.350766 312.409847,68.1923043 312.281442,68.0262211 C311.686909,67.2572313 311.010954,66.4878903 310.269361,65.7726458 C308.21091,63.7873301 306.069882,62.6160576 304,62.6160576 C303.486432,62.6160576 302.968484,62.6881622 302.448504,62.8269151 L300.892979,61.2755415 C301.908164,60.8718384 302.944997,60.6547434 304,60.6547434 C306.681947,60.6547434 309.246473,62.0576956 311.636446,64.3627547 C312.451802,65.1491413 313.189444,65.9886908 313.8388,66.8285915 C314.23064,67.3354117 314.508842,67.7341014 314.661162,67.9716244 L315,68.5 L314.661162,69.0283756 C314.508842,69.2658986 314.23064,69.6645883 313.8388,70.1714085 C313.277184,70.8978223 312.64953,71.6239736 311.962675,72.3156961 L311.962675,72.3156961 Z M308.921852,74.7955755 C307.337544,75.7867644 305.692144,76.3452566 304,76.3452566 C301.318053,76.3452566 298.753527,74.9423043 296.363554,72.6372453 C295.548198,71.8508586 294.810556,71.0113092 294.1612,70.1714085 C293.76936,69.6645883 293.491158,69.2658986 293.338838,69.0283756 L293,68.5 L293.338838,67.9716244 C293.491158,67.7341014 293.76936,67.3354117 294.1612,66.8285915 C294.810556,65.9886908 295.548198,65.1491413 296.363554,64.3627547 C296.727967,64.0112892 297.096438,63.6807967 297.468764,63.3730525 L293.471904,59.3868585 L294.862474,58 L314.528096,77.6131414 L313.137526,79 L308.921852,74.7955755 Z M298.866997,64.7675542 C298.486077,65.0739196 298.106978,65.4096778 297.730639,65.7726458 C296.989046,66.4878903 296.313091,67.2572313 295.718558,68.0262211 C295.590153,68.1923043 295.4715,68.350766 295.363021,68.5 C295.4715,68.649234 295.590153,68.8076957 295.718558,68.9737789 C296.313091,69.7427687 296.989046,70.5121097 297.730639,71.2273542 C299.78909,73.2126698 301.930118,74.3839424 304,74.3839424 C305.148636,74.3839424 306.319182,74.0232543 307.485367,73.3629241 L305.997995,71.8795217 C305.412438,72.2246048 304.729406,72.4226283 304,72.4226283 C301.827795,72.4226283 300.066876,70.6664078 300.066876,68.5 C300.066876,67.7725401 300.265429,67.0913311 300.611435,66.5073368 L298.866997,64.7675542 Z M302.100048,67.9919773 C302.056601,68.1540079 302.033438,68.3243062 302.033438,68.5 C302.033438,69.5832039 302.913898,70.4613141 304,70.4613141 C304.176164,70.4613141 304.346918,70.4382125 304.509382,70.3948813 L302.100048,67.9919773 Z" id="Shape"></path>
        </g>
    </g>
</svg>