<?xml version="1.0" encoding="UTF-8"?>
<svg width="24px" height="24px" viewBox="0 0 24 24" version="1.1" xmlns="http://www.w3.org/2000/svg" xmlns:xlink="http://www.w3.org/1999/xlink">
    <!-- Generator: Sketch 56.3 (81716) - https://sketch.com -->
    <title>ZB.COM/Icon/24/search</title>
    <desc>Created with Sketch.</desc>
    <g id="ZB.COM/Icon/24/search" stroke="none" stroke-width="1" fill="none" fill-rule="evenodd">
        <path d="M16.5444382,15.2736387 C16.713536,15.3163061 16.8736542,15.4037795 17.0059336,15.5360588 L20.7234096,19.2535348 C21.1139339,19.6440591 21.1139339,20.2772241 20.7234096,20.6677484 L20.6677484,20.7234096 C20.2772241,21.1139339 19.6440591,21.1139339 19.2535348,20.7234096 L15.5360588,17.0059336 C15.4037795,16.8736542 15.3163061,16.713536 15.2736387,16.5444382 C14.0913592,17.457082 12.6090822,18 11,18 C7.13400675,18 4,14.8659932 4,11 C4,7.13400675 7.13400675,4 11,4 C14.8659932,4 18,7.13400675 18,11 C18,12.6090822 17.457082,14.0913592 16.5444382,15.2736387 Z M11,5.5 C7.96243388,5.5 5.5,7.96243388 5.5,11 C5.5,14.0375661 7.96243388,16.5 11,16.5 C14.0375661,16.5 16.5,14.0375661 16.5,11 C16.5,7.96243388 14.0375661,5.5 11,5.5 Z" id="Combined-Shape" fill="#CCCCCC"></path>
    </g>
</svg>