<?xml version="1.0" encoding="UTF-8"?>
<svg width="20px" height="28px" viewBox="0 0 20 28" version="1.1" xmlns="http://www.w3.org/2000/svg" xmlns:xlink="http://www.w3.org/1999/xlink">
    <!-- Generator: Sketch 56.3 (81716) - https://sketch.com -->
    <title>电话销售员 5</title>
    <desc>Created with Sketch.</desc>
    <g id="资金" stroke="none" stroke-width="1" fill="none" fill-rule="evenodd">
        <g id="Home" transform="translate(-25.000000, -1249.000000)" fill-rule="nonzero">
            <g id="电话销售员-5" transform="translate(25.000000, 1249.000000)">
                <path d="M9.5,15 C4.808,15 1,18.6099174 1,23.0578512 L1,25.5826446 C1,26.9201942 2.13894333,28 3.55,28 L15.45,28 C16.8610567,28 18,26.9201942 18,25.5826446 L18,23.0578512 C18,18.6099174 14.192,15 9.5,15 Z" id="Path" fill="#E91C41"></path>
                <path d="M18,23.0578512 L18,25.5826446 C18,26.9201942 16.9280533,28 15.6,28 L10,28 L10,15 C14.416,15 18,18.6099174 18,23.0578512 Z" id="Path" fill="#F16E86"></path>
                <path d="M20,10 C20,15.5166667 15.5166667,20 10,20 C9.53327778,20 9.16666667,19.6332778 9.16666667,19.1666667 C9.16666667,18.6999444 9.53327778,18.3333333 10,18.3333333 C14.6,18.3333333 18.3333333,14.6 18.3333333,10 C18.3333333,5.48327778 14.6499444,1.73327778 10.1333889,1.66666667 L10,1.66666667 C7.76661111,1.66666667 5.71666667,2.51666667 4.15,4.06666667 C2.55005556,5.63333333 1.66666667,7.74994444 1.66666667,10 L1.66666667,10.8333333 C1.66666667,11.2999444 1.30005556,11.6666667 0.833333333,11.6666667 C0.366611111,11.6666667 0,11.2999444 0,10.8333333 L0,10 C0,7.3 1.06666667,4.76666667 2.98327778,2.86661111 C4.86661111,1.01666667 7.31666667,0.0166666667 10,0 L10.1666111,0 C15.5832778,0.0833333333 20,4.56666667 20,10 Z" id="Path" fill="#F9BB32"></path>
                <path d="M20,10 C20,15.5166667 15.5166667,20 10,20 L10,18.3333333 C14.6,18.3333333 18.3333333,14.6 18.3333333,10 C18.3333333,5.48327778 14.6499444,1.73327778 10.1333889,1.66666667 L10,1.66666667 L10,0 L10.1666111,0 C15.5832778,0.0833333333 20,4.56666667 20,10 Z" id="Path" fill="#FFD551"></path>
                <path d="M17.5,13 L15.8333333,13 C15.3727222,13 15,12.6086417 15,12.125 L15,6.875 C15,6.39135833 15.3727222,6 15.8333333,6 L17.5,6 C18.8785556,6 20,7.17751667 20,8.625 L20,10.375 C20,11.8224833 18.8785556,13 17.5,13 Z" id="Path" fill="#FF7882"></path>
                <path d="M4.16666667,13 L2.5,13 C1.12144444,13 0,11.8224833 0,10.375 L0,8.625 C0,7.17751667 1.12144444,6 2.5,6 L4.16666667,6 C4.62727778,6 5,6.39135833 5,6.875 L5,12.125 C5,12.6086417 4.62727778,13 4.16666667,13 Z" id="Path" fill="#FF7882"></path>
                <path d="M9.5,3 C5.90869583,3 3,5.90869583 3,9.5 C3,13.0911958 5.90869583,16 9.5,16 C13.0913042,16 16,13.0911958 16,9.5 C16,5.90869583 13.0913042,3 9.5,3 Z" id="Path" fill="#E91C41"></path>
                <path d="M17,9.5 C17,13.0911958 13.8675583,16 10,16 L10,3 C13.8675583,3 17,5.90869583 17,9.5 Z" id="Path" fill="#F16E86"></path>
            </g>
        </g>
    </g>
</svg>