<?xml version="1.0" encoding="UTF-8"?>
<svg width="28px" height="24px" viewBox="0 0 28 24" version="1.1" xmlns="http://www.w3.org/2000/svg" xmlns:xlink="http://www.w3.org/1999/xlink">
    <!-- Generator: Sketch 56.3 (81716) - https://sketch.com -->
    <title>编组 4</title>
    <desc>Created with Sketch.</desc>
    <g id="资金" stroke="none" stroke-width="1" fill="none" fill-rule="evenodd">
        <g id="Home" transform="translate(-28.000000, -713.000000)" fill-rule="nonzero">
            <g id="编组-4" transform="translate(28.000000, 713.000000)">
                <path d="M27.8479113,12.9617245 C26.9567248,12.7385757 26.2614025,12.0427785 26.0381056,11.1519346 L25.9998332,11 L25.9617277,11.1519346 C25.7384308,12.0428619 25.0428583,12.7385757 24.1515884,12.9617245 L24,13 L24.1515884,13.0381087 C25.0428583,13.2612575 25.7384308,13.9570547 25.9617277,14.8480654 L25.9998332,15 L26.0381056,14.8480654 C26.2614025,13.9570547 26.9568081,13.2612575 27.8479113,13.0381087 L28,13 L27.8479113,12.9617245 Z" id="Path" fill="#FFBE1B"></path>
                <path d="M10.8478028,21.9615857 C9.95674723,21.7383607 9.26138367,21.0425462 9.03817031,20.1518593 L8.9998617,20 L8.96169139,20.1518593 C8.73854718,21.0425462 8.04290703,21.7382916 7.15164402,21.9615857 L7,21.9996888 L7.15164402,22.0378611 C8.04290703,22.2611552 8.73854718,22.9566931 8.96169139,23.847864 L8.9998617,24 L9.03817031,23.847864 C9.26138367,22.9566931 9.95674723,22.2611552 10.8478028,22.0378611 L11,21.9996888 L10.8478028,21.9615857 Z" id="Path" fill="#F5A623"></path>
                <path d="M6.84779231,1.96162701 C5.95670728,1.73842727 5.26140341,1.04269697 5.03814551,0.151844711 L4.9998877,0 L4.96170476,0.151844711 C4.73859659,1.04269697 4.04291837,1.7383524 3.15160874,1.96162701 L3,1.99981281 L3.15160874,2.03792374 C4.04284351,2.26127323 4.73852172,2.95685379 4.96170476,3.84815529 L4.9998877,4 L5.03814551,3.84815529 C5.26140341,2.95692866 5.95678215,2.26134811 6.84779231,2.03792374 L7,1.99981281 L6.84779231,1.96162701 Z" id="Path" fill="#F5A623"></path>
                <path d="M9.8858643,3.47126639 C9.21759409,3.30379301 8.69601948,2.78192379 8.52864392,2.11405439 L8.499868,2 L8.47126808,2.11405439 C8.30389252,2.78192379 7.78214191,3.30370501 7.1136957,3.47126639 L7,3.50013201 L7.1136957,3.52846959 C7.78214191,3.69603098 8.30389252,4.21754818 8.47126808,4.88594561 L8.499868,5 L8.52864392,4.88594561 C8.69601948,4.21754818 9.21759409,3.69611898 9.8858643,3.52846959 L10,3.50013201 L9.8858643,3.47126639 Z" id="Path" fill="#F5A623"></path>
                <path d="M18.6747917,7 L3,9.99504225 C3,9.99673239 3,9.99830986 3,10 L21,10 C19.9168194,9.50952113 19.0413969,8.41825352 18.6747917,7 Z" id="Path" fill="#8AC9F9"></path>
                <path d="M21.6647704,7.52631231 C21.5221932,6.54594823 20.6498234,5.87066931 19.7200524,6.02091993 L1.44754477,8.97483016 C0.517773788,9.12508078 -0.122656396,10.0450051 0.0198403264,11.0252842 L1.29546776,19.7989019 C1.30545059,19.8676606 1.31937823,19.9345518 1.33628462,20 L1.33628462,11.5590559 C1.33628462,10.5672321 2.10158058,9.76037775 3.04221996,9.76037775 L3.76911426,9.76037775 C3.76919476,9.75910444 3.76919476,9.75791602 3.76919476,9.75664271 L17.7271915,7.50025189 C18.0536459,8.56881393 18.8331915,9.39086309 19.7977413,9.76037775 L21.5281507,9.76037775 C21.6919817,9.76037775 21.8499357,9.7862684 22,9.83185291 L21.6647704,7.52631231 Z" id="Path" fill="#F5A623"></path>
                <path d="M20.0156456,8 L4.9843544,8 C4.73823622,9.63695987 3.53018327,10.929147 2,11.192333 L2,15.807392 C3.53026896,16.0705779 4.73823622,17.3629485 4.9843544,19 L16.8072825,19 C16.8742109,18.5905079 17.2643836,18.2758948 17.7370814,18.2758948 C17.2174224,18.2758948 16.7961421,17.8959207 16.7961421,17.4273928 L16.7961421,17.0669445 C16.7961421,16.5985999 17.2174224,16.2185341 17.7370814,16.2185341 C17.2174224,16.2185341 16.7961421,15.8387433 16.7961421,15.3700321 L16.7961421,15.0096754 C16.7961421,14.5410559 17.2174224,14.1610817 17.7370814,14.1610817 L23,14.1610817 L23,11.1922413 C21.4698167,10.929147 20.2617638,9.63705154 20.0156456,8 Z" id="Path" fill="#EF5C6E"></path>
                <path d="M12.0000434,7 C9.79085805,7 8,8.79077117 8,10.9998697 C8,13.2092288 9.79085805,15 12.0000434,15 C14.2092288,15 16,13.2092288 16,10.9998697 C15.9999131,8.79077117 14.2092288,7 12.0000434,7 Z" id="Path" fill="#F5A623"></path>
                <path d="M21.2860284,7 L2.71389076,7 C1.76886482,7 1,7.84099277 1,8.87458402 L1,18.125239 C1,19.1589188 1.76886482,20 2.71389076,20 L16.5286267,20 C16.494818,19.9833677 16.4624652,19.9647006 16.4314065,19.9445295 C16.427605,19.9420524 16.4240462,19.9393983 16.4203257,19.9368326 C16.3938772,19.9190502 16.3684803,19.8998523 16.3443774,19.8795043 C16.3399289,19.8757886 16.3353995,19.8721613 16.3310319,19.8683571 C16.2782968,19.8221759 16.2318705,19.7698019 16.1927236,19.7128274 C16.1881942,19.7063691 16.1839883,19.6997339 16.1797015,19.6930102 C16.1640913,19.6687695 16.1496943,19.6436441 16.1367532,19.617811 C16.1342458,19.6126797 16.1312532,19.6078139 16.1287459,19.6025057 C16.1143488,19.5722491 16.1020548,19.5406654 16.0917019,19.508374 C16.0894372,19.5012964 16.0876578,19.4939534 16.0856357,19.4867874 C16.0781137,19.4608658 16.0720475,19.4344133 16.0672755,19.407607 C16.065577,19.3983177 16.0638784,19.3888515 16.0625843,19.3794737 C16.0578932,19.3454128 16.0546579,19.3109097 16.0546579,19.2756987 L16.0546579,18.9279244 C16.0546579,18.905807 16.0563564,18.883955 16.0582976,18.8622799 C16.0599961,18.8441436 16.0623417,18.8262728 16.0651726,18.8084904 C16.0652534,18.808225 16.0652534,18.808048 16.0653343,18.8078711 L4.9065224,18.8078711 C4.67422914,17.2279796 3.5340348,15.980734 2.08980482,15.7267376 L2.08980482,11.2728201 C3.53411568,11.0188236 4.67422914,9.77175503 4.9065224,8.19195198 L19.0934776,8.19195198 C19.32569,9.77175503 20.4659652,11.0188236 21.9101143,11.2728201 L21.9101143,14.1379991 L23,14.1379991 L23,8.87449555 C23,7.8409043 22.2311352,7 21.2860284,7 Z" id="Path" fill="#D0021B"></path>
                <path d="M13.597099,11.0468772 C13.328371,10.8251246 12.9078156,10.6488146 12.3358145,10.5185025 L12.3134841,10.5185025 L12.3134841,9.15790773 C12.6965359,9.21112465 13.0522951,9.35106202 13.3807615,9.57771985 L13.8657315,8.91181416 C13.3781849,8.58871801 12.8607692,8.40768792 12.3134841,8.36900153 L12.3134841,8 L11.8358622,8 L11.8358622,8.36187509 C11.3531826,8.38612349 10.9614467,8.53078098 10.6605592,8.79603264 C10.3593854,9.0614694 10.2089894,9.40289068 10.2089894,9.82011137 C10.2089894,10.2376097 10.3395362,10.5524688 10.6007253,10.7645035 C10.8619143,10.977001 11.2734994,11.1482207 11.8357668,11.2786253 L11.8357668,12.6826266 C11.392881,12.6150642 10.9625919,12.4051582 10.5448039,12.0528159 L10,12.6826266 C10.5422273,13.1412177 11.1541178,13.4042481 11.8357668,13.4714403 L11.8357668,14 L12.3133887,14 L12.3133887,13.4786592 C12.820689,13.4546885 13.2287432,13.310031 13.5373604,13.0445017 C13.845596,12.7793426 14,12.435515 14,12.013204 C14,11.590893 13.865636,11.2690925 13.597099,11.0468772 Z M11.8357668,10.3883756 C11.5572097,10.30147 11.3681649,10.2110475 11.2685371,10.1168304 C11.1689092,10.0227984 11.119477,9.89507782 11.119477,9.73329837 C11.119477,9.57161147 11.1827464,9.43657931 11.3097624,9.32792423 C11.4365875,9.21926915 11.6120813,9.15559395 11.8358622,9.1361582 L11.8358622,10.3883756 L11.8357668,10.3883756 Z M12.8804275,12.5016891 C12.7411967,12.6127505 12.5523428,12.6803128 12.3134841,12.7042836 L12.3134841,11.4017184 C12.6118904,11.4885314 12.816013,11.5813602 12.9253746,11.6802974 C13.0348316,11.7791421 13.0896078,11.9132487 13.0896078,12.0819695 C13.0895124,12.2510605 13.0198492,12.3907202 12.8804275,12.5016891 Z" id="Shape" fill="#FFFFFF"></path>
                <path d="M23.0677271,18 L15.9322729,18 C15.4174002,18 15,18.3694693 15,18.8249343 L15,19.175244 C15,19.6306198 15.4174002,20 15.9322729,20 L23.0677271,20 C23.5825998,20 24,19.6306198 24,19.175244 L24,18.8249343 C24,18.3693802 23.5825998,18 23.0677271,18 Z" id="Path" fill="#FFBE1B"></path>
                <path d="M23.0677271,16 L15.9322729,16 C15.4174002,16 15,16.3693802 15,16.824756 L15,17.1751548 C15,17.6306198 15.4174002,18 15.9322729,18 L23.0677271,18 C23.5825998,18 24,17.6306198 24,17.1751548 L24,16.824756 C24,16.3693802 23.5825998,16 23.0677271,16 Z" id="Path" fill="#FFCA45"></path>
                <path d="M23.0677271,15 L15.9322729,15 C15.4174002,15 15,15.3693637 15,15.8248975 L15,16.1751916 C15,16.6307254 15.4174002,17 15.9322729,17 L23.0677271,17 C23.5825998,17 24,16.6308145 24,16.1751916 L24,15.8248975 C24,15.3693637 23.5825998,15 23.0677271,15 Z" id="Path" fill="#FFE37B"></path>
            </g>
        </g>
    </g>
</svg>