<?xml version="1.0" encoding="UTF-8"?>
<svg width="28px" height="26px" viewBox="0 0 28 26" version="1.1" xmlns="http://www.w3.org/2000/svg" xmlns:xlink="http://www.w3.org/1999/xlink">
    <!-- Generator: Sketch 56.3 (81716) - https://sketch.com -->
    <title>ZB.COM/Icon/32/pop_recharge</title>
    <desc>Created with Sketch.</desc>
    <g id="ZB.com" stroke="none" stroke-width="1" fill="none" fill-rule="evenodd">
        <g id="assets-01" transform="translate(-128.000000, -347.000000)" fill="#666666">
            <g id="ZB.COM/4_Assets/assets_button_03" transform="translate(105.000000, 332.000000)">
                <g id="ZB.COM/Icon/32/pop_withdraw" transform="translate(22.493506, 12.000000)">
                    <path d="M4.02198235,21.8398936 C7.48980185,20.8379583 9.61963889,15.1479771 8.68049698,13 C12.9422129,20.1196453 5.51705921,24.2609509 5.51705921,24.2609509 L6.59097517,26 L1,25.396731 L3.0524119,20.1844624 C3.38018637,20.715245 3.71019544,21.3350005 4.02198235,21.8398936 Z M20.0043172,17.1749052 C20.5048422,17.8048265 20.6955185,18.6680519 20.4810077,19.4846165 C20.1711589,20.7911199 18.8125909,21.584354 17.4778574,21.2810586 L16.5721454,21.0477544 L16.0477858,22.9375182 C16.0001168,23.0541703 15.9047787,23.1008311 15.7856061,23.0775007 L15.1182393,22.8908574 C15.0229012,22.8441966 14.9513976,22.7508749 14.9752322,22.6342228 L15.4995917,20.744459 L14.4032035,20.464494 L13.878844,22.3542578 C13.8311749,22.4709099 13.7358368,22.5175707 13.6166642,22.4942403 L12.9254629,22.307597 C12.8301248,22.2609361 12.7586212,22.1676145 12.7824557,22.0509624 L13.3068153,20.1611986 L11.161708,19.6012686 C11.1378734,19.5779382 11.1378734,19.5779382 11.1140389,19.5779382 C11.0187008,19.5312773 10.9710317,19.4146253 11.0187008,19.3213036 L11.3285496,18.6913823 C11.3762187,18.5980607 11.4715568,18.5513998 11.5668949,18.5747302 C11.5907294,18.5980607 11.614564,18.5980607 11.6383985,18.5980607 C12.1865926,18.6680519 12.7109522,18.3180957 12.8062903,17.7814961 L13.9026785,13.7220035 C14.0695202,13.1154127 13.7835058,12.5088218 13.0446355,12.2521872 C12.9492974,12.2055264 12.9016284,12.0888743 12.9254629,11.9955526 L13.1161391,11.342301 C13.1638082,11.2256489 13.2591463,11.178988 13.3783189,11.2023185 L15.6187644,11.7855789 L16.1431239,9.89581511 C16.190793,9.77916302 16.2861311,9.73250219 16.4053037,9.7558326 L17.0726705,9.94247594 C17.1680086,9.98913677 17.2395122,10.0824584 17.2156776,10.1991105 L16.691318,12.0888743 L17.7877063,12.3688393 L18.3120658,10.4790755 C18.3597349,10.3624234 18.455073,10.3157626 18.5742456,10.339093 L19.2416124,10.5257364 C19.3369505,10.5723972 19.408454,10.6657189 19.3846195,10.782371 L18.8602599,12.6721347 L19.2416124,12.7654564 C20.5286768,13.0920822 21.2675471,14.4685768 20.9100292,15.821741 C20.767022,16.3350102 20.4333387,16.824949 20.0043172,17.1749052 Z M16.238462,13.6520122 L15.6425989,15.7984106 L17.3110157,16.2416885 C17.3110157,16.265019 17.3348503,16.265019 17.3586848,16.265019 C17.9783825,16.4283319 18.5980801,16.0550452 18.7410873,15.4484544 C18.907929,14.8418635 18.5265766,14.2352727 17.9068789,14.0952902 L16.238462,13.6520122 Z M17.0011669,19.5312773 C17.0250014,19.5312773 17.0250014,19.5312773 17.0488359,19.5312773 C17.6685336,19.6945903 18.2882313,19.3213036 18.4312385,18.7147127 C18.5980801,18.1081219 18.2167277,17.5015311 17.59703,17.3615486 L15.3804191,16.7782881 L14.7845559,18.9480169 L17.0011669,19.5312773 Z M16,28.5 C15.4477153,28.5 15,28.0522847 15,27.5 C15,26.9477153 15.4477153,26.5 16,26.5 C21.7989899,26.5 26.5,21.7989899 26.5,16 C26.5,10.2010101 21.7989899,5.5 16,5.5 C12.3487048,5.5 9.02080223,7.37756286 7.109547,10.4105952 C6.81510936,10.8778477 6.19763749,11.0179419 5.73038496,10.7235042 C5.26313243,10.4290666 5.12303827,9.81159472 5.4174759,9.34434219 C7.69123977,5.73603329 11.6545163,3.5 16,3.5 C22.9035594,3.5 28.5,9.09644063 28.5,16 C28.5,22.9035594 22.9035594,28.5 16,28.5 Z" id="Combined-Shape"></path>
                </g>
            </g>
        </g>
    </g>
</svg>