<?xml version="1.0" encoding="UTF-8"?>
<svg width="23px" height="27px" viewBox="0 0 23 27" version="1.1" xmlns="http://www.w3.org/2000/svg" xmlns:xlink="http://www.w3.org/1999/xlink">
    <!-- Generator: Sketch 56.3 (81716) - https://sketch.com -->
    <title>货币</title>
    <desc>Created with Sketch.</desc>
    <g id="资金" stroke="none" stroke-width="1" fill="none" fill-rule="evenodd">
        <g id="Home" transform="translate(-23.000000, -1086.000000)" fill-rule="nonzero">
            <g id="货币" transform="translate(23.000000, 1086.000000)">
                <polygon id="Path" fill="#1E2737" points="21 20 20.3644313 20 20.3644313 9.1127445 11.4984422 3.76706816 2.63556869 9.1127445 2.63556869 18.376424 2 18.376424 2 8.7309181 11.4984422 3 21 8.7309181"></polygon>
                <circle id="Oval" fill="#FFCF22" cx="11.5" cy="8.5" r="6.5"></circle>
                <path d="M11.5000269,3.34666458 C14.8553161,3.34666458 17.6157434,5.82198871 17.9632609,9 C17.9866257,8.77880594 18,8.55437056 18,8.32664157 C18,4.8331765 15.0892324,2 11.4999731,2 C7.91071392,2 5,4.83312422 5,8.32664157 C5,8.55431828 5.01337432,8.77880594 5.0367391,9 C5.38436399,5.82198871 8.14479137,3.34666458 11.5000269,3.34666458 Z" id="Path" fill="#FFFFFF"></path>
                <path d="M11.5,16 C7.91784294,16 5,12.8611062 5,8.99997249 C5,5.13883879 7.91472673,2 11.5,2 C15.0852733,2 18,5.13883879 18,9.00002751 C18,12.8612162 15.0822081,16 11.5,16 Z M11.5,2.68802043 C8.26752228,2.68802043 5.63570631,5.52223991 5.63570631,9.00343845 C5.63570631,12.484637 8.2674712,15.3188565 11.5,15.3188565 C14.7325288,15.3188565 17.3642937,12.484637 17.3642937,9.00343845 C17.3642937,5.52223991 14.7325799,2.68802043 11.5,2.68802043 Z" id="Shape" fill="#1E2737"></path>
                <g id="Group" transform="translate(0.000000, 5.000000)" fill="#FFFFFF">
                    <path d="M13.2270888,6.68370476 C12.9072664,7.01941429 12.4723037,7.2410381 11.9318645,7.34532857 L11.9318645,7.77878095 C11.9318645,7.96132857 11.8742944,8.10794286 11.7623925,8.22202857 C11.6504393,8.33281429 11.5033785,8.39148095 11.324243,8.39148095 C11.1451075,8.39148095 10.9980467,8.33611429 10.8860935,8.22202857 C10.7741402,8.11124286 10.7166215,7.96132857 10.7166215,7.77878095 L10.7166215,7.38120952 C10.0737897,7.29970476 9.52692523,7.10746667 9.0696028,6.80758571 C8.96407477,6.74237143 8.89046729,6.67071429 8.84893458,6.5859619 C8.80416355,6.50445714 8.78493925,6.39367143 8.78493925,6.26004762 C8.78493925,6.08404762 8.83608411,5.93088571 8.93523832,5.80050952 C9.03757944,5.67013333 9.15590654,5.60497143 9.29664486,5.60497143 C9.36701402,5.60497143 9.43414486,5.61801429 9.50451402,5.6408 C9.57488318,5.66358571 9.66442523,5.7092619 9.77314019,5.77442381 C10.0289673,5.91454286 10.2656215,6.01558571 10.4831028,6.07430476 C10.703771,6.13297143 10.9372383,6.16230476 11.1866916,6.16230476 C11.493715,6.16230476 11.7271822,6.11018571 11.8839065,6.00914286 C12.0438178,5.90485238 12.1237477,5.75169048 12.1237477,5.54635714 C12.1237477,5.42252857 12.0757897,5.32148571 11.9798224,5.23998095 C11.8838551,5.16172381 11.765528,5.09661429 11.6248411,5.0509381 C11.4841542,5.00531429 11.2762336,4.9434 11.0044206,4.8749381 C10.5694579,4.76415238 10.2144766,4.65006667 9.93623832,4.53598095 C9.658,4.42189524 9.41810748,4.24264762 9.21666355,3.99818571 C9.01516822,3.75377619 8.9128271,3.4245619 8.9128271,3.01394762 C8.9128271,2.54136667 9.07592523,2.13394762 9.39893458,1.78524762 C9.72194393,1.43654762 10.1505327,1.20837619 10.6814112,1.09429048 L10.6814112,0.651095238 C10.6814112,0.475095238 10.7389813,0.328428571 10.8541215,0.214342857 C10.9692617,0.100257143 11.1131355,0.0416428571 11.2890841,0.0416428571 C11.4682196,0.0416428571 11.6152804,0.0970095238 11.7272336,0.211095238 C11.8391869,0.321880952 11.8967056,0.471795238 11.8967056,0.654342857 L11.8967056,1.06825714 C12.3764393,1.14651429 12.8433738,1.32895714 13.3006963,1.62559048 C13.4062243,1.6973 13.4798318,1.77550476 13.5213645,1.86025714 C13.5661355,1.94500952 13.5853598,2.0493 13.5853598,2.17312857 C13.5853598,2.34912857 13.534215,2.50229048 13.4286869,2.63266667 C13.3231589,2.76304286 13.2015935,2.82820476 13.0640935,2.82820476 C12.9937243,2.82820476 12.9297804,2.8151619 12.865785,2.79237619 C12.8017897,2.76959048 12.7091121,2.72391429 12.5875467,2.65875238 C12.546014,2.63596667 12.4564206,2.58704286 12.3189206,2.51208571 C12.1814206,2.43712857 12.0310701,2.3784619 11.8711589,2.33608571 C11.7112477,2.2904619 11.5417243,2.27087143 11.3626916,2.27087143 C11.1036776,2.27087143 10.8925701,2.3295381 10.7294206,2.44357143 C10.5663224,2.55765714 10.4863411,2.71406667 10.4863411,2.90635714 C10.4863411,3.0954 10.5791215,3.23551905 10.7645794,3.33006667 C10.9500888,3.42461429 11.2410748,3.51910952 11.6408785,3.61360476 C12.0694673,3.71464762 12.4212617,3.8189381 12.6962617,3.93302381 C12.9712617,4.04380952 13.2079673,4.22305714 13.4062243,4.47081905 C13.6045327,4.71852857 13.7068738,5.0509381 13.7068738,5.4681 C13.7068224,5.94062857 13.5469112,6.34799524 13.2270888,6.68370476 Z" id="Path"></path>
                    <path d="M3.5558785,20.7629714 L0.165771028,20.7629714 C0.076228972,20.7629714 0.00585981308,20.6912619 0.00585981308,20.6000143 L0.00585981308,13.6940048 C0.00585981308,13.6027571 0.076228972,13.5310476 0.165771028,13.5310476 L3.5558271,13.5310476 C3.64536916,13.5310476 3.71573832,13.6027571 3.71573832,13.6940048 L3.71573832,20.6032619 C3.71573832,20.6912619 3.64542056,20.7629714 3.5558785,20.7629714 Z" id="Path"></path>
                    <path d="M3.71573832,19.8992619 L11.858257,21.9492429 C12.1428692,22.0209524 12.4435187,21.9948667 12.7121449,21.8742857 L21.0082009,18.136119 C21.8333037,17.764581 22.2171215,16.7868381 21.8717523,15.9362238 L21.8717523,15.9362238 C21.5455047,15.1246857 20.6628318,14.7042762 19.8376776,14.9650286 L13.3070187,17.0508381 L10.179215,17.1453857 L12.1556682,17.4485143 C12.814486,17.5495571 13.4413318,17.1356429 13.6236542,16.4838667 L13.6236542,16.4838667 C13.8283364,15.7538333 13.3965607,14.9944667 12.6737991,14.8087238 L8.05564953,13.6321952 C7.78383645,13.5637333 7.49598598,13.5833238 7.23692056,13.6908619 L3.71573832,15.144381 L3.71573832,19.8992619 L3.71573832,19.8992619 Z" id="Path"></path>
                </g>
                <rect id="Rectangle" fill="#E91C41" x="0" y="20" width="4" height="6"></rect>
                <path d="M4,24 L3.39994214,24 L3.39994214,23 L3.99995178,23 L4,24 L4,24 Z M2.7999325,24 L2.19997107,24 L2.19997107,23 L2.79998071,23 L2.79998071,24 L2.7999325,24 Z M1.59996143,24 L1,24 L1,23 L1.60000964,23 L1.60000964,24 L1.59996143,24 Z" id="Shape" fill="#FFFFFF"></path>
                <path d="M4,21.7898712 L7.82898342,20.1138504 C8.08139167,20.0012035 8.36363629,19.9714448 8.63595324,20.0277149 L14.3313379,21.1870297 C14.3313379,21.1870297 13.9760235,22.5649304 12.4516998,22.3363893 C11.5949315,22.2072394 10.7115293,22.0747357 10.7115293,22.0747357 L10.8144888,22.4523368 C10.9938273,23.1247574 11.5118807,23.6580199 12.1793828,23.8633501 L12.1793828,23.8633501 C12.5878049,23.9858988 13.0229142,23.9792976 13.4247178,23.8368387 L22.7033495,20.5609774 C22.7033495,20.5609774 23.7328378,21.879254 21.9561592,23.0815832 C20.1794805,24.2839125 12.9067178,27 12.9067178,27 L4.26238928,24.9430774 L4,21.7898712 Z" id="Path" fill="#FFCF22"></path>
                <g id="Group" fill="#1E2737">
                    <path d="M3.96401357,25.7662793 L0.532070136,25.7662793 C0.263355204,25.7662793 0.0464162896,25.5464297 0.0464162896,25.2741094 L0.0464162896,18.3215566 C0.0464162896,18.0492363 0.263355204,17.8293867 0.532070136,17.8293867 L3.96396154,17.8293867 C4.23267647,17.8293867 4.44961538,18.0492363 4.44961538,18.3215566 L4.44961538,25.2774316 C4.44961538,25.5464824 4.23272851,25.7662793 3.96401357,25.7662793 Z M0.693954751,25.1101055 L3.80207692,25.1101055 L3.80207692,18.4856133 L0.693954751,18.4856133 L0.693954751,25.1101055 Z" id="Shape"></path>
                    <path d="M12.8707376,22.4458594 C12.7897692,22.4458594 12.7056267,22.4393203 12.6247104,22.4261895 L10.6238665,22.1210156 L10.7210181,21.4713281 L12.721862,21.776502 C13.2236991,21.8519648 13.7093529,21.5369824 13.8485498,21.041543 C13.9230136,20.7724922 13.890595,20.4903105 13.7513982,20.2475215 C13.6122014,20.0047324 13.38881,19.834084 13.120095,19.7652129 L8.44495475,18.5807461 C8.23452036,18.5282754 8.01758145,18.5414063 7.81687783,18.6266777 L4.25224208,20.0900039 L4.00944118,19.4830313 L7.57407692,18.0197051 C7.90429864,17.8851797 8.25720814,17.8589707 8.60366516,17.9475117 L13.2788054,19.1319785 C13.7191357,19.2435645 14.0882285,19.5256934 14.3148462,19.9227305 C14.5414638,20.3197148 14.5997443,20.7823535 14.4734525,21.2253223 C14.262914,21.9536895 13.6024186,22.4458594 12.8707376,22.4458594 Z" id="Path"></path>
                    <path d="M12.6893914,27 C12.5566471,27 12.4206765,26.9835996 12.2912104,26.9507988 L4.04820814,24.8869863 L4.20358824,24.2504824 L12.4465905,26.3142949 C12.6635294,26.3700352 12.8966516,26.3470957 13.1006335,26.2552324 L21.4990679,22.4918437 C22.1789729,22.1866699 22.4897851,21.3992402 22.2048869,20.7036738 C21.9329457,20.0375859 21.2173959,19.6996641 20.5407692,19.9161914 L13.9294661,22.0160742 L13.7352149,21.3894316 L20.3464661,19.2895488 C20.8256154,19.138623 21.3436878,19.1714238 21.7969231,19.3880039 C22.2534367,19.604584 22.6095724,19.9818984 22.8005973,20.4543457 C23.0013529,20.9497852 23.0045792,21.4944785 22.8103281,21.9898652 C22.6127986,22.4853047 22.2404796,22.8790723 21.7581041,23.0955469 L13.3661742,26.855666 C13.1524095,26.9507988 12.9225136,27 12.6893914,27 Z" id="Path"></path>
                    <ellipse id="Oval" cx="2.24785973" cy="19.6866914" rx="1" ry="1"></ellipse>
                    <path d="M3.6564276,8.22893555 L3.00888914,8.18632617 C3.0250724,7.9599375 3.04770814,7.73354883 3.0801267,7.51042969 L3.72121267,7.60561523 C3.69202036,7.80901172 3.66933258,8.01894727 3.6564276,8.22893555 Z M3.83449548,6.98213672 L3.20319231,6.83780273 C3.25174208,6.61795313 3.31002262,6.39483398 3.37803394,6.17830664 L3.99638009,6.37189453 C3.93482127,6.57202148 3.879819,6.77874023 3.83449548,6.98213672 Z M4.20036199,5.77794727 L3.59814706,5.5351582 C3.67911538,5.32516992 3.77298869,5.11518164 3.87008824,4.91178516 L4.45284163,5.20050586 C4.36219457,5.39082422 4.278,5.58441211 4.20036199,5.77794727 Z M18.6401471,4.79366016 C18.5397692,4.60988086 18.4297127,4.42947656 18.3131516,4.25555859 L18.8506335,3.891375 C18.9736471,4.07842383 19.0934344,4.27522852 19.203543,4.47213867 L18.6401471,4.79366016 Z M4.75074887,4.64600391 L4.19063122,4.31135156 C4.30396606,4.11776367 4.42697964,3.92417578 4.55649774,3.73717969 L5.08747511,4.11449414 C4.96763575,4.28841211 4.8543009,4.46554688 4.75074887,4.64600391 Z M17.9473371,3.74698828 C17.817819,3.58293164 17.6818484,3.42214453 17.5426516,3.26794922 L18.0185747,2.82171094 C18.1707285,2.98903711 18.3164819,3.16295508 18.4556787,3.34008984 L17.9473371,3.74698828 Z M5.46302036,3.61573242 L4.96446154,3.19575586 C5.10688462,3.02189063 5.25586425,2.85124219 5.41124434,2.68718555 L5.87748869,3.14328516 C5.73496154,3.29421094 5.59576471,3.45167578 5.46302036,3.61573242 Z M17.1023213,2.81844141 C16.9501674,2.67737695 16.791509,2.5363125 16.6296244,2.40832617 L17.0310837,1.8932168 C17.2059253,2.03428125 17.3774887,2.1819375 17.5425995,2.33618555 L17.1023213,2.81844141 Z M6.3274457,2.7069082 L5.89684615,2.21806055 C6.06195701,2.06713477 6.23679864,1.92274805 6.41486652,1.78495313 L6.80659502,2.30660156 C6.6415362,2.43131836 6.47959955,2.56579102 6.3274457,2.7069082 Z M16.1310136,2.03755078 C15.9594502,1.91942578 15.7813303,1.80789258 15.6032624,1.70616797 L15.9238054,1.13526563 C16.1180566,1.24679883 16.3090814,1.36824609 16.4968801,1.49291016 L16.1310136,2.03755078 Z M7.31493665,1.94241797 L6.96525339,1.39118555 C7.15305204,1.26979102 7.34730317,1.15166602 7.54478054,1.04340234 L7.85236652,1.62089648 C7.66784615,1.72256836 7.48977828,1.83088477 7.31493665,1.94241797 Z M15.046371,1.414125 C14.8585724,1.32553125 14.6675995,1.2435293 14.4732964,1.16806641 L14.699914,0.554501953 C14.9103484,0.633287109 15.1176086,0.721828125 15.3182602,0.820230469 L15.046371,1.414125 Z M8.40925792,1.34520117 L8.14704751,0.744767578 C8.35102941,0.652904297 8.5614638,0.567580078 8.77189819,0.492117188 L8.9888371,1.1122207 C8.79125566,1.18119727 8.59705656,1.25992969 8.40925792,1.34520117 Z M13.8840905,0.971208984 C13.6865611,0.912146484 13.4826312,0.862945313 13.2786493,0.820283203 L13.4081674,0.1771875 C13.6283326,0.223119141 13.8452715,0.278912109 14.0622104,0.341244141 L13.8840905,0.971208984 Z M9.58126923,0.925277344 L9.41293213,0.292042969 C9.62987104,0.232980469 9.8500362,0.183779297 10.0702014,0.141117188 L10.1867624,0.787482422 C9.98278054,0.826822266 9.77879864,0.872753906 9.58126923,0.925277344 Z M12.6667557,0.718558594 C12.4627738,0.692296875 12.2523394,0.672626953 12.0484095,0.662818359 L12.080776,0.00659179688 C12.3041674,0.016453125 12.5308371,0.0361230469 12.7510023,0.0656542969 L12.6667557,0.718558594 Z M10.8018824,0.698888672 L10.733871,0.0459316406 C10.9540362,0.0229921875 11.1806538,0.00659179688 11.4040973,4.4408921e-16 L11.4235068,0.656226563 C11.2162986,0.662818359 11.0090905,0.675896484 10.8018824,0.698888672 Z" id="Shape"></path>
                    <path d="M3.6564276,8.22893555 L3.00888914,8.18632617 C3.1545905,5.96831836 4.1194457,3.90455859 5.72200452,2.37884766 C7.33439819,0.843222656 9.43884615,0 11.6533507,0 L11.6533507,0.656226563 C7.447681,0.652957031 3.93482127,3.97996875 3.6564276,8.22893555 Z" id="Path"></path>
                    <path d="M11.6889434,17.5537969 L11.6857172,16.8975703 C11.8929253,16.8975703 12.1034118,16.887709 12.3073416,16.8713086 L12.3591176,17.5242656 C12.1390045,17.5439355 11.9156131,17.5537969 11.6889434,17.5537969 Z M11.0188213,17.5308047 C10.7954299,17.5144043 10.5720385,17.4881953 10.3518733,17.4553418 L10.4490249,16.8056543 C10.6530068,16.8351855 10.8602149,16.8613945 11.067371,16.8745781 L11.0188213,17.5308047 Z M13.0293439,17.4455332 L12.9257398,16.7958457 C13.1297217,16.7630449 13.3337036,16.7203828 13.5344072,16.6711816 L13.6865611,17.3076855 C13.4729525,17.3634785 13.249509,17.4093574 13.0293439,17.4455332 Z M9.69137783,17.3274082 C9.47443891,17.2749375 9.25427376,17.2158223 9.04383937,17.1468984 L9.2380905,16.5202559 C9.43561991,16.5826406 9.63627149,16.6383809 9.83702715,16.687582 L9.69137783,17.3274082 Z M14.3340995,17.123959 L14.1333439,16.5005859 C14.3308733,16.4349316 14.5250724,16.362791 14.7160973,16.2807363 L14.9654027,16.887709 C14.7615249,16.9763027 14.5478122,17.0550352 14.3340995,17.123959 Z M8.40925792,16.9172402 C8.20204977,16.831916 7.99484163,16.7367305 7.79736425,16.6383809 L8.08548869,16.0510781 C8.27006109,16.1429414 8.46103394,16.2315352 8.65205882,16.3102676 L8.40925792,16.9172402 Z M15.5774005,16.6055273 L15.2827715,16.0214941 C15.4673439,15.9263086 15.648638,15.8246367 15.8267059,15.7130508 L16.1634321,16.2741445 C15.9723552,16.389 15.7748778,16.5005859 15.5774005,16.6055273 Z M7.20488009,16.3102148 C7.0138552,16.1953594 6.82283032,16.0674258 6.6415362,15.9361699 L7.01708145,15.4013379 C7.18541855,15.5227324 7.36026018,15.6375879 7.53832805,15.7458516 L7.20488009,16.3102148 Z M16.7234977,15.8935078 L16.3447262,15.3619453 C16.5130633,15.2405508 16.6782262,15.1092949 16.8336063,14.9715 L17.2513009,15.4734785 C17.0829118,15.6211875 16.9047919,15.7623047 16.7234977,15.8935078 Z M6.11050679,15.5227852 C5.93894344,15.3784512 5.7705543,15.2242031 5.61194796,15.0666855 L6.06523529,14.5975078 C6.2141629,14.7451641 6.36959502,14.8862285 6.52820136,15.0208066 L6.11050679,15.5227852 Z M17.7466335,15.0142148 L17.2933462,14.5483066 C17.4390475,14.4006504 17.5847489,14.2464023 17.7174932,14.0889375 L18.2063733,14.5155059 C18.0606199,14.6893711 17.9052398,14.85675 17.7466335,15.0142148 Z M5.14570362,14.5712461 C4.99677602,14.4006504 4.8543009,14.2234629 4.72155656,14.0430059 L5.23957692,13.649291 C5.3625905,13.8166172 5.49533484,13.9806738 5.63130543,14.1381387 L5.14570362,14.5712461 Z M18.6272421,13.9839434 L18.1059434,13.593498 C18.228957,13.4261719 18.3455181,13.2489844 18.4556267,13.0718496 L19.0060136,13.4196328 C18.8862783,13.613168 18.7599864,13.8035391 18.6272421,13.9839434 Z M4.33955882,13.4819648 C4.21977149,13.2916465 4.10643665,13.0915195 3.99960633,12.8946621 L4.572681,12.5862188 C4.66983258,12.769998 4.7766629,12.9536719 4.88677149,13.1309121 L4.33955882,13.4819648 Z M19.3395136,12.8290078 L18.7664389,12.5271035 C18.8635905,12.3400547 18.9510113,12.1497891 19.0319276,11.9562012 L19.627638,12.2121211 C19.5402692,12.4221621 19.4431176,12.6288809 19.3395136,12.8290078 Z M3.70820362,12.2810977 C3.66288009,12.1761035 3.61755656,12.0678398 3.57868552,11.9595234 L4.18090045,11.7200039 C4.21971946,11.818459 4.25864253,11.9168613 4.30068778,12.0153164 L3.70820362,12.2810977 Z M19.8672647,11.5756699 L19.2521448,11.3656816 C19.3169299,11.1688242 19.3783846,10.9654277 19.4269864,10.7619785 L20.0550633,10.9227129 C20.000009,11.1392402 19.9385023,11.3623594 19.8672647,11.5756699 Z M20.1942602,10.2533555 L19.5564525,10.1450918 C19.5920452,9.93837305 19.6179593,9.72838477 19.6374208,9.51844922 L20.281733,9.57751172 C20.2589932,9.80390039 20.2298529,10.0302363 20.1942602,10.2533555 Z M20.3140475,8.89829297 L19.666509,8.88843164 C19.666509,8.8490918 19.666509,8.81296875 19.666509,8.77357617 C19.666509,8.60298047 19.6600566,8.4290625 19.6503258,8.2584668 L20.2978643,8.21585742 C20.3108213,8.39963672 20.3140475,8.58663281 20.3140475,8.77362891 C20.3172738,8.81623828 20.3172738,8.85890039 20.3140475,8.89829297 Z" id="Shape"></path>
                    <path d="M11.6533507,17.5537969 L11.6533507,16.8975703 C16.072733,16.8975703 19.6697353,13.2523066 19.6697353,8.77362891 C19.6697353,8.6030332 19.6632828,8.42911523 19.653552,8.25851953 L20.3010905,8.21591016 C20.3140475,8.39968945 20.3172738,8.58668555 20.3172738,8.77368164 C20.3172738,11.1196758 19.4172036,13.3245527 17.778948,14.9814668 C16.1439706,16.6416504 13.9682851,17.5537969 11.6533507,17.5537969 Z" id="Path"></path>
                </g>
            </g>
        </g>
    </g>
</svg>