<?xml version="1.0" encoding="UTF-8"?>
<svg width="316px" height="167px" viewBox="0 0 316 167" version="1.1" xmlns="http://www.w3.org/2000/svg" xmlns:xlink="http://www.w3.org/1999/xlink">
    <!-- Generator: Sketch 56.3 (81716) - https://sketch.com -->
    <title>Incomes</title>
    <desc>Created with Sketch.</desc>
    <defs>
        <path d="M166.629544,114.760138 C167.964203,114.406516 169.332826,115.201805 169.686448,116.536464 C170.040069,117.871124 169.244781,119.239747 167.910121,119.593369 C162.875363,120.927341 157.689608,121.611481 152.464815,121.629188 C126.027276,121.570013 102.77289,104.039929 95.4040358,78.6163495 C88.0346176,53.1908244 98.3249368,25.9832968 120.655013,11.8594621 C143.79219,-2.77486684 176.409671,0.0777235393 195.339035,19.6048453 C196.300054,20.5962118 196.275453,22.1789331 195.284086,23.1399522 C194.29272,24.1009713 192.709999,24.0763699 191.74898,23.0850035 C174.514635,5.30642765 144.516913,2.68295048 123.327768,16.0851433 C102.880116,29.0183394 93.4561603,53.9352083 100.206383,77.2244214 C106.957169,100.51558 128.260658,116.574999 152.461919,116.629209 C157.246088,116.612959 162.007195,115.984841 166.629544,114.760138 Z" id="path-1"></path>
        <filter x="-7.8%" y="-3.4%" width="115.5%" height="113.4%" filterUnits="objectBoundingBox" id="filter-2">
            <feOffset dx="0" dy="4" in="SourceAlpha" result="shadowOffsetOuter1"></feOffset>
            <feGaussianBlur stdDeviation="2" in="shadowOffsetOuter1" result="shadowBlurOuter1"></feGaussianBlur>
            <feColorMatrix values="0 0 0 0 0.865513393   0 0 0 0 0.865513393   0 0 0 0 0.865513393  0 0 0 0.499716938 0" type="matrix" in="shadowBlurOuter1"></feColorMatrix>
        </filter>
        <path d="M194.414814,26.9398887 C193.619701,25.8111019 193.890196,24.2514725 195.018983,23.4563589 C196.14777,22.6612453 197.707399,22.931741 198.502513,24.0605278 C206.002194,34.7074868 210.030888,47.5825197 210.000442,60.786524 C210.007711,83.6725269 198.017534,104.740533 178.733548,115.674934 C177.53248,116.355964 176.006739,115.934389 175.32571,114.733321 C174.64468,113.532253 175.066255,112.006512 176.267323,111.325482 C193.968022,101.288836 205.007132,81.8919553 205.000276,60.7815413 C205.028512,48.6015717 201.316106,36.7373409 194.414814,26.9398887 Z" id="path-3"></path>
        <filter x="-31.4%" y="-4.3%" width="145.7%" height="117.2%" filterUnits="objectBoundingBox" id="filter-4">
            <feOffset dx="-3" dy="4" in="SourceAlpha" result="shadowOffsetOuter1"></feOffset>
            <feGaussianBlur stdDeviation="2" in="shadowOffsetOuter1" result="shadowBlurOuter1"></feGaussianBlur>
            <feColorMatrix values="0 0 0 0 0.865513393   0 0 0 0 0.865513393   0 0 0 0 0.865513393  0 0 0 0.499716938 0" type="matrix" in="shadowBlurOuter1"></feColorMatrix>
        </filter>
    </defs>
    <g id="资金" stroke="none" stroke-width="1" fill="none" fill-rule="evenodd">
        <g id="Home" transform="translate(-26.000000, -805.000000)">
            <g id="Incomes" transform="translate(26.000000, 803.000000)">
                <g id="Donut" transform="translate(13.000000, 40.000000)">
                    <circle id="Oval" fill="#FFFFFF" fill-rule="nonzero" cx="151.5" cy="61.5" r="58.5"></circle>
                    <g id="Salary" fill-rule="nonzero" transform="translate(144.543912, 62.121471) rotate(-3.000000) translate(-144.543912, -62.121471) ">
                        <use fill="black" fill-opacity="1" filter="url(#filter-2)" xlink:href="#path-1"></use>
                        <use fill="#31D19E" xlink:href="#path-1"></use>
                    </g>
                    <text id="杠杆账户-36.2%" font-family="PingFangSC-Regular, PingFang SC" font-size="12" font-weight="normal" fill="#656565">
                        <tspan x="256" y="61">杠杆账户</tspan>
                        <tspan x="256" y="81">36.2%</tspan>
                    </text>
                    <path d="M214,57 L253.735336,61.5938092" id="Line-7" stroke="#E91C41" stroke-linecap="square" fill-rule="nonzero" transform="translate(233.867668, 59.296905) scale(1, -1) translate(-233.867668, -59.296905) "></path>
                    <g id="Businesses" fill-rule="nonzero">
                        <use fill="black" fill-opacity="1" filter="url(#filter-4)" xlink:href="#path-3"></use>
                        <use fill="#E91C41" xlink:href="#path-3"></use>
                    </g>
                    <text id="$1,604.23" font-family="PingFangSC-Regular, PingFang SC" font-size="14" font-weight="normal" line-spacing="18" fill="#31D19E">
                        <tspan x="120" y="75">$1,604.23</tspan>
                    </text>
                    <text id="Total-Incomes" font-family="Helvetica" font-size="11" font-weight="normal" line-spacing="10" fill="#8A8A8A">
                        <tspan x="119" y="56">Total Incomes</tspan>
                    </text>
                    <g id="Sallary" transform="translate(0.000000, 38.000000)">
                        <text id="基本账户-63.8%" font-family="PingFangSC-Regular, PingFang SC" font-size="12" font-weight="normal" fill="#656565">
                            <tspan x="0" y="13">基本账户</tspan>
                            <tspan x="0" y="33">63.8%</tspan>
                        </text>
                        <path d="M50.5,8.5 L90.2353359,13.0938092" id="Line-7" stroke="#31D19E" stroke-linecap="square" fill-rule="nonzero"></path>
                    </g>
                </g>
                <text id="资产分布图" font-family="PingFangSC-Regular, PingFang SC" font-size="14" font-weight="normal" line-spacing="18" fill="#8A8A8A">
                    <tspan x="0" y="15">资产分布图</tspan>
                </text>
            </g>
        </g>
    </g>
</svg>