<?xml version="1.0" encoding="UTF-8"?>
<svg width="28px" height="28px" viewBox="0 0 28 28" version="1.1" xmlns="http://www.w3.org/2000/svg" xmlns:xlink="http://www.w3.org/1999/xlink">
    <!-- Generator: Sketch 56.3 (81716) - https://sketch.com -->
    <title>存钱罐</title>
    <desc>Created with Sketch.</desc>
    <g id="资金" stroke="none" stroke-width="1" fill="none" fill-rule="evenodd">
        <g id="Home" transform="translate(-21.000000, -1030.000000)" fill-rule="nonzero">
            <g id="存钱罐" transform="translate(21.000000, 1030.000000)">
                <path d="M28,20 L27.6031607,20 C27.1648815,20 26.809482,19.5524089 26.809482,18.9999447 L26.809482,17.500083 C26.809482,17.2239615 26.6319579,17.0000553 26.4126427,17.0000553 L26,17.0000553 L26,16 L26.4126427,16 C27.070237,16 27.6031607,16.6717186 27.6031607,17.500083 L27.6031607,18.9999447 L28,18.9999447 L28,20 Z" id="Path" fill="#FF6243"></path>
                <path d="M20.0150124,8.21982242 C19.3281162,10.2661821 17.1389542,11.3588732 15.1255644,10.6607289 C13.5900617,10.1280257 12.5475732,8.67456901 12.5183844,7.02578782 C11.9169241,7.08382209 11.3190858,7.17542106 10.7274262,7.29993502 C10.104021,5.90083135 8.73342458,5.00129925 7.22221036,5 L7.22221036,8.5526536 C5.34155517,9.47925394 3.78794262,10.9727717 2.77336457,12.8296536 L0.4815091,12.8296536 C0.215613809,12.8296536 0,13.0487982 0,13.3190476 L0,19.1913419 C0,19.4618079 0.215613809,19.6807359 0.4815091,19.6807359 L2.77336457,19.6807359 C3.69334526,21.3723932 5.06969428,22.7613192 6.74070132,23.6838052 L6.74070132,27.510606 C6.74070132,27.7808555 6.95631507,28 7.22221036,28 L10.1110519,28 C10.3769472,28 10.592561,27.7808555 10.592561,27.510606 L10.592561,25.1764567 C11.6991797,25.4257012 12.8292347,25.5519475 13.9629117,25.5532468 C16.1213934,25.5675388 18.257078,25.1049966 20.2221038,24.1976688 L20.2221038,27.510606 C20.2221038,27.7808555 20.4377177,28 20.703613,28 L23.5924545,28 C23.8585629,28 24.0739636,27.7808555 24.0739636,27.510606 L24.0739636,21.2957359 C25.2920112,19.9059437 25.9757115,18.116191 26,16.2551948 C26,12.8248896 23.5924545,9.82984192 20.0150124,8.21982242 L20.0150124,8.21982242 Z" id="Path" fill="#FFB655"></path>
                <path d="M15.9998872,3 C13.7908556,3 12,4.79125295 12,7.00099607 L12,7.07092891 C12.039605,9.2802294 13.8623216,11.0391717 16.0711319,10.9993365 C17.7557841,10.9692389 19.2408622,9.886166 19.7851548,8.29121167 C19.9280869,7.8762624 20.0006593,7.44006772 20,7.00099607 C20,4.79125295 18.20914,3 15.9998872,3 L15.9998872,3 Z" id="Path" fill="#FFDE55"></path>
                <path d="M7.00011065,14 C5.89562477,14 5,13.104547 5,12 L6.00005532,12 C6.00005532,12.5522735 6.44786771,12.9998894 7.00011065,12.9998894 C7.55235359,12.9998894 8.00016597,12.5522735 8.00016597,12 L9,12 C9,13.104547 8.10459653,14 7.00011065,14 Z" id="Path" fill="#FF6243"></path>
                <path d="M16.4998894,6.49996315 C16.2237628,6.49996315 15.9998525,6.27605277 15.9998525,5.99992622 C15.9998525,5.72379966 16.2237628,5.49988939 16.4998894,5.49988939 C16.7760159,5.49988939 16.9999263,5.72379966 16.9999263,5.99992622 L18,5.99992622 C17.9973449,5.36647246 17.5970941,4.80293531 16.9999263,4.59185782 L16.9999263,4 L15.9998525,4 L15.9998525,4.59185782 C15.2203702,4.86643558 14.811048,5.72114465 15.0856258,6.50062687 C15.2969246,7.10044989 15.8640018,7.50114317 16.4998894,7.50003691 C16.7760159,7.50003691 16.9999263,7.72394717 16.9999263,8.00007373 C16.9999263,8.27620029 16.7760159,8.50011066 16.4998894,8.50011066 C16.2237628,8.50011066 15.9998525,8.27620029 15.9998525,8.00007373 L15,8.00007373 C15.0024338,8.63352754 15.4026846,9.19684345 15.9998525,9.40814223 L15.9998525,10 L16.9999263,10 L16.9999263,9.40792094 C17.7794085,9.13334318 18.1887307,8.27885541 17.9143742,7.49937313 C17.7030754,6.89955011 17.135777,6.49885683 16.4998894,6.49996315 L16.4998894,6.49996315 Z" id="Path" fill="#FF6243"></path>
                <polygon id="Path" fill="#FF7956" points="12 11 21 11 21 12 12 12"></polygon>
                <g id="Group" transform="translate(10.000000, 0.000000)" fill="#FF6243">
                    <polygon id="Path" points="11.8522601 1.4031457 12.7979213 1.4031457 12.7979213 2.33836922 11.8522601 2.33836922"></polygon>
                    <polygon id="Path" points="12.7979213 2.33836922 13.7437918 2.33836922 13.7437918 3.27379968 12.7979213 3.27379968"></polygon>
                    <polygon id="Path" points="10.9063895 2.33836922 11.8522601 2.33836922 11.8522601 3.27379968 10.9063895 3.27379968"></polygon>
                    <polygon id="Path" points="11.8522601 3.27379968 12.7979213 3.27379968 12.7979213 4.20923015 11.8522601 4.20923015"></polygon>
                    <polygon id="Path" points="16.1082589 5.14445362 17.0541295 5.14445362 17.0541295 6.07988408 16.1082589 6.07988408"></polygon>
                    <polygon id="Path" points="17.0541295 6.07988408 18 6.07988408 18 7.01531454 17.0541295 7.01531454"></polygon>
                    <polygon id="Path" points="15.1625976 6.07988408 16.1082589 6.07988408 16.1082589 7.01531454 15.1625976 7.01531454"></polygon>
                    <polygon id="Path" points="16.1082589 7.01531454 17.0541295 7.01531454 17.0541295 7.95074501 16.1082589 7.95074501"></polygon>
                    <polygon id="Path" points="0.975376661 0 1.9212472 0 1.9212472 0.935430464 0.975376661 0.935430464"></polygon>
                    <polygon id="Path" points="1.9212472 0.935430464 2.86690848 0.935430464 2.86690848 1.87065399 1.9212472 1.87065399"></polygon>
                    <polygon id="Path" points="0.029506125 0.935430464 0.975376661 0.935430464 0.975376661 1.87065399 0.029506125 1.87065399"></polygon>
                    <polygon id="Path" points="0.975376661 1.87086093 1.9212472 1.87086093 1.9212472 2.80608445 0.975376661 2.80608445"></polygon>
                </g>
            </g>
        </g>
    </g>
</svg>