<?xml version="1.0" encoding="UTF-8"?>
<svg width="22px" height="22px" viewBox="0 0 22 22" version="1.1" xmlns="http://www.w3.org/2000/svg" xmlns:xlink="http://www.w3.org/1999/xlink">
    <!-- Generator: Sketch 56.3 (81716) - https://sketch.com -->
    <title>信用卡 6</title>
    <desc>Created with Sketch.</desc>
    <defs>
        <linearGradient x1="49.9997036%" y1="1.51164903%" x2="49.9997036%" y2="99.6756619%" id="linearGradient-1">
            <stop stop-color="#FFBF3F" offset="0%"></stop>
            <stop stop-color="#FF6A8F" offset="100%"></stop>
        </linearGradient>
        <linearGradient x1="49.9934784%" y1="-766.71666%" x2="49.9934784%" y2="1392.8226%" id="linearGradient-2">
            <stop stop-color="#FFBF3F" offset="0%"></stop>
            <stop stop-color="#FF6A8F" offset="100%"></stop>
        </linearGradient>
        <linearGradient x1="49.9944159%" y1="-766.71666%" x2="49.9944159%" y2="1392.8226%" id="linearGradient-3">
            <stop stop-color="#FFBF3F" offset="0%"></stop>
            <stop stop-color="#FF6A8F" offset="100%"></stop>
        </linearGradient>
        <linearGradient x1="49.9953533%" y1="-766.71666%" x2="49.9953533%" y2="1392.8226%" id="linearGradient-4">
            <stop stop-color="#FFBF3F" offset="0%"></stop>
            <stop stop-color="#FF6A8F" offset="100%"></stop>
        </linearGradient>
        <linearGradient x1="49.9992356%" y1="-538.843913%" x2="49.9992356%" y2="180.94362%" id="linearGradient-5">
            <stop stop-color="#FFBF3F" offset="0%"></stop>
            <stop stop-color="#FF6A8F" offset="100%"></stop>
        </linearGradient>
        <linearGradient x1="49.9988595%" y1="-538.856726%" x2="49.9988595%" y2="180.947004%" id="linearGradient-6">
            <stop stop-color="#FFBF3F" offset="0%"></stop>
            <stop stop-color="#FF6A8F" offset="100%"></stop>
        </linearGradient>
        <linearGradient x1="49.9944159%" y1="-1716.68854%" x2="49.9944159%" y2="442.850727%" id="linearGradient-7">
            <stop stop-color="#FFBF3F" offset="0%"></stop>
            <stop stop-color="#FF6A8F" offset="100%"></stop>
        </linearGradient>
        <linearGradient x1="49.9934784%" y1="-1716.68854%" x2="49.9934784%" y2="442.850727%" id="linearGradient-8">
            <stop stop-color="#FFBF3F" offset="0%"></stop>
            <stop stop-color="#FF6A8F" offset="100%"></stop>
        </linearGradient>
        <linearGradient x1="49.9986019%" y1="-766.757288%" x2="49.9986019%" y2="1392.8832%" id="linearGradient-9">
            <stop stop-color="#FFBF3F" offset="0%"></stop>
            <stop stop-color="#FF6A8F" offset="100%"></stop>
        </linearGradient>
        <linearGradient x1="49.9974851%" y1="-766.757288%" x2="49.9974851%" y2="1392.8832%" id="linearGradient-10">
            <stop stop-color="#FFBF3F" offset="0%"></stop>
            <stop stop-color="#FF6A8F" offset="100%"></stop>
        </linearGradient>
    </defs>
    <g id="资金" stroke="none" stroke-width="1" fill="none" fill-rule="evenodd">
        <g id="Home" transform="translate(-22.000000, -1144.000000)" fill-rule="nonzero">
            <g id="信用卡-6" transform="translate(22.000000, 1144.000000)">
                <path d="M20.5014989,0 L1.49850106,0 C0.672000477,0 0,0.672000477 0,1.49850106 L0,12.5015245 C0,12.9425248 0.195000138,13.3360407 0.499500355,13.6105409 C0.180000128,14.3430102 0,15.1505264 0,16 C0,19.3084825 2.69151754,22 6,22 C9.30849099,22 12,19.3084825 12,16 C12,15.2979952 11.8725084,14.6265104 11.6499926,13.9999787 L20.5014989,13.9999787 C21.3279995,13.9999787 22,13.3279782 22,12.5014776 L22,1.49850106 C22,0.672000477 21.3279995,0 20.5014989,0 Z M1.49850106,0.999985085 L20.5014989,0.999985085 C20.7765148,0.999985085 21.0000149,1.22348524 21.0000149,1.49850106 L21.0000149,3.00000213 L0.999985085,3.00000213 L0.999985085,1.49850106 C0.999985085,1.22348524 1.22348524,0.999985085 1.49850106,0.999985085 Z M21.0000149,6.00000426 L0.999985085,6.00000426 L0.999985085,3.99998722 L21.0000149,3.99998722 L21.0000149,6.00000426 Z M10.9745234,16.5000117 C10.921039,17.0345277 10.7810233,17.5430281 10.5725231,18.0144972 C10.5480075,18.0110284 10.5260231,18.0000117 10.5000075,18.0000117 L9.30399098,18.0000117 C9.39900668,17.5254968 9.46149109,17.0240277 9.48600674,16.5000117 L10.9745234,16.5000117 Z M8.28150588,18.0000117 L6.50002024,18.0000117 L6.50002024,16.5000117 L8.48700603,16.5000117 C8.45949038,17.0265121 8.38749033,17.5305125 8.28150588,18.0000117 Z M1.42748539,18.0144972 C1.21846962,17.5429812 1.07850077,17.0344808 1.0254851,16.5000117 L2.51447054,16.5000117 C2.53847055,17.0240277 2.6014706,17.5254968 2.69648629,18.0000117 L1.50000107,18.0000117 C1.47398542,18.0000117 1.45200103,18.0110284 1.42748539,18.0144972 Z M5.49998828,11.1054923 L5.49998828,12.9999936 L4.01901848,12.9999936 C4.38201874,12.0534929 4.90500348,11.3585237 5.49998828,11.1054923 Z M5.49998828,14.0000256 L5.49998828,15.5000256 L3.5130025,15.5000256 C3.54051814,14.9735263 3.61251819,14.4695259 3.71850264,14.0000256 L5.49998828,14.0000256 Z M3.5130025,16.5000117 L5.49998828,16.5000117 L5.49998828,18.0000117 L3.71850264,18.0000117 C3.61251819,17.5305125 3.54051814,17.0265121 3.5130025,16.5000117 Z M5.49998828,18.9999979 L5.49998828,20.8944992 C4.90500348,20.6415147 4.38197186,19.9464985 4.0189716,18.9999979 L5.49998828,18.9999979 Z M6.50002024,20.8944992 L6.50002024,18.9999979 L7.98103692,18.9999979 C7.61798979,19.9464985 7.09500504,20.6415147 6.50002024,20.8944992 Z M6.50002024,15.5000256 L6.50002024,14.0000256 L8.28150588,14.0000256 C8.38749033,14.4695259 8.45949038,14.9735263 8.48700603,15.5000256 L6.50002024,15.5000256 Z M6.50002024,12.9999936 L6.50002024,11.1054923 C7.09500504,11.3584768 7.61803666,12.0534929 7.98103692,12.9999936 L6.50002024,12.9999936 Z M8.41149035,11.6229926 C9.03099079,11.9655085 9.56649117,12.4380088 9.99047585,12.9999936 L9.04247517,12.9999936 C8.8725063,12.4865245 8.65950615,12.0240085 8.41149035,11.6229926 Z M2.95748648,12.9999936 L2.0094858,12.9999936 C2.43300173,12.4380088 2.96897086,11.9655085 3.5884713,11.6229926 C3.34050237,12.0240085 3.12750222,12.4865245 2.95748648,12.9999936 Z M1.49850106,14.0000256 L1.50000107,14.0000256 L2.69601754,14.0000256 C2.60100185,14.4745415 2.53851743,14.9760106 2.51400179,15.5000266 L1.0254851,15.5000266 C1.07850077,14.9685106 1.21696961,14.4620259 1.42396976,13.9925256 C1.44900103,13.9935099 1.47300105,14.0000256 1.49850106,14.0000256 Z M2.0094858,18.9999979 L2.95748648,18.9999979 C3.12750222,19.5135139 3.33998675,19.9759829 3.58800255,20.3769988 C2.96901773,20.0345299 2.43300173,19.5620295 2.0094858,18.9999979 Z M8.41149035,20.3769988 C8.65950615,19.9759829 8.8725063,19.5135139 9.04200642,18.9999979 L9.9900071,18.9999979 C9.56700679,19.5620295 9.03099079,20.0345299 8.41149035,20.3769988 Z M10.9745234,15.5000256 L9.48553799,15.5000256 C9.46153797,14.9760106 9.39853793,14.4745415 9.30352223,14.0000256 L10.5000075,14.0000256 L10.5795075,14.0000256 C10.784492,14.4675103 10.9220234,14.970995 10.9745234,15.5000256 Z M20.5014989,12.9999893 L11.1879923,12.9999893 C10.1484916,11.209508 8.21499021,9.99998935 6.00000426,9.99998935 C3.93398717,9.99998935 2.10848587,11.0499922 1.02900073,12.6439777 C1.0149851,12.5979933 0.999985085,12.551962 0.999985085,12.5014776 L0.999985085,6.99998935 L21.0000149,6.99998935 L21.0000149,12.5014776 C21.0000149,12.7764934 20.7765148,12.9999893 20.5014989,12.9999893 Z" id="Shape" fill="url(#linearGradient-1)"></path>
                <circle id="Oval" fill="url(#linearGradient-2)" cx="18.5" cy="8.5" r="1"></circle>
                <circle id="Oval" fill="url(#linearGradient-3)" cx="16.5" cy="8.5" r="1"></circle>
                <circle id="Oval" fill="url(#linearGradient-4)" cx="14.5" cy="8.5" r="1"></circle>
                <path d="M21.7330285,17.0841541 L19.9329678,16.0842828 C19.6569397,15.9307845 19.2843271,15.9927931 19.1007209,16.2227828 C18.9171147,16.4522568 18.991536,16.7632373 19.2669453,16.91622 L20.3181808,17.5001227 L19.2669453,18.0840723 C18.991536,18.237055 18.9171147,18.5475199 19.1007209,18.7775095 C19.2165436,18.9220088 19.4067313,19 19.600519,19 C19.7145416,19 19.830308,18.9730031 19.9329115,18.9160095 L21.7329722,17.9161382 C21.8997591,17.8231487 22,17.6671663 22,17.5001696 C22,17.333126 21.8998154,17.1771436 21.7330285,17.0841541 Z" id="Path" fill="url(#linearGradient-5)"></path>
                <path d="M15.899281,16.2227671 C15.7144969,15.9927723 15.3424539,15.9308092 15.0670497,16.0842641 L13.2670228,17.0841579 C13.100239,17.1771495 13,17.3331353 13,17.5001358 C13,17.6671363 13.1001828,17.8231222 13.2670228,17.9161138 L15.0670497,18.9160076 C15.1696513,18.9730024 15.2854718,19 15.399436,19 C15.5932201,19 15.7834605,18.9220071 15.8992247,18.7775045 C16.0828275,18.5480253 16.0084076,18.2370378 15.7330035,18.0840517 L14.681844,17.5001358 L15.7330597,16.9161731 C16.0084638,16.7631869 16.0828837,16.4527151 15.899281,16.2227671 Z" id="Path" fill="url(#linearGradient-6)"></path>
                <circle id="Oval" fill="url(#linearGradient-7)" cx="16.5" cy="18.5" r="1"></circle>
                <circle id="Oval" fill="url(#linearGradient-8)" cx="18.5" cy="18.5" r="1"></circle>
                <path d="M6.50003281,8 L2.50001406,8 C2.22401492,8 2,8.22401913 2,8.50002344 C2,8.77602775 2.22401492,9 2.50001406,9 L6.49998594,9 C6.77598508,9 7,8.77598087 7,8.49997656 C7,8.22397225 6.77603195,8 6.50003281,8 Z" id="Path" fill="url(#linearGradient-9)"></path>
                <path d="M10.3999888,8 L8.60001125,8 C8.26881539,8 8,8.22401913 8,8.50002344 C8,8.77602775 8.26881539,9 8.60001125,9 L10.3999888,9 C10.7311846,9 11,8.77598087 11,8.49997656 C11,8.22397225 10.7311846,8 10.3999888,8 Z" id="Path" fill="url(#linearGradient-10)"></path>
            </g>
        </g>
    </g>
</svg>