<?xml version="1.0" encoding="UTF-8"?>
<svg width="24px" height="24px" viewBox="0 0 24 24" version="1.1" xmlns="http://www.w3.org/2000/svg" xmlns:xlink="http://www.w3.org/1999/xlink">
    <!-- Generator: Sketch 56.3 (81716) - https://sketch.com -->
    <title>ZB.COM/Icon/32/pop_recharge</title>
    <desc>Created with Sketch.</desc>
    <g id="ZB.com" stroke="none" stroke-width="1" fill="none" fill-rule="evenodd">
        <g id="assets-01" transform="translate(-309.000000, -348.000000)" fill="#666666">
            <g id="ZB.COM/4_Assets/assets_button_03" transform="translate(284.000000, 332.000000)">
                <g id="ZB.COM/Icon/32/pop_order" transform="translate(22.493506, 12.000000)">
                    <path d="M15.245371,27 C15.7276159,26.3984195 16.1247413,25.7256647 16.418483,25 L23,25 C23.5522847,25 24,24.5522847 24,24 L24,7 C24,6.44771525 23.5522847,6 23,6 L9,6 C8.44771525,6 8,6.44771525 8,7 L8,14.0618938 C7.30135991,14.1490129 6.63069625,14.3262177 6,14.581517 L6,7 C6,5.34314575 7.34314575,4 9,4 L23,4 C24.6568542,4 26,5.34314575 26,7 L26,24 C26,25.6568542 24.6568542,27 23,27 L15.245371,27 Z M11,9 L21,9 C21.5522847,9 22,9.44771525 22,10 C22,10.5522847 21.5522847,11 21,11 L11,11 C10.4477153,11 10,10.5522847 10,10 C10,9.44771525 10.4477153,9 11,9 Z M15,14 L21,14 C21.5522847,14 22,14.4477153 22,15 C22,15.5522847 21.5522847,16 21,16 L15,16 C14.4477153,16 14,15.5522847 14,15 C14,14.4477153 14.4477153,14 15,14 Z M18,19 L21,19 C21.5522847,19 22,19.4477153 22,20 C22,20.5522847 21.5522847,21 21,21 L18,21 C17.4477153,21 17,20.5522847 17,20 C17,19.4477153 17.4477153,19 18,19 Z M10,21 L11,21 C11.5522847,21 12,21.4477153 12,22 C12,22.5522847 11.5522847,23 11,23 L9,23 C8.44771525,23 8,22.5522847 8,22 L8,20 C8,19.4477153 8.44771525,19 9,19 C9.55228475,19 10,19.4477153 10,20 L10,21 Z M9,16 C12.3137085,16 15,18.6862915 15,22 C15,25.3137085 12.3137085,28 9,28 C5.6862915,28 3,25.3137085 3,22 C3,18.6862915 5.6862915,16 9,16 Z M9,18 C6.790861,18 5,19.790861 5,22 C5,24.209139 6.790861,26 9,26 C11.209139,26 13,24.209139 13,22 C13,19.790861 11.209139,18 9,18 Z" id="Combined-Shape"></path>
                </g>
            </g>
        </g>
    </g>
</svg>