<?xml version="1.0" encoding="UTF-8"?>
<svg width="25px" height="26px" viewBox="0 0 25 26" version="1.1" xmlns="http://www.w3.org/2000/svg" xmlns:xlink="http://www.w3.org/1999/xlink">
    <!-- Generator: Sketch 56.3 (81716) - https://sketch.com -->
    <title>ZB.COM/Icon/32/pop_recharge</title>
    <desc>Created with Sketch.</desc>
    <g id="ZB.com" stroke="none" stroke-width="1" fill="none" fill-rule="evenodd">
        <g id="assets-01" transform="translate(-220.000000, -347.000000)" fill="#666666">
            <g id="ZB.COM/4_Assets/assets_button_03" transform="translate(194.000000, 332.000000)">
                <g id="ZB.COM/Icon/32/pop_pop_transfer" transform="translate(22.493506, 12.000000)">
                    <path d="M27.9372844,22.6890187 L23.8231421,26.4399612 C23.706073,26.5703415 23.4886589,26.4800782 23.4886589,26.2494053 L23.4886589,23.6117104 L16.2695725,23.6117104 C15.1657782,23.6117104 13.326121,21.846561 13,20.1516164 C13,20.1516164 14.5553465,21.3852152 17.0806941,21.3852152 L23.4886589,21.3852152 L23.4886589,18.7475203 C23.4886589,18.5569644 23.6893488,18.4165548 23.8231421,18.5569644 L27.9372844,22.3079069 C28.0209052,22.4081995 28.0209052,22.5987554 27.9372844,22.6890187 Z M12.0627156,15.3109813 L16.1768579,11.5600388 C16.293927,11.4296585 16.5113411,11.5199218 16.5113411,11.7505947 L16.5113411,14.3882896 L23.7304275,14.3882896 C24.8342218,14.3882896 26.673879,16.153439 27,17.8483836 C27,17.8483836 25.4446535,16.6147848 22.9193059,16.6147848 L16.5113411,16.6147848 L16.5113411,19.2524797 C16.5113411,19.4430356 16.3106512,19.5834452 16.1768579,19.4430356 L12.0627156,15.6920931 C11.9790948,15.5918005 11.9790948,15.4012446 12.0627156,15.3109813 Z M16,28.5 C9.09644063,28.5 3.5,22.9035594 3.5,16 C3.5,9.09644063 9.09644063,3.5 16,3.5 C20.3454837,3.5 24.3087602,5.73603329 26.5825241,9.34434219 C26.8769617,9.81159472 26.7368676,10.4290666 26.269615,10.7235042 C25.8023625,11.0179419 25.1848906,10.8778477 24.890453,10.4105952 C22.9791978,7.37756286 19.6512952,5.5 16,5.5 C10.2010101,5.5 5.5,10.2010101 5.5,16 C5.5,21.7989899 10.2010101,26.5 16,26.5 C16.5522847,26.5 17,26.9477153 17,27.5 C17,28.0522847 16.5522847,28.5 16,28.5 Z" id="Combined-Shape"></path>
                </g>
            </g>
        </g>
    </g>
</svg>