<?xml version="1.0" encoding="UTF-8"?>
<svg width="22px" height="20px" viewBox="0 0 22 20" version="1.1" xmlns="http://www.w3.org/2000/svg" xmlns:xlink="http://www.w3.org/1999/xlink">
    <!-- Generator: Sketch 56.3 (81716) - https://sketch.com -->
    <title>外汇 2</title>
    <desc>Created with Sketch.</desc>
    <g id="资金" stroke="none" stroke-width="1" fill="none" fill-rule="evenodd">
        <g id="Home" transform="translate(-29.000000, -661.000000)" fill-rule="nonzero">
            <g id="外汇-2" transform="translate(29.000000, 661.000000)">
                <path d="M15.6368353,5.89348378 L15.6368353,7.5826494 C15.6368353,7.90571386 15.9935149,8.10416775 16.2836144,7.94263552 L21.7859922,4.85967749 C22.0713359,4.69814526 22.0713359,4.29662228 21.7859922,4.13509005 L16.2836144,1.05674723 C15.9982706,0.895215001 15.6368353,1.09828409 15.6368353,1.41673335 L15.6368353,3.10589897 L11,3.10589897 C11.0998703,3.54895881 11.1521833,4.00586427 11.1521833,4.47661534 C11.1521833,4.96582724 11.0998703,5.43657832 11,5.89809898 L15.6368353,5.89809898 L15.6368353,5.89348378 Z" id="Path" fill="#E91C41"></path>
                <path d="M6.34670116,14.1051283 L6.34670116,12.4170756 C6.34670116,12.094224 5.99094437,11.8959009 5.70159552,12.0573267 L0.213454075,15.1382534 C-0.0711513583,15.2996792 -0.0711513583,15.7009376 0.213454075,15.8623634 L5.70159552,18.9432902 C5.98620095,19.104716 6.34670116,18.9017807 6.34670116,18.5835412 L6.34670116,16.8954886 L11,16.8954886 C10.9003881,16.4481085 10.843467,15.9822797 10.843467,15.5026145 C10.843467,15.0229493 10.8956447,14.5571205 11,14.1097404 L6.34670116,14.1097404 L6.34670116,14.1051283 Z" id="Path" fill="#FFB655"></path>
                <path d="M5.01806678,10 C7.77776261,9.99096794 10.009006,7.74425206 10,4.97975598 C9.99093929,2.21525989 7.74162911,-0.0134462361 4.98193328,0 C2.21772076,0.00906594696 -0.00900598636,2.25578182 0,5.01577547 C0.00906076212,7.78027155 2.25837095,10.0089777 5.01806678,10 Z M2.17736486,4.13273544 L2.7701369,4.13273544 C2.81214437,3.98463013 2.84948434,3.83174723 2.9101618,3.68841951 C3.20888157,2.94311536 3.70830368,2.41280279 4.46443809,2.15959049 C5.08988261,1.9493765 5.71999462,1.95415409 6.35010664,2.13092494 C6.51346901,2.17870085 6.67683138,2.23603194 6.83085877,2.3076958 C6.98021865,2.37935966 7.02222612,2.49879943 6.96154866,2.64690474 C6.89620371,2.81412041 6.83085877,2.97655849 6.75617882,3.13899658 C6.69083387,3.2823243 6.61148643,3.32532261 6.45745905,3.29187948 C6.26142421,3.24888116 6.07005685,3.18677248 5.874022,3.14377417 C5.4959548,3.06255513 5.11788759,3.05777754 4.74448788,3.18199489 C4.27773824,3.3348778 4.03036093,3.68364191 3.88100105,4.13273544 L5.15056006,4.12795785 C5.24857749,4.12795785 5.33259242,4.20917689 5.33259242,4.30950629 L5.33259242,4.72037909 C5.33259242,4.8207085 5.25324498,4.90670513 5.15522756,4.90670513 L3.76431364,4.91148272 C3.76431364,5.0261449 3.76431364,5.13602948 3.76431364,5.24591407 L5.15056006,5.24113648 C5.24857749,5.24113648 5.33259242,5.32235552 5.33259242,5.42268492 L5.33259242,5.83355772 C5.33259242,5.93388713 5.25324498,6.01988376 5.15522756,6.01988376 L3.9416785,6.02466135 C3.9416785,6.02943894 3.9416785,6.03421653 3.9416785,6.03899412 C4.08637089,6.37820306 4.30107572,6.65052573 4.65113795,6.78907586 C5.05721014,6.95151394 5.47261732,6.94673635 5.88802449,6.85596213 C6.08405934,6.81296381 6.28009419,6.75085513 6.47612904,6.70307922 C6.62082143,6.66963609 6.70483636,6.71263441 6.76551382,6.85118454 C6.83552626,7.00884503 6.90553871,7.17128311 6.97088366,7.33372119 C7.03156111,7.4866041 6.99888864,7.59648868 6.85886374,7.68248531 C6.82619127,7.70159568 6.7888513,7.72070604 6.75151133,7.73503881 C6.16807428,7.96914076 5.56596724,8.05991498 4.94052273,7.95958557 C4.50177807,7.88792171 4.09103838,7.73503881 3.74097615,7.45793855 C3.2928965,7.10439684 3.00351172,6.64097055 2.83548185,6.09154762 L2.81214437,6.02943894 L2.18669986,6.03421653 C2.08868243,6.03421653 2.0046675,5.95299749 2.0046675,5.85266808 L2.0046675,5.44179529 C2.0046675,5.34146588 2.08401494,5.25546925 2.18203236,5.25546925 L2.67211948,5.25546925 C2.67211948,5.14080707 2.67211948,5.03570008 2.67211948,4.9210379 L2.18203236,4.9210379 C2.08401494,4.9210379 2,4.83981886 2,4.73948946 L2,4.32861666 C2,4.21873207 2.07934744,4.13273544 2.17736486,4.13273544 Z" id="Shape" fill="#E91C41"></path>
                <path d="M17,10 C14.2368421,10 12,12.2368421 12,15 C12,17.7631579 14.2368421,20 17,20 C19.7631579,20 22,17.7631579 22,15 C22,12.2413793 19.7631579,10 17,10 Z M18.6198266,17.5128333 C18.3744907,17.7817519 18.0524873,17.9672131 17.6793723,18.0599437 C17.515815,18.1016725 17.4442587,18.1758569 17.4493699,18.3334989 C17.4544811,18.4818679 17.4493699,18.6348733 17.4493699,18.7878788 C17.4493699,18.9223381 17.3727024,18.9965226 17.2295898,18.9965226 C17.050699,19.0011591 16.8718083,19.0011591 16.6929175,18.9965226 C16.5344714,18.9918861 16.4629151,18.9130651 16.4578039,18.7739692 C16.4578039,18.6626925 16.4578039,18.5514158 16.4526927,18.4447756 C16.4475816,18.2036761 16.4424704,18.1897665 16.181801,18.1526743 C15.8495753,18.106309 15.5275719,18.0367611 15.2260132,17.9023017 C14.9908996,17.7956615 14.9653438,17.7446597 15.0317889,17.5174698 C15.0829006,17.3505547 15.1340122,17.1836397 15.190235,17.0167246 C15.2566802,16.8219904 15.312903,16.7988077 15.5122384,16.8915383 C15.8444641,17.0491803 16.2022457,17.1372744 16.5702495,17.1790031 C16.8104743,17.2068223 17.0455879,17.1836397 17.265368,17.0955456 C17.6793723,16.9332671 17.7458174,16.4974333 17.3931471,16.2331512 C17.2755903,16.1450571 17.1375888,16.0801457 16.9995874,16.0245074 C16.6366947,15.880775 16.2584685,15.7694983 15.9160204,15.5840371 C15.3589035,15.2826627 15.0062331,14.8653751 15.0471224,14.2533532 C15.0931229,13.5578738 15.5275719,13.1266766 16.2278015,12.8948501 C16.5191379,12.797483 16.5191379,12.8021196 16.5191379,12.5285643 C16.5191379,12.4358337 16.5191379,12.3431032 16.5191379,12.2503726 C16.5242491,12.0417288 16.5651384,12.0092731 16.7900296,12 C16.8615859,12 16.9331422,12 16.9995874,12 C17.485148,12 17.485148,12 17.485148,12.4404703 C17.485148,12.7511177 17.485148,12.7511177 17.8275961,12.8021196 C18.0882655,12.8392118 18.3387126,12.9087597 18.5789373,13.0061268 C18.7118276,13.0571287 18.7629392,13.1452227 18.7220499,13.270409 C18.6607159,13.4605067 18.6044931,13.6506044 18.538048,13.8360656 C18.476714,14.0122537 18.4102689,14.0400729 18.2262669,13.9566153 C17.8480407,13.7897003 17.4544811,13.7201523 17.0353655,13.743335 C16.9280311,13.7479715 16.8206966,13.7618811 16.7184733,13.8036099 C16.3555806,13.9473423 16.2993578,14.3089916 16.6060277,14.531545 C16.7593626,14.6428217 16.9382534,14.7262792 17.1222553,14.7958271 C17.4391476,14.9163769 17.7611509,15.0322901 18.0678208,15.180659 C19.0389421,15.6628581 19.2996115,16.7617155 18.6198266,17.5128333 Z" id="Shape" fill="#FFB655"></path>
            </g>
        </g>
    </g>
</svg>