<?xml version="1.0" encoding="UTF-8"?>
<svg width="27px" height="27px" viewBox="0 0 27 27" version="1.1" xmlns="http://www.w3.org/2000/svg" xmlns:xlink="http://www.w3.org/1999/xlink">
    <!-- Generator: Sketch 56.3 (81716) - https://sketch.com -->
    <title>火箭</title>
    <desc>Created with Sketch.</desc>
    <g id="资金" stroke="none" stroke-width="1" fill="none" fill-rule="evenodd">
        <g id="Home" transform="translate(-22.000000, -1193.000000)" fill-rule="nonzero">
            <g id="火箭" transform="translate(22.000000, 1193.000000)">
                <g id="Group">
                    <path d="M22.95,16.6235294 C23.328,15.3 23.382,15.0352941 23.814,13.6058824 L15.066,6.45882353 L6.318,13.5529412 C6.75,15.0352941 6.804,15.3 7.182,16.5705882 L22.95,16.5705882 L22.95,16.6235294 Z" id="Path" fill="#FF6D8C"></path>
                    <path d="M15.066,0.211764706 C12.744,2.48823529 11.448,5.55882353 11.448,8.78823529 L11.448,17.5764706 L18.684,17.5764706 L18.684,8.78823529 C18.684,5.55882353 17.388,2.48823529 15.066,0.211764706 Z" id="Path" fill="#FF9566"></path>
                    <ellipse id="Oval" fill="#FFB44A" cx="15.066" cy="9.15882353" rx="1.944" ry="1.90588235"></ellipse>
                    <path d="M26.892,1.8 C26.838,1.58823529 26.568,1.42941176 26.352,1.48235294 C25.434,1.74705882 24.678,2.48823529 24.462,3.38823529 C24.408,3.38823529 24.354,3.38823529 24.3,3.38823529 C23.382,3.38823529 22.626,4.02352941 22.41,4.81764706 L21.06,4.81764706 C20.79,4.81764706 20.628,5.02941176 20.628,5.24117647 C20.628,5.50588235 20.844,5.66470588 21.06,5.66470588 L22.788,5.66470588 C23.004,5.71764706 23.22,5.50588235 23.22,5.29411765 C23.22,4.71176471 23.706,4.28823529 24.246,4.28823529 C24.246,4.28823529 24.3,4.28823529 24.3,4.28823529 C24.3,4.44705882 24.354,4.60588235 24.354,4.81764706 C24.408,5.02941176 24.57,5.13529412 24.786,5.13529412 C24.84,5.13529412 24.84,5.13529412 24.894,5.13529412 C25.11,5.08235294 25.272,4.81764706 25.218,4.60588235 C25.164,4.44705882 25.164,4.34117647 25.164,4.18235294 C25.164,4.12941176 25.164,4.07647059 25.164,4.02352941 C25.218,3.28235294 25.812,2.59411765 26.514,2.38235294 C26.838,2.27647059 26.946,2.01176471 26.892,1.8 Z" id="Path" fill="#FFB44A"></path>
                    <path d="M8.964,8.36470588 L7.614,8.36470588 C7.668,8.20588235 7.668,8.04705882 7.668,7.88823529 C7.668,6.61764706 6.642,5.61176471 5.346,5.61176471 C4.32,5.61176471 3.456,6.24705882 3.132,7.2 C3.132,7.2 3.078,7.2 3.078,7.2 C2.322,7.2 1.728,7.67647059 1.512,8.36470588 L0.54,8.36470588 C0.27,8.36470588 0.108,8.57647059 0.108,8.78823529 C0.108,9.05294118 0.324,9.21176471 0.54,9.21176471 L1.89,9.21176471 C2.16,9.21176471 2.322,9 2.322,8.78823529 C2.322,8.41764706 2.646,8.1 3.024,8.1 C3.024,8.20588235 3.024,8.31176471 3.078,8.41764706 C3.132,8.62941176 3.402,8.78823529 3.618,8.73529412 C3.834,8.68235294 3.996,8.41764706 3.942,8.20588235 C3.942,8.1 3.888,7.99411765 3.888,7.88823529 C3.888,7.83529412 3.888,7.78235294 3.888,7.72941176 C3.942,6.98823529 4.59,6.45882353 5.292,6.45882353 C6.102,6.45882353 6.696,7.09411765 6.696,7.83529412 C6.696,8.1 6.642,8.31176471 6.534,8.52352941 C6.534,8.52352941 6.534,8.52352941 6.534,8.52352941 C6.534,8.52352941 6.534,8.57647059 6.534,8.57647059 C6.534,8.57647059 6.534,8.57647059 6.534,8.62941176 C6.534,8.62941176 6.534,8.68235294 6.534,8.68235294 C6.534,8.68235294 6.534,8.73529412 6.534,8.73529412 C6.534,8.73529412 6.534,8.73529412 6.534,8.73529412 C6.534,8.73529412 6.534,8.73529412 6.534,8.73529412 C6.534,8.73529412 6.534,8.78823529 6.534,8.78823529 C6.534,8.78823529 6.534,8.84117647 6.534,8.84117647 C6.534,8.84117647 6.534,8.89411765 6.534,8.89411765 C6.534,8.89411765 6.534,8.94705882 6.534,8.94705882 C6.534,8.94705882 6.534,8.94705882 6.534,9 C6.534,9 6.534,9 6.534,9.05294118 C6.534,9.05294118 6.534,9.05294118 6.588,9.10588235 C6.588,9.10588235 6.588,9.10588235 6.642,9.15882353 C6.642,9.15882353 6.642,9.15882353 6.696,9.15882353 C6.696,9.15882353 6.696,9.15882353 6.75,9.21176471 C6.75,9.21176471 6.75,9.21176471 6.75,9.21176471 C6.75,9.21176471 6.75,9.21176471 6.75,9.21176471 C6.75,9.21176471 6.804,9.21176471 6.804,9.26470588 C6.804,9.26470588 6.804,9.26470588 6.858,9.26470588 C6.912,9.26470588 6.912,9.26470588 6.966,9.26470588 C6.966,9.26470588 6.966,9.26470588 6.966,9.26470588 C6.966,9.26470588 6.966,9.26470588 6.966,9.26470588 L8.964,9.26470588 C9.234,9.26470588 9.396,9.05294118 9.396,8.84117647 C9.396,8.57647059 9.234,8.36470588 8.964,8.36470588 Z" id="Path" fill="#FFB44A"></path>
                </g>
                <path d="M25.1724839,27 L4.87832078,27 C4.08142956,27 3.65642091,25.902439 4.34705997,25.4085366 L4.34705997,25.4085366 C4.2408078,25.0792683 4.29393388,24.695122 4.45331213,24.3109756 C4.66581646,23.8170732 5.09082511,23.4878049 5.56895984,23.3780488 C5.72833809,22.445122 6.52522931,21.7317073 7.4283727,21.7317073 C8.01275959,21.7317073 8.54402041,22.0060976 8.8627769,22.445122 C9.12840731,22.2256098 9.50028988,22.1158537 9.87217245,22.1158537 C10.7753158,22.1158537 11.519081,22.7743902 11.6784592,23.652439 C11.9440896,23.4878049 12.3159722,23.4329268 12.6347287,23.4329268 C13.0066113,23.4329268 13.3253677,23.5426829 13.6441242,23.652439 L13.6441242,18 L16.3004283,18 L16.3004283,23.652439 C16.6191848,23.4878049 16.9379413,23.4329268 17.3098239,23.4329268 C17.6285804,23.4329268 17.9473368,23.4878049 18.2660933,23.652439 C18.4254716,22.7743902 19.1692367,22.1158537 20.0723801,22.1158537 C20.4442627,22.1158537 20.8161452,22.2256098 21.0817757,22.445122 C21.4536582,22.0060976 21.931793,21.7317073 22.5161799,21.7317073 C23.4724493,21.7317073 24.2693405,22.445122 24.3755927,23.3780488 C24.8537274,23.4878049 25.2787361,23.8170732 25.4912404,24.3109756 C25.6506187,24.6402439 25.7037447,25.0792683 25.5974926,25.4085366 C25.5974926,25.4085366 25.5974926,25.4085366 25.5974926,25.4085366 C26.3412577,25.902439 25.9693752,27 25.1724839,27 Z" id="Path" fill="#E91C41"></path>
            </g>
        </g>
    </g>
</svg>