<?xml version="1.0" encoding="UTF-8"?>
<svg width="20px" height="20px" viewBox="0 0 20 20" version="1.1" xmlns="http://www.w3.org/2000/svg" xmlns:xlink="http://www.w3.org/1999/xlink">
    <!-- Generator: Sketch 56.3 (81716) - https://sketch.com -->
    <title>ZB.COM/Icon/32/title_back</title>
    <desc>Created with Sketch.</desc>
    <g id="ZB.com" stroke="none" stroke-width="1" fill="none" fill-rule="evenodd">
        <g id="assets-01" transform="translate(-18.000000, -58.000000)" fill="#FFFFFF">
            <g id="ZB.COM/0_Bars/title_normal">
                <g id="ZB.COM/Icon/32/title_back" transform="translate(12.000000, 52.000000)">
                    <path d="M9.48703677,17 L16.6920088,24.2066643 C17.1026637,24.6169147 17.1026637,25.2820619 16.6920088,25.6923122 C16.2813539,26.1025626 15.6155507,26.1025626 15.2048957,25.6923122 L6.3079912,16.7933357 C6.08980069,16.5753602 5.98753987,16.2854261 6.00120874,16 C5.98753987,15.7145739 6.08980069,15.4246398 6.3079912,15.2066643 L15.2048957,6.30768776 C15.6155507,5.89743741 16.2813539,5.89743741 16.6920088,6.30768776 C17.1026637,6.71793811 17.1026637,7.38308534 16.6920088,7.79333569 L9.48703677,15 L25,15 C25.5522847,15 26,15.4477153 26,16 C26,16.5522847 25.5522847,17 25,17 L9.48703677,17 Z" id="Combined-Shape"></path>
                </g>
            </g>
        </g>
    </g>
</svg>