<?xml version="1.0" encoding="UTF-8"?>
<svg width="18px" height="21px" viewBox="0 0 18 21" version="1.1" xmlns="http://www.w3.org/2000/svg" xmlns:xlink="http://www.w3.org/1999/xlink">
    <!-- Generator: Sketch 56.3 (81716) - https://sketch.com -->
    <title>Bag_of_money</title>
    <desc>Created with Sketch.</desc>
    <g id="Symbols" stroke="none" stroke-width="1" fill="none" fill-rule="evenodd">
        <g id="icon" transform="translate(-3.000000, -2.000000)" fill="#FFFFFF" fill-rule="nonzero">
            <g id="Element-/-icon">
                <path d="M12.0063615,14.6998726 C11.6687543,14.7018151 11.363499,14.4993904 11.2339136,14.1876372 C11.1043282,13.875884 11.1761501,13.5167208 11.4156588,13.2787754 C11.7456596,12.9617583 12.2670635,12.9617583 12.5970643,13.2787754 C12.754048,13.433847 12.842124,13.6455026 12.841493,13.8661623 C12.841493,14.2585874 13.1596164,14.5767109 13.5520416,14.5767109 C13.9444667,14.5767109 14.2625902,14.2585874 14.2625902,13.8661623 C14.2669771,12.8112757 13.5331574,11.8969632 12.5023245,11.6729356 L12.4786395,11.2323954 C12.4786395,10.8399703 12.1605161,10.5218468 11.7680909,10.5218468 C11.3756657,10.5218468 11.0575423,10.8399703 11.0575423,11.2323954 L11.0575423,11.8292563 C10.8174669,11.9366288 10.5983726,12.0857925 10.4104694,12.2697964 C9.76386545,12.9147949 9.57020725,13.8861429 9.92001763,14.7297971 C10.269828,15.5734513 11.0940091,16.1227653 12.0073089,16.1209698 C12.4147203,16.1210082 12.7819353,16.366623 12.9375265,16.7431538 C13.0931177,17.1196845 13.0064006,17.5528746 12.7178575,17.8404974 C12.5846015,17.9686388 12.4193621,18.0586206 12.2394215,18.1010319 C12.0902063,18.1010319 11.9405174,18.1057689 11.7908284,18.1057689 C11.2888441,18.0031231 10.9476421,17.5350481 11.0035406,17.025735 C11.042067,16.6352908 10.7568478,16.2875142 10.3664154,16.2488686 C10.178517,16.2274391 9.98992009,16.2827255 9.84332987,16.4022091 C9.69673965,16.5216926 9.6045565,16.6952658 9.58765408,16.8836253 C9.47675741,17.9453247 10.0775878,18.9534552 11.0641741,19.3610714 C11.0965448,19.6944513 11.3581951,19.9594836 11.6911318,19.996133 C12.0240684,20.0327823 12.337104,19.8310109 12.4412173,19.5126551 C13.6772105,19.2887737 14.5378588,18.1584006 14.4248247,16.9073908 C14.3117905,15.656381 13.2624669,14.6985822 12.0063615,14.6998726 Z M21.0066438,19.0531671 C20.8171642,16.9262582 19.8119748,10.3039453 15.6983721,7.73649631 C15.7021617,7.72702233 15.7073723,7.71754835 15.7106882,7.70807437 L17.1317854,3.91848183 C17.2948631,3.48201645 17.2336233,2.99333487 16.9678872,2.6106069 C16.7021512,2.22787893 16.2656796,1.99972863 15.7997437,2 L8.21203199,2 C7.74601238,1.9995732 7.30939724,2.22765957 7.04354962,2.6104121 C6.777702,2.99316464 6.71640938,3.48193798 6.87951651,3.91848183 L8.30061372,7.70807437 C8.30392961,7.71754835 8.3091403,7.72702233 8.31292989,7.73649631 C4.19837979,10.3039453 3.19271667,16.9262582 3.00418444,19.0531671 C2.95799655,20.0850758 3.295487,21.0975472 3.95158257,21.8953615 C4.59332169,22.5462521 5.4831002,22.8911275 6.39586976,22.8427596 L17.61259,22.8427596 C18.5254919,22.8910806 19.4153974,22.5462228 20.0573509,21.8953615 C20.714127,21.0978204 21.0523018,20.0853211 21.0066438,19.0531671 L21.0066438,19.0531671 Z M8.21203199,3.4210978 L15.8016385,3.4210978 L14.3805413,7.21069035 L9.63502399,7.21069035 L8.21203199,3.4210978 Z M17.6144848,21.4216624 L6.39776456,21.4216624 C5.29404573,21.4216624 4.32959443,20.625848 4.42717644,19.5268661 C4.77724005,15.5809529 6.29212967,10.1665725 9.63502399,8.63178755 L14.3776991,8.63178755 C17.7205934,10.1665725 19.235483,15.5809529 19.5855466,19.5268661 C19.6826549,20.625848 18.7182036,21.4216624 17.6144848,21.4216624 Z" id="Bag_of_money"></path>
            </g>
        </g>
    </g>
</svg>