<?xml version="1.0" encoding="UTF-8"?>
<svg width="32px" height="28px" viewBox="0 0 32 28" version="1.1" xmlns="http://www.w3.org/2000/svg" xmlns:xlink="http://www.w3.org/1999/xlink">
    <!-- Generator: Sketch 56.3 (81716) - https://sketch.com -->
    <title>编组 2</title>
    <desc>Created with Sketch.</desc>
    <g id="资金" stroke="none" stroke-width="1" fill="none" fill-rule="evenodd">
        <g id="Home" transform="translate(-23.000000, -535.000000)" fill-rule="nonzero">
            <g id="编组-2" transform="translate(23.000000, 535.000000)">
                <path d="M19.8856621,1.47133692 C19.2177422,1.30391142 18.6959266,0.781870861 18.5284034,0.114134934 L18.4998448,0 L18.4714931,0.114134934 C18.3039699,0.781870861 17.7820508,1.30380795 17.114131,1.47133692 L17,1.50010348 L17.114131,1.52866308 C17.7820508,1.6959851 18.3039699,2.21792219 18.4714931,2.88586507 L18.4998448,3 L18.5284034,2.88586507 C18.6959266,2.21792219 19.2177422,1.6959851 19.8856621,1.52866308 L20,1.50010348 L19.8856621,1.47133692 Z" id="Path" fill="#D0021B"></path>
                <path d="M3.84775952,11.9619142 C2.95708802,11.7386616 2.26118083,11.0426794 2.03803856,10.1520844 L1.99991374,10 L1.9620477,10.1520844 C1.73864666,11.0427656 1.04273947,11.7386616 0.15224048,11.9619142 L0,12.0001294 L0.15224048,12.0382583 C1.04273947,12.2615109 1.73864666,12.9572344 1.9620477,13.8482607 L1.99991374,14 L2.03803856,13.8482607 C2.26118083,12.9573206 2.95708802,12.2615109 3.84775952,12.0382583 L4,12.0001294 L3.84775952,11.9619142 Z" id="Path" fill="#FFBE1B"></path>
                <path d="M13.8476765,25.9618296 C12.9570243,25.7384141 12.2611321,25.0427207 12.0379084,24.1520778 L11.9998706,24 L11.9619191,24.1520778 C11.7386092,25.0426344 11.042717,25.7384141 10.1522372,25.9618296 L10,25.9999569 L10.1522372,26.0380841 C11.042717,26.2614996 11.7386092,26.9572793 11.9619191,27.848181 L11.9998706,28 L12.0379084,27.848181 C12.2611321,26.9572793 12.9570243,26.2614996 13.8476765,26.0380841 L14,25.9999569 L13.8476765,25.9618296 Z" id="Path" fill="#FFBE1B"></path>
                <path d="M31.8483581,6.96194406 C30.9569603,6.73888125 30.2612184,6.0430995 30.0381684,5.15210912 L30.0001146,5 L29.961717,5.15210912 C29.738667,6.0430995 29.0430397,6.73888125 28.1517565,6.96194406 L28,7.00011463 L28.1517565,7.03805594 C29.0430397,7.26111875 29.738667,7.9569005 29.961717,8.84834938 L30.0001146,9 L30.0381684,8.84834938 C30.2612184,7.9569005 30.9569603,7.26111875 31.8483581,7.03805594 L32,7.00011463 L31.8483581,6.96194406 Z" id="Path" fill="#F5A623"></path>
                <path d="M26.8479238,2.96188156 C25.9568624,2.73863524 25.26113,2.04289147 25.0377557,1.15194707 L24.9999012,1 L24.9613884,1.15194707 C24.7382116,2.04289147 24.0427426,2.73863524 23.1518129,2.96188156 L23,3.00013167 L23.1518129,3.03825011 C24.0427426,3.26110142 24.7382116,3.95677935 24.9613884,4.84805293 L24.9999012,5 L25.0377557,4.84805293 C25.2611959,3.95677935 25.9568624,3.26116725 26.8479238,3.03825011 L27,3.00013167 L26.8479238,2.96188156 Z" id="Path" fill="#F5A623"></path>
                <path d="M25.9490468,6 L8.05144249,6 C6.91856607,6 6,6.97417464 6,8.17532798 L6,21.824153 C6,23.0259119 6.91848453,24 8.05144249,24 L25.9490468,24 C27.0818417,24 28,23.0259119 28,21.824153 L28,8.17532798 C28,6.97417464 27.0818417,6 25.9490468,6 Z" id="Path" fill="#D0021B"></path>
                <circle id="Oval" fill="#FFFFFF" cx="21" cy="8" r="1"></circle>
                <path d="M23.0000667,7 C22.4474368,7 22,7.44773333 22,8 C22,8.55226667 22.4474368,9 23.0000667,9 C23.5521632,9 24,8.55226667 24,8 C24,7.44773333 23.5522965,7 23.0000667,7 Z" id="Path" fill="#FFFFFF"></path>
                <circle id="Oval" fill="#FFFFFF" cx="25" cy="8" r="1"></circle>
                <path d="M6,10 L6,21.8454027 C6,23.035425 6.91848453,24 8.05144249,24 L25.9490468,24 C27.0818417,24 28,23.035425 28,21.8454027 L28,10 L6,10 Z" id="Path" fill="#EA5265"></path>
                <path d="M10.4997611,12 C8.5668563,12 7,13.5670429 7,15.5001593 C7,17.4330367 8.56693594,19 10.4997611,19 C12.4327455,19 14,17.4329571 14,15.5001593 C14,13.5669633 12.4327455,12 10.4997611,12 Z" id="Path" fill="#FFBE1B"></path>
                <path d="M10.5000379,13 C9.11959075,13 8,14.1190523 8,15.5001137 C8,16.8806445 9.11959075,18 10.5000379,18 C11.8807882,18 13,16.8807203 13,15.5001137 C13.0000758,14.1190523 11.880864,13 10.5000379,13 Z" id="Path" fill="#FFE37B"></path>
                <path d="M11.8245253,15.209398 C11.707509,15.0716281 11.5501593,14.980696 11.352576,14.9374143 C11.4070509,14.9126238 11.4450936,14.8948438 11.4666047,14.8840742 C11.487817,14.8732029 11.5259594,14.8461773 11.5804342,14.8019812 C11.7416678,14.6782322 11.8220356,14.488951 11.8220356,14.2347473 C11.8220356,14.0238252 11.7509295,13.8350521 11.6079206,13.6675133 C11.528947,13.577394 11.4113332,13.5061722 11.2544815,13.4531369 C11.2079737,13.4376937 11.1577812,13.424892 11.1055969,13.4136144 L11.1055969,13 L10.5461094,13 L10.5461094,13.3744983 L10.1713584,13.3744983 L10.1713584,13 L9.61197052,13 L9.61197052,13.3744983 L9.4555172,13.3744983 L9,13.3744983 L9,13.9877572 L9.4555172,13.9877572 L9.4555172,16.0117348 L9,16.0117348 L9,16.6262129 L9.4555172,16.6262129 L9.61197052,16.6262129 L9.61197052,17 L10.1713584,17 L10.1713584,16.6262129 L10.5461094,16.6262129 L10.5461094,17 L11.1055969,17 L11.1055969,16.6118872 C11.4095406,16.5782576 11.6324193,16.4830582 11.7721418,16.323241 C11.9240141,16.1499111 12,15.9502667 12,15.723495 C11.9999004,15.5185674 11.9413425,15.3478791 11.8245253,15.209398 Z M10.1670761,13.9878588 L10.5085646,13.9878588 C10.7186961,13.9878588 10.8674811,14.0118364 10.9557164,14.0578613 C11.0438521,14.104699 11.0878701,14.2002032 11.0878701,14.3441707 C11.0878701,14.4885446 11.0402669,14.5825248 10.9443633,14.6255017 C10.8484597,14.6688849 10.7019652,14.6909322 10.5042823,14.6909322 L10.1670761,14.6909322 L10.1670761,13.9878588 Z M11.1129664,15.9349251 C11.0113863,15.9863348 10.8585181,16.011938 10.6546607,16.011938 L10.1670761,16.011938 L10.1670761,15.2632461 L10.5863431,15.2632461 C10.8235626,15.2632461 10.9959501,15.2868174 11.1038043,15.3351791 C11.2118577,15.3831344 11.2655359,15.4821946 11.2655359,15.6326645 C11.2656354,15.7828296 11.2148453,15.8838202 11.1129664,15.9349251 Z" id="Shape" fill="#FFFFFF"></path>
                <polygon id="Path" fill="#F5A623" points="24 14 24 20.8395156 26 21 26 14"></polygon>
                <rect id="Rectangle" fill="#F5A623" x="21" y="16" width="2" height="5"></rect>
                <rect id="Rectangle" fill="#F5A623" x="18" y="15" width="2" height="4"></rect>
                <rect id="Rectangle" fill="#F5A623" x="15" y="16" width="2" height="3"></rect>
                <path d="M24.8848699,10.1331392 C24.8010784,10.048124 24.6786547,9.99879729 24.5581715,10 L22.6246181,10.003779 C22.3810056,10.004269 22.1839634,10.1874476 22.1844926,10.4130113 C22.1850218,10.6382483 22.3823286,10.8204469 22.6255001,10.8204469 C22.6257647,10.8204469 22.6261175,10.8204469 22.6263821,10.8204469 L23.4622678,10.8188136 L19.0264378,13.662288 L18.349403,13.0638337 C18.1999015,12.9317785 17.9714596,12.9134035 17.799643,13.0198153 L14.1958178,15.2522588 C13.9933953,15.377699 13.9390632,15.6312744 14.0745407,15.8186997 C14.159567,15.9363816 14.2991899,16 14.441459,16 C14.5257796,16 14.6109823,15.9776233 14.6863064,15.9309916 L17.996156,13.8805834 L18.6773362,14.4827126 C18.82869,14.6164828 19.0608363,14.6333879 19.2329175,14.523056 L24.0092053,11.4612862 L23.9487873,12.0565555 C23.9260313,12.2810575 24.1041101,12.4802428 24.3465761,12.5013129 C24.3606001,12.5025379 24.374536,12.5031095 24.3883836,12.5031095 C24.6132974,12.5031095 24.8054885,12.3445126 24.8269215,12.132914 L24.9980324,10.4463313 C25.0097632,10.3319161 24.9686613,10.2181543 24.8848699,10.1331392 Z" id="Path" fill="#FFFFFF"></path>
            </g>
        </g>
    </g>
</svg>