<?xml version="1.0" encoding="UTF-8"?>
<svg width="25px" height="27px" viewBox="0 0 25 27" version="1.1" xmlns="http://www.w3.org/2000/svg" xmlns:xlink="http://www.w3.org/1999/xlink">
    <!-- Generator: Sketch 56.3 (81716) - https://sketch.com -->
    <title>ZB.COM/Icon/32/pop_recharge</title>
    <desc>Created with Sketch.</desc>
    <g id="ZB.com" stroke="none" stroke-width="1" fill="none" fill-rule="evenodd">
        <g id="assets-21" transform="translate(-175.000000, -428.000000)" fill="#666666">
            <g id="ZB.COM/4_Assets/assets_button_03" transform="translate(149.000000, 413.000000)">
                <g id="ZB.COM/0_Global/pop_loan" transform="translate(22.493506, 12.000000)">
                    <path d="M5.86529266,23.3185051 C4.37714835,21.2613073 3.5,18.7330881 3.5,16 C3.5,9.09644063 9.09644063,3.5 16,3.5 C20.3454837,3.5 24.3087602,5.73603329 26.5825241,9.34434219 C26.8769617,9.81159472 26.7368676,10.4290666 26.269615,10.7235042 C25.8023625,11.0179419 25.1848906,10.8778477 24.890453,10.4105952 C22.9791978,7.37756286 19.6512952,5.5 16,5.5 C10.2010101,5.5 5.5,10.2010101 5.5,16 C5.5,18.5213414 6.38868901,20.8351184 7.86992104,22.645185 C8.68794541,22.4415961 9.47960047,22.3488948 10.064999,22.4885145 C10.8541983,22.6767413 15.8749546,24.196204 16.4587422,24.5742718 C17.1758114,25.0386543 16.8157364,25.4413814 16.3315766,25.7313504 C15.4532477,26.2573919 12.5528792,24.5203185 12.4365476,25.5788191 C12.5444413,25.882031 14.2828776,26.2880286 15.7336098,26.4966867 C15.8221388,26.4988912 15.9109399,26.5 16,26.5 C16.1389602,26.5 16.2713004,26.5283437 16.3915547,26.5795652 C16.4161691,26.5821706 16.4405758,26.5846898 16.464762,26.5871208 C17.9817384,26.7396007 25.6448012,23.4455874 26.1910036,23.20377 C27.7571383,22.5104032 28.4112829,24.1865394 27.2264224,24.989731 C26.0415618,25.7929227 18.94923,29.8493231 17.1777951,29.6712662 L16.1373016,29.5666803 C15.0428359,29.4566693 11.127605,28.6646431 4.39160882,27.1906017 C4.0555465,27.1568221 3.81494818,26.6417469 3.83575082,26.4524639 L4.08148009,24.2165753 C4.15608071,24.1652598 4.27599237,24.0914973 4.43221707,24.0023544 C4.76994773,23.8096431 5.27808324,23.5611423 5.86529266,23.3185051 Z M18.1505485,11.0611753 L18.3120658,10.4790755 C18.3597349,10.3624234 18.455073,10.3157626 18.5742456,10.339093 L19.2416124,10.5257364 C19.3369505,10.5723972 19.408454,10.6657189 19.3846195,10.782371 L18.8602599,12.6721347 L19.2416124,12.7654564 C20.5286768,13.0920822 21.2675471,14.4685768 20.9100292,15.821741 C20.767022,16.3350102 20.4333387,16.824949 20.0043172,17.1749052 C20.5048422,17.8048265 20.6955185,18.6680519 20.4810077,19.4846165 C20.1711589,20.7911199 18.8125909,21.584354 17.4778574,21.2810586 L16.5721454,21.0477544 L16.0477858,22.9375182 C16.0001168,23.0541703 15.9047787,23.1008311 15.7856061,23.0775007 L15.1182393,22.8908574 C15.0229012,22.8441966 14.9513976,22.7508749 14.9752322,22.6342228 L15.0913955,22.2155763 C15.0748445,22.180408 15.0686858,22.1399619 15.0777089,22.0958005 L15.4557751,20.7332704 L14.4690257,20.4813019 L14.0909596,21.843832 C14.0680424,21.8999131 14.0328836,21.93802 13.9887527,21.9581527 L13.878844,22.3542578 C13.8311749,22.4709099 13.7358368,22.5175707 13.6166642,22.4942403 L12.9254629,22.307597 C12.8301248,22.2609361 12.7586212,22.1676145 12.7824557,22.0509624 L13.3068153,20.1611986 L11.161708,19.6012686 C11.1378734,19.5779382 11.1378734,19.5779382 11.1140389,19.5779382 C11.0187008,19.5312773 10.9710317,19.4146253 11.0187008,19.3213036 L11.3285496,18.6913823 C11.3762187,18.5980607 11.4715568,18.5513998 11.5668949,18.5747302 C11.5907294,18.5980607 11.614564,18.5980607 11.6383985,18.5980607 C11.6812616,18.6035332 11.7239789,18.6064384 11.7663569,18.6068878 L11.7956947,18.5472441 C11.8385968,18.4632546 11.9244011,18.4212598 12.0102054,18.4422572 C12.0316565,18.4632546 12.0531076,18.4632546 12.0745586,18.4632546 C12.1566706,18.4737383 12.2381884,18.4737533 12.317431,18.4642673 C12.5668513,18.3215288 12.7531686,18.0804854 12.8062903,17.7814961 L13.9026785,13.7220035 C13.957974,13.5209639 13.9635266,13.3199244 13.9193363,13.1316248 C13.7844533,12.9714412 13.5913985,12.839228 13.340172,12.7519685 C13.2543677,12.7099738 13.2114655,12.6049869 13.2329166,12.5209974 L13.2816303,12.3541055 C13.2086239,12.3158574 13.1296256,12.2817072 13.0446355,12.2521872 C12.9492974,12.2055264 12.9016284,12.0888743 12.9254629,11.9955526 L13.1161391,11.342301 C13.1638082,11.2256489 13.2591463,11.178988 13.3783189,11.2023185 L15.6187644,11.7855789 L16.1431239,9.89581511 C16.190793,9.77916302 16.2861311,9.73250219 16.4053037,9.7558326 L17.0726705,9.94247594 C17.1680086,9.98913677 17.2395122,10.0824584 17.2156776,10.1991105 L17.0619842,10.7530135 C17.0916347,10.7946479 17.1059559,10.846222 17.0941099,10.9041995 L16.7604926,12.1065382 L17.747242,12.3585067 L18.0808593,11.156168 C18.0978233,11.1146549 18.1214951,11.0829907 18.1505485,11.0611753 Z M18.0386689,16.2354976 C18.2476633,16.100199 18.4057954,15.8881286 18.4669786,15.6286089 C18.6171361,15.0826772 18.2739189,14.5367454 17.716191,14.4107612 L16.2146158,14.011811 L15.7134135,15.8172252 L17.3110157,16.2416885 C17.3110157,16.265019 17.3348503,16.265019 17.3586848,16.265019 C17.5940521,16.3270468 17.8294194,16.3116672 18.0386689,16.2354976 Z M16.9010502,19.3031496 C16.9225013,19.3031496 16.9225013,19.3031496 16.9439523,19.3031496 C17.5016803,19.4501312 18.0594082,19.1141732 18.1881146,18.5682415 C18.3382721,18.0223097 17.995055,17.476378 17.437327,17.3503937 L15.4423772,16.8254593 L14.9061004,18.7782152 L16.9010502,19.3031496 Z" id="Combined-Shape"></path>
                </g>
            </g>
        </g>
    </g>
</svg>