<?xml version="1.0" encoding="UTF-8"?>
<svg width="27px" height="27px" viewBox="0 0 27 27" version="1.1" xmlns="http://www.w3.org/2000/svg" xmlns:xlink="http://www.w3.org/1999/xlink">
    <!-- Generator: Sketch 56.3 (81716) - https://sketch.com -->
    <title>编组 3</title>
    <desc>Created with Sketch.</desc>
    <g id="资金" stroke="none" stroke-width="1" fill="none" fill-rule="evenodd">
        <g id="Home" transform="translate(-26.000000, -595.000000)" fill-rule="nonzero">
            <g id="编组-3" transform="translate(26.000000, 595.000000)">
                <path d="M23.847793,22.9617394 C22.956765,22.7385938 22.2613847,22.0427449 22.0380929,21.1518904 L21.9997532,21 L21.9616603,21.1518904 C21.7385331,22.0426626 21.0428236,22.7385115 20.1517134,22.9617394 L20,22.9999177 L20.1517134,23.0380137 C21.0428236,23.2612416 21.7385331,23.956926 21.9616603,24.8480273 L21.9997532,25 L22.0380929,24.8480273 C22.2613847,23.956926 22.956765,23.2612416 23.847793,23.0380137 L24,22.9999177 L23.847793,22.9617394 Z" id="Path" fill="#F5A623"></path>
                <path d="M19.88589,25.4712514 C19.217656,25.3038815 18.6960933,24.7819617 18.5286483,24.1139314 L18.4999517,24 L18.4712551,24.1139314 C18.3039067,24.7819617 17.7821508,25.3038815 17.1138201,25.4712514 L17,25.499855 L17.1138201,25.5284587 C17.7821508,25.6958286 18.3038101,26.2176518 18.4712551,26.885972 L18.4999517,27 L18.5286483,26.885972 C18.6959967,26.2175552 19.217656,25.6958286 19.88589,25.5284587 L20,25.499855 L19.88589,25.4712514 Z" id="Path" fill="#F5A623"></path>
                <path d="M9.84787793,1.96184688 C8.95684106,1.73858361 8.26140177,1.04296446 8.03760842,0.151937199 L7.99978895,0 L7.96171623,0.151937199 C7.73885149,1.04296446 7.04265243,1.73866802 6.1513623,1.96184688 L6,2.00008441 L6.1513623,2.03857517 C7.04273685,2.26158521 7.73893591,2.95703554 7.96171623,3.84797839 L7.99978895,4 L8.03760842,3.84797839 C8.26140177,2.95695113 8.95692548,2.26158521 9.84787793,2.03857517 L10,2.00008441 L9.84787793,1.96184688 Z" id="Path" fill="#FFBE1B"></path>
                <path d="M12.8858787,2.47131728 C12.2176184,2.30391289 11.6960602,1.78213527 11.5281983,1.11393414 L11.4997787,1 L11.4712705,1.11393414 C11.3042054,1.7822238 10.7820274,2.30391289 10.1135015,2.47131728 L10,2.5 L10.1135015,2.52885977 C10.7820274,2.69608711 11.3042054,3.21768768 11.4712705,3.88597734 L11.4997787,4 L11.5281983,3.88597734 C11.6960602,3.2177762 12.2176184,2.69617564 12.8858787,2.52885977 L13,2.5 L12.8858787,2.47131728 Z" id="Path" fill="#FFBE1B"></path>
                <path d="M6.84760741,20.9621046 C5.95688492,20.7388071 5.26164464,20.042836 5.03784348,19.1521927 L4.99964347,19 L4.96185092,19.1521927 C4.73835536,20.0427342 4.04270762,20.7387052 3.15167953,20.9621046 L3,21.0001019 L3.15167953,21.0380991 C4.04270762,21.2612948 4.73835536,21.9570621 4.96185092,22.8479091 L4.99964347,23 L5.03784348,22.8479091 C5.26154277,21.9570621 5.95678305,21.2612948 6.84760741,21.0380991 L7,21.0001019 L6.84760741,20.9621046 Z" id="Path" fill="#D0021B"></path>
                <path d="M19.9997118,4 C16.1340051,4 13,7.14867812 13,11.0335538 C13,12.6618437 13.5522556,14.1597248 14.4768266,15.351774 C14.7674484,15.5022903 15.0380586,15.6865673 15.2819866,15.900964 L22.9166358,15.900964 C22.9166358,17.016969 22.0162764,17.9216389 20.9055888,17.9216389 L20.9547532,17.9216389 C20.9547532,17.9478696 20.953765,17.9739348 20.9527767,18 C24.3677684,17.5326465 27,14.5928211 27,11.033471 C27,7.14876087 23.8657478,4 19.9997118,4 Z" id="Path" fill="#FFBE1B"></path>
                <path d="M19.4998707,6 C16.4624511,6 14,8.32925865 14,11.2030956 C14,13.3609401 15.3887169,15.2118375 17.3668843,16 L21.6330295,16 C23.6111107,15.2118375 25,13.3609401 25,11.2030956 C25,8.32925865 22.5374627,6 19.4998707,6 Z" id="Path" fill="#FFE37B"></path>
                <path d="M20.5970195,12.0470421 C20.3282841,11.8251366 19.9079106,11.6489269 19.3358171,11.5186505 L19.3134429,11.5186505 L19.3134429,10.1579948 C19.6964989,10.2111349 20.0523629,10.3510731 20.3807083,10.5778095 L20.8657548,9.91193474 C20.3780953,9.58873842 19.8607124,9.40777699 19.3134429,9.36912964 L19.3134429,9 L18.8358273,9 L18.8358273,9.36184367 C18.3532306,9.38607745 17.9614372,9.5308466 17.6604471,9.79607191 C17.3592937,10.0615348 17.2089619,10.4029461 17.2089619,10.8202265 C17.2089619,11.2376653 17.3396142,11.5524669 17.6007553,11.7647897 C17.8619781,11.9771917 18.2735327,12.1484121 18.8358273,12.2786885 L18.8358273,13.6828225 C18.3929162,13.6151897 17.962662,13.4054011 17.5448198,13.0531401 L17,13.6828225 C17.5422068,14.1412845 18.1541492,14.404134 18.8357456,14.4716877 L18.8357456,15 L19.3133612,15 L19.3133612,14.4788944 C19.8208635,14.454819 20.2287435,14.3101291 20.5372461,14.0446662 C20.8455853,13.7793617 21,13.4355746 21,13.0133048 C21.0000816,12.5911143 20.8656731,12.2690267 20.5970195,12.0470421 Z M18.8358273,11.3883741 C18.5572114,11.3014968 18.3681739,11.2110557 18.2686332,11.1169716 C18.1690109,11.0228875 18.1194447,10.8950661 18.1194447,10.7333492 C18.1194447,10.5717114 18.1828111,10.4366041 18.3097887,10.3280272 C18.4366847,10.2194504 18.6120037,10.1555397 18.8358273,10.136216 L18.8358273,11.3883741 Z M19.8804736,13.5018611 C19.7412473,13.612893 19.5522098,13.6803675 19.3133612,13.7045221 L19.3133612,12.4017581 C19.6119016,12.4885563 19.8158007,12.5816108 19.9253036,12.6803675 C20.0347249,12.7792825 20.0895172,12.9132811 20.0895172,13.0820464 C20.0895172,13.2510493 20.0198632,13.3909084 19.8804736,13.5018611 Z" id="Shape" fill="#FFFFFF"></path>
                <path d="M6.99967059,3 C3.13402353,3 0,6.14578781 0,10.0271167 C0,13.6173542 2.68272941,16.5764666 6.14492941,17 C6.14361176,16.9698244 6.14262353,16.9396488 6.14262353,16.9091424 L6.19178824,16.9091424 C5.08101176,16.9091424 4.18072941,16.0051966 4.18072941,14.8902694 L11.8640118,14.8902694 C12.0331647,14.7417061 12.2151647,14.6076933 12.4076235,14.4890576 C13.4024471,13.2755016 14,11.7214158 14,10.0271167 C14,6.14587049 10.8658118,3 6.99967059,3 Z" id="Path" fill="#FFBE1B"></path>
                <path d="M6.4999138,5 C3.46251802,5 1,7.32927764 1,10.2029749 C1,12.360837 2.38879224,14.2118311 4.36685788,15 L8.63314212,15 C10.6112078,14.2118311 12,12.360837 12,10.2029749 C12,7.32927764 9.53756818,5 6.4999138,5 Z" id="Path" fill="#FFE37B"></path>
                <path d="M8.76604253,10.3137633 C8.60979628,10.1069782 8.40027803,9.97064502 8.13680128,9.90563064 C8.20977569,9.86851334 8.26043901,9.84171953 8.28879125,9.82517042 C8.31714349,9.80909413 8.36801277,9.76819418 8.44078123,9.70310099 C8.65558549,9.51719926 8.76288465,9.23318492 8.76288465,8.85176721 C8.76288465,8.53528508 8.6678051,8.25190118 8.47723411,8.00082746 C8.37185714,7.86575515 8.2147871,7.75889515 8.00595534,7.67922298 C7.94396485,7.655739 7.8768943,7.63674692 7.80721506,7.62051302 L7.80721506,7 L7.06181887,7 L7.06181887,7.56093621 L6.56177596,7.56093621 L6.56177596,7 L5.81610517,7 L5.81610517,7.56093621 L5.60782261,7.56093621 L5,7.56093621 L5,8.48185508 L5.60782261,8.48185508 L5.60782261,11.5175145 L5,11.5175145 L5,12.4388274 L5.60782261,12.4388274 L5.81610517,12.4388274 L5.81610517,13 L6.56177596,13 L6.56177596,12.4388274 L7.06181887,12.4388274 L7.06181887,13 L7.80721506,13 L7.80721506,12.417944 C8.21259032,12.367745 8.50977397,12.224871 8.69615734,11.9855392 C8.89853605,11.7250089 9,11.4248394 9,11.0850309 C9,10.7780842 8.92194553,10.5213365 8.76604253,10.3137633 Z M6.55648995,8.48193388 L7.01239123,8.48193388 C7.29193197,8.48193388 7.49026035,8.51700225 7.60771964,8.58674495 C7.72552217,8.65640884 7.78408018,8.79928287 7.78408018,9.01591867 C7.78408018,9.23200284 7.72037345,9.37306434 7.5926854,9.43792112 C7.46486004,9.50309311 7.26941493,9.53571851 7.00628143,9.53571851 L6.55648995,9.53571851 L6.55648995,8.48193388 L6.55648995,8.48193388 Z M7.81785573,11.4025375 C7.68172379,11.4794515 7.47810939,11.5175933 7.2066693,11.5175933 L6.55648995,11.5175933 L6.55648995,10.39446 L7.11564007,10.39446 C7.43156504,10.39446 7.66154084,10.4305528 7.80536153,10.5023445 C7.94938816,10.5746089 8.02147013,10.7234722 8.02147013,10.9491706 C8.02140148,11.1746326 7.95357578,11.32586 7.81785573,11.4025375 Z" id="Shape" fill="#FFFFFF"></path>
                <path d="M12.9998767,14 C10.7908963,14 9,15.7907957 9,18.0000822 C9,20.2092866 10.7908963,22 12.9998767,22 C15.2091859,22 17,20.2092866 17,18.0000822 C17,15.7907134 15.2091859,14 12.9998767,14 Z" id="Path" fill="#330D84"></path>
                <path d="M12.9998767,14 C10.7908963,14 9,15.7907957 9,18.0000822 C9,20.2092866 10.7908963,22 12.9998767,22 C15.2091859,22 17,20.2092866 17,18.0000822 C17,15.7907134 15.2091859,14 12.9998767,14 Z" id="Path" fill="#D0021B"></path>
                <path d="M15,16 C15.6263173,16.5195741 16.0891087,17.2121212 16.303634,18 L20.8927158,18 C22.0565545,18 23,17.1045045 23,16 L15,16 Z" id="Path" fill="#D0021B"></path>
                <path d="M16,18 C16.0749777,18.3195741 16.1149955,18.6547093 16.1149955,19.0000819 C16.1149955,19.3454545 16.0749777,19.6805078 16,20 L18.1835019,20 C19.1867004,20 20,19.1045864 20,18 L16,18 Z" id="Path" fill="#D53D50"></path>
                <path d="M15.3275623,20 C15.1090849,20.7878465 14.6376799,21.4804472 14,22 L15.8538064,22 C17.039086,22 18,21.1046231 18,20 L15.3275623,20 Z" id="Path" fill="#F5A623"></path>
                <path d="M3,15 C3,16.1045864 3.93747923,17 5.09395801,17 L9.70469576,17 C9.91786445,16.2121212 10.3778149,15.5195741 11,15 L3,15 Z" id="Path" fill="#D0021B"></path>
                <path d="M10,16 L6,16 C6,17.1045864 6.80444379,18 7.79671866,18 L9.99992643,18 C9.92576516,17.6805078 9.88618305,17.3454545 9.88618305,17.0000819 C9.88625662,16.6546274 9.92583873,16.3194922 10,16 Z" id="Path" fill="#D53D50"></path>
                <path d="M9.68942631,18 L7,18 C7,19.1046231 7.94853053,20 9.11864223,20 L11,20 C10.3703937,19.4804472 9.90510791,18.7878465 9.68942631,18 Z" id="Path" fill="#F5A623"></path>
                <path d="M12.9998768,15 C11.3432002,15 10,16.3430543 10,18 C10,19.6567814 11.3431181,21 12.9998768,21 C14.6567998,21 16,19.6567814 16,18 C16,16.3431364 14.6567998,15 12.9998768,15 Z" id="Path" fill="#FFBE1B"></path>
            </g>
        </g>
    </g>
</svg>