<?xml version="1.0" encoding="UTF-8"?>
<svg width="24px" height="24px" viewBox="0 0 24 24" version="1.1" xmlns="http://www.w3.org/2000/svg" xmlns:xlink="http://www.w3.org/1999/xlink">
    <!-- Generator: Sketch 56.3 (81716) - https://sketch.com -->
    <title>ZB.COM/6_User/other</title>
    <desc>Created with Sketch.</desc>
    <g id="ZB.COM/6_User/other" stroke="none" stroke-width="1" fill="none" fill-rule="evenodd">
        <path d="M3.98709677,10 C4.55483871,10 5.04516129,10.1854305 5.43225806,10.5562914 C5.79354839,10.9271523 6,11.4039735 6,11.986755 C6,12.5695364 5.79354839,13.0728477 5.43225806,13.4437086 C5.01935484,13.8145695 4.55483871,14 3.98709677,14 C3.41935484,14 2.95483871,13.7880795 2.59354839,13.4172185 C2.18064516,13.0463576 2,12.5695364 2,11.986755 C2,11.4039735 2.18064516,10.9271523 2.59354839,10.5562914 C2.95483871,10.1854305 3.41935484,10 3.98709677,10 Z M11.9870968,10 C12.5548387,10 13.0451613,10.1854305 13.4322581,10.5562914 C13.7935484,10.9271523 14,11.4039735 14,11.986755 C14,12.5695364 13.7935484,13.0728477 13.4322581,13.4437086 C13.0193548,13.8145695 12.5548387,14 11.9870968,14 C11.4193548,14 10.9548387,13.7880795 10.5935484,13.4172185 C10.1806452,13.0463576 10,12.5695364 10,11.986755 C10,11.4039735 10.1806452,10.9271523 10.5935484,10.5562914 C10.9548387,10.1854305 11.4193548,10 11.9870968,10 Z M19.9870968,10 C20.5548387,10 21.0451613,10.1854305 21.4322581,10.5562914 C21.7935484,10.9271523 22,11.4039735 22,11.986755 C22,12.5695364 21.7935484,13.0728477 21.4064516,13.4437086 C21.0193548,13.8145695 20.5548387,14 19.9870968,14 C19.4193548,14 18.9548387,13.7880795 18.5677419,13.4172185 C18.1806452,13.0463576 18,12.5695364 18,11.986755 C18,11.4039735 18.1806452,10.9271523 18.5677419,10.5562914 C18.9548387,10.1854305 19.4193548,10 19.9870968,10 Z" id="…" fill="#999999"></path>
    </g>
</svg>