<svg xmlns="http://www.w3.org/2000/svg" width="32" height="32" viewBox="0 0 32 32">
  <g fill="none">
    <circle cx="16" cy="16" r="15.741" fill="#E91C41"/>
    <path fill="#FFF" d="M19.6044589,21.0086931 C20.8858848,21.6651486 20.7292214,22.6383819 20.520337,23.1612563 L19.6084759,25.3481689 L19.6084759,25.3748851 C19.3437048,25.9961802 18.7071596,26.4014078 18.0016724,26.3977591 C17.5463947,26.3839946 17.1002054,26.2731223 16.6961445,26.0733232 C12.0522814,23.8442849 8.28010924,20.2629769 5.93056075,15.8524646 C5.61080685,15.2911379 5.52067521,14.6373064 5.67748919,14.0166793 C5.83847082,13.5622175 6.21486455,13.2060808 6.69379244,13.0548957 L8.9875045,12.1923438 C9.53783471,11.9900639 10.562172,11.8412165 11.2571145,13.0625289 L11.7271045,13.9212642 C12.381877,15.1502099 11.6628324,15.8639144 11.1767743,16.1768757 L10.5019168,16.6005184 C11.9420647,18.6120582 13.7648829,20.3504248 15.8766747,21.7262142 L16.3265797,21.0850251 C16.3368231,21.0675642 16.3474179,21.0502941 16.3583643,21.0332625 C16.8305135,20.2970878 17.8413937,20.0639411 18.6162748,20.5125349 L19.6044589,21.0086931 Z M19.9740238,22.9551598 C20.3034185,22.1269573 19.7651393,21.7338474 19.3313023,21.5124845 L18.3511522,21.0239595 C18.3124885,20.9991993 18.2721677,20.9769199 18.2303908,20.9573121 C17.7152597,20.7154827 17.0913178,20.9161882 16.8367398,21.4056197 L16.2221375,22.2872546 C16.1310518,22.4099106 15.9557596,22.4448802 15.8204366,22.3674032 C13.4403086,20.8708184 11.4030826,18.932605 9.83107636,16.6692173 C9.74953108,16.5406455 9.78633693,16.3740986 9.91543355,16.2875571 L10.8433626,15.7036171 C11.6186453,15.1998257 11.4137779,14.5891695 11.1928424,14.1769765 L10.7308863,13.3182412 C10.5648332,12.9172118 10.1710157,12.6425596 9.71860011,12.6121699 C9.54360916,12.6153186 9.37067693,12.6489524 9.20843999,12.7114016 L6.91472792,13.5739535 C6.60541824,13.6633574 6.35932624,13.8872488 6.25192146,14.1769765 C6.14642477,14.6485654 6.21898199,15.1403344 6.45678891,15.5662195 C8.7518065,19.8715844 12.4352028,23.3672574 16.9693011,25.5428156 C17.4096155,25.795093 17.9393083,25.8654138 18.4355094,25.7374623 C18.7284497,25.6204357 18.9608839,25.3982141 19.0822478,25.1191729 L19.9740238,22.9551598 Z M22.6414538,11.9166238 C24.0370206,12.4006175 24.9635854,13.531227 24.9635854,14.7818668 C24.9435194,15.7017938 24.4896265,16.5559459 23.7434177,17.0779332 L23.7434177,18.9364692 C23.7434177,19.0097459 23.7161546,19.0802638 23.6671096,19.1339871 C23.5597253,19.2515492 23.3787973,19.2584703 23.2629767,19.1494265 L21.8635969,17.8484513 C21.6276184,17.8847024 21.3892567,17.9028522 21.1505614,17.9026586 C19.5605304,17.9026586 18.1611505,17.1127808 17.596823,15.9163482 C17.4595541,15.9047323 17.3260983,15.8892445 17.1888294,15.8660128 L15.4615295,17.4690002 C15.4086238,17.5188031 15.3391314,17.5464876 15.2670176,17.5464876 C15.1091108,17.5464392 14.9810885,17.4164384 14.9810885,17.2560429 L14.9810885,14.9599765 C14.0735411,14.3388673 13.5180312,13.3102354 13.4901961,12.1992761 C13.4901961,10.1432707 15.53779,8.47058824 18.0658249,8.47058824 C20.4870952,8.47058824 22.4622417,9.98064876 22.6414538,11.9166238 Z M18.0162556,15.3510435 C19.1019189,15.3752916 20.1623685,15.0167974 21.0171055,14.3365926 C21.4967363,13.9180832 21.845342,13.3662819 22.0199309,12.749093 C22.0613498,12.5714189 22.0830841,12.3895825 22.0847523,12.20702 C22.0847523,10.4723864 20.2850049,9.05912464 18.073451,9.05912464 C15.861897,9.05912464 14.0621497,10.4723864 14.0621497,12.20702 C14.1000893,13.1764595 14.6122261,14.0626037 15.4272123,14.5689096 C15.5057606,14.6228265 15.5528514,14.7127041 15.5530421,14.8089705 L15.5530421,16.5939394 L16.9028526,15.3394276 C16.9687703,15.2782992 17.0592819,15.2524539 17.1468861,15.2697325 C17.4336732,15.3234074 17.7246546,15.3506079 18.0162556,15.3510435 Z M23.2934809,16.6752504 C23.9488921,16.270922 24.361223,15.5599836 24.3916318,14.7818668 C24.3916318,13.840983 23.7014745,12.9736661 22.6300147,12.5593675 L22.6300147,12.6058309 C22.6223887,12.675526 22.5880715,12.749093 22.5880715,12.830404 C22.4147695,13.5733828 22.0143543,14.2415362 21.4441642,14.7392754 C20.5365692,15.4779466 19.4188289,15.9001344 18.2564761,15.9434518 C18.9437737,16.8426638 20.0150905,17.3512929 21.1353093,17.3102502 C21.3910679,17.3108794 21.6463498,17.2875509 21.8979141,17.2405551 L21.9512964,17.2405551 C22.0234103,17.2405551 22.092855,17.2681911 22.1457607,17.3179941 L23.1676511,18.2666219 L23.1676511,16.9153113 C23.1678418,16.8190449 23.2149326,16.7291673 23.2934809,16.6752504 Z"/>
  </g>
</svg>
