<svg xmlns="http://www.w3.org/2000/svg" width="32" height="32" viewBox="0 0 32 32">
  <g fill="none">
    <circle cx="16" cy="16" r="15.741" fill="#E91C41"/>
    <path fill="#FFF" d="M22.5510149,21.4890756 L19.5993855,19.829049 C19.2929774,19.6732451 19.1003471,19.355423 19.1021958,19.0087633 L19.1005078,18.1773081 C19.7343433,17.3382577 20.1981352,16.3810546 20.4652777,15.3605714 C20.4711053,15.335105 20.4739989,15.30907 20.4739989,15.2829132 L20.4739989,14.5897157 L21.5029015,14.5897157 C22.0708658,14.5891064 22.5311611,14.1239286 22.531764,13.5499398 L22.531764,11.470388 C22.5304377,11.0312045 22.2557395,10.640395 21.8458423,10.4944608 L21.8458423,10.430612 C21.8458423,7.36794398 19.3891118,4.88515406 16.3585895,4.88515406 C13.3280672,4.88515406 10.8712965,7.36794398 10.8712965,10.430612 L10.8712965,10.4944608 C10.4613993,10.6403543 10.1867413,11.0311639 10.1853748,11.470388 L10.1853748,13.5499398 C10.1867011,13.9891232 10.4613993,14.3799328 10.8712965,14.5258263 L10.8712965,15.2829132 C10.8721807,16.0482045 11.4858409,16.6684146 12.2430997,16.6692675 L12.714809,16.6692675 C12.96471,17.2001218 13.2662149,17.7045756 13.6149028,18.1751148 L13.6149028,18.974077 C13.6161889,19.3099734 13.43445,19.6193067 13.1419878,19.7789692 L10.0835335,21.4664118 C9.08822973,22.0128627 8.46914393,23.0663669 8.47058824,24.2110546 L8.47058824,25.3340938 C8.47058824,25.4260084 8.50672152,25.5141863 8.57102542,25.5791723 C8.63532932,25.6441583 8.72258168,25.6806723 8.81353151,25.6806723 L23.9035269,25.6806723 C24.0929421,25.6806723 24.2464986,25.5255182 24.2464986,25.3340938 L24.2464986,24.2804678 C24.2516924,23.1000784 23.594828,22.0186709 22.5510149,21.4890756 Z M21.8458423,11.470388 L21.8458423,13.5499398 C21.8456012,13.7412423 21.6921962,13.8962745 21.5029015,13.8965182 L20.4740391,13.8965182 L20.4740391,11.1238095 L21.5029015,11.1238095 C21.6921962,11.1240532 21.8456012,11.2790854 21.8458423,11.470388 Z M11.2142774,13.8965588 C11.0249828,13.8963151 10.8715778,13.7412829 10.8713367,13.5499804 L10.8713367,11.4704286 C10.8715778,11.2791261 11.0249828,11.1240938 11.2142774,11.1238501 L12.2431399,11.1238501 L12.2431399,13.8965994 L11.2142774,13.8965994 L11.2142774,13.8965588 Z M12.2431399,15.9761106 C11.8644703,15.9757451 11.5576201,15.6655994 11.5572182,15.2829132 L11.5572182,14.5897157 L12.2431399,14.5897157 L12.2431399,15.2829132 C12.2430997,15.30907 12.2460335,15.335105 12.2518611,15.3605714 C12.3008928,15.569014 12.3613787,15.7744916 12.4331177,15.97607 L12.2431399,15.97607 L12.2431399,15.9761106 Z M12.2414519,10.4306527 L11.5572182,10.4306527 C11.5601922,7.7520112 13.7081033,5.58135714 16.3585895,5.57835154 C19.0090757,5.58135714 21.1569868,7.75205182 21.1599608,10.4306527 L20.4757271,10.4306527 C20.5374991,9.61678431 20.2792787,8.81112045 19.7570105,8.18847339 C19.0528426,7.37647339 17.9093986,6.96470588 16.3585895,6.96470588 C14.8077804,6.96470588 13.6643364,7.37647339 12.9602087,8.18843277 C12.4379003,8.81107983 12.1796799,9.6167437 12.2414519,10.4306527 Z M9.15655021,24.987556 L9.15655021,24.211014 C9.15530674,23.3202997 9.63702333,22.5004608 10.4114834,22.0752899 L13.468933,20.3883754 C13.9828417,20.1077983 14.3025125,19.5643936 14.3008647,18.974077 L14.3008647,18.1751148 C14.3015479,18.0240224 14.2526769,17.8769916 14.1618879,17.75693 C13.9072444,17.4128697 13.6796086,17.0492325 13.4810703,16.6692675 L15.0500051,16.6692675 C15.1943674,17.0835126 15.581075,17.361084 16.0156488,17.362465 L17.0445112,17.362465 C17.6127165,17.362465 18.0733736,16.8969216 18.0733736,16.3226891 C18.0733736,15.7484566 17.6127165,15.2829132 17.0445112,15.2829132 L16.0156488,15.2829132 C15.581075,15.2842535 15.1943674,15.5618655 15.0499649,15.9761106 L13.164253,15.9761106 C13.0686412,15.7376527 12.9900297,15.4926148 12.9290615,15.2428249 L12.9290615,10.430612 C12.9290615,10.4154622 12.9280568,10.4002717 12.9260473,10.3852437 C12.8757697,9.7547577 13.0733434,9.12963305 13.4759662,8.64536555 C14.0441314,7.99010364 15.0140753,7.65790336 16.3585895,7.65790336 C17.6980799,7.65790336 18.6659742,7.9877479 19.2351843,8.63829832 C19.6386511,9.12520588 19.8381138,9.7519958 19.7911317,10.3853249 C19.7891222,10.4003529 19.7881175,10.4155028 19.7881175,10.4306933 L19.7881175,15.2428655 C19.5411503,16.1533193 19.1225319,17.0069916 18.5552911,17.7570112 C18.4645021,17.8770322 18.4156311,18.0241036 18.4163143,18.1751961 L18.4163143,19.0088445 C18.4123355,19.6127269 18.7459924,20.1671793 19.2783885,20.4414202 L22.2303394,22.1016092 C23.0478831,22.5129706 23.5635602,23.3575854 23.5606388,24.2805084 L23.5606388,24.987556 L9.15655021,24.987556 L9.15655021,24.987556 Z M15.6726678,16.3226891 C15.672909,16.1313866 15.826314,15.9763543 16.0156086,15.9761106 L17.044471,15.9761106 C17.2338862,15.9761106 17.3874117,16.1313053 17.3874117,16.3226891 C17.3874117,16.5140728 17.2338862,16.6692675 17.044471,16.6692675 L16.0156086,16.6692675 C15.826314,16.6690238 15.672909,16.5139916 15.6726678,16.3226891 Z"/>
  </g>
</svg>
