<svg xmlns="http://www.w3.org/2000/svg" width="32" height="32" viewBox="0 0 32 32">
  <g fill="none">
    <circle cx="16" cy="16" r="15.741" fill="#E91C41"/>
    <g fill="#FFF" transform="translate(6.32 5.602)">
      <path d="M18.4052753,3.02695925 L12.6931173,3.02695925 C12.8301881,1.99578549 12.3564607,0.97871284 11.4785382,0.41944836 C10.6006157,-0.13981612 9.47781572,-0.13981612 8.59993305,0.41944836 C7.72205038,0.97871284 7.24828319,1.99578549 7.38535393,3.02695925 L1.67323584,3.02695925 C0.749583183,3.02803476 0.0011163411,3.77583191 0,4.69865814 L0,15.7319425 C0.00107647178,16.6547687 0.749583183,17.4025659 1.67319597,17.4036414 L7.02744699,17.4036414 L7.02744699,18.0723289 L4.68496466,18.0723289 C4.59621554,18.0722891 4.51109454,18.1075419 4.44830035,18.1702401 C4.38554603,18.2329382 4.35030155,18.3179831 4.35030155,18.4066926 L4.35030155,19.7440677 C4.35026168,19.8327374 4.38554603,19.9177822 4.44830035,19.9805202 C4.51105467,20.0432582 4.59617568,20.0784314 4.68496466,20.0784314 L15.3934667,20.0784314 C15.4822158,20.0784314 15.5673767,20.0432184 15.630131,19.9805202 C15.6928853,19.9178221 15.7281298,19.8327772 15.7281298,19.7440677 L15.7281298,18.4066926 C15.7281697,18.3180229 15.6928853,18.2329382 15.630131,18.1702401 C15.5673767,18.1075419 15.4822557,18.0723289 15.3934667,18.0723289 L13.0509844,18.0723289 L13.0509844,17.4036414 L18.4052354,17.4036414 C19.3288881,17.4025659 20.0773549,16.6547289 20.0784314,15.7319425 L20.0784314,4.69865814 C20.0773948,3.77583191 19.3288881,3.02803476 18.4052753,3.02695925 Z M10.0392556,0.686572833 C11.1481411,0.686572833 12.0471146,1.58470219 12.0471146,2.6926354 C12.0471146,3.80056861 11.148181,4.69869797 10.0392556,4.69869797 C8.93033015,4.69869797 8.03139647,3.80056861 8.03139647,2.6926354 C8.03259255,1.5851802 8.93084845,0.687767843 10.0392556,0.686572833 Z M12.7163611,8.04205592 L7.36211011,8.04205592 C7.36378462,6.56554193 8.56141928,5.36901868 10.0392556,5.36730583 C11.5170918,5.36901868 12.7146866,6.56554193 12.7163611,8.04205592 Z M15.0588435,18.7410165 L15.0588435,19.409704 L5.01962778,19.409704 L5.01962778,18.7410165 L15.0588435,18.7410165 Z M7.69677322,18.0723289 L7.69677322,17.4036414 L12.3817379,17.4036414 L12.3817379,18.0723289 L7.69677322,18.0723289 Z M19.4092247,15.7319425 C19.4085868,16.2856303 18.9594589,16.7343564 18.4052753,16.7349539 L1.67323584,16.7349539 C1.11905222,16.7343564 0.669924271,16.2856303 0.669326231,15.7319425 L0.669326231,14.7289312 L19.4092247,14.7289312 L19.4092247,15.7319425 L19.4092247,15.7319425 Z M19.4091849,14.0602038 L0.669286362,14.0602038 L0.669286362,4.69865814 C0.669884402,4.14497037 1.11901235,3.69624428 1.67319597,3.69564677 L7.55918418,3.69564677 C7.78065828,4.23758361 8.17321166,4.69248392 8.67712006,4.99115665 C7.47171088,5.52859229 6.69465774,6.72328319 6.69278388,8.04209575 L6.02349752,8.04209575 C5.83866332,8.04209575 5.68887427,8.19179062 5.68887427,8.3764196 C5.68887427,8.56104858 5.83870319,8.71074344 6.02349752,8.71074344 L14.054894,8.71074344 C14.2397282,8.71074344 14.3895172,8.56104858 14.3895172,8.3764196 C14.3895172,8.19179062 14.2396883,8.04209575 14.054894,8.04209575 L13.3856076,8.04209575 C13.3837338,6.72328319 12.6067205,5.52859229 11.4013113,4.99115665 C11.9052197,4.69248392 12.2977332,4.23762345 12.5192073,3.69564677 L18.4051955,3.69564677 C18.9593792,3.69624428 19.4085071,4.14497037 19.4091849,4.69865814 L19.4091849,14.0602038 L19.4091849,14.0602038 Z"/>
      <path d="M12.5746691,10.6845073 L11.3053936,10.5202331 L10.7408674,9.5015787 C10.6678576,9.39011917 10.5378477,9.32212885 10.3977168,9.32212885 C10.2575858,9.32212885 10.1275759,9.39011917 10.0545661,9.5015787 L9.49003989,10.5202331 L8.22076443,10.6845073 C8.07327269,10.7037126 7.95076161,10.8002537 7.90590682,10.9325905 C7.86105204,11.0649273 7.90181239,11.2095246 8.01075201,11.3041794 L8.91842888,12.0923269 L8.70501211,13.2011349 C8.67915735,13.3353151 8.7368475,13.4715529 8.85406801,13.5531327 C8.97128852,13.6347125 9.12788924,13.6475304 9.25858919,13.5862705 L10.3977628,13.0528509 L11.5369363,13.5862705 C11.6676363,13.6475304 11.824237,13.6346697 11.9414575,13.5531327 C12.058678,13.4715958 12.1163682,13.3353151 12.0905134,13.2011349 L11.8770966,12.0923269 L12.7847735,11.3041794 C12.8936671,11.2095246 12.9344735,11.0649273 12.8896187,10.9325905 C12.8447179,10.8002109 12.7222068,10.7037126 12.5746691,10.6845073 Z M11.196454,11.6996464 C11.1004418,11.7829839 11.0564151,11.9060609 11.0795555,12.0264372 L11.1938317,12.6202593 L10.5712473,12.3286212 C10.4621236,12.2775641 10.3334939,12.2775641 10.2243243,12.3286212 L9.60173981,12.6202593 L9.716016,12.0264372 C9.73915647,11.9060609 9.69512977,11.7829839 9.59911753,11.6996464 L9.13110958,11.2932907 L9.79477641,11.2075526 C9.91903567,11.1913052 10.0271472,11.1199283 10.0847454,11.0160565 L10.3977168,10.4510424 L10.7106882,11.0160565 C10.7682863,11.1199283 10.8763978,11.1913481 11.0006571,11.2075526 L11.6643239,11.2932907 L11.196454,11.6996464 Z"/>
      <path d="M7.55501475 10.6845115L6.28573744 10.5202368 5.72121037 9.50157925C5.64820047 9.39011937 5.51819041 9.32212885 5.37805925 9.32212885 5.23792809 9.32212885 5.10791803 9.39011937 5.03490813 9.50157925L4.47042706 10.5202368 3.20114975 10.6845115C3.0536578 10.7037169 2.93114655 10.8002583 2.88629169 10.9325954 2.84143684 11.0649326 2.88224326 11.2095303 2.99113704 11.3041855L3.89881523 12.0923354 3.68539814 13.2011468C3.65954334 13.3353273 3.71723358 13.4715656 3.83445426 13.5531457 3.95167495 13.6346828 4.10827589 13.6475436 4.23897603 13.5862835L5.37815126 13.0528623 6.5173265 13.5862835C6.64802663 13.6475436 6.80462758 13.6346828 6.92184826 13.5531457 7.03906894 13.4716085 7.09675918 13.3353273 7.07090438 13.2011468L6.85748729 12.0923354 7.76516549 11.3041855C7.87405927 11.2095303 7.91486568 11.0649326 7.87001083 10.9325954 7.82501796 10.8002154 7.70250671 10.7037169 7.55501475 10.6845115zM6.17675165 11.6996537C6.08073927 11.7829914 6.0367125 11.9060688 6.05985301 12.0264455L6.17412937 12.6202694 5.55154402 12.3286303C5.44237421 12.2775731 5.3137903 12.2775731 5.20462049 12.3286303L4.58203514 12.6202694 4.6963115 12.0264455C4.719452 11.9060688 4.67542524 11.7829914 4.57941285 11.6996537L4.11145023 11.2932967 4.77511802 11.2075584C4.89937747 11.1913109 5.00748916 11.1199337 5.06508739 11.0160617L5.37805925 10.4510459 5.69103111 11.0160617C5.74862934 11.1199337 5.85674103 11.1913538 5.98100048 11.2075584L6.64466827 11.2932967 6.17675165 11.6996537zM17.5942739 10.6845115L16.3249868 10.5202368 15.7604554 9.50157925C15.6874449 9.39011937 15.5574338 9.32212885 15.4173016 9.32212885 15.2771694 9.32212885 15.1471583 9.39011937 15.0741478 9.50157925L14.5096624 10.5202368 13.2403753 10.6845115C13.0928822 10.7037169 12.97037 10.8002583 12.9255148 10.9325954 12.8806596 11.0649326 12.9214204 11.2095303 13.030361 11.3041855L13.9380002 12.0923354 13.7245814 13.2011468C13.6987264 13.3353273 13.7564171 13.4715656 13.8736387 13.5531457 13.9908603 13.6346828 14.1474624 13.6475436 14.2781636 13.5862835L15.4173476 13.0528623 16.5565316 13.5862835C16.6872328 13.6475436 16.8438349 13.6346828 16.9610565 13.5531457 17.0782781 13.4716085 17.1359688 13.3353273 17.1101138 13.2011468L16.896695 12.0923354 17.8043802 11.3041855C17.9132748 11.2095303 17.9540816 11.0649326 17.9092264 10.9325954 17.8642792 10.8002154 17.741767 10.7037169 17.5942739 10.6845115zM16.2160002 11.6996537C16.119987 11.7829914 16.0759599 11.9060688 16.0991006 12.0264455L16.2133778 12.6202694 15.5907877 12.3286303C15.481617 12.2775731 15.3529861 12.2775731 15.2438615 12.3286303L14.6212713 12.6202694 14.7355486 12.0264455C14.7586893 11.9060688 14.7146622 11.7829914 14.618649 11.6996537L14.1506828 11.2932967 14.8143557 11.2075584C14.9386161 11.1913109 15.0467287 11.1199337 15.1043273 11.0160617L15.4173016 10.4510459 15.7302759 11.0160617C15.7878745 11.1199337 15.8959871 11.1913538 16.0202475 11.2075584L16.6839204 11.2932967 16.2160002 11.6996537z"/>
    </g>
  </g>
</svg>
