<svg xmlns="http://www.w3.org/2000/svg" width="32" height="32" viewBox="0 0 32 32">
  <g fill="none">
    <circle cx="16" cy="16" r="15.741" fill="#E91C41"/>
    <g fill="#FFF" transform="translate(6.32 8.47)">
      <path d="M9.63258005 5.01960784L12.5971118 5.01960784C12.768449 5.01960784 12.907563 4.85914363 12.907563 4.66106443 12.907563 4.46318529 12.768449 4.30252101 12.5971118 4.30252101L9.63258005 4.30252101C9.46124288 4.30252101 9.32212885 4.46318529 9.32212885 4.66106443 9.32212885 4.85914363 9.46124288 5.01960784 9.63258005 5.01960784L9.63258005 5.01960784zM15.4549754 7.17086835L9.6428848 7.17086835C9.46586046 7.17086835 9.32212885 7.33133256 9.32212885 7.52941176 9.32212885 7.72749102 9.46586046 7.88795518 9.6428848 7.88795518L15.4551544 7.88795518C15.6321788 7.88795518 15.7759104 7.72749102 15.7759104 7.52941176 15.7759104 7.33133256 15.6321788 7.17086835 15.4551544 7.17086835L15.4549754 7.17086835zM15.4549754 8.60504202L9.6428848 8.60504202C9.46586046 8.60504202 9.32212885 8.76570624 9.32212885 8.96358543 9.32212885 9.16166464 9.46586046 9.32212885 9.6428848 9.32212885L15.4551544 9.32212885C15.6321788 9.32212885 15.7759104 9.16166464 15.7759104 8.96358543 15.7759104 8.76570624 15.6321788 8.60504202 15.4551544 8.60504202L15.4549754 8.60504202z"/>
      <path d="M18.4698608,2.39335142 L17.6324599,2.39335142 L17.6324599,1.58986076 C17.6316108,0.712181093 16.9118978,0.00100706937 16.0238894,0 L1.60857053,0 C0.720562167,0.00100706937 0.00101894248,0.712181093 0,1.58986076 L0,11.7686959 C0.00101894248,12.6463755 0.720562167,13.3575495 1.60857053,13.3585566 L2.42151681,13.3585566 L2.42151681,14.1860496 C2.42253573,15.0637293 3.14207898,15.7749033 4.03008734,15.7759104 L18.4698608,15.7759104 C19.3576994,15.7749033 20.0774124,15.0637293 20.0784314,14.1860496 L20.0784314,3.98321219 C20.0774124,3.10570031 19.3576994,2.39435849 18.4698608,2.39335142 L18.4698608,2.39335142 Z M0.608648307,11.7686959 L0.608648307,1.58986076 C0.609327602,1.04435319 1.05664337,0.602240331 1.60857053,0.601568937 L16.0240592,0.601568937 C16.5759864,0.602240331 17.0233022,1.04435319 17.0239814,1.58986076 L17.0239814,11.7686959 C17.0233022,12.3143712 16.5759864,12.7564841 16.0240592,12.7569877 L1.60857053,12.7569877 C1.05664337,12.7564841 0.609327602,12.3143712 0.608648307,11.7686959 Z M19.4697831,14.1860496 C19.4691038,14.731725 19.021788,15.1738379 18.4698608,15.1743414 L4.03008734,15.1743414 C3.47816014,15.1738379 3.03084441,14.731725 3.03016512,14.1860496 L3.03016512,13.3585566 L16.0238894,13.3585566 C16.9118978,13.3575495 17.6316108,12.6463755 17.6324599,11.7686959 L17.6324599,2.99492036 L18.4698608,2.99492036 C19.021788,2.99559171 19.4691038,3.43770462 19.4697831,3.98321219 L19.4697831,14.1860496 Z"/>
      <path d="M7.30107687,7.17105002 L6.88623471,7.17105002 C6.76371566,7.17105002 6.65227079,7.2446327 6.60059128,7.35945795 L6.29402995,8.04205048 C6.12897198,8.40978199 5.76914917,8.64197608 5.37698269,8.63361857 C4.98481621,8.62526101 4.63448553,8.37816869 4.48401735,8.00371482 C4.48313842,8.00153459 4.48225952,7.99917269 4.48120486,7.99717414 L4.2112059,7.36509017 C4.16093263,7.24717627 4.04790575,7.17105002 3.92327729,7.17105002 L3.45570095,7.17105002 C2.88705077,7.17105002 2.34459193,7.41850574 1.96156604,7.85291581 C1.57854019,8.28732592 1.39027918,8.86853795 1.44283754,9.45374703 L1.44283754,11.8648957 C1.44283754,12.0447644 1.58398936,12.1904762 1.75783634,12.1904762 L8.99841413,12.1895678 C9.17243692,12.1895678 9.31341293,12.043856 9.31341293,11.8639873 L9.31341293,9.45356536 C9.3661471,8.86835627 9.17788613,8.28732592 8.79486024,7.85291581 C8.41183435,7.41850574 7.86955128,7.17086835 7.30107687,7.17086835 L7.30107687,7.17105002 Z M8.68499735,9.40505531 C8.68394269,9.41595644 8.68341533,9.42703924 8.68341533,9.43794042 L8.68341533,11.5384068 L2.07283513,11.5393152 L2.07283513,9.4377587 C2.07283513,9.42685757 2.07230782,9.41577477 2.07125312,9.40487363 C2.0317025,9.00044167 2.15967076,8.59746313 2.4235174,8.29586515 C2.68736403,7.99426717 3.06230404,7.82221096 3.45570095,7.82221096 L3.71796557,7.82221096 L3.90358986,8.25698443 C4.15091315,8.86871962 4.72448518,9.27187982 5.3659085,9.28459779 C6.00733182,9.29749747 6.59549365,8.91759306 6.86549262,8.31621393 L7.08732769,7.82221096 L7.3009011,7.82221096 C7.69429806,7.82221096 8.06923802,7.99426717 8.33308465,8.29604683 C8.59675552,8.59764481 8.72472378,9.00062334 8.68499735,9.40505531 L8.68499735,9.40505531 Z"/>
      <path d="M5.37807078,7.88795518 C6.36786119,7.886728 7.16990225,7.01350713 7.17086835,5.93604972 L7.17086835,4.69730673 C7.17070734,4.03112739 6.85832838,3.41105467 6.34242004,3.05289561 C6.54450025,2.57587614 6.4213199,2.01032492 6.04404983,1.68302048 C5.66677977,1.35554078 5.13283718,1.35080739 4.75089755,1.67162531 C4.3687969,1.99244328 4.23740452,2.55589074 4.43239985,3.03624111 C3.95787365,3.3554813 3.64774896,3.89806681 3.59429029,4.50253692 C3.5925191,4.52129514 3.58784949,4.57160922 3.58543417,5.93552378 L3.58543417,5.93604972 C3.58656132,7.01350713 4.38844133,7.8865527 5.37807078,7.88795518 Z M4.16880994,4.55793499 C4.17621689,4.48167502 4.18958152,4.40646684 4.20874292,4.33283649 C4.37716995,4.51884077 4.56443627,4.6832819 4.76699956,4.82317954 C4.59084361,5.02320869 4.38747523,5.19238317 4.16397936,5.3247425 C4.16510647,4.95957102 4.1668777,4.61876769 4.16880994,4.55793499 Z M5.37807078,7.25964287 C4.73431247,7.25876633 4.20246313,6.71232392 4.16446243,6.01248499 C4.42660308,5.90274073 4.86393367,5.65537781 5.29611152,5.12576524 C5.70977214,5.31369794 6.14742471,5.43203244 6.59393342,5.47656125 L6.59393342,5.93604972 C6.59312829,6.66674328 6.04920248,7.25876633 5.37807078,7.25964287 Z M6.59377237,4.84526867 C5.36583325,4.69432647 4.74832123,4.07390311 4.51210476,3.76535689 C4.85942506,3.38423215 5.38338443,3.26870267 5.8393933,3.47276392 C6.29540217,3.67700047 6.5932893,4.16033111 6.59377237,4.69713143 L6.59377237,4.84526867 Z M4.91980744,2.57412302 C4.91964659,2.36217281 5.03912351,2.17213639 5.22059312,2.09552577 C5.40190175,2.01909046 5.6078464,2.07185886 5.73891677,2.2285863 C5.86982609,2.38531378 5.89864869,2.61356788 5.81153684,2.80290306 C5.66967811,2.76451009 5.52411596,2.74487533 5.37807078,2.74487533 C5.23959351,2.74487533 5.10159926,2.76205572 4.96682547,2.79624125 C4.93590961,2.72699365 4.91996861,2.65108428 4.91980744,2.57412302 Z"/>
    </g>
  </g>
</svg>
