<svg xmlns="http://www.w3.org/2000/svg" width="32" height="35" viewBox="0 0 32 35">
  <g fill="none" fill-rule="evenodd" opacity=".903">
    <path fill="#F59062" d="M16.0670708,27.2500835 C16.205142,27.0109372 16.5109372,26.9289996 16.7500835,27.0670708 C16.9892298,27.205142 17.0711674,27.5109372 16.9330962,27.7500835 L16.9330962,27.7500835 L16.077,29.232 L18.9330962,34.1782867 C19.0711674,34.417433 18.9892298,34.7232282 18.7500835,34.8612994 C18.5109372,34.9993706 18.205142,34.917433 18.0670708,34.6782867 L15.5,30.232 L12.9330962,34.6782867 C12.8103662,34.8908612 12.5551136,34.9792214 12.3319459,34.8992608 L12.2500835,34.8612994 C12.0109372,34.7232282 11.9289996,34.417433 12.0670708,34.1782867 L12.0670708,34.1782867 L14.923,29.232 L14.0670708,27.7500835 C13.9289996,27.5109372 14.0109372,27.205142 14.2500835,27.0670708 C14.4892298,26.9289996 14.795025,27.0109372 14.9330962,27.2500835 L15.5,28.232 Z"/>
    <path fill="#FFA075" d="M30,4 C31.1045695,4 32,4.8954305 32,6 L32,28 C32,29.1045695 31.1045695,30 30,30 L2,30 C0.8954305,30 1.3527075e-16,29.1045695 0,28 L0,6 C-1.3527075e-16,4.8954305 0.8954305,4 2,4 L30,4 Z M15,22 L7,22 C6.44771525,22 6,22.4477153 6,23 C6,23.5522847 6.44771525,24 7,24 L7,24 L15,24 C15.5522847,24 16,23.5522847 16,23 C16,22.4477153 15.5522847,22 15,22 L15,22 Z M21,17 L7,17 C6.44771525,17 6,17.4477153 6,18 C6,18.5522847 6.44771525,19 7,19 L7,19 L21,19 C21.5522847,19 22,18.5522847 22,18 C22,17.4477153 21.5522847,17 21,17 L21,17 Z M25,12 L7,12 C6.44771525,12 6,12.4477153 6,13 C6,13.5522847 6.44771525,14 7,14 L7,14 L25,14 C25.5522847,14 26,13.5522847 26,13 C26,12.4477153 25.5522847,12 25,12 L25,12 Z"/>
    <rect width="18" height="8" x="7" fill="#F38350" rx="3"/>
  </g>
</svg>
