<svg xmlns="http://www.w3.org/2000/svg" xmlns:xlink="http://www.w3.org/1999/xlink" width="36" height="30" viewBox="0 0 36 30">
  <defs>
    <path id="icon-map6-a" d="M23.0079946,8.29086671 C23.827424,7.74386297 24.9351369,7.9647076 25.4821407,8.784137 L25.4821407,8.784137 L32.0182672,18.5754672 L39.6499505,15.8881991 C39.9574452,15.779924 40.288731,15.7579798 40.6078207,15.8247502 C41.5721639,16.0265417 42.1903342,16.9718807 41.9885426,17.9362239 L41.9885426,17.9362239 L37.9018529,37.4661398 C37.8217435,37.780736 37.5547124,38 37.2520771,38 L37.2520771,38 L10.7625899,38 C10.4510536,38 10.1840225,37.780736 10.1128142,37.4661398 L10.1128142,37.4661398 L6.01123207,17.938467 C5.94412739,17.618981 5.96597841,17.2872065 6.07440508,16.9792812 C6.40163065,16.0499798 7.420247,15.5619009 8.34954838,15.8891265 L8.34954838,15.8891265 L15.9785978,18.5754672 L22.5147243,8.784137 C22.6450839,8.58885412 22.8127117,8.42122628 23.0079946,8.29086671 Z M29.5625485,23.0003254 L29.4756246,23.0048465 L25.8784954,23.0048465 L26.5672481,23.2421283 C26.7105604,23.2987919 26.8234286,23.4057966 26.8808332,23.5394228 C26.9382379,23.673049 26.9354366,23.8222577 26.8730505,23.9539738 L26.8730505,23.9539738 L23.0454077,28.9943471 L21.2849523,23.0048465 L17,23.0048465 L17.9164779,23.3200801 C18.2073759,23.4003636 18.4365679,23.6077394 18.5290123,23.8743088 L18.5290123,23.8743088 L20.8257838,31.9984891 L23.5064351,31.9984891 C23.8867565,32.0187931 24.245077,31.8331037 24.4238425,31.5230689 L24.4238425,31.5230689 L29.934793,23.6361704 C30.0258637,23.4966938 30.0212185,23.3212666 29.922874,23.18605 C29.8245295,23.0508333 29.6502213,22.9802122 29.4756246,23.0048465 Z"/>
  </defs>
  <use fill="#FEC675" transform="translate(-6 -8)" xlink:href="#icon-map6-a"/>
</svg>
