<svg xmlns="http://www.w3.org/2000/svg" width="34" height="34" viewBox="0 0 34 34">
  <g fill="none">
    <path fill="#74DEAE" d="M6.26090277,0 L30.7174306,0 C32.5183681,0 33.9782986,1.45993055 33.9782986,3.26086805 L33.9782986,30.6071875 C33.9782986,32.408125 32.5183681,33.8680556 30.7174306,33.8680556 L6.26086805,33.8680556 C4.45993055,33.8680556 3,32.408125 3,30.6071875 L3,3.26086805 C3,1.45993055 4.45996527,0 6.26090277,0 Z M24.0973117,11.935334 C21.5656541,9.35488867 17.4588934,9.35488867 14.9272051,11.935334 L14.9026883,11.960333 C12.3657706,14.5461065 12.3657706,18.7390978 14.9026883,21.3249022 L19.4877262,26 L24.0973117,21.3016689 C26.6342294,18.7140987 26.6342294,14.5211075 24.0973117,11.935334 Z M19.5,20 C17.5672109,20 16,18.4328214 16,16.5 C16,14.5671786 17.5672109,13 19.5,13 C21.4327891,13 23,14.5671786 23,16.5 C23,18.4328214 21.4327891,20 19.5,20 Z"/>
    <path fill="#AAE6CB" d="M5.7147222,24.6327778 C7.27987775,24.6327778 8.09375864,25.3840525 8.15636486,26.8866018 L8.16027775,27.0783333 C8.16027775,28.7087037 7.34509257,29.5238889 5.7147222,29.5238889 L2.45364581,29.5238889 C0.888490266,29.5238889 0.0746093817,28.7726142 0.0120031599,27.2700649 L0.008090271,27.0783333 C0.008090271,25.447963 0.823275452,24.6327778 2.45364581,24.6327778 L5.7147222,24.6327778 Z M5.7147222,14.8505903 C7.27987775,14.8505903 8.09375864,15.601865 8.15636486,17.1044143 L8.16027775,17.2961458 C8.16027775,18.9265162 7.34509257,19.7417014 5.7147222,19.7417014 L2.45364581,19.7417014 C0.888490266,19.7417014 0.0746093817,18.9904267 0.0120031599,17.4878774 L0.008090271,17.2961458 C0.008090271,15.6657755 0.823275452,14.8505903 2.45364581,14.8505903 L5.7147222,14.8505903 Z M5.7147222,5.06840278 C7.27987775,5.06840278 8.09375864,5.81967746 8.15636486,7.3222268 L8.16027775,7.51395836 C8.16027775,9.14432872 7.34509257,9.9595139 5.7147222,9.9595139 L2.45364581,9.9595139 C0.888490266,9.9595139 0.0746093817,9.20823924 0.0120031599,7.70568992 L0.008090271,7.51395836 C0.008090271,5.883588 0.823275452,5.06840278 2.45364581,5.06840278 L5.7147222,5.06840278 Z"/>
  </g>
</svg>
