<svg xmlns="http://www.w3.org/2000/svg" width="38" height="27" viewBox="0 0 38 27">
  <g fill="none" fill-rule="evenodd" opacity=".903">
    <path fill="#3F89FF" d="M36.7642276,0 C37.4467259,-1.2537289e-16 38,0.55327413 38,1.23577236 L38,22.8617886 C38,23.5442868 37.4467259,24.097561 36.7642276,24.097561 L14.7875962,24.097938 C16.1620828,22.5879128 17,20.5808338 17,18.3780488 C17,13.6836284 13.1944204,9.87804878 8.5,9.87804878 C7.10777825,9.87804878 5.7937331,10.2127626 4.63394568,10.8061092 L4.63414634,1.23577236 C4.63414634,0.55327413 5.18742047,7.91506705e-16 5.8699187,0 L36.7642276,0 Z"/>
    <path fill="#7DADFF" d="M9.08292683 5.1902439L19.8341463 5.1902439C20.4483947 5.1902439 20.9463415 5.68819062 20.9463415 6.30243902L20.9463415 6.39512195C20.9463415 7.00937036 20.4483947 7.50731707 19.8341463 7.50731707L9.08292683 7.50731707C8.46867842 7.50731707 7.97073171 7.00937036 7.97073171 6.39512195L7.97073171 6.30243902C7.97073171 5.68819062 8.46867842 5.1902439 9.08292683 5.1902439zM30.5853659 15.7560976C31.6091132 15.7560976 32.4390244 16.5860088 32.4390244 17.6097561 32.4390244 18.6335034 31.6091132 19.4634146 30.5853659 19.4634146L17.860773 19.4636591C17.9522636 18.9489266 18 18.4190624 18 17.8780488 18 17.1470412 17.9128481 16.4363891 17.7483678 15.755916L30.5853659 15.7560976z"/>
    <circle cx="32.068" cy="6.488" r="2.78" fill="#FFF" fill-opacity=".3"/>
    <circle cx="28.732" cy="6.488" r="2.78" fill="#FFF" fill-opacity=".2"/>
    <path fill="#7EB0FF" d="M9,8.87804878 C13.9705627,8.87804878 18,12.907486 18,17.8780488 C18,22.8486115 13.9705627,26.8780488 9,26.8780488 C4.02943725,26.8780488 0,22.8486115 0,17.8780488 C0,12.907486 4.02943725,8.87804878 9,8.87804878 Z M8.47411488,12.1805476 L7.98812307,13.8882487 L5.91161264,13.3611805 C5.80115996,13.3400977 5.71279781,13.3822632 5.66861674,13.4876768 L5.49189244,14.0779933 C5.46980191,14.1623242 5.51398298,14.2677379 5.60234513,14.3099033 C6.28715176,14.5418134 6.5522382,15.0899644 6.39760444,15.6381154 L5.38143976,19.3065105 C5.29307762,19.7914133 4.80708581,20.1076542 4.29900347,20.044406 C4.27691294,20.044406 4.2548224,20.044406 4.23273186,20.0233233 C4.14436972,20.0022406 4.05600757,20.044406 4.0118265,20.128737 L3.72464952,20.6979707 C3.68046845,20.7823016 3.72464952,20.8877153 3.81301167,20.9298807 C3.8351022,20.9298807 3.8351022,20.9298807 3.85719274,20.9509634 L5.84534103,21.456949 L5.35934923,23.1646502 C5.33725869,23.2700638 5.4035303,23.3543947 5.49189244,23.3965602 L6.132518,23.565222 C6.24297069,23.5863048 6.33133283,23.5441393 6.37551391,23.4387256 L6.86150571,21.7310245 L7.87767039,21.9840172 L7.39167859,23.6917184 C7.36958805,23.7971321 7.43585966,23.881463 7.5242218,23.9236284 L8.14275683,24.0922903 C8.25320951,24.113373 8.34157166,24.0712076 8.38575273,23.9657939 L8.87174453,22.2580927 L9.71118492,22.46892 C10.948255,22.7429955 12.2074155,22.0261827 12.4945925,20.8455498 C12.6934074,20.1076542 12.5166831,19.3275932 12.0527818,18.7583595 C12.4504115,18.4421185 12.759679,17.9993812 12.8922222,17.5355611 C13.2235802,16.3127627 12.5387736,15.0688816 11.3458846,14.7737234 L10.992436,14.6893925 L11.4784278,12.9816913 C11.5005184,12.8762777 11.4342468,12.7919467 11.3458846,12.7497813 L10.7273496,12.5811194 C10.6389875,12.5642532 10.5647633,12.5878659 10.5159873,12.6519574 L10.4843537,12.7076158 L10.4843537,12.7076158 L9.9983619,14.415317 L8.98219722,14.1623242 L9.46818902,12.4546231 C9.48586145,12.3702921 9.4469821,12.2994542 9.38548205,12.2529035 L9.3356458,12.222713 L9.3356458,12.222713 L8.71711078,12.0540512 C8.60665809,12.0329684 8.51829595,12.0751339 8.47411488,12.1805476 Z M7.76721771,18.3999531 L9.8216376,18.9270213 C10.3959916,19.0535177 10.7494401,19.6016687 10.5948064,20.1498197 C10.4622632,20.6979707 9.88790921,21.0352944 9.31355526,20.8877153 L9.26937419,20.8877153 L9.26937419,20.8877153 L7.21495429,20.360647 L7.76721771,18.3999531 Z M8.56247702,15.5748672 L10.1088146,15.975439 C10.6831685,16.1019354 11.0366171,16.6500864 10.8819834,17.1982374 C10.7494401,17.7463884 10.1750862,18.0837121 9.60073224,17.936133 C9.5786417,17.936133 9.55655117,17.936133 9.55655117,17.9150503 L8.01021361,17.5144784 L8.56247702,15.5748672 Z"/>
  </g>
</svg>
