<svg xmlns="http://www.w3.org/2000/svg" width="34" height="33" viewBox="0 0 34 33">
  <g fill="none" fill-rule="evenodd">
    <path fill="#63A0FF" fill-rule="nonzero" d="M24.4049898,8.91527432 C27.5293186,10.4241408 30.4468903,13.1935792 30.707251,18.2778861 C31.7525228,18.2893458 32.7250467,17.7507378 33.2687412,16.8606976 C34.3752743,15.0156786 34.704554,19.0495089 30.730224,20.1152652 L30.7263952,20.0961656 C30.6498185,22.0328625 30.1405835,26.0628729 27.4412554,28.843771 L26.5376505,32.170917 C26.4534161,32.48797 26.1662535,32.713345 25.8369738,32.7171649 L22.2799867,32.7171649 C21.9392205,32.7171649 21.6405714,32.4803301 21.5678236,32.1441776 L21.1236788,30.0890633 C19.6725506,30.7460887 18.0988997,31.093701 16.5061046,31.1051607 C15.0588053,31.1089806 13.6306501,30.7919277 12.3211887,30.1769214 L11.4865029,32.2549552 C11.3792955,32.529989 11.1112771,32.713345 10.812628,32.713345 L7.74573177,32.713345 C7.41262319,32.713345 7.12546062,32.48797 7.04122626,32.170917 L5.81217045,27.4380423 C4.18108705,26.0743326 3.10901344,24.1605552 2.80653554,22.0596019 L0.727478515,22.0596019 C0.536036801,22.0596019 0.34842392,21.9832036 0.21441472,21.8495066 C0.0765766858,21.7158096 2.29150032e-13,21.5324537 2.29150032e-13,21.3414579 L2.29150032e-13,16.2762506 C2.29150032e-13,15.9018989 0.287162572,15.5886659 0.658559498,15.5542866 L2.88311222,15.2945324 C3.85553865,12.7458582 5.65381297,10.6104879 7.9690267,9.21685639 C8.9808548,12.5713629 12.1003668,15.0144053 15.7918143,15.0144053 C19.6644142,15.0144053 22.9075675,12.325702 23.7481189,8.71732015 C23.9617601,8.78042978 24.1812815,8.84665666 24.4049898,8.91527432 Z M8.78334586,16.528365 C8.3966336,16.75374 8.15924587,17.1624709 8.15924587,17.6094009 C8.15924587,18.0525111 8.3966336,18.4650619 8.78334586,18.6904369 C9.17005813,18.911992 9.64866241,18.911992 10.0353747,18.6904369 C10.4220869,18.4688818 10.6594747,18.056331 10.6633035,17.6094009 C10.6633035,17.1624709 10.4220869,16.7499201 10.0353747,16.528365 C9.64866241,16.3068099 9.17005813,16.3068099 8.78334586,16.528365 Z"/>
    <path fill="#98C1FF" d="M15.90625,0 C19.7204666,0 22.8125,3.09203345 22.8125,6.90625 C22.8125,10.7204666 19.7204666,13.8125 15.90625,13.8125 C12.0920334,13.8125 9,10.7204666 9,6.90625 C9,3.09203345 12.0920334,0 15.90625,0 Z M15.90625,2.7878418 L15.5719708,3.99256621 L14.1436868,3.62073768 C14.0677142,3.60586454 14.0069362,3.63561083 13.9765472,3.70997653 L13.8549911,4.12642447 C13.8397966,4.18591704 13.8701856,4.26028274 13.9309636,4.29002902 C14.4019935,4.45363357 14.5843276,4.84033524 14.477966,5.2270369 L13.7790185,7.81496341 C13.7182405,8.15704565 13.3839613,8.38014276 13.0344875,8.33552334 C13.019293,8.33552334 13.0040985,8.33552334 12.988904,8.3206502 C12.9281259,8.30577705 12.8673479,8.33552334 12.8369589,8.3950159 L12.6394302,8.7965907 C12.6090412,8.85608327 12.6394302,8.93044897 12.7002083,8.96019525 C12.7154028,8.96019525 12.7154028,8.96019525 12.7305973,8.97506839 L14.0981033,9.33202377 L13.763824,10.5367482 C13.7486295,10.6111139 13.794213,10.6706065 13.8549911,10.7003527 L14.2956319,10.8193379 C14.3716044,10.834211 14.4323825,10.8044647 14.4627715,10.730099 L14.7970507,9.52537461 L15.4959982,9.7038523 L15.161719,10.9085767 C15.1465245,10.9829424 15.192108,11.042435 15.252886,11.0721813 L15.6783323,11.1911664 C15.7543049,11.2060395 15.8150829,11.1762932 15.845472,11.1019275 L16.1797512,9.89720313 L16.7571426,10.0459345 C17.6080352,10.2392854 18.4741223,9.73359858 18.6716509,8.90070269 C18.8084015,8.38014276 18.6868454,7.82983655 18.3677607,7.42826174 C18.6412619,7.20516463 18.853985,6.89282867 18.9451521,6.56561957 C19.1730698,5.7029774 18.7020399,4.82546209 17.8815364,4.61723812 L17.6384242,4.55774556 L17.9727034,3.35302115 C17.9878979,3.27865545 17.9423144,3.21916288 17.8815364,3.1894166 L17.4560901,3.07043147 C17.3801175,3.05555833 17.3193395,3.08530461 17.2889505,3.15967032 L16.9546712,4.36439473 L16.2557237,4.18591704 L16.590003,2.98119263 C16.6051975,2.90682692 16.559614,2.84733436 16.4988359,2.81758808 L16.0733896,2.69860295 C15.9974171,2.68372981 15.936639,2.71347609 15.90625,2.7878418 Z M15.4200257,7.17541835 L16.8331151,7.54724687 C17.2281724,7.63648572 17.4712846,8.02318738 17.364923,8.40988904 C17.2737559,8.7965907 16.8786987,9.03456096 16.4836414,8.93044897 L16.4532524,8.93044897 L16.4532524,8.93044897 L15.0401629,8.55862045 L15.4200257,7.17541835 Z M15.967028,5.18241747 L17.0306438,5.46500715 C17.425701,5.554246 17.6688132,5.94094766 17.5624516,6.32764932 C17.4712846,6.71435098 17.0762273,6.95232124 16.68117,6.84820925 C16.6659755,6.84820925 16.650781,6.84820925 16.650781,6.83333611 L15.5871653,6.55074643 L15.967028,5.18241747 Z"/>
  </g>
</svg>
