<svg xmlns="http://www.w3.org/2000/svg" width="32" height="39" viewBox="0 0 32 39">
  <defs>
    <linearGradient id="icon-map7-a" x1="50%" x2="50%" y1="100%" y2="0%">
      <stop offset="0%" stop-color="#FFC79F" stop-opacity="0"/>
      <stop offset="100%" stop-color="#FF9566"/>
    </linearGradient>
  </defs>
  <g fill="none" fill-rule="evenodd">
    <path fill="#F1753C" d="M9.41176471,13.1764706 L9.41176471,26.3529412 L1.9614783,26.3529412 L0,21.3070729 L9.41176471,13.1764706 Z M22.5882353,13.1764706 L32,21.3070729 L30.0385217,26.3529412 L22.5882353,26.3529412 L22.5882353,13.1764706 Z"/>
    <path fill="#FF9566" d="M16,0.000923973635 L15.794273,10.3588372 C13.9407797,10.4653677 12.4705882,12.0021695 12.4705882,13.8823529 C12.4705882,15.7878279 13.9805987,17.340621 15.8692759,17.4093886 L16,29.7 L9.23474297,29.7 C8.84332097,23.4252317 8.84332097,17.5002361 9.23474297,11.9250131 C9.60609204,6.63569894 11.654861,2.78696401 15.3810497,0.378808284 L15.686849,0.186709271 Z M16,10.3529412 L16,17.4117647 C15.9562347,17.4117647 15.9126554,17.4109681 15.8692759,17.4093886 L15.794273,10.3588372 C15.8623495,10.3549245 15.9309431,10.3529412 16,10.3529412 L16,10.3529412 Z M16,10.3529412 L16,0 C20.1085442,2.33142055 22.3594202,6.28474233 22.752628,11.8599653 C23.1458358,17.4351884 23.1603337,23.3815586 22.7961218,29.699076 L16,29.699076 L16,17.4117647 L16,17.4117647 C17.9492403,17.4117647 19.5294118,15.8315932 19.5294118,13.8823529 C19.5294118,11.9331126 17.9492403,10.3529412 16,10.3529412 Z"/>
    <rect width="5.647" height="7.92" x="13.176" y="31.059" fill="url(#icon-map7-a)"/>
  </g>
</svg>
