<svg xmlns="http://www.w3.org/2000/svg" width="34" height="35" viewBox="0 0 34 35">
  <g fill="none" fill-rule="evenodd" opacity=".903">
    <path fill="#A0E3C5" d="M17,0 C23.627417,0 29,5.372583 29,12 C29,18.627417 23.627417,24 17,24 C10.372583,24 5,18.627417 5,12 C5,5.372583 10.372583,0 17,0 Z M17.1431239,5.14216973 L16.6187644,6.98468941 L14.3783189,6.4160105 C14.2591463,6.39326334 14.1638082,6.43875766 14.1161391,6.55249344 L13.9254629,7.18941382 C13.9016284,7.28040245 13.9492974,7.39413823 14.0446355,7.43963255 C14.7835058,7.68985127 15.0695202,8.28127734 14.9026785,8.87270341 L13.8062903,12.8307087 C13.7109522,13.3538933 13.1865926,13.6951006 12.6383985,13.6268591 C12.614564,13.6268591 12.5907294,13.6268591 12.5668949,13.604112 C12.4715568,13.5813648 12.3762187,13.6268591 12.3285496,13.7178478 L12.0187008,14.332021 C11.9710317,14.4230096 12.0187008,14.5367454 12.1140389,14.5822397 C12.1378734,14.5822397 12.1378734,14.5822397 12.161708,14.6049869 L14.3068153,15.1509186 L13.7824557,16.9934383 C13.7586212,17.1071741 13.8301248,17.1981627 13.9254629,17.243657 L14.6166642,17.4256343 C14.7358368,17.4483815 14.8311749,17.4028871 14.878844,17.2891514 L15.4032035,15.4466317 L16.4995917,15.7195976 L15.9752322,17.5621172 C15.9513976,17.675853 16.0229012,17.7668416 16.1182393,17.812336 L16.7856061,17.9943132 C16.9047787,18.0170604 17.0001168,17.9715661 17.0477858,17.8578303 L17.5721454,16.0153106 L18.4778574,16.2427822 C19.8125909,16.5384952 21.1711589,15.7650919 21.4810077,14.4912511 C21.6955185,13.6951006 21.5048422,12.8534558 21.0043172,12.2392826 C21.4333387,11.8980752 21.767022,11.420385 21.9100292,10.9199475 C22.2675471,9.60061242 21.5286768,8.25853018 20.2416124,7.94006999 L19.8602599,7.84908136 L20.3846195,6.00656168 C20.408454,5.8928259 20.3369505,5.80183727 20.2416124,5.75634296 L19.5742456,5.5743657 C19.4789075,5.55616798 19.3988235,5.58164479 19.3461969,5.65079615 L19.3120658,5.71084864 L19.3120658,5.71084864 L18.7877063,7.55336833 L17.691318,7.28040245 L18.2156776,5.43788276 C18.2347452,5.34689414 18.1927965,5.27046369 18.1264412,5.22023797 L18.0726705,5.18766404 L18.0726705,5.18766404 L17.4053037,5.00568679 C17.2861311,4.98293963 17.190793,5.02843395 17.1431239,5.14216973 Z M16.3804191,11.8525809 L18.59703,12.4212598 C19.2167277,12.5577428 19.5980801,13.1491689 19.4312385,13.7405949 C19.2882313,14.332021 18.6685336,14.6959755 18.0488359,14.5367454 L18.0011669,14.5367454 L18.0011669,14.5367454 L15.7845559,13.9680665 L16.3804191,11.8525809 Z M17.238462,8.80446194 L18.9068789,9.23665792 C19.5265766,9.37314086 19.907929,9.96456693 19.7410873,10.555993 C19.5980801,11.1474191 18.9783825,11.5113736 18.3586848,11.3521435 C18.3348503,11.3521435 18.3110157,11.3521435 18.3110157,11.3293963 L16.6425989,10.8972003 L17.238462,8.80446194 Z"/>
    <path fill="#63D1A0" fill-rule="nonzero" d="M33.9702274,20.6318375 C33.845002,19.7864451 33.3554846,19.0462883 32.5889536,18.5481733 L32.4864965,18.4885398 C32.4940859,18.4920477 32.4978806,18.4920477 32.4940859,18.4885398 C32.3992182,18.4218906 32.3005558,18.3622571 32.1867145,18.3061315 C30.8395931,17.7062888 29.2647893,18.0079641 28.2781651,19.0357648 C26.0013402,21.3018373 24.0318867,23.3118366 22.2445792,25.199061 C21.9675655,25.5007363 21.6905518,25.6129876 21.220008,25.6129876 C19.5996676,25.6129876 15.9984896,25.7497938 15.8922377,25.7533017 C15.6721447,25.7533017 15.486204,25.5814169 15.486204,25.3779615 C15.486204,25.0552391 15.7708071,24.5922026 15.9415689,24.4904749 C16.4121127,24.486967 20.7608483,24.4448728 20.8898684,24.4448728 C22.5785135,24.4448728 23.9521978,23.1750303 23.9521978,21.6140361 C23.9521978,20.0846126 22.6544077,18.8463407 20.9999149,18.7902151 L20.9999149,18.793723 C20.1612844,18.7656601 11.7901582,18.5166026 10.5530834,18.6463932 C9.39949209,18.7656601 8.29143731,19.1374925 7.08851482,19.8004765 C5.23669725,20.7756594 1.29779019,25.746286 0.523669725,26.7319924 L0,27.4055 L8.21933785,35 L8.95930594,34.407173 C9.70306874,33.8108381 10.6251828,33.1092677 11.0122431,32.8567023 L21.1744715,32.8567023 C23.2046403,32.8567023 24.8515437,32.1621476 26.043082,30.8221481 C26.8437655,29.9942949 27.6710118,29.1418869 28.448927,28.2473846 C30.0958303,26.4127779 31.7692966,24.5992183 33.2150804,23.0312084 C33.8222337,22.3541929 34.0954527,21.4807377 33.9702274,20.6318375 Z"/>
  </g>
</svg>
