<svg xmlns="http://www.w3.org/2000/svg" width="48" height="48" viewBox="0 0 48 48">
  <defs>
    <linearGradient id="icon-c2c-a" x1="50%" x2="50%" y1="0%" y2="100%">
      <stop offset="0%" stop-color="#9D6CE8"/>
      <stop offset="100%" stop-color="#785CE9"/>
    </linearGradient>
  </defs>
  <g fill="none" fill-rule="evenodd">
    <circle cx="24" cy="24" r="24" fill="#BFCAF9" fill-opacity=".2"/>
    <rect width="28" height="4" x="10" y="12" fill="#6F50ED" rx="2"/>
    <path fill="#2F12A5" d="M13.1525879,13.557373 L34.9020996,13.557373 C35.178242,13.557373 35.4020996,13.7812307 35.4020996,14.057373 C35.4020996,14.3335154 35.178242,14.557373 34.9020996,14.557373 L13.1525879,14.557373 C12.8764455,14.557373 12.6525879,14.3335154 12.6525879,14.057373 C12.6525879,13.7812307 12.8764455,13.557373 13.1525879,13.557373 Z"/>
    <path fill="url(#icon-c2c-a)" d="M13,14 L35,14 L35,36.5129939 C35,36.7786599 34.7846352,36.9940247 34.5189692,36.9940247 C34.5169897,36.9940247 34.5150103,36.9940125 34.513031,36.993988 L34.4377464,36.9930586 C34.1740286,36.9898028 33.9222745,36.8824982 33.737296,36.6945071 L32.719139,35.6597681 C32.3317818,35.2661022 31.6986375,35.260988 31.3049716,35.6483452 C31.2988135,35.6544047 31.2927341,35.6605437 31.2867351,35.6667607 L30.7330756,36.2405364 C30.3495803,36.6379654 29.7165161,36.6492609 29.3190871,36.2657655 C29.309987,36.2569844 29.3010542,36.2480315 29.2922937,36.2389116 L28.752346,35.6768141 C28.369748,35.2785212 27.7367109,35.2657979 27.338418,35.6483958 C27.3294602,35.6570005 27.3206636,35.6657714 27.3120327,35.6747039 L26.7575532,36.248554 C26.3737898,36.6457242 25.7407181,36.6565925 25.343548,36.2728291 C25.3368817,36.2663878 25.3303053,36.2598541 25.3238206,36.25323 L24.7428688,35.6597783 C24.3565229,35.2651198 23.7233938,35.258381 23.3287353,35.6447268 C23.323158,35.6501866 23.3176449,35.6557116 23.3121969,35.6613004 L22.7391298,36.2491951 C22.3536246,36.6446748 21.7205113,36.6527608 21.3250316,36.2672557 C21.3175829,36.2599949 21.310248,36.2526183 21.3030295,36.2451286 L20.7487653,35.6700434 C20.365506,35.2723868 19.7324486,35.2607155 19.3347921,35.6439748 C19.3276448,35.6508634 19.3206004,35.6578579 19.3136614,35.6649562 L18.7352633,36.256629 C18.3491944,36.6515585 17.7160702,36.6587414 17.3211407,36.2726726 C17.3157805,36.2674326 17.3104794,36.2621326 17.3052384,36.2567735 L16.7233135,35.6617334 C16.3371649,35.2668819 15.7040392,35.2598269 15.3091877,35.6459755 C15.3030883,35.6519405 15.2970654,35.6579833 15.2911206,35.6641025 L14.2878328,36.6968148 C14.0995341,36.890636 13.8408095,37 13.5705817,37 L13.4966431,37 C13.2223547,37 13,36.7776453 13,36.5033569 L13,14 L13,14 Z"/>
    <path fill="#FFF" d="M26,23 C28.209139,23 30,24.790861 30,27 C30,29.209139 28.209139,31 26,31 C23.790861,31 22,29.209139 22,27 C22,24.790861 23.790861,23 26,23 Z M18,27.6666667 L21.3333333,31 L18,31 L18,27.6666667 Z M26.3372093,25 C25.744186,25 25.2848837,25.1832884 24.9651163,25.5606469 C24.755814,25.8032345 24.622093,26.1051213 24.5639535,26.4716981 L24.5639535,26.4716981 L24.1162791,26.4716981 L24,26.8274933 L24.5232558,26.8274933 C24.5174419,26.8814016 24.5174419,26.9407008 24.5174419,27.0053908 C24.5174419,27.06469 24.5174419,27.1239892 24.5232558,27.1832884 L24.5232558,27.1832884 L24.1162791,27.1832884 L24,27.5390836 L24.5639535,27.5390836 C24.622093,27.8733154 24.75,28.1590296 24.9418605,28.3962264 C25.255814,28.7951482 25.7267442,29 26.3488372,29 C26.744186,29 27.0872093,28.8921833 27.377907,28.6765499 C27.6860465,28.4447439 27.8953488,28.1266846 28,27.7169811 L28,27.7169811 L27.3139535,27.7169811 C27.2383721,27.9541779 27.122093,28.1320755 26.9651163,28.2506739 C26.8023256,28.3800539 26.5930233,28.4447439 26.3430233,28.4447439 C25.9186047,28.4447439 25.6104651,28.2938005 25.4244186,28.0026954 C25.3430233,27.8733154 25.2790698,27.722372 25.244186,27.5390836 L25.244186,27.5390836 L26.8837209,27.5390836 L27,27.1832884 L25.2034884,27.1832884 C25.1976744,27.1239892 25.1976744,27.06469 25.1976744,27.0053908 C25.1976744,26.9407008 25.1976744,26.8814016 25.2034884,26.8274933 L25.2034884,26.8274933 L27.1104651,26.8274933 L27.2267442,26.4716981 L25.25,26.4716981 C25.2965116,26.2668464 25.372093,26.0943396 25.4767442,25.9541779 C25.6744186,25.6846361 25.9534884,25.5552561 26.3255814,25.5552561 C26.5697674,25.5552561 26.7732558,25.6037736 26.9302326,25.7115903 C27.0988372,25.819407 27.2151163,25.9865229 27.2848837,26.2183288 L27.2848837,26.2183288 L27.9593023,26.2183288 C27.8895349,25.8463612 27.7151163,25.5552561 27.4360465,25.3396226 C27.1453488,25.1132075 26.7790698,25 26.3372093,25 Z M21.6666667,19 C23.5794351,19 25.1501199,20.4646341 25.3184088,22.3335901 L25.3333333,22.3333333 C24.446676,22.3333333 23.6273985,22.6218211 22.9642446,23.1100531 C22.8707515,22.9895099 22.7412518,22.8850209 22.5786448,22.7964793 C22.5482266,22.7769433 22.3510713,22.7053112 21.9911845,22.5777241 L21.8486068,22.5272485 L21.8486068,21.3184573 C21.9911924,21.3349408 22.1052608,21.3734024 22.1908121,21.4338419 C22.3003178,21.5085672 22.3769718,21.6254903 22.4207741,21.7874243 L22.4474661,21.9173584 L23.0976562,21.9173584 C23.040622,21.5162595 22.8980365,21.2250507 22.6641962,21.0492265 C22.4978464,20.9210214 22.2800073,20.8347882 22.0139797,20.7968863 L21.8486068,20.7799958 L21.8486068,20.3294463 L21.472181,20.3294463 L21.472181,20.7799958 C21.1413825,20.8019738 20.8733216,20.8843914 20.6565916,21.032743 C20.3657171,21.2250507 20.2231315,21.499776 20.2231315,21.8624133 C20.2231315,22.2238297 20.3763494,22.507102 20.6907965,22.7122302 L20.8162874,22.7854903 L21.472181,23.0162595 L21.472181,24.3019738 C21.2953749,24.2799958 21.1584928,24.2250507 21.0615346,24.1371386 C20.952219,24.036406 20.8825105,23.8746234 20.8491085,23.65815 L20.8333977,23.521754 L20.1718007,23.521754 C20.2060213,23.9723035 20.3429034,24.3074683 20.5824471,24.5272485 C20.7584384,24.6873741 21.0014741,24.786948 21.311554,24.8294303 L21.472181,24.8459298 L21.47111,25.2887213 C21.3825935,25.6167899 21.334763,25.9615564 21.3333649,26.3172743 C19.4646341,26.1501199 18,24.5794351 18,22.6666667 C18,20.6416226 19.6416226,19 21.6666667,19 Z M21.8486068,24.3019738 L21.8486068,23.1481276 C21.8714205,23.1536221 21.8885308,23.1591166 21.9113445,23.1701057 C22.1979942,23.2661577 22.3817599,23.3942766 22.4604372,23.5523389 C22.2415212,23.7764031 22.0509734,24.0253441 21.8911302,24.2946492 L21.8486068,24.3019738 L21.8486068,23.1481276 Z M21.472181,21.3129628 L21.472181,22.3898859 C21.0843483,22.2470287 20.8904319,22.0712046 20.8904319,21.8624133 C20.8904319,21.6591166 20.9645764,21.510765 21.1185688,21.4228529 C21.2041201,21.3679078 21.323892,21.3294463 21.472181,21.3129628 Z"/>
  </g>
</svg>
