<svg xmlns="http://www.w3.org/2000/svg" xmlns:xlink="http://www.w3.org/1999/xlink" width="48" height="48" viewBox="0 0 48 48">
  <defs>
    <linearGradient id="icon-pay-a" x1="50%" x2="50%" y1="0%" y2="99.245%">
      <stop offset="0%" stop-color="#5699FF"/>
      <stop offset="100%" stop-color="#3081FA"/>
    </linearGradient>
    <linearGradient id="icon-pay-b" x1="50%" x2="50%" y1="0%" y2="100%">
      <stop offset="0%" stop-color="#FFCC32"/>
      <stop offset="100%" stop-color="#FF842F"/>
    </linearGradient>
    <path id="icon-pay-d" d="M24.2714276,19.8266937 L24.2714276,19.8436185 C24.1143085,19.8907839 24,20.0308204 24,20.1957893 C24,20.3607582 24.114298,20.5007848 24.2714276,20.5479601 L24.2714276,20.5685138 L25.5610473,20.5685138 L25.5610473,21.6094411 C25.5872041,21.8285432 25.7821565,22 26.0183549,22 C26.2545638,22 26.4494532,21.8285432 26.4730058,21.6094411 L26.4769225,21.6094411 L26.4769225,20.5684538 L27.6118068,20.5684538 L27.7280264,20.5648349 L27.7280264,20.5481301 C27.8854605,20.5011746 28,20.3609781 28,20.1957993 C28,20.0306205 27.8854605,19.890364 27.7280264,19.8434085 L27.7280264,19.8231348 L26.476933,19.8231348 L26.476933,19.3206606 L27.6118173,19.3206606 L27.7280369,19.3168118 L27.7280369,19.300107 C27.885471,19.2531515 28,19.112955 28,18.9477762 C28,18.7505673 27.8367801,18.5889774 27.6322933,18.5791105 L26.7418923,18.5786206 L27.8154221,16.6969539 C27.8364048,16.6683651 27.8538331,16.6375553 27.8673576,16.6051424 C27.8895918,16.5489216 27.8995088,16.4968044 27.8994787,16.4442623 C27.8994787,16.1992982 27.6901721,16 27.4329096,16 C27.2668651,16 27.1144713,16.0857634 27.0317798,16.2197919 L27.0280416,16.2259899 C27.0216644,16.2367235 27.0157546,16.2477028 27.0103272,16.2588997 L26.9989237,16.2800432 C26.9139011,16.4381442 26.2864433,17.6054623 26.0362268,18.093551 C25.7749006,17.6046526 25.1179889,16.4352151 25.0297637,16.2782537 L25.0243979,16.2694365 C24.9526585,16.1072568 24.7853539,16 24.5999149,16 C24.3451832,16 24.1379452,16.1973388 24.1379452,16.4397337 C24.1378282,16.4859767 24.1454054,16.5319455 24.1603952,16.5759315 L25.2796967,18.5786106 L24.3876262,18.5786106 C24.1738989,18.5786106 24,18.7442193 24,18.9477662 C24,19.112785 24.1142665,19.2528216 24.2713961,19.299977 L24.2713961,19.3206406 L25.5610158,19.3206406 L25.5610158,19.8231148 L24.3876577,19.8231148 L24.2714276,19.8266937 Z"/>
    <filter id="icon-pay-c" width="187.5%" height="158.3%" x="-43.8%" y="-20.8%" filterUnits="objectBoundingBox">
      <feOffset dy=".5" in="SourceAlpha" result="shadowOffsetOuter1"/>
      <feGaussianBlur in="shadowOffsetOuter1" result="shadowBlurOuter1" stdDeviation=".5"/>
      <feColorMatrix in="shadowBlurOuter1" values="0 0 0 0 0.992156863   0 0 0 0 0.533333333   0 0 0 0 0.180392157  0 0 0 1 0"/>
    </filter>
  </defs>
  <g fill="none" fill-rule="evenodd">
    <circle cx="24" cy="24" r="24" fill="#BFCAF9" fill-opacity=".2"/>
    <g opacity=".85" transform="translate(9 12)">
      <path fill="url(#icon-pay-a)" d="M1.11111111,0 L29.8888889,0 C30.5025386,-1.12725625e-16 31,0.497461389 31,1.11111111 L31,21.8888889 C31,22.5025386 30.5025386,23 29.8888889,23 L1.11111111,23 C0.497461389,23 -3.68938793e-16,22.5025386 0,21.8888889 L0,1.11111111 C-7.51504168e-17,0.497461389 0.497461389,-1.0931898e-16 1.11111111,0 Z"/>
      <path fill="#FFDE8D" d="M26,26 C29.8659932,26 33,22.8659932 33,19 C33,15.1340068 29.8659932,12 26,12 C22.1340068,12 19,15.1340068 19,19 C19,22.8659932 22.1340068,26 26,26 Z"/>
      <path fill="url(#icon-pay-b)" d="M26,24 C28.7614237,24 31,21.7614237 31,19 C31,16.2385763 28.7614237,14 26,14 C23.2385763,14 21,16.2385763 21,19 C21,21.7614237 23.2385763,24 26,24 Z"/>
      <g fill-rule="nonzero">
        <use fill="#000" filter="url(#icon-pay-c)" xlink:href="#icon-pay-d"/>
        <use fill="#FFF0DD" xlink:href="#icon-pay-d"/>
      </g>
      <polygon fill="#9BCDFF" points="0 4 31 4 31 8 0 8"/>
      <path fill="#A8D3FF" d="M3.32213769,15 L10.653729,15 C10.8378239,15 10.9870623,15.1492384 10.9870623,15.3333333 C10.9870623,15.3650315 10.982541,15.3965677 10.9736348,15.426989 L9.99776813,18.7603223 C9.95617835,18.9023833 9.82588611,19 9.67786231,19 L2.34627099,19 C2.16217607,19 2.01293766,18.8507616 2.01293766,18.6666667 C2.01293766,18.6349685 2.01745903,18.6034323 2.02636517,18.573011 L3.00223187,15.2396777 C3.04382165,15.0976167 3.17411389,15 3.32213769,15 Z"/>
    </g>
  </g>
</svg>
