<svg xmlns="http://www.w3.org/2000/svg" width="48" height="48" viewBox="0 0 48 48">
  <defs>
    <linearGradient id="icon-lever-a" x1="50%" x2="50%" y1="0%" y2="100%">
      <stop offset="0%" stop-color="#2E9DFF"/>
      <stop offset="100%" stop-color="#3E7BFE"/>
    </linearGradient>
    <linearGradient id="icon-lever-b" x1="50%" x2="50%" y1="100%" y2="0%">
      <stop offset="0%" stop-color="#FF7349" stop-opacity=".666"/>
      <stop offset="100%" stop-color="#FF7147"/>
    </linearGradient>
  </defs>
  <g fill="none" fill-rule="evenodd">
    <circle cx="24" cy="24" r="24" fill="#BFCAF9" fill-opacity=".2"/>
    <g transform="translate(9 12)">
      <path fill="url(#icon-lever-a)" d="M29.615551,9.12573418 C29.9261436,10.4710585 29.0873278,11.8134444 27.7420034,12.124037 L18.9178199,14.1605576 L22.971535,19.0957817 C24.0232057,20.3760765 23.8378693,22.2665081 22.5575745,23.3181788 C22.0208951,23.7590226 21.3478834,24 20.6533562,24 L10.3466438,24 C8.68978952,24 7.34664377,22.6568542 7.34664377,21 C7.34664377,20.3054728 7.58762122,19.6324611 8.02846501,19.0957817 L10.4818199,16.1085576 L3.38275183,17.7478133 C2.03742751,18.0584059 0.69504162,17.2195901 0.384449028,15.8742658 C0.0738564363,14.5289415 0.912672236,13.1865556 2.25799655,12.875963 L26.6172482,7.25218666 C27.9625725,6.94159407 29.3049584,7.78040987 29.615551,9.12573418 Z"/>
      <circle cx="22" cy="4" r="4" fill="url(#icon-lever-b)"/>
      <circle cx="7" cy="7" r="7" fill="url(#icon-lever-b)"/>
    </g>
  </g>
</svg>
