<svg xmlns="http://www.w3.org/2000/svg" width="48" height="48" viewBox="0 0 48 48">
  <defs>
    <linearGradient id="icon-ticket-a" x1="50%" x2="50%" y1="0%" y2="100%">
      <stop offset="0%" stop-color="#FAC03C"/>
      <stop offset="100%" stop-color="#F38C1C"/>
    </linearGradient>
    <linearGradient id="icon-ticket-b" x1="50%" x2="50%" y1="0%" y2="100%">
      <stop offset="0%" stop-color="#FFEBC0"/>
      <stop offset="100%" stop-color="#FFD28C"/>
    </linearGradient>
  </defs>
  <g fill="none" fill-rule="evenodd">
    <circle cx="24" cy="24" r="24" fill="#BFCAF9" fill-opacity=".2"/>
    <g opacity=".9" transform="translate(9 12)">
      <path fill="#F39631" d="M15.6182584,20.3571429 L21.9101855,25.3777281 C21.9167129,25.3829366 21.9231105,25.388306 21.9293722,25.3938312 C22.1156226,25.5581751 22.1521026,25.8290692 22.0280579,26.0343998 L21.9739955,26.1079893 C21.7974482,26.3080699 21.5138652,26.3533664 21.2912201,26.2318504 L21.2109127,26.1784391 L15.8598876,21.9091429 L15.8607391,26.0547893 C15.8607391,26.357028 15.6157263,26.6020408 15.3134876,26.6020408 C15.011249,26.6020408 14.7662361,26.357028 14.7662361,26.0547893 L14.7658876,21.9461429 L9.46255665,26.1784391 C9.23217242,26.362272 8.89808963,26.33308 8.70307995,26.1120761 L8.69947384,26.1079893 C8.51458691,25.8984576 8.53456548,25.5787181 8.74409722,25.3938312 C8.75035892,25.388306 8.75675645,25.3829366 8.76328393,25.3777281 L15.055211,20.3571429 L15.0954492,20.4023031 C15.1622558,20.3732515 15.2359905,20.3571429 15.3134876,20.3571429 C15.4037767,20.3571429 15.4889587,20.3790083 15.5640275,20.4177329 L15.6182584,20.3571429 Z"/>
      <path fill="url(#icon-ticket-a)" d="M2.14285714,0 L27.8571429,0 C29.0406102,-2.1739942e-16 30,0.959389822 30,2.14285714 L30,19.8571429 C30,21.0406102 29.0406102,22 27.8571429,22 L2.14285714,22 C0.959389822,22 1.44932947e-16,21.0406102 0,19.8571429 L0,2.14285714 C-1.44932947e-16,0.959389822 0.959389822,-2.2668979e-16 2.14285714,0 Z"/>
      <path fill="url(#icon-ticket-b)" d="M4.14285714,2 L25.8571429,2 C27.0406102,2 28,2.95938982 28,4.14285714 L28,17.8571429 C28,19.0406102 27.0406102,20 25.8571429,20 L4.14285714,20 C2.95938982,20 2,19.0406102 2,17.8571429 L2,4.14285714 C2,2.95938982 2.95938982,2 4.14285714,2 Z"/>
      <circle cx="15" cy="11" r="6" fill="#FFF"/>
      <path fill="#F39F1C" fill-rule="nonzero" d="M17.5742039,11.2017248 C17.8500034,10.9767529 18.0645142,10.6617923 18.1564473,10.3318335 C18.3862803,9.46194226 17.9112922,8.57705287 17.0838937,8.36707912 L16.8387385,8.30708661 L17.1758268,7.09223847 C17.191149,7.01724784 17.1451824,6.95725534 17.0838937,6.92725909 L16.6548722,6.80727409 C16.5782612,6.79227597 16.5169724,6.82227222 16.486328,6.89726284 C16.486328,6.89726284 16.486328,6.89726284 16.486328,6.89726284 L16.1492397,8.11211099 L15.4444187,7.93213348 L15.781507,6.71728534 C15.7968292,6.64229471 15.7508627,6.58230221 15.6895739,6.55230596 C15.6895739,6.55230596 15.6895739,6.55230596 15.6895739,6.55230596 L15.2605524,6.43232096 C15.1839414,6.41732283 15.1226526,6.44731909 15.0920083,6.52230971 L14.75492,7.73715786 L13.3146336,7.36220472 C13.2380226,7.3472066 13.1767338,7.37720285 13.1460894,7.45219348 L13.0235119,7.87214098 C13.0081897,7.93213348 13.0388341,8.00712411 13.1001228,8.03712036 C13.5751109,8.20209974 13.7589772,8.59205099 13.6517219,8.98200225 L12.9469009,11.591676 C12.8856121,11.9366329 12.5485238,12.1616048 12.1961133,12.1166104 C12.1807911,12.1166104 12.1654689,12.1166104 12.1501467,12.1016123 C12.0888579,12.0866142 12.0275692,12.1166104 11.9969248,12.1766029 L11.7977362,12.5815523 C11.7670918,12.6415448 11.7977362,12.7165354 11.859025,12.7465317 C11.8743472,12.7465317 11.8743472,12.7465317 11.8896694,12.7615298 L13.268667,13.1214848 L12.9315787,14.336333 C12.9162565,14.4113236 12.9622231,14.4713161 13.0235119,14.5013123 L13.4678555,14.6212973 C13.5444665,14.6362955 13.6057553,14.6062992 13.6363997,14.5313086 L13.973488,13.3164604 L14.678309,13.4964379 L14.3412207,14.7112861 C14.3258985,14.7862767 14.3718651,14.8462692 14.4331538,14.8762655 L14.8621753,14.9962505 C14.9387863,15.0112486 15.0000751,14.9812523 15.0307195,14.9062617 L15.3678078,13.6914136 L15.9500512,13.8413948 C16.8080941,14.0363705 17.6814593,13.5264342 17.8806478,12.6865392 C18.0185476,12.1616048 17.89597,11.6066742 17.5742039,11.2017248 Z M15.153297,8.93700787 L16.2258507,9.22197225 C16.6242278,9.311961 16.8693829,9.70191226 16.7621276,10.0918635 C16.6701944,10.4818148 16.2718173,10.7217848 15.8734402,10.6167979 C15.858118,10.6167979 15.8427958,10.6167979 15.8427958,10.6017998 L14.7702421,10.3168354 L15.153297,8.93700787 Z M15.6436073,12.7165354 L14.2186431,12.3415823 L14.601698,10.9467567 L16.0266622,11.3217098 C16.4250393,11.4116985 16.6701944,11.8016498 16.562939,12.191601 C16.4710058,12.5815523 16.0726288,12.8215223 15.6742517,12.7165354 C15.6589295,12.7165354 15.6589295,12.7165354 15.6436073,12.7165354 L15.6436073,12.7165354 Z"/>
    </g>
  </g>
</svg>
