<svg xmlns="http://www.w3.org/2000/svg" width="48" height="48" viewBox="0 0 48 48">
  <defs>
    <linearGradient id="icon-name-a" x1="50%" x2="50%" y1="0%" y2="100%">
      <stop offset="0%" stop-color="#FAC75F"/>
      <stop offset="100%" stop-color="#F39631"/>
    </linearGradient>
    <linearGradient id="icon-name-b" x1="50%" x2="50%" y1="0%" y2="99.118%">
      <stop offset="0%" stop-color="#6DA6FC"/>
      <stop offset="100%" stop-color="#419AFF"/>
    </linearGradient>
  </defs>
  <g fill="none" fill-rule="evenodd">
    <circle cx="24" cy="24" r="24" fill="#BFCAF9" fill-opacity=".2"/>
    <g fill-rule="nonzero" transform="translate(9 11)">
      <path fill="url(#icon-name-a)" d="M23.7597656,16.0965402 C23.5756138,16.0421317 23.3872768,15.9835379 23.203125,15.9207589 C22.9310826,15.8244978 22.6590402,15.7324219 22.3869978,15.640346 L21.3197545,15.297154 L21.3239397,15.3097098 C21.0351563,15.2301897 20.7756696,15.1590402 20.5412946,15.108817 C19.8716518,14.9581473 19.4907924,14.828404 19.4029018,14.7195871 C19.3610491,14.6526228 19.3317522,14.5772879 19.3233817,14.4935826 C19.3108259,14.405692 19.3066406,14.3094308 19.3066406,14.2006138 C19.3066406,14.0917969 19.3191964,13.9746094 19.3401228,13.8448661 C19.6414621,13.7569754 19.8716518,13.702567 20.0223214,13.6816406 C20.1729911,13.6607143 20.2943638,13.6397879 20.3780692,13.6188616 C20.5412946,13.5770089 20.7045201,13.5267857 20.8635603,13.4723772 C21.0142299,13.4179687 21.0895647,13.3384487 21.0895647,13.2296317 L21.0895647,12.0954241 L21.0267857,12.061942 L20.8970424,11.9991629 C20.8551897,11.9782366 20.8091518,11.9238281 20.7672991,11.8359375 C20.8970424,11.5555246 21.0267857,11.2207031 21.156529,10.8314732 C21.265346,10.484096 21.3783482,10.0655692 21.4955357,9.56752232 C21.6127232,9.06947545 21.7173549,8.47516741 21.8052455,7.78459821 C21.8680246,7.24469866 21.9140625,6.75502232 21.9349888,6.32393973 C21.9559152,5.89285714 21.968471,5.51199777 21.968471,5.18973214 L21.968471,4.18526786 C22.2279576,4.14341518 22.5041853,4.11830357 22.797154,4.11830357 C23.0901228,4.11830357 23.3203125,4.13922991 23.4960937,4.18526786 C23.8643973,4.29408482 24.0862165,4.40290179 24.1615513,4.50753348 C24.2368862,4.61635045 24.3205915,4.70424107 24.4042969,4.76702009 C24.4921875,4.80887277 24.5842634,4.82561384 24.6805246,4.81305804 C24.7767857,4.80050223 24.9567522,4.8172433 25.2162388,4.86328125 C25.5175781,4.90513393 25.7645089,5.05580357 25.9486607,5.31529018 C26.1328125,5.57477679 26.2332589,5.88867187 26.2583705,6.25697545 C26.2583705,6.36579241 26.2667411,6.54575893 26.2918527,6.79268973 C26.312779,7.04799107 26.3253348,7.29910714 26.3253348,7.55440848 C26.3253348,7.81389509 26.312779,8.05664062 26.2918527,8.28683036 C26.2709263,8.51283482 26.2374442,8.64676339 26.1955915,8.69280134 C26.1077009,8.78069196 26.0281808,8.81835937 25.952846,8.80580357 C25.8775112,8.79324777 25.8398437,8.83091518 25.8398437,8.9188058 C25.8398437,8.96065848 25.8356585,9.09877232 25.8231027,9.32477679 C25.8105469,9.55078125 25.7519531,9.88141741 25.6431362,10.3166853 C25.6012835,10.5343192 25.5343192,10.7268415 25.4506138,10.9026228 C25.3627232,11.0742187 25.2664621,11.2248884 25.1576451,11.3546317 C25.0488281,11.5053013 24.9190848,11.6476004 24.7684152,11.7773437 C24.7474888,11.9489397 24.734933,12.1121652 24.734933,12.2628348 L24.734933,13.0078125 C24.7558594,13.1584821 24.8018973,13.2672991 24.8646763,13.3300781 C24.9316406,13.3928571 25.0571987,13.4514509 25.2539062,13.4933036 C25.3417969,13.5142299 25.546875,13.5811942 25.8691406,13.6900112 C26.1955915,13.7988281 26.547154,13.9243862 26.9238281,14.0625 L27.9785156,14.4517299 C28.3007812,14.5689174 28.530971,14.6609933 28.6607143,14.7279576 C28.9202009,14.8577009 29.1001674,14.9916295 29.1964286,15.1339286 C29.2926897,15.2762277 29.3638393,15.4645647 29.405692,15.703125 C29.4266183,15.811942 29.4601004,16.0170201 29.5019531,16.3183594 C29.5479911,16.640625 29.5898437,16.9670759 29.6316964,17.2935268 C29.6693638,17.6074219 29.7154018,17.921317 29.7614397,18.2352121 C29.8032924,18.515625 29.8242187,18.6997768 29.8242187,18.7876674 C29.8451451,18.9592634 29.8200335,19.1057478 29.7446987,19.2271205 C29.6693638,19.344308 29.5019531,19.4280134 29.2424665,19.4698661 C29.0248326,19.5117187 28.7444196,19.5661272 28.3970424,19.6330915 C28.0496652,19.7000558 27.5976562,19.7544643 27.0326451,19.796317 C26.9907924,19.5368304 26.9238281,19.2898996 26.8359375,19.0513393 C26.7689732,18.8211496 26.6936384,18.5951451 26.609933,18.3691406 C26.5220424,18.1305804 26.4174107,17.9255022 26.2876674,17.7539062 C26.0491071,17.4316406 25.8021763,17.1679687 25.5426897,16.9754464 C25.2832031,16.7829241 25.0237165,16.6196987 24.7642299,16.4899554 C24.6470424,16.4313616 24.5298549,16.3769531 24.4084821,16.3309152 C24.0820312,16.1467634 23.9397321,16.1509487 23.7597656,16.0965402 L23.7597656,16.0965402 Z M2.79157366,19.0053013 C2.70368304,19.2606027 2.64090402,19.5200893 2.59486607,19.7837612 C2.33537946,19.7628348 2.08844866,19.7293527 1.84988839,19.6833147 C1.6280692,19.6414621 1.40625,19.6079799 1.1844308,19.5870536 C0.958426339,19.5661272 0.765904018,19.5326451 0.615234375,19.4907924 C0.313895089,19.4280134 0.133928571,19.2773437 0.0795200893,19.0387835 C0.0251116071,18.8002232 0.0209263393,18.5742187 0.0627790179,18.3565848 C0.104631696,18.1389509 0.179966518,17.7706473 0.288783482,17.2516741 C0.397600446,16.7327009 0.493861607,16.3016183 0.581752232,15.9542411 C0.711495536,15.2176339 1.08816964,14.6986607 1.71595982,14.3973214 C1.8875558,14.3303571 2.1219308,14.2550223 2.41489955,14.171317 C2.70368304,14.0834263 2.99665179,14.0039062 3.28962054,13.9285714 C3.58258929,13.8532366 3.85044643,13.7820871 4.1015625,13.719308 C4.35267857,13.6523437 4.52845982,13.6104911 4.63727679,13.5895647 C4.85491071,13.5477121 4.99720982,13.4807478 5.07672991,13.3970424 C5.15206473,13.3091518 5.20228795,13.2045201 5.22321429,13.0747768 L5.22321429,12.1330915 C5.09347098,12.0242746 4.98465402,11.9154576 4.90094866,11.8108259 C4.81305804,11.7020089 4.72098214,11.6015625 4.62472098,11.5011161 C4.52845982,11.4048549 4.44475446,11.3002232 4.38197545,11.1914062 C4.25223214,11.0198103 4.12667411,10.7979911 4.00948661,10.5259487 C3.88811384,10.2539062 3.82114955,9.97767857 3.80022321,9.69726562 C3.75837054,9.41685268 3.71233259,9.2703683 3.67047991,9.2578125 C3.62862723,9.2452567 3.57421875,9.22014509 3.50725446,9.17410714 C3.44447545,9.13225446 3.3984375,9.07784598 3.37751116,9.0108817 C3.35658482,8.94810268 3.32310268,8.82672991 3.28125,8.65513393 C3.23939732,8.48353795 3.22684152,8.28264509 3.24776786,8.05664062 C3.2686942,7.83063616 3.28962054,7.57533482 3.31054687,7.29492187 C3.31054687,7.16517857 3.32310268,6.99358259 3.34402902,6.77594866 C3.36495536,6.55831473 3.41517857,6.328125 3.49051339,6.07700893 C3.56584821,5.83007812 3.67885045,5.58733259 3.82952009,5.34877232 C3.98018973,5.11021205 4.18526786,4.90513393 4.44475446,4.73353795 C4.74609375,4.51590402 5.07672991,4.36523437 5.43666295,4.28152902 C5.79241071,4.19363839 6.12304687,4.13922991 6.42438616,4.11830357 C6.77176339,4.09737723 7.11914062,4.10993304 7.46233259,4.15178571 C7.39955357,4.67075893 7.36607143,5.20228795 7.36607143,5.7421875 C7.34514509,6.1983817 7.35351562,6.70479911 7.39955357,7.265625 C7.44140625,7.83063616 7.51674107,8.35797991 7.62555804,8.85602679 C7.70926339,9.21595982 7.82226562,9.56752232 7.96456473,9.91071429 C8.10686384,10.2455357 8.25334821,10.5426897 8.40401786,10.8021763 C8.57561384,11.1035156 8.75139509,11.3881138 8.92299107,11.6476004 C8.90206473,11.7982701 8.88950893,11.9280134 8.88950893,12.0368304 C8.86858259,12.1414621 8.85602679,12.250279 8.85602679,12.359096 L8.85602679,12.6855469 C8.85602679,12.8780692 8.86439732,13.0371094 8.88950893,13.1542969 C8.91043527,13.2714844 9.00669643,13.3635603 9.18247768,13.4305246 C9.2703683,13.4723772 9.3875558,13.5184152 9.53822545,13.5602679 L9.99441964,13.6900112 C10.1785714,13.7569754 10.3627232,13.8239397 10.546875,13.8825335 L10.546875,13.9787946 C10.546875,14.0206473 10.5426897,14.0708705 10.5301339,14.125279 C10.5217634,14.1796875 10.5133929,14.2508371 10.5133929,14.3345424 C10.4924665,14.5061384 10.4003906,14.6149554 10.2371652,14.656808 C10.0739397,14.6986607 9.87304687,14.7446987 9.63448661,14.7865513 L9.31222098,14.8535156 C9.20340402,14.874442 9.10714286,14.8953683 9.01925223,14.9204799 C8.92299107,14.9455915 8.82254464,14.9665179 8.72628348,14.9832589 L7.55859375,15.2427455 C7.51674107,15.2427455 7.47070312,15.2553013 7.42885045,15.2762277 C7.34095982,15.3180804 7.2781808,15.3390067 7.23214286,15.3390067 L6.84291295,15.4394531 C6.58761161,15.5524554 6.08537946,15.6821987 5.70870536,15.9584263 C5.40736607,16.1300223 5.12276786,16.3141741 4.86328125,16.5108817 C4.62053571,16.6866629 4.37779018,16.8666295 4.13504464,17.046596 C3.88811384,17.2307478 3.67466518,17.4190848 3.5030692,17.6157924 C3.33147321,17.8250558 3.18498884,18.0552455 3.06361607,18.2979911 C2.94642857,18.5281808 2.85853795,18.7667411 2.79157366,19.0053013 L2.79157366,19.0053013 Z"/>
      <path fill="url(#icon-name-b)" d="M14.9707031,0.0251116071 C15.4771205,0.0251116071 15.8621652,0.05859375 16.1216518,0.121372768 C16.4020647,0.209263393 16.6280692,0.301339286 16.8038504,0.397600446 C16.9754464,0.493861607 17.1135603,0.5859375 17.2098214,0.673828125 C17.3060826,0.76171875 17.3897879,0.841238839 17.452567,0.916573661 C17.5195312,0.991908482 17.5823103,1.05050223 17.6492746,1.09654018 C17.7580915,1.1844308 17.9003906,1.20954241 18.0719866,1.17606027 C18.2435826,1.14257812 18.5491071,1.171875 18.9801897,1.25976562 C19.4782366,1.36858259 19.8883929,1.63225446 20.2106585,2.05496652 C20.5371094,2.47767857 20.7170759,3.00083705 20.7631138,3.62862723 C20.7631138,3.82114955 20.7756696,4.12667411 20.796596,4.53683036 C20.8175223,4.94698661 20.8300781,5.38225446 20.8300781,5.83426339 C20.8300781,6.29045759 20.8133371,6.70061384 20.7840402,7.06891741 C20.750558,7.43722098 20.6919643,7.66322545 20.6040737,7.75111607 C20.4743304,7.90178571 20.3487723,7.97293527 20.2315848,7.96037946 C20.1102121,7.95200893 20.0516183,8.01060268 20.0516183,8.14034598 C20.0516183,8.203125 20.0348772,8.43331473 20.0013951,8.82254464 C19.9679129,9.21177455 19.8758371,9.75167411 19.7251674,10.4464286 C19.6372768,10.8147321 19.515904,11.1453683 19.3526786,11.4383371 C19.1894531,11.7313058 19.0220424,11.9949777 18.8504464,12.2335379 C18.6369978,12.4930246 18.4193638,12.7315848 18.2017299,12.9492187 C18.1808036,13.2296317 18.1682478,13.5016741 18.1682478,13.7611607 L18.1682478,14.4433594 C18.1682478,14.6819196 18.1808036,14.8660714 18.2017299,14.9958147 C18.2226562,15.2553013 18.2896205,15.4394531 18.3984375,15.5482701 C18.5072545,15.6570871 18.7207031,15.7533482 19.047154,15.8412388 C19.155971,15.8830915 19.3484933,15.9500558 19.6289062,16.0379464 C19.9093192,16.1258371 20.2441406,16.2388393 20.6375558,16.3769531 C21.0267857,16.515067 21.4327567,16.6615513 21.8554687,16.8164062 L23.0733817,17.2558594 C23.4626116,17.3981585 23.8099888,17.5279018 24.1113281,17.6450893 C24.4126674,17.7664621 24.6428571,17.8543527 24.7935268,17.921317 C25.2287946,18.1389509 25.5133929,18.3649554 25.655692,18.6035156 C25.7979911,18.8420759 25.9193638,19.1434152 26.0281808,19.5117187 C26.0700335,19.7042411 26.1328125,20.0641741 26.2081473,20.5831473 C26.2876674,21.1230469 26.3671875,21.6629464 26.4508929,22.2070312 C26.5387835,22.7720424 26.6057478,23.2993862 26.6601562,23.797433 C26.7145647,24.2954799 26.7522321,24.609375 26.7731585,24.7391183 C26.7940848,24.9986049 26.7438616,25.2329799 26.6266741,25.4296875 C26.5053013,25.6222098 26.2332589,25.7770647 25.7979911,25.8858817 C25.4296875,25.9737723 24.8939732,26.0658482 24.1908482,26.1621094 C23.4877232,26.2583705 22.671596,26.3504464 21.7424665,26.4383371 C20.8133371,26.5262277 19.7921317,26.593192 18.6746652,26.6476004 C17.5613839,26.7020089 16.3853237,26.7271205 15.1548549,26.7271205 C13.9202009,26.7271205 12.7441406,26.7061942 11.6183036,26.6643415 C10.4924665,26.6224888 9.45870536,26.5597098 8.51702009,26.484375 C7.57533482,26.4090402 6.74246652,26.3211496 6.01841518,26.2248884 C5.29436384,26.1286272 4.72516741,26.0239955 4.31501116,25.9151786 C4.22712054,25.8942522 4.12248884,25.8523996 3.99274554,25.7854353 C3.85881696,25.718471 3.73325893,25.6347656 3.6202567,25.5426897 C3.49888393,25.4464286 3.4109933,25.3250558 3.34402902,25.186942 C3.28125,25.0488281 3.25613839,24.8897879 3.28125,24.718192 C3.30217634,24.5675223 3.36077009,24.2285156 3.45703125,23.6969866 C3.56166295,23.1277902 3.67466518,22.5585937 3.79603795,21.9935826 C3.91741071,21.4243862 4.03878348,20.859375 4.15178571,20.2901786 C4.26060268,19.7586496 4.3359375,19.4280134 4.37779018,19.2982701 C4.4656808,19.0387835 4.58705357,18.7667411 4.75027902,18.4863281 C4.91350446,18.2059152 5.18973214,17.9129464 5.57896205,17.6116071 C5.77148437,17.4609375 6.13141741,17.2977121 6.65039062,17.1261161 C7.16936384,16.9545201 7.70926339,16.7912946 8.27427455,16.640625 C8.83928571,16.4899554 9.36662946,16.3602121 9.86467634,16.2513951 C10.3627232,16.1425781 10.6849888,16.0672433 10.8398437,16.0253906 C11.1621094,15.9584263 11.4508929,15.8789062 11.6978237,15.7826451 C11.9489397,15.6863839 12.0703125,15.5482701 12.0703125,15.3766741 L12.0703125,13.4933036 C11.8317522,13.3007812 11.6057478,13.0831473 11.3881138,12.8445871 C11.1955915,12.6478795 10.9988839,12.4176897 10.8063616,12.1456473 C10.609654,11.8736049 10.4338728,11.5848214 10.2873884,11.2834821 C9.98604911,10.7017299 9.78934152,10.1660156 9.70145089,9.67633929 C9.61356027,9.19084821 9.55915179,8.90206473 9.53822545,8.81417411 C9.51729911,8.72628348 9.43359375,8.6593192 9.29547991,8.60491071 C9.1531808,8.55050223 9.05273437,8.4375 8.98577009,8.26590402 C8.81417411,7.89760045 8.73046875,7.50837054 8.74302455,7.09821429 C8.75558036,6.68805804 8.78069196,6.10212054 8.82254464,5.34458705 C8.88532366,4.58705357 9.0108817,3.86300223 9.19503348,3.17243304 C9.37918527,2.48186384 9.78515625,1.84151786 10.4129464,1.25976562 C10.7352121,0.979352679 11.1704799,0.744977679 11.7103795,0.560825893 C12.250279,0.376674107 12.8027344,0.242745536 13.3635603,0.154854911 C13.9243862,0.0669642857 14.4601004,0.0251116071 14.9707031,0.0251116071 Z M15.3515625,17.3646763 C14.8074777,17.3646763 14.1629464,17.4944196 14.1378348,17.5027902 C14.0290179,17.5237165 13.953683,17.6325335 13.9787946,17.7413504 C13.9871652,17.7873884 14.1964286,18.8378906 14.8074777,19.5075335 C14.6191406,20.1269531 13.7611607,22.96875 13.5602679,24.6763393 C13.5518973,24.7307478 13.5686384,24.7893415 13.6063058,24.8311942 C13.6272321,24.8563058 14.1755022,25.5050223 15.2260045,26.141183 C15.2762277,26.1704799 15.3348214,26.1788504 15.3892299,26.1621094 C15.4143415,26.1579241 15.4352679,26.1495536 15.4561942,26.1369978 C15.4729353,26.1286272 15.4854911,26.1160714 15.4980469,26.1035156 C16.6155134,25.4757254 17.0800781,24.8521205 17.1010045,24.8228237 C17.1303013,24.780971 17.1428571,24.7307478 17.1386719,24.6805246 C16.9335937,22.9729353 16.0797991,20.1269531 15.8872768,19.5075335 C16.4983259,18.8420759 16.7117746,17.7873884 16.7201451,17.7413504 C16.7410714,17.6325335 16.6699219,17.5237165 16.5611049,17.5027902 C16.5359933,17.4986049 15.8956473,17.3646763 15.3515625,17.3646763 Z"/>
    </g>
  </g>
</svg>
