<svg xmlns="http://www.w3.org/2000/svg" width="48" height="48" viewBox="0 0 48 48">
  <defs>
    <linearGradient id="icon-safe-a" x1="50%" x2="50%" y1="0%" y2="100%">
      <stop offset="0%" stop-color="#42E9D6"/>
      <stop offset="100%" stop-color="#21D4B5"/>
    </linearGradient>
    <linearGradient id="icon-safe-b" x1="50%" x2="50%" y1="0%" y2="100%">
      <stop offset="0%" stop-color="#30D6C5"/>
      <stop offset="100%" stop-color="#1DC4A7"/>
    </linearGradient>
  </defs>
  <g fill="none" fill-rule="evenodd">
    <circle cx="24" cy="24" r="24" fill="#BFCAF9" fill-opacity=".2"/>
    <g fill-rule="nonzero" transform="translate(11 8)">
      <path fill="url(#icon-safe-a)" d="M13,0 C8.11487752,5.1665 0,4 0,4 L0,18 C0,26.25 13,31.3474121 13,31.3474121 C13,31.3474121 26,26.25 26,18 L26,4 C26,4 17.8851225,5.1665 13,0 Z"/>
      <path fill="url(#icon-safe-b)" d="M13,3.99365234 C9.45333333,7.6932589 3.05877333,6.90880874 3.05877333,6.90880874 L3.05877333,16.9332896 C3.05877333,22.8398907 13,27.9772949 13,27.9772949 C13,27.9772949 22.9924316,22.8403934 22.9924316,16.9332896 L22.9924316,6.90880874 C22.9924316,6.90880874 16.5466667,7.6932589 13,3.99365234 Z"/>
      <path fill="#FFF" d="M16,13 L15.0276454,13 L15.0276454,13.2072515 C15.028122,11.9949551 14.120591,11.0112868 13.0009533,11.0107707 C11.8813155,11.0102546 10.9728313,11.9928908 10.9723546,13.2051872 L10.9723546,13 L10,13 L10,13.2072515 C10.0209724,11.4133212 11.3808389,9.97755771 13.0376549,10.0002657 C14.664919,10.0224576 15.9790276,11.4453189 15.9995234,13.2072515 L16,13 Z"/>
      <rect width="8" height="6" x="9" y="13" fill="#415E72"/>
      <path fill="#FFF" d="M13,14.5402832 C13.5304533,14.5402832 13.9604706,14.9319061 13.9604706,15.4149975 C13.9604706,15.764288 13.7356681,16.0657611 13.4106395,16.2059634 L13.4098824,17.4841403 L12.5905882,17.4841403 L12.5903438,16.2063869 C12.2647853,16.0663689 12.0395294,15.7646401 12.0395294,15.4149975 C12.0395294,14.9319061 12.4695467,14.5402832 13,14.5402832 Z"/>
    </g>
  </g>
</svg>
