<svg xmlns="http://www.w3.org/2000/svg" width="32" height="32" viewBox="0 0 32 32">
  <g fill="none">
    <path fill="#FF6243" d="M32,22.8571429 L31.5464693,22.8571429 C31.0455788,22.8571429 30.639408,22.3456102 30.639408,21.7142225 L30.639408,20.0000948 C30.639408,19.6845274 30.4365233,19.4286347 30.1858774,19.4286347 L29.7142857,19.4286347 L29.7142857,18.2857143 L30.1858774,18.2857143 C30.9374138,18.2857143 31.5464693,19.0533927 31.5464693,20.0000948 L31.5464693,21.7142225 L32,21.7142225 L32,22.8571429 Z"/>
    <path fill="#FFB655" d="M22.8742999,9.39408277 C22.0892757,11.7327795 19.5873763,12.9815694 17.2863593,12.1836902 C15.5314991,11.5748866 14.3400836,9.91379316 14.306725,8.02947179 C13.6193418,8.09579668 12.9360981,8.20048121 12.2599157,8.34278288 C11.5474526,6.74380726 9.98105667,5.71577057 8.2539547,5.71428571 L8.2539547,9.77446126 C6.10463448,10.8334331 4.32907728,12.5403105 3.16955951,14.6624613 L0.550296115,14.6624613 C0.246415782,14.6624613 0,14.9129122 0,15.2217686 L0,21.9329622 C0,22.2420662 0.246415782,22.4922696 0.550296115,22.4922696 L3.16955951,22.4922696 C4.22096601,24.4255922 5.79393632,26.0129363 7.70365865,27.0672059 L7.70365865,31.4406926 C7.70365865,31.7495491 7.95007437,32 8.2539547,32 L11.5554879,32 C11.8593682,32 12.105784,31.7495491 12.105784,31.4406926 L12.105784,28.7730934 C13.3704911,29.0579442 14.6619826,29.2022257 15.9576133,29.2037106 C18.4244496,29.2200444 20.865232,28.6914247 23.1109758,27.6544787 L23.1109758,31.4406926 C23.1109758,31.7495491 23.3573917,32 23.661272,32 L26.9628051,32 C27.266929,32 27.5131013,31.7495491 27.5131013,31.4406926 L27.5131013,24.3379839 C28.9051557,22.74965 29.6865274,20.7042183 29.7142857,18.5773654 C29.7142857,14.6570167 26.9628051,11.2341051 22.8742999,9.39408277 L22.8742999,9.39408277 Z"/>
    <path fill="#FFDE55" d="M18.2855853,3.42857143 C15.7609778,3.42857143 13.7142857,5.47571765 13.7142857,8.00113837 L13.7142857,8.08106161 C13.7595486,10.6059765 15.8426533,12.6161962 18.3670079,12.5706703 C20.2923246,12.536273 21.9895568,11.2984754 22.6116055,9.47567048 C22.7749565,9.00144274 22.8578963,8.50293454 22.8571429,8.00113837 C22.8571429,5.47571765 20.8104457,3.42857143 18.2855853,3.42857143 L18.2855853,3.42857143 Z"/>
    <path fill="#FF6243" d="M8.00012645 16C6.73785688 16 5.71428571 14.9766251 5.71428571 13.7142857L6.85720608 13.7142857C6.85720608 14.3454554 7.36899167 14.8570164 8.00012645 14.8570164 8.63126124 14.8570164 9.14304682 14.3454554 9.14304682 13.7142857L10.2857143 13.7142857C10.2857143 14.9766251 9.26239603 16 8.00012645 16zM18.8570164 7.42852931C18.5414432 7.42852931 18.2855457 7.17263174 18.2855457 6.85705853 18.2855457 6.54148532 18.5414432 6.28558788 18.8570164 6.28558788 19.1725896 6.28558788 19.4284871 6.54148532 19.4284871 6.85705853L20.5714286 6.85705853C20.5683942 6.13311138 20.1109647 5.48906892 19.4284871 5.24783751L19.4284871 4.57142857 18.2855457 4.57142857 18.2855457 5.24783751C17.3947088 5.56164067 16.926912 6.53845103 17.2407152 7.42928786 17.4821995 8.11479987 18.1302877 8.57273505 18.8570164 8.57147075 19.1725896 8.57147075 19.4284871 8.82736819 19.4284871 9.1429414 19.4284871 9.45851461 19.1725896 9.71441219 18.8570164 9.71441219 18.5414432 9.71441219 18.2855457 9.45851461 18.2855457 9.1429414L17.1428571 9.1429414C17.1456387 9.86688862 17.6030681 10.5106782 18.2855457 10.7521626L18.2855457 11.4285714 19.4284871 11.4285714 19.4284871 10.7519096C20.319324 10.4381065 20.7871208 9.46154904 20.4735705 8.57071214 20.2320862 7.88520013 19.5837451 7.42726495 18.8570164 7.42852931L18.8570164 7.42852931z"/>
    <polygon fill="#FF7956" points="13.714 12.571 24 12.571 24 13.714 13.714 13.714"/>
    <g fill="#FF6243" transform="translate(11.429)">
      <polygon points="13.545 1.604 14.626 1.604 14.626 2.672 13.545 2.672"/>
      <polygon points="14.626 2.672 15.707 2.672 15.707 3.741 14.626 3.741"/>
      <polygon points="12.464 2.672 13.545 2.672 13.545 3.741 12.464 3.741"/>
      <polygon points="13.545 3.741 14.626 3.741 14.626 4.811 13.545 4.811"/>
      <polygon points="18.409 5.879 19.49 5.879 19.49 6.948 18.409 6.948"/>
      <polygon points="19.49 6.948 20.571 6.948 20.571 8.018 19.49 8.018"/>
      <polygon points="17.329 6.948 18.409 6.948 18.409 8.018 17.329 8.018"/>
      <polygon points="18.409 8.018 19.49 8.018 19.49 9.087 18.409 9.087"/>
      <polygon points="1.115 0 2.196 0 2.196 1.069 1.115 1.069"/>
      <polygon points="2.196 1.069 3.276 1.069 3.276 2.138 2.196 2.138"/>
      <polygon points=".034 1.069 1.115 1.069 1.115 2.138 .034 2.138"/>
      <polygon points="1.115 2.138 2.196 2.138 2.196 3.207 1.115 3.207"/>
    </g>
  </g>
</svg>
