<svg xmlns="http://www.w3.org/2000/svg" width="32" height="32" viewBox="0 0 32 32">
  <g fill="none">
    <path fill="#576177" d="M32,19.2 L0,19.2 L0,1.09714286 C0,0.493714286 0.496551724,0 1.10344828,0 L30.8965517,0 C31.5034483,0 32,0.493714286 32,1.09714286 L32,19.2 Z"/>
    <path fill="#E6E6E6" d="M32 0L0 0 0 3.33913043C0 3.95130435.496551724 4.45217391 1.10344828 4.45217391L30.8965517 4.45217391C31.5034483 4.45217391 32 3.95130435 32 3.33913043L32 0zM24.5793103 11.186087L24.5793103 11.186087C24.3931034 10.8104348 24.0068966 10.573913 23.5931034 10.573913L20.9655172 10.573913 19.862069 4.45217391 12.137931 4.45217391 11.0344828 10.573913 8.40689655 10.573913C7.9862069 10.573913 7.60689655 10.8104348 7.42068966 11.186087L7.42068966 11.186087C7.05517241 11.9234783 7.5862069 12.8 8.40689655 12.8L23.5931034 12.8C24.4137931 12.8 24.9448276 11.9304348 24.5793103 11.186087z" transform="translate(0 19.2)"/>
    <rect width="3.2" height="1.067" x="14.933" y="20.267" fill="#FFF"/>
    <polygon fill="#D6D6D6" points="20.057 23.467 11.943 23.467 11.733 24.533 20.267 24.533"/>
    <g fill="#FFF" transform="translate(13.867 1.067)">
      <polygon points="2.808 .02 1.858 .793 2.725 1.492 .333 1.492 .333 2.576 2.725 2.576 1.858 3.275 2.808 4.047 5.275 2.034"/>
      <polygon points="5 13.424 2.608 13.424 3.475 12.725 2.525 11.953 .058 13.966 2.525 15.98 3.475 15.207 2.608 14.508 5 14.508"/>
    </g>
    <path fill="#E65039" d="M28.8,14.9333333 L21.3333333,14.9333333 C20.7466667,14.9333333 20.2666667,14.4053333 20.2666667,13.76 L20.2666667,4.37333333 C20.2666667,3.728 20.7466667,3.2 21.3333333,3.2 L28.8,3.2 C29.3866667,3.2 29.8666667,3.728 29.8666667,4.37333333 L29.8666667,13.76 C29.8666667,14.4053333 29.3866667,14.9333333 28.8,14.9333333 Z"/>
    <g fill="#AD3C2B" transform="translate(21.333 5.333)">
      <path d="M1.06666667 5.08235294L0 5.08235294 0 1.12941176.533333333 1.12941176C.826666667 1.12941176 1.06666667.875294118 1.06666667.564705882L1.06666667 0 3.73333333 0 3.73333333 1.12941176 2.04 1.12941176C1.88 1.60941176 1.52 1.99058824 1.06666667 2.16L1.06666667 5.08235294zM6.4 5.08235294L5.33333333 5.08235294 5.33333333 2.16C4.88 1.99058824 4.52 1.60941176 4.36 1.12941176L3.73333333 1.12941176 3.73333333 0 5.33333333 0 5.33333333.564705882C5.33333333.875294118 5.57333333 1.12941176 5.86666667 1.12941176L6.4 1.12941176 6.4 5.08235294zM5.33333333 9.6L1.06666667 9.6 1.06666667 9.03529412C1.06666667 7.78588235 2.02 6.77647059 3.2 6.77647059L3.2 6.77647059C4.38 6.77647059 5.33333333 7.78588235 5.33333333 9.03529412L5.33333333 9.6z"/>
      <rect width="1.067" height="2.259" x="2.667" y="2.824"/>
    </g>
    <path fill="#FCB641" d="M8,14.9333333 L8,14.9333333 C4.77333333,14.9333333 2.13333333,12.2933333 2.13333333,9.06666667 L2.13333333,9.06666667 C2.13333333,5.84 4.77333333,3.2 8,3.2 L8,3.2 C11.2266667,3.2 13.8666667,5.84 13.8666667,9.06666667 L13.8666667,9.06666667 C13.8666667,12.2933333 11.2266667,14.9333333 8,14.9333333 Z"/>
    <path fill="#FDD38D" d="M8.53333333,13.8666667 L8.53333333,13.8666667 C6.18666667,13.8666667 4.26666667,11.9466667 4.26666667,9.6 L4.26666667,9.6 C4.26666667,7.25333333 6.18666667,5.33333333 8.53333333,5.33333333 L8.53333333,5.33333333 C10.88,5.33333333 12.8,7.25333333 12.8,9.6 L12.8,9.6 C12.8,11.9466667 10.88,13.8666667 8.53333333,13.8666667 Z"/>
    <path fill="#FCB641" d="M8.53333333,12.8 L8.53333333,12.8 C6.77333333,12.8 5.33333333,11.36 5.33333333,9.6 L5.33333333,9.6 C5.33333333,7.84 6.77333333,6.4 8.53333333,6.4 L8.53333333,6.4 C10.2933333,6.4 11.7333333,7.84 11.7333333,9.6 L11.7333333,9.6 C11.7333333,11.36 10.2933333,12.8 8.53333333,12.8 Z"/>
    <rect width="1.067" height="1.067" x="8.533" y="7.467" fill="#FDD38D"/>
  </g>
</svg>
