<svg xmlns="http://www.w3.org/2000/svg" width="32" height="32" viewBox="0 0 32 32">
  <g fill="none" fill-rule="evenodd">
    <g fill-rule="nonzero">
      <polygon fill="#BCAAA4" points="32 23.467 32 11.546 16 4.267 0 11.546 0 23.467"/>
      <path fill="#F4A60B" d="M28.8,12.2666667 C28.8,19.0413845 23.3080512,24.5333333 16.5333333,24.5333333 C9.75861548,24.5333333 4.26666667,19.0413845 4.26666667,12.2666667 C4.26666667,5.49194882 9.75861548,0 16.5333333,0 C23.3080512,0 28.8,5.49194882 28.8,12.2666667 Z"/>
      <path fill="#FFC32C" d="M26.6666667,12.2666667 C26.6666667,17.8632552 22.1299219,22.4 16.5333333,22.4 C10.9367448,22.4 6.4,17.8632552 6.4,12.2666667 C6.4,6.67007809 10.9367448,2.13333333 16.5333333,2.13333333 C22.1299219,2.13333333 26.6666667,6.67007809 26.6666667,12.2666667 Z"/>
      <path fill="#EEE" d="M16,22.9529258 L0,12.8 L0,29.9895391 C0,31.0998083 0.895507812,32 2,32 L30,32 C31.1044922,32 32,31.0998083 32,29.9895391 L32,12.8 L16,22.9529258 Z"/>
      <path fill="#E0E0E0" d="M12.134804 1.14950003L1.44313725 12.79225C.746323514 12.61325.197794133 12.0655.0075980549 11.35875L10.3980392.043500032 12.134804 1.14950003zM31.9924019 11.35875C31.8022059 12.0655 31.2536765 12.61325 30.5568627 12.79225L19.865196 1.14950003 21.6019608.043500032 31.9924019 11.35875z" transform="translate(0 19.2)"/>
    </g>
    <text fill="#FFF" font-family="PingFangSC-Semibold, PingFang SC" font-size="14" font-weight="500">
      <tspan x="12.8" y="17.8">¥</tspan>
    </text>
  </g>
</svg>
