<svg xmlns="http://www.w3.org/2000/svg" width="32" height="32" viewBox="0 0 32 32">
  <g fill="none" transform="translate(0 .615)">
    <path fill="#FFD551" d="M20.0373832,0 L11.9626168,0 C5.35585387,0 0,5.40617855 0,12.07502 L0,12.678771 C0,19.1921465 5.10966865,24.4980201 11.5032795,24.7421276 C11.3345794,26.3996985 10.6860153,28.4750926 8.65277825,29.6344317 C8.11446049,29.9413842 8.31483432,30.7681115 8.93308411,30.7692308 C11.6658624,30.7744234 15.6544435,29.8380605 17.3007986,24.753791 L20.0373832,24.753791 C26.6441461,24.753791 32,19.3476124 32,12.678771 L32,12.07502 C32,5.40617855 26.6441461,0 20.0373832,0 Z"/>
    <path fill="#FFDF74" d="M20.1216458,24.6153846 C19.8845081,24.6153846 19.6923077,24.4231843 19.6923077,24.1860465 C19.6923077,23.9489088 19.8845081,23.7567084 20.1216458,23.7567084 C26.1979249,23.7567084 31.1413238,18.8133095 31.1413238,12.7370304 C31.1413238,12.4998927 31.3335242,12.3076923 31.5706619,12.3076923 C31.8077996,12.3076923 32,12.4998927 32,12.7370304 C32,19.2868694 26.6714848,24.6153846 20.1216458,24.6153846 Z"/>
    <path fill="#FF624B" d="M16.5400156,2.46153846 C20.616285,2.46153846 23.3846154,4.78300603 23.3846154,8.60330533 C23.3846154,12.4578984 20.7519889,14.3034015 17.103158,14.5419369 C16.6254747,14.5731885 16.2467063,14.9433677 16.2225144,15.4052274 L16.1900199,16.02376 C16.1645396,16.5092659 15.749698,16.890231 15.2463913,16.890231 L14.0481032,16.890231 C13.5380685,16.890231 13.1200777,16.4991713 13.1037588,16.0066131 L13.0118581,13.2183076 C12.9948236,12.7030713 13.4225484,12.2766115 13.9562025,12.2766115 L13.9846888,12.2766115 C17.4222339,12.2766115 20.0688888,11.6887775 20.0688888,8.60330533 C20.0688888,6.54623173 18.7608066,5.28261661 16.5706492,5.28261661 C14.6823899,5.28261661 13.3986428,6.18103064 13.1056197,7.78149917 C13.0271749,8.20989485 12.6296542,8.5152201 12.179312,8.5152201 L10.7932143,8.5152201 C10.2254912,8.5152201 9.7757216,8.03372438 9.85531163,7.49083174 C10.2953472,4.48888157 12.8127399,2.46153846 16.5400156,2.46153846 Z M14.5930659,23.3846154 C12.9109391,23.3846154 11.7268226,21.6740749 12.7571986,19.9111258 C12.8312059,19.78446 12.934129,19.6746646 13.0579516,19.5921106 C14.8717741,18.3821487 16.7833664,19.5511794 16.7833664,21.2394566 C16.7833664,22.4443021 15.80982,23.3846154 14.5930659,23.3846154 Z"/>
    <path fill="#F9BB32" d="M12.7536,29.6342988 C14.7478667,28.4749649 15.384,26.3994429 15.5494667,24.7418794 C9.2784,24.4979102 4.26666667,19.1920605 4.26666667,12.6787141 L4.26666667,12.0749658 C4.26666667,5.40615431 9.51986667,0 16,0 L11.7333333,0 C5.2532,0 0,5.40615431 0,12.0749658 L0,12.6787141 C0,19.1920605 5.01173333,24.4979102 11.2828,24.7420166 C11.1173333,26.3995801 10.4812,28.4751021 8.48693333,29.634436 C7.95893333,29.9413872 8.15546667,30.7679735 8.76186667,30.7692308 C9.86653333,30.7714038 11.1802667,30.6125083 12.4562667,30.0703698 C12.4817333,29.9003597 12.5756,29.7377593 12.7536,29.6342988 Z"/>
    <circle cx="8.615" cy="18.462" r="1.231" fill="#F9BB32"/>
    <circle cx="7.385" cy="14.769" r="1.231" fill="#F9BB32"/>
  </g>
</svg>
