<svg xmlns="http://www.w3.org/2000/svg" width="32" height="32" viewBox="0 0 32 32">
  <g fill="none">
    <path fill="#FF6D8C" d="M27.2,19.7019608 C27.648,18.1333333 27.712,17.8196078 28.224,16.1254902 L17.856,7.65490196 L7.488,16.0627451 C8,17.8196078 8.064,18.1333333 8.512,19.6392157 L27.2,19.6392157 L27.2,19.7019608 Z"/>
    <path fill="#FF9566" d="M17.856,0.250980392 C15.104,2.94901961 13.568,6.58823529 13.568,10.4156863 L13.568,20.8313725 L22.144,20.8313725 L22.144,10.4156863 C22.144,6.58823529 20.608,2.94901961 17.856,0.250980392 Z"/>
    <ellipse cx="17.856" cy="10.855" fill="#FFB44A" rx="2.304" ry="2.259"/>
    <path fill="#FFB44A" d="M31.872 2.13333333C31.808 1.88235294 31.488 1.69411765 31.232 1.75686275 30.144 2.07058824 29.248 2.94901961 28.992 4.01568627 28.928 4.01568627 28.864 4.01568627 28.8 4.01568627 27.712 4.01568627 26.816 4.76862745 26.56 5.70980392L24.96 5.70980392C24.64 5.70980392 24.448 5.96078431 24.448 6.21176471 24.448 6.5254902 24.704 6.71372549 24.96 6.71372549L27.008 6.71372549C27.264 6.77647059 27.52 6.5254902 27.52 6.2745098 27.52 5.58431373 28.096 5.08235294 28.736 5.08235294 28.736 5.08235294 28.8 5.08235294 28.8 5.08235294 28.8 5.27058824 28.864 5.45882353 28.864 5.70980392 28.928 5.96078431 29.12 6.08627451 29.376 6.08627451 29.44 6.08627451 29.44 6.08627451 29.504 6.08627451 29.76 6.02352941 29.952 5.70980392 29.888 5.45882353 29.824 5.27058824 29.824 5.14509804 29.824 4.95686275 29.824 4.89411765 29.824 4.83137255 29.824 4.76862745 29.888 3.89019608 30.592 3.0745098 31.424 2.82352941 31.808 2.69803922 31.936 2.38431373 31.872 2.13333333zM10.624 9.91372549L9.024 9.91372549C9.088 9.7254902 9.088 9.5372549 9.088 9.34901961 9.088 7.84313725 7.872 6.65098039 6.336 6.65098039 5.12 6.65098039 4.096 7.40392157 3.712 8.53333333 3.712 8.53333333 3.648 8.53333333 3.648 8.53333333 2.752 8.53333333 2.048 9.09803922 1.792 9.91372549L.64 9.91372549C.32 9.91372549.128 10.1647059.128 10.4156863.128 10.7294118.384 10.9176471.64 10.9176471L2.24 10.9176471C2.56 10.9176471 2.752 10.6666667 2.752 10.4156863 2.752 9.97647059 3.136 9.6 3.584 9.6 3.584 9.7254902 3.584 9.85098039 3.648 9.97647059 3.712 10.227451 4.032 10.4156863 4.288 10.3529412 4.544 10.2901961 4.736 9.97647059 4.672 9.7254902 4.672 9.6 4.608 9.4745098 4.608 9.34901961 4.608 9.28627451 4.608 9.22352941 4.608 9.16078431 4.672 8.28235294 5.44 7.65490196 6.272 7.65490196 7.232 7.65490196 7.936 8.40784314 7.936 9.28627451 7.936 9.6 7.872 9.85098039 7.744 10.1019608 7.744 10.1019608 7.744 10.1019608 7.744 10.1019608 7.744 10.1019608 7.744 10.1647059 7.744 10.1647059 7.744 10.1647059 7.744 10.1647059 7.744 10.227451 7.744 10.227451 7.744 10.2901961 7.744 10.2901961 7.744 10.2901961 7.744 10.3529412 7.744 10.3529412 7.744 10.3529412 7.744 10.3529412 7.744 10.3529412 7.744 10.3529412 7.744 10.3529412 7.744 10.3529412 7.744 10.3529412 7.744 10.4156863 7.744 10.4156863 7.744 10.4156863 7.744 10.4784314 7.744 10.4784314 7.744 10.4784314 7.744 10.5411765 7.744 10.5411765 7.744 10.5411765 7.744 10.6039216 7.744 10.6039216 7.744 10.6039216 7.744 10.6039216 7.744 10.6666667 7.744 10.6666667 7.744 10.6666667 7.744 10.7294118 7.744 10.7294118 7.744 10.7294118 7.808 10.7921569 7.808 10.7921569 7.808 10.7921569 7.872 10.854902 7.872 10.854902 7.872 10.854902 7.936 10.854902 7.936 10.854902 7.936 10.854902 8 10.9176471 8 10.9176471 8 10.9176471 8 10.9176471 8 10.9176471 8 10.9176471 8 10.9176471 8 10.9176471 8.064 10.9176471 8.064 10.9803922 8.064 10.9803922 8.064 10.9803922 8.128 10.9803922 8.192 10.9803922 8.192 10.9803922 8.256 10.9803922 8.256 10.9803922 8.256 10.9803922 8.256 10.9803922 8.256 10.9803922 8.256 10.9803922 8.256 10.9803922L10.624 10.9803922C10.944 10.9803922 11.136 10.7294118 11.136 10.4784314 11.136 10.1647059 10.944 9.91372549 10.624 9.91372549z"/>
    <path fill="#E91C41" d="M29.834055,32 L5.78171352,32 C4.83724985,32 4.33353589,30.699187 5.15207107,30.1138211 L5.15207107,30.1138211 C5.02614258,29.7235772 5.08910683,29.2682927 5.27799956,28.8130081 C5.52985654,28.2276423 6.0335705,27.8373984 6.6002487,27.7073171 C6.78914144,26.601626 7.73360511,25.7560976 8.80399727,25.7560976 C9.49660396,25.7560976 10.1262464,26.0813008 10.5040319,26.601626 C10.8188531,26.3414634 11.2596028,26.2113821 11.7003525,26.2113821 C12.7707447,26.2113821 13.6522441,26.9918699 13.8411369,28.0325203 C14.1559581,27.8373984 14.5967078,27.7723577 14.9744933,27.7723577 C15.415243,27.7723577 15.7930284,27.902439 16.1708139,28.0325203 L16.1708139,21.3333333 L19.3190261,21.3333333 L19.3190261,28.0325203 C19.6968116,27.8373984 20.0745971,27.7723577 20.5153468,27.7723577 C20.8931323,27.7723577 21.2709177,27.8373984 21.6487032,28.0325203 C21.8375959,26.9918699 22.7190954,26.2113821 23.7894875,26.2113821 C24.2302372,26.2113821 24.670987,26.3414634 24.9858082,26.601626 C25.4265579,26.0813008 25.9932361,25.7560976 26.6858428,25.7560976 C27.8191992,25.7560976 28.7636629,26.601626 28.8895914,27.7073171 C29.4562696,27.8373984 29.9599835,28.2276423 30.2118405,28.8130081 C30.4007332,29.203252 30.4636975,29.7235772 30.337769,30.1138211 C30.337769,30.1138211 30.337769,30.1138211 30.337769,30.1138211 C31.2192684,30.699187 30.7785187,32 29.834055,32 Z"/>
  </g>
</svg>
