<?xml version="1.0" encoding="UTF-8"?>
<svg width="23px" height="22px" viewBox="0 0 23 22" version="1.1" xmlns="http://www.w3.org/2000/svg" xmlns:xlink="http://www.w3.org/1999/xlink">
    <!-- Generator: Sketch 56.2 (81672) - https://sketch.com -->
    <title>合并形状</title>
    <desc>Created with Sketch.</desc>
    <g id="Symbols" stroke="none" stroke-width="1" fill="none" fill-rule="evenodd">
        <g id="ZB.COM/Icon/Title_32/exchange" transform="translate(-4.000000, -5.000000)" fill="#FFFFFF">
            <path d="M19.4954071,27 C15.3545829,27 11.9977816,23.6421356 11.9977816,19.5 C11.9977816,15.3578644 15.3545829,12 19.4954071,12 C23.6362313,12 26.9930326,15.3578644 26.9930326,19.5 C26.9930326,23.6421356 23.6362313,27 19.4954071,27 Z M19.4954071,25 C22.5320115,25 24.9936658,22.5375661 24.9936658,19.5 C24.9936658,16.4624339 22.5320115,14 19.4954071,14 C16.4588026,14 13.9971484,16.4624339 13.9971484,19.5 C13.9971484,22.5375661 16.4588026,25 19.4954071,25 Z M10.4190985,16.7668689 C10.9426864,16.9420844 11.225143,17.5087109 11.049983,18.0324647 C10.874823,18.5562184 10.3083758,18.8387645 9.78478793,18.663549 C6.94928363,17.7146648 4.99999779,15.050571 4.99999779,12.0122529 C4.99999779,8.13949255 8.13849637,5 12.0100306,5 C14.9637659,5 17.5698612,6.84439636 18.5824322,9.56874037 C18.774835,10.0864045 18.5112916,10.6620769 17.9937914,10.8545407 C17.4762911,11.0470045 16.900801,10.7833776 16.7083981,10.2657135 C15.984699,8.3185854 14.1215641,7 12.0100306,7 C9.24271616,7 6.99936459,9.24406205 6.99936459,12.0122529 C6.99936459,14.1841164 8.39304466,16.0888624 10.4190985,16.7668689 Z M21.9504307,6.91160221 C21.4227234,6.91160221 20.9949322,6.48367548 20.9949322,5.9558011 C20.9949322,5.42792673 21.4227234,5 21.9504307,5 L26.0375341,5 C26.5652413,5 26.9930326,5.42792673 26.9930326,5.9558011 L26.9930326,10.0441989 C26.9930326,10.5720733 26.5652413,11 26.0375341,11 C25.5098268,11 25.0820356,10.5720733 25.0820356,10.0441989 L25.0820356,6.91160221 L21.9504307,6.91160221 Z M10.0356344,25.0797614 C10.5633417,25.0797614 10.9911329,25.5100655 10.9911329,26.0408725 C10.9911329,26.5716795 10.5633417,27.0019836 10.0356344,27.0019836 L5.94853105,27.0019836 C5.4208238,27.0019836 4.99303255,26.5716795 4.99303255,26.0408725 L4.99999779,21.9611111 C4.99999779,21.4303041 5.42778904,21 5.95549629,21 C6.48320354,21 6.91099479,21.4303041 6.91099479,21.9611111 L6.90402954,25.0797614 L10.0356344,25.0797614 Z" id="合并形状"></path>
        </g>
    </g>
</svg>