<svg xmlns="http://www.w3.org/2000/svg" width="32" height="32" viewBox="0 0 32 32">
  <g fill="none">
    <path fill="#FEC108" d="M15.8228366,27.482957 C15.6220817,27.307086 15.3221656,27.307086 15.1214108,27.482957 L11.214643,30.901714 L19.7296043,30.901714 L15.8228366,27.482957 Z"/>
    <path fill="#AD1457" d="M12.2790366 22.1207011C12.2790366 25.5007914 9.53894194 28.2408792 6.15891398 28.2408792 5.89192688 28.2420086 5.62512688 28.2242344 5.36063441 28.1876258 2.31856559 27.7838086.0458387097 25.1894624.0458387097 22.1207011.0458387097 19.0519398 2.31856559 16.4575935 5.36063441 16.0537763 5.62512688 16.0171677 5.89192688 15.9993935 6.15891398 16.0005229 7.78210323 16.0005229 9.33874839 16.6453763 10.4865247 17.7931527 11.6342387 18.9408043 12.2790366 20.4975118 12.2790366 22.1207011zM30.9055183 6.15510968C30.9055183 9.5352 28.1654237 12.2752878 24.7853957 12.2752878 24.5184086 12.2764172 24.2516086 12.258643 23.9871161 12.2220344 20.9450473 11.8182172 18.6723204 9.22387097 18.6723204 6.15510968 18.6723204 3.08634839 20.9450473.492002151 23.9871161.0881849462 24.2516086.0515763441 24.5184086.0338021505 24.7853957.0349315486 28.165486.0349315486 30.9055183 2.77501935 30.9055183 6.15510968z"/>
    <g transform="translate(1.067 .062)">
      <ellipse cx="5.361" cy="22.058" fill="#FFC32C" rx="5.322" ry="6.067"/>
      <ellipse cx="22.92" cy="6.093" fill="#E91C41" rx="5.322" ry="6.067"/>
    </g>
    <path fill="#000" d="M16.3750799 27.3301832C16.1813333 27.109115 15.845115 27.0869708 15.6239844 27.280655L11.365614 31.0066901C11.1990019 31.1527173 11.1403041 31.3866979 11.218152 31.5941053 11.2960624 31.8015127 11.4943002 31.9389942 11.7158674 31.9392437L20.2325458 31.9392437C20.4541131 31.9389942 20.6523509 31.8015127 20.7302612 31.5941053 20.8081715 31.3866979 20.7494113 31.1527173 20.5827992 31.0066901L18.4536452 29.1436413C18.3134191 29.0027914 18.106386 28.9518285 17.9168187 29.0113996 17.7272515 29.0709708 17.5866511 29.2312827 17.5522183 29.4270253 17.5177856 29.622768 17.5952593 29.8213801 17.7531384 29.9420819L18.8177466 30.8725146 13.1322885 30.8725146 16.3260507 28.0790331C16.5456218 27.8854113 16.5675166 27.5508148 16.3750799 27.3301832zM5.26665107 29.1287953L.356241715 30.9066355C.175469786 30.9700117.0426666667 31.1255828.00854580897 31.3140897-.0255750487 31.5025965.0441637427 31.694846.191189084 31.8176062.338214425 31.9403665.539883041 31.9746121.719282651 31.9073684L31.5922963 20.7292008C31.8654503 20.6267135 32.0051774 20.3235556 31.9056842 20.0492788 31.806191 19.7750643 31.5045302 19.6319688 31.2292554 19.7284678L11.8819805 26.7334737C13.7148382 24.4000936 13.7795244 21.1345965 12.0406082 18.7304172 10.301692 16.3262378 7.18010136 15.3653645 4.39017544 16.3755789 1.60024951 17.3857934-.18245614 20.122386.0209590643 23.0825419.224436647 26.0426979 2.36481871 28.5097544 5.26665107 29.1287953zM6.65911891 17.0351033C9.74590253 17.0351033 12.2482027 19.5374035 12.2482027 22.6241871 12.2482027 25.7109708 9.74590253 28.213271 6.65911891 28.213271 3.57233528 28.213271 1.07003509 25.7109708 1.07003509 22.6241871 1.07359064 19.5388382 3.57383236 17.0385965 6.65911891 17.0351033zM19.1680624 14.373614C19.4620507 14.373614 19.7003353 14.1352671 19.7003353 13.8413411L19.7003353 10.2526004C20.2456452 11.0953294 20.9732865 11.8047563 21.8294893 12.3285458L21.8294893 14.9058869C21.8294893 15.1998752 22.0678363 15.4381598 22.3617622 15.4381598 22.6556881 15.4381598 22.8940351 15.1998129 22.8940351 14.9058869L22.8940351 12.8555166C24.433653 13.4602105 26.1450604 13.4602105 27.6846784 12.8555166L27.6846784 14.9058869C27.6846784 15.1998752 27.922963 15.4381598 28.2169513 15.4381598 28.5109396 15.4381598 28.7492242 15.1998129 28.7492242 14.9058869L28.7492242 12.3279844C29.6054893 11.8041949 30.3330682 11.094768 30.8783782 10.252039L30.8783782 13.8412788C30.8783782 14.1352671 31.1167251 14.3735517 31.4106511 14.3735517 31.7046394 14.3735517 31.942924 14.1352047 31.942924 13.8412788L31.942924 6.38920858C31.9396179 6.35889279 31.9335673 6.32895127 31.9248343 6.29975828 31.7405692 2.76959064 28.8244522.00180896686 25.2894191.00180896686 21.754386.00180896686 18.838269 2.76959064 18.6538791 6.29975828 18.6450838 6.32895127 18.6390331 6.35889279 18.6357895 6.38920858L18.6357895 13.8413411C18.6357895 14.1352671 18.8740741 14.373614 19.1680624 14.373614zM25.2894191 1.0662924C28.3762027 1.0662924 30.8785029 3.56859259 30.8785029 6.65537622 30.8785029 9.74215984 28.3762027 12.24446 25.2894191 12.24446 22.2026355 12.24446 19.7003353 9.74215984 19.7003353 6.65537622 19.7038908 3.57002729 22.2041326 1.06978558 25.2894191 1.0662924z"/>
    <path fill="#F5A623" d="M19.1680624 17.5673762C19.4620507 17.5673762 19.7003353 17.3290292 19.7003353 17.0351033L19.7003353 15.9704951C19.7003353 15.6765068 19.4620507 15.4382222 19.1680624 15.4382222 18.8740741 15.4382222 18.6357895 15.6765692 18.6357895 15.9704951L18.6357895 17.0351033C18.6357271 17.3290292 18.8740741 17.5673762 19.1680624 17.5673762zM22.3618246 16.502768C22.0678363 16.502768 21.8295517 16.741115 21.8295517 17.0350409L21.8295517 18.0996491C21.8295517 18.3936374 22.0678986 18.631922 22.3618246 18.631922 22.6557505 18.631922 22.8940975 18.3936374 22.8940975 18.0996491L22.8940975 17.0350409C22.8940975 16.741115 22.6558129 16.502768 22.3618246 16.502768zM28.2170136 16.502768C27.9230253 16.502768 27.6847407 16.741115 27.6847407 17.0350409L27.6847407 18.0996491C27.6847407 18.3936374 27.9230253 18.631922 28.2170136 18.631922 28.5110019 18.631922 28.7492866 18.3936374 28.7492866 18.0996491L28.7492866 17.0350409C28.7493489 16.741115 28.5110019 16.502768 28.2170136 16.502768zM31.4107758 15.4382222C31.1167875 15.4382222 30.8785029 15.6765692 30.8785029 15.9704951L30.8785029 17.0351033C30.8785029 17.3290916 31.1168499 17.5673762 31.4107758 17.5673762 31.7047641 17.5673762 31.9430487 17.3290292 31.9430487 17.0351033L31.9430487 15.9704951C31.9431111 15.6765068 31.7047641 15.4382222 31.4107758 15.4382222z"/>
  </g>
</svg>
