<?xml version="1.0" encoding="UTF-8"?>
<svg width="24px" height="24px" viewBox="0 0 24 24" version="1.1" xmlns="http://www.w3.org/2000/svg" xmlns:xlink="http://www.w3.org/1999/xlink">
    <!-- Generator: Sketch 56.2 (81672) - https://sketch.com -->
    <title>Combined Shape</title>
    <desc>Created with Sketch.</desc>
    <g id="Symbols" stroke="none" stroke-width="1" fill="none" fill-rule="evenodd">
        <g id="ZB.COM/Icon/Title_32/usage-Copy" transform="translate(-4.000000, -4.000000)" fill="#FFFFFF">
            <path d="M23.8747328,10.3398457 C22.336603,8.1456688 19.8441464,6.66939261 17,6.51365419 L17,4.04107378 C20.6805282,4.34471116 23.89009,6.30931596 25.8774015,9.18360439 L23.8747328,10.3398457 Z M17,25.4863458 C21.7379945,25.226905 25.5,21.3027842 25.5,16.5 L25.5,15.5 C25.5,14.2952271 25.2632753,13.1457442 24.8338022,12.0955278 L26.873784,10.9177438 C27.5963257,12.461008 28,14.1833624 28,16 C28,22.2906638 23.1595305,27.4507753 17,27.9589262 L17,25.4863458 Z M15,6.51365419 C10.2620055,6.77309504 6.5,10.6972158 6.5,15.5 L6.5,16.5 C6.5,21.3027842 10.2620055,25.226905 15,25.4863458 L15,27.9589262 C8.84046948,27.4507753 4,22.2906638 4,16 C4,9.70933623 8.84046948,4.54922468 15,4.04107378 L15,6.51365419 Z" id="Combined-Shape"></path>
        </g>
    </g>
</svg>