<svg xmlns="http://www.w3.org/2000/svg" width="32" height="32" viewBox="0 0 32 32">
  <g fill="none" transform="translate(.533)">
    <path fill="#C0C3C9" d="M28.8,10.7102821 L23.4666667,0.844643462 C23.0716049,0.0500953864 22.0839506,-0.214753972 21.3596708,0.182520066 L2.13333333,10.7102821 L18.8576132,17.0666667 L28.8,10.7102821 Z"/>
    <path fill="#E91C41" d="M30.9333333,13.563871 L30.9333333,30.1694624 C30.9333333,31.1501075 30.1435461,32 29.0904965,32 L1.84283688,32 C0.855602837,32 0,31.2154839 0,30.1694624 L0,13.563871 C0,12.5832258 0.789787234,11.7333333 1.84283688,11.7333333 L29.1563121,11.7333333 C30.1435461,11.7333333 30.9333333,12.5178495 30.9333333,13.563871 Z"/>
    <rect width="4.267" height="2.133" x="3.2" y="23.467" fill="#EBF0F4"/>
    <rect width="4.267" height="2.133" x="9.6" y="23.467" fill="#EBF0F4"/>
    <rect width="4.267" height="2.133" x="16" y="23.467" fill="#EBF0F4"/>
    <rect width="4.267" height="2.133" x="22.4" y="23.467" fill="#EBF0F4"/>
    <path fill="#E66354" d="M7.46666667,17.1333333 C7.46666667,17.6666667 7.26349206,18.1333333 6.99259259,18.4666667 C6.58624339,18.9333333 5.97671958,19.2 5.36719577,19.2 C4.21587302,19.2 3.2,18.2666667 3.2,17.0666667 C3.2,15.9333333 4.14814815,14.9333333 5.36719577,14.9333333 C6.04444444,14.9333333 6.58624339,15.2 6.99259259,15.6666667 C7.33121693,16.1333333 7.46666667,16.6666667 7.46666667,17.1333333 Z"/>
    <path fill="#FCD562" d="M10.6666667,16.99964 C10.6666667,18.1685813 9.86666667,19.2 8.83809524,19.2 C8.26666667,19.2 7.80952381,18.924955 7.46666667,18.4436263 C7.75238095,18.09982 7.86666667,17.54973 7.86666667,17.0684013 C7.86666667,16.5183113 7.6952381,16.0369826 7.46666667,15.6931763 C7.80952381,15.2118476 8.32380952,14.9368026 8.83809524,14.9368026 C9.86666667,14.8680413 10.6666667,15.8306988 10.6666667,16.99964 Z"/>
    <rect width="10.667" height="2.133" x="3.2" y="26.667" fill="#F4A60B"/>
    <polygon fill="#3A556A" points="27.733 7.899 22.358 10.667 10.667 10.667 25.046 3.2"/>
  </g>
</svg>
