<?xml version="1.0" encoding="UTF-8"?>
<svg width="32px" height="32px" viewBox="0 0 32 32" version="1.1" xmlns="http://www.w3.org/2000/svg" xmlns:xlink="http://www.w3.org/1999/xlink">
    <!-- Generator: Sketch 57.1 (83088) - https://sketch.com -->
    <title>ZB.COM/4_Assets/transfer_arrow@2x</title>
    <desc>Created with Sketch.</desc>
    <g id="ZB.COM/4_Assets/transfer_arrow" stroke="none" stroke-width="1" fill="none" fill-rule="evenodd">
        <g id="转换-(1)" transform="translate(16.000000, 16.500000) scale(1, -1) translate(-16.000000, -16.500000) translate(7.000000, 8.000000)">
            <path d="M6.33840842,2.67655553 L6.28976345,0.216867864 C6.28976345,0.216867864 6.23372846,0.0406484242 5.91156313,0.0034917699 C5.69639163,-0.0210391865 5.56442958,0.0905388421 5.51804466,0.124471531 L0.465998643,3.40047089 C0.465998643,3.40047089 -0.00807460967,3.6538854 1.46382946e-13,4.13847085 C0.00799688616,4.61201557 0.350287461,4.79940182 0.350287461,4.79940182 L5.55212484,7.80554265 C5.55212484,7.80554265 5.76830081,7.93197974 6.0577671,7.85093032 C6.41557313,7.75086131 6.42778818,7.56725737 6.42778818,7.56725737 L6.38213868,5.29412745 L11.4061851,5.20956589 C11.4061851,5.20956589 15.3600242,5.6748976 15.384275,7.14351301 C15.384275,7.14351301 15.240923,2.52634394 11.2351744,2.59402921" id="形状" fill="#CCCCCC"></path>
            <path d="M11.6465939,14.3171968 L11.6952748,16.7742909 C11.6952748,16.7742909 11.6896605,16.928753 11.9930997,16.9904587 C12.2473019,17.0422762 12.4870829,16.8661469 12.4870829,16.8661469 C12.5928032,16.7879432 17.5345371,13.5935696 17.5345371,13.5935696 C17.5345371,13.5935696 18.0081619,13.3402631 18,12.8560199 C17.9920007,12.3830515 17.6500868,12.1961336 17.6500868,12.1961336 L12.4531104,9.19310864 C12.4531104,9.19310864 12.1254384,9.0790451 11.8491737,9.14267789 C11.5505237,9.21128172 11.5573397,9.43148398 11.5573397,9.43148398 L11.6028816,11.7021284 L6.60409034,11.7864198 C6.60409034,11.7864198 2.65408975,11.3210881 2.62948027,9.8540216 C2.62948027,9.8540216 2.77283228,14.4669581 6.77492173,14.399543" id="路径" fill="#E91C41"></path>
        </g>
    </g>
</svg>