<svg xmlns="http://www.w3.org/2000/svg" width="32" height="32" viewBox="0 0 32 32">
  <g fill="none" transform="translate(2.37)">
    <polygon fill="#1E2737" points="24.889 23.704 24.136 23.704 24.136 10.8 13.628 4.465 3.124 10.8 3.124 21.779 2.37 21.779 2.37 10.348 13.628 3.556 24.889 10.348"/>
    <circle cx="13.63" cy="10.074" r="7.704" fill="#FFCF22"/>
    <path fill="#FFF" d="M13.6296615,3.96641727 C17.6063005,3.96641727 20.8779181,6.90013476 21.2897907,10.6666667 C21.3174823,10.4045107 21.3333333,10.1385133 21.3333333,9.86861223 C21.3333333,5.72820918 17.8835347,2.37037037 13.6295978,2.37037037 C9.37566094,2.37037037 5.92592593,5.72814722 5.92592593,9.86861223 C5.92592593,10.1384513 5.94177697,10.4045107 5.96946856,10.6666667 C6.38146843,6.90013476 9.65308607,3.96641727 13.6296615,3.96641727 Z"/>
    <path fill="#1E2737" d="M13.6296296,18.962963 C9.38411015,18.962963 5.92592593,15.2427925 5.92592593,10.6666341 C5.92592593,6.0904756 9.38041687,2.37037037 13.6296296,2.37037037 C17.8788424,2.37037037 21.3333333,6.0904756 21.3333333,10.6666993 C21.3333333,15.2429229 17.8752097,18.962963 13.6296296,18.962963 Z M13.6296296,3.185802 C9.79854493,3.185802 6.67935563,6.54487693 6.67935563,10.6707419 C6.67935563,14.7966068 9.79848438,18.1556817 13.6296296,18.1556817 C17.4607749,18.1556817 20.5799036,14.7966068 20.5799036,10.6707419 C20.5799036,6.54487693 17.4608354,3.185802 13.6296296,3.185802 Z"/>
    <path fill="#FFF" d="M15.6765497 7.92142787C15.2975009 8.31930582 14.7819896 8.58197108 14.141469 8.7055746L14.141469 9.21929594C14.141469 9.43564868 14.0732378 9.60941376 13.9406134 9.74462646 13.807928 9.87592804 13.6336338 9.94545891 13.421325 9.94545891 13.2090163 9.94545891 13.034722 9.87983915 12.9020367 9.74462646 12.7693513 9.61332487 12.701181 9.43564868 12.701181 9.21929594L12.701181 8.74810018C11.9393063 8.65150194 11.2911706 8.4236642 10.7491589 8.06824974 10.6240886 7.99095873 10.5368501 7.90603175 10.4876262 7.80558448 10.4345642 7.70898624 10.4117799 7.57768466 10.4117799 7.4193157 10.4117799 7.2107231 10.472396 7.02919788 10.5899121 6.87467795 10.7112053 6.72015802 10.8514448 6.6429291 11.0182458 6.6429291 11.1016462 6.6429291 11.1812087 6.6583873 11.2646092 6.68539259 11.3480097 6.71239788 11.4541336 6.76653263 11.582981 6.84376155 11.8861835 7.00982857 12.1666625 7.12958307 12.4244181 7.19917601 12.6859508 7.26870688 12.9626528 7.30347231 13.2583011 7.30347231 13.6221807 7.30347231 13.8988827 7.24170159 14.08463 7.12194709 14.2741544 6.99834356 14.3688861 6.81681834 14.3688861 6.57346032 14.3688861 6.42670053 14.3120471 6.30694603 14.1983081 6.2103478 14.0845691 6.11759859 13.9443295 6.04043175 13.7775895 5.986297 13.6108494 5.93222434 13.3644251 5.85884444 13.0422762 5.77770441 12.526765 5.64640282 12.1060464 5.51119012 11.7762825 5.37597743 11.4465185 5.24076473 11.1622015 5.0283231 10.9234531 4.73859048 10.6846438 4.44891993 10.5633506 4.05874004 10.5633506 3.57208607 10.5633506 3.01199012 10.7566521 2.5291231 11.139478 2.11584903 11.5223039 1.70257496 12.030261 1.43214956 12.6594503 1.29693686L12.6594503.77166843C12.6594503.563075838 12.7276816.389248677 12.864144.254035979 13.0006064.11882328 13.1711236.0493544974 13.3796552.0493544974 13.591964.0493544974 13.7662582.11497425 13.8989436.250186949 14.0316289.381488536 14.0997992.559164727 14.0997992.77551746L14.0997992 1.26608254C14.6683724 1.35883175 15.2217764 1.57506032 15.7637882 1.92662575 15.8888584 2.01161481 15.9760969 2.10430194 16.0253209 2.20474921 16.0783828 2.30519647 16.1011672 2.4288 16.1011672 2.57555979 16.1011672 2.78415238 16.0405511 2.9656776 15.9154808 3.12019753 15.7904105 3.27471746 15.646333 3.35194638 15.48337 3.35194638 15.3999695 3.35194638 15.3241841 3.33648818 15.2483378 3.30948289 15.1724915 3.2824776 15.0626514 3.22834286 14.9185739 3.15111393 14.8693499 3.12410864 14.7631651 3.06612487 14.6002021 2.97728677 14.4372392 2.88844868 14.259046 2.81891781 14.0695216 2.76869418 13.8799972 2.71462152 13.6790807 2.69140317 13.4668937 2.69140317 13.1599142 2.69140317 12.9097127 2.76093404 12.7163503 2.89608466 12.5230488 3.03129735 12.4282561 3.2166716 12.4282561 3.44457143 12.4282561 3.66862222 12.5382181 3.83468924 12.7580201 3.94674568 12.977883 4.05880212 13.3227553 4.17079647 13.7965967 4.28279083 14.3045538 4.40254533 14.7214953 4.52614885 15.0474213 4.66136155 15.3733472 4.79266314 15.6538872 5.00510476 15.8888584 5.2987485 16.1238906 5.59233016 16.2451838 5.986297 16.2451838 6.48071111 16.2451229 7.04074497 16.0555985 7.52354991 15.6765497 7.92142787zM4.21437452 24.6079661L.196469367 24.6079661C.0903454483 24.6079661.00694496366 24.5229771.00694496366 24.4148317L.00694496366 16.2299316C.00694496366 16.1217862.0903454483 16.0367972.196469367 16.0367972L4.2143136 16.0367972C4.32043752 16.0367972 4.40383801 16.1217862 4.40383801 16.2299316L4.40383801 24.4186808C4.40383801 24.5229771 4.32049844 24.6079661 4.21437452 24.6079661zM4.40383801 23.5843104L14.0542305 26.0139175C14.3915486 26.0989065 14.747874 26.0679901 15.0662458 25.9250794L24.8986085 21.4946596C25.8765081 21.0543182 26.3314033 19.8955118 25.9220768 18.8873764L25.9220768 18.8873764C25.5354129 17.9255534 24.4892821 17.4272903 23.5113216 17.7363302L15.7712814 20.2084007 12.0642548 20.3204571 14.4067179 20.6797206C15.1875389 20.7994751 15.9304673 20.3089101 16.1465531 19.5364346L16.1465531 19.5364346C16.3891395 18.6712099 15.8774053 17.7712198 15.0207989 17.5510801L9.54743648 16.1566758C9.22528764 16.0755358 8.88413153 16.0987541 8.57709103 16.2262067L4.40383801 17.9488959 4.40383801 23.5843104 4.40383801 23.5843104z" transform="translate(0 5.926)"/>
    <rect width="4.741" height="7.111" y="23.704" fill="#E91C41"/>
    <path fill="#FFF" d="M4.74074074,28.4444444 L4.02956105,28.4444444 L4.02956105,27.2592593 L4.74068359,27.2592593 L4.74074074,28.4444444 L4.74074074,28.4444444 Z M3.31843851,28.4444444 L2.60737312,28.4444444 L2.60737312,27.2592593 L3.31849566,27.2592593 L3.31849566,28.4444444 L3.31843851,28.4444444 Z M1.89625058,28.4444444 L1.18518519,28.4444444 L1.18518519,27.2592593 L1.89630773,27.2592593 L1.89630773,28.4444444 L1.89625058,28.4444444 Z"/>
    <path fill="#FFCF22" d="M4.74074074,25.8250326 L9.27879517,23.8386375 C9.57794568,23.7051301 9.91245782,23.6698605 10.2352038,23.736551 L16.9852894,25.1105537 C16.9852894,25.1105537 16.564176,26.7436212 14.7575701,26.4727577 C13.742141,26.3196912 12.6951459,26.1626497 12.6951459,26.1626497 L12.817172,26.6101769 C13.0297213,27.4071199 13.6437105,28.0391346 14.4348241,28.282489 L14.4348241,28.282489 C14.9188799,28.4277319 15.434565,28.4199082 15.9107767,28.2510681 L26.9076735,24.3685658 C26.9076735,24.3685658 28.1278077,25.9309677 26.0221146,27.3559505 C23.9164214,28.7809333 15.2968507,32 15.2968507,32 L5.05172063,29.5621658 L4.74074074,25.8250326 Z"/>
    <g fill="#1E2737">
      <path d="M4.69809016,30.5378125 L0.630601642,30.5378125 C0.312124686,30.5378125 0.0550118988,30.27725 0.0550118988,29.9545 L0.0550118988,21.7144375 C0.0550118988,21.3916875 0.312124686,21.131125 0.630601642,21.131125 L4.69802849,21.131125 C5.01650545,21.131125 5.27361823,21.3916875 5.27361823,21.7144375 L5.27361823,29.9584375 C5.27361823,30.2773125 5.01656712,30.5378125 4.69809016,30.5378125 Z M0.82246489,29.760125 L4.50616524,29.760125 L4.50616524,21.908875 L0.82246489,21.908875 L0.82246489,29.760125 Z"/>
      <path d="M15.2542075,26.6025 C15.158245,26.6025 15.0585205,26.59475 14.9626197,26.5791875 L12.5912492,26.2175 L12.7063918,25.4475 L15.0777624,25.8091875 C15.6725323,25.898625 16.248122,25.5253125 16.413096,24.938125 C16.5013494,24.61925 16.4629274,24.2848125 16.2979534,23.9970625 C16.1329794,23.7093125 15.8682192,23.5070625 15.5497422,23.4254375 L10.0088353,22.021625 C9.75943154,21.9594375 9.50231875,21.975 9.2644478,22.0760625 L5.03969432,23.810375 L4.75193028,23.091 L8.97668376,21.3566875 C9.36805765,21.19725 9.78632076,21.1661875 10.1969365,21.271125 L15.7378435,22.6749375 C16.2597164,22.8071875 16.6971597,23.1415625 16.9657436,23.612125 C17.2343275,24.082625 17.3034007,24.6309375 17.1537215,25.1559375 C16.9041944,26.0191875 16.121385,26.6025 15.2542075,26.6025 Z"/>
      <path d="M15.0392787,32 C14.8819521,32 14.7208017,31.9805625 14.5673605,31.9416875 L4.79787632,29.4956875 L4.9820305,28.7413125 L14.7515147,31.1873125 C15.0086275,31.253375 15.2849204,31.2261875 15.5266767,31.1173125 L25.4803767,26.657 C26.28619,26.2953125 26.6545601,25.3620625 26.316903,24.5376875 C25.9946023,23.74825 25.1465433,23.34775 24.3446154,23.604375 L16.5089968,26.093125 L16.2787733,25.3504375 L24.1143301,22.8616875 C24.6822108,22.6828125 25.2962226,22.7216875 25.8333903,22.978375 C26.3744434,23.2350625 26.7965302,23.68225 27.0229301,24.2421875 C27.2608627,24.829375 27.2646864,25.4749375 27.0344629,26.0620625 C26.8003539,26.64925 26.359087,27.1159375 25.7873826,27.3725 L15.8413917,31.8289375 C15.5880409,31.9416875 15.3155716,32 15.0392787,32 Z"/>
      <ellipse cx="2.664" cy="23.332" rx="1" ry="1"/>
      <path d="M4.33354382,9.7528125 L3.56609083,9.7023125 C3.58527099,9.434 3.61209854,9.1656875 3.65052053,8.90125 L4.41032613,9.0140625 C4.37572784,9.255125 4.34883861,9.5039375 4.33354382,9.7528125 Z M4.54458723,8.275125 L3.79637607,8.1040625 C3.85391654,7.8435 3.92298978,7.5790625 4.00359578,7.3224375 L4.73645048,7.551875 C4.66349187,7.7890625 4.59830401,8.0340625 4.54458723,8.275125 Z M4.9782068,6.8479375 L4.26447059,6.5601875 C4.36043305,6.3113125 4.4716903,6.0624375 4.58677124,5.821375 L5.27744193,6.1635625 C5.17000838,6.389125 5.07022222,6.6185625 4.9782068,6.8479375 Z M22.0920261,5.681375 C21.9730598,5.4635625 21.8426224,5.24975 21.704476,5.043625 L22.3414915,4.612 C22.4872854,4.8336875 22.6292556,5.0669375 22.7597547,5.3003125 L22.0920261,5.681375 Z M5.63051718,5.506375 L4.96667404,5.10975 C5.10099682,4.8803125 5.24679068,4.650875 5.40029361,4.42925 L6.02960013,4.8764375 C5.88756829,5.0825625 5.75324552,5.2925 5.63051718,5.506375 Z M21.270918,4.440875 C21.1174151,4.2464375 20.9562648,4.055875 20.7912908,3.873125 L21.3553477,3.34425 C21.5356782,3.5425625 21.708423,3.7486875 21.873397,3.958625 L21.270918,4.440875 Z M6.4746908,4.2853125 L5.88380627,3.7875625 C6.05260399,3.5815 6.22917245,3.37925 6.41332663,3.1848125 L6.96591252,3.725375 C6.79699145,3.90425 6.63201743,4.090875 6.4746908,4.2853125 Z M20.2694178,3.340375 C20.0890873,3.1731875 19.9010478,3.006 19.7091845,2.8543125 L20.1849881,2.2438125 C20.3922078,2.411 20.5955421,2.586 20.7912291,2.7688125 L20.2694178,3.340375 Z M7.49919491,3.2081875 L6.9888547,2.6288125 C7.18454165,2.4499375 7.39176135,2.2788125 7.60280476,2.1155 L8.06707558,2.73375 C7.87145031,2.8815625 7.67952539,3.0409375 7.49919491,3.2081875 Z M19.1182383,2.414875 C18.914904,2.274875 18.7037989,2.1426875 18.4927555,2.022125 L18.8726583,1.3455 C19.1028819,1.4776875 19.3292817,1.621625 19.5518579,1.769375 L19.1182383,2.414875 Z M8.66955455,2.302125 L8.25511513,1.6488125 C8.4776913,1.5049375 8.70791487,1.3649375 8.94196213,1.236625 L9.30650846,1.9210625 C9.08781766,2.0415625 8.87677426,2.1699375 8.66955455,2.302125 Z M17.832736,1.676 C17.6101599,1.571 17.3838217,1.4738125 17.1535365,1.384375 L17.4221203,0.6571875 C17.671524,0.7505625 17.9171657,0.8555 18.154975,0.972125 L17.832736,1.676 Z M9.9665279,1.5943125 L9.65576001,0.8826875 C9.89751634,0.7738125 10.1469201,0.6726875 10.3963238,0.58325 L10.6534366,1.3181875 C10.419266,1.3999375 10.1891041,1.49325 9.9665279,1.5943125 Z M16.4552184,1.1510625 C16.2211094,1.0810625 15.9794148,1.02275 15.7376585,0.9721875 L15.8911614,0.21 C16.1520979,0.2644375 16.4092107,0.3305625 16.6663234,0.4044375 L16.4552184,1.1510625 Z M11.3555783,1.096625 L11.1560677,0.346125 C11.4131805,0.276125 11.674117,0.2178125 11.9350535,0.16725 L12.0731999,0.9333125 C11.8314436,0.9799375 11.5896873,1.034375 11.3555783,1.096625 Z M15.0124511,0.851625 C14.7706948,0.8205 14.5212911,0.7971875 14.2795964,0.7855625 L14.3179568,0.0078125 C14.5827169,0.0195 14.8513625,0.0428125 15.112299,0.0778125 L15.0124511,0.851625 Z M12.8022309,0.8283125 L12.7216249,0.0544375 C12.9825614,0.02725 13.2511453,0.0078125 13.5159672,4.4408921e-16 L13.538971,0.77775 C13.293391,0.7855625 13.047811,0.8010625 12.8022309,0.8283125 Z"/>
      <path d="M4.33354382 9.7528125L3.56609083 9.7023125C3.73877392 7.0735625 4.88230602 4.627625 6.78163499 2.819375 8.69262008.999375 11.1867806 0 13.8113786 0L13.8113786.77775C8.82688118.773875 4.66349187 4.717 4.33354382 9.7528125zM13.8535626 20.8045L13.8497389 20.02675C14.0953189 20.02675 14.3447843 20.0150625 14.586479 19.995625L14.6478431 20.7695C14.3869683 20.7928125 14.1222081 20.8045 13.8535626 20.8045zM13.0593437 20.77725C12.7945835 20.7578125 12.5298234 20.72675 12.2688869 20.6878125L12.3840295 19.9178125C12.6257858 19.9528125 12.8713658 19.983875 13.1168842 19.9995L13.0593437 20.77725zM15.4421854 20.6761875L15.3193953 19.9061875C15.5611517 19.8673125 15.802908 19.81675 16.040779 19.7584375L16.2211094 20.5128125C15.9679437 20.5789375 15.7031218 20.6333125 15.4421854 20.6761875zM11.4860774 20.5361875C11.2289646 20.474 10.9680282 20.4039375 10.7186244 20.32225L10.948848 19.5795625C11.1829569 19.6535 11.4207662 19.7195625 11.6586988 19.777875L11.4860774 20.5361875zM16.9885624 20.2950625L16.7506298 19.55625C16.9847387 19.4784375 17.2149006 19.3929375 17.4413005 19.2956875L17.7367736 20.0150625C17.4951406 20.1200625 17.2418515 20.213375 16.9885624 20.2950625zM9.9665279 20.0500625C9.72094788 19.9489375 9.47536786 19.836125 9.2413206 19.7195625L9.58280141 19.0235C9.80155388 19.132375 10.0278921 19.237375 10.2542919 19.3306875L9.9665279 20.0500625zM18.4621042 19.680625L18.1129144 18.9884375C18.3316668 18.875625 18.5465339 18.755125 18.7575773 18.622875L19.1566603 19.287875C18.9301988 19.424 18.6961515 19.55625 18.4621042 19.680625zM8.53911714 19.330625C8.31271728 19.1945 8.08631741 19.042875 7.87145031 18.8873125L8.31654098 18.2534375C8.51605162 18.3973125 8.72327133 18.5334375 8.93431473 18.66175L8.53911714 19.330625zM19.8204418 18.83675L19.3715274 18.20675C19.571038 18.062875 19.7667867 17.9073125 19.9509408 17.744L20.4459863 18.3389375C20.2464139 18.514 20.0353089 18.68125 19.8204418 18.83675zM7.24208212 18.397375C7.03874778 18.2263125 6.83917547 18.0435 6.65119759 17.8568125L7.18842702 17.30075C7.3649338 17.47575 7.54914966 17.6429375 7.73712753 17.8024375L7.24208212 18.397375zM21.0330471 17.794625L20.4958177 17.2424375C20.6685008 17.0674375 20.8411838 16.884625 20.9985105 16.698L21.5779239 17.2035625C21.4051792 17.409625 21.221025 17.608 21.0330471 17.794625zM6.0986117 17.269625C5.92210491 17.0674375 5.75324552 16.8574375 5.59591889 16.6435625L6.20986895 16.1769375C6.35566281 16.37525 6.51298944 16.5696875 6.67413977 16.7563125L6.0986117 17.269625zM22.0767314 16.5735625L21.4588959 16.1108125C21.6046898 15.9125 21.7428363 15.7025 21.8733353 15.4925625L22.5256457 15.90475C22.3837372 16.134125 22.234058 16.35975 22.0767314 16.5735625zM5.14318083 15.978625C5.00121066 15.7530625 4.86688788 15.515875 4.74027417 15.2825625L5.41947377 14.917C5.53461639 15.1348125 5.6612301 15.3525 5.79172918 15.5625625L5.14318083 15.978625zM22.920905 15.20475L22.2417054 14.8469375C22.356848 14.62525 22.4604579 14.39975 22.5563586 14.1703125L23.2623858 14.473625C23.1588376 14.7225625 23.043695 14.9675625 22.920905 15.20475zM4.39490799 14.555375C4.34119122 14.4309375 4.28747444 14.302625 4.24140506 14.17425L4.95514128 13.890375C5.00114899 14.0070625 5.04728004 14.1236875 5.09711145 14.240375L4.39490799 14.555375zM23.5463878 13.7193125L22.8173568 13.4704375C22.8941391 13.237125 22.9669744 12.9960625 23.0245765 12.7549375L23.768964 12.9454375C23.7037144 13.2020625 23.6308175 13.4665 23.5463878 13.7193125zM23.933938 12.152125L23.1780178 12.0238125C23.2202018 11.7788125 23.2509147 11.5299375 23.2739802 11.281125L24.0376095 11.351125C24.0106586 11.6194375 23.976122 11.8876875 23.933938 12.152125zM24.0759082 10.546125L23.3084552 10.5344375C23.3084552 10.4878125 23.3084552 10.445 23.3084552 10.3983125 23.3084552 10.196125 23.3008078 9.99 23.289275 9.7878125L24.056728 9.7373125C24.0720845 9.955125 24.0759082 10.17675 24.0759082 10.398375 24.0797319 10.448875 24.0797319 10.4994375 24.0759082 10.546125z"/>
      <path d="M13.8113786,20.8045 L13.8113786,20.02675 C19.0491651,20.02675 23.3122789,15.7064375 23.3122789,10.398375 C23.3122789,10.1961875 23.3046315,9.9900625 23.2930987,9.787875 L24.0605517,9.737375 C24.0759082,9.9551875 24.0797319,10.1768125 24.0797319,10.3984375 C24.0797319,13.178875 23.0129821,15.7920625 21.0713457,17.7558125 C19.1335948,19.7234375 16.5550045,20.8045 13.8113786,20.8045 Z"/>
    </g>
  </g>
</svg>
