<?xml version="1.0" encoding="UTF-8"?>
<svg width="32px" height="32px" viewBox="0 0 32 32" version="1.1" xmlns="http://www.w3.org/2000/svg" xmlns:xlink="http://www.w3.org/1999/xlink">
    <!-- Generator: Sketch 57.1 (83088) - https://sketch.com -->
    <title>ZB.COM/4_Assets/switch@2x</title>
    <desc>Created with Sketch.</desc>
    <g id="ZB.COM/4_Assets/switch" stroke="none" stroke-width="1" fill="none" fill-rule="evenodd">
        <path d="M25.7062764,15.290335 L29.7043445,19.2885122 C29.8935658,19.4761933 30,19.7316726 30,19.9981887 C30,20.2647047 29.8935658,20.5201841 29.7043445,20.7078651 L25.7062764,24.7060424 C25.3143436,25.0979859 24.678895,25.0979859 24.2869622,24.7060424 C23.8950294,24.3140989 23.8950294,23.6786329 24.2869622,23.2866895 L26.583,20.997 L17.000483,20.997733 C16.4484649,20.997733 16.0009659,20.5502218 16.0009659,19.9981887 C16.0009659,19.4461556 16.4484649,18.9986444 17.000483,18.9986444 L26.582,18.998 L24.2869622,16.7096879 C23.8950294,16.3177444 23.8950294,15.6822785 24.2869622,15.290335 C24.678895,14.8983915 25.3143436,14.8983915 25.7062764,15.290335 Z M11.2631332,7.03422086 C11.6094699,7.12702403 11.8799897,7.39755117 11.9727903,7.74389732 C12.065591,8.09024347 11.9665739,8.45979042 11.7130378,8.7133334 L9.416,11.002 L18.999517,11.0022899 C19.5515351,11.0022899 19.9990341,11.4498011 19.9990341,12.0018342 C19.9990341,12.5538673 19.5515351,13.0013785 18.999517,13.0013785 L9.417,13.001 L11.7130378,15.290335 C12.1049706,15.6822785 12.1049706,16.3177444 11.7130378,16.7096879 C11.321105,17.1016314 10.6856564,17.1016314 10.2937236,16.7096879 L6.29565547,12.7115106 C6.10643425,12.5238296 6,12.2683502 6,12.0018342 C6,11.7353181 6.10643425,11.4798388 6.29565547,11.2921577 L10.2937236,7.29398047 C10.5472597,7.04043749 10.9167965,6.94141769 11.2631332,7.03422086 Z" id="Combined-Shape" fill="#CCCCCC"></path>
    </g>
</svg>