<svg xmlns="http://www.w3.org/2000/svg" width="32" height="32" viewBox="0 0 32 32">
  <defs>
    <linearGradient id="zbicon-bankcard-a" x1="50%" x2="50%" y1="1.512%" y2="99.676%">
      <stop offset="0%" stop-color="#FFBF3F"/>
      <stop offset="100%" stop-color="#FF6A8F"/>
    </linearGradient>
    <linearGradient id="zbicon-bankcard-b" x1="49.993%" x2="49.993%" y1="-766.717%" y2="1392.823%">
      <stop offset="0%" stop-color="#FFBF3F"/>
      <stop offset="100%" stop-color="#FF6A8F"/>
    </linearGradient>
    <linearGradient id="zbicon-bankcard-c" x1="49.994%" x2="49.994%" y1="-766.717%" y2="1392.823%">
      <stop offset="0%" stop-color="#FFBF3F"/>
      <stop offset="100%" stop-color="#FF6A8F"/>
    </linearGradient>
    <linearGradient id="zbicon-bankcard-d" x1="49.995%" x2="49.995%" y1="-766.717%" y2="1392.823%">
      <stop offset="0%" stop-color="#FFBF3F"/>
      <stop offset="100%" stop-color="#FF6A8F"/>
    </linearGradient>
    <linearGradient id="zbicon-bankcard-e" x1="49.999%" x2="49.999%" y1="-538.844%" y2="180.944%">
      <stop offset="0%" stop-color="#FFBF3F"/>
      <stop offset="100%" stop-color="#FF6A8F"/>
    </linearGradient>
    <linearGradient id="zbicon-bankcard-f" x1="49.999%" x2="49.999%" y1="-538.857%" y2="180.947%">
      <stop offset="0%" stop-color="#FFBF3F"/>
      <stop offset="100%" stop-color="#FF6A8F"/>
    </linearGradient>
    <linearGradient id="zbicon-bankcard-g" x1="49.994%" x2="49.994%" y1="-1716.689%" y2="442.851%">
      <stop offset="0%" stop-color="#FFBF3F"/>
      <stop offset="100%" stop-color="#FF6A8F"/>
    </linearGradient>
    <linearGradient id="zbicon-bankcard-h" x1="49.993%" x2="49.993%" y1="-1716.689%" y2="442.851%">
      <stop offset="0%" stop-color="#FFBF3F"/>
      <stop offset="100%" stop-color="#FF6A8F"/>
    </linearGradient>
    <linearGradient id="zbicon-bankcard-i" x1="49.999%" x2="49.999%" y1="-766.757%" y2="1392.883%">
      <stop offset="0%" stop-color="#FFBF3F"/>
      <stop offset="100%" stop-color="#FF6A8F"/>
    </linearGradient>
    <linearGradient id="zbicon-bankcard-j" x1="49.997%" x2="49.997%" y1="-766.757%" y2="1392.883%">
      <stop offset="0%" stop-color="#FFBF3F"/>
      <stop offset="100%" stop-color="#FF6A8F"/>
    </linearGradient>
  </defs>
  <g fill="none">
    <path fill="url(#zbicon-bankcard-a)" d="M29.8203621,0 L2.17963791,0 C0.97745524,0 0,0.97745524 0,2.17963791 L0,18.1840356 C0,18.8254906 0.283636565,19.3978774 0.726545971,19.7971504 C0.261818368,20.8625603 0,22.0371293 0,23.2727211 C0,28.0850654 3.9149346,32 8.72727893,32 C13.5396233,32 17.4545579,28.0850654 17.4545579,23.2727211 C17.4545579,22.2516294 17.2691032,21.2749242 16.9454439,20.3636054 L29.8203621,20.3636054 C31.0225448,20.3636054 32,19.3861501 32,18.1839675 L32,2.17963791 C32,0.97745524 31.0225448,0 29.8203621,0 Z M2.17963791,1.45452376 L29.8203621,1.45452376 C30.2203851,1.45452376 30.5454762,1.7796149 30.5454762,2.17963791 L30.5454762,4.36363946 L1.45452376,4.36363946 L1.45452376,2.17963791 C1.45452376,1.7796149 1.7796149,1.45452376 2.17963791,1.45452376 Z M30.5454762,8.72727893 L1.45452376,8.72727893 L1.45452376,5.81816322 L30.5454762,5.81816322 L30.5454762,8.72727893 Z M15.9629432,24.000017 C15.8851476,24.7774949 15.6814884,25.5171318 15.3782155,26.202905 C15.3425564,26.1978595 15.3105791,26.1818368 15.2727381,26.1818368 L13.5330778,26.1818368 C13.6712824,25.4916317 13.7621689,24.7622221 13.797828,24.000017 L15.9629432,24.000017 Z M12.0458267,26.1818368 L9.4545749,26.1818368 L9.4545749,24.000017 L12.344736,24.000017 C12.3047133,24.7658358 12.1999859,25.4989272 12.0458267,26.1818368 Z M2.07634238,26.202905 C1.77231944,25.5170636 1.56872839,24.7774267 1.4916147,24.000017 L3.65741169,24.000017 C3.6923208,24.7622221 3.78395723,25.4916317 3.92216188,26.1818368 L2.18181973,26.1818368 C2.1439788,26.1818368 2.1120015,26.1978595 2.07634238,26.202905 Z M7.99998295,16.1534433 L7.99998295,18.9090816 L5.84584506,18.9090816 C6.37384544,17.5323534 7.13455052,16.521489 7.99998295,16.1534433 Z M7.99998295,20.3636736 L7.99998295,22.5454933 L5.10982181,22.5454933 C5.14984457,21.7796746 5.25457191,21.0465831 5.40873111,20.3636736 L7.99998295,20.3636736 Z M5.10982181,24.000017 L7.99998295,24.000017 L7.99998295,26.1818368 L5.40873111,26.1818368 C5.25457191,25.4989272 5.14984457,24.7658358 5.10982181,24.000017 Z M7.99998295,27.6363605 L7.99998295,30.3919989 C7.13455052,30.0240213 6.37377725,29.0130888 5.84577688,27.6363605 L7.99998295,27.6363605 Z M9.4545749,30.3919989 L9.4545749,27.6363605 L11.608781,27.6363605 C11.0807124,29.0130888 10.3200073,30.0240213 9.4545749,30.3919989 Z M9.4545749,22.5454933 L9.4545749,20.3636736 L12.0458267,20.3636736 C12.1999859,21.0465831 12.3047133,21.7796746 12.344736,22.5454933 L9.4545749,22.5454933 Z M9.4545749,18.9090816 L9.4545749,16.1534433 C10.3200073,16.5214208 11.0807806,17.5323534 11.608781,18.9090816 L9.4545749,18.9090816 Z M12.2348951,16.9061711 C13.1359866,17.404376 13.9148962,18.0916492 14.5316012,18.9090816 L13.1526912,18.9090816 C12.9054637,18.1622174 12.5956453,17.489467 12.2348951,16.9061711 Z M4.30179851,18.9090816 L2.92288844,18.9090816 C3.5389116,18.0916492 4.31850307,17.404376 5.21959462,16.9061711 C4.85891254,17.489467 4.54909414,18.1622174 4.30179851,18.9090816 Z M2.17963791,20.3636736 L2.18181973,20.3636736 L3.92148006,20.3636736 C3.78327541,21.0538786 3.69238899,21.7832882 3.65672987,22.5454933 L1.4916147,22.5454933 C1.56872839,21.7723791 1.77013762,21.035674 2.07122874,20.3527645 C2.10763786,20.3541963 2.14254698,20.3636736 2.17963791,20.3636736 Z M2.92288844,27.6363605 L4.30179851,27.6363605 C4.54909414,28.3832929 4.85816254,29.0559752 5.2189128,29.6392711 C4.31857125,29.1411343 3.5389116,28.4538611 2.92288844,27.6363605 Z M12.2348951,29.6392711 C12.5956453,29.0559752 12.9054637,28.3832929 13.1520093,27.6363605 L14.5309194,27.6363605 C13.9156462,28.4538611 13.1359866,29.1411343 12.2348951,29.6392711 Z M15.9629432,22.5454933 L13.7971462,22.5454933 C13.762237,21.7832882 13.6706006,21.0538786 13.532396,20.3636736 L15.2727381,20.3636736 L15.3883746,20.3636736 C15.6865339,21.0436513 15.8865795,21.7759927 15.9629432,22.5454933 Z M29.8203621,18.9090816 L16.2734434,18.9090816 C14.7614423,16.3047389 11.9490767,14.5454421 8.72727893,14.5454421 C5.72216315,14.5454421 3.06688854,16.072716 1.49672834,18.3912403 C1.47634196,18.3243539 1.45452376,18.2573993 1.45452376,18.1839675 L1.45452376,10.1818027 L30.5454762,10.1818027 L30.5454762,18.1839675 C30.5454762,18.5839905 30.2203851,18.9090816 29.8203621,18.9090816 Z"/>
    <circle cx="26.909" cy="12.364" r="1" fill="url(#zbicon-bankcard-b)"/>
    <circle cx="24" cy="12.364" r="1" fill="url(#zbicon-bankcard-c)"/>
    <circle cx="21.091" cy="12.364" r="1" fill="url(#zbicon-bankcard-d)"/>
    <path fill="url(#zbicon-bankcard-e)" d="M31.6116778,24.8496787 L28.9934077,23.3953204 C28.5919123,23.1720502 28.0499304,23.2622446 27.7828668,23.5967749 C27.5158033,23.9305554 27.6240524,24.3828906 28.0246477,24.6054109 L29.5537175,25.4547239 L28.0246477,26.3041052 C27.6240524,26.5266255 27.5158033,26.9782108 27.7828668,27.3127411 C27.9513361,27.5229219 28.2279727,27.6363636 28.5098459,27.6363636 C28.6756969,27.6363636 28.8440844,27.5970953 28.9933258,27.5141956 L31.611596,26.0598373 C31.8541951,25.9245799 32,25.6976965 32,25.4547921 C32,25.2118196 31.8542769,24.9849361 31.6116778,24.8496787 Z"/>
    <path fill="url(#zbicon-bankcard-f)" d="M23.1262268,23.5967522 C22.8574501,23.2622143 22.3162965,23.1720861 21.9157087,23.3952932 L19.2974876,24.8496842 C19.0548931,24.9849447 18.9090909,25.2118332 18.9090909,25.454743 C18.9090909,25.6976528 19.0548113,25.9245414 19.2974876,26.0598019 L21.9157087,27.5141929 C22.0649473,27.5970945 22.2334135,27.6363636 22.3991796,27.6363636 C22.6810474,27.6363636 22.9577607,27.5229194 23.126145,27.3127339 C23.3932036,26.9789459 23.2849565,26.5266005 22.8843687,26.3040752 L21.3554094,25.454743 L22.8844505,24.6053427 C23.2850383,24.3828174 23.3932854,23.9312219 23.1262268,23.5967522 Z"/>
    <circle cx="24" cy="26.909" r="1" fill="url(#zbicon-bankcard-g)"/>
    <circle cx="26.909" cy="26.909" r="1" fill="url(#zbicon-bankcard-h)"/>
    <path fill="url(#zbicon-bankcard-i)" d="M9.45459318,11.6363636 L3.63638409,11.6363636 C3.2349308,11.6363636 2.90909091,11.9622096 2.90909091,12.3636705 C2.90909091,12.7651313 3.2349308,13.0909091 3.63638409,13.0909091 L9.454525,13.0909091 C9.85597829,13.0909091 10.1818182,12.7650631 10.1818182,12.3636023 C10.1818182,11.9621415 9.85604647,11.6363636 9.45459318,11.6363636 Z"/>
    <path fill="url(#zbicon-bankcard-j)" d="M15.1272564,11.6363636 L12.5091073,11.6363636 C12.0273678,11.6363636 11.6363636,11.9622096 11.6363636,12.3636705 C11.6363636,12.7651313 12.0273678,13.0909091 12.5091073,13.0909091 L15.1272564,13.0909091 C15.6089958,13.0909091 16,12.7650631 16,12.3636023 C16,11.9621415 15.6089958,11.6363636 15.1272564,11.6363636 Z"/>
  </g>
</svg>
