<svg xmlns="http://www.w3.org/2000/svg" width="32" height="32" viewBox="0 0 32 32">
  <g fill="none" transform="translate(4.571)">
    <path fill="#E91C41" d="M10.8571429,17.1428571 C5.49485714,17.1428571 1.14285714,21.268477 1.14285714,26.35183 L1.14285714,29.2373081 C1.14285714,30.7659362 2.44450667,32 4.05714286,32 L17.6571429,32 C19.269779,32 20.5714286,30.7659362 20.5714286,29.2373081 L20.5714286,26.35183 C20.5714286,21.268477 16.2194286,17.1428571 10.8571429,17.1428571 Z"/>
    <path fill="#F16E86" d="M20.5714286,26.35183 L20.5714286,29.2373081 C20.5714286,30.7659362 19.3463467,32 17.8285714,32 L11.4285714,32 L11.4285714,17.1428571 C16.4754286,17.1428571 20.5714286,21.268477 20.5714286,26.35183 Z"/>
    <path fill="#F9BB32" d="M22.8571429,11.4285714 C22.8571429,17.7333333 17.7333333,22.8571429 11.4285714,22.8571429 C10.8951746,22.8571429 10.4761905,22.4380317 10.4761905,21.9047619 C10.4761905,21.3713651 10.8951746,20.952381 11.4285714,20.952381 C16.6857143,20.952381 20.952381,16.6857143 20.952381,11.4285714 C20.952381,6.26660317 16.7427937,1.98088889 11.5810159,1.9047619 L11.4285714,1.9047619 C8.87612698,1.9047619 6.53333333,2.87619048 4.74285714,4.64761905 C2.91434921,6.43809524 1.9047619,8.85707937 1.9047619,11.4285714 L1.9047619,12.3809524 C1.9047619,12.9142222 1.48577778,13.3333333 0.952380952,13.3333333 C0.418984127,13.3333333 0,12.9142222 0,12.3809524 L0,11.4285714 C0,8.34285714 1.21904762,5.44761905 3.40946032,3.27612698 C5.56184127,1.16190476 8.36190476,0.019047619 11.4285714,0 L11.6189841,0 C17.8094603,0.0952380952 22.8571429,5.21904762 22.8571429,11.4285714 Z"/>
    <path fill="#FFD551" d="M22.8571429,11.4285714 C22.8571429,17.7333333 17.7333333,22.8571429 11.4285714,22.8571429 L11.4285714,20.952381 C16.6857143,20.952381 20.952381,16.6857143 20.952381,11.4285714 C20.952381,6.26660317 16.7427937,1.98088889 11.5810159,1.9047619 L11.4285714,1.9047619 L11.4285714,0 L11.6189841,0 C17.8094603,0.0952380952 22.8571429,5.21904762 22.8571429,11.4285714 Z"/>
    <path fill="#FF7882" d="M20 14.8571429L18.0952381 14.8571429C17.5688254 14.8571429 17.1428571 14.4098762 17.1428571 13.8571429L17.1428571 7.85714286C17.1428571 7.30440952 17.5688254 6.85714286 18.0952381 6.85714286L20 6.85714286C21.5754921 6.85714286 22.8571429 8.20287619 22.8571429 9.85714286L22.8571429 11.8571429C22.8571429 13.5114095 21.5754921 14.8571429 20 14.8571429zM4.76190476 14.8571429L2.85714286 14.8571429C1.28165079 14.8571429 0 13.5114095 0 11.8571429L0 9.85714286C0 8.20287619 1.28165079 6.85714286 2.85714286 6.85714286L4.76190476 6.85714286C5.28831746 6.85714286 5.71428571 7.30440952 5.71428571 7.85714286L5.71428571 13.8571429C5.71428571 14.4098762 5.28831746 14.8571429 4.76190476 14.8571429z"/>
    <path fill="#E91C41" d="M10.8571429,3.42857143 C6.75279524,3.42857143 3.42857143,6.75279524 3.42857143,10.8571429 C3.42857143,14.9613667 6.75279524,18.2857143 10.8571429,18.2857143 C14.9614905,18.2857143 18.2857143,14.9613667 18.2857143,10.8571429 C18.2857143,6.75279524 14.9614905,3.42857143 10.8571429,3.42857143 Z"/>
    <path fill="#F16E86" d="M19.4285714,10.8571429 C19.4285714,14.9613667 15.8486381,18.2857143 11.4285714,18.2857143 L11.4285714,3.42857143 C15.8486381,3.42857143 19.4285714,6.75279524 19.4285714,10.8571429 Z"/>
  </g>
</svg>
