<?xml version="1.0" encoding="UTF-8"?>
<svg width="28px" height="22px" viewBox="0 0 28 22" version="1.1" xmlns="http://www.w3.org/2000/svg" xmlns:xlink="http://www.w3.org/1999/xlink">
    <!-- Generator: Sketch 56.2 (81672) - https://sketch.com -->
    <title>Combined Shape</title>
    <desc>Created with Sketch.</desc>
    <g id="Symbols" stroke="none" stroke-width="1" fill="none" fill-rule="evenodd">
        <g id="ZB.COM/Icon/Title_32/lever" transform="translate(-2.000000, -5.000000)" fill="#FFFFFF">
            <path d="M16.8411785,21.3084999 L19.509513,25.4592424 C19.8081651,25.9238125 19.6736621,26.5425263 19.2090921,26.8411785 C19.0477948,26.9448696 18.8600861,27 18.6683345,27 L13.3316655,27 C12.7793807,27 12.3316655,26.5522847 12.3316655,26 C12.3316655,25.8082484 12.3867959,25.6205397 12.490487,25.4592424 L15.1588215,21.3084999 C15.4574737,20.8439298 16.0761875,20.7094268 16.5407576,21.008079 C16.6612602,21.085545 16.7637125,21.1879972 16.8411785,21.3084999 Z M4.49093243,13.8720594 L28.1561152,20.213126 C28.8229478,20.3918033 29.2186759,21.0772245 29.0399987,21.7440571 C28.8613214,22.4108897 28.1759002,22.8066178 27.5090676,22.6279406 L3.84388482,16.286874 C3.17705219,16.1081967 2.78132408,15.4227755 2.96000135,14.7559429 C3.13867861,14.0891103 3.82409981,13.6933822 4.49093243,13.8720594 Z M22.3881579,10.0718232 C22.9934241,10.0718232 23.4111831,10.0110503 23.6414474,9.88950276 C23.8717117,9.76795519 23.9868421,9.48619006 23.9868421,9.0441989 L23.9868421,7.51933702 C23.9868421,7.27624188 23.8980272,7.07734884 23.7203947,6.92265193 C23.5427623,6.76795503 23.3026331,6.69060773 23,6.69060773 C22.6447351,6.69060773 22.3914481,6.78452945 22.2401316,6.97237569 C22.088815,7.16022193 22.0131579,7.34254055 22.0131579,7.51933702 L22.0131579,8.48066298 L20,8.48066298 L20,7.50276243 C20,7.16021928 20.0789466,6.83425569 20.2368421,6.52486188 C20.3947376,6.21546807 20.6118407,5.95027735 20.8881579,5.72928177 C21.1644751,5.50828619 21.4868403,5.33149238 21.8552632,5.19889503 C22.2236861,5.06629768 22.6184189,5 23.0394737,5 C23.592108,5 24.0493403,5.09115931 24.4111842,5.27348066 C24.7730281,5.45580202 25.0460517,5.64088304 25.2302632,5.82872928 C25.3618428,5.96132663 25.4769732,6.09392199 25.5756579,6.22651934 C25.6743426,6.35911669 25.7565786,6.51933608 25.8223684,6.70718232 C25.9407901,7.07182503 26,7.61325608 26,8.33149171 C26,8.74033354 25.9901317,9.07182193 25.9703947,9.32596685 C25.9506578,9.58011177 25.9013162,9.79005442 25.8223684,9.9558011 C25.7302627,10.1325976 25.6019745,10.2817673 25.4375,10.4033149 C25.2730255,10.5248625 25.0460541,10.6574578 24.7565789,10.801105 C25.07237,10.9668517 25.3124992,11.1215462 25.4769737,11.2651934 C25.6414482,11.4088405 25.7631575,11.5745847 25.8421053,11.7624309 C25.921053,11.961327 25.9671052,12.1961312 25.9802632,12.4668508 C25.9934211,12.7375704 26,13.0828708 26,13.5027624 C26,13.8895047 25.9901317,14.2099435 25.9703947,14.4640884 C25.9506578,14.7182333 25.9210528,14.928176 25.8815789,15.0939227 C25.8421051,15.2707191 25.789474,15.4198889 25.7236842,15.5414365 C25.6578944,15.662984 25.5723689,15.7900546 25.4671053,15.9226519 C25.217104,16.2320457 24.8980283,16.4889493 24.5098684,16.6933702 C24.1217086,16.8977911 23.6118453,17 22.9802632,17 C22.6644721,17 22.3289491,16.9558015 21.9736842,16.8674033 C21.6184193,16.7790051 21.2960541,16.6353601 21.0065789,16.4364641 C20.7171038,16.2375681 20.4769746,15.9779022 20.2861842,15.6574586 C20.0953938,15.337015 20,14.9447537 20,14.480663 L20,13.519337 L22.0131579,13.519337 L22.0131579,14.3977901 C22.0131579,14.6629848 22.1019728,14.8812146 22.2796053,15.0524862 C22.4572377,15.2237578 22.6973669,15.3093923 23,15.3093923 C23.3026331,15.3093923 23.5427623,15.2237578 23.7203947,15.0524862 C23.8980272,14.8812146 23.9868421,14.6519351 23.9868421,14.3646409 L23.9868421,12.6740331 C23.9868421,12.2099424 23.88158,11.9060781 23.6710526,11.7624309 C23.552631,11.6740327 23.3914484,11.6187846 23.1875,11.5966851 C22.9835516,11.5745855 22.7171069,11.5635359 22.3881579,11.5635359 L22.3881579,10.0718232 Z M12.5556349,9.5 L14.1819805,11.1263456 C14.6115572,11.5559223 14.6115572,12.2524038 14.1819805,12.6819805 C13.7524038,13.1115572 13.0559223,13.1115572 12.6263456,12.6819805 L11,11.0556349 L9.3736544,12.6819805 C8.94407768,13.1115572 8.24759621,13.1115572 7.81801948,12.6819805 C7.38844276,12.2524038 7.38844276,11.5559223 7.81801948,11.1263456 L9.44436508,9.5 L7.81801948,7.8736544 C7.38844276,7.44407768 7.38844276,6.74759621 7.81801948,6.31801948 C8.24759621,5.88844276 8.94407768,5.88844276 9.3736544,6.31801948 L11,7.94436508 L12.6263456,6.31801948 C13.0559223,5.88844276 13.7524038,5.88844276 14.1819805,6.31801948 C14.6115572,6.74759621 14.6115572,7.44407768 14.1819805,7.8736544 L12.5556349,9.5 Z" id="Combined-Shape"></path>
        </g>
    </g>
</svg>