<svg xmlns="http://www.w3.org/2000/svg" width="32" height="32" viewBox="0 0 32 32">
  <g fill="none" transform="translate(0 1.391)">
    <path fill="#E91C41" d="M23.1469013,8.1996296 L23.1469013,10.5497731 C23.1469013,10.9992541 23.6431512,11.2753638 24.0467678,11.0506233 L31.70225,6.76129042 C32.09925,6.53654993 32.09925,5.97790926 31.70225,5.75316877 L24.0467678,1.47025702 C23.6497679,1.24551652 23.1469013,1.52804743 23.1469013,1.97110727 L23.1469013,4.32125075 L16.6956522,4.32125075 C16.8346022,4.93768182 16.9073855,5.57337637 16.9073855,6.22833439 C16.9073855,6.90897703 16.8346022,7.56393505 16.6956522,8.20605076 L23.1469013,8.20605076 L23.1469013,8.1996296 Z"/>
    <path fill="#FFB655" d="M8.83019292,21.0158307 L8.83019292,18.6672356 C8.83019292,18.2180508 8.33522695,17.942123 7.93265463,18.1667154 L0.296979583,22.4532221 C-0.0989931942,22.6778146 -0.0989931942,23.2360871 0.296979583,23.4606796 L7.93265463,27.7471863 C8.32862741,27.9717787 8.83019292,27.689434 8.83019292,27.2466661 L8.83019292,24.898071 L15.3043478,24.898071 C15.1657574,24.2756292 15.0865628,23.6275196 15.0865628,22.9601593 C15.0865628,22.292799 15.1591578,21.6446894 15.3043478,21.0222476 L8.83019292,21.0222476 L8.83019292,21.0158307 Z"/>
    <path fill="#E91C41" d="M6.98165812,13.9130435 C10.8212349,13.9004771 13.9255736,10.7746116 13.9130435,6.92835614 C13.9004373,3.08210072 10.7709622,-0.0187078068 6.93138543,0 C3.08552454,0.0126134914 -0.012530068,3.13847905 0,6.97847022 C0.0126062777,10.8247256 3.14208132,13.9255342 6.98165812,13.9130435 Z M3.0293772,5.74989278 L3.85410352,5.74989278 C3.91254869,5.54383322 3.96449996,5.33112658 4.04892076,5.13171409 C4.46453087,4.0947692 5.15937903,3.35694302 6.21139213,3.00464764 C7.08157581,2.712176 7.95825339,2.71882308 8.83493097,2.96476514 C9.06221775,3.03123597 9.28950453,3.11100096 9.5038035,3.2107072 C9.71160856,3.31041344 9.77005373,3.47659051 9.68563292,3.68265007 C9.59471821,3.91529796 9.5038035,4.14129877 9.39990097,4.36729959 C9.30898626,4.56671207 9.19858982,4.62653581 8.98429086,4.58000623 C8.71154672,4.52018249 8.44529649,4.43377041 8.17255235,4.37394667 C7.6465458,4.26094626 7.12053925,4.25429918 6.60102661,4.42712333 C5.95163581,4.63982998 5.60745869,5.12506701 5.39965363,5.74989278 L7.16599661,5.7432457 C7.30236868,5.7432457 7.41925902,5.85624611 7.41925902,5.99583484 L7.41925902,6.56748395 C7.41925902,6.70707269 7.30886259,6.82672018 7.17249052,6.82672018 L5.23730593,6.83336726 C5.23730593,6.99289725 5.23730593,7.14578015 5.23730593,7.29866305 L7.16599661,7.29201597 C7.30236868,7.29201597 7.41925902,7.40501637 7.41925902,7.54460511 L7.41925902,8.11625422 C7.41925902,8.25584296 7.30886259,8.37549045 7.17249052,8.37549045 L5.48407443,8.38213753 C5.48407443,8.38878461 5.48407443,8.39543169 5.48407443,8.40207878 C5.68538558,8.87402165 5.98410535,9.25290536 6.47114845,9.44567076 C7.03611845,9.67167157 7.61407626,9.66502449 8.19203408,9.53872992 C8.46477822,9.47890617 8.73752235,9.3924941 9.01026649,9.32602327 C9.21157764,9.27949369 9.32846798,9.33931743 9.41288879,9.53208283 C9.51029741,9.75143656 9.60770603,9.97743737 9.69862074,10.2034382 C9.78304154,10.4161448 9.73758419,10.5690277 9.54276695,10.6886752 C9.49730959,10.7152636 9.44535833,10.7418519 9.39340706,10.7617931 C8.58166856,11.0875002 7.74395443,11.2137948 6.87377075,11.074206 C6.2633434,10.9744998 5.69187949,10.7617931 5.20483639,10.3762623 C4.58142122,9.88437821 4.17879892,9.23961119 3.94501823,8.47519669 L3.91254869,8.38878461 L3.04236502,8.39543169 C2.90599295,8.39543169 2.7891026,8.28243129 2.7891026,8.14284255 L2.7891026,7.57119344 C2.7891026,7.4316047 2.89949904,7.31195722 3.03587111,7.31195722 L3.71773145,7.31195722 C3.71773145,7.15242723 3.71773145,7.00619141 3.71773145,6.84666143 L3.03587111,6.84666143 C2.89949904,6.84666143 2.7826087,6.73366102 2.7826087,6.59407229 L2.7826087,6.02242317 C2.7826087,5.86954027 2.89300513,5.74989278 3.0293772,5.74989278 Z"/>
    <path fill="#FFB655" d="M25.0434783,15.3043478 C21.1990847,15.3043478 18.0869565,18.416476 18.0869565,22.2608696 C18.0869565,26.1052632 21.1990847,29.2173913 25.0434783,29.2173913 C28.8878719,29.2173913 32,26.1052632 32,22.2608696 C32,18.4227886 28.8878719,15.3043478 25.0434783,15.3043478 Z M27.2971501,25.7569854 C26.9558132,26.1311331 26.5078085,26.3891661 25.9886919,26.5181825 C25.761134,26.5762399 25.6615774,26.6794531 25.6686885,26.8987811 C25.6757997,27.1052075 25.6686885,27.3180846 25.6686885,27.5309618 C25.6686885,27.7180357 25.5620208,27.8212488 25.3629075,27.8212488 C25.114016,27.8276997 24.8651245,27.8276997 24.616233,27.8212488 C24.3957863,27.814798 24.2962297,27.705134 24.2891185,27.5116093 C24.2891185,27.3567896 24.2891185,27.2019698 24.2820073,27.0536009 C24.2748961,26.7181581 24.2677849,26.6988056 23.9051145,26.647199 C23.4428874,26.5826908 22.9948827,26.4859284 22.5753227,26.2988545 C22.2482082,26.1504856 22.2126522,26.0795266 22.3050976,25.7634362 C22.3762095,25.5312066 22.4473214,25.2989769 22.5255444,25.0667473 C22.6179898,24.7958127 22.6962129,24.7635586 22.9735491,24.8925751 C23.4357762,25.1119031 23.9335592,25.2344687 24.4455646,25.2925261 C24.7797903,25.3312311 25.1069049,25.2989769 25.4126858,25.1764113 C25.9886919,24.9506325 26.0811373,24.3442551 25.5904655,23.9765582 C25.4269082,23.8539925 25.2349062,23.763681 25.0429042,23.6862711 C24.53801,23.4862956 24.0117822,23.3314758 23.5353328,23.0734429 C22.7602135,22.6541394 22.2695417,22.0735653 22.3264312,21.2220566 C22.3904319,20.2544331 22.9948827,19.6545066 23.9691151,19.3319654 C24.3744527,19.1964981 24.3744527,19.2029489 24.3744527,18.8223504 C24.3744527,18.6933339 24.3744527,18.5643174 24.3744527,18.435301 C24.3815639,18.1450139 24.4384534,18.0998582 24.7513456,18.0869565 C24.8509022,18.0869565 24.9504588,18.0869565 25.0429042,18.0869565 C25.7184668,18.0869565 25.7184668,18.0869565 25.7184668,18.6997847 C25.7184668,19.1319899 25.7184668,19.1319899 26.1949163,19.2029489 C26.5575868,19.2545555 26.9060349,19.3513179 27.2402606,19.4867852 C27.4251514,19.5577442 27.4962633,19.6803099 27.4393738,19.8544821 C27.3540396,20.1189659 27.2758165,20.3834496 27.1833711,20.6414825 C27.0980369,20.8866138 27.0055915,20.9253188 26.7495888,20.8092039 C26.223361,20.5769743 25.6757997,20.480212 25.0926825,20.5124661 C24.9433476,20.5189169 24.7940127,20.5382694 24.651789,20.5963268 C24.1468948,20.7963023 24.0686717,21.2994665 24.4953429,21.609106 C24.7086785,21.7639258 24.95757,21.8800406 25.2135726,21.976803 C25.6544662,22.1445244 26.1024709,22.3057949 26.529142,22.5122213 C27.8802673,23.1831069 28.2429378,24.711952 27.2971501,25.7569854 Z"/>
  </g>
</svg>
