<svg xmlns="http://www.w3.org/2000/svg" width="48" height="48" viewBox="0 0 48 48">
  <g fill="none" transform="translate(3 3)">
    <path fill="#97C554" d="M1.5895129,35.7054617 C3.52611432,37.7563151 14.1631971,47.585809 30.859361,36.1779127 C42.9324003,26.7758202 42.630785,6.3916604 41.4709739,0.236023606 C41.0669331,1.13187482 27.04373,31.8407597 1.5895129,35.7054617 Z M41.4693493,0.230813397 C41.3214689,0.169724838 25.7889445,-1.94792947 10.4337756,7.94198616 C0.898727997,14.0832935 -0.361686753,23.0717645 0.0733589391,29.0611637 C22.3951862,26.5632313 40.9629997,0.935052946 41.4693493,0.230813397 Z"/>
    <path fill="#709B30" d="M41.4693493,0.230813397 C41.3214689,0.169724838 25.7889445,-1.94792947 10.4337756,7.94198616 C0.898727997,14.0832935 -0.361686753,23.0717645 0.0733589391,29.0611637 C22.3951862,26.5632313 40.9629997,0.935052946 41.4693493,0.230813397 Z"/>
  </g>
</svg>
