<svg xmlns="http://www.w3.org/2000/svg" width="48" height="48" viewBox="0 0 48 48">
  <g fill="none" fill-rule="evenodd">
    <path fill="#1B2143" fill-rule="nonzero" d="M23.2618243,1.01563909 C23.2551701,1.01171867 23.1382081,0.944548918 23.1481895,1.1225357 L23.1458861,1.12802428 C23.0117766,9.72183227 18.712593,12.0510807 16.3490403,15.1887184 C10.8945695,22.4294609 15.9671863,30.3680372 21.1327073,31.8353173 C24.0229728,32.6562519 20.4652308,30.3826734 20.0071085,25.5804281 C19.4530108,19.776125 27,15.345535 27,10.540676 C27,6.08969974 24.8767695,2.26206925 23.2618243,1.01563909 Z"/>
    <path fill="#2EA7E0" fill-rule="nonzero" d="M30.1792018,14.0382057 C30.0901687,15.1459598 29.0053523,17.5156275 27.6303448,19.6915252 C22.9667629,27.072181 25.6244093,30.630162 27.1187261,32.541098 C27.9864766,33.6504578 27.1187261,32.541098 29.2875893,31.407383 C29.4574447,31.3185271 33.5193486,28.9424361 33.9591252,23.5286526 C34.3850464,18.2861576 31.3663932,14.98163 30.2920966,14.0216121 C30.2589979,13.99806 30.2117872,13.9820017 30.1792018,14.0382057 Z"/>
    <g fill-rule="nonzero" transform="translate(4 35)">
      <path fill="#1B2143" d="M6.78157155.0101750025L6.78157155 4.69191253 2.16193718 4.69191253 2.16193718.612425002C2.16193718.279812505 1.89203895.0101750025 1.55927445.0101750025L1.64313008e-14.0101750025 1.64313008e-14 11.1667875C1.64313008e-14 11.4995375.269760675 11.769175.60266265 11.769175L2.16193718 11.769175 2.16193718 6.5800625 6.78157155 6.5800625 6.78157155 11.1667875C6.78157155 11.4995375 7.05133223 11.769175 7.38423428 11.769175L8.94337118 11.769175 8.94337118.612425002C8.94337118.279812505 8.6736105.0101750025 8.34070853.0101750025L6.78157155.0101750025M15.8498498 2.78245L15.8498498 8.35477498C15.8498498 8.86105003 15.5915068 9.34106248 15.1529566 9.59433748 13.9287851 10.3013625 12.6619692 9.41819998 12.6619692 8.25371248L12.6619692 3.38470003C12.6619692 3.0520875 12.3922085 2.78245 12.0593065 2.78245L10.4938417 2.78245 10.4938417 8.45226253C10.4938417 10.2766125 11.987086 11.769175 13.8122695 11.769175L14.6995496 11.769175C16.524733 11.769175 18.0179773 10.2766125 18.0179773 8.45226253L18.0179773 3.38470003C18.0179773 3.0520875 17.7482167 2.78245 17.4154522 2.78245L15.8498498 2.78245M25.6258888 8.03797498C25.6258888 9.11006248 24.7485132 9.82368748 23.6759359 9.82368748 22.6033586 9.82368748 21.7258454 9.11006248 21.7258454 8.03797498L21.7258454 6.50815003C21.7258454 5.43606253 22.6033586 4.72243753 23.6759359 4.72243753 24.7485132 4.72243753 25.6258888 5.43606253 25.6258888 6.50815003L25.6258888 8.03797498zM23.6759359 2.77695L23.6759359 2.77695C21.4082129 2.77695 19.5529033 4.39835 19.5529033 6.66490003L19.5529033 7.89085003C19.5529033 10.1574 21.4082129 11.769175 23.6759359 11.769175 25.9435214 11.769175 27.7989686 10.1574 27.7989686 7.89085003L27.7989686 6.66490003C27.7989686 4.39835 25.9435214 2.77695 23.6759359 2.77695L23.6759359 2.77695z"/>
      <path fill="#2EA7E0" d="M35.4387946 8.03797498C35.4387946 9.11006248 34.5612814 9.82368748 33.4887041 9.82368748 32.4162644 9.82368748 31.5386137 9.11006248 31.5386137 8.03797498L31.5386137 6.50815003C31.5386137 5.43606253 32.4162644 4.72243753 33.4887041 4.72243753 34.5612814 4.72243753 35.4387946 5.43606253 35.4387946 6.50815003L35.4387946 8.03797498zM33.4887041 2.77695L33.4887041 2.77695C32.7799805 2.77695 32.1117004 2.93535 31.5276086 3.2223125L31.5276086.602387505C31.5276086.269637502 31.2577104-6.83897383e-14 30.924946-6.83897383e-14L29.3656715-6.83897383e-14 29.3656715 7.89085003C29.3656715 10.1575375 31.2211187 11.769175 33.4887041 11.769175 35.7564271 11.769175 37.6117368 10.1575375 37.6117368 7.89085003L37.6117368 6.66490003C37.6117368 4.39835 35.7564271 2.77695 33.4887041 2.77695L33.4887041 2.77695zM39.8965176 11.769175L41.455792 11.769175 41.455792 3.8781875C41.455792 3.54543748 41.1858938 3.27580003 40.8531294 3.27580003L39.2939924 3.27580003 39.2939924 11.1667875C39.2939924 11.4995375 39.5637531 11.769175 39.8965176 11.769175M40.3748235 2.4206875C41.0411777 2.4206875 41.5813869 1.880725 41.5813869 1.214675 41.5813869.548625 41.0411777.008800005 40.3748235.008800005 39.7084692.008800005 39.1683976.548625 39.1683976 1.214675 39.1683976 1.880725 39.7084692 2.4206875 40.3748235 2.4206875"/>
    </g>
  </g>
</svg>
