<svg xmlns="http://www.w3.org/2000/svg" width="48" height="48" viewBox="0 0 48 48">
  <g fill="none" fill-rule="evenodd">
    <rect width="21.467" height="21.467" x="13.267" y="1" fill="#7ABEF8" rx="10.733"/>
    <rect width="21.467" height="21.467" x="13.267" y="25.533" fill="#1073F6" rx="10.733"/>
    <rect width="21.467" height="21.467" x="1" y="13.267" fill="#045BF5" rx="10.733"/>
    <rect width="21.467" height="21.467" x="25.533" y="13.267" fill="#4495F8" rx="10.733"/>
    <path fill="#0B45F3" d="M25.6610899,25.6610899 C26.3753911,30.258803 30.0078637,33.8912756 34.6055767,34.6055767 C33.8912756,30.0078637 30.258803,26.3753911 25.6610899,25.6610899 Z"/>
    <path fill="#1126F2" d="M13.3944233,34.6055767 C14.1087244,30.0078637 17.741197,26.3753911 22.3389101,25.6610899 C21.6246089,30.258803 17.9921363,33.8912756 13.3944233,34.6055767 Z"/>
    <path fill="#1B6EFA" d="M34.6055767,13.3944233 C33.8912756,17.9921363 30.258803,21.6246089 25.6610899,22.3389101 C26.3753911,17.741197 30.0078637,14.1087244 34.6055767,13.3944233 Z"/>
    <path fill="#0745F9" d="M22.3389101,22.3389101 C21.6246089,17.741197 17.9921363,14.1087244 13.3944233,13.3944233 C14.1087244,17.9921363 17.741197,21.6246089 22.3389101,22.3389101 Z"/>
  </g>
</svg>
