<svg xmlns="http://www.w3.org/2000/svg" width="48" height="48" viewBox="0 0 48 48">
  <path fill="#E91C41" d="M18.009354,13.4925373 L30.087562,13.4925373 C34.3696715,13.4925373 35.6325765,18.4392533 34.3696715,20.8853181 C33.1072298,23.3316123 30.2409081,26.1655154 28.147803,28.0246623 C26.2444116,29.6916101 23.4994696,31.3225494 20.0406111,27.8978293 C19.8579746,27.7481406 19.6788682,27.5942789 19.5034364,27.4363682 L22.0510205,24.8240214 C22.0834502,24.8510852 22.1249139,24.8921397 22.1552588,24.9157632 C23.7021552,26.4469332 24.5010839,26.4616119 26.0502967,24.9272309 C27.2082685,23.7907798 29.4762623,21.3646688 30.4607351,20.1967961 C31.4174111,19.0621799 31.9511112,16.630335 27.6518603,16.630335 L20.870348,16.630335 C18.0065743,16.630335 16.5268537,18.1131113 18.0269587,20.1967961 L18.3526455,20.6027535 L15.6424496,23.3930792 C14.9922342,22.5979075 14.4671048,21.8596156 14.2211024,21.3204034 C12.4638763,17.8956833 13.9463766,13.4925373 18.009354,13.4925373 Z M18.2408162,34.8358209 L18.2408162,34.8355915 C13.958488,34.8355915 12.6960502,29.8888883 13.958488,27.4428298 C15.2213892,24.9967713 18.0874706,22.1626461 20.180801,20.3037334 C22.0839551,18.6367898 24.8288888,17.0058548 28.2877368,20.4303367 C28.4703755,20.5801005 28.6494814,20.7340383 28.8249099,20.8920259 L26.2775652,23.504366 C26.2449039,23.4773022 26.2034404,23.4362479 26.1730955,23.4126244 C24.6264354,21.8814583 23.8272775,21.8667797 22.2780694,23.4011567 C21.1201011,24.5378343 18.8523458,26.9637097 17.8676443,28.13135 C16.9109712,29.2659633 16.3772727,31.6982606 20.6765106,31.6982606 L27.4580025,31.6982606 C30.3222307,31.6982606 31.8014836,30.2152588 30.3013831,28.13135 L29.9756973,27.7253937 L32.685885,24.9353045 C33.3360984,25.7304742 33.8614579,26.4685348 34.1074596,27.007975 C35.8642171,30.4324569 34.3821846,34.8358209 30.3192194,34.8358209 L18.2408162,34.8358209 Z M24,42.4515497 C34.1906277,42.4515497 42.4515683,34.1905659 42.4515683,23.9998848 C42.4515683,13.8094341 34.1906277,5.54821992 24,5.54821992 C13.8096026,5.54821992 5.54843168,13.8094341 5.54843168,23.9998848 C5.54843168,34.1905659 13.8096026,42.4515497 24,42.4515497 Z M2,23.9998848 C2,11.8495637 11.8499728,2 24,2 C36.1502575,2 46,11.8495637 46,23.9998848 C46,36.150206 36.1502575,46 24,46 C11.8499728,46 2,36.150206 2,23.9998848 Z"/>
</svg>
