<svg xmlns="http://www.w3.org/2000/svg" width="176" height="176" viewBox="0 0 176 176">
  <path fill="#00A0E9" d="M101.01875,115.275 C101.01875,115.275 88,125.6875 83.26875,128.41875 C79.6150463,130.526536 75.7447719,132.234318 71.725,133.5125 C68.7477993,134.503491 65.6812845,135.202614 62.56875,135.6 C59.95,135.8875 57.78125,136.06875 56.0625,136.15625 C55.8702316,136.243139 55.6609401,136.285852 55.45,136.28125 L53.48125,136.28125 C49.1915788,136.30676 44.9172605,135.766691 40.76875,134.675 C37.0567792,133.729993 33.5433276,132.129891 30.39375,129.95 C27.4844096,127.90506 25.0884263,125.213858 23.39375,122.0875 C21.66875,118.93125 20.8125,115.26875 20.8125,111.09375 C20.89375,107.49375 21.875,104.21875 23.75,101.26875 C25.655086,98.2998503 28.1427739,95.7483756 31.0625,93.76875 C34.1117833,91.6928162 37.4727882,90.1167518 41.01875,89.1 C44.5840299,88.0482768 48.2988646,87.594218 52.0125,87.75625 C55.6125,87.91875 59.09375,88.34375 62.45,89.0375 C65.7066373,89.7094726 68.9256689,90.552304 72.09375,91.5625 C75.1625,92.54375 78.06875,93.60625 80.8125,94.75 C83.5625,95.90625 86.15625,97.00625 88.6125,98.075 C90.7179079,98.9542452 92.8479387,99.7733275 95,100.53125 C97.375,97.5 99.375,94.53125 101.01875,91.625 C103.5792,87.127962 105.75768,82.4239505 107.53125,77.5625 C108.10625,75.925 108.46875,74.78125 108.6375,74.125 L55.325,74.125 L55.325,68.225 L80.5,68.225 L80.5,54.6 L45.49375,54.6 L45.49375,48.7 L80.50625,48.7 L80.50625,37.6375 C80.50625,36.90625 80.9125,36.3125 81.73125,35.8625 C82.55,35.4125 83.49375,35.10625 84.55625,34.9375 C85.7875,34.69375 87.18125,34.56875 88.73125,34.56875 L98.1875,34.56875 L98.1875,48.69375 L134.18125,48.69375 L134.18125,54.59375 L98.1875,54.59375 L98.1875,68.225 L126.7875,68.225 L126.80625,68.1 L126.80625,68.225 L126.7875,68.225 C126.2125,71.875 125.2375,75.725 123.8625,79.775 C122.460003,83.9071407 120.755402,87.9304999 118.7625,91.8125 C116.252791,96.7165641 113.269866,101.363646 109.85625,105.6875 C109.85625,105.6875 138.04375,119.18125 167.80625,123.925 C172.74375,112.96875 175.5,100.8 175.5,88 C175.5,39.675 136.325,0.5 88,0.5 C39.675,0.5 0.5,39.675 0.5,88 C0.5,136.31875 39.675,175.5 88,175.5 C117.975,175.5 144.425,160.425 160.2,137.44375 C144.175,133.95 127.15,126.88125 101.0125,115.275 L101.01875,115.275 Z M31.75,109.3125 C31.41875,124.29375 48.475,125.40625 51.10625,125.4875 C59.80625,125.75 66.825,122.4875 72.29375,119.2625 C77.75625,116.0375 86.675,107.7 87.0125,107.41875 C87.3375,107.13125 87.66875,106.825 87.99375,106.5 C85.60625,105.1875 83.2625,103.9875 80.9625,102.88125 C78.6625,101.78125 66.9625,95.5375 56.5875,94.475 C36.925,92.45 31.85,104.7625 31.75,109.3125 Z"/>
</svg>
