<svg xmlns="http://www.w3.org/2000/svg" width="48" height="48" viewBox="0 0 48 48">
  <path fill="#D0021B" fill-rule="evenodd" d="M49.69584,20.624496 L44.510064,13.063152 L16.151904,13.063152 L10.57728,20.01408 L22.824288,51.631728 L29.777472,35.07672 L36.398352,51.798384 L42.74304,36.953856 L53.008176,36.953856 L52.674768,37.839504 L52.344768,38.776128 L52.014768,39.6576 L51.571008,40.486512 L51.184368,41.367984 L50.689584,42.19464 L50.194368,42.970224 L49.69584,43.73832 L49.087248,44.51544 L48.815808,44.900256 L48.539088,45.283584 L47.930544,46.002144 L47.268672,46.667376 L46.607184,47.329248 L45.888624,47.99112 L45.1716,48.597792 L44.454912,49.149648 L43.684944,49.70112 L42.909696,50.252976 L42.079248,50.74968 L41.252544,51.191568 L40.42776,51.631536 L39.544032,52.020144 L38.66256,52.403472 L38.218848,52.572048 L37.777008,52.73688 L36.84024,53.012064 L35.903616,53.286864 L34.96512,53.508768 L33.969792,53.6736 L33.034608,53.838768 L32.043168,53.893584 L30.988992,54.001728 L30.000864,54.001728 L30.000864,54.001824 L29.392128,54.001824 L28.785504,53.950752 L27.573648,53.89368 L26.35656,53.728848 L25.74984,53.617008 L25.141248,53.508864 L24.589392,53.398848 L23.984592,53.234016 L22.882752,52.902144 L21.777456,52.572144 L20.672208,52.128432 L19.623648,51.631728 L18.578448,51.081696 L18.07992,50.806896 L17.585136,50.528352 L17.088432,50.19648 L16.589856,49.921296 L15.649488,49.204608 L15.213216,48.874608 L14.714256,48.542784 L13.8876,47.769408 L13.062864,46.942704 L12.619056,46.554144 L12.232368,46.114176 L11.847552,45.727152 L11.45712,45.28368 L10.797168,44.34888 L10.0824,43.410336 L9.47347201,42.416592 L9.19867201,41.921808 L8.92200001,41.426592 L8.37014398,40.376544 L7.87339197,39.32616 L7.48823997,38.2224 L7.101552,37.12272 L6.77155201,36.017136 L6.49483197,34.860432 L6.27484799,33.647088 L6.10814401,32.433408 L6.05294401,31.216272 L6,30.004752 L6,29.395872 L6.05294401,28.7892 L6.10814401,27.518736 L6.27484799,26.360544 L6.384864,25.755408 L6.49488,25.146816 L6.60302401,24.596832 L6.77159999,23.986464 L7.10159999,22.886832 L7.488288,21.724512 L7.87344,20.677824 L8.37019201,19.572576 L8.92204799,18.582576 L9.19872,18.032592 L9.47352,17.535888 L9.805392,17.037408 L10.082448,16.597344 L10.797216,15.660672 L11.13096,15.161712 L11.457216,14.720256 L12.232512,13.838352 L13.06296,13.009824 L13.447728,12.623136 L13.887696,12.236064 L14.274768,11.849376 L14.7144,11.460816 L15.649632,10.747872 L16.59,10.084128 L17.58528,9.47750398 L18.080064,9.20232 L18.578592,8.872656 L19.623792,8.37220802 L20.672352,7.87708799 L21.7776,7.437024 L22.882896,7.05038402 L23.984736,6.77711998 L25.141392,6.49665599 L26.356704,6.276672 L27.573792,6.11376001 L28.785648,6 L30.000864,6 L30.989184,6 L31.927728,6.05702401 L32.868144,6.16516802 L33.366672,6.219936 L33.806688,6.276672 L34.741488,6.44184002 L35.627136,6.66182401 L36.565632,6.88372798 L37.450896,7.16044802 L38.277552,7.49044801 L39.157488,7.82040002 L39.987888,8.15567998 L40.814592,8.53900802 L41.64312,8.982384 L42.413136,9.42235202 L43.18464,9.920928 L43.901664,10.417968 L44.620176,10.964208 L45.334992,11.519472 L45.998784,12.124656 L46.662096,12.7332 L47.32584,13.393152 L47.93064,14.001744 L48.539184,14.720304 L49.087296,15.440736 L49.587792,16.15176 L50.137776,16.87224 L50.579664,17.64408 L51.074496,18.470736 L51.461136,19.245984 L51.846288,20.073072 L52.231104,20.899728 L52.564848,21.783072 L49.201104,21.783072 L49.69584,20.624496 Z M14.38296,20.294496 L27.681936,20.294496 L20.89392,36.733824 L14.38296,20.294496 Z M43.7364,34.636704 L53.560032,34.636704 L53.336256,35.628576 L43.294512,35.628576 L43.7364,34.636704 Z M44.673072,32.319984 L53.888112,32.319984 L53.780016,33.315264 L44.288256,33.315264 L44.673072,32.319984 Z M28.011888,20.294496 L41.309328,20.294496 L34.521312,36.733824 L28.011888,20.294496 Z M46.662048,27.683904 L53.888112,27.683904 L54,28.679184 L46.220208,28.679184 L46.662048,27.683904 Z M45.279744,30.99624 L45.666816,30.004752 L54,30.004752 L54,30.99624 L45.279744,30.99624 Z M47.65392,25.3668 L53.560032,25.3668 L53.7252,26.360544 L47.213904,26.360544 L47.65392,25.3668 Z M48.64728,23.104944 L53.008176,23.104944 L53.285232,24.043488 L48.207312,24.043488 L48.64728,23.104944 Z" transform="matrix(1 0 0 -1 -6 54.002)"/>
</svg>
