<svg xmlns="http://www.w3.org/2000/svg" width="50" height="41" viewBox="0 0 50 41">
  <path fill="#09BB07" d="M35.0624259,30.4231625 C34.1876956,30.4231625 33.3127095,31.2398901 33.3127095,32.2452582 C33.3127095,33.0621572 34.1872692,33.8789705 35.0624259,33.8789705 C36.375161,33.8789705 37.312573,33.0620715 37.312573,32.2452582 C37.312573,31.2399759 36.3753315,30.4231625 35.0624259,30.4231625 L35.0624259,30.4231625 L35.0624259,30.4231625 Z M29.3125048,21.9394853 C30.6874952,21.9394853 31.5626519,21.0599919 31.5626519,19.7400229 C31.5626519,18.3575454 30.6875805,17.5407321 29.3125048,17.5407321 C28.0000256,17.5407321 26.7499723,18.3576311 26.7499723,19.7400229 C26.749887,21.0601634 28.0001109,21.9394853 29.3125048,21.9394853 L29.3125048,21.9394853 Z M22.7501087,40.226037 C20.4373651,40.226037 18.7499041,39.8492705 16.5624387,39.220669 L10.2500021,42.4258424 L12.0628267,37.0212066 C7.62521427,33.879485 5,29.9205214 5,25.0817213 C5,16.5354497 13.0000682,10 22.750194,10 C31.3751183,10 39.0627159,15.1530579 40.5626434,22.4428124 C39.937702,22.316852 39.375016,22.2542577 38.875097,22.2542577 C30.3751098,22.2542577 23.812799,28.663747 23.812799,36.3932053 C23.812799,37.7126598 24.0003326,38.9066683 24.3128033,40.1636142 C23.812799,40.226037 23.250113,40.226037 22.7501087,40.226037 L22.7501087,40.226037 Z M48.8126711,46.3842915 L50.0624686,50.9090909 L45.312556,48.2070731 C43.5001578,48.5838396 41.7501002,49.1494181 39.937702,49.1494181 C31.5625666,49.1494181 24.9376594,43.3682731 24.9376594,36.2045648 C24.9376594,29.0407707 31.5627372,23.25954 39.937702,23.25954 C47.8750032,23.25954 55,29.0407707 55,36.2045648 C55,40.226037 52.3126157,43.8078912 48.8126711,46.3843773 L48.8126711,46.3843773 L48.8126711,46.3842915 Z M16.9375059,17.5407321 C15.6250267,17.5407321 14.2501215,18.3576311 14.2501215,19.7400229 C14.2501215,21.0600776 15.6250267,21.939914 16.9375059,21.939914 C18.1877297,21.939914 19.187653,21.0600776 19.187653,19.7400229 C19.187653,18.3576311 18.1877297,17.5407321 16.9375059,17.5407321 L16.9375059,17.5407321 Z M44.8752335,30.4231625 C43.9375656,30.4231625 43.1250906,31.2398901 43.1250906,32.2452582 C43.1250906,33.0621572 43.9375656,33.8789705 44.8752335,33.8789705 C46.1250309,33.8789705 47.0626135,33.0620715 47.0626135,32.2452582 C47.0626135,31.2399759 46.1250309,30.4231625 44.8752335,30.4231625 L44.8752335,30.4231625 L44.8752335,30.4231625 Z" transform="translate(-5 -10)"/>
</svg>
