<?xml version="1.0" encoding="UTF-8"?>
<svg width="38px" height="38px" viewBox="0 0 38 38" version="1.1" xmlns="http://www.w3.org/2000/svg" xmlns:xlink="http://www.w3.org/1999/xlink">
    <!-- Generator: Sketch 56.3 (81716) - https://sketch.com -->
    <title>xhdpi/pic_ordinary_business</title>
    <desc>Created with Sketch.</desc>
    <g id="场外" stroke="none" stroke-width="1" fill="none" fill-rule="evenodd">
        <g id="商家申请" transform="translate(-14.000000, -116.000000)">
            <g id="pic_ordinary_business" transform="translate(15.000000, 117.000000)">
                <circle id="椭圆形" stroke="#28DFC2" stroke-width="1.5" fill-opacity="0" fill="#FFFFFF" cx="18" cy="18" r="18"></circle>
                <path d="M18.4001769,7.003279 C18.8014734,7.00338478 19.2012106,7.04929081 19.5910352,7.13972781 C19.9744674,7.22613176 20.3477612,7.34899157 20.7052651,7.50644719 C21.0331529,7.64919864 21.3439692,7.82494323 21.6323792,8.03066446 C21.8685626,8.19920248 22.0802351,8.39666779 22.2618902,8.6179232 C22.6170745,9.06116416 22.8850452,9.56168234 23.0528998,10.0953782 C23.2084609,10.6001399 23.3250493,11.1150045 23.4017371,11.6358746 C23.4771206,12.198483 23.5140271,12.76514 23.5122245,13.3322823 C23.6089721,13.4058374 23.6874299,13.4987673 23.7419982,13.6044395 C23.8007612,13.7247173 23.8435972,13.8514493 23.8695266,13.9817363 C23.9061701,14.1683221 23.9119617,14.3590331 23.8865675,14.5473113 C23.8661012,14.7887268 23.8058155,15.0255885 23.7079164,15.2492294 C23.6314531,15.401255 23.527865,15.539568 23.4017371,15.6580469 C23.2919103,15.7626161 23.1579473,15.8414556 23.0104647,15.8883175 C22.9463274,16.1128664 22.8783031,16.3363977 22.8064193,16.5588206 C22.729791,16.7405408 22.6531626,16.9182415 22.5681809,17.0935095 C22.4917831,17.2455985 22.3881455,17.3839275 22.2618902,17.502327 C22.0426562,17.6764172 21.8271687,17.8547189 21.6155611,18.0371217 C21.424672,18.2454315 21.308475,18.5059902 21.2837647,18.7811379 C21.2440125,18.9918634 21.2297378,19.2062118 21.2412181,19.4200145 C21.2610435,19.6437271 21.3214106,19.8622567 21.4198691,20.0662953 C21.5359303,20.2991139 21.6975961,20.5088239 21.8962347,20.6842286 C22.1643172,20.9091006 22.4725572,21.0866661 22.8064193,21.2085516 C23.1747768,21.3567921 23.552618,21.4828081 23.9376902,21.5858484 C24.3413672,21.6956706 24.7388428,21.8250971 25.1285484,21.9736169 C25.4967002,22.1089555 25.8431326,22.2924855 26.1577966,22.5188832 C26.4624896,22.7449579 26.6854744,23.0555441 26.7957723,23.4074928 C26.8727879,23.6785892 26.9240417,23.9556999 26.9489177,24.2354938 C26.9830376,24.5664937 27,24.8988822 27,25.2314643 C27.0015335,25.547421 26.9759427,25.8629737 26.923412,26.1749708 C26.8975672,26.4091811 26.8254322,26.6366593 26.7107906,26.8454739 C26.5450417,26.9941788 26.3387262,27.0957921 26.11525,27.1387859 C25.7210869,27.2533298 25.3207374,27.3477103 24.915927,27.4215205 C24.4310967,27.5120633 23.9037197,27.5927691 23.3082906,27.6638494 C22.7198145,27.7342371 22.1299545,27.793764 21.5390441,27.8423963 C20.9669857,27.8896436 20.3941672,27.9281856 19.8208089,27.9580076 C19.2763911,27.9862493 18.8001369,28 18.4002883,28 C18.0004397,28 17.5326502,27.9862493 16.9968085,27.9580076 C16.4608555,27.9296601 15.9164377,27.8916871 15.3466256,27.8423963 C14.7816075,27.7936484 14.2173123,27.7376181 13.653896,27.674321 C13.0924373,27.6112796 12.5821013,27.5450649 12.122888,27.475677 C11.6635633,27.4061833 11.2807556,27.3359491 10.9575354,27.265715 C10.7457776,27.2359298 10.5429208,27.1644113 10.3619949,27.0557531 C10.1496548,26.7514132 10.0371682,26.3940852 10.0387746,26.0290023 C9.96507149,25.2875923 9.99653865,24.5401405 10.1323325,23.8066849 C10.1677088,23.3516117 10.3872013,22.9272095 10.7448026,22.6224362 C11.0969378,22.3441615 11.4969173,22.1255737 11.9271961,21.9762612 C12.3875141,21.8117683 12.8558795,21.6683497 13.3306758,21.5465004 C13.787146,21.4321722 14.2209632,21.2480061 14.615092,21.001234 C14.8614292,20.8573752 15.0848491,20.6808153 15.2785733,20.476911 C15.4190505,20.3287039 15.5312876,20.1584036 15.6102583,19.973637 C15.6849771,19.8080271 15.7226397,19.6294777 15.7208571,19.449314 C15.7208571,19.2678053 15.712281,19.0650361 15.6952401,18.8410062 C15.6860009,18.5562096 15.5680821,18.2843093 15.3634437,18.0759409 C15.1559251,17.8758237 14.9403204,17.683417 14.7171146,17.4991538 C14.5939888,17.3817545 14.4957886,17.242961 14.4278648,17.0903363 C14.3499094,16.9126524 14.2733532,16.7344178 14.1982025,16.5556473 C14.1262161,16.3332536 14.0581913,16.1097206 13.9941572,15.8851443 C13.8893158,15.8529042 13.7913937,15.8031111 13.7050187,15.738118 C13.6022925,15.6510438 13.5109065,15.5526086 13.4328098,15.4449118 C13.3185547,15.2777862 13.235126,15.0933911 13.1861066,14.8996454 C13.1043634,14.6936245 13.0723905,14.4727979 13.0925487,14.2534704 C13.1069165,14.0819045 13.1441169,13.9127715 13.2031475,13.7500907 C13.2645464,13.5886716 13.3568328,13.4394204 13.4753564,13.3098582 C13.4612066,12.7775942 13.4896154,12.245078 13.5603381,11.7168977 C13.6212719,11.228471 13.7208285,10.7450924 13.8581641,10.2708577 C13.9926664,9.77781465 14.2140973,9.30995672 14.5130693,8.88711871 C14.7506995,8.52504566 15.0496068,8.20268842 15.3977483,7.93303481 C15.7011646,7.69984052 16.0358036,7.50588757 16.3929146,7.35624773 C16.7189043,7.22066942 17.0619654,7.12563866 17.4135867,7.07351312 C17.7401007,7.02540368 18.0699803,7.00082914 18.4003996,7 L18.4003996,7.003279 L18.4001769,7.003279 Z" id="路径" fill="#28DFC2" fill-rule="nonzero"></path>
            </g>
        </g>
    </g>
</svg>