<?xml version="1.0" encoding="utf-8"?>
<!-- Generator: Adobe Illustrator 22.0.0, SVG Export Plug-In . SVG Version: 6.00 Build 0)  -->
<svg version="1.2" baseProfile="tiny" id="图层_1"
	 xmlns="http://www.w3.org/2000/svg" xmlns:xlink="http://www.w3.org/1999/xlink" x="0px" y="0px" viewBox="0 0 1024 1024"
	 xml:space="preserve">
<g>
	<g>
		<path fill="none" d="M849.2,206.9H135.4c-9.8,0.1-17.7,8-17.8,17.8v142.8H867V224.7C866.9,214.9,859,207,849.2,206.9z"/>
		<path fill="#1266F1" d="M849.2,153.3H135.4c-18.9,0-37.1,7.5-50.5,20.9c-12.5,12.5-19.9,29.1-20.8,46.7v543
			c2,37.6,33.1,67.5,71.3,67.5h472.9c-2.9-3.8-5.6-7.7-8.2-11.7l-1.2-2c-2.5-3.8-4.8-7.7-7-11.7v-0.4c-5-9-9.3-18.2-13-27.8H135.4
			c-9.8-0.1-17.7-8-17.8-17.8V421H867v68.6c9.6,3.7,18.8,8.1,27.8,13h0.4c4,2.2,7.9,4.5,11.7,7l2,1.2c4,2.6,7.9,5.3,11.7,8.2V224.7
			C920.6,185.3,888.6,153.3,849.2,153.3z M867,367.5H117.5V224.7c0.1-9.8,8-17.7,17.8-17.8h713.8c9.8,0.1,17.7,8,17.8,17.8V367.5z"
			/>
	</g>
	<path fill="#1266F1" d="M220.1,286.3c0,19.7,16,35.7,35.7,35.7s35.7-16,35.7-35.7c0-19.7-16-35.7-35.7-35.7
		S220.1,266.6,220.1,286.3L220.1,286.3z M220.1,286.3"/>
	<g>
		<path fill="none" d="M853.7,617.9c-0.5-4.1-2.9-7.8-6.5-9.9c-5.5-3.1-12.4-2-16.8,2.5l-43.6,43.6l-44.1-44.1
			c-2.9-2.9-7-4.4-11.2-3.8c-4.1,0.5-7.8,2.9-9.9,6.5c-3.1,5.5-2,12.4,2.5,16.8l43.5,43.6h-34.6c-4.1,0-8,1.9-10.6,5.2
			c-2.5,3.3-3.4,7.5-2.4,11.5c1.7,6.1,7.3,10.2,13.6,10.1h39.5v26.8h-40.2c-4.1,0-8,1.9-10.6,5.2c-2.5,3.3-3.4,7.5-2.4,11.5
			c1.7,6.1,7.3,10.2,13.6,10.1h39.5v22.3c0,4.1,1.9,8,5.2,10.6c3.3,2.5,7.5,3.4,11.5,2.4c6.1-1.7,10.2-7.3,10.1-13.6v-21.7h40.2
			c4.1,0,8-1.9,10.6-5.2c2.5-3.3,3.4-7.5,2.4-11.5c-1.7-6.1-7.3-10.2-13.6-10.1l-39.5,0v-26.8h39.5c6.3,0.2,11.9-4,13.6-10.1
			c1-4,0.1-8.3-2.4-11.5c-2.5-3.3-6.4-5.2-10.6-5.2h-34.5l44.1-44.1C852.8,626.1,854.2,622,853.7,617.9z"/>
		<path fill="#1266F1" d="M425.3,286.3c0-19.7-16-35.7-35.7-35.7c-19.7,0-35.7,16-35.7,35.7c0,19.7,16,35.7,35.7,35.7
			C409.3,322,425.3,306,425.3,286.3z"/>
		<path fill="#1266F1" d="M786.7,524.1c-70.2,0-133.4,42.3-160.3,107.1c-26.9,64.8-12,139.5,37.6,189.1
			c49.6,49.6,124.2,64.5,189.1,37.6C918,831,960.2,767.8,960.2,697.6C960.1,601.8,882.5,524.2,786.7,524.1z M840.3,673.1
			c4.1,0,8,1.9,10.6,5.2c2.5,3.3,3.4,7.5,2.4,11.5c-1.7,6.1-7.3,10.2-13.6,10.1h-39.5v26.8l39.5,0c6.3-0.1,11.9,4,13.6,10.1
			c1,4,0.1,8.3-2.4,11.5c-2.5,3.3-6.4,5.2-10.6,5.2h-40.2v21.7c0.2,6.3-4,11.9-10.1,13.6c-4,1-8.3,0.1-11.5-2.4
			c-3.3-2.5-5.2-6.4-5.2-10.6v-22.3h-39.5c-6.3,0.1-11.9-4-13.6-10.1c-1-4-0.1-8.3,2.4-11.5c2.5-3.3,6.4-5.2,10.6-5.2h40.2v-26.8
			h-39.5c-6.3,0.2-11.9-4-13.6-10.1c-1-4-0.1-8.3,2.4-11.5c2.5-3.3,6.4-5.2,10.6-5.2h34.6l-43.5-43.6c-4.6-4.4-5.6-11.3-2.5-16.8
			c2.1-3.6,5.7-6,9.9-6.5c4.1-0.5,8.2,0.9,11.2,3.8l44.1,44.1l43.6-43.6c4.4-4.6,11.3-5.6,16.8-2.5c3.6,2.1,6,5.7,6.5,9.9
			c0.5,4.1-0.9,8.2-3.8,11.2l-44.1,44.1H840.3z"/>
	</g>
</g>
</svg>
