<?xml version="1.0" encoding="utf-8"?>
<!-- Generator: Adobe Illustrator 18.0.0, SVG Export Plug-In . SVG Version: 6.00 Build 0)  -->
<!DOCTYPE svg PUBLIC "-//W3C//DTD SVG 1.1//EN" "http://www.w3.org/Graphics/SVG/1.1/DTD/svg11.dtd">
<svg version="1.1" id="图层_1" xmlns="http://www.w3.org/2000/svg" xmlns:xlink="http://www.w3.org/1999/xlink" x="0px" y="0px"
	 viewBox="0 0 20 20" enable-background="new 0 0 20 20" xml:space="preserve">
<path fill="#999999" d="M1.8,9.2"/>
<g>
	<g>
		<g>
			<polygon fill="#508CEE" points="13.7,11 10.2,11 10.9,7.6 6.3,13.1 9.8,13.1 9.1,16.5 			"/>
		</g>
	</g>
	<path fill="#508CEE" d="M18.9,7.7l-7.7-7c-0.3-0.3-0.8-0.5-1.2-0.5c-0.5,0-0.9,0.2-1.2,0.5l-7.7,7C0.6,8,0.4,8.6,0.5,9.2
		c0,0.6,0.4,1.1,0.9,1.4l1.4,0.8v6.6c0,1,0.8,1.8,1.8,1.8h10.8c1,0,1.8-0.8,1.8-1.8v-6.6l1.5-0.8c0.5-0.3,0.8-0.8,0.8-1.4
		C19.6,8.6,19.4,8,18.9,7.7z M17.9,9.1l-2.3,1.2v7.6c0,0.1-0.1,0.2-0.2,0.2H4.6c-0.1,0-0.2-0.1-0.2-0.2v-7.6L2.2,9.1
		C2.1,9.1,2.1,9.1,2.1,9c0,0,0-0.1,0.1-0.1l7.7-7c0,0,0.1,0,0.1,0c0,0,0.1,0,0.1,0l7.7,7c0.1,0,0.1,0.1,0.1,0.1
		C17.9,9.1,17.9,9.1,17.9,9.1z"/>
</g>
</svg>
