<?xml version="1.0" encoding="UTF-8"?>
<svg width="22px" height="22px" viewBox="0 0 22 22" version="1.1" xmlns="http://www.w3.org/2000/svg" xmlns:xlink="http://www.w3.org/1999/xlink">
    <!-- Generator: Sketch 57.1 (83088) - https://sketch.com -->
    <title>ZB.COM/0_Global/title_more</title>
    <desc>Created with Sketch.</desc>
    <g id="ZB.com" stroke="none" stroke-width="1" fill="none" fill-rule="evenodd">
        <g id="assets-32" transform="translate(-336.000000, -57.000000)" fill="#666666">
            <g id="ZB.COM/0_Bars/title_large">
                <g id="ZB.COM/0_Global/title_filter" transform="translate(331.000000, 52.000000)">
                    <path d="M19.1135343,5 C21.4704085,5 22.8700627,7.68201588 21.3884145,9.57128245 L16.9736381,14.7732286 L16.9736381,23.3924394 C16.9808272,24.4788133 16.3440215,25.4662304 15.363224,25.9398342 L15.3410963,25.9503525 L13.744733,26.6972355 C11.6852988,27.6819786 9.98067441,26.11579 9.98067441,24.1412725 L9.98067441,14.7688798 L5.63804867,9.62490073 C4.11151661,7.68048318 5.51030106,5 7.86562684,5 L19.1135343,5 Z M26,24 C26.5522847,24 27,24.4477153 27,25 C27,25.5522847 26.5522847,26 26,26 L22,26 C21.4477153,26 21,25.5522847 21,25 C21,24.4477153 21.4477153,24 22,24 L26,24 Z M19.1135343,6.99770393 L7.86562684,6.99770393 C7.14637632,6.99770393 6.73447995,7.78553874 7.16728477,8.33741312 L11.7485907,13.766453 C11.8991315,13.9595115 11.9806744,14.1935218 11.9806744,14.4353325 L11.9806744,24.1412725 C11.9806744,24.7613999 12.3172166,25.1650677 12.8963805,24.8881555 L14.4927438,24.1412725 C14.7875529,23.9989162 14.9757289,23.7103034 14.9736381,23.3924394 L14.9736381,14.4353325 C14.9736381,14.1935218 15.0572718,13.9575614 15.2078126,13.7645029 L19.8139672,8.3393632 C20.246772,7.78748882 19.8348756,6.99770393 19.1135343,6.99770393 Z M26,20 C26.5522847,20 27,20.4477153 27,21 C27,21.5522847 26.5522847,22 26,22 L22,22 C21.4477153,22 21,21.5522847 21,21 C21,20.4477153 21.4477153,20 22,20 L26,20 Z M26,16 C26.5522847,16 27,16.4477153 27,17 C27,17.5522847 26.5522847,18 26,18 L22,18 C21.4477153,18 21,17.5522847 21,17 C21,16.4477153 21.4477153,16 22,16 L26,16 Z" id="Combined-Shape"></path>
                </g>
            </g>
        </g>
    </g>
</svg>