<svg xmlns="http://www.w3.org/2000/svg" width="51" height="51" viewBox="0 0 51 51">
  <path fill="#FD5C5C" d="M25.3426944,15.4639808 C20.3605113,15.4639808 22.306067,20.6300044 18.531991,20.6287395 C17.1690952,20.6287395 16,19.8065271 16,18.2417937 C16,14.4052242 20.3630282,11 25.1111405,11 C30.0958405,11 35,13.3110493 35,18.8274619 C35,23.9163241 29.1973109,25.8731896 27.952709,27.7111505 C27.0176845,29.0823477 27.3285203,31 24.758776,31 C23.0837859,31 22.2683137,29.6313326 22.2683137,28.3790399 C22.2683137,23.7227879 29.081534,22.6652963 29.081534,18.8287268 C29.081534,16.7162735 27.678368,15.4639808 25.3426944,15.4639808 Z M28,37 C28,38.6472211 26.6460386,40 25,40 C23.3539614,40 22,38.6472211 22,37 C22,35.3551439 23.3539614,34 25,34 C26.6460386,34 28,35.3527789 28,37 Z M51,25.5 C51,39.5617336 39.5604626,51 25.5,51 C11.4395374,51 0,39.5604626 0,25.5 C0,11.4395374 11.4395374,0 25.5,0 C39.5604626,0 51,11.4395374 51,25.5 Z M2.54211943,25.5 C2.54211943,38.1584837 12.8415163,48.4578806 25.5,48.4578806 C38.1584837,48.4578806 48.4578806,38.1584837 48.4578806,25.5 C48.4578806,12.8415163 38.1584837,2.54211943 25.5,2.54211943 C12.8415163,2.54211943 2.54211943,12.8415163 2.54211943,25.5 Z"/>
</svg>
