<?xml version="1.0" encoding="UTF-8"?>
<svg width="30px" height="30px" viewBox="0 0 30 30" version="1.1" xmlns="http://www.w3.org/2000/svg" xmlns:xlink="http://www.w3.org/1999/xlink">
    <!-- Generator: Sketch 55.2 (78181) - https://sketchapp.com -->
    <title>Safari</title>
    <desc>Created with Sketch.</desc>
    <defs>
        <linearGradient x1="50%" y1="0%" x2="50%" y2="100%" id="linearGradient-1">
            <stop stop-color="#33A4E8" offset="0%"></stop>
            <stop stop-color="#2D74F7" offset="100%"></stop>
        </linearGradient>
    </defs>
    <g id="页面-1" stroke="none" stroke-width="1" fill="none" fill-rule="evenodd">
        <g id="FAQ-02_mobile-Copy-6" transform="translate(-227.000000, -139.000000)">
            <g id="Safari" transform="translate(227.000000, 139.000000)">
                <g>
                    <path d="M8.65311255,-3.49596104e-16 L21.3468875,3.49596104e-16 C24.3557632,-2.03125404e-16 25.4468542,0.313286438 26.5468542,0.901572875 C27.6468542,1.48985931 28.5101407,2.35314575 29.0984271,3.45314575 C29.6867136,4.55314575 30,5.6442368 30,8.65311255 L30,21.3468875 C30,24.3557632 29.6867136,25.4468542 29.0984271,26.5468542 C28.5101407,27.6468542 27.6468542,28.5101407 26.5468542,29.0984271 C25.4468542,29.6867136 24.3557632,30 21.3468875,30 L8.65311255,30 C5.6442368,30 4.55314575,29.6867136 3.45314575,29.0984271 C2.35314575,28.5101407 1.48985931,27.6468542 0.901572875,26.5468542 C0.313286438,25.4468542 1.35416936e-16,24.3557632 -2.33064069e-16,21.3468875 L2.33064069e-16,8.65311255 C-1.35416936e-16,5.6442368 0.313286438,4.55314575 0.901572875,3.45314575 C1.48985931,2.35314575 2.35314575,1.48985931 3.45314575,0.901572875 C4.55314575,0.313286438 5.6442368,2.03125404e-16 8.65311255,-3.49596104e-16 Z" id="App-Icon" fill="#FFFFFF"></path>
                    <circle id="Face" fill="url(#linearGradient-1)" cx="15" cy="15" r="8.75"></circle>
                    <polygon id="Needle" fill="#FFFFFF" transform="translate(12.314563, 17.779476) rotate(-315.000000) translate(-12.314563, -17.779476) " points="11.314563 14.0919755 13.314563 14.0919755 12.314563 21.4669755"></polygon>
                    <polygon id="Rectangle-41-Copy" fill="#FF4D4D" transform="translate(17.529476, 12.564563) rotate(45.000000) translate(-17.529476, -12.564563) " points="18.5294755 16.252063 17.5294755 8.87706304 16.5294755 16.252063"></polygon>
                    <path d="M14.875,7.37261963 C14.875,7.30489868 14.9329834,7.25 15,7.25 C15.0690356,7.25 15.125,7.31561279 15.125,7.37261963 L15.125,8.12738037 C15.125,8.19510132 15.0670166,8.25 15,8.25 C14.9309644,8.25 14.875,8.18438721 14.875,8.12738037 L14.875,7.37261963 Z M16.0697241,7.44697103 C16.080318,7.38008384 16.1461756,7.33493165 16.2123671,7.34541536 C16.2805528,7.35621491 16.325564,7.42977466 16.3166462,7.48607965 L16.1985756,8.23154803 C16.1879817,8.29843523 16.1221242,8.34358741 16.0559326,8.3331037 C15.987747,8.32230415 15.9427357,8.2487444 15.9516535,8.19243942 L16.0697241,7.44697103 Z M17.2381081,7.70730307 C17.259035,7.64289662 17.3311451,7.60860273 17.3948817,7.629312 C17.4605385,7.65064517 17.4934883,7.7303406 17.4758722,7.78455732 L17.2426383,8.50237744 C17.2217114,8.56678389 17.1496013,8.60107778 17.0858647,8.58036852 C17.020208,8.55903534 16.9872581,8.47933992 17.0048742,8.42512319 L17.2381081,7.70730307 Z M18.3513824,8.14720551 C18.3821271,8.08686571 18.4587141,8.06427454 18.5184264,8.09469944 C18.5799375,8.12604094 18.6000146,8.20990968 18.574134,8.26070314 L18.2314798,8.93319988 C18.2007352,8.99353969 18.1241481,9.01613086 18.0644359,8.98570596 C18.0029247,8.95436446 17.9828476,8.87049572 18.0087282,8.81970226 L18.3513824,8.14720551 Z M19.3821346,8.7558465 C19.4219399,8.7010591 19.5011181,8.69072692 19.5553357,8.73011829 C19.6111867,8.7706964 19.6178966,8.85667331 19.5843888,8.90279281 L19.1407516,9.51340708 C19.1009462,9.56819448 19.021768,9.57852666 18.9675505,9.53913529 C18.9116995,9.49855718 18.9049896,9.41258027 18.9384973,9.36646077 L19.3821346,8.7558465 Z M20.304984,9.51823927 C20.35287,9.47035333 20.4326897,9.47253455 20.4800776,9.51992245 C20.5288931,9.56873798 20.5220707,9.65470604 20.4817607,9.69501596 L19.9480643,10.2287124 C19.9001783,10.2765983 19.8203587,10.2744171 19.7729708,10.2270292 C19.7241552,10.1782137 19.7309777,10.0922456 19.7712876,10.0519357 L20.304984,9.51823927 Z M21.0972072,10.4156112 C21.1519946,10.3758058 21.2304903,10.3904467 21.2698817,10.4446643 C21.3104598,10.5005153 21.290273,10.5843577 21.2441535,10.6178654 L20.6335392,11.0615027 C20.5787518,11.101308 20.5002561,11.0866671 20.4608647,11.0324495 C20.4202866,10.9765986 20.4404734,10.8927562 20.4865929,10.8592484 L21.0972072,10.4156112 Z M21.7392969,11.425866 C21.7996367,11.3951213 21.8748757,11.4218614 21.9053006,11.4815736 C21.9366421,11.5430848 21.9035879,11.622737 21.8527945,11.6486176 L21.1802977,11.9912718 C21.1199579,12.0220165 21.0447189,11.9952764 21.014294,11.9355641 C20.9829525,11.874053 21.0160067,11.7944007 21.0668001,11.7685202 L21.7392969,11.425866 Z M22.2154427,12.5241278 C22.2798491,12.5032009 22.3499787,12.5413817 22.370688,12.6051183 C22.3920212,12.670775 22.3469137,12.7442758 22.2926969,12.7618919 L21.5748768,12.9951258 C21.5104704,13.0160527 21.4403408,12.9778719 21.4196315,12.9141353 C21.3982983,12.8484785 21.4434058,12.7749778 21.4976226,12.7573617 L22.2154427,12.5241278 Z M22.5139204,13.6833538 C22.5808075,13.6727599 22.6441009,13.7214414 22.6545846,13.7876329 C22.6653842,13.8558185 22.609334,13.921358 22.553029,13.9302759 L21.8075606,14.0483465 C21.7406734,14.0589404 21.67738,14.0102589 21.6668963,13.9440674 C21.6560968,13.8758817 21.712147,13.8103422 21.768452,13.8014244 L22.5139204,13.6833538 Z M22.6273804,14.875 C22.6951013,14.875 22.75,14.9329834 22.75,15 C22.75,15.0690356 22.6843872,15.125 22.6273804,15.125 L21.8726196,15.125 C21.8048987,15.125 21.75,15.0670166 21.75,15 C21.75,14.9309644 21.8156128,14.875 21.8726196,14.875 L22.6273804,14.875 Z M22.553029,16.0697241 C22.6199162,16.080318 22.6650683,16.1461756 22.6545846,16.2123671 C22.6437851,16.2805528 22.5702253,16.325564 22.5139204,16.3166462 L21.768452,16.1985756 C21.7015648,16.1879817 21.6564126,16.1221242 21.6668963,16.0559326 C21.6776958,15.987747 21.7512556,15.9427357 21.8075606,15.9516535 L22.553029,16.0697241 Z M22.2926969,17.2381081 C22.3571034,17.259035 22.3913973,17.3311451 22.370688,17.3948817 C22.3493548,17.4605385 22.2696594,17.4934883 22.2154427,17.4758722 L21.4976226,17.2426383 C21.4332161,17.2217114 21.3989222,17.1496013 21.4196315,17.0858647 C21.4409647,17.020208 21.5206601,16.9872581 21.5748768,17.0048742 L22.2926969,17.2381081 Z M21.8527945,18.3513824 C21.9131343,18.3821271 21.9357255,18.4587141 21.9053006,18.5184264 C21.8739591,18.5799375 21.7900903,18.6000146 21.7392969,18.574134 L21.0668001,18.2314798 C21.0064603,18.2007352 20.9838691,18.1241481 21.014294,18.0644359 C21.0456355,18.0029247 21.1295043,17.9828476 21.1802977,18.0087282 L21.8527945,18.3513824 Z M21.2441535,19.3821346 C21.2989409,19.4219399 21.3092731,19.5011181 21.2698817,19.5553357 C21.2293036,19.6111867 21.1433267,19.6178966 21.0972072,19.5843888 L20.4865929,19.1407516 C20.4318055,19.1009462 20.4214733,19.021768 20.4608647,18.9675505 C20.5014428,18.9116995 20.5874197,18.9049896 20.6335392,18.9384973 L21.2441535,19.3821346 Z M20.4817607,20.304984 C20.5296467,20.35287 20.5274654,20.4326897 20.4800776,20.4800776 C20.431262,20.5288931 20.345294,20.5220707 20.304984,20.4817607 L19.7712876,19.9480643 C19.7234017,19.9001783 19.7255829,19.8203587 19.7729708,19.7729708 C19.8217863,19.7241552 19.9077544,19.7309777 19.9480643,19.7712876 L20.4817607,20.304984 Z M19.5843888,21.0972072 C19.6241942,21.1519946 19.6095533,21.2304903 19.5553357,21.2698817 C19.4994847,21.3104598 19.4156423,21.290273 19.3821346,21.2441535 L18.9384973,20.6335392 C18.898692,20.5787518 18.9133329,20.5002561 18.9675505,20.4608647 C19.0234014,20.4202866 19.1072438,20.4404734 19.1407516,20.4865929 L19.5843888,21.0972072 Z M18.574134,21.7392969 C18.6048787,21.7996367 18.5781386,21.8748757 18.5184264,21.9053006 C18.4569152,21.9366421 18.377263,21.9035879 18.3513824,21.8527945 L18.0087282,21.1802977 C17.9779835,21.1199579 18.0047236,21.0447189 18.0644359,21.014294 C18.125947,20.9829525 18.2055993,21.0160067 18.2314798,21.0668001 L18.574134,21.7392969 Z M17.4758722,22.2154427 C17.4967991,22.2798491 17.4586183,22.3499787 17.3948817,22.370688 C17.329225,22.3920212 17.2557242,22.3469137 17.2381081,22.2926969 L17.0048742,21.5748768 C16.9839473,21.5104704 17.0221281,21.4403408 17.0858647,21.4196315 C17.1515215,21.3982983 17.2250222,21.4434058 17.2426383,21.4976226 L17.4758722,22.2154427 Z M16.3166462,22.5139204 C16.3272401,22.5808075 16.2785586,22.6441009 16.2123671,22.6545846 C16.1441815,22.6653842 16.078642,22.609334 16.0697241,22.553029 L15.9516535,21.8075606 C15.9410596,21.7406734 15.9897411,21.67738 16.0559326,21.6668963 C16.1241183,21.6560968 16.1896578,21.712147 16.1985756,21.768452 L16.3166462,22.5139204 Z M15.125,22.6273804 C15.125,22.6951013 15.0670166,22.75 15,22.75 C14.9309644,22.75 14.875,22.6843872 14.875,22.6273804 L14.875,21.8726196 C14.875,21.8048987 14.9329834,21.75 15,21.75 C15.0690356,21.75 15.125,21.8156128 15.125,21.8726196 L15.125,22.6273804 Z M13.9302759,22.553029 C13.919682,22.6199162 13.8538244,22.6650683 13.7876329,22.6545846 C13.7194472,22.6437851 13.674436,22.5702253 13.6833538,22.5139204 L13.8014244,21.768452 C13.8120183,21.7015648 13.8778758,21.6564126 13.9440674,21.6668963 C14.012253,21.6776958 14.0572643,21.7512556 14.0483465,21.8075606 L13.9302759,22.553029 Z M12.7618919,22.2926969 C12.740965,22.3571034 12.6688549,22.3913973 12.6051183,22.370688 C12.5394615,22.3493548 12.5065117,22.2696594 12.5241278,22.2154427 L12.7573617,21.4976226 C12.7782886,21.4332161 12.8503987,21.3989222 12.9141353,21.4196315 C12.979792,21.4409647 13.0127419,21.5206601 12.9951258,21.5748768 L12.7618919,22.2926969 Z M11.6486176,21.8527945 C11.6178729,21.9131343 11.5412859,21.9357255 11.4815736,21.9053006 C11.4200625,21.8739591 11.3999854,21.7900903 11.425866,21.7392969 L11.7685202,21.0668001 C11.7992648,21.0064603 11.8758519,20.9838691 11.9355641,21.014294 C11.9970753,21.0456355 12.0171524,21.1295043 11.9912718,21.1802977 L11.6486176,21.8527945 Z M10.6178654,21.2441535 C10.5780601,21.2989409 10.4988819,21.3092731 10.4446643,21.2698817 C10.3888133,21.2293036 10.3821034,21.1433267 10.4156112,21.0972072 L10.8592484,20.4865929 C10.8990538,20.4318055 10.978232,20.4214733 11.0324495,20.4608647 C11.0883005,20.5014428 11.0950104,20.5874197 11.0615027,20.6335392 L10.6178654,21.2441535 Z M9.69501596,20.4817607 C9.64713002,20.5296467 9.56731034,20.5274654 9.51992245,20.4800776 C9.47110691,20.431262 9.47792935,20.345294 9.51823927,20.304984 L10.0519357,19.7712876 C10.0998217,19.7234017 10.1796413,19.7255829 10.2270292,19.7729708 C10.2758448,19.8217863 10.2690223,19.9077544 10.2287124,19.9480643 L9.69501596,20.4817607 Z M8.90279281,19.5843888 C8.84800541,19.6241942 8.76950966,19.6095533 8.73011829,19.5553357 C8.68954019,19.4994847 8.709727,19.4156423 8.7558465,19.3821346 L9.36646077,18.9384973 C9.42124817,18.898692 9.49974392,18.9133329 9.53913529,18.9675505 C9.57971339,19.0234014 9.55952658,19.1072438 9.51340708,19.1407516 L8.90279281,19.5843888 Z M8.26070314,18.574134 C8.20036333,18.6048787 8.12512434,18.5781386 8.09469944,18.5184264 C8.06335793,18.4569152 8.09641205,18.377263 8.14720551,18.3513824 L8.81970226,18.0087282 C8.88004207,17.9779835 8.95528106,18.0047236 8.98570596,18.0644359 C9.01704747,18.125947 8.98399335,18.2055993 8.93319988,18.2314798 L8.26070314,18.574134 Z M7.78455732,17.4758722 C7.72015087,17.4967991 7.65002127,17.4586183 7.629312,17.3948817 C7.60797883,17.329225 7.65308635,17.2557242 7.70730307,17.2381081 L8.42512319,17.0048742 C8.48952965,16.9839473 8.55965925,17.0221281 8.58036852,17.0858647 C8.60170169,17.1515215 8.55659416,17.2250222 8.50237744,17.2426383 L7.78455732,17.4758722 Z M7.48607965,16.3166462 C7.41919245,16.3272401 7.35589907,16.2785586 7.34541536,16.2123671 C7.33461581,16.1441815 7.39066604,16.078642 7.44697103,16.0697241 L8.19243942,15.9516535 C8.25932661,15.9410596 8.32261999,15.9897411 8.3331037,16.0559326 C8.34390325,16.1241183 8.28785302,16.1896578 8.23154803,16.1985756 L7.48607965,16.3166462 Z M7.37261963,15.125 C7.30489868,15.125 7.25,15.0670166 7.25,15 C7.25,14.9309644 7.31561279,14.875 7.37261963,14.875 L8.12738037,14.875 C8.19510132,14.875 8.25,14.9329834 8.25,15 C8.25,15.0690356 8.18438721,15.125 8.12738037,15.125 L7.37261963,15.125 Z M7.44697103,13.9302759 C7.38008384,13.919682 7.33493165,13.8538244 7.34541536,13.7876329 C7.35621491,13.7194472 7.42977466,13.674436 7.48607965,13.6833538 L8.23154803,13.8014244 C8.29843523,13.8120183 8.34358741,13.8778758 8.3331037,13.9440674 C8.32230415,14.012253 8.2487444,14.0572643 8.19243942,14.0483465 L7.44697103,13.9302759 Z M7.70730307,12.7618919 C7.64289662,12.740965 7.60860273,12.6688549 7.629312,12.6051183 C7.65064517,12.5394615 7.7303406,12.5065117 7.78455732,12.5241278 L8.50237744,12.7573617 C8.56678389,12.7782886 8.60107778,12.8503987 8.58036852,12.9141353 C8.55903534,12.979792 8.47933992,13.0127419 8.42512319,12.9951258 L7.70730307,12.7618919 Z M8.14720551,11.6486176 C8.08686571,11.6178729 8.06427454,11.5412859 8.09469944,11.4815736 C8.12604094,11.4200625 8.20990968,11.3999854 8.26070314,11.425866 L8.93319988,11.7685202 C8.99353969,11.7992648 9.01613086,11.8758519 8.98570596,11.9355641 C8.95436446,11.9970753 8.87049572,12.0171524 8.81970226,11.9912718 L8.14720551,11.6486176 Z M8.7558465,10.6178654 C8.7010591,10.5780601 8.69072692,10.4988819 8.73011829,10.4446643 C8.7706964,10.3888133 8.85667331,10.3821034 8.90279281,10.4156112 L9.51340708,10.8592484 C9.56819448,10.8990538 9.57852666,10.978232 9.53913529,11.0324495 C9.49855718,11.0883005 9.41258027,11.0950104 9.36646077,11.0615027 L8.7558465,10.6178654 Z M9.51823927,9.69501596 C9.47035333,9.64713002 9.47253455,9.56731034 9.51992245,9.51992245 C9.56873798,9.47110691 9.65470604,9.47792935 9.69501596,9.51823927 L10.2287124,10.0519357 C10.2765983,10.0998217 10.2744171,10.1796413 10.2270292,10.2270292 C10.1782137,10.2758448 10.0922456,10.2690223 10.0519357,10.2287124 L9.51823927,9.69501596 Z M10.4156112,8.90279281 C10.3758058,8.84800541 10.3904467,8.76950966 10.4446643,8.73011829 C10.5005153,8.68954019 10.5843577,8.709727 10.6178654,8.7558465 L11.0615027,9.36646077 C11.101308,9.42124817 11.0866671,9.49974392 11.0324495,9.53913529 C10.9765986,9.57971339 10.8927562,9.55952658 10.8592484,9.51340708 L10.4156112,8.90279281 Z M11.425866,8.26070314 C11.3951213,8.20036333 11.4218614,8.12512434 11.4815736,8.09469944 C11.5430848,8.06335793 11.622737,8.09641205 11.6486176,8.14720551 L11.9912718,8.81970226 C12.0220165,8.88004207 11.9952764,8.95528106 11.9355641,8.98570596 C11.874053,9.01704747 11.7944007,8.98399335 11.7685202,8.93319988 L11.425866,8.26070314 Z M12.5241278,7.78455732 C12.5032009,7.72015087 12.5413817,7.65002127 12.6051183,7.629312 C12.670775,7.60797883 12.7442758,7.65308635 12.7618919,7.70730307 L12.9951258,8.42512319 C13.0160527,8.48952965 12.9778719,8.55965925 12.9141353,8.58036852 C12.8484785,8.60170169 12.7749778,8.55659416 12.7573617,8.50237744 L12.5241278,7.78455732 Z M13.6833538,7.48607965 C13.6727599,7.41919245 13.7214414,7.35589907 13.7876329,7.34541536 C13.8558185,7.33461581 13.921358,7.39066604 13.9302759,7.44697103 L14.0483465,8.19243942 C14.0589404,8.25932661 14.0102589,8.32261999 13.9440674,8.3331037 C13.8758817,8.34390325 13.8103422,8.28785302 13.8014244,8.23154803 L13.6833538,7.48607965 Z" id="Dial" fill="#FFFFFF"></path>
                </g>
            </g>
        </g>
    </g>
</svg>